<svg width="350" height="350" viewBox="0 0 350 350" fill="none" xmlns="http://www.w3.org/2000/svg">
<path d="M173.719 336.462C264.806 336.462 338.646 293.83 338.646 241.241C338.646 188.652 264.806 146.02 173.719 146.02C82.6323 146.02 8.79199 188.652 8.79199 241.241C8.79199 293.83 82.6323 336.462 173.719 336.462Z" fill="#F0F0F0"/>
<path d="M276.241 282.835C291.689 282.835 304.212 275.605 304.212 266.686C304.212 257.767 291.689 250.537 276.241 250.537C260.792 250.537 248.269 257.767 248.269 266.686C248.269 275.605 260.792 282.835 276.241 282.835Z" fill="#E0E0E0"/>
<path d="M83.0618 287.812L26.0048 254.87C24.2198 253.841 24.2198 252.175 26.0048 251.146L119.357 197.246C120.356 196.739 121.46 196.475 122.58 196.475C123.701 196.475 124.805 196.739 125.804 197.246L182.861 230.188C184.646 231.217 184.646 232.883 182.861 233.912L89.5088 287.812C88.5099 288.319 87.4055 288.584 86.2853 288.584C85.165 288.584 84.0606 288.319 83.0618 287.812Z" fill="#E0E0E0"/>
<path d="M81.1158 245.546C81.1158 245.546 80.7098 231.973 74.8858 220.976C69.0618 209.979 60.4238 202.706 51.9048 201.313C43.3858 199.92 35.8048 207.235 44.5268 213.416C53.2488 219.597 69.0898 226.485 74.8998 247.373L81.1158 245.546Z" fill="#9269AD"/>
<g opacity="0.15">
<path opacity="0.15" d="M81.1158 245.546C81.1158 245.546 80.7098 231.973 74.8858 220.976C69.0618 209.979 60.4238 202.706 51.9048 201.313C43.3858 199.92 35.8048 207.235 44.5268 213.416C53.2488 219.597 69.0898 226.485 74.8998 247.373L81.1158 245.546Z" fill="black"/>
</g>
<path d="M78.89 241.843C78.9199 241.85 78.9511 241.85 78.981 241.843C79.0978 241.808 79.1957 241.727 79.2534 241.62C79.3111 241.512 79.3239 241.386 79.289 241.269C72.1 218.211 55.643 207.466 47.95 205.009C47.8931 204.991 47.833 204.983 47.7732 204.988C47.7135 204.993 47.6553 205.01 47.602 205.037C47.5486 205.064 47.5012 205.102 47.4624 205.147C47.4237 205.193 47.3943 205.246 47.376 205.303C47.3384 205.419 47.3482 205.545 47.4033 205.654C47.4584 205.763 47.5543 205.846 47.67 205.884C55.209 208.292 71.33 218.848 78.4 241.5C78.429 241.605 78.4938 241.697 78.5833 241.76C78.6727 241.822 78.7812 241.852 78.89 241.843Z" fill="white"/>
<path d="M36.8899 234.164C37.4639 235.879 39.1859 236.908 40.7959 237.741C42.4059 238.574 44.1559 239.47 44.9189 241.115C46.4449 244.433 43.0359 248.584 44.7019 251.839C45.1024 252.495 45.6322 253.064 46.2592 253.509C46.8862 253.954 47.5971 254.267 48.3489 254.429C49.5869 254.726 50.8392 254.959 52.1009 255.129C52.7039 255.179 53.3094 255.191 53.9139 255.164C55.6709 255.073 57.5679 255.164 59.0729 256.207C61.4459 257.852 61.9149 261.107 63.2099 263.662C64.0124 265.191 65.1381 266.527 66.5089 267.578C67.8796 268.628 69.4626 269.368 71.1479 269.745C73.9479 270.389 78.2669 270.151 79.1209 268.968C79.7649 268.065 78.3719 265.027 78.4209 263.921C78.5972 261.074 78.5035 258.217 78.1409 255.388C77.923 254.107 77.8619 252.805 77.9589 251.51C78.1036 250.063 78.2412 248.612 78.3719 247.156C78.5049 245.588 78.9879 244.356 78.5749 242.753C78.0946 241.206 77.3868 239.738 76.4749 238.399C75.6419 237.048 74.8019 235.711 73.9479 234.374C73.0017 232.76 71.8589 231.269 70.5459 229.936C69.3591 228.839 67.9613 227.995 66.4377 227.456C64.9141 226.917 63.2966 226.693 61.6839 226.8C59.0029 226.989 56.2799 228.235 53.5709 227.85C50.8619 227.465 48.4119 226.527 45.6889 226.45C42.8469 226.38 39.8509 227.311 37.9889 229.586C37.4437 230.2 37.0583 230.939 36.8666 231.737C36.6749 232.536 36.6829 233.369 36.8899 234.164Z" fill="#9269AD"/>
<path d="M77.4477 261.702C77.5005 261.694 77.551 261.675 77.5963 261.646C77.6416 261.618 77.6808 261.581 77.7115 261.537C77.7422 261.493 77.7637 261.444 77.775 261.392C77.7862 261.339 77.7868 261.285 77.7767 261.233C73.5207 235.935 47.8587 229.929 41.7337 229.796C41.6254 229.794 41.5206 229.835 41.442 229.909C41.3635 229.984 41.3174 230.087 41.3137 230.195C41.3118 230.249 41.3208 230.302 41.34 230.352C41.3592 230.402 41.3883 230.448 41.4255 230.486C41.4628 230.525 41.5074 230.555 41.5567 230.576C41.6061 230.597 41.6591 230.608 41.7127 230.608C47.7047 230.741 72.8067 236.621 76.9717 261.366C76.9922 261.473 77.0532 261.567 77.142 261.63C77.2307 261.693 77.3403 261.718 77.4477 261.702Z" fill="white"/>
<path d="M49.7347 246.477C49.8171 246.471 49.8955 246.439 49.9587 246.386C50.0287 246.33 57.2737 240.415 68.1237 243.068C68.2241 243.08 68.3251 243.054 68.4077 242.996C68.4903 242.938 68.5488 242.851 68.5721 242.753C68.5954 242.655 68.5818 242.551 68.534 242.462C68.4862 242.374 68.4075 242.305 68.3127 242.27C65.0992 241.424 61.7384 241.3 58.471 241.905C55.2035 242.51 52.1103 243.83 49.4127 245.77C49.3525 245.827 49.3112 245.902 49.2945 245.983C49.2777 246.064 49.2863 246.149 49.3192 246.225C49.352 246.302 49.4074 246.366 49.4779 246.41C49.5485 246.454 49.6308 246.475 49.7137 246.47L49.7347 246.477Z" fill="white"/>
<path d="M177.373 23.3726L88.2 74.8506C87.2601 75.4662 86.4774 76.2934 85.9146 77.2658C85.3518 78.2382 85.0245 79.329 84.959 80.4506V281.561C84.959 283.626 86.415 284.473 88.2 283.43L177.366 231.959C178.306 231.343 179.089 230.516 179.651 229.543C180.214 228.571 180.541 227.48 180.607 226.359V25.2416C180.6 23.1766 179.158 22.3366 177.373 23.3726ZM175.973 207.809C175.973 209.58 174.734 210.707 173.173 211.589L92.092 258.398C90.559 259.28 89.292 258.566 89.292 256.788V99.2876C89.3481 98.3205 89.6307 97.3801 90.1171 96.5424C90.6035 95.7046 91.28 94.9929 92.092 94.4646L173.166 47.6486C174.706 46.7526 175.966 47.4736 175.966 49.2446L175.973 207.809Z" fill="#37474F"/>
<path d="M87.8009 283.64C86.8326 284.048 85.7873 284.241 84.7372 284.206C83.687 284.171 82.6569 283.909 81.7179 283.437L78.0079 281.295C77.0631 280.683 76.2759 279.858 75.7103 278.885C75.1448 277.911 74.8167 276.819 74.7529 275.695V74.5921C74.7721 73.7542 74.9652 72.9294 75.3199 72.1701C75.4313 71.903 75.5599 71.6435 75.7049 71.3931L85.9039 77.2871C85.6868 77.6697 85.4973 78.0674 85.3369 78.4771C85.0917 79.1192 84.9591 79.7988 84.9449 80.4861V281.568C84.9659 283.5 86.2049 284.333 87.8009 283.64Z" fill="#263238"/>
<path d="M133.56 240.023C136.36 238.392 138.677 239.715 138.677 242.977C138.582 244.753 138.069 246.483 137.18 248.024C136.291 249.565 135.051 250.874 133.56 251.846C130.76 253.477 128.443 252.154 128.443 248.892C128.539 247.115 129.052 245.386 129.941 243.845C130.83 242.305 132.07 240.995 133.56 240.023Z" fill="#9269AD"/>
<path d="M132.79 53.4516C133.987 52.7516 134.96 53.3186 134.96 54.7046C134.919 55.4587 134.702 56.1925 134.325 56.8468C133.948 57.5011 133.422 58.0574 132.79 58.4706C131.586 59.1706 130.613 58.6036 130.613 57.2106C130.654 56.4568 130.872 55.7233 131.25 55.07C131.629 54.4168 132.156 53.8622 132.79 53.4516Z" fill="black"/>
<path d="M124.397 66.675L141.197 56.98C142.198 56.406 143.01 56.812 143.01 57.897C142.966 58.506 142.779 59.0961 142.464 59.6191C142.149 60.1422 141.715 60.5834 141.197 60.907L124.397 70.602C123.396 71.176 122.584 70.77 122.584 69.685C122.628 69.076 122.815 68.4859 123.13 67.9629C123.445 67.4398 123.879 66.9986 124.397 66.675Z" fill="black"/>
<path d="M175.945 207.809C175.945 209.58 174.706 210.707 173.145 211.589L92.092 258.398C90.559 259.28 89.292 258.566 89.292 256.788V99.2881C89.3481 98.321 89.6308 97.3806 90.1171 96.5428C90.6035 95.7051 91.28 94.9933 92.092 94.4651L173.166 47.6491C174.706 46.7531 175.966 47.4741 175.966 49.2451L175.945 207.809Z" fill="#9269AD"/>
<path d="M180.6 24.7308C180.369 23.0438 179.018 22.4348 177.401 23.3728L88.1999 74.8508C87.2437 75.4508 86.456 76.2843 85.9109 77.2728L75.7119 71.3998C76.2598 70.4148 77.0501 69.586 78.0079 68.9918L167.167 17.4998C168.172 16.9889 169.284 16.7227 170.411 16.7227C171.539 16.7227 172.651 16.9889 173.656 17.4998L177.38 19.5998C178.254 20.1727 178.995 20.9278 179.551 21.8134C180.106 22.699 180.464 23.6941 180.6 24.7308Z" fill="#455A64"/>
<path d="M187.236 54.432C186.921 54.2853 186.572 54.226 186.226 54.2605C185.88 54.295 185.549 54.4219 185.269 54.628L104.195 101.423C103.383 101.951 102.706 102.663 102.22 103.501C101.734 104.339 101.451 105.279 101.395 106.246V263.746C101.365 264.078 101.417 264.412 101.548 264.719C101.679 265.025 101.884 265.295 102.144 265.503C102.655 265.839 104.713 266.959 105.189 267.26C105.506 267.421 105.863 267.491 106.217 267.461C106.572 267.432 106.912 267.304 107.198 267.092L188.3 220.311C189.84 219.429 191.1 218.302 191.1 216.531V57.967C191.135 57.6232 191.079 57.2761 190.936 56.9613C190.793 56.6465 190.57 56.3751 190.288 56.175L187.236 54.432Z" fill="#E0E0E0"/>
<path d="M191.1 216.531C191.1 218.302 189.854 219.429 188.3 220.311L107.212 267.12C105.679 268.009 104.412 267.288 104.412 265.517V108.017C104.467 107.05 104.749 106.11 105.235 105.273C105.722 104.437 106.399 103.726 107.212 103.201L188.3 56.3709C189.84 55.4749 191.1 56.2029 191.1 57.9669V216.531Z" fill="#FAFAFA"/>
<path d="M189.532 56.6998C190.288 56.6998 190.372 57.5958 190.372 57.9808V216.531C190.372 217.763 189.623 218.743 187.936 219.709L106.862 266.518C106.594 266.684 106.288 266.781 105.973 266.798C105.217 266.798 105.133 265.902 105.133 265.517V108.017C105.19 107.178 105.439 106.363 105.86 105.635C106.281 104.907 106.863 104.285 107.562 103.817L188.643 56.9728C188.91 56.8017 189.216 56.7028 189.532 56.6858V56.6998ZM189.532 55.9858C189.09 56.0039 188.661 56.1366 188.286 56.3708L107.212 103.173C106.399 103.698 105.722 104.408 105.235 105.245C104.749 106.082 104.467 107.022 104.412 107.989V265.489C104.412 266.749 105.042 267.47 105.952 267.47C106.391 267.456 106.819 267.325 107.191 267.092L188.3 220.311C189.84 219.429 191.1 218.302 191.1 216.531V57.9668C191.1 56.7138 190.477 55.9858 189.56 55.9858H189.532Z" fill="#E0E0E0"/>
<path d="M149.8 106.344C161.497 99.596 170.975 105.063 170.975 118.566C170.975 132.069 161.49 148.484 149.8 155.232C138.11 161.98 128.632 156.513 128.632 143.01C128.632 129.507 138.103 113.092 149.8 106.344Z" fill="#9269AD"/>
<path d="M151.543 115.087L154.532 121.429L161.21 118.867C162.134 118.517 162.498 119.812 161.833 121.058L157.003 130.158L158.144 138.369C158.298 139.496 157.339 140.987 156.513 140.882L150.542 140.182L144.564 147.819C143.745 148.869 142.779 148.519 142.94 147.182L144.081 137.648L139.244 134.148C138.579 133.665 138.943 131.943 139.867 131.236L146.545 126.084L149.534 116.284C149.947 114.898 151.137 114.212 151.543 115.087Z" fill="#FAFAFA"/>
<path d="M120.764 191.198C120.764 194.096 122.934 195.188 125.601 193.648L170.968 167.454C173.635 165.914 175.798 162.323 175.798 159.425C175.798 156.527 173.635 155.442 170.968 156.982L125.601 183.169C122.934 184.716 120.764 188.3 120.764 191.198Z" fill="#9269AD"/>
<path opacity="0.6" d="M120.764 191.198C120.764 194.096 122.934 195.188 125.601 193.648L170.968 167.454C173.635 165.914 175.798 162.323 175.798 159.425C175.798 156.527 173.635 155.442 170.968 156.982L125.601 183.169C122.934 184.716 120.764 188.3 120.764 191.198Z" fill="white"/>
<path d="M125.405 186.781L171.164 160.356C172.053 159.845 172.774 160.209 172.774 161.175C172.734 161.716 172.568 162.24 172.288 162.704C172.008 163.169 171.623 163.561 171.164 163.849L125.405 190.274C124.516 190.785 123.788 190.421 123.788 189.455C123.827 188.913 123.994 188.389 124.275 187.924C124.556 187.459 124.943 187.067 125.405 186.781Z" fill="#455A64"/>
<path d="M120.764 208.656C120.764 211.554 122.934 212.646 125.601 211.106L170.968 184.912C173.635 183.372 175.798 179.781 175.798 176.883C175.798 173.985 173.635 172.9 170.968 174.44L125.601 200.627C122.934 202.174 120.764 205.8 120.764 208.656Z" fill="#9269AD"/>
<path opacity="0.6" d="M120.764 208.656C120.764 211.554 122.934 212.646 125.601 211.106L170.968 184.912C173.635 183.372 175.798 179.781 175.798 176.883C175.798 173.985 173.635 172.9 170.968 174.44L125.601 200.627C122.934 202.174 120.764 205.8 120.764 208.656Z" fill="white"/>
<path d="M128.324 202.552C129.164 202.069 129.836 202.461 129.836 203.42C129.809 203.946 129.658 204.458 129.395 204.914C129.132 205.37 128.765 205.758 128.324 206.045C127.491 206.521 126.812 206.136 126.812 205.17C126.841 204.646 126.993 204.135 127.255 203.681C127.518 203.226 127.884 202.839 128.324 202.552Z" fill="#455A64"/>
<path d="M134.167 202.163C134.756 201.141 134.756 200.038 134.167 199.698C133.577 199.358 132.622 199.91 132.033 200.931C131.443 201.952 131.443 203.056 132.032 203.396C132.622 203.736 133.577 203.184 134.167 202.163Z" fill="#455A64"/>
<path d="M137.9 197.043C138.74 196.56 139.412 196.952 139.412 197.911C139.385 198.437 139.234 198.949 138.971 199.405C138.708 199.861 138.341 200.249 137.9 200.536C137.067 201.012 136.388 200.627 136.388 199.661C136.417 199.136 136.569 198.626 136.832 198.171C137.094 197.717 137.46 197.33 137.9 197.043Z" fill="#455A64"/>
<path d="M142.639 194.285C143.472 193.802 144.151 194.194 144.151 195.16C144.122 195.684 143.97 196.195 143.708 196.649C143.445 197.104 143.079 197.491 142.639 197.778C141.806 198.261 141.127 197.869 141.127 196.903C141.156 196.379 141.309 195.869 141.571 195.414C141.834 194.959 142.2 194.572 142.639 194.285Z" fill="#455A64"/>
<path d="M147.413 191.534C148.246 191.051 148.918 191.443 148.918 192.402C148.89 192.927 148.74 193.438 148.478 193.894C148.217 194.35 147.852 194.738 147.413 195.027C146.573 195.51 145.901 195.118 145.901 194.152C145.928 193.627 146.079 193.116 146.342 192.661C146.605 192.206 146.972 191.82 147.413 191.534Z" fill="#455A64"/>
<path d="M153.251 191.146C153.84 190.125 153.841 189.021 153.251 188.681C152.662 188.341 151.706 188.893 151.117 189.915C150.528 190.936 150.528 192.039 151.117 192.379C151.706 192.72 152.662 192.167 153.251 191.146Z" fill="#455A64"/>
<path d="M156.954 186.025C157.787 185.542 158.466 185.934 158.466 186.893C158.437 187.418 158.285 187.929 158.023 188.385C157.76 188.841 157.394 189.229 156.954 189.518C156.114 190.001 155.442 189.609 155.442 188.643C155.469 188.118 155.62 187.607 155.883 187.152C156.146 186.697 156.513 186.311 156.954 186.025Z" fill="#455A64"/>
<path d="M162.79 185.638C163.379 184.617 163.379 183.513 162.79 183.173C162.2 182.833 161.245 183.385 160.656 184.406C160.066 185.427 160.066 186.531 160.655 186.871C161.245 187.211 162.2 186.659 162.79 185.638Z" fill="#455A64"/>
<path d="M166.495 180.516C167.328 180.033 168.007 180.425 168.007 181.391C167.977 181.915 167.825 182.425 167.563 182.88C167.3 183.335 166.934 183.721 166.495 184.009C165.655 184.492 164.983 184.1 164.983 183.134C165.01 182.609 165.161 182.098 165.424 181.643C165.687 181.188 166.054 180.802 166.495 180.516Z" fill="#455A64"/>
<path d="M171.262 177.758C172.095 177.275 172.774 177.667 172.774 178.633C172.745 179.157 172.593 179.668 172.331 180.123C172.068 180.577 171.702 180.964 171.262 181.251C170.429 181.734 169.75 181.342 169.75 180.376C169.779 179.852 169.932 179.342 170.194 178.887C170.457 178.432 170.823 178.046 171.262 177.758Z" fill="#455A64"/>
<path d="M140.924 214.48L161.7 202.489C163.478 201.46 164.92 202.293 164.92 204.351V207.382C164.862 208.503 164.54 209.594 163.98 210.567C163.421 211.54 162.64 212.368 161.7 212.982L140.931 224.973C139.146 226.002 137.704 225.169 137.704 223.111V220.08C137.761 218.959 138.083 217.867 138.642 216.894C139.202 215.92 139.984 215.093 140.924 214.48Z" fill="#9269AD"/>
<path d="M140.7 219.737V219.933C140.7 220.962 141.4 221.382 142.317 220.864L160.3 210.511C160.77 210.204 161.16 209.79 161.44 209.303C161.72 208.817 161.881 208.271 161.91 207.711V207.508C161.91 206.479 161.21 206.059 160.3 206.577L142.359 216.937C141.879 217.238 141.478 217.649 141.19 218.136C140.901 218.623 140.733 219.172 140.7 219.737Z" fill="#FAFAFA"/>
<path opacity="0.7" d="M136.304 151.473L220.773 102.711C221.662 102.2 222.383 102.613 222.383 103.642V170.842C222.354 171.403 222.193 171.948 221.913 172.435C221.634 172.922 221.243 173.335 220.773 173.642L136.304 222.39C135.415 222.908 134.694 222.488 134.694 221.459V154.259C134.725 153.701 134.887 153.158 135.166 152.674C135.446 152.19 135.836 151.779 136.304 151.473Z" fill="#37474F"/>
<path opacity="0.7" d="M135.163 152.677L131.054 150.297C130.762 150.777 130.598 151.324 130.578 151.886V219.086C130.56 219.284 130.593 219.483 130.674 219.664C130.755 219.845 130.881 220.003 131.04 220.122C131.341 220.297 134.855 222.306 135.135 222.488C134.981 222.367 134.859 222.21 134.782 222.03C134.705 221.85 134.675 221.654 134.694 221.459V154.259C134.715 153.701 134.876 153.156 135.163 152.677Z" fill="#263238"/>
<path opacity="0.5" d="M221.851 102.564C221.277 102.214 218.078 100.38 217.819 100.226C217.636 100.137 217.432 100.099 217.228 100.116C217.025 100.134 216.83 100.205 216.664 100.324L132.195 149.1C131.719 149.398 131.326 149.813 131.054 150.304L135.163 152.684C135.435 152.193 135.828 151.778 136.304 151.48L220.78 102.711C220.934 102.603 221.112 102.534 221.298 102.508C221.484 102.483 221.674 102.502 221.851 102.564Z" fill="#455A64"/>
<path d="M147.7 152.131C147.718 152.117 147.74 152.11 147.763 152.11C147.786 152.11 147.808 152.117 147.826 152.131C147.846 152.154 147.861 152.18 147.871 152.209C147.88 152.238 147.884 152.269 147.882 152.299V153.391C147.88 153.471 147.861 153.55 147.826 153.622C147.799 153.684 147.756 153.738 147.7 153.776L146.524 154.476V159.768C146.522 159.848 146.503 159.927 146.468 159.999C146.441 160.061 146.398 160.115 146.342 160.153L145.46 160.657C145.442 160.672 145.42 160.68 145.397 160.68C145.374 160.68 145.352 160.672 145.334 160.657C145.297 160.612 145.28 160.554 145.285 160.496V155.197L144.102 155.897C144.084 155.912 144.062 155.92 144.039 155.92C144.016 155.92 143.994 155.912 143.976 155.897C143.955 155.876 143.94 155.85 143.93 155.823C143.921 155.795 143.917 155.765 143.92 155.736V154.644C143.922 154.564 143.941 154.485 143.976 154.413C144.001 154.35 144.045 154.296 144.102 154.259L147.7 152.131Z" fill="#FAFAFA"/>
<path d="M152.159 155.12C152.178 155.105 152.201 155.096 152.225 155.096C152.25 155.096 152.273 155.105 152.292 155.12C152.33 155.167 152.347 155.228 152.341 155.288V156.38C152.342 156.457 152.326 156.534 152.292 156.604C152.263 156.669 152.217 156.724 152.159 156.765L148.988 158.599C148.97 158.614 148.948 158.622 148.925 158.622C148.902 158.622 148.88 158.614 148.862 158.599C148.841 158.578 148.825 158.553 148.816 158.525C148.806 158.497 148.803 158.467 148.806 158.438V151.774C148.805 151.693 148.824 151.614 148.862 151.543C148.887 151.48 148.931 151.426 148.988 151.389L152.11 149.583C152.128 149.568 152.15 149.56 152.173 149.56C152.196 149.56 152.218 149.568 152.236 149.583C152.256 149.604 152.271 149.63 152.281 149.658C152.291 149.685 152.294 149.715 152.292 149.744V150.836C152.29 150.916 152.271 150.995 152.236 151.067C152.211 151.13 152.167 151.184 152.11 151.221L150.01 152.411V153.524L151.928 152.418C151.946 152.403 151.968 152.395 151.991 152.395C152.014 152.395 152.036 152.403 152.054 152.418C152.074 152.439 152.089 152.465 152.099 152.493C152.109 152.52 152.112 152.55 152.11 152.579V153.678C152.108 153.756 152.089 153.832 152.054 153.902C152.029 153.965 151.985 154.019 151.928 154.056L150.01 155.162V156.317L152.159 155.12Z" fill="#FAFAFA"/>
<path d="M155.442 147.651C155.685 147.502 155.953 147.397 156.233 147.343C156.436 147.298 156.648 147.33 156.828 147.434C157.01 147.558 157.144 147.741 157.206 147.952C157.299 148.268 157.342 148.596 157.332 148.925C157.336 149.399 157.268 149.871 157.129 150.325C157 150.73 156.801 151.109 156.541 151.445L157.367 153.426C157.374 153.458 157.374 153.492 157.367 153.524C157.367 153.589 157.352 153.654 157.325 153.713C157.302 153.763 157.266 153.807 157.22 153.839L156.31 154.364C156.219 154.413 156.156 154.42 156.121 154.364C156.081 154.327 156.05 154.282 156.03 154.231L155.281 152.453L154.665 152.81V155.015C154.666 155.095 154.649 155.173 154.616 155.246C154.589 155.31 154.543 155.364 154.483 155.4L153.608 155.911C153.59 155.926 153.568 155.934 153.545 155.934C153.522 155.934 153.5 155.926 153.482 155.911C153.443 155.867 153.423 155.809 153.426 155.75V149.1C153.428 149.02 153.447 148.941 153.482 148.869C153.507 148.806 153.551 148.752 153.608 148.715L155.442 147.651ZM154.7 151.2L155.456 150.766C155.643 150.658 155.803 150.509 155.925 150.332C156.055 150.122 156.119 149.878 156.107 149.632C156.107 149.345 156.051 149.177 155.925 149.142C155.844 149.125 155.76 149.126 155.679 149.144C155.598 149.162 155.522 149.197 155.456 149.247L154.7 149.681V151.2Z" fill="#FAFAFA"/>
<path d="M160.398 150.192C160.364 150.156 160.333 150.116 160.307 150.073L159.677 148.736V152.152C159.677 152.229 159.66 152.306 159.628 152.376C159.602 152.442 159.555 152.499 159.495 152.537L158.62 153.041C158.602 153.055 158.58 153.062 158.557 153.062C158.534 153.062 158.512 153.055 158.494 153.041C158.474 153.018 158.459 152.992 158.449 152.963C158.44 152.934 158.436 152.903 158.438 152.873V146.209C158.44 146.129 158.459 146.05 158.494 145.978C158.521 145.916 158.564 145.863 158.62 145.824L159.397 145.376C159.488 145.327 159.558 145.327 159.6 145.376C159.632 145.41 159.66 145.448 159.684 145.488L160.769 147.721L161.861 144.221C161.884 144.147 161.912 144.075 161.945 144.004C161.985 143.909 162.057 143.83 162.148 143.78L162.925 143.325C162.943 143.31 162.965 143.302 162.988 143.302C163.011 143.302 163.033 143.31 163.051 143.325C163.071 143.347 163.087 143.372 163.096 143.4C163.106 143.427 163.11 143.457 163.107 143.486V150.15C163.105 150.23 163.086 150.309 163.051 150.381C163.026 150.445 162.982 150.498 162.925 150.535L162.043 151.039C162.026 151.055 162.004 151.065 161.98 151.065C161.957 151.065 161.934 151.055 161.917 151.039C161.878 150.995 161.858 150.937 161.861 150.878V147.462L161.231 149.527C161.207 149.603 161.179 149.678 161.147 149.751C161.113 149.825 161.057 149.886 160.986 149.926L160.559 150.178C160.489 150.227 160.44 150.227 160.398 150.192Z" fill="#FAFAFA"/>
<path d="M166.117 141.4C166.356 141.25 166.627 141.159 166.908 141.134C167.122 141.121 167.335 141.167 167.524 141.267C167.7 141.367 167.843 141.515 167.937 141.694C168.035 141.88 168.088 142.086 168.091 142.296C168.091 142.359 168.077 142.421 168.049 142.478C168.027 142.527 167.994 142.571 167.951 142.604L167.069 143.108C167.026 143.139 166.975 143.157 166.922 143.157C166.879 143.147 166.838 143.128 166.803 143.101L166.74 143.031C166.704 142.997 166.661 142.97 166.614 142.954C166.548 142.935 166.477 142.935 166.411 142.954C166.306 142.97 166.206 143.008 166.117 143.066C166.031 143.116 165.949 143.172 165.872 143.234C165.796 143.293 165.728 143.361 165.669 143.437C165.606 143.509 165.556 143.592 165.522 143.682C165.481 143.772 165.46 143.87 165.459 143.969C165.455 144.009 165.459 144.05 165.471 144.088C165.483 144.127 165.503 144.163 165.529 144.193C165.588 144.241 165.664 144.264 165.739 144.256C165.874 144.254 166.008 144.236 166.138 144.2L166.754 144.039C166.964 143.981 167.181 143.952 167.398 143.955C167.567 143.963 167.729 144.024 167.86 144.13C167.992 144.256 168.086 144.416 168.133 144.592C168.202 144.848 168.232 145.112 168.224 145.376C168.225 145.725 168.173 146.072 168.07 146.405C167.966 146.742 167.82 147.064 167.636 147.364C167.451 147.665 167.23 147.942 166.978 148.19C166.733 148.437 166.455 148.649 166.152 148.82C165.899 148.978 165.615 149.078 165.319 149.114C165.098 149.141 164.874 149.102 164.675 149.002C164.492 148.901 164.343 148.748 164.248 148.561C164.138 148.344 164.083 148.104 164.087 147.861C164.087 147.795 164.103 147.73 164.136 147.672C164.153 147.624 164.185 147.582 164.227 147.553L165.109 147.042C165.153 147.014 165.204 146.997 165.256 146.993C165.295 147.001 165.331 147.017 165.361 147.042C165.391 147.068 165.419 147.096 165.445 147.126C165.486 147.17 165.533 147.208 165.585 147.238C165.661 147.257 165.74 147.257 165.816 147.238C165.937 147.228 166.052 147.187 166.152 147.119C166.371 146.993 166.571 146.838 166.747 146.657C166.894 146.504 166.979 146.302 166.985 146.09C166.991 146.05 166.986 146.009 166.97 145.972C166.953 145.935 166.927 145.903 166.894 145.88C166.814 145.84 166.723 145.827 166.635 145.845C166.483 145.858 166.333 145.886 166.187 145.929L165.55 146.09C165.383 146.159 165.199 146.179 165.021 146.148C164.842 146.117 164.676 146.036 164.542 145.915C164.292 145.556 164.178 145.119 164.22 144.683C164.225 144.371 164.27 144.06 164.353 143.759C164.446 143.436 164.573 143.124 164.731 142.828C164.896 142.526 165.099 142.247 165.333 141.995C165.562 141.758 165.827 141.557 166.117 141.4Z" fill="#FAFAFA"/>
<path d="M170.8 141.463C170.814 141.064 170.871 140.668 170.968 140.28C171.058 139.892 171.194 139.516 171.374 139.16C171.546 138.81 171.763 138.483 172.018 138.187C172.268 137.906 172.564 137.67 172.893 137.487C173.153 137.319 173.452 137.223 173.761 137.207C173.998 137.202 174.228 137.281 174.412 137.431C174.605 137.606 174.746 137.832 174.818 138.082C174.921 138.404 174.978 138.739 174.986 139.076C174.986 139.37 174.986 139.678 174.986 140C174.986 140.322 174.986 140.623 174.986 140.91C174.972 141.309 174.915 141.706 174.818 142.093C174.724 142.485 174.588 142.865 174.412 143.227C174.238 143.577 174.02 143.901 173.761 144.193C173.512 144.473 173.219 144.709 172.893 144.893C172.632 145.065 172.33 145.164 172.018 145.18C171.782 145.192 171.551 145.112 171.374 144.956C171.179 144.779 171.039 144.551 170.968 144.298C170.864 143.977 170.808 143.642 170.8 143.304C170.8 143.031 170.8 142.73 170.8 142.408C170.8 142.086 170.8 141.764 170.8 141.463ZM173.74 141.547C173.74 141.421 173.74 141.281 173.74 141.127C173.74 140.973 173.74 140.819 173.74 140.658C173.74 140.497 173.74 140.35 173.74 140.203C173.74 140.056 173.74 139.93 173.74 139.818C173.738 139.671 173.714 139.525 173.67 139.384C173.643 139.276 173.587 139.177 173.509 139.097C173.44 139.033 173.351 138.996 173.257 138.992C173.128 139.001 173.002 139.042 172.893 139.111C172.755 139.19 172.632 139.292 172.529 139.412C172.426 139.534 172.339 139.668 172.27 139.811C172.202 139.962 172.148 140.119 172.109 140.28C172.075 140.451 172.051 140.624 172.039 140.798C172.039 140.924 172.039 141.057 172.039 141.204C172.039 141.351 172.039 141.505 172.039 141.666C172.039 141.827 172.039 141.981 172.039 142.128C172.039 142.275 172.039 142.415 172.039 142.534C172.04 142.786 172.121 143.031 172.27 143.234C172.41 143.381 172.613 143.374 172.893 143.234C173.167 143.072 173.383 142.827 173.509 142.534C173.653 142.223 173.74 141.889 173.768 141.547H173.74Z" fill="#FAFAFA"/>
<path d="M179.375 133.84C179.393 133.826 179.415 133.817 179.438 133.817C179.461 133.817 179.483 133.826 179.501 133.84C179.539 133.888 179.556 133.948 179.55 134.008V135.1C179.551 135.178 179.534 135.254 179.501 135.324C179.475 135.389 179.431 135.444 179.375 135.485L177.366 136.64V138.04L179.242 136.955C179.26 136.941 179.282 136.932 179.305 136.932C179.328 136.932 179.35 136.941 179.368 136.955C179.405 137.001 179.422 137.058 179.417 137.116V138.215C179.417 138.293 179.4 138.369 179.368 138.439C179.343 138.503 179.299 138.557 179.242 138.593L177.366 139.671V141.904C177.367 141.982 177.35 142.058 177.317 142.128C177.292 142.192 177.248 142.246 177.191 142.282L176.309 142.793C176.291 142.807 176.269 142.814 176.246 142.814C176.223 142.814 176.201 142.807 176.183 142.793C176.163 142.77 176.148 142.744 176.138 142.715C176.129 142.686 176.125 142.656 176.127 142.625V135.961C176.128 135.883 176.147 135.807 176.183 135.737C176.208 135.672 176.252 135.616 176.309 135.576L179.375 133.84Z" fill="#FAFAFA"/>
<path d="M183.988 131.068C184.229 130.922 184.499 130.831 184.779 130.802C184.993 130.789 185.206 130.835 185.395 130.935C185.569 131.037 185.712 131.184 185.808 131.362C185.906 131.548 185.959 131.754 185.962 131.964C185.96 132.028 185.943 132.09 185.913 132.146C185.896 132.198 185.861 132.243 185.815 132.272L184.94 132.776C184.899 132.811 184.847 132.828 184.793 132.825C184.749 132.818 184.708 132.799 184.674 132.769L184.611 132.699C184.575 132.665 184.532 132.638 184.485 132.622C184.419 132.604 184.349 132.604 184.282 132.622C184.177 132.638 184.077 132.676 183.988 132.734C183.902 132.784 183.82 132.84 183.743 132.902C183.667 132.961 183.599 133.029 183.54 133.105C183.477 133.179 183.425 133.261 183.386 133.35C183.35 133.441 183.331 133.539 183.33 133.637C183.323 133.676 183.325 133.716 183.336 133.753C183.348 133.791 183.368 133.825 183.396 133.853C183.423 133.881 183.457 133.903 183.494 133.915C183.532 133.927 183.571 133.93 183.61 133.924C183.745 133.922 183.879 133.903 184.009 133.868L184.625 133.707C184.835 133.649 185.052 133.62 185.269 133.623C185.438 133.631 185.6 133.692 185.731 133.798C185.863 133.924 185.957 134.084 186.004 134.26C186.069 134.516 186.1 134.78 186.095 135.044C186.094 135.393 186.042 135.739 185.941 136.073C185.836 136.409 185.69 136.731 185.507 137.032C185.323 137.334 185.102 137.611 184.849 137.858C184.604 138.105 184.326 138.317 184.023 138.488C183.774 138.652 183.488 138.753 183.19 138.782C182.969 138.81 182.745 138.771 182.546 138.67C182.363 138.569 182.214 138.416 182.119 138.229C182.01 138.012 181.954 137.772 181.958 137.529C181.959 137.464 181.973 137.399 182 137.34C182.022 137.292 182.056 137.251 182.098 137.221L182.98 136.71C183.024 136.682 183.075 136.665 183.127 136.661C183.166 136.668 183.202 136.685 183.232 136.71C183.259 136.737 183.285 136.765 183.309 136.794C183.354 136.837 183.403 136.874 183.456 136.906C183.532 136.925 183.611 136.925 183.687 136.906C183.808 136.896 183.923 136.855 184.023 136.787C184.242 136.661 184.442 136.506 184.618 136.325C184.766 136.173 184.851 135.97 184.856 135.758C184.86 135.718 184.853 135.678 184.838 135.641C184.822 135.605 184.797 135.573 184.765 135.548C184.681 135.519 184.59 135.519 184.506 135.548C184.354 135.561 184.204 135.589 184.058 135.632L183.4 135.8C183.233 135.869 183.049 135.889 182.871 135.858C182.693 135.827 182.527 135.746 182.392 135.625C182.139 135.267 182.024 134.829 182.07 134.393C182.072 134.08 182.116 133.769 182.203 133.469C182.29 133.144 182.417 132.832 182.581 132.538C182.746 132.236 182.949 131.957 183.183 131.705C183.416 131.451 183.688 131.236 183.988 131.068Z" fill="#FAFAFA"/>
<path d="M190.456 133C190.473 132.985 190.496 132.977 190.519 132.977C190.542 132.977 190.564 132.985 190.582 133C190.621 133.044 190.641 133.102 190.638 133.161V134.26C190.635 134.338 190.616 134.414 190.582 134.484C190.557 134.548 190.513 134.601 190.456 134.638L187.278 136.5C187.26 136.515 187.238 136.523 187.215 136.523C187.192 136.523 187.169 136.515 187.152 136.5C187.132 136.477 187.117 136.451 187.107 136.422C187.097 136.393 187.094 136.362 187.096 136.332V129.668C187.099 129.59 187.118 129.514 187.152 129.444C187.176 129.381 187.221 129.327 187.278 129.29L190.4 127.47C190.417 127.455 190.44 127.447 190.463 127.447C190.486 127.447 190.508 127.455 190.526 127.47C190.546 127.493 190.561 127.52 190.571 127.549C190.58 127.577 190.584 127.608 190.582 127.638V128.73C190.58 128.81 190.561 128.889 190.526 128.961C190.499 129.023 190.456 129.077 190.4 129.115L188.335 130.305V131.418L190.253 130.312C190.271 130.299 190.293 130.291 190.316 130.291C190.339 130.291 190.361 130.299 190.379 130.312C190.399 130.335 190.414 130.362 190.424 130.391C190.433 130.419 190.437 130.45 190.435 130.48V131.6C190.433 131.68 190.414 131.759 190.379 131.831C190.354 131.895 190.31 131.948 190.253 131.985L188.335 133.091V134.246L190.456 133Z" fill="#FAFAFA"/>
<path d="M193.739 125.545C193.983 125.397 194.251 125.29 194.53 125.23C194.733 125.189 194.943 125.222 195.125 125.321C195.307 125.446 195.439 125.632 195.496 125.846C195.595 126.158 195.64 126.485 195.629 126.812C195.634 127.287 195.564 127.759 195.419 128.212C195.287 128.615 195.088 128.994 194.831 129.332L195.664 131.306C195.671 131.341 195.671 131.376 195.664 131.411C195.661 131.474 195.644 131.536 195.615 131.593C195.595 131.646 195.558 131.69 195.51 131.719L194.6 132.244C194.516 132.3 194.446 132.307 194.411 132.244C194.374 132.204 194.344 132.159 194.32 132.111L193.578 130.333L192.962 130.69V132.895C192.961 132.973 192.942 133.05 192.906 133.119C192.881 133.184 192.837 133.24 192.78 133.28L191.898 133.784C191.88 133.799 191.858 133.807 191.835 133.807C191.812 133.807 191.79 133.799 191.772 133.784C191.734 133.736 191.717 133.676 191.723 133.616V126.952C191.723 126.875 191.74 126.798 191.772 126.728C191.797 126.665 191.841 126.611 191.898 126.574L193.739 125.545ZM192.983 129.108L193.739 128.667C193.926 128.562 194.085 128.413 194.201 128.233C194.336 128.025 194.402 127.78 194.39 127.533C194.39 127.239 194.327 127.078 194.201 127.036C194.039 127.009 193.873 127.047 193.739 127.141L192.983 127.582V129.108Z" fill="#FAFAFA"/>
<path d="M198.002 130.305C197.829 130.403 197.71 130.333 197.645 130.095L196.245 124.439C196.245 124.397 196.245 124.369 196.245 124.355V124.313C196.246 124.25 196.261 124.188 196.287 124.131C196.307 124.078 196.344 124.034 196.392 124.005L197.232 123.515C197.323 123.466 197.386 123.459 197.428 123.515C197.462 123.55 197.486 123.594 197.498 123.641L198.429 127.645L199.36 122.57C199.369 122.496 199.393 122.425 199.43 122.36C199.469 122.274 199.536 122.202 199.619 122.157L200.466 121.674C200.481 121.662 200.5 121.656 200.519 121.656C200.538 121.656 200.556 121.662 200.571 121.674C200.587 121.692 200.599 121.713 200.606 121.736C200.613 121.759 200.616 121.783 200.613 121.807C200.616 121.821 200.616 121.835 200.613 121.849C200.613 121.849 200.613 121.898 200.613 121.954L199.248 129.192C199.236 129.314 199.198 129.433 199.136 129.539C199.075 129.645 198.991 129.737 198.891 129.808L198.002 130.305Z" fill="#FAFAFA"/>
<path d="M201.761 128.135C201.743 128.15 201.721 128.158 201.698 128.158C201.675 128.158 201.652 128.15 201.635 128.135C201.613 128.113 201.597 128.087 201.588 128.057C201.578 128.028 201.575 127.997 201.579 127.967V121.303C201.577 121.225 201.596 121.147 201.635 121.079C201.659 121.014 201.703 120.958 201.761 120.918L202.636 120.414C202.653 120.399 202.676 120.391 202.699 120.391C202.722 120.391 202.744 120.399 202.762 120.414C202.782 120.437 202.797 120.464 202.807 120.492C202.816 120.521 202.82 120.552 202.818 120.582V127.246C202.816 127.324 202.797 127.4 202.762 127.47C202.735 127.534 202.692 127.59 202.636 127.631L201.761 128.135Z" fill="#FAFAFA"/>
<path d="M205.17 121.688C205.17 121.779 205.17 121.905 205.17 122.066V123.053C205.17 123.214 205.17 123.333 205.17 123.424C205.177 123.563 205.196 123.701 205.226 123.837C205.25 123.949 205.303 124.053 205.38 124.138C205.412 124.174 205.45 124.202 205.494 124.222C205.537 124.241 205.585 124.251 205.632 124.25C205.767 124.247 205.898 124.206 206.01 124.131C206.151 124.051 206.279 123.95 206.388 123.83C206.481 123.728 206.561 123.615 206.626 123.494C206.687 123.382 206.736 123.265 206.773 123.144C206.807 123.041 206.833 122.936 206.85 122.829C206.865 122.735 206.891 122.643 206.927 122.556C206.962 122.49 207.015 122.436 207.081 122.402L207.956 121.898C207.971 121.886 207.99 121.879 208.009 121.879C208.028 121.879 208.046 121.886 208.061 121.898C208.091 121.938 208.106 121.988 208.103 122.038C208.094 122.405 208.037 122.77 207.935 123.123C207.832 123.492 207.684 123.847 207.494 124.18C207.31 124.511 207.089 124.821 206.836 125.104C206.6 125.38 206.321 125.616 206.01 125.804C205.752 125.968 205.455 126.062 205.149 126.077C204.913 126.082 204.684 125.999 204.505 125.846C204.312 125.669 204.169 125.445 204.092 125.195C203.994 124.875 203.94 124.543 203.931 124.208C203.931 123.935 203.931 123.634 203.931 123.312C203.931 122.99 203.931 122.675 203.931 122.374C203.956 121.574 204.151 120.789 204.505 120.071C204.678 119.721 204.894 119.394 205.149 119.098C205.395 118.818 205.686 118.582 206.01 118.398C206.258 118.239 206.542 118.145 206.836 118.125C207.067 118.107 207.298 118.163 207.494 118.286C207.694 118.418 207.848 118.609 207.935 118.832C208.047 119.117 208.104 119.421 208.103 119.728C208.103 119.791 208.088 119.853 208.061 119.91C208.042 119.963 208.005 120.007 207.956 120.036L207.081 120.547C207.004 120.589 206.955 120.596 206.927 120.547C206.886 120.491 206.859 120.426 206.85 120.358C206.834 120.28 206.808 120.205 206.773 120.134C206.742 120.061 206.691 119.998 206.626 119.952C206.555 119.906 206.472 119.884 206.388 119.889C206.254 119.907 206.126 119.952 206.01 120.022C205.867 120.108 205.74 120.217 205.632 120.344C205.527 120.468 205.442 120.607 205.38 120.757C205.311 120.904 205.259 121.059 205.226 121.219C205.198 121.374 205.179 121.531 205.17 121.688Z" fill="#FAFAFA"/>
<path d="M212.485 120.288C212.502 120.273 212.525 120.265 212.548 120.265C212.571 120.265 212.593 120.273 212.611 120.288C212.631 120.31 212.646 120.335 212.656 120.363C212.666 120.391 212.669 120.42 212.667 120.449V121.541C212.665 121.621 212.646 121.7 212.611 121.772C212.586 121.836 212.542 121.89 212.485 121.926L209.3 123.774C209.282 123.789 209.26 123.797 209.237 123.797C209.214 123.797 209.191 123.789 209.174 123.774C209.136 123.727 209.118 123.667 209.125 123.606V116.942C209.124 116.865 209.141 116.788 209.174 116.718C209.198 116.655 209.243 116.601 209.3 116.564L212.422 114.758C212.478 114.758 212.52 114.758 212.555 114.758C212.593 114.806 212.61 114.866 212.604 114.926V116.018C212.605 116.096 212.588 116.172 212.555 116.242C212.53 116.31 212.483 116.366 212.422 116.403L210.364 117.593V118.706L212.275 117.6C212.294 117.585 212.317 117.577 212.341 117.577C212.366 117.577 212.389 117.585 212.408 117.6C212.446 117.648 212.463 117.708 212.457 117.768V118.86C212.458 118.94 212.441 119.019 212.408 119.091C212.377 119.153 212.331 119.206 212.275 119.245L210.364 120.351V121.506L212.485 120.288Z" fill="#FAFAFA"/>
<path d="M180.271 150.773L188.608 145.964C189.07 145.698 189.441 145.908 189.448 146.447V146.657C189.432 146.948 189.347 147.23 189.201 147.482C189.055 147.733 188.852 147.947 188.608 148.106L180.271 152.922C179.809 153.188 179.431 152.971 179.431 152.439V152.229C179.447 151.937 179.531 151.653 179.677 151.4C179.823 151.147 180.026 150.932 180.271 150.773Z" fill="#FAFAFA"/>
<path d="M143.976 171.724L176.631 152.88C177.093 152.614 177.471 152.831 177.471 153.37V153.58C177.456 153.871 177.372 154.154 177.226 154.406C177.08 154.658 176.876 154.872 176.631 155.029L143.976 173.873C143.514 174.139 143.143 173.922 143.143 173.39V173.18C143.158 172.889 143.242 172.606 143.386 172.353C143.531 172.1 143.733 171.885 143.976 171.724Z" fill="#FAFAFA"/>
<path d="M192.367 143.794L211.855 132.538C212.324 132.265 212.695 132.482 212.695 133.021V133.231C212.68 133.521 212.596 133.803 212.452 134.055C212.307 134.307 212.105 134.521 211.862 134.68L192.367 145.936C191.905 146.202 191.527 145.985 191.527 145.453V145.243C191.543 144.952 191.628 144.67 191.774 144.418C191.92 144.167 192.123 143.953 192.367 143.794Z" fill="#FAFAFA"/>
<path d="M166.887 164.136L175.224 159.32C175.686 159.054 176.064 159.271 176.064 159.803V160.013C176.048 160.305 175.964 160.589 175.818 160.842C175.672 161.095 175.469 161.31 175.224 161.469L166.887 166.278C166.425 166.544 166.047 166.327 166.047 165.795V165.585C166.063 165.295 166.148 165.012 166.294 164.76C166.44 164.509 166.643 164.295 166.887 164.136Z" fill="#FAFAFA"/>
<path d="M179.2 157.003L211.848 138.166C212.317 137.893 212.688 138.11 212.688 138.649V138.859C212.673 139.149 212.589 139.431 212.445 139.683C212.3 139.935 212.098 140.149 211.855 140.308L179.2 159.152C178.731 159.418 178.36 159.201 178.36 158.669V158.459C178.375 158.167 178.459 157.883 178.605 157.63C178.751 157.377 178.955 157.162 179.2 157.003Z" fill="#FAFAFA"/>
<path d="M143.927 177.394L163.422 166.138C163.884 165.865 164.262 166.082 164.262 166.621V166.831C164.245 167.121 164.161 167.404 164.015 167.656C163.869 167.907 163.666 168.121 163.422 168.28L143.927 179.536C143.465 179.809 143.094 179.592 143.094 179.053V178.843C143.109 178.553 143.192 178.271 143.337 178.019C143.482 177.767 143.684 177.553 143.927 177.394Z" fill="#FAFAFA"/>
<path d="M143.976 166.089L158.263 157.843C158.725 157.577 159.096 157.794 159.096 158.326V158.536C159.081 158.827 158.997 159.11 158.853 159.363C158.708 159.616 158.506 159.832 158.263 159.992L143.976 168.238C143.514 168.504 143.143 168.287 143.143 167.748V167.545C143.157 167.254 143.24 166.97 143.385 166.717C143.53 166.464 143.732 166.249 143.976 166.089Z" fill="#FAFAFA"/>
<path d="M199.115 134.26L212.023 126.805C212.492 126.532 212.863 126.749 212.863 127.288V127.498C212.848 127.789 212.764 128.072 212.618 128.324C212.472 128.576 212.268 128.79 212.023 128.947L199.115 136.402C198.653 136.668 198.275 136.451 198.275 135.919V135.709C198.291 135.419 198.376 135.136 198.522 134.884C198.668 134.633 198.871 134.419 199.115 134.26Z" fill="#FAFAFA"/>
<path d="M161.896 155.736L194.551 136.892C195.013 136.626 195.391 136.843 195.391 137.375V137.585C195.375 137.875 195.29 138.158 195.144 138.41C194.998 138.661 194.795 138.875 194.551 139.034L161.896 157.878C161.434 158.144 161.056 157.927 161.056 157.395V157.185C161.073 156.895 161.157 156.612 161.303 156.36C161.449 156.109 161.652 155.895 161.896 155.736Z" fill="#FAFAFA"/>
<path d="M180.271 168.238L188.608 163.429C189.07 163.156 189.441 163.373 189.448 163.912V164.122C189.432 164.413 189.347 164.695 189.201 164.947C189.055 165.198 188.852 165.412 188.608 165.571L180.271 170.387C179.809 170.653 179.431 170.436 179.431 169.904V169.694C179.447 169.402 179.531 169.118 179.677 168.865C179.823 168.612 180.026 168.397 180.271 168.238Z" fill="#FAFAFA"/>
<path d="M143.976 189.189L176.631 170.345C177.093 170.079 177.471 170.296 177.471 170.835V171.045C177.456 171.336 177.372 171.619 177.226 171.871C177.08 172.123 176.876 172.336 176.631 172.494L143.976 191.338C143.514 191.604 143.143 191.387 143.143 190.855V190.645C143.158 190.354 143.242 190.071 143.386 189.818C143.531 189.565 143.733 189.35 143.976 189.189Z" fill="#FAFAFA"/>
<path d="M192.367 161.259L211.855 149.996C212.324 149.73 212.695 149.947 212.695 150.486V150.696C212.68 150.986 212.596 151.269 212.452 151.52C212.307 151.772 212.105 151.986 211.862 152.145L192.367 163.401C191.905 163.667 191.527 163.45 191.527 162.918V162.708C191.543 162.418 191.628 162.135 191.774 161.884C191.92 161.632 192.123 161.418 192.367 161.259Z" fill="#FAFAFA"/>
<path d="M166.887 181.601L175.224 176.785C175.686 176.519 176.064 176.736 176.064 177.268V177.478C176.048 177.77 175.964 178.054 175.818 178.307C175.672 178.56 175.469 178.775 175.224 178.934L166.887 183.743C166.425 184.009 166.047 183.792 166.047 183.26V183.05C166.063 182.76 166.148 182.477 166.294 182.225C166.44 181.974 166.643 181.76 166.887 181.601Z" fill="#FAFAFA"/>
<path d="M179.2 174.468L211.848 155.631C212.317 155.358 212.688 155.575 212.688 156.114V156.324C212.673 156.614 212.589 156.896 212.445 157.148C212.3 157.4 212.098 157.614 211.855 157.773L179.2 176.617C178.731 176.883 178.36 176.666 178.36 176.134V175.924C178.375 175.632 178.459 175.348 178.605 175.095C178.751 174.842 178.955 174.627 179.2 174.468Z" fill="#FAFAFA"/>
<path d="M143.927 194.859L163.422 183.603C163.884 183.33 164.262 183.547 164.262 184.086V184.296C164.245 184.587 164.161 184.869 164.015 185.121C163.869 185.373 163.666 185.587 163.422 185.745L143.927 197.001C143.465 197.274 143.094 197.057 143.094 196.518V196.308C143.109 196.018 143.192 195.736 143.337 195.484C143.482 195.233 143.684 195.018 143.927 194.859Z" fill="#FAFAFA"/>
<path d="M143.976 183.554L158.263 175.308C158.725 175.042 159.096 175.259 159.096 175.791V176.001C159.081 176.292 158.997 176.575 158.853 176.828C158.708 177.081 158.506 177.296 158.263 177.457L143.976 185.703C143.514 185.969 143.143 185.752 143.143 185.213V185.01C143.157 184.719 143.24 184.435 143.385 184.182C143.53 183.929 143.732 183.714 143.976 183.554Z" fill="#FAFAFA"/>
<path d="M199.115 151.718L212.023 144.263C212.492 143.997 212.863 144.214 212.863 144.753V144.963C212.848 145.254 212.764 145.537 212.618 145.789C212.472 146.041 212.268 146.254 212.023 146.412L199.115 153.867C198.653 154.133 198.275 153.916 198.275 153.384V153.174C198.292 152.883 198.377 152.599 198.523 152.347C198.669 152.094 198.871 151.879 199.115 151.718Z" fill="#FAFAFA"/>
<path d="M161.896 173.201L194.551 154.357C195.013 154.091 195.391 154.308 195.391 154.84V155.05C195.375 155.341 195.29 155.623 195.144 155.875C194.998 156.127 194.795 156.341 194.551 156.499L161.896 175.343C161.434 175.609 161.056 175.392 161.056 174.86V174.65C161.073 174.36 161.157 174.077 161.303 173.826C161.449 173.574 161.652 173.36 161.896 173.201Z" fill="#FAFAFA"/>
<path d="M195.181 173.719C197.281 172.515 198.961 173.488 198.961 175.903C198.889 177.214 198.51 178.49 197.853 179.627C197.196 180.765 196.281 181.731 195.181 182.448C193.081 183.652 191.401 182.679 191.401 180.264C191.472 178.953 191.852 177.677 192.509 176.54C193.166 175.403 194.081 174.437 195.181 173.719Z" fill="#9269AD"/>
<path d="M195.3 180.957C195.116 180.956 194.94 180.883 194.81 180.754L193.151 179.144C193.034 179.012 192.972 178.84 192.976 178.664C192.98 178.487 193.051 178.319 193.174 178.192C193.297 178.066 193.463 177.991 193.639 177.981C193.815 177.972 193.989 178.03 194.124 178.143L195.048 179.046L198.352 171.185C198.383 171.094 198.432 171.01 198.496 170.938C198.561 170.867 198.639 170.809 198.727 170.77C198.814 170.73 198.909 170.709 199.006 170.707C199.102 170.706 199.197 170.724 199.286 170.761C199.375 170.798 199.455 170.854 199.522 170.923C199.588 170.993 199.64 171.075 199.673 171.165C199.706 171.256 199.72 171.352 199.715 171.448C199.709 171.544 199.684 171.638 199.64 171.724L195.944 180.53C195.9 180.634 195.831 180.727 195.743 180.799C195.655 180.871 195.551 180.92 195.44 180.943L195.3 180.957Z" fill="#FAFAFA"/>
<path opacity="0.3" d="M202.496 170.191L205.996 168.189C206.696 167.783 207.284 168.112 207.284 168.938V172.942C207.258 173.389 207.128 173.824 206.905 174.211C206.681 174.599 206.37 174.929 205.996 175.175L202.496 177.177C201.796 177.59 201.208 177.254 201.208 176.435V172.431C201.232 171.983 201.36 171.546 201.584 171.157C201.808 170.768 202.12 170.437 202.496 170.191Z" fill="white"/>
<path d="M155.841 196.259C157.941 195.055 159.621 196.035 159.621 198.443C159.551 199.756 159.172 201.033 158.515 202.172C157.859 203.31 156.942 204.277 155.841 204.995C153.741 206.199 152.061 205.219 152.061 202.811C152.135 201.499 152.515 200.223 153.172 199.085C153.828 197.948 154.743 196.979 155.841 196.259Z" fill="#F28F8F"/>
<path opacity="0.3" d="M163.1 192.983L166.6 190.981C167.3 190.568 167.888 190.904 167.888 191.723V195.727C167.868 196.175 167.74 196.612 167.516 197.001C167.292 197.389 166.978 197.718 166.6 197.96L163.1 199.969C162.4 200.375 161.812 200.046 161.812 199.22V195.216C161.837 194.769 161.966 194.334 162.19 193.946C162.413 193.558 162.725 193.228 163.1 192.983Z" fill="white"/>
<path d="M157.255 202.685C157.075 202.684 156.902 202.614 156.772 202.489L153.972 199.78C153.894 199.72 153.829 199.644 153.782 199.557C153.735 199.471 153.707 199.375 153.7 199.277C153.693 199.178 153.706 199.08 153.74 198.987C153.773 198.894 153.826 198.81 153.895 198.739C153.963 198.668 154.046 198.612 154.137 198.575C154.229 198.539 154.327 198.522 154.425 198.525C154.524 198.529 154.62 198.554 154.709 198.598C154.797 198.641 154.875 198.703 154.938 198.779L157.738 201.481C157.868 201.612 157.941 201.79 157.941 201.975C157.941 202.16 157.868 202.337 157.738 202.468C157.612 202.601 157.438 202.679 157.255 202.685Z" fill="#FAFAFA"/>
<path d="M154.315 204.554C154.213 204.555 154.112 204.531 154.021 204.484C153.856 204.404 153.729 204.262 153.668 204.09C153.606 203.917 153.615 203.727 153.692 203.56L156.737 197.099C156.817 196.933 156.96 196.804 157.135 196.743C157.309 196.681 157.501 196.691 157.668 196.77C157.833 196.85 157.96 196.992 158.021 197.165C158.083 197.338 158.074 197.528 157.997 197.694L154.952 204.155C154.895 204.275 154.804 204.377 154.691 204.447C154.579 204.518 154.448 204.555 154.315 204.554Z" fill="#FAFAFA"/>
<path d="M271.355 85.288L269.059 80.9621L270.9 75.6001V72.3311L265.244 75.6001V78.8691L267.68 83.069C267.717 83.1336 267.773 83.185 267.841 83.216L271.355 85.288Z" fill="#9269AD"/>
<path opacity="0.2" d="M271.355 85.288L269.059 80.9621L270.9 75.6001V72.3311L265.244 75.6001V78.8691L267.68 83.069C267.717 83.1336 267.773 83.185 267.841 83.216L271.355 85.288Z" fill="black"/>
<path d="M284.9 46.382C284.867 45.793 284.695 45.22 284.4 44.7094C284.104 44.1987 283.693 43.7646 283.199 43.442L281.799 42.644C281.273 42.3782 280.691 42.2397 280.102 42.2397C279.512 42.2397 278.931 42.3782 278.404 42.644L257.208 54.901C256.714 55.2227 256.303 55.6568 256.008 56.1677C255.714 56.6787 255.545 57.2521 255.514 57.841V81.151C255.545 81.74 255.714 82.3133 256.008 82.8243C256.303 83.3353 256.714 83.7693 257.208 84.091L258.608 84.889C259.133 85.1547 259.714 85.2932 260.302 85.2932C260.891 85.2932 261.471 85.1547 261.996 84.889L268.814 80.955L271.243 85.155C271.278 85.2151 271.33 85.2639 271.392 85.2956C271.453 85.3273 271.523 85.3407 271.592 85.334C271.662 85.3274 271.727 85.3011 271.782 85.2582C271.837 85.2153 271.878 85.1576 271.901 85.092L274.449 77.7L283.171 72.646C283.672 72.3272 284.091 71.8936 284.391 71.3812C284.692 70.8688 284.866 70.2922 284.9 69.699V46.382Z" fill="#9269AD"/>
<path opacity="0.2" d="M255.5 81.151C255.53 81.7399 255.7 82.3133 255.994 82.8243C256.289 83.3352 256.7 83.7693 257.194 84.091L258.594 84.889C259.072 85.1296 259.595 85.2665 260.13 85.2906C260.664 85.3148 261.197 85.2256 261.695 85.029C260.897 85.33 260.295 84.875 260.295 83.909V60.599C260.314 60.0079 260.485 59.4317 260.792 58.926L256.018 56.168C255.714 56.6747 255.543 57.2503 255.521 57.841L255.5 81.151Z" fill="black"/>
<path opacity="0.5" d="M284.816 45.8988C284.62 45.1988 283.962 44.9539 283.178 45.4019L261.982 57.6589C261.483 57.9715 261.073 58.408 260.792 58.9258L256.018 56.1748C256.299 55.657 256.709 55.2205 257.208 54.9079L278.397 42.6509C278.923 42.3851 279.505 42.2466 280.095 42.2466C280.684 42.2466 281.266 42.3851 281.792 42.6509L283.192 43.4488C283.614 43.7263 283.976 44.0864 284.255 44.5075C284.534 44.9286 284.725 45.4019 284.816 45.8988Z" fill="white"/>
<path d="M279.636 51.9189C279.16 51.7211 278.624 51.7197 278.147 51.9151C277.67 52.1105 277.289 52.4868 277.088 52.9619L269.724 70.462L267.974 68.761C267.603 68.4008 267.103 68.2029 266.586 68.2107C266.069 68.2186 265.576 68.4316 265.216 68.8029C264.856 69.1743 264.658 69.6734 264.666 70.1906C264.674 70.7079 264.887 71.2008 265.258 71.5609L269.059 75.257C269.424 75.6081 269.911 75.8039 270.417 75.8029C270.545 75.8133 270.674 75.8133 270.802 75.8029C271.112 75.7392 271.401 75.6007 271.645 75.3994C271.889 75.198 272.081 74.9401 272.202 74.6479L280.7 54.4739C280.798 54.2364 280.849 53.9817 280.849 53.7246C280.849 53.4674 280.798 53.2128 280.699 52.9754C280.6 52.738 280.455 52.5225 280.273 52.3412C280.09 52.1599 279.874 52.0164 279.636 51.9189Z" fill="#FAFAFA"/>
<path d="M284.774 130.9C289.758 130.9 292.257 132.552 294.336 137.102C296.324 141.449 301.154 156.772 300.853 159.838C300.552 162.904 289.87 176.162 289.87 176.162L285.397 170.695L292.649 158.914L285.852 144.739L284.774 130.9Z" fill="#FFA8A7"/>
<path d="M281.792 261.59L277.9 266.966C277.9 266.966 279.825 268.688 283.654 268.835C287.119 268.968 288.071 267.659 288.197 267.386C288.526 266.686 288.379 265.23 288.26 263.767C288.169 262.661 288.197 260.764 287.56 260.764L281.792 261.59Z" fill="#263238"/>
<path d="M276.059 263.046C276.059 263.046 268.513 264.159 266.742 263.97C264.915 264.145 262.157 264.159 260.75 264.565C258.426 265.23 259.868 268.765 264.25 269.934C267.05 270.69 271.642 270.739 274.519 271.6C277.396 272.461 279.419 273.756 282.793 272.804C285.075 272.153 285.166 270.319 284.949 268.968C284.578 266.721 284.515 264.544 283.297 264.306C281.792 264.005 276.059 263.046 276.059 263.046Z" fill="#263238"/>
<path d="M295.043 177.898C294.392 172.249 291.319 167.818 288.085 162.792L279.734 187.39L277.634 195.09C277.634 195.09 277.781 212.765 278.054 216.993C278.327 221.221 281.162 255.605 281.162 255.605L281.673 262.395C286.482 263.725 287.49 262.465 287.539 261.415C287.588 260.365 288.113 256.179 288.113 256.179C288.113 256.179 292.677 231.035 292.859 227.395C293.083 223.143 292.479 218.887 291.081 214.865C292.012 206.045 296.429 189.833 295.043 177.898Z" fill="#FFA8A7"/>
<path d="M281.134 255.612L281.645 262.402C286.454 263.732 287.462 262.472 287.511 261.422C287.511 261.184 287.56 260.771 287.609 260.288C286.832 262.024 285.243 261.52 284.333 259.042C283.423 256.564 279.433 234.962 279.433 234.962C280.266 245.084 281.134 255.612 281.134 255.612Z" fill="#F28F8F"/>
<path d="M288.085 162.792L263.62 165.592C263.62 165.592 257.579 208.789 257.117 212.863C256.486 217.394 257.328 222.007 259.518 226.023C261.149 229.348 274.085 257.796 275.618 263.025C275.618 263.025 269.318 263.725 266.756 263.942C263.802 264.712 265.111 265.748 266.007 266.364C267.127 267.127 269.472 267.064 272.041 267.246C274.778 267.449 277.151 267.33 279.489 267.358C283.514 267.407 283.689 265.538 283.689 265.538C283.094 262.913 282.583 260.274 282.177 257.621C280.952 249.704 278.334 233.611 276.577 228.41C275.233 224.378 271.537 219.45 271.537 219.45L279.72 187.369C288.967 184.618 291.991 180.67 293.055 175.049C293.944 170.436 289.8 165.613 288.085 162.792Z" fill="#FFA8A7"/>
<path d="M273.133 126.364L274.141 136.871L283.535 136.29L282.779 124.635L273.133 126.364Z" fill="#FFA8A7"/>
<path d="M291.97 135.38C291.018 132.58 289.072 130.97 284.774 130.921L283.192 130.97C282.891 132.517 278.292 133.77 273.693 132.188C271.708 132.388 269.74 132.734 267.806 133.224C264.918 137.958 263.258 143.338 262.976 148.876C262.857 151.935 263.214 155.33 263.858 161.665C262.773 168.896 260.239 182.714 258.615 197.407C259.27 197.482 259.933 197.404 260.553 197.18C261.172 196.955 261.731 196.589 262.185 196.112C263.228 194.999 264.404 192.948 265.601 185.976C265.601 194.789 267.841 197.876 270.907 199.822C273.419 201.387 276.344 202.158 279.3 202.034C290.801 201.152 293.013 199.234 294.511 195.776C296.093 184.345 296.184 178.766 295.344 175.378C294.504 171.99 292.698 169.176 290.332 164.878C289.338 163.051 287.98 159.663 288.232 158.62C289.52 153.587 291.606 148.722 292.194 144.214C292.656 140.448 292.6 137.249 291.97 135.38Z" fill="#9269AD"/>
<g opacity="0.6">
<path opacity="0.6" d="M291.97 135.38C291.018 132.58 289.072 130.97 284.774 130.921L283.192 130.97C282.891 132.517 278.292 133.77 273.693 132.188C271.708 132.388 269.74 132.734 267.806 133.224C264.918 137.958 263.258 143.338 262.976 148.876C262.857 151.935 263.214 155.33 263.858 161.665C262.773 168.896 260.239 182.714 258.615 197.407C259.27 197.482 259.933 197.404 260.553 197.18C261.172 196.955 261.731 196.589 262.185 196.112C263.228 194.999 264.404 192.948 265.601 185.976C265.601 194.789 267.841 197.876 270.907 199.822C273.419 201.387 276.344 202.158 279.3 202.034C290.801 201.152 293.013 199.234 294.511 195.776C296.093 184.345 296.184 178.766 295.344 175.378C294.504 171.99 292.698 169.176 290.332 164.878C289.338 163.051 287.98 159.663 288.232 158.62C289.52 153.587 291.606 148.722 292.194 144.214C292.656 140.448 292.6 137.249 291.97 135.38Z" fill="black"/>
</g>
<path d="M267.806 133.224C262.773 133.462 260.554 138.271 260.344 142.786C259.952 151.123 259.406 158.627 258.244 162.155C256.97 165.935 248.815 173.712 246.344 174.412C243.873 175.112 240.604 173.712 239.729 174.93C238.854 176.148 242.389 176.61 242.529 177.247C242.669 177.884 238.077 179.249 235.473 178.801C232.869 178.353 233.534 182.805 237.44 184.562C241.346 186.319 246.414 184.926 251.139 181.489C255.864 178.052 264.495 171.178 266.665 165.963C268.843 160.894 270.27 155.534 270.9 150.052C273.133 134.918 267.806 133.224 267.806 133.224Z" fill="#FFA8A7"/>
<path d="M261.1 106.162C261.019 105.668 261.019 105.165 261.1 104.671C261.217 104.032 261.472 103.427 261.847 102.896C262.221 102.366 262.707 101.923 263.269 101.599C263.832 101.275 264.458 101.076 265.105 101.018C265.752 100.96 266.403 101.043 267.015 101.262C266.835 100.296 266.983 99.2967 267.436 98.4242C267.889 97.5516 268.62 96.8554 269.514 96.446C270.209 96.1864 270.949 96.0676 271.69 96.0965C272.432 96.1253 273.16 96.3012 273.833 96.614C274.64 96.9002 275.311 97.4767 275.716 98.231C276.187 97.4239 276.887 96.7745 277.727 96.3647C278.567 95.9548 279.509 95.8028 280.435 95.9278C281.361 96.0528 282.23 96.4493 282.931 97.0672C283.632 97.6852 284.134 98.4969 284.375 99.4C285.775 99.078 287.819 99.715 288.463 101.136C289.163 102.753 288.295 104.748 288.631 106.442C288.848 107.534 289.331 108.542 289.52 109.676C289.724 110.917 289.841 112.171 289.87 113.428C290.073 118.615 278.033 121.989 278.271 125.545L271.852 117.733C271.852 117.411 270.942 116.599 270.739 116.333C270.354 115.815 270.039 115.262 269.661 114.723C268.549 113.16 267.014 111.946 265.237 111.223C263.978 110.645 262.888 109.753 262.073 108.633C261.558 107.898 261.225 107.051 261.1 106.162Z" fill="#263238"/>
<path d="M266.168 114.835C266.168 114.835 264.068 117.929 264.355 118.251C264.842 118.576 265.382 118.812 265.951 118.951L266.168 114.835Z" fill="#F28F8F"/>
<path d="M272.524 105.042C270.501 106.071 267.008 107.968 266.105 115.29C265.188 122.801 266.889 125.412 267.932 126.399C268.632 127.099 272.265 127.302 274.155 126.728C276.528 126.028 281.659 123.508 284.067 119.63C286.867 115.066 287.483 108.99 284.214 106.603C279.615 103.25 274.232 104.174 272.524 105.042Z" fill="#FFA8A7"/>
<path d="M268.1 126.532C268.954 127.001 271.369 127.232 273.168 126.931L273.112 125.58C272.341 125.917 271.539 126.18 270.718 126.364C269.859 126.55 268.976 126.606 268.1 126.532Z" fill="#F28F8F"/>
<path d="M271.635 104.825C270.778 105.134 269.982 105.592 269.283 106.176C268.933 106.471 268.649 106.835 268.45 107.247C268.293 107.63 268.235 108.047 268.282 108.458C268.341 109.02 268.547 109.557 268.878 110.016C269.21 110.474 269.656 110.837 270.172 111.069C269.9 111.44 269.713 111.866 269.625 112.317C269.537 112.769 269.549 113.234 269.661 113.68C270.032 114.718 270.67 115.64 271.509 116.354C271.554 116.4 271.606 116.437 271.663 116.466C271.723 116.475 271.785 116.47 271.843 116.452C271.901 116.434 271.954 116.402 271.999 116.361C273.266 115.514 274.05 114.051 275.849 114.639C278.201 115.409 278.089 118.321 276.241 120.134C275.58 120.797 274.709 121.208 273.777 121.296C273.303 121.305 272.843 121.14 272.482 120.834C272.482 120.834 272.545 124.628 275.842 126.133C275.842 126.133 279.51 127.302 282.884 126.217C284.123 124.635 286.209 122.619 287.924 120.813C293.58 114.877 293.902 106.239 285.565 103.516C285.278 103.418 284.991 103.334 284.697 103.257C282.016 102.559 279.208 102.499 276.5 103.082C275.152 103.369 273.841 103.811 272.594 104.398C272.3 104.552 271.95 104.685 271.635 104.825Z" fill="#263238"/>
<path d="M271.369 119C271.151 118.925 270.949 118.807 270.777 118.653C270.605 118.499 270.464 118.313 270.365 118.104C270.265 117.896 270.208 117.67 270.196 117.439C270.185 117.208 270.22 116.977 270.298 116.76C270.465 116.323 270.796 115.968 271.222 115.771C271.647 115.575 272.132 115.553 272.573 115.71L271.369 119Z" fill="#263238"/>
</svg>
