<svg width="215" height="215" viewBox="0 0 215 215" fill="none" xmlns="http://www.w3.org/2000/svg">
<path d="M176.717 17.7295H128.394V68.104H176.717V17.7295Z" fill="#E0E0E0"/>
<path d="M173.445 17.7295H125.122V68.104H173.445V17.7295Z" fill="#FAFAFA"/>
<path d="M173.458 68.1165H125.104V17.7119H173.458V68.1165ZM125.13 68.0864H173.427V17.742H125.13V68.0864Z" fill="#E0E0E0"/>
<path d="M166.947 24.502H131.614V61.3315H166.947V24.502Z" fill="white"/>
<path d="M131.614 61.5762C131.368 61.9468 131.08 62.2874 130.754 62.591C130.191 63.1844 129.4 63.9885 128.51 64.8657C127.62 65.7429 126.79 66.5212 126.201 67.0759C125.896 67.4017 125.554 67.6903 125.182 67.9359C125.426 67.5653 125.715 67.2259 126.042 66.9254C126.605 66.3277 127.4 65.5236 128.291 64.6421C129.181 63.7606 130.011 62.9823 130.604 62.4319C130.905 62.1071 131.245 61.8198 131.614 61.5762Z" fill="#E0E0E0"/>
<path d="M166.947 61.4902C167.319 61.735 167.66 62.0238 167.962 62.3502C168.555 62.9135 169.364 63.7047 170.237 64.5948C171.11 65.4849 171.892 66.3148 172.447 66.9039C172.773 67.2086 173.061 67.5507 173.307 67.923C172.936 67.6786 172.597 67.3898 172.296 67.063C171.703 66.4997 170.895 65.7042 170.013 64.8141C169.132 63.924 168.353 63.0941 167.803 62.5007C167.478 62.1995 167.191 61.8602 166.947 61.4902Z" fill="#E0E0E0"/>
<path d="M166.84 24.6009C167.087 24.2308 167.375 23.8903 167.7 23.5861C168.263 22.9884 169.059 22.1843 169.944 21.3071C170.83 20.4299 171.664 19.6516 172.254 19.1012C172.559 18.7746 172.903 18.4859 173.277 18.2412C173.03 18.6086 172.741 18.9462 172.417 19.2474C171.854 19.8451 171.058 20.6535 170.168 21.5307C169.278 22.4079 168.448 23.1905 167.855 23.7452C167.552 24.0703 167.211 24.3577 166.84 24.6009Z" fill="#E0E0E0"/>
<path d="M131.52 24.691C131.15 24.4441 130.809 24.1556 130.505 23.831C129.912 23.2677 129.103 22.4722 128.23 21.5864C127.357 20.7006 126.571 19.8664 126.02 19.2773C125.694 18.9718 125.405 18.6282 125.16 18.2539C125.528 18.5014 125.867 18.7899 126.171 19.1139C126.764 19.6772 127.572 20.4727 128.45 21.3628C129.327 22.2529 130.109 23.0828 130.664 23.6762C130.989 23.9787 131.277 24.3195 131.52 24.691Z" fill="#E0E0E0"/>
<path d="M166.84 61.3307C166.84 61.3307 166.84 61.2662 166.84 61.1501C166.84 61.034 166.84 60.8577 166.84 60.6384C166.84 60.174 166.84 59.5117 166.84 58.6474C166.84 56.9274 166.818 54.3475 166.806 51.1439C166.806 44.6939 166.763 35.5048 166.737 24.4839L166.87 24.6172L131.64 24.6387L131.799 24.4839C131.799 37.9988 131.799 50.6494 131.778 61.3134L131.64 61.1801L157.152 61.249L164.32 61.2834H166.216H166.707H166.874H166.72H166.247H164.376L157.238 61.3178L131.64 61.3865H131.507V61.2532C131.507 50.5892 131.507 37.9386 131.507 24.4237V24.2646H131.666H166.896H167.033V24.5097C167.003 35.5478 166.982 44.767 166.965 51.2386C166.965 54.4464 166.939 56.9747 166.93 58.7119C166.93 59.5719 166.93 60.2212 166.93 60.677C166.93 60.8877 166.93 61.0512 166.93 61.1758C166.907 61.2314 166.877 61.2834 166.84 61.3307Z" fill="#E0E0E0"/>
<path d="M155.178 37.0186H143.388V48.8092H155.178V37.0186Z" fill="#EBEBEB"/>
<path d="M184.948 150.93C187.579 149.572 190.684 149.395 193.608 149.877C195.177 150.135 196.816 150.608 197.886 151.786C198.957 152.964 199.155 155.045 197.929 156.06C197.198 156.662 196.179 156.753 195.233 156.744C192.941 156.714 190.4 156.314 188.572 157.69C187.528 158.477 186.852 159.784 185.588 160.171C184.324 160.558 183.008 159.827 182.342 158.726C181.745 157.58 181.614 156.247 181.976 155.007C182.124 154.144 182.469 153.328 182.985 152.621C183.5 151.914 184.172 151.335 184.948 150.93Z" fill="#F79E25"/>
<path d="M178.91 139.264C180.523 141.564 183.64 140.803 185.102 139.402C186.564 138 187.171 135.962 187.725 134.018C189.015 129.585 190.305 124.932 189.342 120.417C189.117 119.05 188.522 117.772 187.622 116.719C186.672 115.717 185.214 115.119 183.881 115.472C182.303 115.902 181.301 117.437 180.613 118.912C178.523 123.254 177.427 128.008 177.405 132.827C177.405 135.067 177.663 137.419 178.927 139.277" fill="#F79E25"/>
<path d="M174.15 149.231C175.9 147.155 176.231 144.127 175.44 141.526C174.649 138.924 172.903 136.714 170.878 134.908C168.493 132.787 165.718 131.15 162.708 130.088C161.542 129.616 160.287 129.403 159.031 129.464C158.404 129.502 157.796 129.692 157.259 130.017C156.722 130.342 156.272 130.793 155.948 131.331C155.088 132.969 155.914 134.96 156.808 136.581C158.383 139.439 160.177 142.17 162.174 144.751C163.787 146.823 165.614 148.87 168.078 149.808C170.542 150.745 173.075 150.633 174.378 148.948" fill="#F79E25"/>
<path d="M178.802 173.97C178.887 173.628 178.936 173.277 178.949 172.925C179.022 172.164 179.112 171.205 179.224 170.074C179.367 168.668 179.581 167.27 179.865 165.886C180.242 164.203 180.751 162.553 181.387 160.95C182.012 159.347 182.862 157.841 183.911 156.478C184.763 155.369 185.852 154.464 187.097 153.829C187.943 153.409 188.85 153.127 189.785 152.995C190.136 152.981 190.485 152.929 190.825 152.84C190.472 152.803 190.116 152.803 189.763 152.84C188.794 152.912 187.846 153.158 186.964 153.566C185.653 154.188 184.502 155.103 183.601 156.241C182.51 157.623 181.629 159.159 180.987 160.799C180.34 162.426 179.835 164.107 179.478 165.821C179.207 167.221 179.021 168.635 178.919 170.057C178.828 171.27 178.794 172.25 178.781 172.929C178.749 173.276 178.757 173.625 178.802 173.97Z" fill="#FFBF9D"/>
<path d="M178.996 171.776C179.028 171.617 179.038 171.453 179.026 171.291C179.026 170.925 179.026 170.465 179.026 169.902C179.026 168.698 179.026 166.956 179.087 164.806C179.194 160.506 179.564 155.871 180.282 149.326C180.957 143.19 181.869 136.043 182.828 131.399C183.034 130.346 183.258 129.391 183.434 128.561C183.61 127.732 183.782 127.009 183.933 126.411L184.26 125.066C184.308 124.909 184.336 124.747 184.341 124.584C184.27 124.73 184.214 124.883 184.174 125.04C184.07 125.39 183.937 125.832 183.774 126.368C183.593 126.945 183.412 127.658 183.202 128.493C182.991 129.327 182.772 130.269 182.531 131.322C181.341 136.816 180.447 142.369 179.852 147.959C179.134 154.499 178.811 160.455 178.786 164.772C178.76 166.922 178.786 168.672 178.859 169.876C178.893 170.439 178.923 170.899 178.945 171.265C178.942 171.437 178.959 171.609 178.996 171.776Z" fill="#FFBF9D"/>
<path d="M178.682 166.952C178.721 166.47 178.721 165.985 178.682 165.503C178.627 164.57 178.502 163.224 178.252 161.577C177.93 159.648 177.5 157.739 176.962 155.858C176.343 153.544 175.546 151.282 174.58 149.09C172.598 144.36 169.902 140.533 167.558 138.151C167.04 137.606 166.488 137.093 165.907 136.616C165.653 136.401 165.426 136.186 165.198 136.018L164.557 135.588C164.172 135.298 163.765 135.038 163.34 134.81C163.267 134.904 165.06 135.962 167.335 138.374C170.209 141.589 172.514 145.272 174.15 149.262C175.1 151.441 175.904 153.68 176.558 155.966C177.186 158.068 177.599 159.999 177.917 161.629C178.235 163.258 178.386 164.596 178.493 165.499C178.519 165.987 178.582 166.473 178.682 166.952Z" fill="#FFBF9D"/>
<path d="M167.924 180.553L169.072 196.325H189.334L190.486 180.553H167.924Z" fill="#E0E0E0"/>
<path d="M192.902 174.335H165.967V180.553H192.902V174.335Z" fill="#E0E0E0"/>
<path d="M165.967 195.719V197.443H167.231H192.46V195.719H165.967Z" fill="#EBEBEB"/>
<path d="M168.474 200.475L167.231 197.443H191.492L190.047 200.475H168.474Z" fill="#E0E0E0"/>
<path d="M190.107 185.709C190.107 185.709 190.081 185.76 190.017 185.851L189.712 186.255L188.533 187.764L188.478 187.833L188.43 187.76L185.528 183.752H185.695L182.84 187.794L182.75 187.91L182.651 187.79L179.267 183.765H179.46L179.276 183.997L176.266 187.794L176.162 187.919L176.072 187.79L173.213 183.748H173.38L169.85 187.769L169.785 187.837L169.738 187.76L168.637 185.907C168.521 185.709 168.431 185.545 168.354 185.416C168.319 185.361 168.29 185.302 168.268 185.24C168.268 185.24 168.315 185.292 168.388 185.395L168.702 185.872L169.854 187.687H169.747C170.645 186.629 171.824 185.253 173.208 183.632L173.294 183.529L173.372 183.636L176.257 187.661H176.059L179.069 183.86C179.134 183.778 179.198 183.701 179.254 183.623L179.353 183.503L179.452 183.623L182.827 187.661H182.638C183.679 186.208 184.651 184.857 185.519 183.641L185.605 183.52L185.687 183.641C186.831 185.27 187.798 186.651 188.525 187.695H188.422L189.651 186.225L189.978 185.842C190.06 185.76 190.103 185.705 190.107 185.709Z" fill="#F5F5F5"/>
<path d="M190.77 180.449C190.77 180.518 185.691 180.574 179.43 180.574C173.17 180.574 168.091 180.518 168.091 180.449C168.091 180.381 173.165 180.32 179.43 180.32C185.696 180.32 190.77 180.376 190.77 180.449Z" fill="#F5F5F5"/>
<path d="M191.78 197.611C191.78 197.684 186.259 197.74 179.456 197.74C172.654 197.74 167.132 197.684 167.132 197.611C167.132 197.538 172.649 197.486 179.456 197.486C186.263 197.486 191.78 197.542 191.78 197.611Z" fill="#F5F5F5"/>
<path d="M17.5869 181.61V200.337H44.9736H75.1811V181.61H17.5869Z" fill="#F5F5F5"/>
<path d="M15.1704 176.378V181.611H77.1936V176.378H44.9737H15.1704Z" fill="#E0E0E0"/>
<path d="M46.1819 200.338H75.1811V181.611H77.1935V176.378H44.9736V181.129L46.1819 200.338Z" fill="#E0E0E0"/>
<path d="M37.3199 184.634H25.6411V187.455H37.3199V184.634Z" fill="#E0E0E0"/>
<path d="M39.1385 190.977H24.1401V196.928H39.1385V190.977Z" fill="white"/>
<path d="M26.4492 157.673V176.399H53.8316H84.0391V157.673H26.4492Z" fill="#F5F5F5"/>
<path d="M24.0327 152.436V157.673H86.0559V152.436H53.8317H24.0327Z" fill="#E0E0E0"/>
<path d="M55.0398 176.399H84.039V157.673H86.0557V152.436H53.8315V157.187L55.0398 176.399Z" fill="#E0E0E0"/>
<path d="M46.1822 160.691H34.5034V163.512H46.1822V160.691Z" fill="#E0E0E0"/>
<path d="M47.9964 167.038H32.998V172.989H47.9964V167.038Z" fill="white"/>
<path d="M205.054 200.474C205.054 200.539 161.375 200.586 107.504 200.586C53.6338 200.586 9.9458 200.539 9.9458 200.474C9.9458 200.41 53.6166 200.38 107.5 200.38C161.383 200.38 205.054 200.414 205.054 200.474Z" fill="#263238"/>
<path d="M85.8494 167.45L35.5394 167.424C32.6582 167.448 29.8855 166.327 27.8309 164.307C25.7762 162.287 24.608 159.534 24.583 156.653V32.7398C24.6136 29.8601 25.7862 27.1104 27.843 25.0947C29.8998 23.079 32.6726 21.9622 35.5523 21.9898L85.8623 22.0199C91.9167 22.0199 96.8187 26.8445 96.4016 32.7699L96.3758 156.683C96.8144 162.634 91.9038 167.454 85.8494 167.45Z" fill="#263238"/>
<path d="M85.9097 25.5498H76.153C75.5105 25.5645 74.9001 25.8336 74.4558 26.298C74.0116 26.7624 73.7698 27.3841 73.7837 28.0266V29.7939C73.7918 30.4327 73.5474 31.049 73.1038 31.5087C72.6602 31.9684 72.0531 32.2345 71.4144 32.2492H52.3955C52.0775 32.242 51.7641 32.1721 51.4732 32.0437C51.1822 31.9153 50.9194 31.7308 50.6998 31.5008C50.4802 31.2708 50.308 30.9998 50.1932 30.7032C50.0783 30.4066 50.023 30.0904 50.0305 29.7724V28.0051C50.0443 27.3626 49.8026 26.7409 49.3583 26.2765C48.9141 25.8121 48.3037 25.543 47.6612 25.5283H35.69C33.6539 25.5272 31.7007 26.3346 30.2598 27.7731C28.8189 29.2116 28.0081 31.1635 28.0059 33.1995V156.339C28.0053 157.347 28.2033 158.345 28.5885 159.276C28.9737 160.208 29.5386 161.054 30.2509 161.767C30.9633 162.48 31.8091 163.046 32.7401 163.433C33.6711 163.819 34.6691 164.018 35.6771 164.018L85.9011 164.049C87.9371 164.049 89.8899 163.24 91.33 161.801C92.7701 160.361 93.5797 158.409 93.5809 156.373L93.6067 33.2296C93.6067 32.2196 93.4074 31.2196 93.0204 30.2867C92.6334 29.3538 92.0662 28.5065 91.3512 27.7931C90.6363 27.0797 89.7876 26.5144 88.8539 26.1295C87.9201 25.7445 86.9196 25.5476 85.9097 25.5498Z" fill="#9269AD"/>
<path d="M88.7822 39.7276C88.7822 39.762 87.4277 39.8006 85.7722 39.8135C84.1167 39.8264 82.7622 39.8135 82.7622 39.7749C82.7622 39.7362 84.1167 39.7018 85.7722 39.6889C87.4277 39.676 88.7822 39.6932 88.7822 39.7276Z" fill="white"/>
<path d="M88.7949 41.2795C88.7949 41.3139 87.4404 41.3526 85.7849 41.3655C84.1294 41.3784 82.7749 41.3655 82.7749 41.3268C82.7749 41.2881 84.1294 41.2537 85.7849 41.2408C87.4404 41.2279 88.7949 41.2365 88.7949 41.2795Z" fill="white"/>
<path d="M88.8076 42.8228C88.8076 42.8572 87.4531 42.8959 85.7976 42.9088C84.1421 42.9217 82.7876 42.9088 82.7876 42.8701C82.7876 42.8314 84.1421 42.797 85.7976 42.7841C87.4531 42.7712 88.8076 42.7841 88.8076 42.8228Z" fill="white"/>
<path d="M33.7808 44.6382H33.9098H34.2581L35.5481 44.6038L35.5137 44.6425C35.5137 44.3544 35.5137 44.0405 35.5137 43.7051C35.5137 43.5331 35.5137 43.3654 35.5137 43.1676C35.5338 43.0641 35.5863 42.9696 35.6636 42.8977C35.7408 42.8259 35.8389 42.7804 35.9437 42.7677C36.1501 42.7677 36.335 42.7677 36.5586 42.7677C36.6779 42.7862 36.7867 42.8465 36.8655 42.9379C36.9443 43.0293 36.9879 43.1458 36.9886 43.2665C36.9886 43.7051 36.9886 44.1609 36.9886 44.6339L36.9284 44.5737H38.5581L38.4979 44.6382C38.4979 43.9803 38.4979 43.3052 38.4979 42.6086C38.4979 42.4366 38.4979 42.2646 38.4979 42.0926C38.4892 42.0152 38.464 41.9406 38.424 41.8738C38.3839 41.807 38.3299 41.7497 38.2657 41.7056L37.5562 41.0047L36.8682 40.3253L36.5328 39.9985C36.4468 39.8843 36.3307 39.7964 36.1974 39.7448C36.1336 39.7275 36.0667 39.725 36.0018 39.7377C35.9369 39.7504 35.8758 39.7778 35.8233 39.8179C35.7244 39.8996 35.6212 40.02 35.5223 40.1146L34.916 40.665C34.5462 41.0477 34.1635 41.396 33.884 41.7271C33.803 41.9183 33.7748 42.1277 33.8023 42.3334V42.9096C33.8023 43.2622 33.8023 43.5718 33.8023 43.8341C33.8023 44.0964 33.8023 44.2641 33.8023 44.4275C33.8083 44.4976 33.8083 44.5681 33.8023 44.6382C33.8023 44.6382 33.8023 44.5737 33.8023 44.4447C33.8023 44.3157 33.8023 44.0921 33.8023 43.8599C33.8023 43.6277 33.8023 43.2837 33.8023 42.9268C33.8023 42.7462 33.8023 42.5484 33.8023 42.342C33.8023 42.2388 33.8023 42.1313 33.8023 42.0238C33.802 41.9047 33.8332 41.7875 33.8926 41.6841C34.1936 41.3143 34.5548 40.9875 34.9246 40.5919L35.4191 39.9899C35.5183 39.8814 35.6231 39.7781 35.733 39.6803C35.7993 39.6294 35.8764 39.5944 35.9585 39.578C36.0405 39.5616 36.1251 39.5642 36.206 39.5857C36.3598 39.6408 36.4953 39.7376 36.5973 39.8652L36.9327 40.192L37.6207 40.8671L38.3345 41.568C38.401 41.6279 38.4614 41.6942 38.5151 41.7658C38.5709 41.8468 38.6009 41.9427 38.6011 42.041C38.6011 42.213 38.6011 42.385 38.6011 42.5613C38.6011 43.2536 38.6011 43.933 38.6011 44.5909V44.6511H38.5366H36.9112H36.851V44.5909C36.851 44.1179 36.851 43.6621 36.851 43.2278C36.8541 43.1327 36.822 43.0398 36.7609 42.9668C36.6999 42.8939 36.614 42.8459 36.5199 42.8322C36.335 42.8322 36.1114 42.8322 35.9308 42.8322C35.8459 42.8413 35.7661 42.8769 35.7028 42.9341C35.6395 42.9912 35.5958 43.067 35.5782 43.1504C35.5782 43.3138 35.5782 43.503 35.5782 43.6707V44.6425H35.5395H34.2495H33.9055L33.7808 44.6382Z" fill="white"/>
<path d="M63.8291 146.582C68.9943 146.582 73.1816 142.395 73.1816 137.229C73.1816 132.064 68.9943 127.877 63.8291 127.877C58.6638 127.877 54.4766 132.064 54.4766 137.229C54.4766 142.395 58.6638 146.582 63.8291 146.582Z" fill="white"/>
<path d="M58.093 139.38L60.4279 138.829C60.5677 138.797 60.6925 138.718 60.7816 138.606C60.8707 138.493 60.9188 138.354 60.9181 138.21V137.728C60.9181 137.728 60.8192 136.911 61.5932 136.868C62.1436 136.83 65.6567 136.868 65.6567 136.868C65.6567 136.868 66.5812 136.868 66.5683 137.578V138.279C66.5685 138.396 66.6061 138.51 66.6757 138.605C66.7454 138.699 66.8433 138.769 66.9553 138.803L69.488 139.569C69.6176 139.608 69.7572 139.597 69.8795 139.539C70.0019 139.481 70.0983 139.38 70.1502 139.255L70.4727 138.472C70.534 138.33 70.562 138.176 70.5544 138.021C70.5296 137.597 70.38 137.19 70.1244 136.851C69.6213 136.206 67.252 134.701 62.737 134.903C58.437 135.11 57.4996 136.924 57.2545 137.359C57.0907 137.74 57.0619 138.167 57.1728 138.567L57.362 138.997C57.4185 139.137 57.5231 139.253 57.657 139.323C57.791 139.393 57.9455 139.413 58.093 139.38Z" fill="#9269AD"/>
<g opacity="0.2">
<path opacity="0.2" d="M63.8292 113.739C67.4081 113.739 70.3093 110.837 70.3093 107.258C70.3093 103.68 67.4081 100.778 63.8292 100.778C60.2504 100.778 57.3491 103.68 57.3491 107.258C57.3491 110.837 60.2504 113.739 63.8292 113.739Z" fill="white"/>
</g>
<path d="M62.0577 108.02C62.4733 108.02 62.8102 107.683 62.8102 107.267C62.8102 106.852 62.4733 106.515 62.0577 106.515C61.6421 106.515 61.3052 106.852 61.3052 107.267C61.3052 107.683 61.6421 108.02 62.0577 108.02Z" fill="white"/>
<path d="M64.5817 107.267C64.5817 107.416 64.5375 107.561 64.4548 107.685C64.3721 107.809 64.2546 107.905 64.1171 107.962C63.9796 108.019 63.8283 108.034 63.6823 108.005C63.5364 107.976 63.4023 107.904 63.2971 107.799C63.1918 107.694 63.1202 107.56 63.0911 107.414C63.0621 107.268 63.077 107.117 63.1339 106.979C63.1909 106.842 63.2873 106.724 63.4111 106.641C63.5348 106.559 63.6803 106.515 63.8292 106.515C64.0287 106.515 64.2201 106.594 64.3613 106.735C64.5024 106.876 64.5817 107.068 64.5817 107.267Z" fill="white"/>
<path d="M66.3534 107.267C66.3543 107.417 66.3105 107.564 66.2277 107.689C66.1449 107.814 66.0267 107.912 65.8882 107.97C65.7498 108.028 65.5973 108.043 65.4501 108.014C65.3029 107.985 65.1676 107.913 65.0615 107.807C64.9554 107.7 64.8832 107.565 64.8542 107.418C64.8251 107.271 64.8405 107.118 64.8983 106.98C64.9561 106.841 65.0538 106.723 65.1789 106.64C65.304 106.558 65.4509 106.514 65.6009 106.515C65.8005 106.515 65.9919 106.594 66.133 106.735C66.2742 106.876 66.3534 107.068 66.3534 107.267Z" fill="white"/>
<path d="M62.8102 105.47C62.8093 105.618 62.7644 105.763 62.6812 105.887C62.598 106.01 62.4802 106.106 62.3427 106.162C62.2051 106.218 62.0539 106.232 61.9082 106.203C61.7625 106.173 61.6289 106.101 61.5241 105.996C61.4193 105.891 61.348 105.756 61.3193 105.611C61.2906 105.465 61.3058 105.314 61.3629 105.176C61.4199 105.039 61.5164 104.922 61.64 104.839C61.7637 104.757 61.909 104.713 62.0577 104.713C62.1568 104.713 62.255 104.732 62.3466 104.771C62.4382 104.809 62.5213 104.864 62.5913 104.935C62.6612 105.005 62.7165 105.089 62.7541 105.18C62.7917 105.272 62.8107 105.371 62.8102 105.47Z" fill="white"/>
<path d="M64.5817 105.47C64.5808 105.618 64.536 105.763 64.4528 105.887C64.3696 106.01 64.2517 106.106 64.1142 106.162C63.9766 106.218 63.8254 106.232 63.6797 106.203C63.534 106.173 63.4004 106.101 63.2955 105.996C63.1907 105.891 63.1195 105.756 63.0908 105.611C63.0621 105.465 63.0773 105.314 63.1343 105.176C63.1914 105.039 63.2879 104.922 63.4115 104.839C63.5352 104.757 63.6805 104.713 63.8292 104.713C63.9283 104.713 64.0265 104.732 64.1181 104.771C64.2097 104.809 64.2928 104.864 64.3628 104.935C64.4327 105.005 64.4881 105.089 64.5256 105.18C64.5632 105.272 64.5822 105.371 64.5817 105.47Z" fill="white"/>
<path d="M66.3534 105.47C66.3534 105.62 66.309 105.766 66.2256 105.891C66.1423 106.015 66.0238 106.112 65.8853 106.169C65.7467 106.226 65.5943 106.241 65.4474 106.212C65.3005 106.182 65.1657 106.11 65.06 106.003C64.9543 105.897 64.8826 105.762 64.8539 105.615C64.8252 105.468 64.8408 105.315 64.8987 105.177C64.9566 105.039 65.0543 104.921 65.1793 104.838C65.3043 104.756 65.4511 104.712 65.6009 104.713C65.7001 104.713 65.7983 104.733 65.8899 104.771C65.9815 104.809 66.0646 104.864 66.1346 104.935C66.2045 105.005 66.2598 105.089 66.2974 105.18C66.335 105.272 66.354 105.371 66.3534 105.47Z" fill="white"/>
<path d="M62.8102 109.047C62.8102 109.196 62.766 109.342 62.6834 109.465C62.6007 109.589 62.4831 109.686 62.3456 109.743C62.2081 109.8 62.0568 109.815 61.9109 109.785C61.7649 109.756 61.6308 109.685 61.5256 109.58C61.4203 109.474 61.3487 109.34 61.3196 109.194C61.2906 109.048 61.3055 108.897 61.3625 108.759C61.4194 108.622 61.5159 108.504 61.6396 108.422C61.7634 108.339 61.9088 108.295 62.0577 108.295C62.2573 108.295 62.4486 108.374 62.5898 108.515C62.7309 108.656 62.8102 108.848 62.8102 109.047Z" fill="white"/>
<path d="M64.5817 109.047C64.5817 109.196 64.5375 109.342 64.4548 109.465C64.3721 109.589 64.2546 109.686 64.1171 109.743C63.9796 109.8 63.8283 109.815 63.6823 109.785C63.5364 109.756 63.4023 109.685 63.2971 109.58C63.1918 109.474 63.1202 109.34 63.0911 109.194C63.0621 109.048 63.077 108.897 63.1339 108.759C63.1909 108.622 63.2873 108.504 63.4111 108.422C63.5348 108.339 63.6803 108.295 63.8292 108.295C64.0287 108.295 64.2201 108.374 64.3613 108.515C64.5024 108.656 64.5817 108.848 64.5817 109.047Z" fill="white"/>
<path d="M66.3534 109.047C66.3543 109.197 66.3105 109.344 66.2277 109.469C66.1449 109.595 66.0267 109.692 65.8882 109.75C65.7498 109.808 65.5973 109.823 65.4501 109.794C65.3029 109.765 65.1676 109.693 65.0615 109.587C64.9554 109.481 64.8832 109.346 64.8542 109.198C64.8251 109.051 64.8405 108.899 64.8983 108.76C64.9561 108.622 65.0538 108.504 65.1789 108.421C65.304 108.338 65.4509 108.294 65.6009 108.295C65.8005 108.295 65.9919 108.374 66.133 108.515C66.2742 108.656 66.3534 108.848 66.3534 109.047Z" fill="white"/>
<g opacity="0.2">
<path opacity="0.2" d="M45.2272 113.739C48.806 113.739 51.7073 110.837 51.7073 107.258C51.7073 103.68 48.806 100.778 45.2272 100.778C41.6483 100.778 38.7471 103.68 38.7471 107.258C38.7471 110.837 41.6483 113.739 45.2272 113.739Z" fill="white"/>
</g>
<path d="M42.187 106.412V107.93C42.187 107.961 42.1992 107.99 42.221 108.012C42.2428 108.034 42.2723 108.046 42.3031 108.046H43.1631C43.1897 108.046 43.2155 108.055 43.2362 108.072L44.5563 109.104C44.5736 109.118 44.5946 109.127 44.6168 109.129C44.639 109.131 44.6614 109.127 44.6814 109.117C44.7014 109.107 44.718 109.092 44.7294 109.073C44.7408 109.054 44.7464 109.031 44.7455 109.009V105.427C44.7465 105.405 44.7413 105.384 44.7305 105.364C44.7197 105.345 44.7036 105.33 44.6843 105.319C44.6649 105.309 44.643 105.304 44.6211 105.306C44.5993 105.308 44.5783 105.315 44.5606 105.328L43.2706 106.249C43.2499 106.262 43.2262 106.269 43.2018 106.27H42.3031C42.2857 106.27 42.2685 106.275 42.2528 106.282C42.2372 106.29 42.2233 106.301 42.2123 106.314C42.2012 106.328 42.1933 106.343 42.1889 106.36C42.1845 106.377 42.1839 106.395 42.187 106.412Z" fill="white"/>
<path d="M47.1883 109.847C47.1516 109.848 47.1162 109.834 47.0894 109.809C47.0621 109.781 47.0468 109.744 47.0468 109.705C47.0468 109.667 47.0621 109.63 47.0894 109.602C47.4219 109.271 47.6842 108.875 47.8607 108.44C48.0373 108.005 48.1245 107.539 48.1171 107.07C48.0417 106.253 47.6772 105.491 47.0894 104.92C47.0717 104.908 47.0568 104.892 47.0456 104.874C47.0345 104.855 47.0273 104.835 47.0246 104.814C47.0219 104.793 47.0238 104.771 47.0301 104.751C47.0364 104.73 47.047 104.711 47.0612 104.695C47.0754 104.679 47.0928 104.666 47.1123 104.658C47.1318 104.649 47.153 104.644 47.1744 104.645C47.1958 104.645 47.2169 104.649 47.2364 104.658C47.2558 104.667 47.2732 104.68 47.2872 104.696C47.9376 105.316 48.3384 106.153 48.4138 107.048C48.4217 107.557 48.3271 108.062 48.1358 108.533C47.9444 109.004 47.6603 109.432 47.3001 109.791C47.2718 109.824 47.2315 109.844 47.1883 109.847Z" fill="white"/>
<path d="M46.3712 109.125C46.351 109.125 46.331 109.12 46.3125 109.112C46.294 109.104 46.2774 109.092 46.2637 109.077C46.2361 109.049 46.2207 109.011 46.2207 108.972C46.2207 108.933 46.2361 108.895 46.2637 108.867C46.5008 108.674 46.6941 108.432 46.8305 108.159C46.9669 107.885 47.0434 107.586 47.0549 107.28C47.0093 106.629 46.728 106.018 46.2637 105.56C46.2361 105.532 46.2207 105.494 46.2207 105.455C46.2207 105.415 46.2361 105.377 46.2637 105.349C46.2911 105.322 46.3282 105.307 46.3669 105.307C46.4056 105.307 46.4427 105.322 46.4701 105.349C46.9979 105.862 47.314 106.554 47.3559 107.289C47.3447 107.635 47.2599 107.975 47.1072 108.287C46.9545 108.598 46.7373 108.874 46.4701 109.095C46.4566 109.106 46.4408 109.115 46.4238 109.12C46.4068 109.125 46.3889 109.127 46.3712 109.125Z" fill="white"/>
<path d="M45.6446 108.36C45.6061 108.358 45.5695 108.343 45.5414 108.317C45.5272 108.303 45.516 108.287 45.5083 108.269C45.5006 108.25 45.4966 108.231 45.4966 108.211C45.4966 108.192 45.5006 108.172 45.5083 108.154C45.516 108.136 45.5272 108.12 45.5414 108.106C46.453 107.203 45.5715 106.18 45.5414 106.137C45.5148 106.108 45.5 106.07 45.5 106.031C45.5 105.992 45.5148 105.954 45.5414 105.926C45.5695 105.898 45.6074 105.883 45.6468 105.883C45.6862 105.883 45.724 105.898 45.7521 105.926C45.7521 105.926 46.8572 107.216 45.7521 108.304C45.739 108.32 45.7227 108.333 45.7042 108.343C45.6857 108.353 45.6654 108.358 45.6446 108.36Z" fill="white"/>
<g opacity="0.2">
<path opacity="0.2" d="M80.8356 113.739C84.4144 113.739 87.3157 110.837 87.3157 107.258C87.3157 103.68 84.4144 100.778 80.8356 100.778C77.2567 100.778 74.3555 103.68 74.3555 107.258C74.3555 110.837 77.2567 113.739 80.8356 113.739Z" fill="white"/>
</g>
<path d="M80.8784 109.499C80.8255 109.499 80.7747 109.479 80.737 109.442C80.6992 109.405 80.6774 109.355 80.6763 109.302V105.217C80.6833 105.169 80.7074 105.125 80.7441 105.093C80.7808 105.061 80.8277 105.044 80.8762 105.044C80.9247 105.044 80.9716 105.061 81.0083 105.093C81.045 105.125 81.0691 105.169 81.0762 105.217V109.302C81.0751 109.354 81.0539 109.403 81.017 109.44C80.9802 109.477 80.9305 109.498 80.8784 109.499Z" fill="white"/>
<path d="M82.8177 107.456H78.8574C78.8045 107.456 78.7537 107.436 78.716 107.399C78.6782 107.362 78.6564 107.311 78.6553 107.258C78.6553 107.232 78.6605 107.206 78.6707 107.182C78.6809 107.157 78.6959 107.135 78.7147 107.117C78.7335 107.099 78.7559 107.084 78.7804 107.074C78.8049 107.065 78.831 107.06 78.8574 107.061H82.8177C82.8438 107.06 82.8698 107.065 82.8941 107.074C82.9183 107.084 82.9404 107.099 82.9589 107.117C82.9773 107.136 82.9919 107.158 83.0016 107.182C83.0114 107.206 83.0161 107.232 83.0155 107.258C83.0155 107.311 82.9946 107.361 82.9575 107.398C82.9204 107.435 82.8701 107.456 82.8177 107.456Z" fill="white"/>
<path d="M45.8961 90.6524C45.1451 90.2642 44.5166 89.6752 44.0805 88.9509C43.6542 88.1967 43.4302 87.3451 43.4302 86.4788C43.4302 85.6124 43.6542 84.7608 44.0805 84.0066C44.5202 83.2853 45.1478 82.6972 45.8961 82.3052C46.6974 81.894 47.5876 81.6861 48.4881 81.7C49.2722 81.6871 50.0502 81.8388 50.7719 82.1453C51.4289 82.431 52.0054 82.8742 52.4505 83.4356L50.7948 84.9315C50.5413 84.5965 50.2132 84.325 49.8367 84.1387C49.4601 83.9524 49.0453 83.8564 48.6252 83.8581C48.16 83.8501 47.7003 83.9601 47.2892 84.1779C46.9077 84.3954 46.5951 84.716 46.3871 85.1028C46.1765 85.5309 46.067 86.0017 46.067 86.4788C46.067 86.9559 46.1765 87.4266 46.3871 87.8547C46.5925 88.2435 46.9057 88.5646 47.2892 88.7797C47.6994 89.001 48.159 89.1149 48.6252 89.1108C49.0461 89.1104 49.4612 89.0122 49.8377 88.8239C50.2142 88.6357 50.5418 88.3625 50.7948 88.026L52.4505 89.5219C52.0085 90.0864 51.4311 90.5303 50.7719 90.8122C50.0502 91.1187 49.2722 91.2705 48.4881 91.2576C47.5876 91.2714 46.6974 91.0636 45.8961 90.6524Z" fill="white"/>
<path d="M59.5983 89.2932H55.7045L54.9851 91.0746H52.3359L56.3896 81.9395H58.9475L63.024 91.0746H60.3177L59.5983 89.2932ZM58.8333 87.3748L57.6914 84.4288L56.5495 87.3748H58.8333Z" fill="white"/>
<path d="M63.7549 81.8818H66.3584V89.0186H70.7432V91.0969H63.7549V81.8818Z" fill="white"/>
<path d="M71.771 81.8818H74.3745V89.0186H78.7594V91.0969H71.771V81.8818Z" fill="white"/>
<path d="M168.603 145.576C168.578 145.175 168.457 144.786 168.249 144.441C168.042 144.097 167.755 143.808 167.412 143.598C156.838 136.598 148.866 121.083 148.062 107.947C148.04 107.199 148.019 106.442 147.993 105.676C147.331 85.9264 144.553 63.1923 142.132 58.0452C136.951 47.0931 122.017 45.7773 122.017 45.7773C101.398 44.3024 97.7175 60.1479 95.6363 74.5873C94.3463 83.5614 89.354 115.618 89.354 115.618L93.1423 117.084C97.61 130.29 107.659 140.992 120.727 145.911C124.528 147.343 127.749 147.92 129.258 146.69C135.287 152.808 142.741 157.334 150.951 159.861C154.284 160.871 157.771 161.551 161.237 161.224C163.49 161.013 165.864 160.269 167.205 158.45C167.791 157.662 168.14 156.724 168.211 155.745C168.282 154.766 168.072 153.787 167.606 152.923C167.141 152.059 166.438 151.345 165.581 150.867C164.724 150.388 163.748 150.164 162.768 150.22C163.55 147.683 168.693 148.431 168.603 145.576Z" fill="#263238"/>
<path d="M129.383 106.579C129.383 106.579 136.921 103.341 140.812 102.606C144.704 101.87 171.897 94.8657 171.897 94.8657L143.831 70.8158L150.023 63.2822C150.023 63.2822 170.869 75.7221 185.691 85.6422C185.789 85.6977 185.883 85.7609 185.971 85.8314C194.399 92.4663 191.449 104.025 182.793 109.456C178.493 112.16 159.573 120.309 155.931 122.093C148.621 125.654 148.729 125.533 148.729 125.533L129.383 106.579Z" fill="#FFBF9D"/>
<path d="M124.76 51.5999L123.47 50.3701L109.53 55.9859C108.555 56.0355 107.636 56.451 106.955 57.1494C106.274 57.8479 105.882 58.7776 105.857 59.7527L105.978 105.169C105.978 108.252 106.576 110.918 108.437 113.374L110.394 115.954C114.857 121.849 124.042 121.363 127.594 114.87C127.807 114.501 127.972 114.107 128.084 113.696C128.174 113.361 128.242 113.021 128.291 112.677C128.721 109.026 128.721 105.857 128.721 105.857C128.97 101.845 129.052 100.199 129.052 100.237C129.052 100.276 137.591 99.2525 139.901 88.2961C141.049 82.8437 140.829 75.3445 140.507 67.9657C140.051 57.7618 132.969 51.5999 124.76 51.5999Z" fill="#FFBF9D"/>
<path d="M123.896 75.2496C123.881 75.6188 123.723 75.9676 123.454 76.2215C123.186 76.4754 122.829 76.6143 122.46 76.6084C122.279 76.6135 122.098 76.5825 121.93 76.517C121.761 76.4516 121.607 76.3531 121.477 76.2273C121.346 76.1016 121.243 75.951 121.172 75.7846C121.1 75.6182 121.063 75.4392 121.062 75.2582C121.078 74.889 121.236 74.5403 121.504 74.286C121.772 74.0316 122.129 73.8914 122.498 73.8951C122.68 73.8899 122.86 73.9211 123.029 73.9868C123.198 74.0525 123.352 74.1514 123.483 74.2776C123.613 74.4039 123.717 74.5549 123.787 74.7218C123.858 74.8888 123.895 75.0682 123.896 75.2496Z" fill="#263238"/>
<path d="M137.729 75.6535C137.714 76.0238 137.555 76.3737 137.286 76.6285C137.017 76.8832 136.659 77.0225 136.288 77.0166C136.108 77.0212 135.928 76.9897 135.76 76.924C135.591 76.8583 135.438 76.7597 135.308 76.634C135.178 76.5083 135.075 76.3579 135.004 76.1918C134.933 76.0256 134.896 75.847 134.895 75.6664C134.908 75.2964 135.066 74.9465 135.335 74.6917C135.603 74.4369 135.961 74.2974 136.331 74.3033C136.512 74.2981 136.692 74.3292 136.861 74.3946C137.03 74.46 137.184 74.5585 137.314 74.6843C137.444 74.8101 137.548 74.9606 137.619 75.1271C137.69 75.2935 137.728 75.4725 137.729 75.6535Z" fill="#263238"/>
<path d="M139.04 70.8937C138.855 71.07 137.823 70.2229 136.297 70.1498C134.77 70.0767 133.618 70.7819 133.463 70.5798C133.386 70.4938 133.579 70.1498 134.087 69.8359C134.769 69.4135 135.565 69.2123 136.366 69.2597C137.158 69.296 137.919 69.5837 138.537 70.081C138.989 70.4723 139.131 70.8163 139.04 70.8937Z" fill="#263238"/>
<path d="M123.569 71.0529C123.367 71.2077 122.425 70.2574 120.916 70.0295C119.407 69.8016 118.185 70.3864 118.052 70.1757C117.983 70.0811 118.207 69.7758 118.749 69.5006C119.47 69.1498 120.283 69.0297 121.075 69.1566C121.861 69.2746 122.589 69.6407 123.152 70.2015C123.56 70.6272 123.668 70.9841 123.569 71.0529Z" fill="#263238"/>
<path d="M128.896 82.151C128.896 82.0607 129.847 81.9446 131.395 81.8285C131.786 81.807 132.156 81.7468 132.255 81.4845C132.305 81.0846 132.235 80.6788 132.053 80.3192L131.051 77.3092C129.662 73.0092 128.677 69.4789 128.853 69.4273C129.03 69.3757 130.29 72.8114 131.679 77.1157C132.008 78.1735 132.326 79.1855 132.633 80.1515C132.758 80.5815 132.986 81.1147 132.758 81.6909C132.694 81.8252 132.6 81.9433 132.484 82.0364C132.368 82.1294 132.232 82.1951 132.087 82.2284C131.868 82.2745 131.644 82.2933 131.421 82.2843C129.86 82.2757 128.896 82.237 128.896 82.151Z" fill="#263238"/>
<path d="M129.043 100.245C123.838 100.061 118.786 98.4374 114.449 95.5537C114.449 95.5537 117.786 103.388 128.892 102.911L129.043 100.245Z" fill="#FF9A6C"/>
<path d="M118.19 65.1141C118.245 64.6841 119.772 64.5293 121.47 63.9187C123.169 63.3081 124.48 62.5083 124.786 62.8179C124.928 62.9684 124.786 63.4027 124.291 63.9273C123.641 64.5811 122.85 65.0784 121.98 65.3816C121.109 65.6848 120.18 65.7859 119.265 65.6774C118.568 65.5656 118.172 65.3205 118.19 65.1141Z" fill="#263238"/>
<path d="M138.03 65.1012C137.742 65.4323 136.71 65.0195 135.45 64.9378C134.19 64.8561 133.102 65.0539 132.87 64.6798C132.771 64.4992 132.96 64.1595 133.442 63.8585C134.088 63.496 134.828 63.3342 135.567 63.394C136.306 63.4537 137.011 63.7322 137.591 64.1939C138.03 64.5723 138.141 64.9292 138.03 65.1012Z" fill="#263238"/>
<path d="M106.132 79.1412C106.132 79.1412 113.941 81.5707 118.361 62.2981C119.871 55.7105 125.981 50.3742 125.981 50.3742L123.504 49.626C123.504 49.626 108.106 53.9647 107.844 54.1797C107.581 54.3947 103.974 62.1433 103.974 62.1433L106.132 79.1412Z" fill="#263238"/>
<path d="M108.059 78.4225C108.097 77.6012 107.242 75.6103 106.438 75.4426C104.288 75.0126 100.366 74.9739 100.052 80.4822C99.6221 88.0115 107.272 86.8892 107.298 86.6742C107.323 86.4592 107.93 81.2691 108.059 78.4225Z" fill="#FFBF9D"/>
<path d="M105.16 83.6903C105.13 83.6645 105.023 83.7763 104.795 83.8666C104.476 83.9833 104.124 83.9694 103.815 83.8279C103.036 83.4925 102.439 82.1896 102.477 80.8179C102.497 80.1715 102.659 79.5375 102.95 78.9603C103.034 78.729 103.173 78.5217 103.355 78.3562C103.538 78.1906 103.757 78.0718 103.995 78.01C104.148 77.9786 104.307 78.0018 104.445 78.0757C104.582 78.1495 104.689 78.2693 104.748 78.4142C104.838 78.6292 104.782 78.7797 104.821 78.7926C104.859 78.8055 104.988 78.6765 104.945 78.3626C104.914 78.1741 104.82 78.0016 104.679 77.8724C104.479 77.7051 104.221 77.6219 103.961 77.6402C103.649 77.6844 103.353 77.8075 103.102 77.9979C102.85 78.1882 102.652 78.4395 102.525 78.7281C102.162 79.3738 101.966 80.0992 101.953 80.8394C101.914 82.3573 102.611 83.8193 103.673 84.1977C103.872 84.268 104.084 84.2925 104.294 84.2694C104.504 84.2463 104.706 84.1762 104.885 84.0644C105.135 83.8709 105.186 83.7075 105.16 83.6903Z" fill="#FF9A6C"/>
<path d="M111.43 75.4558C111.43 75.43 111.86 75.4257 112.557 75.2279C113.559 74.9227 114.477 74.39 115.24 73.6713C115.767 73.1806 116.236 72.6308 116.637 72.033C117.087 71.3374 117.469 70.6001 117.777 69.8314C118.426 68.0409 118.968 66.2129 119.398 64.3575C119.879 62.5065 120.453 60.6809 121.118 58.8879C121.664 57.423 122.319 56.0014 123.079 54.6352C123.591 53.7137 124.165 52.8287 124.799 51.9864C125.022 51.6897 125.229 51.4747 125.341 51.3199C125.398 51.2395 125.464 51.1659 125.538 51.1006C125.489 51.1866 125.433 51.2686 125.371 51.3457C125.259 51.5048 125.074 51.7284 124.863 52.0337C124.254 52.8889 123.699 53.7806 123.199 54.704C122.461 56.0726 121.821 57.4924 121.286 58.9524C120.667 60.5993 120.103 62.4483 119.566 64.4091C119.133 66.2723 118.583 68.1063 117.919 69.9002C117.607 70.6796 117.215 71.4246 116.749 72.1233C116.337 72.7292 115.853 73.2836 115.309 73.7745C114.526 74.4975 113.581 75.0212 112.552 75.301C112.187 75.4026 111.81 75.4547 111.43 75.4558Z" fill="#263238"/>
<path d="M101.14 107.581C101.1 107.464 101.072 107.343 101.058 107.22C101.011 106.953 100.946 106.601 100.865 106.149L100.19 102.06L100.37 102.034C100.409 102.309 100.452 102.61 100.495 102.924V102.894L100.654 103.234L100.465 103.302C99.3123 99.3384 98.501 95.2831 98.0397 91.1807C97.7486 88.5777 97.595 85.9611 97.5796 83.3418C97.6054 80.5898 97.5796 77.6658 98.3235 74.7418C98.6223 73.5381 99.0837 72.3808 99.6952 71.3018C100.294 70.2697 100.991 69.2977 101.776 68.3993C103.307 66.632 104.958 65.1098 106.463 63.6005L114.547 55.6455C116.844 53.4052 118.71 51.5863 120.017 50.3049L121.518 48.8687L121.913 48.4989C121.956 48.4533 122.005 48.4142 122.059 48.3828C122.024 48.4342 121.984 48.4818 121.939 48.5247L121.569 48.916L120.112 50.3995L114.719 55.8218L106.687 63.8241C105.186 65.342 103.539 66.8728 102.034 68.6186C100.425 70.3827 99.2671 72.5102 98.6589 74.8192C97.9365 77.6744 97.9451 80.5855 97.915 83.3246C97.9372 90.053 98.8569 96.7484 100.65 103.234L100.461 103.302C100.409 103.186 100.353 103.066 100.31 102.963C100.271 102.649 100.233 102.344 100.198 102.073L100.379 102.043C100.633 103.797 100.83 105.177 100.972 106.145C101.032 106.601 101.08 106.957 101.114 107.224C101.133 107.342 101.141 107.461 101.14 107.581Z" fill="#455A64"/>
<path d="M95.2104 72.7726C95.2384 72.6604 95.2834 72.553 95.3437 72.4544L95.7737 71.5686C96.1564 70.8032 96.7585 69.7153 97.5454 68.4038C98.3323 67.0923 99.3384 65.5615 100.525 63.9146C101.712 62.2677 103.105 60.5348 104.675 58.789C106.244 57.0432 107.835 55.4823 109.336 54.1149C110.837 52.7475 112.251 51.5951 113.481 50.6749C114.711 49.7547 115.717 49.0366 116.44 48.5765L117.274 48.0433C117.367 47.9767 117.468 47.9218 117.575 47.8799C117.497 47.965 117.409 48.0401 117.312 48.1035L116.53 48.684C115.833 49.1785 114.84 49.9224 113.64 50.8684C112.441 51.8144 111.06 52.9883 109.56 54.3471C108.059 55.7059 106.507 57.2883 104.946 59.0169C103.385 60.7455 102.004 62.487 100.792 64.1038C99.5792 65.7206 98.573 67.2342 97.7818 68.5285C96.9906 69.8228 96.3371 70.8849 95.92 71.6331L95.4254 72.4931C95.3653 72.5946 95.2931 72.6884 95.2104 72.7726Z" fill="#455A64"/>
<path d="M105.604 105.165L105.526 105.139L105.604 105.165Z" fill="#455A64"/>
<path d="M162.239 200.379L151.441 167.476L150.581 136.206C150.319 130.814 149.919 122.928 149.919 122.928C146.398 111.911 135.2 102.61 135.2 102.61L128.845 103.561C128.604 110.441 118.095 116.68 110.561 112.122C107.771 110.118 105.625 105.19 105.625 105.19L92.8066 111.369L101.613 174.309C101.613 174.309 92.927 190.515 92.927 200.354L162.239 200.379Z" fill="#455A64"/>
<g opacity="0.3">
<path opacity="0.3" d="M100.753 166.81C102.331 170.834 105.431 174.378 109.486 175.874C113.541 177.37 118.516 176.523 121.44 173.333C123.233 171.376 124.128 168.762 124.7 166.169C125.165 163.883 125.516 161.575 125.749 159.254C127.108 147.481 128.097 135.604 127.009 123.792L125.401 110.17L120.748 112.793L118.598 161.306L100.753 166.81Z" fill="black"/>
</g>
<path d="M129 103.298C129 103.298 138.344 100.951 145.942 100.748L158.545 97.5664L160.695 120.081L148.66 127.795L129 103.298Z" fill="#455A64"/>
<path d="M106.752 137.917L84.6282 149.02C84.6282 149.02 78.5007 116.185 92.7423 111.369L93.5679 116.03L106.752 137.917Z" fill="#455A64"/>
<path d="M149.231 109.671C149.231 109.671 149.231 109.722 149.231 109.817C149.231 109.912 149.253 110.075 149.266 110.247C149.291 110.647 149.33 111.21 149.373 111.928C149.468 113.39 149.58 115.506 149.713 118.116C149.975 123.345 150.285 130.586 150.573 138.545C150.861 146.505 151.093 153.755 151.239 158.983C151.304 161.589 151.36 163.713 151.394 165.18C151.394 165.898 151.42 166.47 151.424 166.865C151.424 167.046 151.424 167.192 151.424 167.295C151.431 167.344 151.431 167.393 151.424 167.441C151.418 167.393 151.418 167.344 151.424 167.295C151.424 167.183 151.416 167.04 151.398 166.865C151.398 166.465 151.355 165.902 151.325 165.18C151.269 163.705 151.192 161.593 151.097 158.988C150.908 153.746 150.667 146.518 150.366 138.554C150.065 130.59 149.773 123.366 149.571 118.125C149.455 115.519 149.364 113.395 149.3 111.933C149.27 111.215 149.248 110.643 149.231 110.251V109.821C149.224 109.772 149.224 109.721 149.231 109.671Z" fill="#263238"/>
<path d="M84.6279 149.021C84.6279 149.021 84.6537 148.999 84.7139 148.965L84.9848 148.814L86.034 148.264L89.904 146.281L102.731 139.806L105.423 138.46L105.367 138.597C104.987 137.476 104.539 136.379 104.025 135.312C103.531 134.272 103.165 133.24 102.774 132.268C102.043 130.32 101.282 128.626 100.663 127.202C100.043 125.779 99.5532 124.622 99.2393 123.84C99.0845 123.44 98.9641 123.13 98.891 122.915C98.848 122.811 98.8135 122.703 98.7878 122.593C98.8432 122.692 98.8907 122.796 98.9297 122.902L99.3124 123.805C99.6521 124.597 100.172 125.732 100.796 127.142C101.419 128.553 102.211 130.251 102.946 132.199C103.324 133.166 103.716 134.194 104.21 135.209C104.728 136.28 105.18 137.381 105.565 138.507L105.603 138.602L105.513 138.649L102.826 139.999L89.9642 146.415L86.0727 148.35L85.0063 148.866L84.7268 148.99C84.6957 149.006 84.6623 149.016 84.6279 149.021Z" fill="#263238"/>
<path d="M130.685 85.8487C129.833 85.2571 128.839 84.9011 127.804 84.8167C127.481 84.7757 127.153 84.8096 126.846 84.9156C126.624 85.0225 126.428 85.1758 126.271 85.3649C126.114 85.5541 125.999 85.7748 125.934 86.0121C125.81 86.4877 125.755 86.9786 125.771 87.4698C125.755 87.6561 125.785 87.8433 125.857 88.0159C125.958 88.1552 126.093 88.2673 126.248 88.3423C126.403 88.4173 126.574 88.4529 126.747 88.4459C127.916 88.5425 129.089 88.3274 130.148 87.8224" fill="#FF9A6C"/>
<path d="M87.4404 147.605C91.964 158.114 100.56 168.783 105.857 170.735C113.748 173.642 120.28 172.197 123.307 162.565C126.334 152.933 124.39 110.191 124.39 110.191L111.232 109.438L108.79 146.277C108.79 146.277 107.337 143.417 104.778 138.906" fill="#FFBF9D"/>
<path d="M143.831 70.8118L140.515 68.3952L140.008 64.2414C140.008 64.2414 134.022 64.3962 133.657 61.1884C133.657 61.1884 130.217 62.1043 130.372 58.7116C130.372 58.7116 128.617 57.5205 129.258 56.424C129.899 55.3275 134.848 53.6849 135.132 53.5946C135.416 53.5043 138.649 52.8163 138.649 52.8163L137.69 51.7499L135.11 52.0251C135.11 52.0251 133.554 53.4914 132.268 53.672C130.982 53.8526 130.896 53.3065 130.896 53.3065C130.896 53.3065 129.43 51.7499 131.352 50.189C132.998 48.9319 134.969 48.1698 137.032 47.9917C138.322 47.9014 140.042 50.3739 140.042 50.3739L141.436 52.8464C141.436 52.8464 144.188 52.4809 145.103 54.5664V56.0327C145.103 56.0327 147.12 55.7575 147.946 58.144L148.496 60.251C148.496 60.251 150.878 63.3642 150.969 64.6499" fill="#FFBF9D"/>
<path d="M150.977 64.6713C150.977 64.6713 150.956 64.5552 150.9 64.3445C150.8 64.0332 150.673 63.7311 150.521 63.4415C149.918 62.3433 149.228 61.2951 148.457 60.3068V60.2853C148.29 59.6575 148.1 58.9437 147.898 58.1783C147.717 57.6106 147.386 57.1024 146.939 56.7077C146.435 56.2861 145.785 56.0779 145.129 56.1272H145.043V56.0412C145.043 55.5897 145.043 55.0909 145.043 54.5749V54.6093C144.765 53.9833 144.257 53.4878 143.624 53.2247C142.943 52.9511 142.204 52.8492 141.474 52.928H141.414L141.384 52.8764L139.982 50.4039C139.679 49.982 139.345 49.5825 138.984 49.2085C138.626 48.8191 138.208 48.4895 137.746 48.2324C137.517 48.1139 137.26 48.059 137.002 48.0733C136.731 48.0733 136.46 48.1378 136.185 48.1808C135.631 48.285 135.085 48.4287 134.551 48.6108C133.446 48.9642 132.413 49.5101 131.498 50.2233C131.023 50.5597 130.68 51.0506 130.526 51.6122C130.481 51.8979 130.501 52.19 130.582 52.4674C130.664 52.7448 130.807 53.0005 130.999 53.2161H131.021V53.2548C131.054 53.3204 131.102 53.3775 131.161 53.4215C131.22 53.4655 131.288 53.4953 131.361 53.5085C131.532 53.554 131.708 53.5729 131.885 53.5644C132.257 53.5538 132.624 53.4705 132.964 53.3193C133.671 52.9866 134.324 52.552 134.904 52.0293L135.05 51.896L135.08 51.8702H135.114L137.694 51.595H137.75L137.789 51.638L138.748 52.7087L138.877 52.8506L138.688 52.8936L135.355 53.6289C134.301 53.95 133.265 54.326 132.251 54.7555C131.752 54.9619 131.266 55.1855 130.793 55.422C130.324 55.6363 129.889 55.9189 129.503 56.2605C129.341 56.4287 129.246 56.6506 129.236 56.884C129.239 57.1216 129.308 57.3537 129.434 57.5548C129.7 57.9629 130.041 58.3162 130.44 58.5954L130.483 58.6255V58.6857C130.483 58.8964 130.483 59.1157 130.505 59.3178C130.526 59.5247 130.572 59.7283 130.642 59.9241C130.764 60.3082 131.021 60.6351 131.365 60.8443C132.071 61.1961 132.883 61.2742 133.644 61.0636L133.73 61.0593V61.1582C133.772 61.5001 133.885 61.8295 134.061 62.1256C134.237 62.4217 134.473 62.6779 134.753 62.8782C135.284 63.2591 135.88 63.5403 136.512 63.7081C137.645 64.0193 138.816 64.1726 139.991 64.1639H140.055V64.2241C140.249 65.871 140.412 67.2341 140.545 68.3822V68.3478L142.996 70.1624L143.624 70.6354L143.831 70.8031L143.607 70.6569L142.966 70.2054L140.489 68.4252V68.3994C140.343 67.2642 140.171 65.8925 139.961 64.2499L140.034 64.3101C138.843 64.3319 137.654 64.1871 136.503 63.8801C135.851 63.7065 135.236 63.4151 134.689 63.0201C134.389 62.8093 134.136 62.5384 133.946 62.2244C133.757 61.9105 133.635 61.5606 133.588 61.1969L133.7 61.2743C133.303 61.3699 132.895 61.4076 132.487 61.3861C132.061 61.3697 131.646 61.2518 131.275 61.0421C130.892 60.8101 130.605 60.4485 130.466 60.023C130.39 59.8134 130.34 59.5954 130.316 59.3737C130.29 59.1544 130.316 58.9437 130.294 58.7072L130.337 58.7975C129.911 58.5046 129.548 58.1288 129.271 57.6924C129.124 57.459 129.044 57.1899 129.039 56.9141C129.048 56.6271 129.165 56.354 129.365 56.1487C129.766 55.7912 130.216 55.4942 130.703 55.2672C131.18 55.0221 131.67 54.7985 132.173 54.5921C133.192 54.159 134.233 53.7787 135.291 53.4526L138.649 52.7087L138.589 52.8936L137.6 51.8229L137.694 51.8616L135.114 52.1368L135.179 52.1067L135.024 52.2443C134.427 52.7787 133.755 53.222 133.029 53.5601C132.663 53.7217 132.268 53.8094 131.868 53.8181C131.667 53.8286 131.465 53.8068 131.27 53.7536C131.157 53.7314 131.052 53.68 130.966 53.6046C130.879 53.5291 130.813 53.4323 130.776 53.3236L130.806 53.3838C130.592 53.1439 130.435 52.859 130.345 52.5502C130.256 52.2414 130.237 51.9164 130.29 51.5993C130.362 51.2888 130.497 50.9962 130.685 50.7393C130.789 50.6189 130.883 50.4985 130.995 50.3867C131.107 50.2749 131.219 50.176 131.339 50.0814C132.277 49.3547 133.335 48.7987 134.465 48.4388C135.009 48.2562 135.565 48.1125 136.129 48.0088C136.409 47.9658 136.684 47.9228 136.968 47.9013C137.265 47.8838 137.562 47.9462 137.828 48.0819C138.309 48.3514 138.744 48.6953 139.118 49.101C139.484 49.4853 139.823 49.8948 140.133 50.3265L141.521 52.8076L141.431 52.7603C142.196 52.6776 142.969 52.7885 143.68 53.0828C144.354 53.3634 144.893 53.8933 145.185 54.562V54.6093C145.185 55.1253 145.185 55.6241 145.185 56.0756L145.099 55.9982C145.798 55.9496 146.488 56.1765 147.021 56.6303C147.482 57.045 147.823 57.5749 148.01 58.1654C148.208 58.9308 148.389 59.6446 148.552 60.2724C149.317 61.2719 149.994 62.335 150.577 63.4501C150.725 63.7449 150.844 64.053 150.934 64.3703C150.957 64.4693 150.971 64.57 150.977 64.6713Z" fill="#FF9A6C"/>
<path d="M145.082 66.3567C145.056 66.3782 144.837 66.1546 144.428 65.8579C143.897 65.4795 143.319 65.173 142.708 64.9462C142.091 64.7116 141.459 64.5177 140.816 64.3657C140.322 64.2754 140.003 64.284 139.999 64.2453C140.272 64.1715 140.559 64.1598 140.838 64.2109C141.503 64.318 142.156 64.4938 142.785 64.7355C143.424 64.9655 144.019 65.3029 144.544 65.7331C144.768 65.898 144.952 66.1111 145.082 66.3567Z" fill="#FF9A6C"/>
<path d="M146.054 60.3246C145.891 60.3663 145.723 60.3865 145.555 60.3848L144.196 60.4623C143.048 60.5182 141.461 60.5783 139.711 60.6342L137.239 60.6988C136.571 60.6995 135.903 60.7383 135.239 60.8148C134.791 60.8629 134.348 60.9492 133.915 61.0729C133.614 61.1675 133.455 61.2491 133.446 61.2319C133.572 61.1242 133.719 61.0423 133.876 60.9912C134.305 60.8328 134.749 60.7203 135.201 60.6558C135.87 60.5595 136.545 60.5049 137.222 60.4923L139.694 60.4063C141.444 60.3547 143.031 60.3204 144.179 60.3032H145.538C145.71 60.2932 145.883 60.3004 146.054 60.3246Z" fill="#FF9A6C"/>
<path d="M143.293 56.4672C143.13 56.5225 142.961 56.5571 142.79 56.5704L141.41 56.7768C140.24 56.9488 138.632 57.2068 136.865 57.5293C135.097 57.8518 133.502 58.1958 132.35 58.4495L130.986 58.7505C130.821 58.7966 130.651 58.8254 130.479 58.8365C130.633 58.7582 130.796 58.7004 130.965 58.6645C131.279 58.5699 131.743 58.4452 132.315 58.2947C133.459 58.0023 135.05 57.6368 136.822 57.3057C138.593 56.9746 140.214 56.751 141.388 56.622C141.973 56.5532 142.45 56.5059 142.781 56.4844C142.951 56.4607 143.122 56.4549 143.293 56.4672Z" fill="#FF9A6C"/>
<path d="M137.849 50.1416C137.905 50.1416 138.064 50.4813 138.039 50.9586C138.013 51.4359 137.824 51.7799 137.768 51.7541C137.712 51.7283 137.798 51.38 137.815 50.9457C137.832 50.5114 137.785 50.1588 137.849 50.1416Z" fill="#FF9A6C"/>
<path d="M96.9689 79.1536C100.62 83.9696 110.08 97.9145 113.95 102.903C114.762 103.956 117.132 103.569 118.177 102.743C120.662 100.791 125.014 97.3942 127.611 95.528C127.872 95.3413 128.092 95.1038 128.26 94.8298C128.427 94.5558 128.537 94.2509 128.583 93.9334C128.63 93.6159 128.612 93.2922 128.531 92.9818C128.449 92.6714 128.306 92.3805 128.11 92.1267L109.65 68.1542C109.448 67.8918 109.193 67.6742 108.903 67.5153C108.613 67.3563 108.292 67.2594 107.962 67.2307C107.632 67.202 107.3 67.2421 106.987 67.3485C106.673 67.455 106.385 67.6253 106.141 67.8489L97.2742 75.9458C96.8335 76.3467 96.558 76.8975 96.5015 77.4907C96.445 78.0838 96.6117 78.6767 96.9689 79.1536Z" fill="#9269AD"/>
<path d="M110.897 151.936L108.79 146.277L111.224 109.448C111.224 109.448 106.382 100.62 105.84 98.6633C105.298 96.7068 105.165 91.0953 105.165 91.0953L108.558 95.0298C108.558 95.0298 108.652 88.2659 108.652 85.9998C108.652 85.9998 109.134 77.4987 109.216 76.3162C109.297 75.1337 110.506 74.5059 111.267 74.5059C112.028 74.5059 112.785 75.9077 112.785 75.9077L113.821 89.8182C113.821 89.8182 115.541 82.5082 116.177 81.5321C116.814 80.556 119.063 80.1002 120.572 80.2077H120.615C120.868 80.2433 121.106 80.3535 121.296 80.5243C121.487 80.6951 121.622 80.9187 121.685 81.1668C121.749 81.4148 121.737 81.676 121.651 81.9172C121.565 82.1583 121.41 82.3685 121.204 82.5211L119.213 83.9143L118.461 90.8932C118.461 90.8932 120.292 84.8732 121.264 84.0949C122.236 83.3166 123.96 84.0949 124.274 84.9549C124.588 85.8149 123.414 87.5349 123.414 87.5349L123.087 91.8349C123.087 91.8349 124.377 90.0031 125.018 89.0313C125.659 88.0595 127.297 89.0313 127.495 89.4613C127.693 89.8913 126.334 94.5998 126.334 94.5998L124.39 110.222L125.005 132.715" fill="#FFBF9D"/>
<path d="M125.005 132.693C125.005 132.693 125.005 132.564 125.005 132.306C125.005 132.048 124.984 131.661 124.962 131.162C124.932 130.152 124.885 128.664 124.825 126.733C124.713 122.863 124.55 117.248 124.343 110.204C124.911 105.586 125.56 100.344 126.27 94.5823C126.523 93.7223 126.768 92.8279 126.996 91.9249C127.112 91.4734 127.224 91.0176 127.319 90.5575C127.366 90.3253 127.409 90.0931 127.439 89.8609C127.452 89.7596 127.452 89.657 127.439 89.5556C127.381 89.4653 127.31 89.3841 127.228 89.3148C126.871 89.0142 126.433 88.8257 125.969 88.773C125.746 88.7459 125.521 88.801 125.336 88.9278C125.165 89.086 125.02 89.2703 124.906 89.4739L123.186 91.9464L122.984 92.2431L123.01 91.8862C123.109 90.5489 123.221 89.0697 123.333 87.5862V87.5604V87.5389C123.635 87.0886 123.884 86.6053 124.077 86.0984C124.172 85.8514 124.223 85.5893 124.227 85.3244C124.217 85.0673 124.106 84.8245 123.917 84.6493C123.531 84.2662 123.029 84.0213 122.49 83.9527C122.228 83.8986 121.956 83.9214 121.706 84.0183C121.457 84.1152 121.241 84.282 121.084 84.4988C120.779 84.9785 120.518 85.4852 120.305 86.0124C120.086 86.5413 119.875 87.0788 119.673 87.6292C119.273 88.7214 118.904 89.8394 118.551 90.9703L118.345 90.9273C118.581 88.7343 118.839 86.3607 119.097 83.9527V83.8495L119.14 83.8237L121.024 82.5036C121.18 82.4131 121.314 82.289 121.417 82.1403C121.519 81.9916 121.588 81.822 121.617 81.6436C121.644 81.4671 121.631 81.2869 121.58 81.1159C121.528 80.9448 121.44 80.7873 121.32 80.6546C121.194 80.5257 121.042 80.4258 120.873 80.3619C120.704 80.298 120.524 80.2717 120.344 80.2848C119.959 80.2741 119.574 80.2914 119.192 80.3364C118.42 80.4143 117.669 80.6298 116.973 80.9728C116.634 81.1356 116.355 81.4022 116.177 81.7339C116.01 82.0894 115.866 82.4557 115.747 82.8304C115.507 83.5829 115.287 84.3526 115.081 85.1266C114.665 86.6746 114.273 88.2398 113.903 89.8222L113.735 90.5231L113.679 89.805C113.542 87.9302 113.391 85.935 113.249 83.8925C113.046 81.2007 112.846 78.5347 112.651 75.8945V75.9418C112.42 75.4961 112.101 75.1013 111.714 74.7808C111.336 74.4626 110.811 74.6131 110.372 74.8195C109.928 75.0245 109.578 75.3924 109.396 75.8472C109.317 76.0783 109.278 76.3211 109.28 76.5653L109.233 77.3307C109.115 79.3603 108.998 81.367 108.88 83.3507C108.829 84.344 108.747 85.333 108.721 86.3134C108.695 87.2938 108.721 88.2742 108.691 89.2503C108.671 91.1939 108.651 93.1117 108.631 95.0037V95.2875L108.446 95.0725L105.088 91.1595L105.268 91.0864C105.32 92.8322 105.406 94.5565 105.569 96.2464C105.632 97.0802 105.764 97.9073 105.965 98.7189C106.245 99.4937 106.57 100.252 106.937 100.989C108.364 103.939 109.865 106.734 111.314 109.404V109.43C110.162 126.42 109.28 139.44 108.82 146.26C109.512 148.156 110.033 149.571 110.381 150.517C110.549 150.985 110.678 151.338 110.764 151.575C110.85 151.811 110.884 151.931 110.884 151.931L110.747 151.583L110.347 150.53C109.99 149.588 109.461 148.178 108.747 146.286C109.177 139.466 110.037 126.441 111.129 109.452V109.499C109.676 106.829 108.171 104.038 106.735 101.08C106.361 100.335 106.032 99.568 105.75 98.7834C105.533 97.9621 105.389 97.1232 105.32 96.2765C105.152 94.5823 105.066 92.858 105.015 91.1165V90.8241L105.208 91.0477L108.601 94.9822L108.412 95.051C108.432 93.1533 108.452 91.2326 108.472 89.289C108.472 88.3172 108.482 87.3397 108.502 86.3564C108.523 85.3717 108.605 84.3827 108.657 83.3894C108.774 81.4 108.892 79.3933 109.009 77.3694L109.052 76.6083C109.054 76.3423 109.097 76.0781 109.181 75.8257C109.386 75.3185 109.775 74.9071 110.269 74.6733C110.511 74.5535 110.771 74.4736 111.039 74.4368C111.183 74.4166 111.329 74.4269 111.469 74.4669C111.603 74.5098 111.729 74.5737 111.843 74.6561C112.257 74.9964 112.599 75.416 112.849 75.8902V75.9117V75.9375C113.047 78.572 113.246 81.2366 113.447 83.9312C113.597 85.9565 113.748 87.9689 113.877 89.8437H113.658C114.033 88.2613 114.427 86.6933 114.84 85.1395C115.047 84.3655 115.27 83.5958 115.511 82.8347C115.628 82.4484 115.772 82.0705 115.941 81.7038C116.138 81.3295 116.45 81.0282 116.831 80.8438C117.549 80.4842 118.328 80.2612 119.127 80.1859C119.521 80.1371 119.918 80.1184 120.314 80.13C120.522 80.116 120.731 80.1472 120.927 80.2214C121.122 80.2956 121.299 80.4111 121.445 80.56C121.659 80.7949 121.787 81.0959 121.808 81.4133C121.828 81.7307 121.74 82.0456 121.557 82.3058C121.44 82.4736 121.294 82.6192 121.127 82.7358L119.243 84.0516L119.286 83.9742C119.028 86.3865 118.77 88.7601 118.53 90.9488L118.323 90.9058C118.676 89.7592 119.051 88.6426 119.45 87.5561C119.652 87.0057 119.88 86.4639 120.09 85.9307C120.309 85.3898 120.576 84.8701 120.89 84.3784C120.977 84.2526 121.081 84.1397 121.2 84.043C121.324 83.9537 121.46 83.8814 121.604 83.828C121.89 83.7362 122.193 83.7098 122.49 83.7506C123.076 83.8268 123.621 84.0926 124.042 84.5074C124.261 84.7228 124.39 85.0133 124.403 85.3201C124.4 85.6142 124.344 85.9052 124.24 86.1801C124.042 86.7031 123.784 87.201 123.47 87.6636V87.6163C123.354 89.117 123.242 90.5962 123.143 91.9163L122.967 91.8518L124.687 89.3879L124.898 89.0826C124.972 88.9701 125.065 88.8712 125.173 88.7902C125.394 88.638 125.663 88.5708 125.93 88.601C126.434 88.66 126.91 88.8664 127.297 89.1944C127.402 89.2775 127.489 89.3796 127.555 89.4954C127.581 89.629 127.581 89.7661 127.555 89.8996C127.525 90.1404 127.482 90.3769 127.435 90.6091C127.336 91.0778 127.224 91.5336 127.108 91.9894C126.876 92.8924 126.626 93.7782 126.377 94.6468C125.655 100.409 124.997 105.651 124.421 110.269C124.597 117.316 124.739 122.937 124.851 126.802C124.894 128.729 124.928 130.216 124.949 131.231C124.949 131.73 124.949 132.113 124.971 132.375C124.992 132.637 125.005 132.693 125.005 132.693Z" fill="#FF9A6C"/>
<path d="M108.79 102.903C108.707 102.398 108.666 101.888 108.665 101.376C108.618 100.43 108.57 99.1273 108.532 97.6825C108.493 96.2377 108.467 94.9348 108.459 93.9888C108.434 93.4783 108.447 92.9667 108.497 92.458C108.574 92.9633 108.614 93.4735 108.618 93.9845C108.665 94.9305 108.712 96.2334 108.755 97.6782C108.798 99.123 108.82 100.426 108.824 101.372C108.848 101.882 108.837 102.394 108.79 102.903Z" fill="#FF9A6C"/>
<path d="M130.148 87.8094C130.018 87.9078 129.872 87.9847 129.718 88.0373C129.318 88.2141 128.9 88.3454 128.471 88.4286C127.831 88.5564 127.176 88.5854 126.527 88.5146C126.326 88.4897 126.133 88.4175 125.964 88.3039C125.874 88.2371 125.8 88.1512 125.747 88.0522C125.694 87.9533 125.664 87.8439 125.659 87.732C125.64 87.3171 125.656 86.9015 125.706 86.4893C125.752 86.0647 125.909 85.6599 126.162 85.3154C126.283 85.1487 126.437 85.0088 126.615 84.9045C126.792 84.8002 126.989 84.7337 127.194 84.709C127.849 84.6746 128.505 84.7695 129.124 84.9885C129.536 85.1324 129.927 85.3274 130.29 85.5691C130.431 85.6451 130.559 85.7439 130.668 85.8614C130.154 85.5796 129.616 85.345 129.06 85.1606C128.461 84.974 127.833 84.8982 127.207 84.9369C127.032 84.9595 126.863 85.0176 126.712 85.1079C126.56 85.1981 126.428 85.3185 126.325 85.4616C126.099 85.7785 125.96 86.1491 125.921 86.5366C125.874 86.9318 125.857 87.3299 125.869 87.7277C125.869 88.0975 126.209 88.2738 126.553 88.3211C127.179 88.3996 127.814 88.3881 128.436 88.2867C129.017 88.167 129.589 88.0075 130.148 87.8094Z" fill="#263238"/>
<path d="M179.473 97.1797C179.086 97.2301 178.695 97.2301 178.308 97.1797C176.428 97.0528 174.597 96.5266 172.937 95.636C172.585 95.4702 172.256 95.2576 171.961 95.0039C172.319 95.1449 172.668 95.3086 173.006 95.4941C173.839 95.8898 174.701 96.2191 175.586 96.4788C176.475 96.7331 177.384 96.9144 178.303 97.0206C178.696 97.0506 179.087 97.1037 179.473 97.1797Z" fill="#FF9A6C"/>
</svg>
