<svg width="383" height="285" viewBox="0 0 383 285" fill="none" xmlns="http://www.w3.org/2000/svg">
<path d="M344.601 263.157H319.235V263.348H344.601V263.157Z" fill="#EBEBEB"/>
<path d="M253.706 265.24H247.05V265.431H253.706V265.24Z" fill="#EBEBEB"/>
<path d="M318.469 256.05H303.772V256.241H318.469V256.05Z" fill="#EBEBEB"/>
<path d="M73.286 257.336H40.207V257.527H73.286V257.336Z" fill="#EBEBEB"/>
<path d="M84.957 257.336H80.109V257.527H84.957V257.336Z" fill="#EBEBEB"/>
<path d="M172.467 260.568H100.719V260.759H172.467V260.568Z" fill="#EBEBEB"/>
<path d="M180.096 216.675H32.196C31.0374 216.673 29.9269 216.212 29.1084 215.392C28.2898 214.572 27.83 213.461 27.83 212.302V4.417C27.84 3.26502 28.3042 2.16352 29.1217 1.35182C29.9392 0.540124 31.044 0.0838013 32.196 0.0820007H180.089C181.249 0.0820007 182.361 0.542727 183.181 1.36282C184.001 2.18292 184.462 3.29521 184.462 4.455V212.302C184.462 213.461 184.002 214.572 183.184 215.392C182.365 216.212 181.255 216.673 180.096 216.675ZM32.196 0.235001C31.0883 0.23712 30.0266 0.678656 29.2441 1.4627C28.4615 2.24675 28.022 3.30925 28.022 4.417V212.302C28.022 213.41 28.4615 214.472 29.2441 215.256C30.0266 216.04 31.0883 216.482 32.196 216.484H180.089C181.198 216.482 182.26 216.041 183.044 215.257C183.828 214.473 184.269 213.411 184.271 212.302V4.417C184.269 3.30843 183.828 2.2458 183.044 1.46193C182.26 0.678049 181.198 0.236852 180.089 0.235001H32.196Z" fill="#EBEBEB"/>
<path d="M345.758 216.675H197.865C196.706 216.673 195.595 216.211 194.775 215.392C193.956 214.572 193.494 213.461 193.492 212.302V4.417C193.504 3.26446 193.97 2.16312 194.788 1.35167C195.607 0.54022 196.712 0.0840419 197.865 0.0820007H345.758C346.918 0.0820007 348.03 0.542727 348.85 1.36282C349.67 2.18292 350.131 3.29521 350.131 4.455V212.302C350.131 213.462 349.67 214.574 348.85 215.394C348.03 216.214 346.918 216.675 345.758 216.675ZM197.865 0.235001C196.757 0.237115 195.694 0.678396 194.91 1.46222C194.126 2.24603 193.685 3.30851 193.683 4.417V212.302C193.685 213.41 194.126 214.473 194.91 215.257C195.694 216.041 196.757 216.482 197.865 216.484H345.758C346.867 216.482 347.929 216.041 348.713 215.257C349.497 214.473 349.938 213.411 349.94 212.302V4.417C349.938 3.30843 349.497 2.2458 348.713 1.46193C347.929 0.678049 346.867 0.236852 345.758 0.235001H197.865Z" fill="#EBEBEB"/>
<path d="M382.972 250.834H0.0280151V251.025H382.972V250.834Z" fill="#EBEBEB"/>
<path d="M229.438 239.476H231.738C234.511 239.476 236.402 237.668 235.966 235.432L215.871 133.278C215.427 131.042 212.807 129.234 210.058 129.234H50.378L72.022 239.476H229.438Z" fill="#F0F0F0"/>
<path d="M73.185 239.476C69.785 239.476 66.591 237.255 66.047 234.513L46.341 134.182C45.797 131.44 48.118 129.219 51.526 129.219C54.926 129.219 58.12 131.44 58.656 134.182L78.37 234.509C78.914 237.255 76.616 239.476 73.185 239.476Z" fill="#E0E0E0"/>
<path d="M163.499 239.476H336.743V248.092C336.742 248.833 336.449 249.543 335.928 250.07C335.407 250.597 334.7 250.897 333.959 250.906H163.499V239.476Z" fill="#EBEBEB"/>
<path d="M72.787 239.476H193.797V248.092C193.796 248.839 193.499 249.554 192.97 250.082C192.442 250.61 191.726 250.906 190.979 250.906H75.575C74.8335 250.898 74.125 250.598 73.6031 250.072C73.0812 249.545 72.788 248.834 72.787 248.092V239.476Z" fill="#E0E0E0"/>
<path opacity="0.2" d="M270.387 239.476C270.448 241.452 272.447 243.045 274.914 243.045H293.647C296.113 243.045 298.112 241.452 298.173 239.476H270.387Z" fill="#E0E0E0"/>
<path d="M223.653 230.806H87.638L69.257 137.268H205.267L223.653 230.806Z" fill="#E0E0E0"/>
<path d="M138.73 132.501C138.82 132.916 138.78 133.349 138.614 133.74C138.448 134.131 138.165 134.461 137.804 134.684C137.442 134.908 137.021 135.013 136.597 134.987C136.173 134.961 135.767 134.803 135.437 134.537C135.106 134.271 134.866 133.908 134.749 133.5C134.633 133.091 134.647 132.657 134.788 132.256C134.929 131.855 135.191 131.508 135.537 131.263C135.884 131.017 136.298 130.885 136.723 130.885C137.202 130.84 137.68 130.983 138.055 131.285C138.43 131.587 138.672 132.023 138.73 132.501Z" fill="#E0E0E0"/>
<path d="M321.701 185.61C321.794 184.648 321.742 183.677 321.549 182.73L324.249 180.769L322.931 177.905L319.684 178.671C318.491 177.136 316.872 175.988 315.028 175.371L314.676 172.055L311.536 171.772L310.579 174.966C308.652 175.232 306.847 176.064 305.393 177.356L302.33 176L300.507 178.573L302.807 180.993C302.068 182.795 301.884 184.776 302.278 186.683L299.578 188.644L300.895 191.508L304.143 190.742C305.337 192.279 306.96 193.427 308.807 194.042L309.152 197.358L312.292 197.649L313.25 194.449C315.177 194.185 316.982 193.353 318.435 192.059L321.498 193.415L323.314 190.842L321.014 188.422C321.386 187.525 321.617 186.577 321.701 185.61ZM311.401 190.022C310.394 189.929 309.438 189.54 308.652 188.903C307.867 188.266 307.288 187.411 306.989 186.445C306.691 185.479 306.685 184.446 306.974 183.477C307.262 182.508 307.832 181.647 308.611 181.002C309.389 180.357 310.342 179.957 311.348 179.854C312.353 179.751 313.367 179.948 314.26 180.422C315.154 180.895 315.887 181.623 316.366 182.513C316.846 183.403 317.05 184.416 316.954 185.422C316.825 186.767 316.168 188.007 315.128 188.869C314.087 189.731 312.747 190.146 311.401 190.022Z" fill="#F0F0F0"/>
<path d="M333.955 198.892C333.957 198.168 333.851 197.448 333.641 196.755L335.51 195.116L334.3 193.087L331.941 193.853C330.948 192.793 329.664 192.049 328.25 191.716L327.76 189.273H325.401L324.918 191.716C323.504 192.048 322.22 192.791 321.228 193.852L318.862 193.086L317.69 195.131L319.559 196.77C319.14 198.161 319.14 199.645 319.559 201.036L317.69 202.683L318.862 204.72L321.228 203.954C322.219 205.016 323.504 205.758 324.92 206.083L325.403 208.526H327.762L328.252 206.083C329.667 205.756 330.952 205.015 331.943 203.954L334.302 204.72L335.474 202.683L333.606 201.036C333.829 200.343 333.947 199.62 333.955 198.892ZM326.618 202.852C327.645 202.847 328.627 202.435 329.35 201.706C330.073 200.978 330.478 199.992 330.475 198.965C330.473 197.939 330.063 196.955 329.337 196.23C328.61 195.505 327.625 195.098 326.599 195.098C325.572 195.098 324.587 195.505 323.861 196.23C323.134 196.955 322.724 197.939 322.722 198.965C322.719 199.992 323.124 200.978 323.847 201.706C324.57 202.435 325.552 202.847 326.579 202.852H326.618Z" fill="#F0F0F0"/>
<path d="M316.493 83.005H290.453V56.965H316.493V83.005ZM291.218 82.239H315.726V57.731H291.219L291.218 82.239Z" fill="#E0E0E0"/>
<path d="M321.885 102.489H286.049V93.168H321.885V102.489ZM286.815 101.723H321.115V93.934H286.815V101.723Z" fill="#E0E0E0"/>
<path d="M286.202 130.904H271.802V116.497H286.202V130.904ZM272.569 130.138H285.436V117.263H272.569V130.138Z" fill="#E0E0E0"/>
<path d="M302.884 130.904H288.484V116.497H302.884V130.904ZM289.251 130.138H302.118V117.263H289.255L289.251 130.138Z" fill="#E0E0E0"/>
<path d="M319.565 130.904H305.165V116.497H319.565V130.904ZM305.932 130.138H318.799V117.263H305.932V130.138Z" fill="#E0E0E0"/>
<path d="M336.255 130.904H321.855V116.497H336.255V130.904ZM322.622 130.138H335.489V117.263H322.621L322.622 130.138Z" fill="#E0E0E0"/>
<path d="M329.437 116.696H328.676V111.473H279.046V116.696H278.276V110.707H329.437V116.696Z" fill="#E0E0E0"/>
<path d="M304.408 102.106H303.642V111.09H304.408V102.106Z" fill="#E0E0E0"/>
<path d="M304.408 82.361H303.642V93.551H304.408V82.361Z" fill="#E0E0E0"/>
<path d="M296.366 111.09H295.6V116.888H296.366V111.09Z" fill="#E0E0E0"/>
<path d="M312.61 111.09H311.844V116.888H312.61V111.09Z" fill="#E0E0E0"/>
<path d="M83.84 71.815H57.424V62.502H83.84V71.815ZM58.19 71.049H83.074V63.268H58.19V71.049Z" fill="#E0E0E0"/>
<path d="M88.549 53.878H52.713V44.557H88.549V53.878ZM53.479 53.112H87.779V45.323H53.479V53.112Z" fill="#E0E0E0"/>
<path d="M61.147 95.964H46.747V81.564H61.147V95.964ZM47.514 95.198H60.38V82.331H47.513L47.514 95.198Z" fill="#E0E0E0"/>
<path d="M77.835 95.964H63.436V81.564H77.836L77.835 95.964ZM64.202 95.198H77.069V82.331H64.202V95.198Z" fill="#E0E0E0"/>
<path d="M94.516 95.964H80.116V81.564H94.516V95.964ZM80.883 95.198H93.747V82.331H80.883V95.198Z" fill="#E0E0E0"/>
<path d="M87.105 82.752L70.628 72.114L54.146 81.994L53.755 81.338L70.635 71.218L87.523 82.109L87.105 82.752Z" fill="#E0E0E0"/>
<path d="M71.018 71.662H70.252V81.665H71.018V71.662Z" fill="#E0E0E0"/>
<path d="M71.018 54.253H70.252V63.735H71.018V54.253Z" fill="#E0E0E0"/>
<path d="M191.5 285.001C273.513 285.001 339.998 281.119 339.998 276.331C339.998 271.543 273.513 267.661 191.5 267.661C109.487 267.661 43.002 271.543 43.002 276.331C43.002 281.119 109.487 285.001 191.5 285.001Z" fill="#F5F5F5"/>
<path d="M300.065 7.50299H76.471V177.193H300.065V7.50299Z" fill="#407BFF"/>
<path opacity="0.6" d="M300.065 7.50299H76.471V177.193H300.065V7.50299Z" fill="white"/>
<path d="M300.065 7.50299H76.609V18.716H300.065V7.50299Z" fill="#407BFF"/>
<path d="M86.106 13.17C86.106 13.6077 85.9762 14.0356 85.733 14.3995C85.4899 14.7634 85.1442 15.047 84.7399 15.2145C84.3355 15.382 83.8905 15.4259 83.4613 15.3405C83.032 15.2551 82.6377 15.0443 82.3282 14.7348C82.0187 14.4253 81.8079 14.031 81.7225 13.6017C81.6371 13.1725 81.681 12.7275 81.8485 12.3231C82.0159 11.9188 82.2996 11.5731 82.6635 11.33C83.0274 11.0868 83.4553 10.957 83.893 10.957C84.4799 10.957 85.0428 11.1902 85.4578 11.6052C85.8728 12.0202 86.106 12.5831 86.106 13.17Z" fill="white"/>
<path d="M93.834 13.17C93.834 13.6077 93.7042 14.0356 93.4611 14.3995C93.2179 14.7634 92.8723 15.047 92.4679 15.2145C92.0635 15.382 91.6186 15.4259 91.1893 15.3405C90.76 15.2551 90.3657 15.0443 90.0562 14.7348C89.7467 14.4253 89.5359 14.031 89.4505 13.6017C89.3652 13.1725 89.409 12.7275 89.5765 12.3231C89.744 11.9188 90.0276 11.5731 90.3915 11.33C90.7555 11.0868 91.1833 10.957 91.621 10.957C92.2079 10.957 92.7708 11.1902 93.1858 11.6052C93.6009 12.0202 93.834 12.5831 93.834 13.17Z" fill="white"/>
<path d="M101.554 13.17C101.554 13.6077 101.424 14.0356 101.181 14.3995C100.938 14.7634 100.592 15.047 100.188 15.2145C99.7835 15.382 99.3385 15.4259 98.9093 15.3405C98.48 15.2551 98.0857 15.0443 97.7762 14.7348C97.4667 14.4253 97.2559 14.031 97.1705 13.6017C97.0851 13.1725 97.1289 12.7275 97.2964 12.3231C97.4639 11.9188 97.7476 11.5731 98.1115 11.33C98.4754 11.0868 98.9033 10.957 99.341 10.957C99.9279 10.957 100.491 11.1902 100.906 11.6052C101.321 12.0202 101.554 12.5831 101.554 13.17Z" fill="white"/>
<g opacity="0.8">
<path opacity="0.8" d="M200.346 37.978H199.581V36.829H198.431V36.063H200.346V37.978Z" fill="white"/>
<path opacity="0.8" d="M200.339 51.075H199.573V47.805H200.339V51.075ZM200.339 44.527H199.573V41.257H200.339V44.527Z" fill="white"/>
<path opacity="0.8" d="M200.339 90.364H199.573V87.086H200.339V90.364ZM200.339 83.816H199.573V80.538H200.339V83.816ZM200.339 77.268H199.573V73.998H200.339V77.268ZM200.339 70.72H199.573V67.48H200.339V70.72ZM200.339 64.172H199.573V60.902H200.339V64.172ZM200.339 57.624H199.573V54.354H200.339V57.624Z" fill="white"/>
<path opacity="0.8" d="M200.346 95.55H198.431V94.785H199.581V93.635H200.347L200.346 95.55Z" fill="white"/>
<path opacity="0.8" d="M195.475 95.55H192.519V94.784H195.475V95.55ZM189.57 95.55H186.614V94.784H189.57V95.55Z" fill="white"/>
<path opacity="0.8" d="M183.665 95.55H180.709V94.784H183.665V95.55ZM177.76 95.55H174.804V94.784H177.756L177.76 95.55ZM171.847 95.55H168.898V94.784H171.847V95.55ZM165.942 95.55H162.993V94.784H165.942V95.55ZM160.042 95.55H157.093V94.784H160.042V95.55ZM154.137 95.55H151.188V94.784H154.137V95.55ZM148.232 95.55H145.276V94.784H148.232V95.55ZM142.332 95.55H139.366V94.784H142.322L142.332 95.55ZM136.427 95.55H133.456V94.784H136.412L136.427 95.55ZM130.522 95.55H127.556V94.784H130.512L130.522 95.55ZM124.617 95.55H121.661V94.784H124.617V95.55ZM118.705 95.55H115.746V94.784H118.695L118.705 95.55Z" fill="white"/>
<path opacity="0.8" d="M112.79 95.55H110.875V93.635H111.641V94.785H112.79V95.55Z" fill="white"/>
<path opacity="0.8" d="M111.645 90.364H110.879V87.088H111.645V90.364ZM111.645 83.816H110.879V80.538H111.645V83.816Z" fill="white"/>
<path opacity="0.8" d="M111.645 77.268H110.879V73.99H111.645V77.268ZM111.645 70.72H110.879V67.48H111.645V70.72ZM111.645 64.172H110.879V60.902H111.645V64.172ZM111.645 57.624H110.879V54.354H111.645V57.624ZM111.645 51.076H110.879V47.806H111.645V51.076ZM111.645 44.528H110.879V41.258H111.645V44.528Z" fill="white"/>
<path opacity="0.8" d="M111.645 37.978H110.879V36.063H112.794V36.829H111.645V37.978Z" fill="white"/>
<path opacity="0.8" d="M124.607 36.844H121.656V36.078H124.612L124.607 36.844ZM118.694 36.844H115.746V36.078H118.695L118.694 36.844Z" fill="white"/>
<path opacity="0.8" d="M195.475 36.844H192.519V36.078H195.475V36.844ZM189.57 36.844H186.614V36.078H189.57V36.844ZM183.67 36.844H180.714V36.078H183.67V36.844ZM177.765 36.844H174.809V36.078H177.765V36.844ZM171.852 36.844H168.903V36.078H171.846L171.852 36.844ZM165.947 36.844H162.999V36.078H165.946L165.947 36.844ZM160.047 36.844H157.098V36.078H160.047V36.844ZM154.142 36.844H151.193V36.078H154.142V36.844ZM148.237 36.844H145.281V36.078H148.237V36.844ZM142.332 36.844H139.366V36.078H142.322L142.332 36.844ZM136.432 36.844H133.476V36.078H136.432V36.844ZM130.527 36.844H127.556V36.078H130.512L130.527 36.844Z" fill="white"/>
</g>
<g opacity="0.8">
<path opacity="0.8" d="M266.45 104.342H265.684V103.197H264.535V102.431H266.45V104.342Z" fill="white"/>
<path opacity="0.8" d="M266.45 116.761H265.684V113.661H266.45V116.761ZM266.45 110.561H265.684V107.461H266.45V110.561Z" fill="white"/>
<path opacity="0.8" d="M266.45 154.025H265.684V150.915H266.45V154.025ZM266.45 147.814H265.684V144.714H266.45V147.814ZM266.45 141.614H265.684V138.504H266.45V141.614ZM266.45 135.403H265.684V132.34H266.45V135.403ZM266.45 129.192H265.684V126.07H266.45V129.192ZM266.45 122.992H265.684V119.92H266.45V122.992Z" fill="white"/>
<path opacity="0.8" d="M266.45 159.027H264.535V158.261H265.684V157.112H266.45V159.027Z" fill="white"/>
<path opacity="0.8" d="M261.257 159.03H257.971V158.264H261.257V159.03ZM254.693 159.03H251.408V158.264H254.694L254.693 159.03Z" fill="white"/>
<path opacity="0.8" d="M248.129 159.03H244.842V158.264H248.128L248.129 159.03ZM241.565 159.03H238.279V158.264H241.565V159.03ZM235.001 159.03H231.715V158.264H235.001V159.03ZM228.437 159.03H225.197V158.264H228.475L228.437 159.03ZM221.873 159.03H218.595V158.264H221.873V159.03ZM215.309 159.03H212.031V158.264H215.309V159.03ZM208.745 159.03H205.467V158.264H208.745V159.03ZM202.181 159.03H198.903V158.264H202.219L202.181 159.03ZM195.617 159.03H192.342V158.264H195.62L195.617 159.03Z" fill="white"/>
<path opacity="0.8" d="M189.057 159.027H187.142V157.112H187.908V158.261H189.057V159.027Z" fill="white"/>
<path opacity="0.8" d="M187.908 154.025H187.142V150.915H187.908V154.025ZM187.908 147.814H187.142V144.714H187.908V147.814Z" fill="white"/>
<path opacity="0.8" d="M187.908 141.587H187.142V138.524H187.908V141.587ZM187.908 135.387H187.142V132.324H187.908V135.387ZM187.908 129.176H187.142V126.076H187.908V129.176ZM187.908 122.976H187.142V119.912H187.908V122.976ZM187.908 116.765H187.142V113.665H187.908V116.765ZM187.908 110.565H187.142V107.455H187.908V110.565Z" fill="white"/>
<path opacity="0.8" d="M187.908 104.342H187.142V102.427H189.057V103.193H187.908V104.342Z" fill="white"/>
<path opacity="0.8" d="M202.222 103.197H198.942V102.431H202.22L202.222 103.197ZM195.658 103.197H192.342V102.431H195.62L195.658 103.197Z" fill="white"/>
<path opacity="0.8" d="M261.257 103.197H257.971V102.431H261.257V103.197ZM254.694 103.197H251.408V102.431H254.694V103.197ZM248.13 103.197H244.845V102.431H248.13V103.197ZM241.567 103.197H238.28V102.431H241.566L241.567 103.197ZM235.003 103.197H231.725V102.431H235.003V103.197ZM228.439 103.197H225.199V102.431H228.477L228.439 103.197ZM221.875 103.197H218.597V102.431H221.875V103.197ZM215.311 103.197H212.03V102.431H215.308L215.311 103.197ZM208.747 103.197H205.47V102.431H208.748L208.747 103.197Z" fill="white"/>
</g>
<g opacity="0.8">
<path opacity="0.8" d="M182.256 104.25H181.49V103.101H180.341V102.335H182.256V104.25Z" fill="white"/>
<path opacity="0.8" d="M182.26 116.711H181.494V113.589H182.26V116.711ZM182.26 110.477H181.494V107.359H182.26V110.477Z" fill="white"/>
<path opacity="0.8" d="M182.26 154.094H181.494V150.961H182.26V154.094ZM182.26 147.86H181.494V144.743H182.26V147.86ZM182.26 141.633H181.494V138.516H182.26V141.633ZM182.26 135.399H181.494V132.28H182.26V135.399ZM182.26 129.172H181.494V126.055H182.26V129.172ZM182.26 122.938H181.494V119.82H182.26V122.938Z" fill="white"/>
<path opacity="0.8" d="M182.256 159.118H180.341V158.353H181.49V157.203H182.256V159.118Z" fill="white"/>
<path opacity="0.8" d="M177.408 159.118H174.475V158.352H177.408V159.118ZM171.541 159.118H168.608V158.352H171.541V159.118Z" fill="white"/>
<path opacity="0.8" d="M165.674 159.118H162.742V158.352H165.675L165.674 159.118ZM159.807 159.118H156.866V158.352H159.807V159.118ZM153.933 159.118H151V158.352H153.972L153.933 159.118ZM148.066 159.118H145.133V158.352H148.066V159.118ZM142.199 159.118H139.266V158.352H142.199V159.118ZM136.332 159.118H133.399V158.352H136.355L136.332 159.118ZM130.465 159.118H127.524V158.352H130.465V159.118ZM124.591 159.118H121.658V158.352H124.591V159.118ZM118.724 159.118H115.792V158.352H118.742L118.724 159.118Z" fill="white"/>
<path opacity="0.8" d="M112.859 159.118H110.944V157.203H111.71V158.353H112.859V159.118Z" fill="white"/>
<path opacity="0.8" d="M111.71 154.094H110.944V150.962H111.71V154.094ZM111.71 147.86H110.944V144.742H111.71V147.86Z" fill="white"/>
<path opacity="0.8" d="M111.71 141.633H110.944V138.516H111.71V141.633ZM111.71 135.399H110.944V132.282H111.71V135.399ZM111.71 129.172H110.944V126.055H111.71V129.172ZM111.71 122.938H110.944V119.821H111.71V122.938ZM111.71 116.711H110.944V113.589H111.71V116.711ZM111.71 110.477H110.944V107.359H111.71V110.477Z" fill="white"/>
<path opacity="0.8" d="M111.71 104.25H110.944V102.335H112.859V103.101H111.71V104.25Z" fill="white"/>
<path opacity="0.8" d="M124.592 103.101H121.659V102.335H124.592V103.101ZM118.725 103.101H115.792V102.335H118.742L118.725 103.101Z" fill="white"/>
<path opacity="0.8" d="M177.407 103.101H174.474V102.335H177.407V103.101ZM171.54 103.101H168.607V102.335H171.54V103.101ZM165.673 103.101H162.74V102.335H165.673V103.101ZM159.806 103.101H156.865V102.335H159.806V103.101ZM153.932 103.101H150.999V102.335H153.971L153.932 103.101ZM148.065 103.101H145.132V102.335H148.065V103.101ZM142.198 103.101H139.265V102.335H142.198V103.101ZM136.331 103.101H133.398V102.335H136.355L136.331 103.101ZM130.464 103.101H127.525V102.335H130.466L130.464 103.101Z" fill="white"/>
</g>
<path opacity="0.8" d="M239.942 102.787H239.176V101.945H239.942V102.787ZM239.942 98.896H239.176V95.833H239.942V98.896ZM239.942 92.769H239.176V89.705H239.942V92.769ZM239.942 86.642H239.176V83.574H239.942V86.642ZM239.942 80.515H239.176V77.452H239.942V80.515ZM239.942 74.388H239.176V71.324H239.942V74.388ZM239.942 68.261H239.176V65.197H239.942V68.261ZM239.942 62.134H239.176V59.074H239.942V62.134ZM239.559 56.16H236.725V55.394H239.942V56.007H239.559V56.16ZM233.659 56.16H230.595V55.394H233.659V56.16ZM227.532 56.16H224.468V55.394H227.532V56.16ZM221.405 56.16H218.342V55.394H221.405V56.16ZM215.278 56.16H212.213V55.394H215.276L215.278 56.16ZM209.151 56.16H206.087V55.394H209.151V56.16ZM203.024 56.16H199.963V55.394H203.026L203.024 56.16Z" fill="white"/>
<path opacity="0.2" d="M101.615 27.578V85.77H189.983V27.578L101.615 27.578Z" fill="black"/>
<path d="M97.709 23.028V81.22H186.077V23.028L97.709 23.028Z" fill="#407BFF"/>
<path opacity="0.8" d="M97.709 23.028V81.22H186.077V23.028L97.709 23.028Z" fill="white"/>
<path d="M142.057 27.417H106.728C104.784 27.417 103.208 28.993 103.208 30.937V60.062C103.208 62.0061 104.784 63.582 106.728 63.582H142.057C144.001 63.582 145.577 62.0061 145.577 60.062V30.937C145.577 28.993 144.001 27.417 142.057 27.417Z" fill="#407BFF"/>
<g opacity="0.4">
<path opacity="0.4" d="M142.057 27.417H106.728C104.784 27.417 103.208 28.993 103.208 30.937V60.062C103.208 62.0061 104.784 63.582 106.728 63.582H142.057C144.001 63.582 145.577 62.0061 145.577 60.062V30.937C145.577 28.993 144.001 27.417 142.057 27.417Z" fill="white"/>
</g>
<path d="M142.633 29.04H106.144C105.415 29.04 104.824 29.631 104.824 30.36V60.646C104.824 61.375 105.415 61.966 106.144 61.966H142.633C143.362 61.966 143.953 61.375 143.953 60.646V30.36C143.953 29.631 143.362 29.04 142.633 29.04Z" fill="#407BFF"/>
<path d="M142.633 29.04H106.144C105.415 29.04 104.824 29.631 104.824 30.36V60.646C104.824 61.375 105.415 61.966 106.144 61.966H142.633C143.362 61.966 143.953 61.375 143.953 60.646V30.36C143.953 29.631 143.362 29.04 142.633 29.04Z" fill="#407BFF"/>
<path opacity="0.1" d="M115.041 44.504L104.824 60.243V60.971C104.827 61.2372 104.935 61.4916 105.124 61.6788C105.313 61.866 105.569 61.971 105.835 61.971H126.399L115.041 44.504Z" fill="white"/>
<path d="M143.954 57.723L133.415 39.403L120.441 61.963H142.941C143.207 61.963 143.463 61.858 143.652 61.6708C143.841 61.4836 143.949 61.2292 143.952 60.963L143.954 57.723Z" fill="#407BFF"/>
<path opacity="0.2" d="M143.954 57.723L133.415 39.403L120.441 61.963H142.941C143.207 61.963 143.463 61.858 143.652 61.6708C143.841 61.4836 143.949 61.2292 143.952 60.963L143.954 57.723Z" fill="white"/>
<path d="M127.023 36.768C127.021 37.3775 126.808 37.9675 126.42 38.4376C126.032 38.9076 125.494 39.2287 124.896 39.3461C124.297 39.4635 123.677 39.37 123.14 39.0814C122.604 38.7928 122.183 38.3271 121.951 37.7635C121.719 37.2 121.69 36.5734 121.868 35.9905C122.046 35.4077 122.421 34.9045 122.928 34.5669C123.435 34.2292 124.044 34.0778 124.651 34.1386C125.257 34.1993 125.824 34.4684 126.254 34.9C126.748 35.3962 127.024 36.0681 127.023 36.768Z" fill="white"/>
<path d="M159.218 27.983H154.293V28.749H159.218V27.983Z" fill="#407BFF"/>
<path d="M172.314 27.983H161.638V28.749H172.314V27.983Z" fill="#407BFF"/>
<path d="M179.368 27.983H175.179V28.749H179.368V27.983Z" fill="#407BFF"/>
<path d="M165.659 34.838H149.177V35.604H165.659V34.838Z" fill="#407BFF"/>
<path d="M178.227 34.838H169.427V35.604H178.227V34.838Z" fill="#407BFF"/>
<path d="M157.708 41.693H150.509V42.459H157.708V41.693Z" fill="#407BFF"/>
<path d="M173.938 41.693H160.106V42.459H173.938V41.693Z" fill="#407BFF"/>
<path d="M179.376 41.693H176.473V42.459H179.376V41.693Z" fill="#407BFF"/>
<path d="M165.659 48.54H149.177V49.306H165.659V48.54Z" fill="#407BFF"/>
<path d="M178.22 48.54H168.761V49.306H178.22V48.54Z" fill="#407BFF"/>
<path d="M159.218 55.394H154.293V56.16H159.218V55.394Z" fill="#407BFF"/>
<path d="M172.314 55.394H161.638V56.16H172.314V55.394Z" fill="#407BFF"/>
<path d="M179.368 55.394H175.179V56.16H179.368V55.394Z" fill="#407BFF"/>
<path d="M165.659 62.249H149.177V63.015H165.659V62.249Z" fill="#407BFF"/>
<path d="M177.921 62.249H169.427V63.015H177.921V62.249Z" fill="#407BFF"/>
<path d="M129.248 68.461H104.426V69.227H129.248V68.461Z" fill="#407BFF"/>
<path d="M161.646 68.461H135.238V69.227H161.646V68.461Z" fill="#407BFF"/>
<path d="M179.077 68.461H168.715V69.227H179.077V68.461Z" fill="#407BFF"/>
<path d="M111.342 75.308H104.426V76.074H111.342V75.308Z" fill="#407BFF"/>
<path d="M134.916 75.308H116.381V76.074H134.916V75.308Z" fill="#407BFF"/>
<path d="M149.176 75.308H138.944V76.074H149.176V75.308Z" fill="#407BFF"/>
<path d="M165.666 75.308H154.484V76.074H165.666V75.308Z" fill="#407BFF"/>
<path d="M179.077 75.308H170.346V76.074H179.077V75.308Z" fill="#407BFF"/>
<path opacity="0.2" d="M260.553 37.351L260.637 83.795C260.637 84.0822 260.523 84.3577 260.321 84.5615C260.119 84.7653 259.844 84.8809 259.557 84.883L216.614 84.96C216.472 84.96 216.332 84.9321 216.201 84.8778C216.07 84.8235 215.951 84.744 215.85 84.6437C215.75 84.5434 215.67 84.4243 215.616 84.2933C215.562 84.1623 215.534 84.0218 215.534 83.88L215.419 23.467C215.419 23.1806 215.533 22.9059 215.735 22.7033C215.938 22.5008 216.213 22.387 216.499 22.387L245.434 22.333L260.553 37.351Z" fill="black"/>
<path d="M263.67 34.16L263.754 80.603C263.754 80.7448 263.726 80.8853 263.672 81.0163C263.618 81.1473 263.538 81.2664 263.438 81.3667C263.337 81.467 263.218 81.5465 263.087 81.6008C262.956 81.6551 262.816 81.683 262.674 81.683L219.731 81.76C219.444 81.76 219.168 81.6465 218.965 81.4442C218.761 81.2418 218.645 80.9672 218.643 80.68L218.536 20.271C218.536 19.9837 218.649 19.7081 218.852 19.5042C219.054 19.3003 219.329 19.1848 219.616 19.183L248.552 19.129L263.67 34.16Z" fill="#407BFF"/>
<g opacity="0.8">
<path opacity="0.8" d="M263.67 34.16L263.754 80.603C263.754 80.7448 263.726 80.8853 263.672 81.0163C263.618 81.1473 263.538 81.2664 263.438 81.3667C263.337 81.467 263.218 81.5465 263.087 81.6008C262.956 81.6551 262.816 81.683 262.674 81.683L219.731 81.76C219.444 81.76 219.168 81.6465 218.965 81.4442C218.761 81.2418 218.645 80.9672 218.643 80.68L218.536 20.271C218.536 19.9837 218.649 19.7081 218.852 19.5042C219.054 19.3003 219.329 19.1848 219.616 19.183L248.552 19.129L263.67 34.16Z" fill="white"/>
</g>
<path d="M248.574 19.099V33.107C248.574 33.2534 248.603 33.3983 248.661 33.5329C248.719 33.6675 248.803 33.789 248.909 33.89C249.015 33.991 249.14 34.0695 249.277 34.1205C249.415 34.1716 249.561 34.1942 249.707 34.187H263.677L248.574 19.099Z" fill="#407BFF"/>
<path opacity="0.8" d="M248.574 19.099V33.107C248.574 33.2534 248.603 33.3983 248.661 33.5329C248.719 33.6675 248.803 33.789 248.909 33.89C249.015 33.991 249.14 34.0695 249.277 34.1205C249.415 34.1716 249.561 34.1942 249.707 34.187H263.677L248.574 19.099Z" fill="white"/>
<path opacity="0.2" d="M265.519 22.883V75.791L226.987 75.86C226.701 75.86 226.426 75.7462 226.223 75.5437C226.021 75.3411 225.907 75.0664 225.907 74.78L225.789 14.363C225.788 14.2209 225.815 14.08 225.869 13.9484C225.923 13.8169 226.002 13.6975 226.103 13.597C226.203 13.4965 226.323 13.4169 226.454 13.363C226.586 13.3091 226.727 13.2819 226.869 13.283L255.835 13.229L265.519 22.883Z" fill="black"/>
<path d="M274.01 25.073L274.094 71.517C274.094 71.8042 273.98 72.0797 273.778 72.2835C273.576 72.4873 273.301 72.6029 273.014 72.605L230.071 72.682C229.784 72.682 229.508 72.5685 229.304 72.3662C229.101 72.1639 228.985 71.8892 228.983 71.602L228.876 11.188C228.876 10.9016 228.99 10.6269 229.192 10.4243C229.395 10.2218 229.67 10.108 229.956 10.108L258.899 10.039L274.01 25.073Z" fill="#407BFF"/>
<g opacity="0.8">
<path opacity="0.8" d="M274.01 25.073L274.094 71.517C274.094 71.8042 273.98 72.0797 273.778 72.2835C273.576 72.4873 273.301 72.6029 273.014 72.605L230.071 72.682C229.784 72.682 229.508 72.5685 229.304 72.3662C229.101 72.1639 228.985 71.8892 228.983 71.602L228.876 11.188C228.876 10.9016 228.99 10.6269 229.192 10.4243C229.395 10.2218 229.67 10.108 229.956 10.108L258.899 10.039L274.01 25.073Z" fill="white"/>
</g>
<path d="M258.898 10.039V24.047C258.898 24.3334 259.012 24.6081 259.214 24.8107C259.417 25.0132 259.692 25.127 259.978 25.127H273.948L258.898 10.039Z" fill="#407BFF"/>
<path d="M258.898 10.039V24.047C258.898 24.3334 259.012 24.6081 259.214 24.8107C259.417 25.0132 259.692 25.127 259.978 25.127H273.948L258.898 10.039Z" fill="white"/>
<path d="M242.524 33.598H235.822V34.364H242.524V33.598Z" fill="#407BFF"/>
<path d="M260.323 33.598H245.809V34.364H260.323V33.598Z" fill="#407BFF"/>
<path d="M268.373 33.598H264.214V34.364H268.373V33.598Z" fill="#407BFF"/>
<path d="M251.278 39.388H234.543V40.154H251.278V39.388Z" fill="#407BFF"/>
<path d="M268.357 39.388H256.394V40.154H268.357V39.388Z" fill="#407BFF"/>
<path d="M240.479 45.178H234.543V45.944H240.479V45.178Z" fill="#407BFF"/>
<path d="M262.514 45.178H243.719V45.944H262.514V45.178Z" fill="#407BFF"/>
<path d="M268.373 45.178H265.968V45.944H268.373V45.178Z" fill="#407BFF"/>
<path d="M251.278 50.968H234.543V51.734H251.278V50.968Z" fill="#407BFF"/>
<path d="M268.357 50.968H255.498V51.734H268.357V50.968Z" fill="#407BFF"/>
<path d="M242.524 56.758H235.822V57.524H242.524V56.758Z" fill="#407BFF"/>
<path d="M260.323 56.758H245.809V57.524H260.323V56.758Z" fill="#407BFF"/>
<path d="M268.373 56.758H264.214V57.524H268.373V56.758Z" fill="#407BFF"/>
<path d="M251.278 62.548H234.543V63.314H251.278V62.548Z" fill="#407BFF"/>
<path d="M267.944 62.556H256.394V63.322H267.944V62.556Z" fill="#407BFF"/>
<g opacity="0.2">
<path opacity="0.2" d="M98.827 160.765H165.337C165.957 160.781 166.575 160.675 167.154 160.453C167.734 160.231 168.264 159.896 168.714 159.469C169.164 159.042 169.526 158.53 169.778 157.963C170.031 157.397 170.169 156.785 170.185 156.165V103.633C170.152 102.38 169.623 101.192 168.714 100.329C167.804 99.4664 166.59 99.0002 165.337 99.033H98.827C97.5747 99.0021 96.3612 99.4689 95.4524 100.331C94.5437 101.193 94.0138 102.381 93.979 103.633V156.163C94.0138 157.415 94.5437 158.603 95.4524 159.465C96.3612 160.327 97.5747 160.794 98.827 160.763V160.765Z" fill="black"/>
<g opacity="0.4">
<path opacity="0.2" d="M98.827 160.765H165.337C165.957 160.781 166.575 160.675 167.154 160.453C167.734 160.231 168.264 159.896 168.714 159.469C169.164 159.042 169.526 158.53 169.778 157.963C170.031 157.397 170.169 156.785 170.185 156.165V103.633C170.152 102.38 169.623 101.192 168.714 100.329C167.804 99.4664 166.59 99.0002 165.337 99.033H98.827C97.5747 99.0021 96.3612 99.4689 95.4524 100.331C94.5437 101.193 94.0138 102.381 93.979 103.633V156.163C94.0138 157.415 94.5437 158.603 95.4524 159.465C96.3612 160.327 97.5747 160.794 98.827 160.763V160.765Z" fill="black"/>
</g>
</g>
<path d="M95.565 157.243H162.075C163.327 157.274 164.541 156.807 165.45 155.945C166.358 155.083 166.888 153.895 166.923 152.643V100.11C166.888 98.8577 166.358 97.6704 165.45 96.8081C164.541 95.9459 163.327 95.4791 162.075 95.51H95.565C94.3126 95.4791 93.0991 95.9459 92.1904 96.8081C91.2816 97.6704 90.7518 98.8577 90.717 100.11V152.635C90.7497 153.889 91.2787 155.078 92.1876 155.942C93.0966 156.806 94.3113 157.274 95.565 157.243Z" fill="#407BFF"/>
<g opacity="0.4">
<path opacity="0.4" d="M95.565 157.243H162.075C163.327 157.274 164.541 156.807 165.45 155.945C166.358 155.083 166.888 153.895 166.923 152.643V100.11C166.888 98.8577 166.358 97.6704 165.45 96.8081C164.541 95.9459 163.327 95.4791 162.075 95.51H95.565C94.3126 95.4791 93.0991 95.9459 92.1904 96.8081C91.2816 97.6704 90.7518 98.8577 90.717 100.11V152.635C90.7497 153.889 91.2787 155.078 92.1876 155.942C93.0966 156.806 94.3113 157.274 95.565 157.243Z" fill="white"/>
</g>
<path d="M95.45 98.277C94.9809 98.2649 94.5261 98.4396 94.1858 98.7627C93.8454 99.0858 93.6473 99.5309 93.635 100V152.754C93.641 152.986 93.6927 153.215 93.7871 153.428C93.8816 153.64 94.0169 153.832 94.1855 153.992C94.354 154.152 94.5525 154.277 94.7695 154.36C94.9864 154.443 95.2177 154.483 95.45 154.477H162.19C162.422 154.483 162.654 154.443 162.871 154.36C163.088 154.277 163.286 154.152 163.455 153.992C163.623 153.832 163.758 153.64 163.853 153.428C163.947 153.215 163.999 152.986 164.005 152.754V100C163.999 99.7677 163.947 99.5388 163.853 99.3264C163.758 99.1141 163.623 98.9224 163.455 98.7624C163.286 98.6024 163.088 98.4772 162.871 98.3939C162.654 98.3106 162.422 98.2709 162.19 98.277H95.45Z" fill="#407BFF"/>
<path opacity="0.2" d="M95.45 98.277C94.9809 98.2649 94.5261 98.4396 94.1858 98.7627C93.8454 99.0858 93.6473 99.5309 93.635 100V152.754C93.641 152.986 93.6927 153.215 93.7871 153.428C93.8816 153.64 94.0169 153.832 94.1855 153.992C94.354 154.152 94.5525 154.277 94.7695 154.36C94.9864 154.443 95.2177 154.483 95.45 154.477H162.19C162.422 154.483 162.654 154.443 162.871 154.36C163.088 154.277 163.286 154.152 163.455 153.992C163.623 153.832 163.758 153.64 163.853 153.428C163.947 153.215 163.999 152.986 164.005 152.754V100C163.999 99.7677 163.947 99.5388 163.853 99.3264C163.758 99.1141 163.623 98.9224 163.455 98.7624C163.286 98.6024 163.088 98.4772 162.871 98.3939C162.654 98.3106 162.422 98.2709 162.19 98.277H95.45Z" fill="black"/>
<path d="M112 124.647L93.619 151.514V152.755C93.6249 152.987 93.6766 153.216 93.7711 153.429C93.8655 153.641 94.0009 153.833 94.1694 153.993C94.338 154.153 94.5364 154.278 94.7534 154.361C94.9704 154.444 95.2016 154.484 95.434 154.478H132.38L112 124.647Z" fill="#407BFF"/>
<path d="M164.005 147.241L145.057 115.977L121.72 154.477H162.19C162.422 154.483 162.654 154.443 162.871 154.36C163.088 154.277 163.286 154.152 163.454 153.992C163.623 153.832 163.758 153.64 163.853 153.428C163.947 153.215 163.999 152.986 164.005 152.754V147.241Z" fill="#407BFF"/>
<path opacity="0.2" d="M164.005 147.241L145.057 115.977L121.72 154.477H162.19C162.422 154.483 162.654 154.443 162.871 154.36C163.088 154.277 163.286 154.152 163.454 153.992C163.623 153.832 163.758 153.64 163.853 153.428C163.947 153.215 163.999 152.986 164.005 152.754V147.241Z" fill="white"/>
<path d="M133.568 111.474C133.619 112.424 133.384 113.368 132.893 114.183C132.402 114.998 131.678 115.648 130.815 116.047C129.951 116.446 128.987 116.577 128.048 116.423C127.109 116.269 126.238 115.837 125.547 115.182C124.857 114.527 124.378 113.681 124.174 112.751C123.969 111.822 124.049 110.852 124.401 109.969C124.754 109.085 125.363 108.327 126.151 107.793C126.939 107.259 127.868 106.974 128.82 106.974C129.428 106.954 130.034 107.055 130.603 107.271C131.172 107.488 131.692 107.814 132.133 108.233C132.575 108.651 132.929 109.153 133.175 109.71C133.422 110.266 133.555 110.866 133.568 111.474Z" fill="white"/>
<path d="M118.089 94.011C118.372 93.957 118.679 94.256 118.763 94.692C118.847 95.128 118.702 95.527 118.411 95.581C118.12 95.635 117.829 95.328 117.737 94.892C117.645 94.456 117.806 94.057 118.089 94.011Z" fill="#263238"/>
<path d="M118.656 99.747C119.027 99.7653 119.398 99.7021 119.742 99.5618C120.086 99.4215 120.395 99.2076 120.647 98.935C119.559 97.9729 118.611 96.8643 117.829 95.641L118.656 99.747Z" fill="#932A2A"/>
<path d="M115.845 92.755C116.051 92.4963 116.317 92.2914 116.62 92.158C116.922 92.0246 117.253 91.9666 117.583 91.989H117.667C117.706 91.9957 117.745 91.9939 117.783 91.9838C117.821 91.9736 117.856 91.9553 117.886 91.9301C117.916 91.905 117.94 91.8736 117.956 91.8381C117.973 91.8027 117.981 91.7641 117.981 91.725C117.981 91.6859 117.973 91.6473 117.956 91.6118C117.94 91.5764 117.916 91.545 117.886 91.5198C117.856 91.4947 117.821 91.4764 117.783 91.4662C117.745 91.456 117.706 91.4542 117.667 91.461C117.258 91.418 116.846 91.4734 116.463 91.6227C116.08 91.772 115.739 92.0107 115.467 92.319C115.429 92.3677 115.405 92.4263 115.398 92.488C115.398 92.5577 115.425 92.6247 115.474 92.6747C115.522 92.7247 115.588 92.7539 115.658 92.756C115.718 92.7788 115.785 92.7785 115.845 92.755Z" fill="#263238"/>
<path d="M114.046 107.49C113.28 110.615 113.234 114.498 116.646 115.562C116.646 115.562 120.912 119.131 112.702 119.131C105.242 119.131 104.139 115.056 104.139 115.056C106.95 112.375 106.439 106.815 105.671 102.802L114.046 107.49Z" fill="#B55B52"/>
<path d="M101.125 114.368C101.125 114.368 102.481 110.791 104.311 109.734C106.141 108.677 113.885 110.247 115.079 110.791C116.273 111.335 117.379 114.199 117.379 114.199L101.125 114.368Z" fill="#407BFF"/>
<path d="M101.125 114.368C101.125 114.368 102.481 110.791 104.311 109.734C106.141 108.677 113.885 110.247 115.079 110.791C116.273 111.335 117.379 114.199 117.379 114.199L101.125 114.368Z" fill="#263238"/>
<path d="M112.858 274.914C112.831 274.909 112.806 274.895 112.788 274.874C112.77 274.853 112.759 274.827 112.758 274.799C112.752 274.774 112.753 274.748 112.763 274.725C112.773 274.701 112.79 274.682 112.812 274.669C112.919 274.623 114.842 273.536 115.745 273.781C115.832 273.8 115.914 273.836 115.987 273.887C116.059 273.939 116.12 274.005 116.166 274.081C116.226 274.163 116.258 274.263 116.258 274.365C116.258 274.466 116.226 274.566 116.166 274.648C115.936 274.97 115.285 275.07 114.55 275.07C113.983 275.064 113.417 275.012 112.858 274.914ZM115.424 273.987C114.668 274.077 113.936 274.315 113.272 274.687C114.291 274.825 115.672 274.817 115.93 274.465C115.991 274.411 116.022 274.343 115.93 274.181C115.905 274.133 115.87 274.091 115.826 274.059C115.782 274.027 115.731 274.006 115.677 273.997C115.593 273.982 115.508 273.982 115.424 273.997V273.987Z" fill="#407BFF"/>
<path d="M112.805 274.883C112.773 274.853 112.754 274.812 112.751 274.768C112.789 273.984 113.091 273.236 113.609 272.646C113.713 272.555 113.835 272.488 113.967 272.45C114.1 272.412 114.239 272.403 114.375 272.424C114.727 272.462 114.857 272.646 114.857 272.791C114.957 273.427 113.647 274.591 112.981 274.897H112.927C112.907 274.905 112.886 274.908 112.864 274.905C112.843 274.903 112.823 274.895 112.805 274.883ZM114.253 272.677C114.082 272.677 113.918 272.743 113.794 272.861C113.372 273.337 113.104 273.93 113.028 274.561C113.71 274.147 114.56 273.213 114.56 272.845C114.56 272.845 114.56 272.692 114.307 272.692H114.23L114.253 272.677Z" fill="#407BFF"/>
<path d="M107.406 262.055H112.898L112.346 274.761H106.862L107.406 262.055Z" fill="#B55B52"/>
<path d="M113.64 274.562C117.347 276.862 118.496 276.951 122.793 277.894C123.727 278.094 123.107 280.375 120.855 280.375C117.125 280.375 116.742 280.199 113.564 280.199C110.845 280.199 107.72 280.329 105.553 280.359C105.487 280.367 105.419 280.367 105.353 280.359C105.251 280.338 105.154 280.295 105.069 280.235C104.984 280.175 104.912 280.098 104.857 280.009C104.803 279.92 104.767 279.821 104.752 279.718C104.737 279.615 104.744 279.51 104.771 279.409L105.843 274.53C105.867 274.422 105.928 274.327 106.014 274.258C106.101 274.19 106.208 274.153 106.318 274.154H112.318C112.788 274.166 113.245 274.307 113.64 274.562Z" fill="#263238"/>
<path d="M120.308 114.284C114.851 113.879 109.377 113.754 103.908 113.908C102.473 114.005 101.049 114.145 99.634 114.329C98.923 114.414 98.2367 114.642 97.6163 115C96.996 115.357 96.4545 115.837 96.0246 116.409C95.5947 116.982 95.2853 117.636 95.115 118.331C94.9448 119.027 94.9172 119.75 95.034 120.456C98.289 139.971 96.134 159.11 95.677 162.956L125.026 162.795C128.09 138.647 127.798 126.354 126.619 120.441C126.312 118.897 125.545 117.483 124.419 116.384C123.292 115.284 121.859 114.552 120.308 114.284Z" fill="#263238"/>
<path opacity="0.2" d="M107.398 262.062L107.122 268.61H112.613L112.896 262.062H107.398Z" fill="black"/>
<path d="M102.933 93.521C103.306 91.5838 104.432 89.8737 106.065 88.7665C107.698 87.6593 109.703 87.2455 111.641 87.616C117.293 88.681 119.621 96.447 119.453 101.471C119.292 107.047 113.173 110.823 108.286 107.537C105.046 105.337 104.457 102.176 103.078 96.93C102.766 95.8207 102.716 94.6539 102.932 93.522L102.933 93.521Z" fill="#B55B52"/>
<path d="M95.703 162.795C95.703 162.795 91.062 173.709 86.703 192.052C81.028 215.963 67.349 264.812 67.349 264.812L77.03 266.933C77.03 266.933 96.997 210.066 102.243 192.925C105.556 182.557 109.705 172.476 114.65 162.78L95.703 162.795Z" fill="#407BFF"/>
<path opacity="0.3" d="M108.371 175.739C99.732 199.221 97.909 206.268 97.771 206.727C98.82 192.436 103.132 176.482 108.371 175.739C108.739 175.678 108.019 175.625 108.371 175.739Z" fill="black"/>
<path d="M105.721 162.795C105.721 162.795 106.066 175.67 105.652 194.319C105.284 211.419 105.652 267.339 105.652 267.339H114.992C114.992 267.339 122.138 210.295 124.03 192.902C125.129 182.906 125.478 172.843 125.072 162.795H105.721Z" fill="#407BFF"/>
<path d="M104.311 264.054L104.617 267.493H115.929C115.929 267.493 116.496 263.664 116.45 263.664L104.311 264.054Z" fill="#407BFF"/>
<path d="M67.083 274.845C67.0771 274.87 67.0638 274.893 67.0448 274.911C67.0257 274.929 67.0018 274.941 66.976 274.945C66.9506 274.951 66.924 274.948 66.9004 274.937C66.8768 274.926 66.8577 274.907 66.846 274.884C66.792 274.784 65.713 272.854 65.973 271.951C66.0162 271.78 66.1236 271.631 66.273 271.537C66.3571 271.478 66.4573 271.446 66.56 271.446C66.6627 271.446 66.7629 271.478 66.847 271.537C67.161 271.775 67.253 272.425 67.253 273.161C67.2422 273.726 67.1853 274.289 67.083 274.845ZM66.183 272.279C66.2653 273.032 66.4914 273.763 66.849 274.431C67.002 273.412 67.002 272.026 66.649 271.773C66.603 271.712 66.526 271.681 66.366 271.773C66.3176 271.797 66.2757 271.833 66.2437 271.877C66.2117 271.921 66.1906 271.971 66.182 272.025C66.167 272.109 66.1673 272.195 66.183 272.279Z" fill="#407BFF"/>
<path d="M67.074 274.9C67.0594 274.918 67.0403 274.932 67.0187 274.94C66.9971 274.948 66.9737 274.95 66.951 274.946C66.1715 274.903 65.4293 274.599 64.845 274.081C64.76 273.982 64.6969 273.865 64.6601 273.74C64.6232 273.614 64.6133 273.483 64.631 273.353C64.631 273.001 64.845 272.871 64.999 272.871C65.619 272.779 66.791 274.097 67.09 274.763V274.809C67.0959 274.84 67.0902 274.873 67.074 274.9ZM64.861 273.46C64.8715 273.627 64.9361 273.785 65.045 273.912C65.5164 274.336 66.1079 274.604 66.738 274.678C66.332 273.996 65.405 273.1 65.03 273.146C65.03 273.146 64.884 273.146 64.884 273.391V273.475L64.861 273.46Z" fill="#407BFF"/>
<path d="M69.479 264.306L74.825 264.712L72.357 275.228L66.996 274.845L69.479 264.306Z" fill="#B55B52"/>
<path opacity="0.2" d="M69.54 264.015L68.46 268.641L73.814 269.024L74.902 264.383L69.54 264.015Z" fill="black"/>
<path d="M65.711 274.139C64.263 275.847 63.498 276.728 59.3 278.053C58.381 278.336 59.208 280.553 61.452 280.353C65.167 280.024 63.114 280.031 66.277 279.753C68.988 279.508 72.113 279.363 74.265 279.209C74.338 279.208 74.4103 279.195 74.479 279.17C74.5813 279.142 74.6768 279.094 74.7594 279.028C74.842 278.961 74.91 278.878 74.9589 278.784C75.0079 278.69 75.0368 278.587 75.0439 278.481C75.051 278.376 75.036 278.27 75 278.17L73.468 273.399C73.435 273.295 73.3674 273.206 73.2763 273.146C73.1853 273.086 73.0764 273.059 72.968 273.07L66.994 273.598C66.5124 273.605 66.0525 273.799 65.711 274.139Z" fill="#263238"/>
<path d="M66.193 263.027L66.139 266.489L77.781 267.738C77.781 267.738 78.781 263.962 78.738 263.962L66.193 263.027Z" fill="#407BFF"/>
<path d="M146.619 155.666L149.744 153.138C151.154 153.844 152.49 154.688 153.734 155.658C155.465 156.952 156.734 155.658 158.145 157.665C158.796 158.584 154.385 160.292 153.545 160.629C150.471 161.785 146.619 155.666 146.619 155.666Z" fill="#B55B52"/>
<path d="M149.752 153.13L149.66 153.299C149.348 153.888 148.913 154.404 148.384 154.811C147.855 155.218 147.246 155.507 146.596 155.658L137.405 150.297C135.322 148.941 131.04 146.115 130.443 144.859C128.375 142.868 118.809 133.24 116.657 123.414C116.31 121.925 116.46 120.362 117.085 118.966C117.711 117.571 118.776 116.418 120.119 115.686C122.202 114.644 124.132 115.157 125.61 117.379C127.961 123.759 135.467 139.59 135.467 139.59L149.752 153.13Z" fill="#263238"/>
<path d="M87.623 113.857C87.409 113.735 87.738 106.489 87.738 106.489L91.958 110.464L90.824 114.202C90.824 114.202 90.518 115.471 87.623 113.857Z" fill="#B55B52"/>
<path d="M87.738 106.487L89.561 104.557C89.723 104.38 89.9242 104.244 90.1484 104.159C90.3726 104.074 90.6137 104.043 90.8521 104.069C91.0905 104.094 91.3196 104.175 91.5211 104.305C91.7226 104.435 91.8907 104.61 92.012 104.817L93.222 106.817C93.3742 107.06 93.4549 107.342 93.4549 107.629C93.4549 107.916 93.3742 108.197 93.222 108.441L91.935 110.463C91.935 110.463 88.228 109.482 87.738 106.487Z" fill="#B55B52"/>
<path d="M92.923 136.465C92.5535 137.256 92.0596 137.983 91.46 138.617C90.9921 139.044 90.4565 139.391 89.875 139.643C89.5746 139.76 89.2644 139.85 88.948 139.911C88.4359 139.972 87.9176 139.867 87.47 139.611C86.7604 139.229 86.1826 138.641 85.8122 137.925C85.4419 137.209 85.2961 136.398 85.394 135.598C85.694 132.798 86.229 126.714 86.635 115.233C86.6306 115.044 86.6645 114.857 86.7344 114.682C86.8044 114.506 86.9091 114.347 87.0422 114.213C87.1753 114.08 87.3341 113.974 87.509 113.903C87.6839 113.832 87.8713 113.798 88.06 113.801L90.794 113.908C91.2003 113.908 91.59 114.069 91.8773 114.357C92.1646 114.644 92.326 115.034 92.326 115.44L92.433 118.848L92.923 136.465Z" fill="#263238"/>
<path d="M85.9 134.573L92.356 118.842L92.816 117.731C93.2161 116.781 93.8871 115.971 94.7452 115.4C95.6033 114.829 96.6105 114.524 97.641 114.522L101.072 114.614C101.072 114.614 96.239 130.307 92.923 136.465C92.5535 137.256 92.0596 137.982 91.46 138.617C90.9921 139.044 90.4565 139.391 89.875 139.643C89.5747 139.76 89.2644 139.85 88.948 139.911C88.4434 139.977 87.9308 139.88 87.485 139.635C86.8441 139.283 86.3296 138.739 86.0136 138.08C85.6976 137.421 85.5959 136.679 85.723 135.959L85.9 134.573Z" fill="#263238"/>
<path d="M103.239 96.83C101.774 96.6328 100.441 95.8809 99.5151 94.7294C98.5888 93.5779 98.1399 92.1148 98.261 90.642C100.017 88.3623 102.353 86.5956 105.024 85.526C107.948 84.4977 111.101 84.3014 114.13 84.959C114.851 86.1179 115.381 87.385 115.7 88.712C115.903 89.3504 115.959 90.0266 115.864 90.6897C115.769 91.3529 115.524 91.9858 115.149 92.541C112.545 95.972 107.507 97.404 103.239 96.83Z" fill="#263238"/>
<path d="M100.658 96.951L106.019 105.551L111.962 105.62L114.662 98.92L115.382 92.44C115.382 92.44 101.175 96.94 99.536 94.74C97.897 92.54 100.658 96.951 100.658 96.951Z" fill="#263238"/>
<g opacity="0.5">
<path opacity="0.5" d="M100.658 96.951L106.019 105.551L111.962 105.62L114.662 98.92L115.382 92.44C115.382 92.44 101.175 96.94 99.536 94.74C97.897 92.54 100.658 96.951 100.658 96.951Z" fill="white"/>
</g>
<path d="M114.912 94.6C116.444 95.075 117.271 97.4 117.324 98.866C117.378 100.482 116.282 101.493 114.889 100.398C113.833 99.5508 113.085 98.3801 112.76 97.066C112.393 95.474 113.38 94.126 114.912 94.6Z" fill="#B55B52"/>
<path opacity="0.2" d="M274.056 97.672H192.51C190.489 97.672 188.85 99.3106 188.85 101.332V157.129C188.85 159.15 190.489 160.789 192.51 160.789H274.056C276.077 160.789 277.716 159.15 277.716 157.129V101.332C277.716 99.3106 276.077 97.672 274.056 97.672Z" fill="black"/>
<path d="M277.25 93.245H195.704C193.683 93.245 192.044 94.8836 192.044 96.905V152.702C192.044 154.723 193.683 156.362 195.704 156.362H277.25C279.271 156.362 280.91 154.723 280.91 152.702V96.905C280.91 94.8836 279.271 93.245 277.25 93.245Z" fill="#407BFF"/>
<path opacity="0.4" d="M277.25 93.245H195.704C193.683 93.245 192.044 94.8836 192.044 96.905V152.702C192.044 154.723 193.683 156.362 195.704 156.362H277.25C279.271 156.362 280.91 154.723 280.91 152.702V96.905C280.91 94.8836 279.271 93.245 277.25 93.245Z" fill="white"/>
<path d="M277.886 95.359H195.068C194.565 95.359 194.158 95.7664 194.158 96.269V153.346C194.158 153.849 194.565 154.256 195.068 154.256H277.886C278.389 154.256 278.796 153.849 278.796 153.346V96.269C278.796 95.7664 278.389 95.359 277.886 95.359Z" fill="#407BFF"/>
<path opacity="0.2" d="M277.886 95.359H195.068C194.565 95.359 194.158 95.7664 194.158 96.269V153.346C194.158 153.849 194.565 154.256 195.068 154.256H277.886C278.389 154.256 278.796 153.849 278.796 153.346V96.269C278.796 95.7664 278.389 95.359 277.886 95.359Z" fill="black"/>
<path d="M247.41 124.8C247.412 126.956 246.774 129.064 245.577 130.858C244.381 132.652 242.679 134.05 240.688 134.877C238.696 135.703 236.504 135.92 234.389 135.501C232.274 135.081 230.331 134.044 228.806 132.52C227.28 130.996 226.241 129.053 225.82 126.939C225.399 124.824 225.614 122.632 226.439 120.64C227.264 118.648 228.661 116.945 230.453 115.747C232.246 114.549 234.354 113.909 236.51 113.909C239.399 113.909 242.17 115.056 244.214 117.098C246.258 119.141 247.408 121.911 247.41 124.8Z" fill="#407BFF"/>
<path opacity="0.9" d="M242.179 124.8L233.593 130.36V119.247L242.179 124.8Z" fill="white"/>
<path opacity="0.8" d="M268.058 145.157H198.286V145.747H268.058V145.157Z" fill="white"/>
<path d="M225.047 145.448C225.047 145.651 224.966 145.846 224.823 145.99C224.679 146.133 224.484 146.214 224.281 146.214H197.673C197.47 146.214 197.275 146.133 197.131 145.99C196.988 145.846 196.907 145.651 196.907 145.448C196.907 145.245 196.988 145.05 197.131 144.906C197.275 144.763 197.47 144.682 197.673 144.682H224.257C224.358 144.682 224.457 144.702 224.55 144.74C224.643 144.779 224.728 144.835 224.799 144.906C224.87 144.977 224.926 145.062 224.965 145.155C225.003 145.248 225.023 145.347 225.023 145.448H225.047Z" fill="#407BFF"/>
<g opacity="0.8">
<path opacity="0.8" d="M274.415 143.72H275.315V144.494H276.073V143.25H274.415V143.72Z" fill="white"/>
<path opacity="0.8" d="M269.79 144.499V143.72H270.69V143.245H269.031V144.494L269.79 144.499Z" fill="white"/>
<path opacity="0.8" d="M270.686 147.179H269.786V146.405H269.028V147.646H270.683L270.686 147.179Z" fill="white"/>
<path opacity="0.8" d="M275.311 146.405V147.179H274.411V147.646H276.065V146.405H275.311Z" fill="white"/>
</g>
<g opacity="0.8">
<path opacity="0.9" d="M234.811 151.705L237.377 150.051L234.811 148.389V151.705Z" fill="white"/>
<path opacity="0.9" d="M237.377 148.565V151.529H238.066V148.565H237.377Z" fill="white"/>
</g>
<g opacity="0.8">
<path opacity="0.9" d="M241.612 148.565H240.716V151.529H241.612V148.565Z" fill="white"/>
<path opacity="0.9" d="M243.205 148.565H242.309V151.529H243.205V148.565Z" fill="white"/>
</g>
<path opacity="0.8" d="M232.311 150.049L229.745 151.703V148.389L232.311 150.049Z" fill="white"/>
<path d="M291.464 124.378L296.664 137.398C296.767 137.582 296.827 137.787 296.841 137.998C296.855 138.209 296.822 138.42 296.745 138.617C296.667 138.813 296.546 138.99 296.392 139.134C296.238 139.278 296.053 139.386 295.852 139.45L280.978 146.703L283.378 149.766C283.378 149.766 298.451 145.6 301.561 141.847C303.813 139.128 297.479 122.278 297.479 122.278L291.464 124.378Z" fill="#B55B52"/>
<path d="M280.981 146.72L280.016 146.781C279.113 146.838 278.232 147.078 277.425 147.486C276.618 147.894 275.902 148.462 275.321 149.155L274.333 150.335C274.23 150.42 274.148 150.528 274.091 150.648C274.034 150.769 274.005 150.901 274.005 151.035C274.005 151.169 274.034 151.301 274.091 151.422C274.148 151.542 274.23 151.65 274.333 151.735C274.933 152.241 274.754 152.394 275.198 152.761C275.443 152.968 275.527 152.815 275.834 152.707L279.342 152.225C280.806 151.629 282.168 150.807 283.378 149.789L280.981 146.72Z" fill="#B55B52"/>
<path d="M287.391 122.625C289.692 125.147 291.801 127.838 293.701 130.675L300.15 128.232L298.833 121.339C298.527 119.225 296.428 116.208 294.705 115.595C289.824 113.871 287.236 119.224 287.391 122.625Z" fill="#407BFF"/>
<path d="M263.302 99.648C263.587 99.5008 263.904 99.424 264.225 99.424C264.546 99.424 264.863 99.5008 265.148 99.648L265.217 99.694C265.281 99.7201 265.353 99.7202 265.417 99.6945C265.482 99.6688 265.534 99.6191 265.562 99.556C265.588 99.493 265.588 99.4223 265.562 99.3593C265.536 99.2963 265.487 99.2459 265.424 99.219C265.075 99.023 264.684 98.9139 264.283 98.9006C263.883 98.8874 263.485 98.9705 263.124 99.143C263.067 99.1666 263.021 99.2099 262.994 99.265C262.966 99.328 262.963 99.3997 262.988 99.4644C263.012 99.5291 263.061 99.5814 263.124 99.61C263.177 99.6444 263.24 99.658 263.302 99.648Z" fill="#263238"/>
<path d="M263.968 101.402C263.745 102.553 263.401 103.678 262.942 104.757C263.114 104.927 263.33 105.045 263.565 105.099C263.8 105.153 264.046 105.141 264.275 105.063L263.968 101.402Z" fill="#932A2A"/>
<path d="M279.47 105.645C279.409 109.474 279.922 116.49 282.993 118.512C282.993 118.512 282.649 122.494 275.702 123.75C268.043 125.129 271.375 120.618 271.375 120.618C275.365 118.864 274.699 115.793 273.436 113.018L279.47 105.645Z" fill="#B55B52"/>
<path d="M263.578 100.153C263.241 100.153 263.004 100.62 263.049 101.133C263.094 101.646 263.401 102.044 263.738 102.022C264.075 102 264.312 101.555 264.266 101.034C264.22 100.513 263.915 100.123 263.578 100.153Z" fill="#263238"/>
<path d="M263.209 100.666C263.091 100.645 262.98 100.593 262.889 100.515C262.797 100.437 262.728 100.336 262.689 100.222C262.916 100.306 263.16 100.335 263.401 100.306C263.3 100.402 263.232 100.528 263.209 100.666Z" fill="#263238"/>
<path d="M281.673 97.235C281.819 103.592 282.01 106.28 279.092 109.788C274.692 115.073 266.838 113.863 264.831 107.712C263.001 102.144 262.373 93.964 268.369 90.931C272.627 88.748 278.532 89.162 280.715 93.412C281.324 94.5957 281.652 95.9039 281.673 97.235Z" fill="#B55B52"/>
<path d="M289.143 112.393C288.492 110.287 289.643 108.272 289.564 106.151C289.53 105.053 289.277 103.973 288.821 102.973C288.364 101.974 287.713 101.075 286.906 100.33C285.726 99.23 284.325 98.538 283.528 97.067C282.892 95.895 282.395 94.654 281.774 93.467C281.195 92.2018 280.276 91.1218 279.12 90.3471C277.964 89.5723 276.617 89.133 275.226 89.078C266.747 88.802 264.726 91.988 264.557 95.389C264.604 97.2695 265.174 99.0997 266.204 100.674C267.866 103.033 267.33 107.46 266.012 110.002C265.829 110.699 265.834 111.432 266.027 112.127C266.221 112.821 266.595 113.452 267.112 113.954C268.889 115.57 275.674 111.113 281.748 111.243C287.822 111.373 289.143 112.393 289.143 112.393Z" fill="#263238"/>
<path d="M268.64 101.946C268.74 103.147 268.493 104.351 267.928 105.416C267.162 106.787 266.12 106.388 265.753 105.01C265.416 103.8 265.416 101.617 266.442 100.675C267.468 99.733 268.502 100.452 268.64 101.946Z" fill="#B55B52"/>
<path d="M260.652 94.08C260.502 94.6496 260.57 95.2547 260.844 95.7763C261.117 96.298 261.576 96.6985 262.13 96.899C262.223 97.4342 262.428 97.9438 262.73 98.3949C263.033 98.8459 263.427 99.2282 263.887 99.517C264.347 99.8059 264.863 99.9947 265.401 100.071C265.939 100.148 266.487 100.111 267.009 99.962C265.967 99.671 265.684 98.254 266.059 97.235C266.748 95.366 269.475 93.092 266.879 91.522C264.895 90.342 261.196 91.889 260.652 94.08Z" fill="#263238"/>
<path d="M263.623 127.22C265.109 132.88 267.123 142.836 268.984 159.548L290.513 157.005C289.313 147.416 291.172 140.205 293.921 122.54C294.036 121.813 294.004 121.071 293.828 120.356C293.652 119.642 293.335 118.97 292.895 118.38C292.456 117.79 291.903 117.294 291.269 116.92C290.635 116.547 289.932 116.304 289.203 116.206C287.705 116.007 286.194 115.925 284.684 115.961C280.744 115.999 276.812 116.329 272.92 116.949C271.545 117.202 270.185 117.532 268.846 117.937C266.941 118.504 265.331 119.79 264.357 121.522C263.382 123.254 263.119 125.297 263.623 127.22Z" fill="#407BFF"/>
<path opacity="0.2" d="M270.248 126.117L266.556 141.695L263.332 126.117C264.259 126.071 270.248 126.117 270.248 126.117Z" fill="black"/>
<path d="M261.8 122.356L268.762 123.582C268.762 123.582 265.614 137.812 262.696 143.143C259.924 148.221 243.488 155.558 243.488 155.558L242.653 152.625L255.482 142.106C256.738 141.073 257.622 139.658 258.002 138.077L261.8 122.356Z" fill="#B55B52"/>
<path d="M242.654 152.624L244.954 154.248L240.642 158.077C239.225 159.463 235.985 159.264 233.849 159.402C233.574 159.432 233.299 159.353 233.083 159.18L232.248 158.537C231.528 157.97 231.348 156.507 232.248 156.331L237.333 155.764C239.029 154.591 240.807 153.541 242.654 152.624Z" fill="#B55B52"/>
<path d="M259.663 123.727C259.012 128.207 258.706 132.535 258.706 132.535L266.365 134.235C266.365 134.235 272.048 125.619 270.195 122.241C268.77 119.3 265.408 117.493 262.329 119.422C261.6 119.904 260.984 120.539 260.524 121.282C260.064 122.025 259.77 122.859 259.663 123.727Z" fill="#407BFF"/>
<path d="M331.665 190.475L333.549 195.775L321.961 201.975L319.004 196.69L331.665 190.475Z" fill="#B55B52"/>
<path d="M331.052 196.701L328.126 192.573C328.063 192.485 328.033 192.376 328.043 192.268C328.053 192.16 328.102 192.058 328.18 191.983L332.998 186.737C333.182 186.58 333.419 186.502 333.66 186.52C333.9 186.537 334.125 186.648 334.284 186.829C334.307 186.855 334.327 186.883 334.345 186.913C335.601 188.721 336.114 189.655 337.745 191.913C338.745 193.292 342.433 197.068 343.421 199.213C344.409 201.358 342.333 202.445 341.728 201.641C340.625 200.333 339.254 199.277 337.707 198.546C336.16 197.815 334.474 197.426 332.763 197.405C332.153 197.282 331.572 197.043 331.052 196.701Z" fill="#263238"/>
<path opacity="0.2" d="M315.421 198.348L318.485 203.924L325.93 199.849L323.486 194.488L315.421 198.348Z" fill="black"/>
<path d="M257.658 199.145C262.33 200.952 267.615 199.827 272.394 198.379C279.999 196.028 287.773 193.479 294.184 188.805C298.573 185.605 299.875 181.912 298.963 180.38C293.337 179.462 287.634 179.101 281.937 179.3C276.315 179.6 270.617 181.1 266.16 184.485C261.703 187.87 258.26 198.271 258.46 197.942L257.658 199.145Z" fill="#407BFF"/>
<g opacity="0.2">
<path opacity="0.2" d="M257.657 199.144C262.329 200.951 267.614 199.826 272.393 198.378C279.998 196.027 287.772 193.478 294.183 188.804C298.572 185.604 299.874 181.911 298.962 180.379C293.336 179.461 287.633 179.1 281.936 179.299C276.314 179.599 270.616 181.099 266.159 184.484C261.702 187.869 258.259 198.27 258.459 197.941L257.657 199.144Z" fill="black"/>
</g>
<path d="M273.519 157.488C273.519 157.488 269.245 218.088 289.258 223.171C301.788 226.15 324.282 203.044 324.282 203.044L320.79 195.553C320.79 195.553 301.206 203.365 297.484 201.542C288.477 183.766 300.05 168.142 290.262 156.071L273.519 157.488Z" fill="#263238"/>
<path d="M332.653 197.115C332.636 197.096 332.614 197.082 332.59 197.075C332.565 197.069 332.539 197.069 332.515 197.077C332.489 197.084 332.467 197.098 332.45 197.119C332.433 197.14 332.424 197.165 332.423 197.192C332.423 197.399 332.239 199.452 332.814 199.88C332.878 199.929 332.953 199.96 333.032 199.97C333.111 199.981 333.192 199.971 333.266 199.941C333.391 199.904 333.504 199.836 333.595 199.744C333.686 199.651 333.752 199.537 333.787 199.412V199.343C333.894 198.693 333.132 197.682 332.653 197.115ZM332.653 197.559C333.304 198.325 333.603 198.999 333.518 199.343C333.493 199.425 333.448 199.5 333.386 199.56C333.325 199.62 333.249 199.664 333.166 199.687C333.135 199.706 333.099 199.716 333.063 199.716C333.026 199.716 332.99 199.706 332.959 199.687C332.645 199.458 332.607 198.37 332.653 197.55V197.559Z" fill="#407BFF"/>
<path d="M332.699 197.215C332.699 197.192 332.694 197.17 332.683 197.15C332.672 197.13 332.657 197.113 332.638 197.1C332.619 197.087 332.596 197.08 332.573 197.08C332.55 197.08 332.527 197.087 332.508 197.1C332.447 197.1 331.022 197.866 330.831 198.693C330.801 198.791 330.793 198.895 330.807 198.997C330.822 199.099 330.859 199.197 330.915 199.283C330.968 199.376 331.05 199.448 331.148 199.488C331.247 199.528 331.356 199.534 331.458 199.505C332.01 199.321 332.546 198.111 332.658 197.422C332.679 197.355 332.692 197.285 332.699 197.215ZM331.06 198.808C331.063 198.795 331.063 198.782 331.06 198.77C331.175 198.28 331.918 197.751 332.378 197.47C332.248 198.144 331.742 199.14 331.367 199.255C331.32 199.258 331.273 199.249 331.231 199.227C331.189 199.205 331.154 199.172 331.13 199.132C331.095 199.087 331.071 199.035 331.057 198.979C331.044 198.924 331.043 198.866 331.053 198.81L331.06 198.808Z" fill="#407BFF"/>
<path d="M289.488 272.792L283.974 273.811L281.125 261.067L286.639 260.049L289.488 272.792Z" fill="#B55B52"/>
<path d="M281.829 274.86C281.855 274.85 281.878 274.834 281.896 274.812C281.914 274.791 281.925 274.765 281.929 274.737C281.926 274.709 281.916 274.683 281.9 274.66C281.884 274.637 281.862 274.619 281.837 274.607C281.576 274.507 279.21 273.627 278.574 274.086C278.514 274.128 278.466 274.184 278.434 274.25C278.402 274.315 278.387 274.388 278.391 274.461C278.39 274.581 278.417 274.7 278.47 274.808C278.523 274.915 278.601 275.009 278.697 275.081C279.13 275.298 279.623 275.362 280.097 275.265C280.685 275.179 281.264 275.043 281.829 274.86ZM278.972 274.224C279.799 274.254 280.615 274.424 281.385 274.729C280.591 275.072 279.7 275.121 278.873 274.867C278.809 274.819 278.757 274.756 278.723 274.684C278.688 274.612 278.671 274.533 278.673 274.453C278.67 274.423 278.675 274.394 278.687 274.367C278.699 274.34 278.718 274.316 278.742 274.299C278.817 274.256 278.901 274.23 278.987 274.223L278.972 274.224Z" fill="#407BFF"/>
<path d="M281.88 274.819C281.891 274.798 281.897 274.774 281.897 274.75C281.897 274.726 281.891 274.702 281.88 274.681C281.742 273.9 281.361 273.182 280.792 272.629C280.68 272.555 280.554 272.506 280.422 272.485C280.29 272.464 280.155 272.471 280.026 272.506C279.659 272.59 279.597 272.79 279.574 272.935C279.536 273.586 280.991 274.635 281.696 274.858H281.742C281.766 274.866 281.792 274.866 281.817 274.859C281.841 274.852 281.863 274.838 281.88 274.819ZM280.195 272.751C280.363 272.717 280.538 272.747 280.685 272.835C281.153 273.271 281.468 273.845 281.585 274.474C280.819 274.16 279.854 273.317 279.877 272.942C279.877 272.942 279.877 272.812 280.122 272.758H280.199L280.195 272.751Z" fill="#407BFF"/>
<path d="M284.066 271.544L289.113 271.33C289.222 271.321 289.33 271.352 289.417 271.419C289.503 271.486 289.561 271.582 289.58 271.69L291.38 278.583C291.413 278.821 291.351 279.063 291.208 279.256C291.065 279.45 290.852 279.579 290.614 279.617H290.507C288.307 279.686 287.244 279.617 284.464 279.755C282.764 279.839 277.571 280.904 275.273 280.567C272.975 280.23 273.144 277.902 274.147 277.833C275.844 277.611 277.473 277.028 278.926 276.125C280.379 275.221 281.622 274.017 282.572 272.594C282.802 272.363 283.714 271.551 284.066 271.544Z" fill="#263238"/>
<path opacity="0.2" d="M281.124 261.067L282.594 267.638L288.109 266.627L286.646 260.056L281.124 261.067Z" fill="black"/>
<path opacity="0.2" d="M287.174 169.351L277.623 179.675L281.858 207.737L287.174 169.351Z" fill="black"/>
<path d="M268.273 158.215C268.273 158.215 262.529 173.158 262.023 187.204C261.165 211.184 267.668 232.69 269.966 240.326C274.666 255.912 279.532 263.777 279.532 263.777L288.669 262.69C288.669 262.69 276.851 194.625 282.542 186.599C294.475 169.799 284.158 156.576 284.158 156.576L268.273 158.215Z" fill="#263238"/>
<path d="M289.572 143.047C297.997 154.635 297.997 170.726 299.237 180.947C297.705 183.147 288.017 185.741 285.328 185.657C279.996 185.535 274.711 186.69 269.915 189.024C265.119 191.358 260.951 194.804 257.756 199.075C255.348 190.82 266.948 146.947 266.948 146.947C269.575 146.161 287.933 140.815 289.572 143.047Z" fill="#407BFF"/>
<path d="M284.525 121.645L275.748 122.625C275.237 122.672 274.725 122.547 274.293 122.269C273.862 121.991 273.535 121.577 273.366 121.093C273.11 120.553 272.777 120.052 272.378 119.607C271.67 118.676 270.706 117.971 269.605 117.577C272.21 116.645 274.902 115.973 277.639 115.57C281.739 115.149 283.253 115.97 283.253 115.97C285.313 116.544 286.053 117.356 286.462 118.85C286.545 119.163 286.56 119.49 286.504 119.809C286.448 120.128 286.324 120.431 286.14 120.698C285.956 120.964 285.716 121.187 285.437 121.351C285.158 121.516 284.846 121.618 284.524 121.65L284.525 121.645Z" fill="#B55B52"/>
<path d="M192.066 256.218C192.066 256.218 199.472 249.233 199.35 244.646C199.228 240.059 194.75 250.811 194.617 248.552C194.484 246.293 199.733 239.798 199.978 235.364C200.223 230.93 194.617 243.322 194.364 241.238C194.111 239.154 199.442 229.938 199.396 226.686C199.35 223.434 194.696 234.858 194.035 232.813C193.374 230.768 197.91 223.27 196.746 217.641C195.582 212.012 193.108 226.786 192.733 224.909C192.358 223.032 195.498 213.421 193.277 209.591C191.056 205.761 191.677 219.999 190.918 218.345C190.159 216.691 189.7 208.511 186.866 205.723C184.032 202.935 187.632 213.964 186.744 214.515C185.856 215.066 181.835 206.856 180.744 208.426C179.653 209.996 186.48 218.796 186.549 220.902C186.618 223.008 181.035 217.386 180.537 219.669C180.039 221.952 188.303 225.543 188.724 227.726C189.145 229.909 181.831 226.003 181.877 228.254C181.923 230.505 188.824 231.708 189.237 234.266C189.65 236.824 182.467 232.42 182.857 235.415C183.247 238.41 188.088 237.827 188.639 240.776C189.19 243.725 183.645 240.363 183.86 243.176C184.075 245.989 189.604 246.301 190.186 248.445C190.768 250.589 184.894 247.445 185.062 249.716C185.23 251.987 190.909 252.32 192.066 256.218Z" fill="#407BFF"/>
<path d="M191.454 266.151C192.431 260.981 192.944 255.734 192.986 250.473C193.39 239.006 191.706 227.561 188.015 216.697C187.739 215.931 186.483 216.192 186.736 216.988C190.392 227.744 192.066 239.074 191.676 250.427C191.621 255.568 191.109 260.695 190.144 265.745C189.975 266.564 191.224 266.963 191.4 266.136L191.454 266.151Z" fill="#407BFF"/>
<path d="M194.235 258.577C194.235 258.577 189.081 248.72 190.727 242.041C192.373 235.362 193.576 250.91 194.342 247.188C195.108 243.466 191.929 236.236 194.886 230.867C197.843 225.498 195.108 240.946 197.076 237.553C199.044 234.16 196.754 225.506 199.488 222.235C202.222 218.964 200.361 229.35 201.678 227.711C202.995 226.072 202.666 218.398 204.742 216.644C206.818 214.89 204.964 223.981 206.059 222.235C207.154 220.489 209.674 212.485 213.182 211.512C216.69 210.539 210.882 216.444 213.182 215.893C215.482 215.342 220.734 214.139 221.182 216.552C221.63 218.965 210.115 221.561 208.805 224.487C207.495 227.413 214.059 222.187 215.261 224.38C216.463 226.573 205.19 229.634 204.309 232.92C203.428 236.206 213.622 230.186 213.4 233.579C213.178 236.972 201.682 237.631 201.146 240.587C200.61 243.543 210.559 237.301 210.229 240.258C209.899 243.215 199.935 245.52 199.277 248.683C198.619 251.846 206.622 245.727 206.836 248.246C207.05 250.765 194.235 258.577 194.235 258.577Z" fill="#407BFF"/>
<path opacity="0.2" d="M194.235 258.577C194.235 258.577 189.081 248.72 190.727 242.041C192.373 235.362 193.576 250.91 194.342 247.188C195.108 243.466 191.929 236.236 194.886 230.867C197.843 225.498 195.108 240.946 197.076 237.553C199.044 234.16 196.754 225.506 199.488 222.235C202.222 218.964 200.361 229.35 201.678 227.711C202.995 226.072 202.666 218.398 204.742 216.644C206.818 214.89 204.964 223.981 206.059 222.235C207.154 220.489 209.674 212.485 213.182 211.512C216.69 210.539 210.882 216.444 213.182 215.893C215.482 215.342 220.734 214.139 221.182 216.552C221.63 218.965 210.115 221.561 208.805 224.487C207.495 227.413 214.059 222.187 215.261 224.38C216.463 226.573 205.19 229.634 204.309 232.92C203.428 236.206 213.622 230.186 213.4 233.579C213.178 236.972 201.682 237.631 201.146 240.587C200.61 243.543 210.559 237.301 210.229 240.258C209.899 243.215 199.935 245.52 199.277 248.683C198.619 251.846 206.622 245.727 206.836 248.246C207.05 250.765 194.235 258.577 194.235 258.577Z" fill="white"/>
<path d="M186.951 258.286C186.951 258.286 191.937 249.401 190.451 245.067C188.965 240.733 187.878 252.335 187.096 250.206C186.314 248.077 189.396 240.326 188.253 236.029C187.11 231.732 185.553 245.22 184.645 243.313C183.737 241.406 186.116 231.013 185.112 227.949C184.108 224.885 183.075 237.14 181.819 235.424C180.563 233.708 182.661 225.161 179.866 220.106C177.071 215.051 179.1 229.917 178.212 228.24C177.324 226.563 177.446 216.44 174.137 213.427C170.828 210.414 175.73 223.843 174.505 222.487C173.28 221.131 170.405 213.473 166.846 211.657C163.287 209.841 170.025 219.316 169.358 220.082C168.691 220.848 162.388 214.254 161.814 216.069C161.24 217.884 170.392 224.241 171.081 226.232C171.77 228.223 164.77 224.524 164.954 226.853C165.138 229.182 174.145 230.138 175.171 232.099C176.197 234.06 168.102 232.513 168.807 234.649C169.512 236.785 176.466 235.867 177.622 238.187C178.778 240.507 170.606 238.448 171.878 241.187C173.15 243.926 177.592 241.953 179.001 244.58C180.41 247.207 174.115 245.68 175.172 248.302C176.229 250.924 181.59 249.558 182.785 251.435C183.98 253.312 177.424 252.055 178.274 254.177C179.124 256.299 184.682 254.908 186.951 258.286Z" fill="#407BFF"/>
<path opacity="0.1" d="M186.951 258.286C186.951 258.286 191.937 249.401 190.451 245.067C188.965 240.733 187.878 252.335 187.096 250.206C186.314 248.077 189.396 240.326 188.253 236.029C187.11 231.732 185.553 245.22 184.645 243.313C183.737 241.406 186.116 231.013 185.112 227.949C184.108 224.885 183.075 237.14 181.819 235.424C180.563 233.708 182.661 225.161 179.866 220.106C177.071 215.051 179.1 229.917 178.212 228.24C177.324 226.563 177.446 216.44 174.137 213.427C170.828 210.414 175.73 223.843 174.505 222.487C173.28 221.131 170.405 213.473 166.846 211.657C163.287 209.841 170.025 219.316 169.358 220.082C168.691 220.848 162.388 214.254 161.814 216.069C161.24 217.884 170.392 224.241 171.081 226.232C171.77 228.223 164.77 224.524 164.954 226.853C165.138 229.182 174.145 230.138 175.171 232.099C176.197 234.06 168.102 232.513 168.807 234.649C169.512 236.785 176.466 235.867 177.622 238.187C178.778 240.507 170.606 238.448 171.878 241.187C173.15 243.926 177.592 241.953 179.001 244.58C180.41 247.207 174.115 245.68 175.172 248.302C176.229 250.924 181.59 249.558 182.785 251.435C183.98 253.312 177.424 252.055 178.274 254.177C179.124 256.299 184.682 254.908 186.951 258.286Z" fill="white"/>
<path d="M189.34 267.951C188.735 262.724 187.664 257.562 186.14 252.526C183.094 241.464 178.068 231.045 171.305 221.776C170.8 221.11 169.658 221.776 170.164 222.442C176.87 231.61 181.856 241.921 184.877 252.871C186.372 257.794 187.426 262.841 188.025 267.951C188.107 268.786 189.425 268.794 189.34 267.951Z" fill="#407BFF"/>
<path d="M194.013 266.688C194.216 262.114 194.751 257.56 195.613 253.063C197.191 244.378 199.713 235.509 204.566 228.049C207.226 223.723 211.047 220.23 215.595 217.97C216.361 217.61 215.695 216.477 214.929 216.829C206.642 220.729 201.671 229.022 198.524 237.286C195.69 245.035 193.872 253.119 193.117 261.335C192.925 263.112 192.757 264.896 192.696 266.696C192.696 266.871 192.765 267.038 192.889 267.162C193.013 267.286 193.18 267.355 193.355 267.355C193.53 267.355 193.697 267.286 193.821 267.162C193.945 267.038 194.014 266.871 194.014 266.696L194.013 266.688Z" fill="#407BFF"/>
<path d="M204.742 259.565H177.584L180.648 273.351V276.465C180.648 277.499 181.059 278.491 181.79 279.223C182.522 279.954 183.514 280.365 184.548 280.365H197.782C198.816 280.365 199.808 279.954 200.54 279.223C201.271 278.491 201.682 277.499 201.682 276.465V273.348L204.742 259.565Z" fill="#263238"/>
</svg>
