<svg width="275" height="275" viewBox="0 0 275 275" fill="none" xmlns="http://www.w3.org/2000/svg">
<path d="M84.9586 30.8713H29.0951V89.0998H84.9586V30.8713Z" fill="#E0E0E0"/>
<path d="M81.1745 30.8713H25.311V89.0998H81.1745V30.8713Z" fill="#FAFAFA"/>
<path d="M81.191 89.1H25.3V30.855H81.191V89.1ZM25.3275 89.1H81.158V30.8935H25.3275V89.1Z" fill="#E0E0E0"/>
<path d="M73.6616 38.7034H32.8186V81.2789H73.6616V38.7034Z" fill="#FAFAFA"/>
<path d="M32.8186 81.5593C32.5315 81.9889 32.1936 82.3823 31.8121 82.7308C31.1631 83.4183 30.2446 84.3808 29.2161 85.3653C28.1876 86.3498 27.2471 87.2793 26.5486 87.9173C26.1934 88.2897 25.7967 88.6201 25.3661 88.9018C25.6628 88.4732 26.01 88.0817 26.4001 87.7358C27.0491 87.0483 27.9676 86.0858 29.0016 85.0958C30.0356 84.1058 30.9761 83.1763 31.6746 82.5383C32.0175 82.1696 32.4013 81.8411 32.8186 81.5593Z" fill="#E0E0E0"/>
<path d="M73.6615 81.4548C74.0894 81.7441 74.4825 82.0819 74.833 82.4613C75.526 83.1158 76.4555 84.0343 77.4675 85.0573C78.4795 86.0803 79.3815 87.0318 80.0195 87.7303C80.3949 88.0806 80.7256 88.4759 81.004 88.9073C80.5773 88.6207 80.1859 88.2847 79.838 87.9063C79.1505 87.2518 78.2155 86.3333 77.198 85.3048C76.1805 84.2763 75.284 83.3248 74.6405 82.6318C74.2691 82.2793 73.9405 81.8842 73.6615 81.4548Z" fill="#E0E0E0"/>
<path d="M73.5515 38.8136C73.8408 38.3856 74.1785 37.9925 74.558 37.6421C75.2125 36.9546 76.131 36.0251 77.154 35.0131C78.177 34.0011 79.1285 33.0991 79.827 32.4556C80.1781 32.0827 80.5734 31.7539 81.004 31.4766C80.7174 31.9033 80.3814 32.2946 80.003 32.6426C79.3485 33.3301 78.43 34.2651 77.4015 35.2771C76.373 36.2891 75.4215 37.1966 74.7285 37.8401C74.377 38.211 73.9818 38.5379 73.5515 38.8136Z" fill="#E0E0E0"/>
<path d="M32.7086 38.9178C32.279 38.6308 31.8856 38.2928 31.5371 37.9113C30.8496 37.2623 29.9201 36.3438 28.9081 35.3153C27.8961 34.2868 26.9941 33.3463 26.3506 32.6478C25.9782 32.2927 25.6479 31.8959 25.3661 31.4653C25.7932 31.7472 26.1863 32.0776 26.5376 32.4498C27.2251 33.0988 28.1876 34.0173 29.1721 35.0513C30.1566 36.0853 31.0916 37.0258 31.7296 37.7243C32.105 38.0793 32.4339 38.4803 32.7086 38.9178Z" fill="#E0E0E0"/>
<path d="M73.5516 81.279C73.5516 81.279 73.5516 81.202 73.5516 81.07C73.5516 80.938 73.5516 80.729 73.5516 80.476C73.5516 79.926 73.5516 79.1725 73.5516 78.177C73.5516 76.1585 73.5516 73.227 73.5076 69.498C73.5076 62.0455 73.4636 51.4195 73.4251 38.698L73.5846 38.852H32.8846L33.0606 38.6705C33.0606 54.296 33.0606 68.9205 33.0606 81.246L32.9066 81.0865L62.3976 81.169L70.6806 81.2075H72.8806H73.4306H73.6286H73.4471H72.8971H70.7356L62.4856 81.246L32.8956 81.3285H32.7361V81.1745C32.7361 68.8435 32.7361 54.2245 32.7361 38.599V38.5H32.9176H73.6176H73.7001V38.6595C73.6671 51.4195 73.6396 62.0785 73.6176 69.5585C73.6176 73.2655 73.5846 76.1915 73.5791 78.199C73.5791 79.1835 73.5791 79.9425 73.5791 80.465C73.5791 80.7125 73.5791 80.905 73.5791 81.0425C73.5777 81.122 73.5685 81.2012 73.5516 81.279Z" fill="#E0E0E0"/>
<path d="M60.0545 53.1738H46.4255V66.8028H60.0545V53.1738Z" fill="#EBEBEB"/>
<path d="M219.851 31.9142L214.455 31.9434L214.601 58.7995L219.996 58.7703L219.851 31.9142Z" fill="#E0E0E0"/>
<path d="M181.671 31.9888L167.695 32.0645L167.776 46.8922L181.751 46.8166L181.671 31.9888Z" fill="#EBEBEB"/>
<path d="M195.591 31.9136L181.61 31.9893L181.69 46.817L195.671 46.7414L195.591 31.9136Z" fill="#F5F5F5"/>
<path d="M167.717 36.168C177.005 36.245 186.302 36.2029 195.608 36.0415C195.647 36.0415 195.685 36.0259 195.713 35.9981C195.74 35.9702 195.756 35.9324 195.756 35.8931C195.756 35.8537 195.74 35.8159 195.713 35.788C195.685 35.7602 195.647 35.7445 195.608 35.7445C186.318 35.6951 177.001 35.7446 167.717 35.9151C167.684 35.9151 167.651 35.9284 167.628 35.9521C167.604 35.9758 167.591 36.008 167.591 36.0415C167.591 36.0751 167.604 36.1073 167.628 36.131C167.651 36.1547 167.684 36.168 167.717 36.168Z" fill="#E0E0E0"/>
<path d="M184.373 46.5711L158.98 46.7085L159.045 58.7918L184.439 58.6544L184.373 46.5711Z" fill="#EBEBEB"/>
<path d="M209.65 46.4344L184.257 46.5718L184.322 58.6551L209.716 58.5177L209.65 46.4344Z" fill="#F5F5F5"/>
<path d="M159 50.0774C175.868 50.2699 192.797 50.0774 209.671 49.8244C209.71 49.8244 209.748 49.8087 209.776 49.7809C209.804 49.753 209.82 49.7153 209.82 49.6759C209.82 49.6365 209.804 49.5987 209.776 49.5709C209.748 49.543 209.71 49.5274 209.671 49.5274C192.803 49.4394 175.868 49.4504 159 49.8244C158.966 49.8244 158.934 49.8377 158.91 49.8614C158.886 49.8851 158.873 49.9173 158.873 49.9509C158.873 49.9844 158.886 50.0166 158.91 50.0403C158.934 50.064 158.966 50.0774 159 50.0774Z" fill="#E0E0E0"/>
<path d="M247.891 58.8005H149.501V63.129H247.891V58.8005Z" fill="#E0E0E0"/>
<path d="M169.604 60.8794H165.611V69.5694H169.604V60.8794Z" fill="#E0E0E0"/>
<path d="M229.229 60.8794H225.236V69.5694H229.229V60.8794Z" fill="#E0E0E0"/>
<path d="M225.12 21.9032L219.725 21.9324L219.925 58.8698L225.32 58.8406L225.12 21.9032Z" fill="#EBEBEB"/>
<path d="M233.556 28.782L225.169 28.8274L225.331 58.7635L233.718 58.7181L233.556 28.782Z" fill="#F5F5F5"/>
<path d="M233.497 34.5563C232.105 34.7049 230.705 34.7545 229.306 34.7048C227.906 34.7544 226.503 34.7048 225.11 34.5563C227.902 34.3657 230.705 34.3657 233.497 34.5563Z" fill="#E0E0E0"/>
<path d="M233.497 33.3026C232.105 33.4441 230.705 33.4919 229.306 33.4456C227.906 33.4917 226.504 33.444 225.11 33.3026C227.902 33.1046 230.705 33.1046 233.497 33.3026Z" fill="#E0E0E0"/>
<path d="M233.497 54.2244C230.705 54.4151 227.902 54.4151 225.11 54.2244C227.902 54.0264 230.705 54.0264 233.497 54.2244Z" fill="#E0E0E0"/>
<path d="M233.497 52.965C230.705 53.1557 227.902 53.1557 225.11 52.965C227.902 52.7744 230.705 52.7744 233.497 52.965Z" fill="#E0E0E0"/>
<path d="M229.444 50.2205C229.361 50.2205 229.295 47.201 229.295 43.4775C229.295 39.754 229.361 36.729 229.444 36.729C229.526 36.729 229.587 39.7485 229.587 43.4775C229.587 47.2065 229.521 50.2205 229.444 50.2205Z" fill="#E0E0E0"/>
<path d="M242.721 36.1404H233.591V58.7344H242.721V36.1404Z" fill="#EBEBEB"/>
<path d="M223.894 28.2204C223.894 28.5272 223.803 28.8271 223.633 29.0821C223.462 29.3372 223.22 29.536 222.937 29.6534C222.653 29.7708 222.341 29.8015 222.04 29.7416C221.74 29.6818 221.463 29.5341 221.246 29.3172C221.029 29.1002 220.882 28.8239 220.822 28.523C220.762 28.2222 220.793 27.9103 220.91 27.6269C221.027 27.3435 221.226 27.1012 221.481 26.9308C221.736 26.7604 222.036 26.6694 222.343 26.6694C222.754 26.6694 223.149 26.8328 223.44 27.1237C223.731 27.4146 223.894 27.8091 223.894 28.2204Z" fill="#E0E0E0"/>
<path d="M222.821 32.4885H221.865V54.461H222.821V32.4885Z" fill="#E0E0E0"/>
<path d="M221.171 83.5451C222.277 82.5746 223.507 81.7553 224.829 81.1086L224.944 77.0386L231.544 75.7351L233.194 79.4586C234.664 79.5532 236.114 79.8436 237.506 80.3221L240.465 77.5226L246.064 81.2791L244.596 85.0796C245.569 86.1837 246.388 87.414 247.032 88.7371L251.108 88.8526L252.411 95.4526L248.682 97.1026C248.59 98.5699 248.301 100.018 247.824 101.409L250.618 104.368L246.884 110L243.1 108.521C241.993 109.493 240.761 110.312 239.437 110.957L239.327 115.027L232.727 116.331L231.077 112.607C229.608 112.513 228.157 112.222 226.765 111.744L223.806 114.543L218.207 110.787L219.675 106.986C218.703 105.882 217.883 104.652 217.239 103.329L213.163 103.213L211.86 96.6131L215.583 94.9631C215.681 93.4959 215.971 92.0479 216.447 90.6566L213.653 87.6976L217.404 82.0986L221.204 83.5616L221.171 83.5451ZM226.292 91.7511C225.495 92.9392 225.068 94.337 225.066 95.7676C225.064 97.1982 225.486 98.5974 226.278 99.7882C227.071 100.979 228.2 101.908 229.52 102.457C230.841 103.007 232.295 103.152 233.699 102.875C235.103 102.598 236.392 101.911 237.405 100.901C238.418 99.8911 239.109 98.6031 239.39 97.2004C239.671 95.7976 239.53 94.3431 238.984 93.0206C238.438 91.6982 237.513 90.5674 236.324 89.7711C234.731 88.7039 232.779 88.3129 230.898 88.6842C229.017 89.0555 227.36 90.1586 226.292 91.7511Z" fill="#9269AD"/>
<path d="M190.784 80.9106C191.405 80.5334 192.075 80.2428 192.775 80.0471L193.182 78.0781L196.51 78.0176L196.988 79.9701C197.694 80.1435 198.373 80.4117 199.007 80.7676L200.69 79.6676L203.088 81.9831L202.043 83.6991C202.419 84.3208 202.709 84.9905 202.906 85.6901L204.875 86.1026L204.936 89.4301L202.983 89.9086C202.805 90.613 202.537 91.2914 202.186 91.9271L203.286 93.6101L200.97 96.0026L199.254 94.9576C198.631 95.3333 197.962 95.6255 197.263 95.8266L196.851 97.7956L193.523 97.8506L193.045 95.8981C192.34 95.7247 191.661 95.4584 191.026 95.1061L189.343 96.2061L186.951 93.8961L187.996 92.1746C187.617 91.5536 187.324 90.8837 187.127 90.1836L185.158 89.7766L185.103 86.4491L187.055 85.9706C187.227 85.265 187.493 84.586 187.847 83.9521L186.747 82.2691L189.057 79.8711L190.779 80.9161L190.784 80.9106ZM192.555 85.3436C192.065 85.8515 191.736 86.4934 191.611 87.188C191.485 87.8826 191.569 88.5989 191.85 89.2462C192.132 89.8934 192.599 90.4427 193.193 90.8245C193.786 91.2064 194.48 91.4036 195.186 91.3913C195.891 91.379 196.578 91.1577 197.158 90.7554C197.738 90.3532 198.186 89.7879 198.444 89.1312C198.703 88.4745 198.762 87.7558 198.612 87.066C198.462 86.3761 198.112 85.7461 197.604 85.2556C197.267 84.9297 196.869 84.6734 196.432 84.5015C195.996 84.3295 195.53 84.2452 195.061 84.2534C194.592 84.2616 194.13 84.362 193.7 84.5491C193.27 84.7362 192.881 85.0061 192.555 85.3436Z" fill="#455A64"/>
<path d="M192.555 85.3435C192.743 85.1136 192.968 84.9166 193.221 84.7605C193.911 84.3135 194.735 84.1192 195.552 84.2105C196.116 84.2667 196.659 84.4551 197.136 84.7605C197.682 85.1189 198.123 85.6163 198.412 86.2015C198.574 86.5157 198.683 86.8536 198.737 87.2025C198.798 87.5667 198.798 87.9383 198.737 88.3025C198.636 89.0783 198.289 89.8013 197.747 90.365C197.202 90.9241 196.493 91.2957 195.723 91.4265C195.359 91.4869 194.987 91.4869 194.623 91.4265C194.273 91.3833 193.932 91.2868 193.611 91.1405C193.014 90.8716 192.501 90.4458 192.126 89.9085C191.725 89.3411 191.498 88.6695 191.471 87.9753C191.445 87.2811 191.621 86.5941 191.978 85.998C192.124 85.7432 192.31 85.513 192.528 85.316C192.528 85.316 192.313 85.5525 192.038 86.042C191.656 86.7378 191.517 87.5408 191.642 88.3245C191.736 88.8995 191.972 89.442 192.328 89.903C192.684 90.364 193.15 90.7288 193.683 90.9645C193.988 91.1027 194.312 91.1936 194.645 91.234C194.989 91.2916 195.34 91.2916 195.685 91.234C196.413 91.111 197.082 90.7578 197.595 90.2262C198.108 89.6946 198.437 89.0127 198.533 88.2805C198.588 87.9362 198.588 87.5853 198.533 87.241C198.484 86.9105 198.384 86.5895 198.236 86.2895C198.021 85.8516 197.717 85.4631 197.343 85.1487C196.97 84.8342 196.535 84.6006 196.067 84.4626C195.599 84.3246 195.107 84.2852 194.623 84.3469C194.138 84.4086 193.672 84.57 193.254 84.821C192.786 85.118 192.577 85.36 192.555 85.3435Z" fill="#455A64"/>
<path d="M190.784 80.9107L190.674 80.8502L190.344 80.6632L189.046 79.8932H189.085L186.791 82.2967V82.2362L187.891 83.8862V83.9137V83.9467C187.541 84.5775 187.279 85.2528 187.11 85.9542V85.9927H187.072L185.119 86.4822L185.174 86.4052C185.196 87.4538 185.218 88.563 185.24 89.7327L185.174 89.6557L187.148 90.0627H187.198V90.1122C187.405 90.8213 187.708 91.4987 188.1 92.1252L188.127 92.1692L188.1 92.2132L187.06 93.9347V93.8247L189.453 96.1347H189.337L191.02 95.0347L191.065 95.0017L191.119 95.0292C191.748 95.378 192.419 95.6424 193.116 95.8157H193.171V95.8762L193.649 97.8287L193.55 97.7517L196.878 97.6912L196.779 97.7737C196.911 97.1522 197.048 96.4812 197.191 95.8047V95.7442H197.252C197.941 95.5465 198.601 95.2599 199.215 94.8917H199.27H199.32L201.041 95.9367H200.915L203.225 93.5442V93.6707L202.125 91.9877L202.092 91.9327L202.119 91.8832C202.471 91.2563 202.735 90.5847 202.906 89.8867V89.8317H202.961L204.919 89.3532L204.842 89.4522C204.842 88.3137 204.803 87.2082 204.787 86.1247L204.864 86.2127L202.895 85.8002H202.84V85.7507C202.646 85.0572 202.359 84.3931 201.987 83.7762V83.7322V83.6882L203.032 81.9722V82.0767L200.64 79.7557H200.739L199.056 80.8557H199.018H198.979C198.35 80.5042 197.676 80.2379 196.977 80.0637H196.939V80.0252C196.768 79.3157 196.614 78.6777 196.471 78.0727L196.526 78.1167L193.198 78.1607L193.243 78.1222C193.078 78.9087 192.94 79.5522 192.824 80.0912C192.3 80.2372 191.792 80.4344 191.306 80.6797L190.949 80.8667L190.828 80.9272C190.863 80.8989 190.9 80.8732 190.938 80.8502L191.29 80.6467C191.774 80.3912 192.283 80.1848 192.808 80.0307C192.918 79.4807 193.044 78.8482 193.204 78.0617V78.0232H193.243L196.57 77.9517H196.619V77.9957C196.768 78.6007 196.927 79.2387 197.103 79.9482L197.054 79.8987C197.767 80.072 198.453 80.3403 199.094 80.6962H199.018L200.695 79.5962L200.75 79.5632L200.794 79.6072L203.192 81.9117L203.241 81.9612L203.208 82.0217C202.867 82.5717 202.526 83.1492 202.169 83.7377V83.6497C202.548 84.277 202.842 84.9521 203.044 85.6572L202.977 85.5967L204.946 86.0037H205.018V86.0752C205.04 87.1752 205.062 88.2843 205.084 89.4027V89.4797H205.007L203.054 89.9582L203.126 89.8867C202.952 90.6019 202.682 91.2902 202.323 91.9327V91.8502L203.423 93.5277L203.467 93.5992L203.412 93.6542L201.102 96.0522L201.041 96.1072L200.975 96.0687L199.254 95.0237H199.358C198.731 95.4067 198.054 95.701 197.345 95.8982L197.417 95.8212C197.279 96.4977 197.137 97.1687 197.01 97.7902V97.8727H196.927L193.6 97.9277H193.518V97.8507C193.353 97.1742 193.188 96.5087 193.039 95.8927L193.11 95.9642C192.398 95.7885 191.711 95.5184 191.07 95.1612H191.169L189.486 96.2612L189.42 96.3052L189.365 96.2502L186.978 93.9402L186.923 93.8852L186.961 93.8247L188.006 92.1087V92.1967C187.599 91.5779 187.279 90.9061 187.055 90.2002L187.115 90.2607L185.147 89.8482H185.086V89.7822C185.086 88.6162 185.048 87.4997 185.031 86.4547V86.3942H185.091L187.044 85.9212L186.994 85.9707C187.172 85.2594 187.444 84.5751 187.803 83.9357V84.0017L186.703 82.3132V82.2802L186.731 82.2472L189.057 79.8657L190.327 80.6577L190.652 80.8612C190.697 80.8744 190.741 80.8909 190.784 80.9107Z" fill="#455A64"/>
<path d="M202.329 180.455L190.977 178.712L190.487 171.798C188.197 170.804 186.05 169.51 184.102 167.948L177.744 170.698L170.946 161.436L175.483 156.206C174.57 153.878 173.973 151.438 173.707 148.951L167.25 146.41L168.993 135.058L175.901 134.569C176.896 132.279 178.191 130.132 179.751 128.183L177.001 121.825L186.263 115.027L191.488 119.565C193.817 118.654 196.256 118.057 198.743 117.788L201.3 111.304L212.652 113.047L213.142 119.955C215.431 120.95 217.578 122.245 219.527 123.805L225.891 121.055L232.716 130.35L228.179 135.575C229.089 137.904 229.684 140.344 229.95 142.83L236.407 145.371L234.658 156.75L227.744 157.234C226.749 159.524 225.455 161.671 223.894 163.62L226.644 169.983L217.36 176.77L212.13 172.233C209.801 173.144 207.361 173.739 204.875 174.004L202.329 180.455ZM190.993 178.684L202.312 180.428L204.853 173.976C207.344 173.713 209.787 173.115 212.119 172.2L217.349 176.737L226.6 169.95L223.85 163.598C225.412 161.648 226.707 159.499 227.7 157.207L234.608 156.723L236.346 145.404L229.9 142.852C229.636 140.363 229.038 137.921 228.124 135.592L232.661 130.367L225.885 121.132L219.533 123.882C217.584 122.311 215.435 121.007 213.142 120.005L212.658 113.097L201.333 111.359L198.798 117.81C196.31 118.079 193.868 118.676 191.538 119.587L186.313 115.049L177.078 121.825L179.828 128.178C178.254 130.126 176.95 132.278 175.951 134.574L169.043 135.064L167.305 146.383L173.756 148.924C174.013 151.416 174.601 153.863 175.505 156.2L170.968 161.425L177.744 170.654L184.096 167.904C186.047 169.467 188.198 170.762 190.493 171.754L190.993 178.684ZM202.257 157.894C201.627 157.893 200.999 157.845 200.376 157.751C198.581 157.473 196.87 156.801 195.365 155.784C193.86 154.767 192.599 153.429 191.672 151.867C190.744 150.306 190.174 148.558 190.001 146.75C189.828 144.942 190.057 143.118 190.671 141.409C191.286 139.7 192.27 138.147 193.555 136.863C194.84 135.579 196.392 134.595 198.102 133.981C199.811 133.368 201.635 133.14 203.443 133.313C205.251 133.487 206.999 134.059 208.56 134.987C210.667 136.242 212.351 138.098 213.396 140.316C214.44 142.535 214.798 145.015 214.423 147.439C214.051 149.865 212.962 152.125 211.296 153.929C209.63 155.732 207.463 156.996 205.073 157.559C204.151 157.781 203.206 157.894 202.257 157.894ZM194.964 135.647C193.019 137.082 191.54 139.057 190.71 141.327C189.881 143.597 189.738 146.062 190.3 148.412C191.056 151.585 193.041 154.328 195.818 156.039C198.595 157.75 201.938 158.289 205.112 157.537C206.884 157.115 208.541 156.305 209.963 155.165C211.384 154.025 212.534 152.584 213.33 150.945C214.126 149.306 214.548 147.51 214.566 145.688C214.583 143.866 214.195 142.063 213.43 140.409C212.665 138.755 211.542 137.292 210.142 136.125C208.743 134.959 207.101 134.118 205.337 133.663C203.572 133.208 201.729 133.151 199.94 133.496C198.151 133.841 196.46 134.58 194.992 135.658L194.964 135.647Z" fill="#E0E0E0"/>
<path d="M194.964 135.647C195.735 134.975 196.612 134.436 197.56 134.052C199.766 133.123 202.193 132.85 204.55 133.267C206.907 133.683 209.094 134.771 210.848 136.4C212.502 137.935 213.713 139.886 214.357 142.049C215.072 144.445 215.053 147 214.302 149.386C213.508 151.96 211.906 154.211 209.734 155.806C207.562 157.4 204.935 158.254 202.241 158.241C200.969 158.248 199.705 158.053 198.495 157.663C197.329 157.309 196.225 156.777 195.223 156.085C193.353 154.824 191.856 153.084 190.889 151.047C190.052 149.276 189.645 147.333 189.701 145.376C189.77 142.545 190.815 139.825 192.66 137.676C193.313 136.887 194.092 136.211 194.964 135.674C195.019 135.74 194.095 136.345 192.874 137.874C191.166 140.019 190.225 142.673 190.201 145.415C190.178 147.423 190.658 149.405 191.599 151.18C192.54 152.955 193.91 154.465 195.586 155.573C197.559 156.884 199.877 157.581 202.246 157.575C204.79 157.58 207.268 156.771 209.319 155.265C211.37 153.76 212.885 151.638 213.642 149.21C214.016 148.066 214.202 146.87 214.192 145.668C214.208 144.514 214.051 143.364 213.725 142.258C213.124 140.194 211.985 138.328 210.425 136.851C209.067 135.563 207.426 134.611 205.634 134.074C203.013 133.273 200.2 133.374 197.643 134.36C196.729 134.743 195.835 135.173 194.964 135.647Z" fill="#263238"/>
<path d="M191.521 119.548C191.397 119.472 191.281 119.383 191.174 119.284L190.168 118.443L186.208 115.088H186.351L177.138 121.935L177.199 121.721L179.987 128.068L180.037 128.178L179.96 128.277C178.408 130.218 177.122 132.358 176.137 134.64L176.077 134.767H175.939L169.02 135.273L169.251 135.064C168.701 138.633 168.151 142.423 167.535 146.405L167.365 146.108L173.8 148.643L173.965 148.709V148.885C174.235 151.349 174.83 153.766 175.736 156.074L175.807 156.244L175.686 156.382L171.149 161.623V161.233L178.002 170.5L177.606 170.396L183.958 167.646L184.145 167.563L184.305 167.69C186.233 169.249 188.36 170.543 190.63 171.54L190.817 171.622V171.826C190.971 173.993 191.136 176.358 191.306 178.745L191.015 178.426L202.4 180.092L202.02 180.312C202.823 178.272 203.67 176.072 204.561 173.861L204.638 173.657H204.853C207.304 173.392 209.708 172.802 212.003 171.903L212.206 171.826L212.366 171.963L217.596 176.512H217.162L226.413 169.73L226.297 170.148L223.547 163.79L223.465 163.598L223.597 163.433C225.156 161.509 226.451 159.385 227.447 157.119L227.529 156.926H227.733L234.652 156.442L234.344 156.728C234.945 152.856 235.53 149.076 236.098 145.387L236.296 145.739L229.85 143.187L229.669 143.121V142.929C229.406 140.466 228.818 138.048 227.92 135.74L227.854 135.57L227.975 135.427L232.529 130.202V130.57L225.758 121.303L226.083 121.391L219.719 124.141L219.582 124.201L219.461 124.108C217.532 122.548 215.403 121.253 213.13 120.258L212.998 120.197V120.06C212.828 117.546 212.674 115.28 212.531 113.141L212.707 113.333L201.3 111.474L201.47 111.375C200.436 113.944 199.589 116.056 198.885 117.81L198.858 117.876H198.792C196.927 118.063 195.085 118.431 193.292 118.976L191.966 119.4C191.824 119.458 191.677 119.504 191.526 119.537C191.662 119.463 191.804 119.4 191.95 119.35C192.236 119.235 192.67 119.064 193.259 118.866C195.055 118.271 196.907 117.864 198.786 117.651L198.693 117.722C199.375 115.957 200.194 113.839 201.19 111.254L201.234 111.133H201.36L212.712 112.827H212.872V112.992C213.031 115.132 213.196 117.392 213.383 119.911L213.246 119.713C215.563 120.719 217.736 122.028 219.708 123.607L219.45 123.569L225.797 120.819L225.995 120.731L226.121 120.907L232.93 130.141L233.068 130.334L232.914 130.51L228.382 135.751L228.431 135.438C229.358 137.796 229.967 140.267 230.241 142.786L230.043 142.522L236.5 145.079L236.742 145.173L236.698 145.431C236.137 149.12 235.561 152.9 234.971 156.772L234.932 157.042H234.663L227.744 157.537L228.03 157.333C227.02 159.656 225.703 161.833 224.114 163.807L224.163 163.455C225.076 165.548 225.993 167.666 226.913 169.807L227.023 170.066L226.798 170.231L217.547 177.023L217.321 177.188L217.112 177.001C215.378 175.498 213.633 173.983 211.876 172.458L212.234 172.519C209.881 173.452 207.413 174.068 204.897 174.35L205.188 174.125C204.314 176.325 203.45 178.525 202.647 180.582L202.543 180.84L202.268 180.796L190.927 179.053L190.652 179.009V178.734C190.481 176.347 190.316 173.982 190.168 171.815L190.371 172.101C188.048 171.087 185.871 169.766 183.898 168.174L184.244 168.223L177.881 170.973L177.65 171.05L177.49 170.841C175.142 167.624 172.843 164.489 170.714 161.579L170.566 161.376L170.731 161.189L175.285 155.964L175.23 156.272C174.313 153.912 173.713 151.441 173.448 148.924L173.629 149.166L167.183 146.614L166.974 146.531L167.007 146.311C167.629 142.335 168.223 138.545 168.778 134.976L168.806 134.772H169.009L175.928 134.305L175.73 134.442C176.749 132.133 178.069 129.969 179.657 128.007L179.63 128.222L176.88 121.853L176.825 121.721L176.94 121.638L186.23 114.901L186.301 114.846L186.367 114.906L190.217 118.322L191.207 119.218C191.319 119.322 191.423 119.432 191.521 119.548Z" fill="#263238"/>
<path d="M247.264 201.536C248.012 197.86 248.346 194.111 248.259 190.36C248.188 186.643 247.374 182.875 245.421 179.718C243.245 183.142 242.256 187.187 242.605 191.23C242.858 195.125 244.442 198.814 247.093 201.68" fill="#9269AD"/>
<path d="M242.473 211.481C242.523 207.482 242.473 203.44 241.544 199.557C240.614 195.674 238.651 191.912 235.494 189.475C234.335 193.582 234.452 197.943 235.829 201.982C237.21 205.992 239.058 208.984 242.484 211.481" fill="#9269AD"/>
<path d="M236.412 223.3C236.962 219.725 237.391 216.106 237.006 212.515C236.621 208.923 235.356 205.332 232.788 202.769C231.261 206.307 230.844 210.225 231.594 214.005C232.353 217.751 233.645 220.655 236.412 223.3Z" fill="#9269AD"/>
<path d="M232.007 231.748C231.814 227.689 231.528 223.597 230.329 219.719C229.13 215.842 226.925 212.146 223.559 209.875C222.631 214.105 223.015 218.518 224.659 222.524C226.309 226.501 228.366 229.421 231.985 231.742" fill="#9269AD"/>
<path d="M225.451 241.714C225.577 237.991 225.632 234.229 224.829 230.593C224.026 226.958 222.294 223.415 219.39 221.083C218.229 224.883 218.251 228.945 219.45 232.732C220.655 236.494 222.316 239.333 225.451 241.714Z" fill="#9269AD"/>
<path d="M220 250.25C220.132 246.527 220.182 242.765 219.384 239.129C218.587 235.494 217.256 232.298 214.357 229.966C213.191 233.734 212.801 237.512 214.005 241.269C215.21 245.025 216.865 247.869 220 250.25Z" fill="#9269AD"/>
<path d="M242.49 211.37C245.004 209.679 247.708 208.289 250.547 207.229C252.768 206.349 255.082 205.726 257.444 205.37C259.819 205.016 262.246 205.34 264.445 206.305C261.676 209.194 258.123 211.213 254.223 212.113C250.323 213.012 246.245 212.754 242.49 211.37Z" fill="#9269AD"/>
<path d="M225.44 241.78C227.485 240.403 229.686 239.271 231.996 238.409C233.802 237.692 235.684 237.185 237.606 236.896C239.537 236.609 241.51 236.872 243.298 237.655C241.045 240.005 238.156 241.647 234.984 242.38C231.812 243.112 228.495 242.904 225.44 241.78Z" fill="#9269AD"/>
<path d="M221.166 248.551C223.366 247.693 226.32 245.922 228.663 245.625C230.582 245.328 232.528 245.251 234.465 245.394C236.413 245.545 238.279 246.243 239.85 247.407C237.126 249.187 233.946 250.142 230.692 250.157C227.458 250.157 223.872 250.311 221.166 248.545" fill="#9269AD"/>
<path d="M237.309 222.563C239.823 220.869 242.53 219.479 245.372 218.422C247.59 217.54 249.902 216.914 252.263 216.557C254.639 216.207 257.065 216.533 259.265 217.498C256.493 220.384 252.94 222.4 249.041 223.3C245.142 224.2 241.065 223.944 237.309 222.563Z" fill="#9269AD"/>
<path d="M230.335 234.619C232.616 232.623 235.125 230.902 237.809 229.493C239.898 228.34 242.113 227.43 244.409 226.782C246.72 226.13 249.168 226.146 251.471 226.826C249.088 230.041 245.818 232.491 242.062 233.876C238.307 235.26 234.229 235.518 230.329 234.619" fill="#9269AD"/>
<path d="M246.747 202.78C250.849 202.458 254.814 201.157 258.309 198.985C261.804 196.814 264.727 193.835 266.833 190.3C263.813 190.68 260.783 191.4 258.154 192.902C253.754 195.448 250.811 199.738 246.747 202.802" fill="#9269AD"/>
<path d="M251.35 193.43C254.358 191.988 256.729 189.489 258.01 186.41C259.292 183.33 259.394 179.887 258.297 176.737C255.641 178.584 253.574 181.156 252.342 184.146C251.11 187.137 250.766 190.419 251.35 193.6" fill="#9269AD"/>
<path d="M219.489 250.937C219.52 250.879 219.555 250.822 219.593 250.767C219.67 250.64 219.78 250.481 219.912 250.277C220.215 249.837 220.638 249.21 221.177 248.413C221.716 247.615 222.404 246.62 223.152 245.454C223.9 244.288 224.802 242.979 225.704 241.488C226.606 239.998 227.651 238.392 228.696 236.626C229.741 234.861 230.857 232.969 231.996 230.967C234.273 226.952 236.72 222.502 239.146 217.767C244.052 208.296 248.166 199.562 251.119 193.231L254.65 185.729C255.063 184.86 255.382 184.173 255.607 183.694C255.712 183.474 255.794 183.298 255.86 183.144C255.926 182.99 255.954 182.969 255.954 182.969C255.939 183.033 255.917 183.096 255.888 183.156C255.833 183.293 255.756 183.469 255.657 183.706L254.755 185.768C253.963 187.55 252.808 190.135 251.35 193.308C248.446 199.666 244.354 208.417 239.448 217.894C237.001 222.629 234.548 227.079 232.249 231.094C231.088 233.09 229.988 234.993 228.91 236.742C227.832 238.491 226.826 240.119 225.885 241.593C224.945 243.067 224.065 244.381 223.295 245.536C222.525 246.691 221.848 247.676 221.276 248.473L219.973 250.305L219.626 250.778C219.538 250.888 219.494 250.943 219.489 250.937Z" fill="#263238"/>
<path d="M29.8211 214.231C28.3801 211.018 27.301 207.655 26.6036 204.204C25.814 200.785 25.9507 197.218 26.9996 193.87C29.6985 196.556 31.438 200.057 31.9496 203.83C32.5112 207.435 31.8201 211.123 29.9916 214.28" fill="#9269AD"/>
<path d="M36.2671 222.348C35.3926 218.696 34.6171 214.99 34.6501 211.233C34.6831 207.476 35.7501 203.638 38.1206 200.75C40.0341 204.28 40.8265 208.309 40.3921 212.3C39.9576 216.255 38.8851 219.379 36.2671 222.376" fill="#9269AD"/>
<path d="M44.2586 231.93C43.0431 228.767 41.8771 225.544 41.5086 222.178C41.1401 218.812 41.5581 215.254 43.3566 212.383C45.481 215.308 46.6646 218.811 46.7501 222.426C46.8326 226.012 46.2441 228.938 44.2586 231.93Z" fill="#9269AD"/>
<path d="M50.0501 238.739C49.3901 234.988 48.8071 231.176 49.1041 227.376C49.4011 223.575 50.6551 219.742 53.2676 216.964C54.9809 220.658 55.5296 224.787 54.8406 228.8C54.1531 232.777 52.8716 235.879 50.0336 238.75" fill="#9269AD"/>
<path d="M58.102 246.51C57.211 243.128 56.386 239.69 56.3695 236.198C56.353 232.705 57.211 229.103 59.3835 226.369C61.2341 229.608 62.0552 233.333 61.7375 237.05C61.413 240.735 60.4725 243.65 58.102 246.51Z" fill="#9269AD"/>
<path d="M36.2286 222.249C33.5722 221.217 30.8029 220.503 27.9786 220.121C25.7636 219.772 23.516 219.678 21.2796 219.84C19.0325 220.009 16.8785 220.808 15.0646 222.145C18.1969 224.219 21.8663 225.333 25.6227 225.352C29.3792 225.37 33.0594 224.292 36.2121 222.249" fill="#9269AD"/>
<path d="M58.124 246.565C55.967 245.727 53.7183 245.148 51.425 244.838C49.6231 244.553 47.7942 244.475 45.9745 244.607C44.1461 244.741 42.3933 245.391 40.92 246.483C43.4686 248.169 46.4538 249.075 49.5097 249.09C52.5657 249.104 55.5594 248.227 58.124 246.565Z" fill="#9269AD"/>
<path d="M43.2851 231.423C40.6284 230.393 37.8591 229.681 35.0351 229.301C32.8219 228.952 30.5761 228.858 28.3416 229.02C26.095 229.187 23.941 229.984 22.1266 231.319C25.2589 233.393 28.9283 234.507 32.6848 234.526C36.4412 234.544 40.1214 233.466 43.2741 231.423" fill="#9269AD"/>
<path d="M52.1565 241.021C49.6568 239.665 47.0058 238.609 44.2585 237.875C42.1069 237.261 39.8929 236.892 37.6585 236.775C35.4079 236.66 33.1703 237.18 31.2015 238.277C34.0499 240.725 37.5505 242.289 41.2745 242.777C44.9985 243.266 48.7842 242.657 52.1675 241.027" fill="#9269AD"/>
<path d="M30.558 215.265C26.7349 215.816 22.8351 215.443 19.186 214.176C15.5369 212.909 12.245 210.785 9.58655 207.983C12.4245 207.612 15.308 207.812 18.0675 208.571C22.6215 209.99 26.202 213.312 30.558 215.265Z" fill="#9269AD"/>
<path d="M24.4256 207.647C21.3733 206.951 18.6847 205.154 16.8744 202.6C15.0641 200.046 14.2591 196.914 14.6136 193.803C17.4208 194.946 19.8399 196.872 21.5818 199.352C23.3237 201.832 24.3147 204.762 24.4366 207.79" fill="#9269AD"/>
<path d="M60.0436 248.683C59.9957 248.651 59.9514 248.614 59.9116 248.573L59.5486 248.237L58.1791 246.95C57.5851 246.4 56.8591 245.674 56.0396 244.838C55.2201 244.002 54.2686 243.073 53.2896 242C49.1976 237.76 43.7416 231.715 38.0161 224.785C32.2906 217.855 27.3131 211.409 23.7546 206.718C21.9726 204.369 20.5481 202.461 19.5691 201.141L18.4691 199.612L18.1831 199.21C18.1469 199.167 18.1173 199.119 18.0951 199.067L18.2051 199.188L18.5131 199.573L19.6791 201.069C20.6966 202.389 22.1486 204.276 23.9416 206.569C27.5386 211.233 32.5326 217.657 38.2416 224.576C43.9506 231.495 49.3901 237.567 53.4381 241.841C54.4391 242.941 55.3796 243.865 56.1881 244.706C56.9966 245.548 57.7061 246.263 58.2891 246.846L59.6256 248.199L59.9666 248.551L60.0436 248.683Z" fill="#263238"/>
<path d="M221.991 250.938L228.959 177.155C229.094 175.779 228.942 174.39 228.514 173.075C228.086 171.761 227.391 170.549 226.472 169.516C225.553 168.483 224.431 167.651 223.175 167.073C221.919 166.494 220.557 166.182 219.175 166.155L141.575 164.615C139.02 164.563 136.541 165.489 134.645 167.203C132.749 168.917 131.578 171.291 131.373 173.839L125.427 250.905L221.991 250.938Z" fill="#455A64"/>
<path d="M210.98 250.921C211.003 250.836 211.017 250.75 211.024 250.663C211.024 250.476 211.073 250.223 211.112 249.893C211.183 249.205 211.293 248.215 211.425 246.945C211.684 244.371 212.058 240.669 212.525 236.099C213.422 226.919 214.659 214.269 216.023 200.294C217.063 189.404 218.031 179.322 218.812 171.116C218.812 170.705 218.801 170.298 218.779 169.895C218.786 169.492 218.744 169.089 218.652 168.696C218.444 167.931 217.995 167.254 217.371 166.766C216.777 166.304 216.054 166.039 215.303 166.007L213.262 165.968L206.459 165.864L202.108 165.809H200.97C200.711 165.809 200.579 165.809 200.579 165.809C200.579 165.809 200.711 165.809 200.97 165.836L202.108 165.88L206.459 166.001L213.257 166.166L215.292 166.221C216.014 166.255 216.707 166.519 217.269 166.974C217.831 167.429 218.233 168.052 218.416 168.751C218.503 169.128 218.541 169.514 218.531 169.901C218.531 170.297 218.531 170.698 218.559 171.105C217.761 179.311 216.777 189.393 215.715 200.283C214.384 214.258 213.18 226.914 212.311 236.093C211.887 240.669 211.546 244.343 211.31 246.95C211.2 248.221 211.117 249.216 211.057 249.904C211.029 250.234 211.013 250.487 210.996 250.674C210.986 250.756 210.98 250.838 210.98 250.921Z" fill="#263238"/>
<path d="M123.007 121.682C122.602 121.268 122.102 120.958 121.55 120.78H121.654C121.555 120.76 121.454 120.745 121.352 120.736C121.167 120.687 120.975 120.676 120.786 120.703C120.597 120.731 120.415 120.796 120.252 120.896C119.64 121.13 119.137 121.585 118.844 122.172C118.619 122.691 118.54 123.263 118.617 123.824C118.693 124.386 118.922 124.916 119.278 125.356C119.539 125.758 119.915 126.071 120.356 126.255C120.798 126.439 121.285 126.485 121.754 126.386C122.222 126.288 122.65 126.051 122.981 125.705C123.311 125.359 123.53 124.921 123.607 124.449C123.747 123.974 123.765 123.472 123.66 122.989C123.555 122.505 123.331 122.056 123.007 121.682Z" fill="#455A64"/>
<path d="M118.596 108.306C116.755 107.802 115.062 106.861 113.662 105.564C112.261 104.267 111.194 102.651 110.55 100.854C109.932 99.0396 109.754 97.1049 110.031 95.2088C110.307 93.3126 111.03 91.5092 112.139 89.947C109.862 90.53 107.596 88.4125 107.129 86.097C106.661 83.7815 107.486 81.3835 108.366 79.178C110.379 74.1455 112.898 69.0965 117.095 65.714C121.291 62.3315 127.545 61.0445 132.077 63.954C132.115 61.9795 134.431 60.9895 136.356 60.654C144.749 59.268 153.736 61.468 160.347 66.88C166.958 72.292 171 80.8995 170.604 89.5015C173.453 93.9675 171.627 100.755 166.936 103.153C167.769 108.332 166.799 113.64 164.186 118.19C161.557 122.696 157.443 126.147 152.548 127.952" fill="#9269AD"/>
<path d="M121.088 103.461C121.599 96.107 126.533 87.12 133.853 87.945L156.689 93.885C157.766 94.0019 158.759 94.5192 159.473 95.3342C160.186 96.1492 160.566 97.2024 160.539 98.285L157.69 153.45L157.85 153.483C157.85 153.483 152.564 168.993 137.5 164.175C134.502 163.218 133.149 159.935 132.55 156.558H132.396C132.396 156.156 132.396 155.787 132.396 155.402C132.113 152.887 132.095 150.348 132.341 147.829C132.341 143.374 132.341 141.548 132.341 141.592C132.341 141.636 122.958 139.942 121.093 127.699C120.142 121.616 120.516 111.65 121.088 103.461Z" fill="#B78876"/>
<path d="M125.163 111.26C125.156 111.67 125.31 112.067 125.591 112.365C125.873 112.663 126.261 112.839 126.67 112.855C126.872 112.875 127.076 112.854 127.269 112.794C127.463 112.733 127.642 112.634 127.796 112.503C127.95 112.371 128.076 112.21 128.166 112.028C128.256 111.847 128.309 111.649 128.32 111.447C128.327 111.038 128.173 110.642 127.893 110.345C127.613 110.047 127.227 109.87 126.819 109.852C126.617 109.832 126.413 109.853 126.22 109.914C126.027 109.975 125.847 110.073 125.693 110.205C125.538 110.336 125.412 110.497 125.321 110.678C125.23 110.86 125.177 111.057 125.163 111.26Z" fill="#263238"/>
<path d="M123.2 108.669C123.392 108.878 124.591 108.003 126.285 108.02C127.979 108.036 129.206 108.889 129.393 108.685C129.481 108.592 129.288 108.223 128.749 107.827C128.023 107.313 127.154 107.039 126.263 107.041C125.382 107.032 124.521 107.304 123.805 107.816C123.299 108.207 123.123 108.581 123.2 108.669Z" fill="#263238"/>
<path d="M141.476 111.54C141.469 111.95 141.623 112.347 141.904 112.645C142.186 112.943 142.573 113.119 142.983 113.135C143.185 113.155 143.389 113.135 143.582 113.074C143.776 113.014 143.955 112.915 144.109 112.783C144.263 112.652 144.389 112.49 144.479 112.309C144.569 112.127 144.622 111.929 144.633 111.727C144.638 111.319 144.484 110.924 144.204 110.627C143.924 110.329 143.54 110.152 143.132 110.132C142.93 110.112 142.726 110.132 142.532 110.193C142.339 110.253 142.159 110.352 142.004 110.484C141.85 110.615 141.723 110.776 141.633 110.958C141.542 111.14 141.489 111.338 141.476 111.54Z" fill="#263238"/>
<path d="M139.837 109.098C140.035 109.307 141.234 108.432 142.923 108.449C144.611 108.465 145.849 109.318 146.03 109.114C146.124 109.021 145.926 108.652 145.387 108.256C144.66 107.742 143.791 107.467 142.901 107.47C142.022 107.461 141.162 107.733 140.448 108.245C139.925 108.636 139.744 109.01 139.837 109.098Z" fill="#263238"/>
<path d="M133.617 121.599C133.617 121.506 132.578 121.319 130.867 121.088C130.438 121.038 130.026 120.95 129.96 120.653C129.923 120.208 130.027 119.761 130.257 119.377C130.669 118.332 131.098 117.243 131.555 116.077C133.359 111.408 134.668 107.563 134.481 107.492C134.294 107.42 132.677 111.149 130.873 115.819C130.438 116.974 130.02 118.068 129.624 119.119C129.35 119.639 129.266 120.238 129.388 120.813C129.45 120.966 129.547 121.102 129.669 121.213C129.792 121.323 129.938 121.405 130.097 121.451C130.335 121.517 130.581 121.552 130.829 121.555C132.55 121.682 133.612 121.698 133.617 121.599Z" fill="#263238"/>
<path d="M132.313 141.609C138.083 141.736 143.774 140.258 148.753 137.341C148.753 137.341 144.716 145.734 132.456 144.491L132.313 141.609Z" fill="#AA6550"/>
<path d="M134.304 125.681C134.632 125.279 135.056 124.967 135.537 124.775C136.018 124.582 136.54 124.515 137.054 124.581C137.428 124.615 137.79 124.726 138.119 124.905C138.449 125.085 138.737 125.33 138.968 125.626C139.192 125.909 139.323 126.253 139.345 126.613C139.366 126.973 139.277 127.331 139.089 127.639C138.817 127.936 138.463 128.146 138.072 128.244C137.681 128.342 137.27 128.323 136.889 128.189C136.094 127.898 135.363 127.453 134.739 126.88C134.55 126.744 134.387 126.574 134.26 126.379C134.195 126.286 134.16 126.176 134.16 126.063C134.16 125.95 134.195 125.839 134.26 125.747" fill="#AA6550"/>
<path d="M138.6 122.804C138.325 122.804 138.308 124.624 136.724 125.917C135.14 127.209 133.193 127.017 133.177 127.248C133.149 127.363 133.611 127.611 134.436 127.638C135.511 127.66 136.559 127.302 137.395 126.626C138.201 125.98 138.722 125.045 138.847 124.019C138.913 123.249 138.71 122.793 138.6 122.804Z" fill="#263238"/>
<path d="M139.1 106.15C139.265 106.612 140.954 106.403 142.95 106.656C144.947 106.909 146.536 107.465 146.8 107.052C146.921 106.854 146.646 106.42 146.003 105.952C145.146 105.394 144.17 105.045 143.154 104.935C142.139 104.805 141.107 104.92 140.145 105.27C139.397 105.556 139.029 105.914 139.1 106.15Z" fill="#263238"/>
<path d="M123.871 103.78C124.168 104.165 125.334 103.78 126.737 103.78C128.139 103.78 129.322 104.055 129.597 103.653C129.718 103.461 129.536 103.076 129.047 102.707C128.36 102.253 127.548 102.027 126.726 102.064C125.901 102.07 125.099 102.333 124.432 102.817C123.91 103.197 123.75 103.593 123.871 103.78Z" fill="#263238"/>
<path d="M152.823 109.852C152.766 109.126 152.655 108.405 152.493 107.696C152.282 106.873 151.948 106.087 151.503 105.364C150.92 104.401 150.159 103.559 149.259 102.883C148.094 101.999 146.725 101.423 145.278 101.207C143.832 100.991 142.354 101.141 140.981 101.646C140.192 101.928 139.451 102.329 138.781 102.834C138.07 103.349 137.448 103.977 136.939 104.693C135.835 106.185 135.24 107.993 135.24 109.849C135.24 111.705 135.835 113.512 136.939 115.005C137.448 115.721 138.07 116.349 138.781 116.864C139.451 117.369 140.192 117.77 140.981 118.052C142.449 118.587 144.032 118.722 145.568 118.443C146.911 118.191 148.176 117.625 149.259 116.793C150.159 116.117 150.92 115.275 151.503 114.312C151.949 113.589 152.283 112.803 152.493 111.98C152.655 111.272 152.765 110.553 152.823 109.83C152.829 109.877 152.829 109.925 152.823 109.973C152.823 110.083 152.823 110.22 152.823 110.396C152.823 110.625 152.805 110.853 152.768 111.078C152.734 111.391 152.679 111.702 152.603 112.008C152.405 112.847 152.08 113.652 151.64 114.395C151.062 115.387 150.296 116.258 149.385 116.958C148.195 117.876 146.792 118.479 145.306 118.71C143.821 118.941 142.301 118.792 140.888 118.278C140.071 117.992 139.303 117.582 138.611 117.062C138.251 116.795 137.909 116.505 137.588 116.193C137.268 115.869 136.972 115.521 136.702 115.154C135.56 113.613 134.943 111.745 134.943 109.827C134.943 107.909 135.56 106.041 136.702 104.5C136.972 104.133 137.268 103.785 137.588 103.461C137.909 103.149 138.251 102.858 138.611 102.592C139.303 102.072 140.071 101.662 140.888 101.376C142.401 100.829 144.033 100.7 145.612 101.002C146.866 101.239 148.055 101.741 149.099 102.475C150.142 103.21 151.016 104.159 151.662 105.259C152.102 106.002 152.427 106.806 152.625 107.646C152.7 107.952 152.755 108.263 152.79 108.576C152.827 108.801 152.845 109.029 152.845 109.258C152.845 109.434 152.845 109.571 152.845 109.681C152.846 109.739 152.838 109.796 152.823 109.852Z" fill="#263238"/>
<path d="M166.881 103.796C166.856 103.742 166.84 103.684 166.831 103.625C166.798 103.499 166.76 103.334 166.716 103.125C166.672 102.916 166.611 102.624 166.523 102.305C166.435 101.986 166.331 101.612 166.221 101.205C165.509 98.8749 164.478 96.6539 163.157 94.6054C161.199 91.5672 158.686 88.9252 155.749 86.8174C152.128 84.2692 148.02 82.496 143.682 81.6089C139.34 80.7084 134.875 80.5595 130.482 81.1689C126.894 81.599 123.393 82.5727 120.098 84.0564C118.841 84.6381 117.632 85.3205 116.485 86.0969C115.622 86.6892 114.8 87.3397 114.026 88.0439L113.19 88.8304L112.64 89.4519L112.288 89.8259C112.249 89.8728 112.204 89.9152 112.156 89.9524C112.187 89.9007 112.224 89.8527 112.266 89.8094L112.596 89.4134L113.146 88.7754L113.966 87.9614C114.732 87.2393 115.548 86.5721 116.408 85.9649C117.556 85.1702 118.769 84.4711 120.032 83.8749C123.34 82.348 126.866 81.346 130.482 80.9049C134.897 80.2786 139.387 80.4219 143.754 81.3284C148.128 82.2258 152.269 84.0219 155.914 86.6029C158.871 88.7358 161.395 91.4125 163.35 94.4899C164.666 96.5593 165.676 98.8083 166.348 101.167L166.628 102.267C166.71 102.591 166.749 102.872 166.793 103.097C166.837 103.323 166.859 103.477 166.881 103.603C166.891 103.667 166.891 103.732 166.881 103.796Z" fill="#263238"/>
<path d="M169.856 91.971C169.84 91.9309 169.83 91.888 169.829 91.8445C169.829 91.74 169.829 91.619 169.779 91.465C169.746 91.135 169.669 90.651 169.543 90.0295C169.17 88.2852 168.536 86.6072 167.662 85.052C166.361 82.7466 164.673 80.6816 162.673 78.947C160.211 76.8342 157.517 75.0075 154.643 73.502C149.456 70.6918 144.059 68.2866 138.501 66.308C136.367 65.549 134.618 64.988 133.408 64.614L132 64.185L131.642 64.0695C131.56 64.0695 131.516 64.0255 131.521 64.02C131.527 64.0145 131.565 64.02 131.648 64.02L132.016 64.108C132.341 64.1905 132.819 64.3115 133.43 64.4875C134.651 64.8285 136.405 65.3565 138.556 66.0935C144.148 68.0258 149.572 70.4173 154.77 73.2435C157.663 74.7596 160.37 76.6052 162.838 78.7435C164.849 80.5059 166.537 82.6054 167.827 84.9475C168.694 86.5263 169.307 88.2321 169.642 90.002C169.732 90.482 169.795 90.9668 169.829 91.454C169.829 91.608 169.829 91.7345 169.829 91.8335C169.846 91.8774 169.855 91.9239 169.856 91.971Z" fill="#263238"/>
<path d="M132.187 91.4376C132.187 91.4376 143.687 91.2671 152.394 104.247C158.13 112.805 159.34 123.547 159.34 123.547L163.779 103.103L160.479 93.7531L152.531 89.2596L137.45 88.4126L131.758 91.2286" fill="#9269AD"/>
<path d="M154.72 92.499C136.405 88.099 121.759 94.149 119.075 108.52L114.158 100.496L124.877 87.593L135.327 84.876L156.332 88.0715L154.72 92.499Z" fill="#9269AD"/>
<path d="M166.562 91.2561C166.54 91.1995 166.525 91.1404 166.518 91.0801C166.518 90.9481 166.468 90.7776 166.43 90.5631C166.393 90.2812 166.338 90.002 166.265 89.7271C166.177 89.3971 166.105 89.0176 165.957 88.6271C165.635 87.6117 165.211 86.6314 164.692 85.7011C164.002 84.4727 163.169 83.3299 162.211 82.2966C161.052 81.0406 159.742 79.9322 158.312 78.9966C156.666 77.934 154.892 77.084 153.032 76.4666C149.105 75.1301 144.507 74.6571 139.727 74.7561C134.948 74.8551 130.377 75.3061 126.357 76.3676C124.462 76.8588 122.62 77.5349 120.857 78.3861C119.321 79.1335 117.872 80.0465 116.534 81.1086C114.576 82.632 112.934 84.5226 111.699 86.6746C111.485 87.0596 111.298 87.4006 111.149 87.7086C111.001 88.0166 110.88 88.2586 110.797 88.4841C110.715 88.7096 110.649 88.8471 110.594 88.9736C110.539 89.1001 110.522 89.1386 110.517 89.1331C110.783 88.2591 111.143 87.4164 111.589 86.6196C112.797 84.4292 114.432 82.5029 116.396 80.9546C117.738 79.8787 119.195 78.9563 120.741 78.2046C122.517 77.3336 124.374 76.6409 126.285 76.1366C130.328 75.0365 134.92 74.6075 139.722 74.4865C144.523 74.3655 149.154 74.8716 153.114 76.2356C154.994 76.8638 156.785 77.7307 158.444 78.8151C159.885 79.765 161.2 80.8921 162.36 82.1701C163.32 83.2207 164.151 84.3821 164.835 85.6296C165.346 86.5743 165.757 87.5696 166.061 88.5996C166.177 88.9717 166.273 89.35 166.347 89.7326C166.415 90.0109 166.461 90.2941 166.485 90.5796C166.512 90.7996 166.534 90.9701 166.551 91.1296C166.558 91.1714 166.561 91.2137 166.562 91.2561Z" fill="#263238"/>
<path d="M120.45 103.631C120.192 103.612 119.937 103.562 119.691 103.483C119.016 103.267 118.381 102.944 117.81 102.526C116.973 101.886 116.261 101.097 115.709 100.199C115.039 99.0996 114.544 97.9029 114.24 96.6516C113.731 94.376 113.705 92.0189 114.163 89.7326C114.298 89.0403 114.499 88.3625 114.763 87.7086C114.851 87.4776 114.944 87.3071 114.999 87.1916C115.054 87.0761 115.098 87.0156 115.104 87.0211C114.789 87.9182 114.541 88.8374 114.361 89.7711C113.97 92.0313 114.024 94.3462 114.521 96.5856C114.819 97.8064 115.293 98.9774 115.929 100.062C116.455 100.94 117.133 101.719 117.931 102.361C118.692 102.925 119.544 103.355 120.45 103.631Z" fill="#FAFAFA"/>
<path d="M159.203 92.0206L159.082 91.9821L158.741 91.8336L158.191 91.5916L157.421 91.3001C155.783 90.6952 154.079 90.2854 152.344 90.0791C149.772 89.7711 147.171 89.7822 144.6 90.1121C143.148 90.2826 141.636 90.5576 140.074 90.8766C138.512 91.1956 136.911 91.5861 135.3 92.0866C128.799 93.9676 123.788 98.0651 121.55 101.844C120.645 103.336 119.965 104.954 119.531 106.645C119.372 107.245 119.278 107.712 119.212 108.037C119.179 108.18 119.157 108.301 119.135 108.4C119.127 108.441 119.114 108.482 119.097 108.521C119.088 108.479 119.088 108.436 119.097 108.394C119.097 108.295 119.13 108.174 119.152 108.026C119.217 107.552 119.307 107.082 119.421 106.618C119.812 104.9 120.469 103.254 121.368 101.739C123.612 97.8891 128.672 93.7091 135.234 91.8391C136.884 91.3386 138.468 90.9536 140.035 90.6291C141.603 90.3046 143.121 90.0406 144.584 89.8811C147.175 89.5513 149.797 89.5513 152.388 89.8811C154.132 90.109 155.841 90.5524 157.476 91.2011L158.24 91.5201L158.79 91.7896L159.12 91.9601C159.17 91.9931 159.208 92.0151 159.203 92.0206Z" fill="#263238"/>
<path d="M135.234 92.048C135.367 92.0335 135.502 92.0335 135.636 92.048C136.016 92.0767 136.394 92.1263 136.769 92.1965C138.151 92.4618 139.492 92.9094 140.756 93.5275C143.968 95.051 147.977 98.1255 151.173 102.531C152.652 104.616 153.95 106.824 155.051 109.131C155.986 110.989 156.815 112.898 157.531 114.851C158.02 116.164 158.412 117.512 158.702 118.883C158.796 119.372 158.862 119.752 158.89 120.01C158.915 120.141 158.928 120.273 158.928 120.406C158.882 120.282 158.85 120.153 158.835 120.021C158.791 119.763 158.708 119.389 158.593 118.921C158.26 117.565 157.843 116.232 157.344 114.928C156.602 112.996 155.757 111.105 154.814 109.263C153.711 106.986 152.423 104.802 150.964 102.735C148.286 98.9795 144.768 95.9021 140.69 93.7475C139.446 93.1204 138.128 92.6493 136.769 92.345C136.285 92.246 135.911 92.1745 135.669 92.1415C135.521 92.1251 135.375 92.0938 135.234 92.048Z" fill="#263238"/>
<path d="M132.061 109.852C132.007 109.125 131.896 108.405 131.731 107.696C131.519 106.873 131.186 106.087 130.741 105.364C130.158 104.401 129.396 103.559 128.497 102.883C127.413 102.05 126.149 101.485 124.806 101.233C123.269 100.954 121.686 101.089 120.219 101.624C119.43 101.906 118.688 102.307 118.019 102.812C117.308 103.327 116.685 103.955 116.176 104.671C115.076 106.165 114.483 107.971 114.483 109.827C114.483 111.682 115.076 113.489 116.176 114.983C116.685 115.699 117.308 116.327 118.019 116.842C118.688 117.347 119.43 117.748 120.219 118.03C121.688 118.566 123.273 118.701 124.811 118.421C126.033 118.19 127.192 117.705 128.213 116.997C129.235 116.29 130.096 115.375 130.741 114.312C131.187 113.589 131.52 112.803 131.731 111.98C131.896 111.273 132.006 110.554 132.061 109.83C132.069 109.877 132.069 109.925 132.061 109.973C132.061 110.083 132.061 110.22 132.061 110.396C132.06 110.632 132.04 110.868 132 111.1C131.966 111.413 131.911 111.724 131.835 112.03C131.644 112.862 131.329 113.661 130.9 114.4C130.322 115.393 129.556 116.263 128.645 116.963C127.455 117.882 126.052 118.485 124.566 118.715C123.08 118.946 121.56 118.797 120.147 118.283C119.331 117.997 118.563 117.587 117.87 117.068C117.511 116.801 117.169 116.51 116.847 116.199C116.528 115.874 116.232 115.527 115.962 115.159C114.819 113.618 114.203 111.751 114.203 109.832C114.203 107.914 114.819 106.046 115.962 104.506C116.232 104.138 116.528 103.791 116.847 103.466C117.169 103.154 117.511 102.864 117.87 102.597C118.563 102.078 119.331 101.668 120.147 101.382C122.113 100.67 124.265 100.67 126.23 101.383C128.195 102.096 129.848 103.475 130.9 105.281C131.34 106.023 131.664 106.828 131.863 107.668C131.938 107.974 131.993 108.284 132.028 108.598C132.064 108.823 132.083 109.051 132.083 109.28C132.083 109.456 132.083 109.593 132.083 109.703C132.084 109.753 132.076 109.804 132.061 109.852Z" fill="#263238"/>
<path d="M159.714 121C159.317 120.587 158.824 120.277 158.279 120.098H158.389C158.288 120.074 158.185 120.057 158.081 120.049C157.896 119.999 157.703 119.988 157.514 120.016C157.325 120.045 157.143 120.112 156.981 120.214C156.371 120.45 155.871 120.905 155.578 121.49C155.352 122.009 155.273 122.581 155.349 123.143C155.426 123.704 155.656 124.234 156.013 124.674C156.272 125.076 156.648 125.39 157.089 125.575C157.531 125.759 158.018 125.806 158.487 125.707C158.955 125.609 159.383 125.371 159.713 125.024C160.043 124.678 160.26 124.239 160.336 123.767C160.474 123.29 160.49 122.787 160.381 122.303C160.273 121.82 160.043 121.371 159.714 121Z" fill="#455A64"/>
<path d="M124.894 98.0044C124.7 97.9357 124.515 97.8433 124.344 97.7294C124.138 97.6161 123.939 97.4893 123.75 97.3499C123.491 97.1795 123.242 96.9959 123.002 96.7999C122.369 96.3014 121.78 95.7494 121.242 95.1499C120.584 94.4091 119.995 93.6102 119.482 92.7629C118.983 91.9055 118.562 91.0055 118.223 90.0734C117.952 89.311 117.746 88.5272 117.607 87.7304C117.535 87.3949 117.513 87.0814 117.48 86.8119C117.447 86.5805 117.431 86.3471 117.431 86.1134C117.408 85.9142 117.408 85.7131 117.431 85.5139C117.486 85.5139 117.519 86.3609 117.794 87.7139C117.96 88.4933 118.183 89.2597 118.459 90.0074C118.805 90.9173 119.226 91.7967 119.719 92.6364C120.223 93.4685 120.795 94.2576 121.429 94.9959C121.951 95.5965 122.515 96.1589 123.118 96.6789C124.19 97.5259 124.922 97.9549 124.894 98.0044Z" fill="#FAFAFA"/>
<path d="M125.691 82.533C125.735 82.533 125.383 83.336 124.982 84.656C124.454 86.3704 124.144 88.1442 124.058 89.936C123.975 91.73 124.114 93.5273 124.47 95.2875C124.751 96.635 125.02 97.449 124.982 97.4875C124.878 97.3158 124.799 97.1307 124.745 96.9375C124.557 96.4217 124.4 95.8944 124.278 95.359C123.429 91.8021 123.607 88.0776 124.789 84.6175C124.958 84.0821 125.162 83.5584 125.4 83.05C125.476 82.8666 125.574 82.6931 125.691 82.533Z" fill="#FAFAFA"/>
<path d="M138.149 90.5905C137.881 90.0814 137.64 89.5581 137.428 89.023C136.29 86.5047 134.78 84.1707 132.951 82.0985C132.551 81.6863 132.173 81.2531 131.818 80.8005C131.954 80.8779 132.078 80.9742 132.187 81.0865C132.418 81.279 132.737 81.576 133.1 81.961C135.035 83.9817 136.567 86.3522 137.615 88.946C137.813 89.441 137.956 89.848 138.044 90.134C138.1 90.2806 138.136 90.4342 138.149 90.5905Z" fill="#FAFAFA"/>
<path d="M141.779 81.8345C141.953 82.2004 142.067 82.5924 142.115 82.995C142.471 84.9127 142.407 86.8848 141.928 88.7755C141.851 89.1718 141.713 89.5539 141.521 89.9085C141.788 88.5813 141.972 87.2384 142.071 85.888C142.059 84.532 141.961 83.1782 141.779 81.8345Z" fill="#FAFAFA"/>
<path d="M147.95 83.9299C148.138 84.9531 148.093 86.0056 147.817 87.0086C147.54 88.0116 147.041 88.9391 146.355 89.7214C146.829 88.8274 147.227 87.8945 147.543 86.9329C147.763 85.9453 147.9 84.9407 147.95 83.9299Z" fill="#FAFAFA"/>
<path d="M153.274 106.31C153.219 106.31 153.334 105.358 153.34 103.829C153.335 101.832 153.097 99.842 152.63 97.9001C152.155 95.9667 151.451 94.0965 150.535 92.3286C149.825 90.9756 149.292 90.1891 149.33 90.1616C149.49 90.3273 149.629 90.512 149.743 90.7116C150.095 91.2075 150.419 91.7235 150.711 92.2571C151.69 94.0174 152.43 95.9003 152.911 97.8561C153.387 99.8118 153.598 101.823 153.538 103.835C153.524 104.442 153.476 105.048 153.395 105.65C153.377 105.873 153.336 106.094 153.274 106.31Z" fill="#455A64"/>
<path d="M164.632 97.0806C164.677 97.3309 164.697 97.5852 164.692 97.8396C164.692 98.0871 164.692 98.3896 164.692 98.7416C164.692 99.0936 164.692 99.4896 164.632 99.9296C164.549 100.96 164.397 101.984 164.175 102.993C163.623 105.467 162.67 107.834 161.354 110C160.813 110.881 160.216 111.726 159.566 112.53C159.297 112.877 159.016 113.168 158.785 113.427C158.554 113.685 158.34 113.905 158.164 114.076C157.997 114.261 157.813 114.431 157.614 114.582C157.757 114.371 157.921 114.176 158.103 113.999C158.268 113.817 158.472 113.592 158.686 113.322C158.901 113.053 159.17 112.772 159.429 112.404C160.053 111.592 160.628 110.744 161.15 109.863C161.776 108.78 162.327 107.655 162.8 106.497C163.26 105.331 163.639 104.134 163.933 102.916C164.167 101.919 164.34 100.909 164.45 99.8911C164.511 99.4566 164.522 99.0606 164.549 98.7141C164.577 98.3676 164.593 98.0706 164.593 97.8231C164.584 97.5749 164.597 97.3264 164.632 97.0806Z" fill="#FAFAFA"/>
<path d="M150.826 75.999C150.904 76.3801 150.904 76.7729 150.826 77.154C150.68 78.0817 150.35 78.9707 149.855 79.7688C149.36 80.5669 148.71 81.258 147.945 81.8015C147.642 82.0518 147.292 82.2388 146.916 82.3515C146.916 82.313 147.279 82.0985 147.824 81.664C149.245 80.5173 150.234 78.921 150.628 77.1375C150.675 76.7549 150.741 76.3749 150.826 75.999Z" fill="#FAFAFA"/>
<path d="M161.546 81.8401C161.624 82.2167 161.614 82.6062 161.518 82.9786C161.353 83.8875 160.976 84.7447 160.418 85.4811C159.856 86.2193 159.124 86.8116 158.284 87.2081C157.948 87.3986 157.571 87.5078 157.184 87.5271C157.184 87.4831 157.586 87.3566 158.185 87.0266C158.96 86.5928 159.639 86.0073 160.182 85.3051C160.722 84.601 161.113 83.7945 161.331 82.9346C161.485 82.2746 161.496 81.8401 161.546 81.8401Z" fill="#FAFAFA"/>
<path d="M165.396 86.5811C165.25 86.9113 165.038 87.2087 164.774 87.4556C163.579 88.7491 161.934 89.5363 160.176 89.6556C159.82 89.7059 159.456 89.6815 159.109 89.5841C160.3 89.4988 161.467 89.2143 162.563 88.7426C163.621 88.1839 164.578 87.4535 165.396 86.5811Z" fill="#FAFAFA"/>
<path d="M139.953 80.6905C139.399 79.9029 139.099 78.9641 139.095 78.001C138.99 77.0495 139.182 76.089 139.645 75.251C139.451 76.1547 139.355 77.0767 139.359 78.001C139.464 78.9156 139.663 79.8169 139.953 80.6905Z" fill="#FAFAFA"/>
<path d="M138.275 81.1251C138.275 81.1526 137.94 80.8996 137.522 80.4046C136.45 79.0911 135.798 77.4849 135.652 75.7956C135.598 75.4501 135.609 75.0975 135.685 74.7561C135.839 75.9073 136.114 77.0392 136.504 78.1331C136.985 79.1913 137.579 80.1944 138.275 81.1251Z" fill="#455A64"/>
<path d="M128.601 75.999C128.864 77.9027 128.443 79.8379 127.413 81.4605C127.331 81.422 127.886 80.2835 128.211 78.771C128.535 77.2585 128.513 75.999 128.601 75.999Z" fill="#FAFAFA"/>
<path d="M120.323 83.7485C120.323 83.7815 120.059 83.699 119.707 83.4625C119.261 83.1401 118.886 82.728 118.607 82.2525C118.316 81.7804 118.129 81.2517 118.057 80.7015C118.013 80.2835 118.057 80.0195 118.096 80.025C118.252 80.7498 118.503 81.4508 118.844 82.1095C119.261 82.7199 119.759 83.2713 120.323 83.7485Z" fill="#455A64"/>
<path d="M124.646 62.5186C124.685 62.5516 124.096 63.1786 123.359 64.3611C122.42 65.8998 121.825 67.624 121.616 69.4148C121.407 71.2056 121.589 73.0204 122.149 74.7341C122.578 76.0541 123.024 76.7966 122.974 76.8241C122.84 76.6695 122.727 76.4974 122.639 76.3126C122.372 75.8273 122.144 75.3215 121.957 74.8001C121.333 73.0656 121.12 71.2098 121.336 69.3791C121.551 67.5484 122.19 65.7929 123.2 64.2511C123.503 63.7873 123.841 63.3478 124.212 62.9366C124.47 62.6506 124.63 62.5021 124.646 62.5186Z" fill="#FAFAFA"/>
<path d="M113.564 68.7114C113.613 68.7114 113.443 69.4154 113.443 70.5484C113.436 72.0246 113.781 73.4811 114.451 74.7965C115.121 76.112 116.095 77.2484 117.293 78.1109C118.211 78.7764 118.871 79.0404 118.849 79.0899C118.684 79.0633 118.524 79.0094 118.376 78.9304C117.958 78.7482 117.557 78.5292 117.177 78.2759C115.91 77.4347 114.878 76.2837 114.18 74.9319C113.493 73.5701 113.162 72.0563 113.217 70.5319C113.234 70.0764 113.293 69.6235 113.393 69.1789C113.423 69.0146 113.481 68.8565 113.564 68.7114Z" fill="#455A64"/>
<path d="M134.821 65.3511C134.907 65.4638 134.972 65.5903 135.014 65.7251C135.168 66.0795 135.288 66.4478 135.371 66.8251C135.664 68.0546 135.697 69.3313 135.47 70.5744C135.243 71.8175 134.76 72.9999 134.051 74.0466C133.84 74.3643 133.599 74.6608 133.331 74.9321C133.144 75.1246 133.034 75.2236 133.017 75.2071C133.001 75.1906 133.386 74.7396 133.881 73.9366C135.18 71.8232 135.642 69.2999 135.173 66.8636C134.997 65.9231 134.75 65.3731 134.821 65.3511Z" fill="#FAFAFA"/>
<path d="M140.333 67.177C140.477 67.5617 140.544 67.9709 140.531 68.3815C140.593 70.3891 139.909 72.3485 138.611 73.8815C138.361 74.2094 138.054 74.489 137.703 74.7065C137.936 74.3767 138.186 74.0592 138.451 73.755C139.621 72.2048 140.276 70.328 140.327 68.387C140.344 67.65 140.289 67.1825 140.333 67.177Z" fill="#455A64"/>
<path d="M149.215 70.3176C149.248 70.3176 149.413 70.5376 149.562 70.9721C149.749 71.5462 149.817 72.1528 149.76 72.7541C149.695 73.3576 149.508 73.9416 149.21 74.4701C148.979 74.8716 148.775 75.0696 148.748 75.0201C149.091 74.2843 149.327 73.5025 149.446 72.6991C149.482 71.8984 149.404 71.0965 149.215 70.3176Z" fill="#FAFAFA"/>
<path d="M158.631 76.384C158.68 76.4445 158.246 76.89 157.531 77.187C157.132 77.4164 156.667 77.5054 156.211 77.44C156.595 77.2314 156.999 77.0602 157.415 76.9285C157.803 76.7104 158.21 76.5282 158.631 76.384Z" fill="#FAFAFA"/>
<path d="M164.197 80.7839C164.547 81.3688 164.691 82.0546 164.604 82.7309C164.614 83.4116 164.4 84.0767 163.994 84.6229C163.917 84.5844 164.269 83.7759 164.318 82.7144C164.368 81.6529 164.115 80.8114 164.197 80.7839Z" fill="#455A64"/>
<path d="M155.512 63.6184C155.512 63.6184 155.622 63.7229 155.754 63.9484C155.942 64.268 156.099 64.6051 156.222 64.9549C156.645 66.1169 156.759 67.3688 156.554 68.5882C156.349 69.8077 155.831 70.953 155.05 71.9124C154.819 72.2029 154.559 72.47 154.275 72.7099C154.077 72.8804 153.956 72.9574 153.939 72.9409C153.923 72.9244 154.346 72.5339 154.891 71.7914C155.601 70.8323 156.074 69.7191 156.271 68.5426C156.469 67.366 156.386 66.1593 156.029 65.0209C155.765 64.1409 155.468 63.6404 155.512 63.6184Z" fill="#455A64"/>
<path d="M162.558 69.3935C162.555 69.8037 162.465 70.2087 162.294 70.5815C161.929 71.5027 161.351 72.3249 160.609 72.9814C159.866 73.6378 158.98 74.1101 158.021 74.36C157.63 74.4851 157.218 74.5263 156.811 74.481C156.811 74.4315 157.267 74.3875 157.966 74.1675C158.871 73.8735 159.706 73.396 160.419 72.7648C161.131 72.1337 161.706 71.3623 162.107 70.499C162.415 69.85 162.509 69.3825 162.558 69.3935Z" fill="#FAFAFA"/>
<path d="M167.75 75.999C167.773 76.271 167.724 76.5442 167.607 76.791C167.379 77.403 167.017 77.9565 166.548 78.4112C166.079 78.866 165.514 79.2106 164.896 79.42C164.645 79.5248 164.373 79.5664 164.104 79.541C164.926 79.2344 165.686 78.7816 166.348 78.2045C166.948 77.5631 167.424 76.8151 167.75 75.999Z" fill="#455A64"/>
<path d="M117.876 156.695L131.5 148.83L158.262 146.19L158.438 150.111L151.211 204.787L157.097 250.921H114.213L117.876 156.695Z" fill="#263238"/>
<path d="M130.498 154.418L129.657 146.548C129.622 146.218 129.653 145.886 129.748 145.569C129.842 145.252 129.999 144.957 130.209 144.701C130.419 144.445 130.678 144.233 130.97 144.078C131.262 143.923 131.582 143.828 131.912 143.798L156.871 141.543C157.031 141.528 157.193 141.547 157.345 141.597C157.498 141.647 157.639 141.728 157.76 141.835C157.88 141.941 157.978 142.071 158.046 142.217C158.115 142.362 158.153 142.52 158.158 142.681L158.438 152.031L151.211 164.296L143.781 166.65H134.7L129.475 161.073L130.498 154.418Z" fill="#263238"/>
<path d="M154.754 149.05C154.42 149.037 154.088 149.004 153.758 148.951C152.853 148.865 151.943 148.849 151.036 148.901C149.69 148.993 148.353 149.186 147.037 149.479C145.547 149.792 143.93 150.232 142.214 150.65C140.599 151.068 138.956 151.36 137.297 151.525C135.934 151.651 134.56 151.558 133.227 151.25C132.327 151.035 131.468 150.679 130.68 150.194C130.471 150.058 130.269 149.911 130.075 149.754C129.943 149.644 129.877 149.578 129.888 149.572C129.899 149.567 130.185 149.77 130.746 150.089C131.539 150.525 132.392 150.844 133.276 151.035C134.59 151.309 135.939 151.378 137.275 151.239C138.915 151.061 140.54 150.763 142.137 150.348C143.847 149.93 145.475 149.495 146.982 149.198C148.313 148.915 149.665 148.742 151.025 148.681C151.944 148.646 152.864 148.696 153.775 148.83C154.099 148.885 154.325 148.929 154.512 148.973C154.594 148.991 154.675 149.017 154.754 149.05Z" fill="#455A64"/>
<g opacity="0.3">
<path opacity="0.3" d="M131.093 150.276C130.422 152.113 130.405 154.391 131.758 155.777C132.858 156.926 134.64 157.212 136.202 156.877C137.749 156.479 139.216 155.82 140.542 154.929C143.979 152.883 147.466 150.766 151.371 149.902C151.627 149.87 151.868 149.767 152.069 149.605C152.118 149.565 152.157 149.514 152.184 149.458C152.212 149.401 152.228 149.339 152.23 149.276C152.233 149.213 152.222 149.15 152.199 149.091C152.177 149.032 152.142 148.979 152.097 148.934C152 148.874 151.887 148.841 151.773 148.841C148.319 148.494 144.997 149.858 141.614 150.617C138.232 151.376 134.343 152.174 131.247 150.348" fill="black"/>
</g>
<path d="M135.85 143.55C135.495 143.741 135.199 144.024 134.992 144.37C134.601 145.002 134.651 146.075 134.651 147.235C134.717 149.567 135.102 151.426 135.008 151.448C134.838 151.065 134.725 150.659 134.673 150.244C134.48 149.255 134.369 148.253 134.343 147.246C134.318 146.696 134.329 146.145 134.376 145.596C134.409 145.126 134.557 144.671 134.805 144.271C134.976 143.999 135.22 143.782 135.509 143.644C135.729 143.55 135.85 143.55 135.85 143.55Z" fill="#455A64"/>
<path d="M142.45 150.386C142.351 150.386 142.576 148.659 142.269 146.58C141.961 144.501 141.289 142.906 141.383 142.868C141.608 143.175 141.781 143.517 141.894 143.88C142.221 144.737 142.45 145.628 142.576 146.536C142.711 147.447 142.738 148.37 142.659 149.286C142.652 149.662 142.581 150.034 142.45 150.386Z" fill="#455A64"/>
<path d="M150.491 142.208C150.714 142.48 150.875 142.797 150.964 143.138C151.511 144.757 151.392 146.528 150.634 148.06C150.506 148.388 150.302 148.682 150.04 148.918C150.536 147.879 150.854 146.763 150.981 145.618C151.124 143.693 150.392 142.241 150.491 142.208Z" fill="#455A64"/>
<path d="M99.6325 224.064C99.6325 224.064 105.682 179.514 107.448 171.435C108.113 168.404 109.38 165.537 111.176 163.006C112.971 160.474 115.257 158.33 117.898 156.7L119.575 237.418L112.2 246.702L103.95 249.859C102.061 250.585 99.976 250.619 98.065 249.953L90.1615 247.203L89.4905 232.144L96.1675 230.213L99.6325 224.064Z" fill="#263238"/>
<path d="M181.852 155.936C184.879 157.114 187.571 159.018 189.69 161.479C191.81 163.941 193.292 166.886 194.007 170.055C198.726 190.85 206.8 218.521 206.926 227.447C207.086 238.816 202.114 246.598 195.624 248.034C191.911 248.853 166.661 248.441 152.949 248.149C150.501 248.095 148.154 247.163 146.337 245.522C144.519 243.881 143.352 241.641 143.049 239.212C142.714 236.561 143.432 233.884 145.049 231.756C146.665 229.629 149.052 228.22 151.695 227.832L179.476 223.746L174.317 194.92L179.421 154.996L181.852 155.936Z" fill="#263238"/>
<path d="M157.724 147.015L168.85 151.563L179.432 154.995L179.685 186.659L173.388 250.838L151.305 250.921L151.349 222.277C150.528 208.469 151.43 194.612 154.033 181.027L157.394 153.796" fill="#263238"/>
<path d="M174.003 192.005C174.044 192.108 174.071 192.215 174.086 192.324C174.135 192.571 174.196 192.874 174.267 193.248C174.421 194.095 174.636 195.25 174.889 196.652C175.4 199.573 176.088 203.533 176.852 207.905C177.617 212.278 178.238 216.249 178.728 219.169C178.948 220.583 179.129 221.738 179.278 222.59C179.333 222.97 179.377 223.278 179.41 223.525C179.426 223.635 179.426 223.746 179.41 223.855C179.37 223.753 179.342 223.646 179.327 223.536C179.272 223.289 179.212 222.986 179.135 222.612C178.981 221.765 178.766 220.616 178.502 219.208C177.985 216.331 177.287 212.355 176.539 207.955C175.791 203.555 175.125 199.578 174.669 196.691C174.449 195.277 174.273 194.122 174.119 193.27C174.069 192.89 174.031 192.582 173.998 192.335C173.984 192.225 173.986 192.114 174.003 192.005Z" fill="#263238"/>
<path d="M184.426 160.435C184.15 160.562 183.865 160.667 183.573 160.749C182.801 161.03 182.047 161.357 181.313 161.728C178.901 162.968 176.809 164.751 175.202 166.936C174.744 167.552 174.341 168.207 173.998 168.894C173.701 169.544 173.46 170.217 173.277 170.907C172.966 172.085 172.763 173.289 172.672 174.504C172.579 175.538 172.562 176.385 172.557 176.968C172.577 177.27 172.577 177.573 172.557 177.876C172.489 177.578 172.456 177.273 172.458 176.968C172.412 176.142 172.412 175.314 172.458 174.488C172.52 173.255 172.704 172.032 173.008 170.836C173.188 170.124 173.431 169.43 173.734 168.762C174.08 168.057 174.491 167.384 174.96 166.755C176.592 164.528 178.742 162.735 181.225 161.53C181.974 161.171 182.75 160.871 183.546 160.633C183.831 160.536 184.126 160.47 184.426 160.435Z" fill="#263238"/>
<path d="M151.057 227.948C151.186 227.952 151.315 227.943 151.443 227.92L152.543 227.783L156.602 227.233L169.977 225.247L179.701 223.751H179.663C180.902 223.929 182.069 224.445 183.034 225.242C183.79 225.845 184.418 226.593 184.882 227.442C185.274 228.19 185.552 228.993 185.707 229.823C185.716 229.767 185.716 229.709 185.707 229.653C185.707 229.537 185.707 229.372 185.641 229.158C185.525 228.535 185.318 227.932 185.025 227.37C184.571 226.487 183.942 225.705 183.177 225.071C182.188 224.231 180.985 223.683 179.701 223.487H179.663L169.95 224.95L156.59 227.024L152.548 227.684L151.448 227.882C151.316 227.889 151.185 227.911 151.057 227.948Z" fill="#263238"/>
<path d="M153.29 248.16C153.383 248.145 153.472 248.115 153.554 248.072C153.807 247.981 154.051 247.871 154.286 247.742C155.157 247.278 155.935 246.657 156.579 245.911C157.535 244.797 158.245 243.494 158.664 242.088C159.183 240.367 159.32 238.554 159.065 236.775C158.776 234.99 158.017 233.314 156.865 231.919C155.943 230.783 154.8 229.848 153.505 229.169C152.643 228.707 151.715 228.379 150.755 228.195C150.419 228.124 150.144 228.124 149.963 228.096C149.872 228.084 149.779 228.084 149.688 228.096C150.994 228.314 152.255 228.743 153.422 229.367C154.673 230.061 155.773 230.996 156.662 232.117C157.763 233.48 158.489 235.106 158.769 236.836C159.013 238.564 158.888 240.324 158.4 242C158.005 243.376 157.331 244.657 156.42 245.762C155.801 246.508 155.056 247.141 154.22 247.632C153.637 247.979 153.279 248.127 153.29 248.16Z" fill="#263238"/>
<g opacity="0.2">
<path opacity="0.2" d="M174.416 194.062L170.269 225.033L175.522 223.856L177.15 210.342L174.416 194.062Z" fill="black"/>
</g>
<g opacity="0.3">
<path opacity="0.3" d="M89.6115 232.15C92.1066 231.699 94.6623 231.699 97.1574 232.15C98.225 232.389 99.2278 232.857 100.097 233.522C100.966 234.186 101.68 235.032 102.19 236C103.169 237.818 103.472 239.924 103.048 241.945C102.69 243.689 102.316 245.493 101.04 246.73C99.1595 248.556 97.3059 249.145 94.875 248.716L90.2 247.198L89.6115 232.15Z" fill="black"/>
</g>
<path d="M93.6374 248.402C93.7365 248.458 93.8417 248.502 93.9509 248.534C94.2566 248.645 94.5713 248.73 94.8914 248.787C96.074 249.031 97.2994 248.966 98.4499 248.6C99.2449 248.34 99.9785 247.921 100.606 247.368C101.316 246.726 101.899 245.958 102.327 245.102C102.799 244.16 103.131 243.154 103.312 242.115C103.553 241.005 103.579 239.859 103.389 238.738C103.145 237.633 102.723 236.574 102.14 235.603C101.638 234.727 100.959 233.963 100.147 233.361C99.3345 232.759 98.4067 232.332 97.4214 232.105C96.6129 231.934 95.7894 231.842 94.9629 231.83C93.7745 231.821 92.587 231.898 91.4099 232.061L90.4529 232.199C90.3399 232.206 90.2286 232.23 90.1229 232.27C90.2344 232.284 90.347 232.284 90.4584 232.27L91.4209 232.193C92.5958 232.075 93.777 232.031 94.9574 232.061C95.7666 232.086 96.5716 232.19 97.3609 232.369C98.2591 232.587 99.1069 232.975 99.8579 233.513C101.447 234.613 102.608 236.632 103.086 238.81C103.27 239.892 103.245 240.999 103.015 242.071C102.844 243.082 102.527 244.062 102.074 244.981C101.666 245.81 101.106 246.556 100.424 247.181C99.8269 247.72 99.1275 248.133 98.3674 248.396C97.2528 248.772 96.0635 248.87 94.9024 248.682C94.0884 248.539 93.6484 248.374 93.6374 248.402Z" fill="#263238"/>
<g opacity="0.3">
<path opacity="0.3" d="M150.375 228.129C152.575 228.734 154.913 229.416 156.425 231.132C157.964 233.029 158.861 235.365 158.988 237.803C159.116 240.242 158.467 242.659 157.135 244.706C156.444 245.832 155.517 246.795 154.418 247.527C153.288 248.096 152.003 248.276 150.76 248.039C147.46 247.489 144.644 244.827 143.665 241.604C143.185 239.91 143.064 238.134 143.309 236.391C143.554 234.647 144.161 232.974 145.09 231.478C145.981 230.142 148.841 228.613 150.37 228.129" fill="black"/>
</g>
<path d="M190.691 235.801C190.594 235.586 190.515 235.364 190.454 235.136C190.317 234.707 190.119 234.085 189.849 233.326C189.199 231.341 188.237 229.472 187 227.788C185.726 226.123 184.011 224.848 182.05 224.108C181.228 223.84 180.38 223.655 179.52 223.558C179.754 223.529 179.99 223.529 180.224 223.558C180.868 223.601 181.503 223.725 182.116 223.927C184.141 224.63 185.913 225.916 187.209 227.623C188.478 229.326 189.441 231.238 190.053 233.271C190.3 234.047 190.471 234.679 190.603 235.119C190.66 235.342 190.69 235.571 190.691 235.801Z" fill="#455A64"/>
<path d="M171.6 178.898C171.657 179.04 171.7 179.188 171.726 179.338C171.798 179.657 171.902 180.086 172.029 180.625C172.287 181.725 172.639 183.375 173.063 185.361C173.91 189.365 175.004 194.92 176.082 201.074C177.16 207.229 177.996 212.822 178.552 216.881C178.832 218.905 179.047 220.55 179.184 221.688C179.245 222.238 179.294 222.673 179.333 222.997C179.371 223.322 179.371 223.454 179.366 223.459C179.32 223.311 179.289 223.158 179.272 223.003C179.223 222.684 179.157 222.249 179.069 221.705C178.898 220.544 178.656 218.911 178.354 216.909C177.743 212.861 176.869 207.273 175.796 201.124C174.724 194.975 173.662 189.414 172.865 185.399C172.469 183.414 172.15 181.797 171.919 180.647C171.814 180.097 171.732 179.674 171.671 179.355C171.635 179.205 171.611 179.052 171.6 178.898Z" fill="#455A64"/>
<path d="M180.994 156.629C180.994 156.673 180.383 157.019 179.443 157.696C178.225 158.576 177.118 159.599 176.143 160.743C175.17 161.892 174.34 163.155 173.673 164.505C173.162 165.544 172.92 166.221 172.876 166.204C172.888 166.034 172.929 165.866 172.997 165.709C173.134 165.268 173.299 164.837 173.492 164.417C174.116 163.025 174.935 161.729 175.923 160.567C176.916 159.403 178.065 158.383 179.338 157.536C179.723 157.28 180.123 157.049 180.537 156.843C180.678 156.75 180.832 156.678 180.994 156.629Z" fill="#455A64"/>
<path d="M114.724 230.142C114.718 230.095 114.718 230.047 114.724 229.999C114.724 229.895 114.724 229.757 114.724 229.592C114.724 229.213 114.724 228.685 114.724 228.019C114.697 226.655 114.691 224.681 114.537 222.25C114.455 221.034 114.328 219.703 114.114 218.29C113.899 216.876 113.564 215.38 113.173 213.818C112.403 210.694 111.303 207.273 111.072 203.522C110.96 200.001 111.411 196.484 112.409 193.105C113.239 189.981 114.163 187.22 114.829 184.855C115.375 183.009 115.82 181.134 116.16 179.24C116.292 178.569 116.341 178.041 116.402 177.689C116.402 177.524 116.446 177.392 116.462 177.282C116.479 177.172 116.462 177.144 116.495 177.15C116.5 177.195 116.5 177.241 116.495 177.287C116.495 177.397 116.495 177.529 116.462 177.694C116.424 178.052 116.391 178.585 116.275 179.256C115.952 181.174 115.51 183.07 114.95 184.932C114.312 187.286 113.41 190.053 112.59 193.182C111.625 196.533 111.19 200.015 111.303 203.5C111.534 207.207 112.612 210.612 113.377 213.747C113.76 215.229 114.064 216.731 114.29 218.246C114.499 219.67 114.614 220.996 114.68 222.228C114.812 224.67 114.79 226.628 114.779 228.014C114.779 228.679 114.779 229.207 114.752 229.587V229.994C114.75 230.044 114.741 230.094 114.724 230.142Z" fill="#455A64"/>
<path d="M171.946 166.419L171.77 166.375L171.275 166.221C170.637 166.036 169.984 165.907 169.323 165.836C166.881 165.612 164.421 165.949 162.129 166.821C160.544 167.403 159.014 168.127 157.558 168.982C155.974 169.884 154.341 170.951 152.608 172.057C150.808 173.241 148.928 174.3 146.982 175.225C144.879 176.226 142.614 176.845 140.294 177.051C137.956 177.185 135.62 176.739 133.496 175.753C131.541 174.839 129.67 173.757 127.902 172.519C126.197 171.375 124.602 170.269 122.991 169.389C121.529 168.549 119.96 167.909 118.327 167.486C116.976 167.16 115.579 167.067 114.196 167.211C113.154 167.324 112.136 167.604 111.182 168.042C110.375 168.436 109.633 168.952 108.982 169.571C109.016 169.523 109.055 169.479 109.098 169.439C109.18 169.356 109.301 169.224 109.466 169.07C109.966 168.633 110.52 168.263 111.116 167.97C112.076 167.506 113.105 167.205 114.163 167.079C115.566 166.918 116.985 166.998 118.36 167.316C120.015 167.733 121.606 168.371 123.09 169.213C124.701 170.088 126.324 171.188 128.04 172.326C129.8 173.55 131.662 174.619 133.606 175.522C135.685 176.474 137.967 176.901 140.25 176.765C142.539 176.564 144.774 175.957 146.85 174.972C148.786 174.055 150.657 173.006 152.449 171.831C154.187 170.731 155.826 169.675 157.426 168.773C158.898 167.92 160.445 167.202 162.046 166.628C164.367 165.765 166.857 165.456 169.317 165.726C169.982 165.811 170.638 165.959 171.275 166.166L171.765 166.348C171.829 166.362 171.89 166.386 171.946 166.419Z" fill="#FAFAFA"/>
<path d="M192.968 172.265C192.803 172.491 192.619 172.7 192.418 172.892C192.197 173.134 191.96 173.36 191.708 173.569C191.392 173.863 191.06 174.138 190.713 174.394C190.297 174.713 189.864 175.009 189.415 175.279C188.904 175.599 188.377 175.891 187.836 176.154C186.59 176.748 185.285 177.209 183.942 177.529C182.592 177.826 181.215 177.98 179.834 177.991C179.231 177.989 178.629 177.954 178.03 177.886C177.508 177.84 176.991 177.763 176.479 177.655C176 177.578 175.588 177.441 175.219 177.347C174.903 177.266 174.593 177.165 174.29 177.045C174.024 176.963 173.768 176.854 173.525 176.72C173.525 176.66 174.625 177.122 176.517 177.452C177.024 177.548 177.537 177.614 178.052 177.65C178.602 177.721 179.207 177.71 179.834 177.727C181.193 177.7 182.547 177.539 183.876 177.248C185.2 176.934 186.49 176.488 187.726 175.917C188.276 175.631 188.826 175.367 189.299 175.076C189.746 174.817 190.179 174.534 190.597 174.229C192.132 173.112 192.918 172.221 192.968 172.265Z" fill="#FAFAFA"/>
<path d="M114.461 182.765C114.032 182.845 113.595 182.858 113.163 182.803C112.114 182.734 111.078 182.529 110.083 182.193C109.087 181.856 108.139 181.394 107.261 180.818C106.883 180.602 106.541 180.327 106.249 180.004C107.494 180.766 108.809 181.407 110.176 181.918C111.574 182.338 113.008 182.621 114.461 182.765Z" fill="#FAFAFA"/>
<path d="M172.793 186.202C172.17 185.747 171.512 185.343 170.824 184.992C168.894 184.145 166.791 183.768 164.686 183.892C162.013 183.931 158.895 184.635 155.479 185.542C152.064 186.45 148.329 187.572 144.303 188.325C142.346 188.706 140.362 188.934 138.369 189.007C136.511 189.066 134.652 188.978 132.808 188.743C129.694 188.333 126.618 187.667 123.612 186.752C121.044 185.993 118.998 185.278 117.562 184.783L115.94 184.206L115.522 184.046C115.428 184.008 115.379 183.986 115.384 183.98C115.435 183.989 115.485 184.001 115.533 184.019L115.962 184.151L117.612 184.701C119.036 185.163 121.088 185.845 123.662 186.582C126.665 187.462 129.732 188.106 132.836 188.507C134.66 188.728 136.499 188.808 138.336 188.749C140.316 188.669 142.286 188.441 144.232 188.067C148.236 187.313 151.965 186.186 155.391 185.317C158.818 184.448 161.958 183.738 164.659 183.722C166.792 183.62 168.918 184.041 170.852 184.948L171.319 185.196L171.715 185.449C171.924 185.572 172.123 185.712 172.309 185.867L172.656 186.153L172.793 186.202Z" fill="#FAFAFA"/>
<path d="M75.2785 247.902C75.2785 247.902 81.026 248.749 83.226 249.64C85.613 250.602 88.561 250.041 90.563 248.743C91.7013 248.022 92.766 247.191 93.742 246.263L101.09 246.301C102.175 245.088 102.903 243.598 103.195 241.996C103.486 240.395 103.328 238.744 102.74 237.226C102.358 236.172 101.8 235.19 101.09 234.322C100.237 233.36 98.89 232.568 96.503 232.122L87.736 233.827C87.736 233.827 76.6205 233.64 72.138 233.431C71.0604 233.381 69.9948 233.675 69.0965 234.273C68.046 234.971 66.858 235.923 66.9515 236.511C67.0175 236.957 66.2915 239.811 68.453 241.654C68.453 241.654 66.506 243.133 67.5125 244.525L67.9965 245.141C67.9965 245.141 66.6765 246.791 67.32 247.517C67.9635 248.243 73.6835 251.774 75.768 251.004C77.8525 250.234 76.186 248.287 75.2785 247.918" fill="#B78876"/>
<path d="M69.9599 238.7C70.2055 238.769 70.4447 238.86 70.6749 238.969C71.1259 239.151 71.7749 239.409 72.6054 239.695C73.0179 239.833 73.4744 239.981 73.9639 240.119C74.4534 240.256 74.9924 240.383 75.5479 240.575C76.1522 240.754 76.695 241.096 77.1154 241.565C77.3453 241.826 77.502 242.143 77.5696 242.484C77.6373 242.825 77.6134 243.178 77.5004 243.507C77.352 243.836 77.0933 244.102 76.7689 244.26C76.4635 244.4 76.1357 244.484 75.8009 244.508C75.1854 244.531 74.5692 244.484 73.9639 244.37C72.9506 244.188 71.9576 243.906 70.9994 243.529C70.1799 243.221 69.5309 242.929 69.0854 242.731C68.8486 242.638 68.6203 242.524 68.4034 242.39C68.6501 242.455 68.8911 242.54 69.1239 242.643C69.5804 242.819 70.2239 243.083 71.0544 243.369C72.012 243.717 72.9986 243.978 74.0024 244.15C74.5881 244.258 75.1841 244.298 75.7789 244.271C76.0835 244.25 76.3816 244.173 76.6589 244.046C76.9357 243.916 77.155 243.689 77.2749 243.408C77.3713 243.12 77.3905 242.813 77.3307 242.515C77.2709 242.218 77.1341 241.942 76.9339 241.714C76.5418 241.277 76.0378 240.956 75.4764 240.784C74.9264 240.592 74.4039 240.465 73.9089 240.311C73.4139 240.157 72.9629 240.003 72.5504 239.855C71.7254 239.552 71.0764 239.266 70.6364 239.052C70.4015 238.954 70.1753 238.836 69.9599 238.7Z" fill="#AA6550"/>
<path d="M70.565 234.537C70.8072 234.613 71.0442 234.705 71.2745 234.812C71.7255 234.999 72.3745 235.263 73.194 235.554C74.0135 235.846 74.998 236.165 76.1035 236.456C76.7165 236.565 77.2962 236.813 77.7975 237.182C78.0622 237.412 78.2342 237.731 78.2815 238.079C78.3244 238.429 78.2652 238.784 78.111 239.102C77.9554 239.404 77.7387 239.672 77.4745 239.887C77.2104 240.102 76.9047 240.259 76.5765 240.35C75.9813 240.53 75.352 240.568 74.7395 240.46C73.7353 240.241 72.7525 239.934 71.8025 239.542L69.85 238.821C69.6089 238.743 69.3752 238.643 69.1515 238.524C69.4006 238.574 69.6452 238.644 69.883 238.733L71.8355 239.382C72.783 239.745 73.7577 240.032 74.7505 240.24C75.3288 240.337 75.9217 240.3 76.483 240.13C76.7791 240.046 77.0549 239.902 77.2932 239.707C77.5316 239.512 77.7276 239.271 77.869 238.997C78.0184 238.734 78.0747 238.428 78.0288 238.128C77.9829 237.829 77.8375 237.554 77.616 237.347C77.1452 237 76.6017 236.765 76.0265 236.66C74.9265 236.352 73.9255 236.016 73.1115 235.703C72.2975 235.389 71.654 235.098 71.214 234.889C70.9872 234.792 70.7699 234.674 70.565 234.537Z" fill="#AA6550"/>
<path d="M93.6374 236.384L88.5499 234.3C88.5499 234.3 74.4314 227.348 74.1839 227.7C73.9364 228.052 73.1664 228.002 73.2984 229.746C73.4304 231.489 81.6639 235.163 81.9169 235.796C82.1699 236.428 81.6639 239.437 84.6669 241.681C87.6699 243.925 89.9029 244.024 89.9029 244.024" fill="#B78876"/>
<path d="M89.9195 244.002H89.793C89.675 243.994 89.5575 243.979 89.441 243.958C88.9898 243.882 88.5462 243.766 88.1155 243.612C87.4316 243.369 86.7708 243.065 86.141 242.704C85.2999 242.238 84.5187 241.671 83.8145 241.016C82.9707 240.185 82.3844 239.129 82.126 237.974C81.9927 237.341 81.9045 236.7 81.862 236.055C81.8516 235.979 81.8369 235.903 81.818 235.829C81.7849 235.774 81.7398 235.727 81.686 235.692C81.5538 235.591 81.4161 235.497 81.2735 235.411C80.9875 235.235 80.685 235.065 80.377 234.889C79.156 234.207 77.8525 233.514 76.527 232.722C75.8725 232.326 75.2125 231.908 74.5745 231.435C74.2488 231.194 73.9434 230.928 73.6615 230.637C73.5126 230.485 73.3833 230.315 73.2765 230.131C73.2244 230.031 73.1873 229.923 73.1665 229.812C73.1585 229.706 73.1585 229.599 73.1665 229.493C73.1275 229.067 73.2135 228.639 73.414 228.261C73.5321 228.079 73.6901 227.927 73.876 227.816C73.9496 227.77 74.0163 227.715 74.074 227.651C74.074 227.651 74.074 227.651 74.1235 227.601C74.1546 227.581 74.1908 227.569 74.228 227.568H74.327L74.481 227.607C75.251 227.865 75.9495 228.19 76.681 228.498C78.078 229.119 79.431 229.746 80.6795 230.351C83.215 231.556 85.4865 232.667 87.3895 233.613C87.8625 233.844 88.3135 234.08 88.748 234.273L89.991 234.795L91.9875 235.631L93.2415 236.181L93.566 236.33L93.6705 236.385L93.555 236.352L93.225 236.231L91.949 235.73L89.936 234.927L88.682 234.427C88.242 234.234 87.7965 234.003 87.3125 233.772L80.586 230.56C79.3155 229.966 77.979 229.339 76.582 228.723C75.889 228.421 75.174 228.091 74.4425 227.849L74.3105 227.816H74.25C74.25 227.816 74.25 227.783 74.25 227.761C74.4095 227.871 74.2885 227.794 74.3215 227.821C74.2484 227.906 74.1632 227.981 74.0685 228.041C73.9119 228.135 73.7785 228.263 73.678 228.415C73.5072 228.755 73.433 229.136 73.4635 229.515C73.4521 229.705 73.49 229.894 73.5735 230.065C73.6694 230.23 73.7859 230.381 73.92 230.516C74.1925 230.796 74.4867 231.053 74.8 231.286C75.427 231.754 76.0815 232.172 76.7305 232.562C78.034 233.354 79.332 234.053 80.5805 234.762C80.8885 234.938 81.191 235.109 81.4825 235.312C81.6255 235.406 81.774 235.494 81.9115 235.604C81.9987 235.662 82.0674 235.744 82.1095 235.84C82.1372 235.926 82.1557 236.014 82.1645 236.104C82.2041 236.745 82.2868 237.383 82.412 238.013C82.6587 239.134 83.2196 240.162 84.029 240.977C84.7168 241.629 85.4792 242.198 86.3005 242.671C86.9205 243.036 87.5699 243.349 88.242 243.606C88.666 243.769 89.1017 243.9 89.5455 243.997C89.694 244.03 89.815 244.046 89.892 244.057L89.9195 244.002Z" fill="#AA6550"/>
<path d="M74.1784 244.337C74.3689 244.368 74.5541 244.425 74.7284 244.508C75.2061 244.714 75.6523 244.986 76.0539 245.316C76.3356 245.545 76.5919 245.803 76.8184 246.086C76.9593 246.253 77.0659 246.445 77.132 246.653C77.1981 246.861 77.2224 247.079 77.2034 247.296C77.1517 247.538 77.0337 247.76 76.8627 247.937C76.6917 248.115 76.4745 248.242 76.2354 248.303C75.7402 248.426 75.2194 248.399 74.7394 248.226C73.1177 247.708 71.5487 247.038 70.0534 246.224C69.6032 245.979 69.1679 245.707 68.7499 245.41C68.5901 245.31 68.4408 245.194 68.3044 245.063C68.4781 245.136 68.6439 245.227 68.7994 245.333C69.1129 245.52 69.5694 245.778 70.1414 246.075C71.6433 246.832 73.2007 247.474 74.7999 247.995C75.2336 248.152 75.7034 248.181 76.1529 248.077C76.3533 248.032 76.5368 247.93 76.6826 247.786C76.8284 247.641 76.9307 247.458 76.9779 247.258C76.9942 247.068 76.9729 246.878 76.9153 246.696C76.8577 246.515 76.765 246.347 76.6424 246.202C76.4331 245.925 76.1953 245.67 75.9329 245.443C75.3969 245.002 74.8074 244.631 74.1784 244.337Z" fill="#AA6550"/>
<path d="M155.062 230.296L145.998 230.483C145.998 230.483 132.413 225.572 129.619 226.045C127.1 226.463 117.887 232.584 116.083 233.8C115.88 233.93 115.725 234.123 115.643 234.35C115.465 234.829 115.48 235.358 115.686 235.826C115.891 236.294 116.27 236.664 116.743 236.858L116.936 236.94L116.853 237.215C116.744 237.571 116.695 237.943 116.71 238.315C116.732 238.596 116.844 238.864 117.028 239.078C117.212 239.292 117.459 239.442 117.734 239.506C118.009 239.57 118.297 239.546 118.557 239.435C118.817 239.325 119.035 239.135 119.18 238.893L118.833 239.509C118.691 239.759 118.624 240.046 118.641 240.334L118.674 240.884C118.69 241.188 118.798 241.48 118.983 241.721C119.169 241.963 119.423 242.142 119.713 242.237C119.989 242.326 120.286 242.335 120.567 242.261C120.847 242.186 121.101 242.033 121.297 241.819C122.463 240.537 124.988 237.969 126.693 237.677C128.545 237.455 130.41 237.361 132.275 237.397C132.654 237.399 133.024 237.516 133.336 237.732C133.648 237.947 133.888 238.252 134.024 238.607C133.012 238.678 125.95 242.358 123.453 243.678C123.066 243.871 122.732 244.155 122.479 244.505C122.226 244.856 122.062 245.263 122.001 245.691C121.908 246.472 122.304 247.291 123.849 246.928C127.149 246.153 133.144 243.408 133.144 243.408C133.144 243.408 136.23 242.528 138.226 243.958C141.031 245.938 142.318 246.664 144.733 245.867C146.198 245.376 147.603 244.723 148.924 243.92L157.141 244.717C157.141 244.717 162.168 236.5 155.062 230.296Z" fill="#B78876"/>
<path d="M134.079 232.777C134.079 232.832 133.111 232.524 131.527 232.425C129.454 232.285 127.377 232.636 125.466 233.451C123.555 234.265 121.862 235.519 120.527 237.111C119.504 238.326 119.064 239.228 119.02 239.201C119.093 238.977 119.194 238.765 119.323 238.568C119.635 238.016 119.992 237.49 120.39 236.995C121.709 235.344 123.417 234.046 125.36 233.217C127.304 232.388 129.422 232.053 131.527 232.243C132.16 232.296 132.787 232.403 133.403 232.562C133.634 232.612 133.861 232.684 134.079 232.777Z" fill="#AA6550"/>
<path d="M132.638 229.477C131.774 229.217 130.882 229.062 129.981 229.015C127.797 229.004 125.654 229.61 123.799 230.764C121.962 231.944 120.286 233.361 118.816 234.977L117.452 236.429C117.295 236.615 117.122 236.788 116.935 236.946C117.061 236.735 117.211 236.539 117.381 236.363C117.678 236 118.123 235.483 118.684 234.856C120.13 233.187 121.808 231.735 123.667 230.544C125.559 229.362 127.758 228.767 129.987 228.833C130.659 228.863 131.323 228.985 131.961 229.196C132.134 229.249 132.303 229.313 132.467 229.389C132.529 229.408 132.587 229.437 132.638 229.477Z" fill="#AA6550"/>
<path d="M94.8365 99.3189C91.8538 92.3853 86.6409 86.6465 80.025 83.0132C73.4091 79.3799 65.7693 78.0603 58.318 79.2637C50.8666 80.4672 44.0307 84.1248 38.895 89.6561C33.7592 95.1874 30.618 102.275 29.9697 109.795C29.3214 117.315 31.2033 124.837 35.3166 131.165C39.4299 137.494 45.539 142.267 52.6745 144.728C59.8099 147.189 67.5629 147.197 74.703 144.749C81.8431 142.302 87.9612 137.54 92.0865 131.219L105.176 131.004L96.6405 120.725C98.388 113.584 97.7545 106.067 94.8365 99.3189Z" fill="#FAFAFA"/>
<path d="M50.2865 81.532C50.0976 81.5929 49.9137 81.6683 49.7365 81.7575L48.1745 82.5C47.828 82.6705 47.4375 82.8355 47.025 83.05L45.705 83.8475L44.1705 84.788L42.5205 86.031C39.7166 88.186 37.2862 90.7873 35.3265 93.731C32.6997 97.6136 30.8918 101.991 30.0135 106.596C29.0018 112.206 29.3794 117.978 31.1135 123.409C31.6065 124.885 32.1944 126.327 32.8735 127.727C33.2365 128.431 33.539 129.173 33.9735 129.855L35.255 131.918C37.1212 134.712 39.3897 137.216 41.987 139.348C44.7308 141.561 47.78 143.365 51.04 144.705C54.4776 146.039 58.101 146.833 61.7815 147.059C65.5979 147.317 69.4299 146.898 73.1005 145.822C74.0367 145.575 74.9554 145.266 75.8505 144.898C76.7744 144.583 77.6797 144.215 78.562 143.798C80.3473 142.941 82.0566 141.935 83.6715 140.789C87.1484 138.312 90.1328 135.208 92.4715 131.637L92.1635 131.808L105 131.483H105.759L105.286 130.889L97.0365 120.571L97.108 120.885C98.3785 115.667 98.4049 110.224 97.185 104.995C96.6305 102.557 95.7829 100.195 94.6605 97.9605C94.1622 96.8666 93.5831 95.8113 92.928 94.8035L91.993 93.3075C91.6685 92.8235 91.2835 92.3835 90.9425 91.9215C86.0093 85.516 78.9608 81.0716 71.0545 79.3815C68.1339 78.7303 65.1376 78.4841 62.15 78.65L60.258 78.771L58.5365 79.046L56.958 79.3045C56.4685 79.4145 56.0065 79.5575 55.5665 79.673C54.692 79.926 53.9165 80.091 53.2565 80.3385L51.6065 80.9765L50.6 81.4C50.4859 81.4378 50.3769 81.4895 50.2755 81.554C50.3966 81.5362 50.5149 81.5029 50.6275 81.455L51.6395 81.114L53.2895 80.531C53.944 80.311 54.7305 80.157 55.605 79.926C61.9862 78.3962 68.6742 78.75 74.8585 80.9445C81.0428 83.139 86.4578 87.08 90.4475 92.29C90.783 92.7465 91.157 93.181 91.4705 93.654L92.3835 95.128C93.0231 96.1193 93.5858 97.1582 94.0665 98.2355C95.1602 100.431 95.9838 102.75 96.5195 105.144C97.6948 110.27 97.6515 115.601 96.393 120.709L96.349 120.879L96.4645 121.022C99.1265 124.355 101.876 127.8 104.714 131.357L105 130.741L92.158 131.049H91.96L91.8445 131.219C88.4831 136.346 83.7834 140.456 78.254 143.105C77.3901 143.521 76.5032 143.889 75.5975 144.205C74.719 144.567 73.8167 144.868 72.897 145.107C69.3053 146.152 65.5574 146.556 61.8255 146.3C58.2256 146.079 54.6809 145.307 51.315 144.012C48.1149 142.701 45.1212 140.933 42.427 138.765C39.8836 136.681 37.6599 134.235 35.827 131.505C35.398 130.829 34.98 130.158 34.562 129.492C34.144 128.827 33.847 128.095 33.462 127.408C32.7886 126.036 32.2062 124.621 31.7185 123.173C30.1193 118.316 29.6467 113.16 30.3367 108.094C31.0266 103.028 32.8609 98.186 35.7005 93.9345C37.6102 91.0052 39.9821 88.4048 42.724 86.2345L44.319 84.975L45.8205 84.0125L47.113 83.182C47.52 82.951 47.905 82.775 48.213 82.599L49.742 81.8015C49.9313 81.7283 50.1135 81.6381 50.2865 81.532Z" fill="#263238"/>
<path d="M73.389 130.044L75.347 130.04C76.4405 130.038 77.3253 129.15 77.3232 128.056L77.2658 98.1472C77.2637 97.0537 76.3755 96.1689 75.282 96.171L73.324 96.1748C72.2305 96.1769 71.3457 97.065 71.3478 98.1586L71.4052 128.067C71.4073 129.161 72.2955 130.046 73.389 130.044Z" fill="#E0E0E0"/>
<path d="M63.6979 130.064L65.6559 130.06C66.7494 130.058 67.6342 129.17 67.6321 128.076L67.5746 98.1672C67.5725 97.0737 66.6844 96.1889 65.5908 96.191L63.6329 96.1948C62.5393 96.1969 61.6546 97.0851 61.6567 98.1786L61.7141 128.088C61.7162 129.181 62.6044 130.066 63.6979 130.064Z" fill="#E0E0E0"/>
<path d="M52.7308 130.081L54.6888 130.077C55.7823 130.075 56.6671 129.187 56.665 128.093L56.6076 98.1845C56.6055 97.091 55.7173 96.2062 54.6238 96.2083L52.6658 96.2121C51.5723 96.2142 50.6875 97.1024 50.6896 98.1959L50.747 128.105C50.7491 129.198 51.6373 130.083 52.7308 130.081Z" fill="#E0E0E0"/>
<path d="M74.283 130.042C74.035 130.01 73.7889 129.964 73.546 129.904C72.8526 129.71 72.2613 129.255 71.896 128.634C71.6314 128.196 71.4907 127.694 71.489 127.182C71.489 126.604 71.489 125.983 71.489 125.312C71.489 123.964 71.489 122.441 71.489 120.752C71.489 117.37 71.489 113.349 71.489 108.894C71.489 106.661 71.489 104.318 71.489 101.887V100.05C71.4458 99.4466 71.4846 98.8398 71.6045 98.2464C71.8004 97.6823 72.1709 97.1952 72.6623 96.8558C73.1537 96.5164 73.7404 96.3423 74.3374 96.3589C74.9344 96.3754 75.5106 96.5817 75.9824 96.9478C76.4542 97.3139 76.7972 97.8208 76.9615 98.3949C77.0471 98.9959 77.0766 99.6035 77.0495 100.21C77.0495 100.826 77.0495 101.442 77.0495 102.047C77.0495 104.478 77.0495 106.821 77.0495 109.054C77.0495 113.514 77.0935 117.529 77.11 120.917C77.11 122.6 77.11 124.129 77.1485 125.471C77.1485 126.142 77.1485 126.775 77.1485 127.336C77.1254 127.848 76.9596 128.343 76.67 128.766C76.2657 129.359 75.6533 129.779 74.954 129.943C74.47 130.047 74.206 130.02 74.206 130.042C74.4606 130.075 74.719 130.066 74.9705 130.014C75.7041 129.876 76.3551 129.458 76.7855 128.848C77.1055 128.409 77.296 127.889 77.3355 127.347C77.3355 126.764 77.3355 126.148 77.3355 125.471C77.3355 124.129 77.3355 122.6 77.3355 120.917C77.3355 117.529 77.3355 113.514 77.3355 109.054C77.3355 106.821 77.3355 104.478 77.3355 102.047V99.2969C77.3475 98.9697 77.3161 98.6424 77.242 98.3234C77.0754 97.6619 76.6928 97.0749 76.1548 96.6554C75.6168 96.236 74.9542 96.0081 74.272 96.0079C73.5911 95.9779 72.9191 96.1711 72.358 96.5579C71.8038 96.9485 71.3939 97.5111 71.192 98.1584C71.0973 98.476 71.0509 98.806 71.0545 99.1374V100.067C71.0545 100.683 71.0545 101.299 71.0545 101.904C71.0545 104.335 71.0545 106.678 71.082 108.911C71.082 113.366 71.126 117.386 71.1425 120.774C71.1425 122.457 71.17 123.981 71.1755 125.328C71.1755 125.999 71.1755 126.621 71.1755 127.198C71.1825 127.741 71.3406 128.27 71.632 128.727C72.0243 129.364 72.6534 129.819 73.381 129.992C73.675 130.071 73.9822 130.088 74.283 130.042Z" fill="#263238"/>
<path d="M64.592 130.058C64.3424 130.027 64.0946 129.983 63.8495 129.926C63.2543 129.755 62.7316 129.393 62.3612 128.896C61.9908 128.4 61.793 127.796 61.798 127.176C61.798 126.599 61.798 125.977 61.798 125.306C61.798 123.964 61.798 122.435 61.798 120.752C61.798 117.364 61.798 113.349 61.798 108.889V100.067C61.7518 99.4649 61.7907 98.8595 61.9135 98.2684C62.1059 97.7011 62.4749 97.2104 62.9663 96.8679C63.4578 96.5255 64.046 96.3494 64.6447 96.3654C65.2435 96.3814 65.8215 96.5886 66.2939 96.9568C66.7664 97.3249 67.1087 97.8347 67.2705 98.4114C67.3569 99.0123 67.3845 99.6201 67.353 100.226C67.353 100.848 67.353 101.458 67.353 102.069C67.353 104.494 67.353 106.837 67.353 109.07C67.353 113.531 67.397 117.551 67.4135 120.934C67.4135 122.622 67.4135 124.146 67.4465 125.493C67.4465 126.159 67.4465 126.791 67.4465 127.358C67.4234 127.87 67.2577 128.365 66.968 128.788C66.559 129.379 65.9459 129.798 65.2465 129.965C64.768 130.064 64.4985 130.036 64.504 130.058C64.7553 130.1 65.0117 130.1 65.263 130.058C65.9975 129.916 66.6492 129.496 67.0835 128.887C67.4052 128.451 67.596 127.932 67.6335 127.391C67.661 126.802 67.6335 126.186 67.6335 125.515C67.6335 124.168 67.6335 122.639 67.6335 120.956C67.6335 117.573 67.6335 113.553 67.6335 109.092C67.6335 106.859 67.6335 104.516 67.6335 102.085V100.248C67.6335 99.9404 67.6335 99.6324 67.6335 99.3189C67.6481 98.9916 67.6166 98.6639 67.54 98.3454C67.3746 97.6843 66.993 97.0974 66.4559 96.6779C65.9188 96.2584 65.257 96.0303 64.5755 96.0299C63.8957 95.9962 63.224 96.1891 62.6656 96.5783C62.1072 96.9675 61.6938 97.531 61.49 98.1804C61.3976 98.4983 61.3532 98.8283 61.358 99.1594V100.089C61.358 100.71 61.358 101.321 61.358 101.931C61.358 104.357 61.358 106.7 61.358 108.933C61.358 113.393 61.402 117.408 61.424 120.796C61.424 122.479 61.424 124.008 61.457 125.35C61.457 126.021 61.457 126.648 61.457 127.22C61.4624 127.762 61.6185 128.292 61.908 128.749C62.3034 129.386 62.9339 129.84 63.6625 130.014C63.9649 130.1 64.2829 130.115 64.592 130.058Z" fill="#263238"/>
<path d="M53.625 130.08C53.3751 130.049 53.1272 130.003 52.8825 129.943C52.2918 129.773 51.7724 129.415 51.4024 128.924C51.0324 128.433 50.8319 127.835 50.831 127.22C50.831 126.643 50.831 126.021 50.831 125.35C50.831 124.003 50.831 122.479 50.831 120.796C50.831 117.408 50.831 113.393 50.831 108.933V100.1C50.7848 99.498 50.8236 98.8925 50.9465 98.3014C51.1389 97.7342 51.5078 97.2434 51.9993 96.901C52.4907 96.5586 53.0789 96.3825 53.6777 96.3984C54.2765 96.4144 54.8544 96.6217 55.3269 96.9898C55.7994 97.358 56.1416 97.8677 56.3035 98.4444C56.3898 99.0453 56.4174 99.6532 56.386 100.259C56.386 100.875 56.386 101.491 56.386 102.096C56.386 104.527 56.386 106.87 56.386 109.103C56.386 113.564 56.43 117.584 56.4465 120.967C56.4465 122.65 56.4465 124.179 56.4795 125.526C56.4795 126.192 56.4795 126.824 56.4795 127.385C56.4563 127.897 56.2906 128.393 56.001 128.815C55.5933 129.409 54.9799 129.83 54.2795 129.998C53.801 130.097 53.5315 130.069 53.537 130.091C53.7883 130.133 54.0447 130.133 54.296 130.091C54.9284 129.967 55.5023 129.638 55.9288 129.155C56.3553 128.672 56.6107 128.061 56.6555 127.418C56.6555 126.835 56.6555 126.219 56.6555 125.548C56.6555 124.201 56.6555 122.672 56.6555 120.989C56.6555 117.601 56.6555 113.586 56.6555 109.125C56.6555 106.892 56.6555 104.549 56.6555 102.118V99.3684C56.6645 99.0413 56.6331 98.7143 56.562 98.3949C56.3945 97.7339 56.0117 97.1474 55.4739 96.7281C54.9361 96.3088 54.2739 96.0806 53.592 96.0794C52.9122 96.0458 52.2404 96.2387 51.682 96.6279C51.1236 97.0171 50.7102 97.5805 50.5065 98.2299C50.4167 98.5485 50.3723 98.878 50.3745 99.2089V100.1C50.3745 100.721 50.3745 101.332 50.3745 101.937C50.3745 104.368 50.3745 106.711 50.3745 108.944C50.3745 113.404 50.4185 117.419 50.4405 120.807C50.4405 122.49 50.4405 124.019 50.4735 125.361C50.4735 126.032 50.4735 126.654 50.4735 127.231C50.4788 127.773 50.635 128.303 50.9245 128.76C51.3198 129.397 51.9503 129.851 52.679 130.025C52.9857 130.118 53.3097 130.136 53.625 130.08Z" fill="#263238"/>
<path d="M68.783 102.85C68.7852 103.672 68.5433 104.477 68.088 105.162C67.6327 105.847 66.9844 106.382 66.2251 106.699C65.4659 107.015 64.6298 107.099 63.8226 106.941C63.0155 106.782 62.2736 106.387 61.6907 105.807C61.1079 105.226 60.7104 104.486 60.5484 103.679C60.3865 102.873 60.4674 102.037 60.7809 101.276C61.0945 100.516 61.6265 99.8651 62.3098 99.4071C62.9931 98.949 63.7969 98.704 64.6195 98.7029C65.7213 98.7014 66.7787 99.1373 67.5594 99.9149C68.34 100.692 68.7801 101.748 68.783 102.85Z" fill="#9269AD"/>
<path d="M57.8325 113.141C57.8336 113.963 57.5908 114.767 57.1348 115.452C56.6788 116.136 56.0301 116.67 55.2708 116.985C54.5114 117.301 53.6755 117.385 52.8687 117.225C52.0619 117.066 51.3205 116.671 50.7382 116.09C50.1559 115.509 49.759 114.769 49.5975 113.963C49.4359 113.156 49.5172 112.32 49.8309 111.56C50.1446 110.8 50.6767 110.15 51.3598 109.692C52.043 109.234 52.8466 108.989 53.669 108.988C54.215 108.987 54.7558 109.094 55.2606 109.302C55.7653 109.511 56.2241 109.816 56.6107 110.202C56.9974 110.588 57.3042 111.046 57.5139 111.55C57.7235 112.054 57.8318 112.594 57.8325 113.141Z" fill="#9269AD"/>
<path d="M78.0321 120.915C78.876 118.779 77.8288 116.363 75.693 115.52C73.5573 114.676 71.1419 115.723 70.298 117.859C69.4541 119.994 70.5014 122.41 72.6371 123.254C74.7728 124.098 77.1883 123.05 78.0321 120.915Z" fill="#9269AD"/>
<path d="M43.824 250.976H126.781L116.078 192.753C115.894 191.752 115.365 190.848 114.583 190.197C113.801 189.545 112.816 189.189 111.799 189.189H37.257C36.6162 189.189 35.9832 189.33 35.4034 189.603C34.8236 189.876 34.3112 190.274 33.9029 190.768C33.4946 191.262 33.2005 191.84 33.0416 192.46C32.8826 193.081 32.8628 193.73 32.9835 194.359L43.824 250.976Z" fill="#455A64"/>
<path d="M126.78 250.976H158.246L158.119 250.882C155.312 248.781 151.923 247.599 148.417 247.5L125.917 246.84L126.78 250.976Z" fill="#455A64"/>
<path d="M106.854 189.266C106.854 189.266 107.085 189.227 107.525 189.222C108.166 189.231 108.797 189.387 109.368 189.678C110.267 190.142 111.026 190.836 111.568 191.691C112.253 192.849 112.714 194.125 112.926 195.453C113.196 196.927 113.432 198.561 113.729 200.304C114.026 202.048 114.345 203.912 114.714 205.87C115.44 209.781 116.292 214.071 117.227 218.57C119.097 227.562 120.83 235.691 121.968 241.598C122.518 244.552 122.975 246.944 123.277 248.6C123.42 249.414 123.536 250.052 123.624 250.508C123.662 250.712 123.695 250.871 123.717 251.003C123.727 251.06 123.742 251.115 123.761 251.168C123.771 251.112 123.771 251.054 123.761 250.998C123.761 250.866 123.723 250.701 123.695 250.497C123.624 250.035 123.53 249.397 123.404 248.583C123.145 246.933 122.738 244.519 122.194 241.56C121.094 235.636 119.411 227.496 117.541 218.504C116.611 214.01 115.742 209.704 115.005 205.815C114.631 203.863 114.301 202.004 113.993 200.26C113.685 198.517 113.443 196.894 113.152 195.409C112.922 194.06 112.439 192.767 111.727 191.598C111.156 190.726 110.359 190.025 109.423 189.568C108.833 189.278 108.181 189.138 107.525 189.161C107.298 189.166 107.072 189.201 106.854 189.266Z" fill="#263238"/>
<path d="M78.6701 221.609C80.2359 220.043 80.2359 217.504 78.6701 215.938C77.1043 214.372 74.5656 214.372 72.9998 215.938C71.434 217.504 71.434 220.043 72.9998 221.609C74.5656 223.174 77.1043 223.174 78.6701 221.609Z" fill="#F5F5F5"/>
<path d="M261.916 250.921C261.916 250.998 208.269 251.064 142.109 251.064C75.9495 251.064 22.2915 250.998 22.2915 250.921C22.2915 250.844 75.9 250.8 142.109 250.8C208.318 250.8 261.916 250.844 261.916 250.921Z" fill="#263238"/>
</svg>
