<svg width="204" height="201" viewBox="0 0 204 201" fill="none" xmlns="http://www.w3.org/2000/svg">
<path d="M102 200.968C158.333 200.968 204 174.603 204 142.079C204 109.556 158.333 83.1902 102 83.1902C45.667 83.1902 0 109.556 0 142.079C0 174.603 45.667 200.968 102 200.968Z" fill="#FAFAFA"/>
<path d="M101.999 186.496C120.675 186.496 135.815 177.755 135.815 166.971C135.815 156.188 120.675 147.447 101.999 147.447C83.322 147.447 68.1816 156.188 68.1816 166.971C68.1816 177.755 83.322 186.496 101.999 186.496Z" fill="#E0E0E0"/>
<path d="M112.725 162.392L114.481 161.311L112.607 160.978L112.725 162.392Z" fill="#263238"/>
<path d="M131.366 164.022C131.366 164.022 108.622 156.313 108.491 157.804C108.465 158.1 108.498 158.399 108.59 158.682L108.523 158.61L109.194 161.311C110.241 162.007 111.467 162.385 112.724 162.401C112.724 162.27 112.648 161.455 112.607 160.987C113.306 161.2 113.983 161.479 114.629 161.82C116.115 162.608 117.173 164.135 118.839 165.873C120.05 167.134 122.041 167.584 124.931 167.715C128.043 167.854 130.691 167.008 131.375 166.111C131.92 165.377 131.497 164.202 131.366 164.022Z" fill="#263238"/>
<path d="M130.714 163.572C130.484 163.374 129.624 162.595 128.462 161.771C127.463 161.046 126.292 160.123 125.058 159.402C124.465 159.071 123.9 158.692 123.369 158.267C122.951 157.898 122.545 157.511 122.163 157.101C120.99 155.82 119.963 154.412 119.101 152.904C118.682 152.197 118.119 151.157 118.137 148.091C118.169 143.651 118.835 138.878 119.231 134.542L107.109 136.955C107.56 138.581 108.802 144.452 109.145 146.317C109.667 149.149 110.045 150.896 109.744 152.229C109.541 153.13 108.253 155.597 108.298 156.498C108.375 157.97 109.649 159.118 111 159.713C112.126 160.204 113.377 160.339 114.476 160.87C115.601 161.486 116.607 162.297 117.448 163.266C118.272 164.13 118.97 165.179 120.06 165.738C121.271 166.359 122.383 166.481 123.73 166.638C125.33 166.767 126.939 166.693 128.521 166.418C130.795 166.003 132.398 165.022 130.714 163.572Z" fill="#FFA8A7"/>
<path d="M129.309 162.095C128.296 161.397 126.855 160.397 125.121 159.281C124.551 159.141 123.957 159.126 123.38 159.235C122.803 159.345 122.256 159.577 121.776 159.916C118.705 161.924 118.385 164.378 118.385 164.378C119.038 165.409 120.067 166.146 121.253 166.431C125.153 167.701 131.795 166.539 131.691 164.815C131.628 163.721 130.543 162.946 129.309 162.095ZM109.694 151.779C109.694 151.779 108.897 153.81 108.434 154.971C107.97 156.133 107.983 157.223 108.789 158.281C109.212 158.82 109.74 159.267 110.342 159.595C110.944 159.922 111.606 160.123 112.288 160.186C113.022 156.827 111.081 152.36 109.694 151.779Z" fill="#37474F"/>
<path d="M86.585 156.691C87.1568 157.709 86.1797 161.388 86.1932 164.04C86.1932 166.454 86.6435 170.677 85.7969 173.014C84.7793 175.793 82.4603 178.368 79.0876 175.77C77.417 174.487 76.2553 172.118 76.2598 168.647C76.2598 166.233 77.4666 163.108 78.4392 160.195C79.5739 156.79 80.0287 154.967 80.0287 154.967L86.585 156.691Z" fill="#263238"/>
<path d="M80.5732 138.626C80.0688 144.223 80.5416 148.194 80.4065 151.788C80.315 153.419 80.0646 155.037 79.6591 156.619C79.0782 158.871 78.1191 162.023 77.7093 163.509C77.1374 165.562 76.7142 166.854 77.3311 169.214C77.3804 169.4 77.4514 169.58 77.5427 169.75C78.4433 171.718 80.9604 173.285 81.7934 173.091C81.9509 173.313 82.1687 173.484 82.421 173.586C82.6732 173.687 82.9493 173.714 83.2164 173.663L83.4955 173.609C83.5904 173.581 83.6836 173.548 83.7747 173.51C84.1202 173.342 84.4273 173.104 84.6768 172.812C84.9263 172.52 85.1128 172.18 85.2247 171.812C85.2865 171.647 85.3391 171.479 85.3823 171.308C86.1162 168.449 85.7695 166.557 85.7695 165.427C85.7695 164.117 85.9226 162.46 86.1388 160.361C86.3549 158.263 87.1744 151.675 88.0615 148.55C88.7144 146.371 89.5249 143.637 90.385 140.72L80.5732 138.626Z" fill="#FFA8A7"/>
<path d="M77.078 166.188C79.1493 165.395 85.0301 165.544 85.8316 168.439C85.7281 171.11 85.4759 173.793 83.8459 175.162C80.9145 177.625 78.6495 174.734 77.6183 172.605C76.5872 170.475 76.7358 167.611 77.078 166.188Z" fill="#37474F"/>
<path d="M90.237 67.3986C87.1345 72.3518 85.626 75.5308 84.2436 88.936C82.6811 104.061 83.0053 109.145 82.8432 110.973C82.6811 112.801 81.3347 116.102 79.8983 125.067C78.4619 134.033 78.4844 155.93 78.4844 155.93C78.4844 155.93 79.1328 157.434 82.5911 157.93C85.7836 158.38 87.7199 157.362 87.7199 157.362C87.7199 157.362 94.1771 128.913 95.6945 123.545C96.6897 120.015 98.9862 111.167 100.436 105.534C101.337 101.805 101.999 99.68 101.999 99.68L104.655 115.922C104.655 115.922 104.034 119.921 105.416 128.4C106.704 136.275 109.505 149.784 109.505 149.784C109.505 149.784 110.491 150.973 113.238 150.937C116.966 150.887 118.641 149.707 118.641 149.707C118.641 149.707 119.992 120.727 119.871 111.752C119.749 102.778 119.173 80.448 116.138 67.2004L90.237 67.3986Z" fill="#37474F"/>
<path d="M105.242 84.1584L101.999 99.6844L104.656 115.926L103.679 99.3917L106.183 87.0492C108.358 86.4999 113.288 83.8387 114.603 80.1147C111.289 83.645 105.242 84.1584 105.242 84.1584ZM88.7969 129.052C87.6922 133.675 86.6505 138.312 85.6719 142.962C87.0167 138.402 88.3016 133.827 89.5264 129.237C90.7647 124.649 91.9489 120.065 93.1287 115.445C94.3085 110.825 95.083 106.119 95.8034 101.423C96.5239 96.726 97.1543 92.0159 97.6857 87.2969C96.7851 91.9619 95.9205 96.6314 95.065 101.301C94.2094 105.97 93.3178 110.626 92.1876 115.219C91.0574 119.812 89.8821 124.432 88.7969 129.052ZM115.999 106.858C116.157 108.911 116.341 110.978 116.368 113.013C116.395 115.048 116.328 117.129 116.283 119.196L116.157 125.392C116.07 129.525 116.031 133.662 116.04 137.802C116.403 133.677 116.692 129.549 116.909 125.419C117.125 121.285 117.318 117.165 117.336 113C117.192 108.816 116.71 104.719 116.211 100.603C115.711 96.4873 115.076 92.4032 114.31 88.3326L115.468 100.684C115.639 102.742 115.837 104.8 115.999 106.858Z" fill="#263238"/>
<path d="M93.0327 16.3988C90.295 18.1189 90.331 20.564 90.2995 26.4898C90.268 32.4157 90.5336 48.5991 90.5336 48.5991H111.76V23.9547C111.76 23.9547 113.719 21.2079 113.48 18.3801C113.242 15.5522 111.562 11.8734 106.469 10.7972C102.228 9.89659 94.1089 10.7972 93.0327 16.3988Z" fill="#263238"/>
<path d="M110 38.2649C114.674 38.5126 125.711 43.808 128.336 45.2669C131.191 46.852 136.801 54.3178 136.801 54.3178C136.801 54.3178 136.293 56.7403 130.659 55.8353C125.931 55.0743 116.898 52.6832 116.898 52.6832L110 38.2649Z" fill="#FFA8A7"/>
<path d="M128.813 54.6105C126.801 54.1017 124.013 51.9988 119.123 42.4526L128.813 54.6105Z" fill="#F28F8F"/>
<path d="M87.8467 72.3386C87.0362 70.9246 90.5485 65.9669 89.9586 63.2067C89.3642 60.5049 87.9773 54.4035 87.9773 54.4035C87.9773 54.4035 92.0614 50.2923 90.7781 39.724L96.7129 38.3731L101.666 38.0849L106.304 37.7021L110.006 38.2515C111.334 39.4448 114.319 42.1916 116.251 45.0464C119.043 49.1666 119.403 54.2954 116.409 57.5735C116.364 58.2219 115.864 64.1973 116.566 66.6604C116.845 67.6375 118.003 72.1629 117.341 73.4553C114.409 78.0573 97.2128 82.6592 87.8467 72.3386Z" fill="#E0E0E0"/>
<path d="M95.5339 30.9341C95.0042 31.007 94.4647 30.9441 93.966 30.7511C93.4674 30.5581 93.0261 30.2414 92.6835 29.8309C91.1886 28.1693 91.0535 26.4852 91.7604 25.364C92.3413 24.4634 93.7642 23.8645 94.7594 24.4904C95.7545 25.1163 95.8491 25.7107 96.2498 26.4672C96.6506 27.2237 97.6818 26.6383 97.3531 23.6078C99.4244 22.6442 99.1092 19.177 100.235 17.7541C101.996 15.5521 104.873 16.1375 105.805 16.6644C106.375 16.2678 107.043 16.0365 107.736 15.9959C108.429 15.9554 109.12 16.1073 109.732 16.4347C111.118 17.1867 112.033 18.7537 112.496 24.1392C112.947 29.6282 112.001 33.2756 110.727 34.4329C109.853 35.2299 108.232 35.7837 106.3 35.6396V37.9271C106.3 37.9271 111.051 44.3303 103.95 43.7809C98.6274 43.3576 96.7136 38.3774 96.7136 38.3774V30.0785C96.7136 30.0785 96.5921 30.7405 95.5339 30.9341Z" fill="#FFA8A7"/>
<path d="M107.39 30.3172C107.249 30.7131 106.956 31.0365 106.576 31.2164C106.196 31.3963 105.76 31.4178 105.364 31.2763C104.968 31.1348 104.645 30.8418 104.465 30.4618C104.285 30.0818 104.263 29.6459 104.405 29.25C105.457 29.4216 106.468 29.7833 107.39 30.3172Z" fill="#B16668"/>
<path d="M104.319 29.7632C104.313 30.0928 104.411 30.4159 104.598 30.6872C104.786 30.9585 105.053 31.1644 105.363 31.2762C105.541 31.3385 105.729 31.369 105.917 31.3662C105.917 30.9418 105.749 30.5348 105.449 30.2343C105.15 29.9338 104.743 29.7644 104.319 29.7632Z" fill="#F28F8F"/>
<path d="M104.052 24.5893C104.02 24.7067 103.965 24.8164 103.89 24.9118C103.814 25.0072 103.72 25.0863 103.613 25.1444C103.506 25.2024 103.389 25.2383 103.268 25.2497C103.147 25.2611 103.024 25.2478 102.909 25.2107C102.727 25.1613 102.565 25.0588 102.442 24.9164C102.32 24.774 102.243 24.5981 102.221 24.4115C102.199 24.2249 102.234 24.036 102.321 23.8693C102.407 23.7025 102.542 23.5654 102.707 23.4757C102.872 23.386 103.06 23.3478 103.247 23.366C103.434 23.3841 103.611 23.4579 103.756 23.5776C103.901 23.6974 104.006 23.8578 104.059 24.0381C104.112 24.2184 104.11 24.4104 104.052 24.5893Z" fill="#263238"/>
<path d="M111.366 21.3518L109.461 20.3161C109.523 20.1894 109.61 20.0767 109.716 19.9848C109.823 19.8929 109.948 19.8237 110.082 19.7816C110.217 19.7394 110.358 19.7251 110.498 19.7396C110.639 19.7541 110.774 19.7971 110.897 19.8658C111.15 20.0077 111.338 20.2403 111.425 20.5162C111.512 20.7922 111.491 21.0909 111.366 21.3518Z" fill="#263238"/>
<path d="M109.15 24.3779C109.187 24.4939 109.246 24.6012 109.325 24.6935C109.405 24.7859 109.502 24.8612 109.61 24.9151C109.719 24.9689 109.838 25.0002 109.96 25.0069C110.081 25.0136 110.202 24.9957 110.317 24.9543C110.496 24.898 110.654 24.7894 110.771 24.6423C110.888 24.4952 110.959 24.3165 110.973 24.1292C110.988 23.9418 110.946 23.7544 110.853 23.591C110.76 23.4277 110.62 23.2959 110.452 23.2126C110.283 23.1294 110.094 23.0985 109.908 23.1239C109.721 23.1493 109.547 23.2299 109.407 23.3552C109.267 23.4806 109.168 23.645 109.122 23.8272C109.076 24.0095 109.086 24.2013 109.15 24.3779Z" fill="#263238"/>
<path d="M102.735 20.5594L100.804 21.8337C100.714 21.7121 100.649 21.5733 100.615 21.4259C100.581 21.2784 100.577 21.1255 100.604 20.9766C100.631 20.8276 100.688 20.6858 100.772 20.5598C100.856 20.4339 100.965 20.3264 101.092 20.2442C101.354 20.0763 101.671 20.0154 101.977 20.074C102.282 20.1327 102.554 20.3064 102.735 20.5594Z" fill="#263238"/>
<path d="M113.721 21.6356L113.298 21.6041C111.988 21.5186 110.281 21.5456 109.272 21.8878C108.007 22.3381 107.579 22.7614 106.868 22.7884C106.156 22.8154 105.598 22.4101 104.202 22.0814C103.085 21.8248 101.271 21.9328 99.8837 22.1265L99.4334 22.1895C99.286 22.2351 99.1596 22.3318 99.0771 22.4622C98.9945 22.5926 98.9612 22.7482 98.9831 22.901C99.0539 23.2029 99.2102 23.4781 99.4334 23.6935C99.5047 23.7904 99.5594 23.8984 99.5955 24.0132C99.7756 24.567 99.9332 25.6387 100.257 26.2241C100.411 26.5161 100.614 26.7795 100.856 27.0031C100.948 27.087 101.048 27.1623 101.154 27.2283C101.208 27.2649 101.266 27.298 101.325 27.3273C101.482 27.413 101.648 27.4824 101.82 27.5345H101.901L102.032 27.566L102.171 27.593C102.32 27.6181 102.471 27.6347 102.621 27.6425H103.031C104.805 27.5795 105.494 26.7419 105.882 25.8684C106.269 24.9948 106.084 23.8151 106.899 23.788H106.98H107.052C107.665 23.9006 107.656 24.9993 108.084 25.7738C108.249 26.0841 108.462 26.3666 108.714 26.6114C108.763 26.6564 108.808 26.7014 108.863 26.7419C108.886 26.7639 108.912 26.7835 108.939 26.8005L109.02 26.859L109.092 26.9086L109.173 26.9536L109.236 26.9896H109.277C109.506 27.1057 109.75 27.189 110.002 27.2373H110.065C110.352 27.2849 110.643 27.3015 110.934 27.2868C112.591 27.2148 113.104 26.2511 113.338 25.6432C113.524 24.9043 113.647 24.1512 113.708 23.3918C113.728 23.2818 113.774 23.1783 113.843 23.0901C114.036 22.8518 114.149 22.5588 114.167 22.2525C114.16 22.1178 114.114 21.9879 114.035 21.8785C113.956 21.7691 113.847 21.6848 113.721 21.6356ZM105.418 25.1209C105.352 25.564 105.165 25.9802 104.877 26.3232C104.633 26.5743 104.338 26.7707 104.012 26.8996C103.686 27.0284 103.336 27.0867 102.986 27.0707C102.629 27.1005 102.27 27.0445 101.938 26.9074C101.607 26.7704 101.313 26.5562 101.081 26.2827C101.054 26.2556 101.036 26.2286 101.014 26.2016L100.955 26.1205C100.936 26.0968 100.92 26.0711 100.906 26.044L100.865 25.9765L100.834 25.9179C100.821 25.9041 100.811 25.887 100.807 25.8684C100.79 25.8423 100.775 25.8153 100.762 25.7873C100.721 25.7018 100.685 25.6207 100.654 25.5397L100.6 25.3956C100.573 25.31 100.546 25.229 100.528 25.1569V25.1119V25.0669C100.352 24.4815 100.122 23.3287 100.411 23.0541C100.699 22.7794 101.487 22.4777 102.811 22.5542H102.941C103.144 22.5542 103.346 22.5948 103.549 22.6308L103.783 22.6803C103.986 22.7225 104.186 22.7766 104.382 22.8424L104.567 22.9055L104.765 22.991H104.805L104.882 23.027C105.038 23.0946 105.177 23.1943 105.292 23.3197C105.562 23.689 105.53 24.459 105.418 25.1209ZM113.073 24.5715C113.001 25.0218 112.843 26.0395 111.943 26.5123C111.643 26.664 111.314 26.7485 110.979 26.76C110.6 26.8077 110.215 26.7584 109.861 26.6166C109.506 26.4748 109.194 26.2453 108.953 25.9494L108.912 25.8999L108.867 25.8369L108.844 25.8053L108.79 25.7108C108.768 25.6778 108.749 25.6432 108.732 25.6072C108.721 25.5902 108.712 25.572 108.705 25.5532V25.5262C108.697 25.5116 108.689 25.4966 108.682 25.4811V25.4451C108.617 25.3002 108.566 25.1494 108.529 24.9948C108.354 24.3419 108.232 23.5764 108.462 23.1937C108.691 22.8109 109.633 22.3831 110.565 22.2345C110.776 22.1985 110.979 22.1805 111.168 22.167H111.618H111.722H111.884C111.988 22.1752 112.092 22.1887 112.195 22.2075H112.267H112.316H112.388H112.478L112.627 22.257C112.636 22.2595 112.645 22.2595 112.654 22.257C112.774 22.3034 112.886 22.3671 112.987 22.4462C113.298 22.8064 113.185 23.9772 113.091 24.5715H113.073Z" fill="#37474F"/>
<path d="M109.461 26.9355L106.543 28.0432L106.201 24.9452C106.318 24.3688 106.417 23.869 106.913 23.824L109.461 26.9355Z" fill="#F28F8F"/>
<path d="M99.4113 22.2976L94.7598 24.4905C95.0127 24.6639 95.2507 24.8582 95.4712 25.0714L99.5238 23.2702L99.4113 22.2976Z" fill="#37474F"/>
<path d="M106.301 35.6576C103.523 35.5405 99.8031 34.5319 98.8125 32.7307C99.3574 34.667 101.312 35.6801 102.865 36.1259C103.975 36.45 105.116 36.6538 106.269 36.7338L106.301 35.6576Z" fill="#F28F8F"/>
<path d="M117.502 30.9971C117.502 30.9971 117.241 30.9025 117.114 30.3802C116.988 29.8579 116.993 29.4796 116.862 28.9123C116.732 28.3449 116.376 27.3768 115.822 27.3317C115.268 27.2867 115.129 28.5565 115.219 29.5832C115.386 30.538 115.242 31.5213 114.809 32.3885C114.26 33.5953 113.854 35.0903 114.674 36.3105L117.502 30.9971Z" fill="#F28F8F"/>
<path d="M120.902 28.6241C120.501 27.674 120.402 26.4357 120.218 25.6657C120.017 24.9104 119.714 24.1862 119.317 23.5133C118.912 22.7703 118.556 21.7796 118.268 21.7121C117.98 21.6446 117.538 22.0048 117.628 22.6127C117.628 22.6127 117.214 22.1984 116.849 21.7616C116.485 21.3248 116.21 20.762 115.76 20.708C115.309 20.6539 115.174 21.3744 115.386 21.8427C115.598 22.311 115.746 22.5812 115.746 22.5812C115.746 22.5812 115.336 22.8243 115.814 23.6574C116.012 23.9865 116.251 24.2891 116.525 24.5579C116.65 25.0972 116.88 25.6066 117.201 26.0574C117.396 26.6284 117.652 27.1765 117.966 27.692C117.735 28.2885 117.628 28.9259 117.651 29.5652C117.746 30.3667 117.894 30.5378 117.079 31.605C116.53 32.321 115.553 33.181 115.066 34.1401C114.58 35.0993 114.292 36.0854 115.179 37.1571C116.066 38.2288 116.746 38.9988 117.592 40.138C118.232 40.9981 118.903 42.1553 121.645 46.262C123.761 49.45 123.951 49.8643 124.932 50.99C126.283 52.5706 127.904 54.6419 131.043 55.493C134.181 56.344 137.572 55.5335 136.829 53.0839C135.928 50.148 134.78 47.901 133.227 46.4511C131.966 45.2666 130.61 44.1869 129.174 43.2225C127.548 42.0337 126.247 40.7549 124.221 39.0303C122.194 37.3057 120.758 35.5946 120.686 34.9417C120.564 33.8339 120.88 32.1724 121.028 31.3393C121.258 30.047 121.46 30.0695 120.902 28.6241Z" fill="#FFA8A7"/>
<path d="M114.676 36.2927C114.951 36.8425 115.311 37.3455 115.743 37.7832C116.13 38.265 116.517 38.7468 116.887 39.2376C117.256 39.7284 117.639 40.2193 117.999 40.7236C118.359 41.2279 118.773 41.9619 119.125 42.4707C118.728 41.9979 118.287 41.2774 117.904 40.7911C117.522 40.3048 117.148 39.8185 116.765 39.3322L115.635 37.8687L115.068 37.1348C114.879 36.8849 114.745 36.5979 114.676 36.2927Z" fill="#F28F8F"/>
<path d="M117.619 22.6172C117.703 22.884 117.81 23.1431 117.939 23.3917C118.065 23.6393 118.205 23.8825 118.344 24.1122L118.367 24.1482V24.2022C118.353 24.352 118.353 24.5027 118.367 24.6525C118.382 24.8045 118.409 24.955 118.448 25.1028C118.524 25.3933 118.645 25.6699 118.808 25.9223L118.848 25.9854L118.826 26.0439C118.789 26.1526 118.76 26.264 118.74 26.3771C118.717 26.4931 118.7 26.6104 118.691 26.7283C118.691 26.8454 118.691 26.967 118.691 27.0841C118.696 27.2062 118.708 27.328 118.727 27.4488C118.616 27.2235 118.548 26.9789 118.529 26.7283C118.517 26.601 118.517 26.4729 118.529 26.3456C118.536 26.2168 118.554 26.0887 118.583 25.9629L118.605 26.0799C118.396 25.8134 118.242 25.507 118.155 25.1793C118.111 25.0188 118.082 24.8545 118.069 24.6885C118.049 24.5195 118.049 24.3487 118.069 24.1797L118.092 24.2698C117.953 24.0158 117.84 23.7488 117.754 23.4727C117.666 23.196 117.621 22.9076 117.619 22.6172Z" fill="#F28F8F"/>
<path d="M115.738 22.5857C115.84 22.7082 115.954 22.8212 116.076 22.9234C116.199 23.0192 116.328 23.1064 116.463 23.1846H116.486V23.2296C116.61 23.5395 116.772 23.8329 116.968 24.1032C117.161 24.3662 117.401 24.592 117.675 24.7696L117.76 24.8236V24.9272C117.742 25.1084 117.742 25.2909 117.76 25.4721C117.777 25.6612 117.806 25.8492 117.846 26.0349C117.891 26.2195 117.94 26.4087 118.003 26.5888C118.066 26.7689 118.147 26.9535 118.219 27.1381C118.093 26.9837 117.978 26.8196 117.877 26.6473C117.777 26.4737 117.692 26.2913 117.625 26.1025C117.555 25.9099 117.506 25.7107 117.476 25.5081C117.436 25.302 117.426 25.0913 117.445 24.8822L117.521 25.0353C117.358 24.9416 117.207 24.8282 117.071 24.6976C116.942 24.5679 116.826 24.4262 116.724 24.2743C116.516 23.9739 116.363 23.6383 116.274 23.2836L116.319 23.3422C116.185 23.2403 116.064 23.1224 115.959 22.991C115.869 22.8657 115.795 22.7295 115.738 22.5857Z" fill="#F28F8F"/>
<path d="M118.313 28.7593C118.343 29.1205 118.291 29.484 118.159 29.822C118.031 30.1586 117.849 30.472 117.619 30.7496C117.678 30.5785 117.75 30.4163 117.817 30.2542L118.011 29.7679C118.131 29.4379 118.232 29.1011 118.313 28.7593Z" fill="#F28F8F"/>
<path d="M115.71 33.1316C115.573 33.7576 115.573 34.4058 115.71 35.0318C115.783 35.3368 115.897 35.6306 116.048 35.9054C116.205 36.1909 116.383 36.4647 116.579 36.7249C116.291 36.5455 116.039 36.3133 115.836 36.0405C115.624 35.7624 115.47 35.4436 115.386 35.1039C115.307 34.77 115.295 34.4238 115.351 34.0853C115.406 33.7468 115.529 33.4227 115.71 33.1316Z" fill="#F28F8F"/>
<path d="M82.9516 84.2803C82.3888 83.5374 81.6413 82.8619 81.4702 81.9073C81.4154 81.6638 81.4191 81.4107 81.4809 81.1689C81.5427 80.927 81.661 80.7033 81.8259 80.5159C81.9071 80.4526 81.972 80.3708 82.015 80.2773C82.0353 80.1929 82.0353 80.1049 82.015 80.0206C81.9576 79.6635 82.016 79.2974 82.1816 78.9759C82.2606 78.8454 82.3658 78.7328 82.4906 78.6452C82.6154 78.5576 82.7571 78.4969 82.9066 78.4671C82.7882 77.9336 82.8451 77.3762 83.0687 76.8776C83.3344 76.2922 84.0008 75.8689 84.3476 76.5849C84.5082 76.9378 84.6334 77.3059 84.7213 77.6836C84.944 78.6265 85.0574 79.592 85.059 80.5609C85.059 81.5696 85.059 84.4199 83.483 84.4109C83.3749 84.4064 83.0327 84.3839 82.9516 84.2803Z" fill="#F28F8F"/>
<path d="M91.3806 39.5889C86.4274 40.6471 84.9775 41.5701 82.0506 45.8929C78.6869 50.8462 74.094 56.754 72.7611 59.0279C71.1175 61.8468 70.7213 62.95 73.5806 66.3812C75.0531 68.1463 77.1379 70.2852 79.2408 72.6853C80.8979 74.572 82.9197 76.5938 84.5137 78.5391C84.7315 78.7531 84.8847 79.0242 84.9555 79.3213C85.0264 79.6183 85.0122 79.9293 84.9145 80.2187C84.75 80.599 84.6071 80.9884 84.4867 81.3849C84.4439 81.9154 84.4439 82.4485 84.4867 82.9789C84.4991 83.2451 84.4348 83.5092 84.3015 83.7399C84.1682 83.9706 83.9715 84.1581 83.7347 84.2803C83.4857 84.3531 83.2221 84.3609 82.9692 84.3028C83.38 84.6807 83.8462 84.9935 84.3516 85.2304C84.8621 85.4651 85.4419 85.5004 85.9772 85.3295C86.486 85.1403 86.8777 84.7126 87.4226 84.6045C87.7108 84.5505 88.008 84.6045 88.2962 84.5415C88.5934 84.4931 88.8669 84.3492 89.0752 84.1317C89.4039 83.7895 89.5795 83.2671 90.0163 83.078C90.2336 83.0147 90.4547 82.965 90.6782 82.9294C90.8971 82.8492 91.0933 82.7171 91.2501 82.5446C91.4069 82.3721 91.5197 82.1643 91.5788 81.9388C91.6928 81.4874 91.7264 81.0194 91.6778 80.5564C91.6068 79.3102 91.4701 78.0687 91.2681 76.837C91.1784 76.412 91.0137 76.0064 90.7818 75.6392C90.5386 75.1889 90.3315 74.7701 90.0478 74.3604C88.2466 71.5596 82.5639 62.252 82.5639 62.252L91.1195 52.6248C91.1195 52.6248 95.3612 44.3484 91.3806 39.5889Z" fill="#FFA8A7"/>
<path d="M82.5403 62.2476C80.5635 63.8551 77.7402 63.7335 76.709 63.5714C79.0685 65.3996 83.0536 63.0851 83.0536 63.0851L82.5403 62.2476Z" fill="#F28F8F"/>
<path d="M140.51 108.267C142.937 106.889 146.278 107.101 149.966 109.231C157.382 113.513 163.398 123.933 163.398 132.497C163.398 136.779 161.899 139.783 159.467 141.188C158.459 141.773 155.892 143.246 154.879 143.826C152.447 145.227 149.097 145.024 145.391 142.885C137.97 138.603 131.959 128.183 131.959 119.619C131.959 115.346 133.454 112.342 135.872 110.937C136.885 110.347 139.483 108.852 140.51 108.267Z" fill="#37474F"/>
<path d="M162.903 128.044C163.222 129.507 163.388 130.999 163.399 132.497C163.399 136.779 161.899 139.783 159.468 141.188C158.459 141.773 155.892 143.246 154.879 143.826C152.447 145.227 149.097 145.024 145.391 142.885C144.102 142.13 142.895 141.242 141.789 140.238L162.903 128.044Z" fill="#263238"/>
<path d="M135.886 132.848C133.458 128.638 131.959 123.896 131.959 119.619C131.959 111.063 137.97 107.578 145.391 111.86C152.812 116.142 158.823 126.562 158.823 135.127C158.823 143.691 152.812 147.168 145.391 142.885C143.445 141.729 141.678 140.296 140.145 138.63L134.665 139.63C134.506 139.66 134.342 139.647 134.19 139.592C134.038 139.537 133.904 139.442 133.801 139.317C133.699 139.192 133.631 139.042 133.607 138.883C133.582 138.723 133.601 138.559 133.661 138.409L135.886 132.848Z" fill="#455A64"/>
<path d="M145.197 133.767C144.076 133.118 143.396 133.96 143.396 135.118C143.402 135.792 143.569 136.456 143.882 137.053C144.195 137.65 144.646 138.165 145.197 138.553C146.319 139.202 146.999 138.36 146.999 137.203C146.993 136.528 146.826 135.865 146.513 135.267C146.2 134.67 145.749 134.156 145.197 133.767ZM145.427 116.953C143.459 115.814 141.712 116.264 140.78 118.335C140.703 118.509 140.671 118.699 140.688 118.889C140.706 119.078 140.771 119.26 140.879 119.416L142.644 121.996C142.978 122.483 143.347 122.447 143.482 122.194C143.878 121.42 144.459 121.042 145.315 121.537C145.764 121.792 146.135 122.165 146.388 122.616C146.64 123.067 146.764 123.578 146.746 124.095C146.746 126.72 143.648 126.27 143.648 129.759V130.48C143.653 130.663 143.704 130.842 143.797 130.999C143.89 131.157 144.022 131.288 144.18 131.38L146.157 132.52C146.216 132.554 146.284 132.573 146.353 132.573C146.422 132.574 146.489 132.556 146.549 132.522C146.609 132.487 146.659 132.438 146.694 132.378C146.728 132.319 146.746 132.251 146.746 132.182V131.524C146.746 129.471 149.844 129.885 149.844 125.445C149.844 121.591 147.638 118.227 145.427 116.953Z" fill="#FAFAFA"/>
<path d="M72.049 102.656L69.6985 104.849L68.4287 102.206C69.8707 99.9786 70.5487 97.3423 70.3605 94.6953C70.1827 91.974 69.1126 89.3873 67.3159 87.3358C65.5191 85.2842 63.096 83.8825 60.4219 83.3475C57.7478 82.8126 54.9719 83.1744 52.5242 84.3769C50.0766 85.5793 48.0937 87.5554 46.8828 89.9989C45.6719 92.4424 45.3006 95.217 45.8263 97.893C46.352 100.569 47.7454 102.997 49.7908 104.801C51.8361 106.604 54.4191 107.683 57.1398 107.871C59.8605 108.058 62.5669 107.342 64.8399 105.836L69.3428 108.762L71.6933 105.885L75.2956 109.28L72.049 102.656Z" fill="white"/>
<path d="M62.2784 89.6342L57.9871 97.888C57.9256 98.0057 57.8331 98.1045 57.7196 98.1735C57.6062 98.2425 57.476 98.2793 57.3432 98.2798H56.2174C56.1071 98.2805 55.998 98.2559 55.8987 98.2078C55.7993 98.1597 55.7124 98.0894 55.6445 98.0024C55.5766 97.9154 55.5296 97.8139 55.5072 97.7059C55.4847 97.5978 55.4874 97.486 55.515 97.3792L57.6314 88.9137C57.6876 88.6915 57.8166 88.4946 57.9978 88.3543C58.1789 88.2139 58.4018 88.1382 58.631 88.1392H61.3643C61.5407 88.1378 61.7144 88.1821 61.8686 88.2678C62.0228 88.3535 62.1522 88.4776 62.2442 88.6281C62.3362 88.7786 62.3877 88.9503 62.3937 89.1266C62.3997 89.3029 62.36 89.4778 62.2784 89.6342ZM57.7755 101.171C57.7781 101.549 57.6683 101.92 57.46 102.235C57.2516 102.551 56.9541 102.798 56.6052 102.945C56.2563 103.091 55.8718 103.13 55.5004 103.058C55.1291 102.985 54.7876 102.804 54.5194 102.537C54.2513 102.27 54.0684 101.93 53.9942 101.559C53.9199 101.188 53.9576 100.803 54.1024 100.454C54.2471 100.104 54.4925 99.8053 54.8074 99.5954C55.1222 99.3856 55.4923 99.274 55.8707 99.2749C56.1216 99.2725 56.3705 99.3197 56.6031 99.4138C56.8357 99.5079 57.0474 99.6471 57.226 99.8232C57.4047 99.9994 57.5468 100.209 57.6442 100.44C57.7416 100.672 57.7923 100.92 57.7935 101.171H57.7755Z" fill="#455A64"/>
<path d="M76.4177 110.802L71.7121 106.385L69.3976 109.213L64.8407 106.259C63.0417 107.401 60.9865 108.077 58.8608 108.227C57.1925 108.349 55.5166 108.14 53.9293 107.612C52.3421 107.084 50.8748 106.248 49.6118 105.151C48.346 104.066 47.3094 102.739 46.5625 101.248C45.8156 99.7577 45.3735 98.1331 45.262 96.4695C45.1026 93.9593 45.6881 91.4579 46.945 89.2792C48.2018 87.1005 50.0741 85.3415 52.3268 84.2228C54.5796 83.1041 57.1126 82.6755 59.608 82.9909C62.1034 83.3064 64.4501 84.3517 66.3536 85.9957C68.6336 87.9645 70.1348 90.6833 70.5864 93.6616C71.0381 96.6399 70.4104 99.6815 68.8167 102.238L69.8029 104.305L72.1534 102.116L76.4177 110.802ZM64.8407 105.439L69.2625 108.317L71.6491 105.399L74.1797 107.772L71.9282 103.228L69.5732 105.421L68.0467 102.206L68.1458 102.049C69.7084 99.625 70.3412 96.7178 69.9273 93.864C69.5135 91.0102 68.081 88.4025 65.8943 86.5225C64.0929 84.9647 61.8715 83.9735 59.5089 83.6735C57.1462 83.3734 54.7476 83.7779 52.614 84.836C50.4803 85.8942 48.7067 87.5589 47.5157 89.6214C46.3248 91.6838 45.7694 94.0521 45.9194 96.429C46.0252 98.0034 46.4436 99.5411 47.1503 100.952C47.8569 102.363 48.8376 103.619 50.0351 104.647C51.2352 105.684 52.6282 106.473 54.1343 106.97C55.6404 107.467 57.2298 107.661 58.8113 107.542C60.9002 107.395 62.9162 106.713 64.665 105.561L64.8407 105.439Z" fill="#455A64"/>
<path d="M68.0311 36.1349L66.1174 34.0185L67.3107 30.5693V28.4619L63.6543 30.5693V32.6811L64.9106 34.3337L68.0311 36.1349Z" fill="#263238"/>
<path d="M75.4011 2.69164C75.3806 2.31126 75.2709 1.94103 75.0808 1.61091C74.8907 1.2808 74.6256 1.00006 74.3069 0.791412L73.4063 0.278081C73.0667 0.104923 72.691 0.0146484 72.3098 0.0146484C71.9287 0.0146484 71.5529 0.104923 71.2133 0.278081L57.5245 8.1942C57.2044 8.40182 56.9381 8.68221 56.7471 9.01247C56.5561 9.34273 56.446 9.71348 56.4258 10.0944V34.6623C56.4482 35.0428 56.5592 35.4127 56.7499 35.7427C56.9407 36.0726 57.2059 36.3534 57.5245 36.5626L58.4251 37.0759C58.7653 37.247 59.1408 37.3361 59.5215 37.3361C59.9023 37.3361 60.2778 37.247 60.618 37.0759L65.9494 34.0004C66.7448 35.364 68.0349 36.3687 69.5518 36.8057C69.6554 36.8359 69.7658 36.8341 69.8684 36.8005C69.971 36.7669 70.0611 36.703 70.1268 36.6174C70.1925 36.5317 70.2308 36.4282 70.2367 36.3204C70.2425 36.2126 70.2157 36.1055 70.1597 36.0132C69.7985 35.3993 69.5631 34.7196 69.4672 34.0138C69.3713 33.3079 69.4169 32.5901 69.6013 31.902L74.3069 29.1733C74.6253 28.9644 74.8903 28.6836 75.0803 28.3535C75.2704 28.0234 75.3802 27.6534 75.4011 27.273V2.69164Z" fill="#37474F"/>
<path d="M56.4355 34.6625C56.4565 35.0432 56.5669 35.4137 56.7578 35.7439C56.9487 36.074 57.2147 36.3545 57.5343 36.5627L58.4348 37.076C58.7437 37.231 59.0819 37.3192 59.4271 37.3347C59.7724 37.3502 60.1171 37.2928 60.4386 37.1661C59.9253 37.3597 59.5381 37.067 59.5381 36.4411V11.8777C59.5526 11.4958 59.6642 11.1239 59.8623 10.797L56.7733 8.99585C56.5768 9.32315 56.4668 9.69504 56.4536 10.0765L56.4355 34.6625Z" fill="#263238"/>
<path d="M75.3638 2.38554C75.2378 1.93525 74.8145 1.76864 74.3057 2.06133L60.6123 9.98196C60.2875 10.18 60.0216 10.4614 59.8423 10.797L56.7578 8.99582C56.9404 8.66121 57.2074 8.38022 57.5323 8.18079L71.2167 0.260165C71.5569 0.0890961 71.9324 0 72.3131 0C72.6939 0 73.0694 0.0890961 73.4096 0.260165L74.3102 0.778001C74.5871 0.958882 74.8236 1.19505 75.005 1.47169C75.1863 1.74832 75.3085 2.05945 75.3638 2.38554Z" fill="#455A64"/>
<path d="M65.4044 19.8027C65.4079 19.8987 65.3894 19.9942 65.3504 20.0819C65.3221 20.1652 65.2686 20.2376 65.1973 20.289L64.0986 21.0095C64.0748 21.0281 64.0454 21.0383 64.0152 21.0383C63.985 21.0383 63.9557 21.0281 63.9319 21.0095C63.9046 20.9856 63.883 20.9556 63.869 20.9221C63.8549 20.8885 63.8488 20.8522 63.8509 20.8159L63.6843 18.1637L61.4328 14.1381C61.4072 14.0957 61.3918 14.0479 61.3878 13.9985C61.3823 13.9193 61.3978 13.8401 61.4328 13.7688C61.4544 13.7004 61.4989 13.6415 61.5589 13.6022L62.7071 12.8457C62.8212 12.7737 62.9068 12.7602 62.9638 12.8052C63.0121 12.8342 63.0512 12.8764 63.0764 12.9268L64.3102 15.2998L65.1883 11.5309C65.2084 11.4442 65.2371 11.3597 65.2738 11.2787C65.3266 11.1594 65.4125 11.0578 65.5215 10.986L66.6697 10.234C66.6885 10.2179 66.7125 10.209 66.7373 10.209C66.762 10.209 66.786 10.2179 66.8048 10.234C66.8267 10.254 66.844 10.2783 66.8556 10.3055C66.8673 10.3327 66.873 10.3621 66.8723 10.3916C66.8704 10.454 66.8613 10.5159 66.8453 10.5763L65.2378 17.146L65.4044 19.8027Z" fill="#FAFAFA"/>
<path d="M71.2265 14.0301C71.2386 14.0227 71.2521 14.0178 71.2661 14.0156C71.2801 14.0134 71.2945 14.014 71.3083 14.0173C71.3221 14.0207 71.3351 14.0267 71.3465 14.0351C71.358 14.0435 71.3677 14.054 71.3751 14.0661C71.4182 14.1344 71.4342 14.2163 71.4201 14.2958L71.285 15.7367C71.2744 15.8378 71.2438 15.9358 71.195 16.0249C71.1577 16.101 71.098 16.1639 71.0239 16.205L67.0658 17.9702C67.041 17.984 67.012 17.9879 66.9845 17.9812C66.9569 17.9746 66.9329 17.9577 66.9172 17.9341C66.8741 17.8659 66.8581 17.784 66.8722 17.7045L67.6917 8.92381C67.701 8.82246 67.7317 8.72424 67.7818 8.63562C67.8178 8.55861 67.8778 8.49539 67.9529 8.45551L71.8434 6.71738C71.8682 6.70358 71.8972 6.69962 71.9247 6.70629C71.9523 6.71297 71.9763 6.7298 71.992 6.7534C72.0351 6.82168 72.0511 6.90357 72.037 6.98305L71.9019 8.42399C71.892 8.5252 71.8613 8.62329 71.8119 8.71217C71.7759 8.78919 71.7158 8.8524 71.6408 8.89229L69.0696 10.0405L68.93 11.5085L71.3211 10.4413C71.3334 10.4341 71.3471 10.4294 71.3614 10.4275C71.3756 10.4257 71.39 10.4267 71.4038 10.4304C71.4177 10.4342 71.4306 10.4407 71.4419 10.4495C71.4532 10.4583 71.4626 10.4693 71.4697 10.4818C71.5116 10.5506 71.5275 10.632 71.5147 10.7115L71.3796 12.1524C71.3696 12.2522 71.339 12.3488 71.2895 12.4361C71.2536 12.5131 71.1935 12.5763 71.1184 12.6162L68.7184 13.6834L68.5788 15.2054L71.2265 14.0301Z" fill="#FAFAFA"/>
<path d="M66.917 21.0951C66.9418 21.0813 66.9708 21.0773 66.9984 21.084C67.0259 21.0907 67.05 21.1075 67.0656 21.1311C67.1087 21.1994 67.1248 21.2813 67.1107 21.3607L66.3632 30.1099C66.3547 30.2114 66.3239 30.3098 66.2731 30.3981C66.2386 30.4746 66.1801 30.5378 66.1065 30.5782L65.0303 31.06C65.0051 31.0752 64.975 31.0799 64.9464 31.0732C64.9178 31.0664 64.893 31.0488 64.8772 31.024C64.8381 30.9559 64.8222 30.8768 64.8322 30.7988L65.1159 27.4802L63.2607 28.3583L62.977 31.6769C62.9685 31.7784 62.9378 31.8768 62.8869 31.9651C62.8524 32.0416 62.7939 32.1048 62.7203 32.1452L61.6261 32.645C61.6015 32.6591 61.5726 32.6641 61.5447 32.6592C61.5167 32.6543 61.4914 32.6397 61.473 32.618C61.4304 32.5479 61.4159 32.4642 61.4325 32.3839L62.18 23.6347C62.1862 23.5334 62.2154 23.4348 62.2655 23.3465C62.3015 23.2695 62.3616 23.2063 62.4366 23.1664L63.5308 22.6621C63.5556 22.6483 63.5847 22.6443 63.6122 22.651C63.6397 22.6577 63.6638 22.6745 63.6794 22.6981C63.7229 22.7662 63.739 22.8483 63.7245 22.9278L63.4453 26.1879L65.305 25.3413L65.5662 22.0542C65.5768 21.9531 65.6074 21.8551 65.6562 21.766C65.6907 21.688 65.7512 21.6244 65.8273 21.5859L66.917 21.0951Z" fill="#FAFAFA"/>
<path d="M70.2629 17.9431C70.3754 17.8575 70.4655 17.8395 70.5375 17.8801C70.6042 17.9223 70.6585 17.9813 70.6951 18.0512L73.595 24.1076C73.6206 24.1561 73.6403 24.2075 73.6536 24.2607C73.6618 24.3368 73.6525 24.4138 73.6265 24.4858C73.604 24.5526 73.5635 24.6118 73.5095 24.6569L72.4603 25.4495C72.3522 25.535 72.2667 25.562 72.2081 25.5305C72.1559 25.5022 72.1159 25.4557 72.0955 25.3999L71.7173 24.5984L69.5064 26.2735L69.4208 27.4262C69.4135 27.516 69.3923 27.6042 69.3578 27.6874C69.314 27.8005 69.2371 27.8978 69.1371 27.9666L68.0925 28.7591C68.0718 28.7728 68.0475 28.7802 68.0227 28.7802C67.9978 28.7802 67.9735 28.7728 67.9529 28.7591C67.9288 28.7433 67.9089 28.722 67.8948 28.6969C67.8807 28.6718 67.8728 28.6437 67.8718 28.615C67.863 28.5477 67.863 28.4796 67.8718 28.4124L68.5968 19.6137C68.6095 19.4938 68.6367 19.3758 68.6778 19.2625C68.7228 19.134 68.8042 19.0213 68.912 18.9382L70.2629 17.9431ZM69.673 24.1166L71.0239 23.0989L69.9341 20.7754L69.673 24.1166Z" fill="#FAFAFA"/>
<path d="M195.093 69.65C194.49 74.5717 192.135 77.377 189.136 78.8089L186.268 77.1518C186.993 76.2083 187.477 75.1014 187.677 73.9278C187.894 72.825 187.918 71.6931 187.749 70.5821L192.225 67.9929C192.04 69.5509 195.093 69.65 195.093 69.65Z" fill="#263238"/>
<path d="M201.905 41.7589V64.1294C201.88 64.5972 201.745 65.0525 201.51 65.4579C201.275 65.8633 200.948 66.2074 200.555 66.4619L195.084 69.65C194.48 74.5717 192.125 77.377 189.126 78.8089C190.774 76.7556 190.855 73.7386 190.608 72.2392L187.667 73.9278L183.759 76.1792C183.34 76.3923 182.877 76.5034 182.408 76.5034C181.938 76.5034 181.475 76.3923 181.057 76.1792L179.958 75.5443C179.566 75.289 179.239 74.9447 179.004 74.5395C178.769 74.1342 178.634 73.6794 178.607 73.2118V50.8413C178.634 50.3744 178.769 49.9201 179.004 49.5156C179.239 49.1111 179.566 48.7677 179.958 48.5133L196.75 38.8005C197.168 38.5874 197.631 38.4763 198.101 38.4763C198.57 38.4763 199.033 38.5874 199.451 38.8005L200.55 39.4309C200.943 39.6851 201.271 40.0283 201.506 40.4328C201.742 40.8373 201.879 41.2917 201.905 41.7589Z" fill="#37474F"/>
<path d="M178.639 73.2118C178.664 73.6796 178.799 74.1349 179.034 74.5403C179.269 74.9457 179.596 75.2898 179.99 75.5443L181.084 76.1747C181.463 76.3657 181.879 76.4741 182.304 76.4927C182.728 76.5113 183.152 76.4398 183.547 76.2828C182.912 76.5259 182.43 76.1657 182.43 75.3822V53.0297C182.447 52.5605 182.583 52.1033 182.826 51.7014L179.039 49.522C178.798 49.9228 178.664 50.3784 178.648 50.8458L178.639 73.2118Z" fill="#263238"/>
<path d="M201.864 41.3807C201.707 40.8088 201.184 40.6242 200.563 40.9844L183.767 50.7017C183.367 50.9469 183.04 51.2933 182.817 51.7059L179.039 49.522C179.262 49.1111 179.588 48.7651 179.985 48.5178L196.781 38.8005C197.199 38.5874 197.662 38.4763 198.131 38.4763C198.601 38.4763 199.064 38.5874 199.482 38.8005L200.581 39.4354C200.915 39.6563 201.201 39.9425 201.422 40.2768C201.642 40.6111 201.793 40.9866 201.864 41.3807Z" fill="#455A64"/>
<path d="M191.197 66.8629C191.045 66.9727 190.859 67.0241 190.673 67.0075C190.487 66.991 190.313 66.9076 190.183 66.7729L187.031 63.4182C186.505 62.8599 186.36 61.9728 186.919 60.8425C187.477 59.7123 188.297 59.3656 188.824 59.942L190.863 62.1214L195.934 49.3106C196.406 48.1128 197.285 47.4509 197.883 47.8336C198.482 48.2164 198.586 49.4997 198.113 50.702L192.259 65.4445C192.066 66.0067 191.706 66.4967 191.228 66.8494C191.218 66.8546 191.207 66.8591 191.197 66.8629Z" fill="#FAFAFA"/>
<path d="M166.135 76.2287C166.132 75.6486 165.98 75.0791 165.692 74.5756C165.403 74.0722 164.99 73.6521 164.491 73.3563C163.992 73.0605 163.424 72.8992 162.844 72.8881C162.265 72.8769 161.692 73.0164 161.182 73.2928C160.837 72.2368 160.267 71.2684 159.51 70.4549C158.754 69.6415 157.829 69.0024 156.801 68.5821C155.773 68.1618 154.665 67.9703 153.555 68.021C152.446 68.0716 151.36 68.3632 150.375 68.8754C150.377 68.0615 150.082 67.2746 149.546 66.6619C149.01 66.0492 148.27 65.6526 147.463 65.5461C146.656 65.4397 145.837 65.6307 145.161 66.0834C144.485 66.5362 143.996 67.2197 143.787 68.0064C142.769 67.3459 141.582 66.9954 140.369 66.9977C138.847 66.995 137.374 67.5434 136.225 68.5416C135.075 69.5398 134.326 70.9204 134.115 72.4282C133.905 72.3868 133.693 72.3657 133.48 72.3652C132.59 72.3652 131.737 72.7186 131.108 73.3478C130.478 73.9769 130.125 74.8302 130.125 75.7199C130.198 76.3576 130.373 76.9794 130.643 77.5616C129.951 78.1159 129.449 78.8712 129.205 79.7232C128.961 80.5751 128.987 81.4819 129.28 82.3183C129.573 83.1548 130.118 83.8797 130.84 84.3932C131.563 84.9066 132.427 85.1833 133.313 85.185C133.565 85.184 133.817 85.1599 134.065 85.1129C134.25 85.5548 134.366 86.0226 134.407 86.4998C134.408 87.2116 134.635 87.9047 135.055 88.479C135.475 89.0533 136.068 89.479 136.746 89.6945C137.424 89.9101 138.153 89.9044 138.828 89.6781C139.503 89.4519 140.088 89.0169 140.5 88.4361C141.224 89.6419 142.267 90.6247 143.514 91.2765C144.761 91.9283 146.163 92.2239 147.567 92.1309C148.971 92.0378 150.322 91.5597 151.472 90.749C152.622 89.9383 153.526 88.8265 154.085 87.5355C154.441 88.1926 155.006 88.712 155.691 89.0113C156.376 89.3105 157.141 89.3725 157.866 89.1873C158.59 89.0021 159.231 88.5804 159.688 87.9892C160.146 87.3979 160.392 86.6709 160.389 85.9235C160.389 85.8514 160.389 85.7839 160.389 85.7118C161.612 85.6199 162.755 85.0699 163.59 84.1716C164.425 83.2733 164.89 82.093 164.892 80.8667C164.89 80.2677 164.779 79.6741 164.563 79.1151C165.051 78.8092 165.451 78.383 165.727 77.8775C166.002 77.372 166.142 76.8042 166.135 76.2287Z" fill="white"/>
<path d="M162.781 72.158C162.369 72.1581 161.959 72.2204 161.565 72.3427C160.713 70.3717 159.134 68.8046 157.157 67.9662C155.18 67.1278 152.957 67.0825 150.947 67.8397C150.744 67.0431 150.303 66.3272 149.684 65.7869C149.064 65.2466 148.295 64.9076 147.478 64.8147C146.661 64.7219 145.835 64.8797 145.11 65.2672C144.385 65.6547 143.795 66.2535 143.418 66.9842C142.497 66.5382 141.49 66.2989 140.467 66.2831C139.444 66.2673 138.429 66.4754 137.495 66.8928C136.561 67.3102 135.729 67.9268 135.058 68.6994C134.387 69.472 133.893 70.382 133.611 71.3655C133.584 71.4421 133.557 71.5366 133.525 71.6537H133.471C132.395 71.6549 131.362 72.0815 130.599 72.8406C129.836 73.5998 129.403 74.6298 129.396 75.7063C129.436 76.269 129.568 76.8213 129.788 77.3409C129.082 78.0376 128.599 78.9286 128.401 79.9005C128.203 80.8723 128.299 81.8811 128.676 82.7985C129.053 83.7158 129.695 84.5002 130.519 85.0519C131.343 85.6036 132.313 85.8976 133.305 85.8964C133.395 85.8964 133.48 85.8964 133.566 85.8964C133.63 86.0949 133.669 86.3006 133.683 86.5088C133.675 87.291 133.894 88.0588 134.313 88.7194C134.731 89.3801 135.333 89.9054 136.043 90.232C136.754 90.5586 137.544 90.6725 138.318 90.5599C139.092 90.4474 139.817 90.1133 140.406 89.5978C141.179 90.6185 142.18 91.4449 143.328 92.0114C145.206 92.9387 147.364 93.1295 149.375 92.5461C151.387 91.9628 153.107 90.6476 154.198 88.8594C154.736 89.3793 155.407 89.7403 156.137 89.9025C156.867 90.0647 157.627 90.0218 158.334 89.7785C159.041 89.5352 159.667 89.101 160.143 88.5239C160.619 87.9468 160.925 87.2494 161.029 86.5088C161.06 86.3077 161.075 86.1044 161.074 85.9009C161.074 85.7929 161.074 85.6893 161.074 85.5812C160.839 85.6392 160.6 85.6768 160.358 85.6938C160.365 85.7627 160.365 85.8321 160.358 85.9009C160.357 86.1354 160.333 86.3692 160.286 86.5989C160.155 87.2144 159.854 87.7807 159.417 88.2328C158.979 88.685 158.423 89.0048 157.812 89.1557C157.201 89.3065 156.56 89.2823 155.963 89.0857C155.365 88.8892 154.834 88.5283 154.432 88.0443C154.693 87.1149 154.766 86.143 154.648 85.185C154.587 85.9891 154.388 86.7767 154.059 87.513C153.499 88.8039 152.595 89.9158 151.445 90.7265C150.296 91.5372 148.945 92.0153 147.541 92.1083C146.137 92.2014 144.735 91.9058 143.488 91.254C142.241 90.6022 141.198 89.6194 140.473 88.4136C140.473 88.4136 140.329 88.0984 140.167 87.6481C139.97 87.1357 139.819 86.6068 139.717 86.0675C139.583 87.015 139.701 87.9811 140.059 88.8684C139.589 89.3326 138.992 89.6472 138.343 89.7725C137.694 89.8978 137.023 89.8282 136.414 89.5724C135.804 89.3167 135.284 88.8863 134.919 88.3354C134.555 87.7846 134.361 87.1381 134.363 86.4773C134.321 86.0002 134.205 85.5324 134.021 85.0904C133.773 85.1373 133.521 85.1614 133.269 85.1625C132.382 85.1607 131.518 84.8841 130.796 84.3706C130.074 83.8572 129.528 83.1323 129.235 82.2958C128.942 81.4594 128.916 80.5526 129.16 79.7006C129.404 78.8486 129.907 78.0934 130.598 77.539C130.324 76.958 130.148 76.3357 130.076 75.6973C130.076 74.8104 130.428 73.9596 131.054 73.3316C131.68 72.7036 132.53 72.3496 133.417 72.3472C133.474 73.1673 133.729 73.9614 134.16 74.6617C133.985 73.9241 133.954 73.1594 134.07 72.4102C134.213 71.3541 134.621 70.3513 135.256 69.4956C135.891 68.6398 136.733 67.9591 137.702 67.517C138.672 67.0749 139.738 66.8858 140.801 66.9675C141.863 67.0491 142.888 67.3988 143.778 67.9838C144.399 68.4134 144.959 68.9237 145.445 69.5013C145.445 69.3933 145.237 68.5107 143.99 67.4165C144.296 66.7834 144.794 66.2627 145.412 65.9281C146.03 65.5935 146.739 65.4619 147.436 65.5521C148.133 65.6422 148.785 65.9495 149.298 66.4304C149.811 66.9113 150.159 67.5414 150.294 68.2315C149.678 68.7112 149.2 69.3449 148.907 70.0687C149.315 69.5813 149.806 69.1697 150.357 68.8529C151.343 68.3407 152.428 68.0491 153.538 67.9984C154.648 67.9478 155.755 68.1393 156.783 68.5596C157.812 68.9799 158.736 69.619 159.493 70.4324C160.249 71.2459 160.82 72.2142 161.164 73.2703C161.861 72.8881 162.67 72.7655 163.448 72.9241C164.226 73.0827 164.923 73.5123 165.414 74.1365C165.906 74.7606 166.159 75.5388 166.131 76.3326C166.102 77.1263 165.792 77.8841 165.257 78.4711C165.046 78.7062 164.8 78.9081 164.528 79.07C164.618 79.2982 164.69 79.533 164.744 79.7725C165.027 79.6273 165.291 79.4489 165.532 79.2411C166.148 78.6921 166.582 77.9679 166.776 77.1655C166.97 76.3631 166.914 75.5206 166.615 74.7509C166.317 73.9812 165.791 73.3209 165.107 72.8583C164.424 72.3958 163.615 72.153 162.79 72.1625L162.781 72.158Z" fill="#455A64"/>
<path d="M145.617 92.2322C146.206 93.1643 145.427 95.7264 142.865 95.6003C146.301 96.5325 148.877 94.1009 149.021 92.0295C149.021 92.0295 148.197 92.4393 145.617 92.2322Z" fill="#455A64"/>
<path d="M165.533 79.2413C165.462 78.9871 165.372 78.7388 165.263 78.4983C165.051 78.7334 164.805 78.9353 164.534 79.0972C164.624 79.3253 164.696 79.5602 164.75 79.7996C164.824 80.1444 164.862 80.4961 164.862 80.8488C164.862 81.9488 164.488 83.0161 163.803 83.8764C163.118 84.7368 162.161 85.3394 161.089 85.5859C160.854 85.6438 160.614 85.6815 160.373 85.6984C160.38 85.7673 160.38 85.8367 160.373 85.9056C160.372 86.14 160.348 86.3738 160.301 86.6035C160.55 86.5918 160.799 86.5617 161.044 86.5135C161.836 86.3679 162.589 86.0578 163.254 85.6033C163.918 85.1487 164.48 84.5597 164.904 83.8744C165.327 83.1891 165.601 82.4227 165.71 81.6246C165.818 80.8266 165.758 80.0146 165.533 79.2413Z" fill="#455A64"/>
<path d="M144.215 75.8866L142.945 83.4019L139.865 83.4695L139.203 79.5745L138.541 83.1768L135.457 83.2849L134.178 75.8776L136.879 75.6389L137.42 80.1418L138.145 75.6389H140.261L141.108 80.1959L141.558 75.6389L144.215 75.8866Z" fill="#455A64"/>
<path d="M151.014 79.5834C151.014 79.9049 150.976 80.2252 150.902 80.538C150.826 80.8365 150.716 81.1252 150.573 81.3981C150.429 81.6625 150.253 81.9089 150.051 82.132C149.64 82.5805 149.113 82.9062 148.529 83.0732C147.932 83.2421 147.301 83.2476 146.701 83.0892C146.102 82.9307 145.556 82.6142 145.12 82.1726C144.913 81.9609 144.735 81.7233 144.589 81.4656C144.442 81.2042 144.327 80.926 144.247 80.6371C144.165 80.3347 144.124 80.0227 144.125 79.7095C144.125 79.3966 144.165 79.085 144.242 78.7819C144.387 78.1904 144.676 77.6441 145.084 77.1923C145.285 76.9691 145.516 76.7737 145.769 76.6115C146.021 76.4478 146.296 76.3204 146.584 76.2332C146.884 76.1384 147.197 76.0913 147.511 76.0936C148 76.0869 148.485 76.1709 148.943 76.3413C149.357 76.492 149.732 76.7313 150.043 77.0425C150.354 77.3536 150.594 77.7291 150.744 78.1425C150.924 78.6015 151.016 79.0904 151.014 79.5834ZM148.605 79.7275C148.605 79.5749 148.583 79.4231 148.538 79.2772C148.494 79.1367 148.427 79.0044 148.34 78.8854C148.252 78.772 148.142 78.6784 148.016 78.6108C147.877 78.5361 147.722 78.4989 147.565 78.5027C147.41 78.5007 147.256 78.533 147.115 78.5973C146.984 78.6561 146.868 78.742 146.773 78.8494C146.674 78.9571 146.599 79.0845 146.552 79.2232C146.502 79.368 146.476 79.5201 146.476 79.6735C146.477 79.8256 146.499 79.9769 146.539 80.1238C146.581 80.2706 146.648 80.4091 146.737 80.5335C146.821 80.6573 146.931 80.7604 147.061 80.8352C147.199 80.9114 147.354 80.9502 147.511 80.9478C147.667 80.9473 147.82 80.9135 147.962 80.8487C148.094 80.7833 148.211 80.6895 148.304 80.574C148.4 80.4584 148.473 80.3254 148.52 80.1823C148.574 80.0367 148.603 79.8829 148.605 79.7275Z" fill="#455A64"/>
<path d="M160.99 75.8866L159.72 83.4019L156.64 83.4695L155.978 79.5745L155.316 83.1768L152.236 83.2849L150.957 75.8776L153.659 75.6389L154.204 80.1418L154.929 75.6389H157.045L157.878 80.2049L158.328 75.6389L160.99 75.8866Z" fill="#455A64"/>
<path d="M19.0379 123.667L17.5204 120.821L18.7362 117.3V115.147L15.0078 117.3V119.452L16.6108 122.231C16.6336 122.276 16.672 122.311 16.7189 122.33L19.0379 123.667Z" fill="#BA68C8"/>
<path opacity="0.2" d="M19.0379 123.667L17.5204 120.821L18.7362 117.3V115.147L15.0078 117.3V119.452L16.6108 122.231C16.6336 122.276 16.672 122.311 16.7189 122.33L19.0379 123.667Z" fill="black"/>
<path d="M27.9488 98.0231C27.9299 97.6352 27.8197 97.2574 27.6272 96.9201C27.4347 96.5829 27.1654 96.2958 26.8411 96.0823L25.9405 95.5555C25.5918 95.3779 25.2061 95.2854 24.8148 95.2854C24.4235 95.2854 24.0377 95.3779 23.689 95.5555L9.73 103.638C9.40436 103.85 9.13344 104.136 8.93936 104.472C8.74528 104.809 8.63354 105.187 8.61328 105.574V120.943C8.63354 121.331 8.74528 121.708 8.93936 122.045C9.13344 122.382 9.40436 122.667 9.73 122.879L10.6306 123.406C10.9793 123.584 11.365 123.676 11.7563 123.676C12.1476 123.676 12.5333 123.584 12.882 123.406L17.385 120.812L18.9835 123.586C19.004 123.632 19.0384 123.67 19.0817 123.695C19.125 123.72 19.1751 123.731 19.2248 123.726C19.2746 123.721 19.3215 123.7 19.359 123.667C19.3965 123.634 19.4227 123.59 19.4338 123.541L21.1269 118.66L26.8411 115.328C27.1676 115.116 27.4394 114.831 27.6342 114.494C27.8291 114.158 27.9415 113.78 27.9623 113.392L27.9488 98.0231Z" fill="#BA68C8"/>
<path opacity="0.2" d="M8.59554 120.943C8.6158 121.331 8.72754 121.708 8.92162 122.045C9.1157 122.382 9.38662 122.667 9.71226 122.879L10.6128 123.406C10.9285 123.565 11.2744 123.656 11.6276 123.671C11.9808 123.687 12.3333 123.627 12.6617 123.496C12.1348 123.694 11.7341 123.397 11.7341 122.762V107.394C11.748 107.005 11.8595 106.625 12.0583 106.29L8.90624 104.489C8.706 104.823 8.5944 105.203 8.58203 105.592L8.59554 120.943Z" fill="black"/>
<path opacity="0.3" d="M27.9134 97.7033C27.7828 97.226 27.346 97.0774 26.8327 97.3746L12.8736 105.48C12.542 105.683 12.2701 105.97 12.0856 106.313L8.93359 104.512C9.11811 104.156 9.39296 103.854 9.73061 103.638L23.6896 95.5599C24.0383 95.3823 24.4241 95.2898 24.8154 95.2898C25.2067 95.2898 25.5924 95.3823 25.9411 95.5599L26.8417 96.0867C27.1199 96.2702 27.3582 96.508 27.5424 96.7857C27.7265 97.0635 27.8527 97.3756 27.9134 97.7033Z" fill="white"/>
<path d="M19.6364 116.165C14.8362 115.008 14.458 111.028 15.8629 108.173C17.1192 105.615 19.4112 105.516 19.6589 108.002C19.92 105.223 22.2165 102.697 23.4638 103.823C24.8777 105.093 24.477 109.515 19.6364 116.165Z" fill="white"/>
<path d="M27.4586 8.18981C24.8964 6.74438 21.3661 6.95601 17.4711 9.20297C9.63155 13.7284 3.27344 24.756 3.27344 33.7889C3.27344 38.2918 4.86297 41.4889 7.42963 42.9703L12.2793 45.7621C14.8459 47.2391 18.3897 47.0229 22.3028 44.7625C30.1423 40.237 36.4959 29.2319 36.4959 20.1811C36.4959 15.6782 34.9154 12.4946 32.3623 11.0086C31.2906 10.3827 28.5438 8.80221 27.4586 8.18981Z" fill="#BA68C8"/>
<path opacity="0.15" d="M3.79578 29.0833C3.45921 30.6295 3.28416 32.2064 3.27344 33.7888C3.27344 38.2917 4.86297 41.4888 7.42963 42.9702L12.2793 45.762C14.8459 47.239 18.3897 47.0229 22.3027 44.7624C23.665 43.9654 24.9403 43.0282 26.1077 41.9661L3.79578 29.0833Z" fill="black"/>
<path d="M32.3441 34.1582C34.9107 29.7138 36.4957 24.7021 36.4957 20.1991C36.4957 11.1438 30.1421 7.47842 22.3026 12.0038C14.463 16.5293 8.10938 27.5164 8.10938 36.5672C8.10938 45.6181 14.463 49.288 22.3026 44.7625C24.3601 43.5401 26.2276 42.023 27.8456 40.2596L33.6364 41.3178C33.8041 41.3484 33.9769 41.3335 34.137 41.2747C34.297 41.2159 34.4383 41.1154 34.5463 40.9835C34.6543 40.8516 34.725 40.6932 34.7511 40.5247C34.7772 40.3562 34.7577 40.1839 34.6946 40.0255L32.3441 34.1582Z" fill="#BA68C8"/>
<path opacity="0.35" d="M32.3441 34.1582C34.9107 29.7138 36.4957 24.7021 36.4957 20.1991C36.4957 11.1438 30.1421 7.47842 22.3026 12.0038C14.463 16.5293 8.10938 27.5164 8.10938 36.5672C8.10938 45.6181 14.463 49.288 22.3026 44.7625C24.3601 43.5401 26.2276 42.023 27.8456 40.2596L33.6364 41.3178C33.8041 41.3484 33.9769 41.3335 34.137 41.2747C34.297 41.2159 34.4383 41.1154 34.5463 40.9835C34.6543 40.8516 34.725 40.6932 34.7511 40.5247C34.7772 40.3562 34.7577 40.1839 34.6946 40.0255L32.3441 34.1582Z" fill="white"/>
<path d="M23.4365 32.6994L21.5768 33.7621C21.5154 33.8125 21.4404 33.8436 21.3613 33.8513C21.2822 33.859 21.2026 33.843 21.1326 33.8053C21.0626 33.7677 21.0054 33.7101 20.9683 33.6399C20.9311 33.5696 20.9156 33.4899 20.9239 33.4109L20.1719 19.4924C20.1737 19.2852 20.2269 19.0817 20.3267 18.9002C20.4265 18.7187 20.5698 18.5647 20.7437 18.4522L24.2695 16.4169C24.6072 16.2188 24.8639 16.3764 24.8414 16.7681L24.0849 31.6593C24.0602 31.8697 23.9893 32.0721 23.8772 32.252C23.7651 32.4318 23.6146 32.5846 23.4365 32.6994Z" fill="#FAFAFA"/>
<path d="M22.5031 40.1967C21.3189 40.8812 20.6074 39.9941 20.6074 38.7603C20.6112 38.0455 20.7852 37.3419 21.1148 36.7077C21.4445 36.0734 21.9204 35.5268 22.5031 35.1129C23.6919 34.4285 24.4034 35.3156 24.4034 36.5494C24.399 37.2645 24.2244 37.9684 23.894 38.6027C23.5635 39.2369 23.0868 39.7834 22.5031 40.1967Z" fill="#FAFAFA"/>
<path d="M184.27 126.018L185.976 122.803L184.625 118.831V116.4L188.835 118.831V121.263L187.034 124.415C187.005 124.465 186.961 124.504 186.908 124.527L184.27 126.018Z" fill="#BA68C8"/>
<path opacity="0.2" d="M184.27 126.018L185.976 122.803L184.625 118.831V116.4L188.835 118.831V121.263L187.034 124.415C187.005 124.465 186.961 124.504 186.908 124.527L184.27 126.018Z" fill="black"/>
<path d="M174.215 97.0776C174.238 96.6394 174.365 96.2129 174.584 95.8327C174.803 95.4525 175.108 95.1292 175.476 94.8892L176.502 94.2993C176.893 94.0997 177.326 93.9956 177.765 93.9956C178.205 93.9956 178.637 94.0997 179.028 94.2993L194.789 103.413C195.157 103.653 195.463 103.976 195.683 104.356C195.903 104.736 196.03 105.163 196.054 105.602V122.942C196.03 123.381 195.903 123.807 195.683 124.188C195.463 124.568 195.157 124.891 194.789 125.131L193.762 125.725C193.37 125.923 192.938 126.026 192.499 126.026C192.06 126.026 191.628 125.923 191.236 125.725L186.17 122.794L184.369 125.923C184.343 125.967 184.305 126.003 184.259 126.026C184.214 126.05 184.162 126.059 184.112 126.055C184.061 126.05 184.012 126.031 183.971 126C183.931 125.968 183.9 125.926 183.883 125.878L181.973 120.367L175.476 116.616C175.108 116.376 174.802 116.053 174.583 115.673C174.364 115.292 174.238 114.866 174.215 114.427V97.0776Z" fill="#BA68C8"/>
<path opacity="0.2" d="M196.053 122.942C196.029 123.381 195.902 123.808 195.682 124.188C195.462 124.568 195.156 124.891 194.788 125.131L193.761 125.725C193.405 125.903 193.015 126.003 192.617 126.02C192.219 126.037 191.822 125.971 191.451 125.824C192.046 126.049 192.5 125.716 192.5 124.996V107.651C192.483 107.212 192.356 106.785 192.131 106.408L195.684 104.359C195.91 104.735 196.037 105.163 196.053 105.602V122.942Z" fill="black"/>
<path opacity="0.3" d="M174.254 96.7173C174.403 96.1814 174.889 96.0103 175.474 96.348L191.234 105.466C191.613 105.695 191.924 106.019 192.135 106.408L195.688 104.359C195.475 103.972 195.164 103.648 194.787 103.418L179.027 94.2992C178.635 94.1017 178.203 93.9988 177.764 93.9988C177.325 93.9988 176.893 94.1017 176.501 94.2992L175.474 94.8936C175.157 95.0984 174.886 95.3658 174.676 95.6794C174.466 95.993 174.322 96.3462 174.254 96.7173Z" fill="white"/>
<path d="M188.981 116.697C188.983 116.806 188.956 116.914 188.904 117.01C188.851 117.107 188.775 117.188 188.682 117.246C188.59 117.304 188.484 117.338 188.374 117.343C188.265 117.349 188.156 117.326 188.058 117.278C188.144 117.589 188.19 117.91 188.193 118.232C188.193 118.831 187.698 119.133 186.977 118.723L181.502 115.571V108.412C182.09 107.77 182.639 107.093 183.146 106.385C183.285 106.056 183.146 104.134 183.146 103.819C183.146 103.553 184.046 103.94 184.613 104.877C184.753 105.103 184.862 105.347 184.938 105.602C185.089 106.099 185.199 106.608 185.266 107.124C185.352 107.76 185.314 108.407 185.154 109.028L188.463 110.942C188.731 111.099 188.952 111.324 189.103 111.595C189.311 111.93 189.431 112.313 189.45 112.707C189.45 113.351 189.098 113.5 188.918 113.518C189.119 113.703 189.28 113.926 189.393 114.174C189.506 114.422 189.568 114.691 189.576 114.963C189.576 115.468 189.269 115.828 188.77 115.657C188.915 115.984 188.987 116.339 188.981 116.697Z" fill="#FAFAFA"/>
<path d="M178.322 106.709V114.427C178.329 114.518 178.356 114.606 178.402 114.684C178.448 114.762 178.512 114.828 178.588 114.878L180.434 115.945C180.583 116.03 180.704 115.945 180.704 115.792V108.06C180.697 107.969 180.668 107.882 180.622 107.804C180.575 107.726 180.511 107.659 180.434 107.61L178.579 106.529C178.439 106.448 178.322 106.516 178.322 106.709Z" fill="#FAFAFA"/>
<path d="M164.105 26.5164L137.164 10.9183C136.692 10.6786 136.169 10.5537 135.64 10.5537C135.11 10.5537 134.588 10.6786 134.116 10.9183L133.782 11.121C133.338 11.4098 132.969 11.7993 132.703 12.2577C132.438 12.7162 132.285 13.2308 132.256 13.7597V28.1375C132.256 29.1101 132.256 29.8936 133.638 30.6771L160.723 46.3698C161.196 46.6095 161.718 46.7344 162.248 46.7344C162.777 46.7344 163.299 46.6095 163.772 46.3698L164.105 46.1672C164.548 45.8781 164.917 45.4885 165.182 45.03C165.446 44.5715 165.599 44.057 165.627 43.5284V29.1551C165.599 28.6266 165.446 28.1121 165.182 27.6536C164.917 27.1951 164.548 26.8055 164.105 26.5164Z" fill="#FAFAFA"/>
<path d="M133.873 35.4997C135.251 34.8422 136.782 33.1401 136.782 31.375L141.011 33.8561C140.147 34.8351 139.042 35.5698 137.805 35.9863C136.568 36.4029 135.243 36.4866 133.963 36.2291C133.884 36.2132 133.811 36.1725 133.756 36.1128C133.7 36.0532 133.665 35.9776 133.655 35.8969C133.645 35.8162 133.661 35.7343 133.7 35.663C133.739 35.5917 133.8 35.5346 133.873 35.4997Z" fill="#FAFAFA"/>
<path d="M132.295 13.3273C132.475 12.6789 133.065 12.4718 133.767 12.877L160.722 28.4796C161.173 28.7586 161.543 29.1515 161.794 29.6189L165.175 27.6601C164.922 27.1946 164.553 26.8022 164.103 26.5209L137.163 10.9183C136.69 10.6806 136.168 10.5569 135.638 10.5569C135.109 10.5569 134.587 10.6806 134.114 10.9183L133.776 11.1209C133.394 11.3699 133.065 11.6938 132.81 12.0729C132.556 12.4521 132.381 12.8787 132.295 13.3273Z" fill="#BA68C8"/>
<path opacity="0.45" d="M132.295 13.3273C132.475 12.6789 133.065 12.4718 133.767 12.877L160.722 28.4796C161.173 28.7586 161.543 29.1515 161.794 29.6189L165.175 27.6601C164.922 27.1946 164.553 26.8022 164.103 26.5209L137.163 10.9183C136.69 10.6806 136.168 10.5569 135.638 10.5569C135.109 10.5569 134.587 10.6806 134.114 10.9183L133.776 11.1209C133.394 11.3699 133.065 11.6938 132.81 12.0729C132.556 12.4521 132.381 12.8787 132.295 13.3273Z" fill="white"/>
<path d="M165.627 43.5375C165.599 44.0661 165.446 44.5805 165.182 45.0391C164.917 45.4976 164.548 45.8872 164.105 46.1762L163.772 46.3789C163.342 46.595 162.872 46.718 162.391 46.7397C161.911 46.7615 161.432 46.6815 160.984 46.505C161.7 46.7751 162.245 46.3654 162.245 45.4963V31.1185C162.224 30.5872 162.069 30.0699 161.795 29.6145L165.177 27.6558C165.452 28.1091 165.607 28.6252 165.627 29.1552V43.5375Z" fill="#BA68C8"/>
<path opacity="0.25" d="M165.627 43.5375C165.599 44.0661 165.446 44.5805 165.182 45.0391C164.917 45.4976 164.548 45.8872 164.105 46.1762L163.772 46.3789C163.342 46.595 162.872 46.718 162.391 46.7397C161.911 46.7615 161.432 46.6815 160.984 46.505C161.7 46.7751 162.245 46.3654 162.245 45.4963V31.1185C162.224 30.5872 162.069 30.0699 161.795 29.6145L165.177 27.6558C165.452 28.1091 165.607 28.6252 165.627 29.1552V43.5375Z" fill="white"/>
<path d="M133.111 13.1518C133.271 13.1589 133.426 13.2087 133.561 13.2959L160.515 28.894C160.894 29.1302 161.204 29.4607 161.416 29.8531C161.65 30.2336 161.784 30.6676 161.803 31.114V45.5008C161.803 45.7259 161.758 46.1042 161.443 46.1042C161.382 46.1034 161.321 46.0943 161.263 46.0772H161.231C161.162 46.0477 161.095 46.0147 161.029 45.9781L149.15 39.0976L144.075 36.1527L140.631 34.1534L140.329 33.9778L140.068 34.2075C139.292 34.8637 138.385 35.3472 137.407 35.6259C136.43 35.9046 135.404 35.9721 134.399 35.824C135.678 35.1077 136.652 33.9505 137.141 32.5684L137.258 32.1992L136.925 32.0055L133.939 30.2719C132.796 29.6235 132.796 29.0741 132.796 28.1556V13.7597C132.796 13.6571 132.805 13.5547 132.823 13.4535C132.904 13.1473 133.079 13.1473 133.147 13.1473M133.147 12.6655C132.959 12.6655 132.777 12.7311 132.632 12.8512C132.487 12.9713 132.389 13.1381 132.354 13.323C132.354 13.2149 132.404 13.1068 132.431 12.9987C132.35 13.2429 132.307 13.4981 132.305 13.7552V28.133C132.305 29.1057 132.305 29.8937 133.687 30.6682L136.673 32.4018C136.19 33.747 135.208 34.8548 133.93 35.4953C133.857 35.5302 133.796 35.5874 133.757 35.6587C133.718 35.73 133.702 35.8118 133.712 35.8925C133.722 35.9733 133.757 36.0488 133.813 36.1084C133.868 36.1681 133.941 36.2088 134.02 36.2248C135.128 36.4334 136.268 36.3916 137.357 36.1026C138.446 35.8135 139.457 35.2845 140.315 34.5542L143.76 36.549L148.839 39.4984L160.723 46.3698C160.804 46.4149 160.889 46.4554 160.979 46.4959C161.015 46.5128 161.053 46.5249 161.092 46.5319C161.193 46.5617 161.297 46.5769 161.403 46.577C161.902 46.577 162.245 46.1807 162.245 45.4918V31.114C162.223 30.5842 162.068 30.0685 161.794 29.6145C161.542 29.1481 161.17 28.7567 160.718 28.4798L133.768 12.8817C133.564 12.7516 133.33 12.6785 133.088 12.67L133.147 12.6655Z" fill="#BA68C8"/>
<path d="M139.958 22.1893C140.014 22.224 140.057 22.2763 140.08 22.3379C140.111 22.4043 140.128 22.4763 140.129 22.5495V28.8086C140.132 28.8361 140.129 28.8638 140.12 28.8901C140.112 28.9164 140.098 28.9407 140.08 28.9617C140.063 28.976 140.041 28.9838 140.019 28.9838C139.997 28.9838 139.975 28.976 139.958 28.9617L139.134 28.4844C139.081 28.4498 139.04 28.3994 139.017 28.3403C138.983 28.2734 138.964 28.1994 138.963 28.1241V25.7511L137.567 24.9451V27.3181C137.572 27.3751 137.554 27.4316 137.518 27.4757C137.501 27.49 137.479 27.4978 137.457 27.4978C137.435 27.4978 137.413 27.49 137.396 27.4757L136.572 27.0074C136.52 26.9718 136.479 26.9217 136.455 26.8633C136.419 26.7969 136.401 26.7226 136.401 26.6472V20.3971C136.399 20.3692 136.402 20.3412 136.412 20.3148C136.421 20.2884 136.436 20.2643 136.455 20.244C136.471 20.2301 136.492 20.2224 136.514 20.2224C136.535 20.2224 136.556 20.2301 136.572 20.244L137.396 20.7033C137.45 20.7385 137.492 20.7886 137.518 20.8474C137.549 20.9153 137.566 20.9889 137.567 21.0636V23.4051L138.963 24.2156V21.8786C138.961 21.8507 138.964 21.8225 138.973 21.7961C138.983 21.7697 138.998 21.7456 139.017 21.7255C139.033 21.7106 139.054 21.7023 139.076 21.7023C139.098 21.7023 139.118 21.7106 139.134 21.7255L139.958 22.1893Z" fill="#BA68C8"/>
<path d="M144.164 29.8532C144.218 29.8883 144.26 29.9384 144.286 29.9973C144.317 30.0651 144.334 30.1387 144.335 30.2134V31.2401C144.338 31.2676 144.335 31.2953 144.326 31.3216C144.318 31.3479 144.304 31.3723 144.286 31.3932C144.269 31.4084 144.248 31.4168 144.225 31.4168C144.203 31.4168 144.181 31.4084 144.164 31.3932L141.183 29.6731C141.129 29.6372 141.086 29.5853 141.062 29.5245C141.03 29.4582 141.014 29.3861 141.012 29.3128V23.0583C141.008 23.0028 141.026 22.9479 141.062 22.9052C141.079 22.8909 141.1 22.8831 141.123 22.8831C141.145 22.8831 141.166 22.8909 141.183 22.9052L144.115 24.5983C144.168 24.6354 144.211 24.6869 144.236 24.7469C144.268 24.813 144.285 24.8852 144.286 24.9585V25.9852C144.289 26.042 144.272 26.0982 144.236 26.1428C144.219 26.1563 144.198 26.1636 144.176 26.1636C144.154 26.1636 144.132 26.1563 144.115 26.1428L142.174 25.0216V26.0662L143.975 27.1064C144.03 27.1423 144.072 27.1942 144.097 27.255C144.128 27.3212 144.145 27.3934 144.146 27.4666V28.4933C144.151 28.5503 144.133 28.6068 144.097 28.6509C144.08 28.6652 144.058 28.673 144.036 28.673C144.014 28.673 143.992 28.6652 143.975 28.6509L142.174 27.6107V28.6959L144.164 29.8532Z" fill="#BA68C8"/>
<path d="M148.146 32.1496C148.199 32.1859 148.24 32.2378 148.263 32.2982C148.298 32.3632 148.317 32.4359 148.317 32.5098V33.5365C148.32 33.565 148.316 33.5938 148.307 33.6209C148.297 33.6481 148.283 33.673 148.263 33.6941C148.247 33.708 148.226 33.7157 148.205 33.7157C148.183 33.7157 148.162 33.708 148.146 33.6941L145.233 32.0145C145.177 31.9798 145.134 31.9275 145.111 31.8659C145.078 31.8004 145.061 31.7278 145.062 31.6543V25.3952C145.059 25.3676 145.062 25.3398 145.07 25.3134C145.079 25.287 145.093 25.2627 145.111 25.2421C145.128 25.2278 145.15 25.22 145.172 25.22C145.194 25.22 145.216 25.2278 145.233 25.2421L146.057 25.7194C146.11 25.7539 146.151 25.8044 146.174 25.8635C146.207 25.9306 146.224 26.0047 146.223 26.0796V31.0328L148.146 32.1496Z" fill="#BA68C8"/>
<path d="M151.943 34.3426C151.995 34.3782 152.036 34.4283 152.06 34.4867C152.094 34.5535 152.113 34.6275 152.114 34.7028V35.7295C152.116 35.7574 152.113 35.7855 152.104 35.812C152.094 35.8384 152.079 35.8625 152.06 35.8826C152.043 35.8965 152.023 35.9042 152.001 35.9042C151.98 35.9042 151.959 35.8965 151.943 35.8826L149.029 34.212C148.973 34.1804 148.929 34.1292 148.908 34.0679C148.876 34.0001 148.86 33.9265 148.858 33.8518V27.5927C148.856 27.5652 148.859 27.5375 148.867 27.5112C148.876 27.4849 148.89 27.4605 148.908 27.4396C148.939 27.4036 148.98 27.4036 149.029 27.4396L149.853 27.8899C149.907 27.9263 149.948 27.9782 149.97 28.0385C150.004 28.1039 150.021 28.1766 150.02 28.2501V33.2033L151.943 34.3426Z" fill="#BA68C8"/>
<path d="M152.445 31.9289C152.452 31.611 152.504 31.2957 152.599 30.9923C152.668 30.7582 152.8 30.5478 152.981 30.3844C153.151 30.2439 153.364 30.1674 153.585 30.1682C153.878 30.1834 154.162 30.275 154.409 30.4339C154.718 30.6146 154.995 30.846 155.228 31.1183C155.467 31.3926 155.671 31.695 155.836 32.0189C156.002 32.3567 156.13 32.7116 156.219 33.0771C156.307 33.4403 156.358 33.8114 156.372 34.1848C156.372 34.4685 156.372 34.7612 156.372 35.0854C156.372 35.4096 156.372 35.6708 156.372 35.932C156.365 36.2483 156.314 36.5621 156.219 36.8641C156.147 37.0994 156.015 37.312 155.836 37.481C155.666 37.624 155.45 37.6993 155.228 37.6926C154.937 37.6717 154.655 37.5789 154.409 37.4224C154.098 37.2432 153.82 37.0134 153.585 36.7425C153.346 36.4692 153.143 36.1666 152.981 35.8419C152.814 35.5046 152.686 35.1497 152.599 34.7837C152.51 34.419 152.459 34.0464 152.445 33.6715C152.445 33.4013 152.445 33.1131 152.445 32.8114C152.445 32.5097 152.436 32.199 152.445 31.9289ZM155.206 35.198C155.206 35.0869 155.206 34.9608 155.206 34.8197C155.206 34.6801 155.206 34.536 155.206 34.3694C155.206 34.2028 155.206 34.0767 155.206 33.9191C155.206 33.7615 155.206 33.6535 155.206 33.5409C155.201 33.3771 155.18 33.2142 155.143 33.0546C155.109 32.8993 155.057 32.7482 154.99 32.6043C154.927 32.4688 154.845 32.3429 154.746 32.2306C154.653 32.1148 154.539 32.0184 154.409 31.9469C154.307 31.8789 154.189 31.8414 154.066 31.8388C154.022 31.8375 153.978 31.8452 153.937 31.8615C153.896 31.8777 153.859 31.9022 153.828 31.9334C153.755 32.0074 153.702 32.0988 153.675 32.199C153.636 32.3324 153.613 32.47 153.607 32.6088C153.607 32.7124 153.607 32.8339 153.607 32.9735C153.607 33.1131 153.607 33.2527 153.607 33.4238C153.607 33.5949 153.607 33.721 153.607 33.8741C153.607 34.0272 153.607 34.1533 153.607 34.2749C153.622 34.5951 153.697 34.9097 153.828 35.2025C153.945 35.4789 154.149 35.7096 154.409 35.8599C154.67 36.007 154.863 36.007 154.99 35.8599C155.13 35.6676 155.205 35.4359 155.206 35.198Z" fill="#BA68C8"/>
<path d="M158.186 37.1524C158.189 37.1799 158.185 37.2076 158.177 37.2339C158.168 37.2602 158.155 37.2846 158.137 37.3055C158.12 37.3207 158.098 37.3291 158.076 37.3291C158.053 37.3291 158.032 37.3207 158.015 37.3055L157.223 36.8552C157.169 36.8181 157.127 36.7666 157.101 36.7066C157.07 36.6402 157.053 36.5681 157.052 36.495V32.3208C157.049 32.2932 157.052 32.2655 157.061 32.2392C157.069 32.2129 157.083 32.1886 157.101 32.1677C157.118 32.1525 157.139 32.144 157.162 32.144C157.184 32.144 157.206 32.1525 157.223 32.1677L158.015 32.6179C158.069 32.655 158.111 32.7066 158.137 32.7665C158.168 32.8328 158.185 32.9049 158.186 32.9782V37.1524ZM158.186 39.2372C158.189 39.2648 158.185 39.2925 158.177 39.3188C158.168 39.3451 158.155 39.3694 158.137 39.3903C158.12 39.4046 158.098 39.4125 158.076 39.4125C158.054 39.4125 158.032 39.4046 158.015 39.3903L157.223 38.94C157.169 38.9047 157.127 38.8547 157.101 38.7959C157.07 38.7281 157.053 38.6545 157.052 38.5798V37.6027C157.049 37.5751 157.052 37.5474 157.061 37.5211C157.069 37.4948 157.083 37.4705 157.101 37.4496C157.118 37.4344 157.139 37.426 157.162 37.426C157.184 37.426 157.206 37.4344 157.223 37.4496L158.015 37.8999C158.069 37.937 158.111 37.9885 158.137 38.0485C158.168 38.1149 158.184 38.1869 158.186 38.2601V39.2372Z" fill="#BA68C8"/>
<path d="M53.2648 71.0729L50.8017 69.6545C50.7522 69.6341 50.711 69.5976 50.6847 69.5509L50.2344 68.7539L51.4772 68.0334H51.6573L53.2648 71.0729Z" fill="#BA68C8"/>
<path opacity="0.25" d="M53.2648 71.0729L50.8017 69.6545C50.7522 69.6341 50.711 69.5976 50.6847 69.5509L50.2344 68.7539L51.4772 68.0334H51.6573L53.2648 71.0729Z" fill="white"/>
<path d="M39.5487 57.8977L60.6134 45.7083C60.9827 45.5219 61.3907 45.4248 61.8044 45.4248C62.2181 45.4248 62.6261 45.5219 62.9954 45.7083L63.2566 45.866C63.6032 46.0917 63.8916 46.3962 64.0982 46.7546C64.3047 47.113 64.4237 47.5152 64.4453 47.9283V59.1631C64.4453 59.924 64.4454 60.5364 63.3647 61.1443L55.4395 65.7328L53.6384 70.9382C53.6212 70.9888 53.5884 71.0326 53.5447 71.0634C53.501 71.0941 53.4486 71.1102 53.3952 71.1093C53.3506 71.1097 53.3066 71.0982 53.2678 71.0761C53.2291 71.0539 53.1969 71.0219 53.1746 70.9832L51.4725 68.0293L42.1874 73.4103C41.8181 73.5967 41.4102 73.6938 40.9964 73.6938C40.5827 73.6938 40.1748 73.5967 39.8054 73.4103L39.5487 73.2527C39.2015 73.0271 38.9125 72.7228 38.7051 72.3644C38.4978 72.006 38.378 71.6038 38.3555 71.1903V59.9601C38.378 59.5466 38.4978 59.1444 38.7051 58.786C38.9125 58.4276 39.2015 58.1233 39.5487 57.8977Z" fill="#FAFAFA"/>
<path d="M64.4007 47.5904C64.2611 47.0815 63.7973 46.9239 63.2479 47.2391L42.1878 59.4285C41.8339 59.6494 41.5449 59.9602 41.3502 60.3291L38.707 58.7981C38.906 58.4308 39.1959 58.1207 39.5491 57.8975L60.6137 45.7082C60.9838 45.5217 61.3925 45.4246 61.807 45.4246C62.2214 45.4246 62.6301 45.5217 63.0003 45.7082L63.2614 45.8658C63.558 46.0614 63.8118 46.315 64.0076 46.6114C64.2034 46.9079 64.3371 47.2409 64.4007 47.5904Z" fill="#BA68C8"/>
<path opacity="0.45" d="M64.4007 47.5904C64.2611 47.0815 63.7973 46.9239 63.2479 47.2391L42.1878 59.4285C41.8339 59.6494 41.5449 59.9602 41.3502 60.3291L38.707 58.7981C38.906 58.4308 39.1959 58.1207 39.5491 57.8975L60.6137 45.7082C60.9838 45.5217 61.3925 45.4246 61.807 45.4246C62.2214 45.4246 62.6301 45.5217 63.0003 45.7082L63.2614 45.8658C63.558 46.0614 63.8118 46.315 64.0076 46.6114C64.2034 46.9079 64.3371 47.2409 64.4007 47.5904Z" fill="white"/>
<path d="M38.3555 71.1947C38.378 71.6081 38.4978 72.0104 38.7051 72.3688C38.9125 72.7271 39.2015 73.0315 39.5487 73.257L39.8054 73.4146C40.1411 73.5842 40.5088 73.6807 40.8845 73.6978C41.2602 73.7148 41.6352 73.6521 41.9848 73.5137C41.4265 73.7253 40.9987 73.4056 40.9987 72.7257V61.4909C41.0122 61.076 41.1316 60.6715 41.3454 60.3157L38.7067 58.7847C38.4909 59.1399 38.37 59.5446 38.3555 59.9599V71.1947Z" fill="#BA68C8"/>
<path opacity="0.25" d="M38.3555 71.1947C38.378 71.6081 38.4978 72.0104 38.7051 72.3688C38.9125 72.7271 39.2015 73.0315 39.5487 73.257L39.8054 73.4146C40.1411 73.5842 40.5088 73.6807 40.8845 73.6978C41.2602 73.7148 41.6352 73.6521 41.9848 73.5137C41.4265 73.7253 40.9987 73.4056 40.9987 72.7257V61.4909C41.0122 61.076 41.1316 60.6715 41.3454 60.3157L38.7067 58.7847C38.4909 59.1399 38.37 59.5446 38.3555 59.9599V71.1947Z" fill="white"/>
<path d="M63.7667 47.5273C63.8163 47.5273 63.9018 47.5273 63.9514 47.7119C63.9555 47.7854 63.9555 47.8591 63.9514 47.9326V59.1673C63.9514 59.8788 63.9514 60.2705 63.0958 60.7569L55.2112 65.3453L55.0671 65.4309L55.0131 65.5885L53.347 70.3931L51.8565 67.8129L51.6314 67.4257L51.2441 67.6508L41.9636 73.0273L41.8195 73.0994H41.788C41.7492 73.1049 41.7098 73.1049 41.6709 73.0994C41.4863 73.0994 41.4593 72.8517 41.4593 72.7031V61.4458C41.4739 61.1099 41.5731 60.7831 41.7475 60.4957C41.9066 60.2 42.1392 59.9503 42.4229 59.7707L63.483 47.5858C63.575 47.5265 63.6802 47.491 63.7892 47.4823M63.7892 47.032C63.5998 47.0396 63.4154 47.0954 63.2534 47.1941L42.1888 59.4285C41.8354 59.65 41.5466 59.9606 41.3512 60.3291C41.1362 60.6846 41.0153 61.0891 41 61.5043V72.7616C41 73.2975 41.2657 73.6082 41.6619 73.6082C41.7427 73.6069 41.823 73.5948 41.9006 73.5722C41.9299 73.5659 41.9585 73.5568 41.9861 73.5451C42.0554 73.5157 42.123 73.4827 42.1888 73.4461L51.4738 68.0696L53.1759 71.019C53.1982 71.0577 53.2304 71.0897 53.2692 71.1119C53.3079 71.134 53.3519 71.1455 53.3965 71.1451C53.4494 71.1458 53.501 71.1295 53.5439 71.0987C53.5869 71.0679 53.6188 71.0242 53.6352 70.974L55.4363 65.7686L63.3525 61.1756C64.4242 60.5677 64.4377 59.9553 64.4377 59.1944V47.9281C64.4351 47.726 64.4017 47.5256 64.3386 47.3337C64.3611 47.4192 64.3836 47.5048 64.3971 47.5903C64.3699 47.4464 64.2935 47.3165 64.1809 47.2228C64.0684 47.1292 63.9267 47.0776 63.7802 47.077L63.7892 47.032Z" fill="#BA68C8"/>
<path d="M44.9126 64.6427C44.9145 64.3567 44.9539 64.0721 45.0296 63.7962C45.1059 63.5121 45.2131 63.2373 45.3494 62.9767C45.4799 62.7243 45.6402 62.4885 45.8267 62.2742C45.9938 62.0799 46.1916 61.9141 46.412 61.7834C46.5883 61.6732 46.7898 61.6096 46.9974 61.5988C47.1691 61.5955 47.337 61.6493 47.4747 61.7519C47.6211 61.8693 47.7318 62.0252 47.7944 62.2022C47.8754 62.4304 47.9136 62.6716 47.907 62.9136C47.907 63.1995 47.8691 63.4842 47.7944 63.7602C47.7189 64.0445 47.6117 64.3194 47.4747 64.5797C47.3426 64.8311 47.1825 65.0667 46.9974 65.2822C46.8317 65.4779 46.6337 65.6439 46.412 65.773C46.2366 65.8851 46.0347 65.9488 45.8267 65.9576C45.6554 65.9632 45.4872 65.9109 45.3494 65.809C45.204 65.6906 45.0935 65.535 45.0296 65.3587C44.947 65.1293 44.9073 64.8866 44.9126 64.6427Z" fill="#BA68C8"/>
<path d="M50.7661 61.2656C50.7677 60.9795 50.8071 60.6949 50.8832 60.4191C50.9594 60.1336 51.0666 59.8572 51.2029 59.595C51.333 59.3438 51.4933 59.1095 51.6802 58.8971C51.8462 58.7004 52.0441 58.533 52.2656 58.4018C52.4419 58.2922 52.6435 58.2302 52.8509 58.2217C53.0211 58.2141 53.1885 58.2667 53.3238 58.3703C53.4716 58.4873 53.5839 58.6432 53.648 58.8205C53.729 59.0503 53.7671 59.293 53.7605 59.5365C53.7602 59.8224 53.7223 60.107 53.648 60.3831C53.57 60.6672 53.4613 60.942 53.3238 61.2026C53.1947 61.4547 53.036 61.6906 52.8509 61.905C52.6828 62.0984 52.4853 62.264 52.2656 62.3959C52.0889 62.5054 51.8877 62.5688 51.6802 62.5805C51.5083 62.5852 51.34 62.5312 51.2029 62.4274C51.0565 62.3099 50.9458 62.154 50.8832 61.9771C50.8005 61.7492 50.7608 61.508 50.7661 61.2656Z" fill="#BA68C8"/>
<path d="M56.6181 57.8839C56.618 57.5976 56.6574 57.3128 56.7351 57.0373C56.8102 56.7529 56.9175 56.4779 57.0548 56.2178C57.1839 55.9656 57.3426 55.7298 57.5276 55.5153C57.6958 55.322 57.8933 55.1564 58.113 55.0245C58.2897 54.915 58.4909 54.8515 58.6984 54.8399C58.8703 54.8352 59.0386 54.8892 59.1757 54.993C59.3221 55.1104 59.4328 55.2664 59.4954 55.4433C59.5777 55.6712 59.6174 55.9124 59.6125 56.1547C59.6106 56.4423 59.5713 56.7284 59.4954 57.0058C59.4184 57.2896 59.3112 57.5643 59.1757 57.8253C59.0456 58.0765 58.8853 58.3109 58.6984 58.5233C58.5336 58.7211 58.3355 58.8888 58.113 59.0186C57.9361 59.1274 57.735 59.1908 57.5276 59.2032C57.3573 59.2072 57.1905 59.1533 57.0548 59.0501C56.907 58.9341 56.796 58.7777 56.7351 58.5998C56.6504 58.3709 56.6106 58.1278 56.6181 57.8839Z" fill="#BA68C8"/>
<path d="M31.0994 135.595C29.3342 134.591 26.9117 134.744 24.2324 136.293C18.8289 139.405 14.4746 146.97 14.4746 153.193C14.4746 156.304 15.5643 158.488 17.325 159.497L20.6616 161.415C22.4268 162.433 24.8628 162.284 27.5556 160.731C32.9591 157.619 37.3134 150.054 37.3134 143.827C37.3134 140.724 36.2237 138.545 34.4675 137.523C33.7336 137.104 31.8469 136.019 31.0994 135.595Z" fill="#BA68C8"/>
<path opacity="0.45" d="M31.0994 135.595C29.3342 134.591 26.9117 134.744 24.2324 136.293C18.8289 139.405 14.4746 146.97 14.4746 153.193C14.4746 156.304 15.5643 158.488 17.325 159.497L20.6616 161.415C22.4268 162.433 24.8628 162.284 27.5556 160.731C32.9591 157.619 37.3134 150.054 37.3134 143.827C37.3134 140.724 36.2237 138.545 34.4675 137.523C33.7336 137.104 31.8469 136.019 31.0994 135.595Z" fill="white"/>
<path d="M22.1296 161.559C21.5209 162.549 20.684 163.378 19.689 163.977C18.5826 164.626 17.3144 164.946 16.0327 164.901C15.9731 164.902 15.9143 164.888 15.8615 164.86L12.5429 162.946C12.4924 162.917 12.4505 162.875 12.4214 162.824C12.3923 162.774 12.377 162.716 12.377 162.658C12.377 162.6 12.3923 162.542 12.4214 162.492C12.4505 162.441 12.4924 162.399 12.5429 162.37C13.3835 161.91 14.0995 161.252 14.6291 160.453C15.1586 159.655 15.4858 158.739 15.5824 157.786L22.1296 161.559Z" fill="#BA68C8"/>
<path opacity="0.25" d="M22.1296 161.559C21.5209 162.549 20.684 163.378 19.689 163.977C18.5826 164.626 17.3144 164.946 16.0327 164.901C15.9731 164.902 15.9143 164.888 15.8615 164.86L12.5429 162.946C12.4924 162.917 12.4505 162.875 12.4214 162.824C12.3923 162.774 12.377 162.716 12.377 162.658C12.377 162.6 12.3923 162.542 12.4214 162.492C12.4505 162.441 12.4924 162.399 12.5429 162.37C13.3835 161.91 14.0995 161.252 14.6291 160.453C15.1586 159.655 15.4858 158.739 15.5824 157.786L22.1296 161.559Z" fill="white"/>
<path d="M27.5555 138.203C22.152 141.314 17.7932 148.884 17.7932 155.107C17.735 156.71 18.1215 158.298 18.9099 159.695C18.814 160.65 18.4866 161.567 17.9562 162.366C17.4257 163.166 16.7083 163.824 15.866 164.284C15.8017 164.319 15.751 164.375 15.722 164.442C15.6931 164.509 15.6875 164.584 15.7061 164.655C15.7247 164.726 15.7666 164.789 15.8249 164.833C15.8832 164.878 15.9547 164.901 16.0281 164.9C17.3125 164.945 18.5832 164.625 19.6934 163.977C20.5608 163.448 21.3115 162.748 21.8999 161.92C23.4939 162.307 25.4437 161.956 27.5555 160.74C32.959 157.628 37.3133 150.063 37.3133 143.836C37.3133 137.608 32.941 135.078 27.5555 138.203Z" fill="#FAFAFA"/>
<path d="M31.9098 137.329C34.9673 137.329 36.863 139.828 36.863 143.845C36.863 149.915 32.5853 157.322 27.3304 160.357C26.0897 161.136 24.6653 161.574 23.2012 161.627C22.7992 161.629 22.3985 161.582 22.0079 161.487L21.7062 161.415L21.5261 161.672C20.9722 162.451 20.266 163.11 19.4503 163.608C18.5403 164.144 17.5073 164.436 16.4513 164.455C17.2641 163.945 17.9491 163.256 18.4534 162.44C18.9578 161.625 19.268 160.704 19.3602 159.749V159.596L19.2792 159.465C18.5395 158.138 18.1767 156.634 18.23 155.116C18.23 149.046 22.5078 141.638 27.7672 138.603C29.0115 137.821 30.4407 137.381 31.9098 137.329ZM31.9098 136.879C30.3651 136.94 28.8635 137.406 27.5555 138.23C22.152 141.341 17.7932 148.911 17.7932 155.134C17.735 156.737 18.1215 158.325 18.9099 159.722C18.814 160.677 18.4866 161.594 17.9562 162.393C17.4257 163.193 16.7083 163.851 15.866 164.311C15.8017 164.346 15.751 164.402 15.722 164.469C15.6931 164.536 15.6875 164.611 15.7061 164.682C15.7247 164.753 15.7666 164.816 15.8249 164.86C15.8832 164.905 15.9547 164.928 16.0281 164.927H16.1001C17.3639 164.96 18.6116 164.639 19.7024 164C20.5698 163.471 21.3205 162.77 21.9089 161.942C22.3352 162.043 22.7721 162.093 23.2102 162.091C24.7514 162.029 26.2496 161.565 27.5555 160.744C32.959 157.633 37.3133 150.068 37.3133 143.84C37.3133 139.427 35.1114 136.874 31.9098 136.874V136.879Z" fill="#BA68C8"/>
<path d="M22.0938 153.148C22.0955 152.92 22.1257 152.693 22.1838 152.472C22.2466 152.246 22.3326 152.027 22.4405 151.819C22.5444 151.619 22.6713 151.432 22.8187 151.261C22.946 151.106 23.0982 150.974 23.269 150.869C23.4046 150.784 23.5595 150.734 23.7193 150.725C23.868 150.709 24.0173 150.749 24.1381 150.838C24.2527 150.933 24.3398 151.057 24.3902 151.198C24.4574 151.379 24.4895 151.572 24.4848 151.765C24.484 151.994 24.4522 152.221 24.3902 152.441C24.3295 152.665 24.245 152.882 24.1381 153.089C24.0309 153.288 23.9026 153.476 23.7553 153.647C23.6281 153.802 23.4759 153.935 23.305 154.039C23.1686 154.123 23.0144 154.174 22.8547 154.188C22.7187 154.19 22.5856 154.148 22.4765 154.066C22.3594 153.972 22.2705 153.847 22.2198 153.706C22.1452 153.529 22.1025 153.34 22.0938 153.148Z" fill="#BA68C8"/>
<path d="M26.7562 150.455C26.7577 150.228 26.7879 150.003 26.8463 149.784C26.9083 149.558 26.9943 149.339 27.103 149.131C27.2057 148.93 27.3328 148.743 27.4812 148.573C27.6085 148.418 27.7607 148.286 27.9315 148.181C28.0656 148.092 28.2211 148.041 28.3818 148.032C28.5192 148.03 28.6535 148.073 28.7645 148.154C28.8802 148.248 28.9674 148.373 29.0167 148.514C29.0839 148.696 29.116 148.888 29.1113 149.081C29.1102 149.31 29.0784 149.537 29.0167 149.757C28.9555 149.983 28.871 150.202 28.7645 150.41C28.6564 150.609 28.5282 150.796 28.3818 150.968C28.2525 151.121 28.1006 151.253 27.9315 151.36C27.7957 151.445 27.6409 151.494 27.4812 151.504C27.3451 151.507 27.212 151.464 27.103 151.382C26.986 151.29 26.8971 151.167 26.8463 151.027C26.7826 150.843 26.7521 150.649 26.7562 150.455Z" fill="#BA68C8"/>
<path d="M31.4144 147.767C31.4161 147.539 31.4464 147.312 31.5044 147.091C31.5664 146.865 31.6525 146.646 31.7611 146.438C31.865 146.238 31.9919 146.051 32.1393 145.88C32.2666 145.725 32.4188 145.593 32.5896 145.488C32.7252 145.403 32.8801 145.353 33.0399 145.344C33.1758 145.338 33.3097 145.379 33.4182 145.461C33.5343 145.556 33.6229 145.681 33.6748 145.821C33.7404 146.003 33.7709 146.196 33.7649 146.389C33.7654 146.617 33.7351 146.844 33.6748 147.064C33.6129 147.29 33.5268 147.509 33.4182 147.717C33.3143 147.917 33.1873 148.105 33.0399 148.276C32.9127 148.43 32.7605 148.563 32.5896 148.667C32.4532 148.751 32.299 148.802 32.1393 148.816C32.0033 148.819 31.8702 148.776 31.7611 148.694C31.644 148.6 31.5551 148.476 31.5044 148.334C31.4411 148.152 31.4106 147.96 31.4144 147.767Z" fill="#BA68C8"/>
<path d="M51.9473 127.134C52.6538 125.989 53.6232 125.029 54.7751 124.334C56.0583 123.58 57.5298 123.208 59.0168 123.262C59.086 123.262 59.154 123.279 59.215 123.311C59.4401 123.447 63.0019 125.495 63.0605 125.527C63.1195 125.56 63.1686 125.609 63.2027 125.667C63.2369 125.726 63.2549 125.792 63.2549 125.86C63.2549 125.928 63.2369 125.994 63.2027 126.053C63.1686 126.112 63.1195 126.16 63.0605 126.193C62.0853 126.726 61.2544 127.489 60.6394 128.414C60.0244 129.34 59.6437 130.401 59.5302 131.507L51.9473 127.134Z" fill="#BA68C8"/>
<path opacity="0.25" d="M51.9473 127.134C52.6538 125.989 53.6232 125.029 54.7751 124.334C56.0583 123.58 57.5298 123.208 59.0168 123.262C59.086 123.262 59.154 123.279 59.215 123.311C59.4401 123.447 63.0019 125.495 63.0605 125.527C63.1195 125.56 63.1686 125.609 63.2027 125.667C63.2369 125.726 63.2549 125.792 63.2549 125.86C63.2549 125.928 63.2369 125.994 63.2027 126.053C63.1686 126.112 63.1195 126.16 63.0605 126.193C62.0853 126.726 61.2544 127.489 60.6394 128.414C60.0244 129.34 59.6437 130.401 59.5302 131.507L51.9473 127.134Z" fill="white"/>
<path d="M59.5605 133.209C59.3567 131.824 59.5825 130.411 60.2073 129.159C60.8322 127.907 61.826 126.876 63.0547 126.207C63.1272 126.164 63.1837 126.099 63.2158 126.021C63.2478 125.943 63.2535 125.857 63.2321 125.775C63.2108 125.694 63.1634 125.622 63.0973 125.569C63.0311 125.517 62.9498 125.488 62.8656 125.486C61.3781 125.437 59.9066 125.806 58.6194 126.554C55.6159 128.463 55.2422 130.714 55.2422 130.714L59.5605 133.209Z" fill="#BA68C8"/>
<path d="M52.5832 126.072C50.5389 124.91 47.729 125.09 44.6265 126.882C38.3855 130.485 33.3242 139.247 33.3242 146.456C33.3242 150.059 34.5895 152.585 36.6339 153.769L40.4929 155.989C42.5372 157.164 45.3605 156.998 48.4765 155.197C54.7176 151.594 59.7788 142.827 59.7788 135.618C59.7788 132.016 58.518 129.498 56.4827 128.314C55.6317 127.837 53.4477 126.58 52.5832 126.072Z" fill="#BA68C8"/>
<path opacity="0.15" d="M52.5832 126.072C50.5389 124.91 47.729 125.09 44.6265 126.882C38.3855 130.485 33.3242 139.247 33.3242 146.456C33.3242 150.059 34.5895 152.585 36.6339 153.769L40.4929 155.989C42.5372 157.164 45.3605 156.998 48.4765 155.197C54.7176 151.594 59.7788 142.827 59.7788 135.618C59.7788 132.016 58.518 129.498 56.4827 128.314C55.6317 127.837 53.4477 126.58 52.5832 126.072Z" fill="black"/>
<path d="M56.4656 146.775C60.8798 139.129 60.8808 130.866 56.4679 128.318C52.0549 125.77 44.8991 129.903 40.4849 137.548C36.0706 145.194 36.0696 153.458 40.4825 156.005C44.8955 158.553 52.0513 154.421 56.4656 146.775Z" fill="#BA68C8"/>
<path d="M48.0294 137.032C48.0578 137.008 48.0937 136.995 48.1307 136.995C48.1678 136.995 48.2037 137.008 48.232 137.032C48.2618 137.067 48.2842 137.108 48.2981 137.152C48.312 137.196 48.3171 137.242 48.3131 137.288V147.686C48.3125 147.809 48.2849 147.93 48.232 148.041C48.1891 148.14 48.1188 148.225 48.0294 148.285L46.6785 149.073C46.6513 149.097 46.616 149.11 46.5795 149.11C46.5429 149.11 46.5077 149.097 46.4804 149.073C46.4503 149.037 46.4275 148.997 46.4136 148.953C46.3997 148.908 46.3948 148.862 46.3994 148.816V144.876L44.0759 146.227V150.171C44.0748 150.293 44.0471 150.413 43.9948 150.522C43.956 150.622 43.8867 150.707 43.7967 150.766L42.4458 151.558C42.417 151.581 42.3813 151.594 42.3445 151.594C42.3077 151.594 42.2719 151.581 42.2432 151.558C42.2125 151.522 42.1896 151.479 42.1756 151.434C42.1617 151.388 42.1571 151.34 42.1621 151.292V140.877C42.1631 140.754 42.1908 140.633 42.2432 140.522C42.2847 140.422 42.3553 140.337 42.4458 140.278L43.7967 139.486C43.8247 139.463 43.8597 139.451 43.8957 139.451C43.9318 139.451 43.9668 139.463 43.9948 139.486C44.0245 139.521 44.047 139.562 44.0609 139.606C44.0748 139.65 44.0799 139.696 44.0759 139.743V143.633L46.3994 142.282V138.401C46.4004 138.279 46.4281 138.159 46.4804 138.049C46.5192 137.95 46.5885 137.864 46.6785 137.806L48.0294 137.032Z" fill="white"/>
<path d="M50.0587 147.127C50.0314 147.152 49.9962 147.165 49.9596 147.165C49.923 147.165 49.8878 147.152 49.8605 147.127C49.8291 147.093 49.8053 147.052 49.7905 147.008C49.7758 146.964 49.7705 146.917 49.775 146.871V136.46C49.7754 136.336 49.8047 136.215 49.8605 136.104C49.9004 136.005 49.9695 135.92 50.0587 135.861L51.4095 135.069C51.4372 135.045 51.4723 135.032 51.5086 135.032C51.5449 135.032 51.58 135.045 51.6077 135.069C51.6382 135.104 51.6615 135.144 51.6762 135.188C51.6908 135.232 51.6966 135.279 51.6932 135.325V145.722C51.6906 145.844 51.6614 145.964 51.6077 146.074C51.5703 146.174 51.5006 146.26 51.4095 146.317L50.0587 147.127Z" fill="white"/>
<path d="M54.9591 140.4C54.9586 140.523 54.9309 140.645 54.8781 140.756C54.8383 140.855 54.7692 140.94 54.68 140.999L53.3606 141.76C53.3334 141.784 53.2981 141.798 53.2615 141.798C53.225 141.798 53.1897 141.784 53.1625 141.76C53.1327 141.725 53.1103 141.684 53.0964 141.64C53.0825 141.596 53.0774 141.549 53.0814 141.503V134.551C53.0825 134.429 53.1101 134.309 53.1625 134.199C53.2025 134.099 53.2715 134.013 53.3606 133.952L54.68 133.195C54.7072 133.171 54.7425 133.157 54.779 133.157C54.8156 133.157 54.8508 133.171 54.8781 133.195C54.9078 133.231 54.9303 133.272 54.9442 133.316C54.9581 133.36 54.9632 133.406 54.9591 133.452V140.4ZM54.9591 143.863C54.9581 143.984 54.9304 144.104 54.8781 144.214C54.8396 144.315 54.7703 144.402 54.68 144.462L53.3606 145.218C53.3334 145.242 53.2981 145.256 53.2615 145.256C53.225 145.256 53.1897 145.242 53.1625 145.218C53.1327 145.183 53.1103 145.142 53.0964 145.098C53.0825 145.054 53.0774 145.007 53.0814 144.961V143.336C53.083 143.213 53.1106 143.092 53.1625 142.98C53.2039 142.882 53.2727 142.797 53.3606 142.737L54.68 141.98C54.7072 141.956 54.7425 141.943 54.779 141.943C54.8156 141.943 54.8508 141.956 54.8781 141.98C54.9078 142.016 54.9303 142.057 54.9442 142.101C54.9581 142.145 54.9632 142.191 54.9591 142.237V143.863Z" fill="white"/>
<path d="M190.181 23.3556L190.064 18.9922C190.064 18.9922 197.345 19.2129 196.107 10.1575C195.504 5.74918 192.109 1.22375 178.996 2.95287C163.164 5.0152 165.037 12.9899 166.685 15.7772C168.392 18.6905 175.344 20.226 186.759 19.5911L190.181 23.3556Z" fill="#E0E0E0"/>
<path d="M24.7258 63.9314L20.8127 67.6103C17.9078 67.141 14.9581 67.011 12.0231 67.223C4.17898 67.6733 -0.242884 71.1045 0.923371 75.7786C2.30126 81.2676 7.31751 82.9832 16.6836 82.605C28.3911 82.1547 32.5879 74.7249 24.4286 68.763L24.7258 63.9314Z" fill="#E0E0E0"/>
<path d="M169.557 142.818L169.823 147.586C169.823 147.586 165.347 148.037 162.726 150.014C158.552 153.166 159.124 161.302 163.929 164.472C169.535 168.187 183.89 167.85 188.267 164.193C192.491 160.658 192.225 152.832 188.974 149.941C184.827 146.249 175.127 147.177 175.127 147.177L169.557 142.818Z" fill="#E0E0E0"/>
</svg>
