<svg width="132" height="130" viewBox="0 0 132 130" fill="none" xmlns="http://www.w3.org/2000/svg">
<path d="M11.1004 77.917L13.5343 76.3412C13.5343 76.3412 14.7161 70.0637 13.8382 64.5234C12.6058 56.7067 7.29336 54.0195 5.36311 54.7905C3.43286 55.5615 2.97703 57.8857 6.4633 62.3877C8.52017 65.0496 11.1651 70.6743 11.1004 77.917Z" fill="#9269AD"/>
<g opacity="0.3">
<path opacity="0.3" d="M11.1004 77.917L13.5343 76.3412C13.5343 76.3412 14.7161 70.0637 13.8382 64.5234C12.6058 56.7067 7.29336 54.0195 5.36311 54.7905C3.43286 55.5615 2.97703 57.8857 6.4633 62.3877C8.52017 65.0496 11.1651 70.6743 11.1004 77.917Z" fill="white"/>
</g>
<path d="M11.9867 74.819H11.9613C11.9157 74.812 11.8747 74.7876 11.8468 74.7508C11.819 74.714 11.8065 74.6678 11.8122 74.6221C12.8224 67.3062 9.88476 59.3095 6.58139 56.0821C6.54818 56.0496 6.52923 56.0053 6.5287 55.9588C6.52817 55.9124 6.54611 55.8676 6.57857 55.8344C6.61104 55.8012 6.65536 55.7823 6.7018 55.7817C6.74823 55.7812 6.79298 55.7992 6.82619 55.8316C10.1887 59.1153 13.1825 67.2443 12.1583 74.6671C12.1529 74.7089 12.1325 74.7473 12.1009 74.7752C12.0694 74.8031 12.0288 74.8187 11.9867 74.819Z" fill="white"/>
<path d="M4.97196 81.8761C4.60617 82.0843 3.56507 81.2824 3.28369 81.0883C2.7895 80.7514 2.39028 80.2931 2.12441 79.7573C1.82774 79.1461 1.72937 78.4575 1.84304 77.7877C1.90157 77.4345 1.9843 77.0857 2.09065 76.7438C2.18913 76.4061 2.2848 76.0685 2.37203 75.7308C2.49038 75.404 2.54018 75.0563 2.51834 74.7094C2.43111 74.0172 1.8149 73.5332 1.25777 73.114C0.638737 72.6525 -0.00280456 72.0419 9.22239e-06 71.2091C0.0443655 70.5622 0.302739 69.9484 0.734406 69.4645C1.13396 68.958 1.60668 68.5135 1.96684 67.9788C2.25038 67.608 2.39835 67.1512 2.38609 66.6845C2.34733 66.3992 2.25164 66.1246 2.10472 65.877C1.82334 65.3339 1.42378 64.8359 1.22119 64.2534C1.0186 63.6709 1.04674 62.945 1.50257 62.5286C1.87399 62.1853 2.43111 62.1374 2.93478 62.1712C3.40821 62.2291 3.86334 62.3895 4.26851 62.6411C5.59099 63.3755 6.3479 64.9428 7.75197 65.5083C8.30537 65.6827 8.86926 65.8218 9.44024 65.9248C10.003 66.0739 10.5798 66.3637 10.8471 66.8843C11.3621 67.9141 10.4054 69.1831 10.7683 70.2749C11.0891 71.2428 12.0289 71.6114 12.5551 72.4837C12.7702 72.8687 12.8569 73.3123 12.8027 73.7499C12.7568 74.4894 12.5756 75.2143 12.2681 75.8884C11.9209 76.588 11.5309 77.2655 11.1004 77.9171L4.97196 81.8761Z" fill="#9269AD"/>
<g opacity="0.65">
<path opacity="0.65" d="M4.97196 81.8761C4.60617 82.0843 3.56507 81.2824 3.28369 81.0883C2.7895 80.7514 2.39028 80.2931 2.12441 79.7573C1.82774 79.1461 1.72937 78.4575 1.84304 77.7877C1.90157 77.4345 1.9843 77.0857 2.09065 76.7438C2.18913 76.4061 2.2848 76.0685 2.37203 75.7308C2.49038 75.404 2.54018 75.0563 2.51834 74.7094C2.43111 74.0172 1.8149 73.5332 1.25777 73.114C0.638737 72.6525 -0.00280456 72.0419 9.22239e-06 71.2091C0.0443655 70.5622 0.302739 69.9484 0.734406 69.4645C1.13396 68.958 1.60668 68.5135 1.96684 67.9788C2.25038 67.608 2.39835 67.1512 2.38609 66.6845C2.34733 66.3992 2.25164 66.1246 2.10472 65.877C1.82334 65.3339 1.42378 64.8359 1.22119 64.2534C1.0186 63.6709 1.04674 62.945 1.50257 62.5286C1.87399 62.1853 2.43111 62.1374 2.93478 62.1712C3.40821 62.2291 3.86334 62.3895 4.26851 62.6411C5.59099 63.3755 6.3479 64.9428 7.75197 65.5083C8.30537 65.6827 8.86926 65.8218 9.44024 65.9248C10.003 66.0739 10.5798 66.3637 10.8471 66.8843C11.3621 67.9141 10.4054 69.1831 10.7683 70.2749C11.0891 71.2428 12.0289 71.6114 12.5551 72.4837C12.7702 72.8687 12.8569 73.3123 12.8027 73.7499C12.7568 74.4894 12.5756 75.2143 12.2681 75.8884C11.9209 76.588 11.5309 77.2655 11.1004 77.9171L4.97196 81.8761Z" fill="white"/>
</g>
<path d="M8.506 79.8053C8.48432 79.8046 8.463 79.7995 8.44328 79.7905C8.42357 79.7814 8.40586 79.7685 8.39119 79.7526C8.37652 79.7366 8.36518 79.7178 8.35784 79.6974C8.3505 79.677 8.3473 79.6553 8.34843 79.6337C8.62981 73.0944 5.53465 65.8715 3.28363 63.7752C3.25624 63.7443 3.24134 63.7043 3.24183 63.6631C3.24232 63.6218 3.25817 63.5822 3.28628 63.552C3.31439 63.5217 3.35275 63.5031 3.39388 63.4996C3.43501 63.4961 3.47596 63.5081 3.50873 63.5332C5.79352 65.6745 8.93933 73.0156 8.66358 79.6477C8.66153 79.6889 8.64428 79.7278 8.61516 79.7569C8.58604 79.786 8.54713 79.8033 8.506 79.8053Z" fill="white"/>
<path d="M7.44244 71.8112H7.39461C5.8486 71.3832 4.26083 71.1238 2.65902 71.0374C2.63733 71.0367 2.61601 71.0316 2.5963 71.0226C2.57658 71.0135 2.55887 71.0006 2.5442 70.9846C2.52953 70.9686 2.51819 70.9499 2.51085 70.9295C2.50351 70.9091 2.50031 70.8874 2.50144 70.8657C2.50177 70.8439 2.50654 70.8224 2.51547 70.8025C2.52439 70.7826 2.53728 70.7648 2.55335 70.75C2.56941 70.7353 2.58832 70.7239 2.6089 70.7167C2.62949 70.7095 2.65133 70.7066 2.67308 70.7082C4.30687 70.7933 5.92669 71.0546 7.50434 71.4876C7.54562 71.5017 7.57981 71.5313 7.59975 71.5701C7.61968 71.609 7.62381 71.654 7.61127 71.6958C7.60004 71.7311 7.57732 71.7616 7.54672 71.7826C7.51613 71.8035 7.47942 71.8135 7.44244 71.8112Z" fill="white"/>
<path d="M67.0045 129.434C102.901 129.434 132 112.634 132 91.9098C132 71.1856 102.901 54.3853 67.0045 54.3853C31.1085 54.3853 2.00903 71.1856 2.00903 91.9098C2.00903 112.634 31.1085 129.434 67.0045 129.434Z" fill="#FAFAFA"/>
<path d="M32.4625 75.9137C46.2303 67.9676 68.5492 67.9676 82.3142 75.9137C93.983 82.6499 95.7557 92.9342 87.6435 100.754L117.934 118.019C119.78 119.086 119.78 120.813 117.934 121.88L115.21 123.453C113.364 124.519 110.427 124.435 108.637 123.267L82.1876 104.769C68.4001 112.648 46.1937 112.617 32.4737 104.696C18.6975 96.7469 18.6975 83.8626 32.4625 75.9137Z" fill="#E6E6E6"/>
<path d="M38.0423 6.04454L35.6562 7.4233C35.6683 7.31867 35.6748 7.21347 35.6759 7.10815V6.41596C35.6759 5.18353 34.812 4.68549 33.7456 5.29045C33.2861 5.57088 32.8933 5.94827 32.5948 6.39627C32.4175 4.84869 31.2048 4.27186 29.7275 5.12163C28.1321 6.04455 26.8406 8.28431 26.8406 10.1273V11.16C26.8295 11.5739 26.9133 11.9849 27.0854 12.3615L25.1158 13.5067C24.8019 13.7103 24.5409 13.9857 24.3545 14.3101C24.1681 14.6344 24.0616 14.9985 24.0437 15.3722C24.0437 16.056 24.522 16.3317 25.1158 15.9913L38.0591 8.51786C38.3715 8.31535 38.6315 8.04176 38.8179 7.71947C39.0042 7.39717 39.1116 7.03534 39.1312 6.66358C39.1143 5.97983 38.636 5.70408 38.0423 6.04454Z" fill="#EBEBEB"/>
<path d="M6.57011 12.2518L7.9151 11.2135V8.24781C7.9151 5.89549 9.79189 3.16613 11.8263 1.99278C13.8634 0.816619 15.5151 1.77049 15.5151 4.12V4.55051C15.9445 3.85491 16.5303 3.26912 17.2259 2.83973C18.6919 1.99559 19.8793 2.67934 19.8793 4.37042V4.56739L21.7561 3.48408C22.7212 2.92133 23.5034 3.37716 23.5034 4.49142C23.4707 5.0979 23.2954 5.68812 22.9918 6.21417C22.6882 6.74022 22.2648 7.18727 21.7561 7.51905L6.57011 16.2868C5.60499 16.8495 4.82275 16.3909 4.82275 15.2766C4.8555 14.6705 5.03081 14.0807 5.33444 13.5551C5.63806 13.0295 6.06142 12.583 6.57011 12.2518Z" fill="#EBEBEB"/>
<path d="M26.5283 81.0854V89.6477C26.5283 94.296 29.601 98.9332 35.7435 102.493C48.0284 109.586 67.95 109.586 80.2349 102.493C86.3774 98.9444 89.4501 94.296 89.4501 89.6477V81.0854C89.4501 76.437 86.3774 71.7999 80.2349 68.2433C67.95 61.1497 48.0284 61.1497 35.7435 68.2433C29.601 71.7886 26.5283 76.437 26.5283 81.0854ZM86.4056 81.0854C86.4056 84.8052 83.6734 88.4293 78.7127 91.2937C73.2258 94.4621 65.8678 96.2066 57.9892 96.2066C50.1106 96.2066 42.7526 94.4621 37.2657 91.2937C32.305 88.4293 29.5728 84.8052 29.5728 81.0854C29.5728 77.3655 32.305 73.7414 37.2657 70.877C42.7526 67.7086 50.1106 65.9641 57.9892 65.9641C65.8678 65.9641 73.2286 67.7086 78.7127 70.877C83.6762 73.7414 86.4056 77.374 86.4056 81.0854Z" fill="#9269AD"/>
<path opacity="0.2" d="M26.5283 81.0854V89.6477C26.5283 94.296 29.601 98.9332 35.7435 102.493C48.0284 109.586 67.95 109.586 80.2349 102.493C86.3774 98.9444 89.4501 94.296 89.4501 89.6477V81.0854C89.4501 76.437 86.3774 71.7999 80.2349 68.2433C67.95 61.1497 48.0284 61.1497 35.7435 68.2433C29.601 71.7886 26.5283 76.437 26.5283 81.0854ZM86.4056 81.0854C86.4056 84.8052 83.6734 88.4293 78.7127 91.2937C73.2258 94.4621 65.8678 96.2066 57.9892 96.2066C50.1106 96.2066 42.7526 94.4621 37.2657 91.2937C32.305 88.4293 29.5728 84.8052 29.5728 81.0854C29.5728 77.3655 32.305 73.7414 37.2657 70.877C42.7526 67.7086 50.1106 65.9641 57.9892 65.9641C65.8678 65.9641 73.2286 67.7086 78.7127 70.877C83.6762 73.7414 86.4056 77.374 86.4056 81.0854Z" fill="white"/>
<path opacity="0.6" d="M89.4191 90.4467C88.9295 93.3928 87.6324 95.61 82.4072 99.6872C75.021 105.455 56.3178 107.811 45.4622 104.229C35.2229 100.852 31.9561 94.2425 31.9561 89.7095L31.9842 87.0449C30.4029 85.1625 29.57 83.1394 29.57 81.0853C29.57 78.9806 30.4451 76.9068 32.1024 74.985L32.139 71.2314H31.5565C28.2053 74.2225 26.5283 77.6525 26.5283 81.0797V89.642C26.5283 94.2904 29.601 98.9275 35.7435 102.487C48.0284 109.58 67.95 109.58 80.2349 102.487C86.0257 99.1498 89.0871 94.8194 89.4191 90.4467Z" fill="#9269AD"/>
<path d="M80.2378 68.2433C67.95 61.1497 48.0312 61.1497 35.7463 68.2433C23.4613 75.3368 23.4585 86.8367 35.7463 93.9303C48.034 101.024 67.95 101.024 80.2378 93.9303C92.5255 86.8367 92.5227 75.3368 80.2378 68.2433ZM78.7155 91.2937C73.2286 94.4621 65.8678 96.2066 57.992 96.2066C50.1162 96.2066 42.7554 94.4621 37.2657 91.2937C32.305 88.4293 29.5728 84.8052 29.5728 81.0854C29.5728 77.3655 32.305 73.7414 37.2657 70.877C42.7526 67.7086 50.1134 65.9641 57.992 65.9641C65.8706 65.9641 73.2286 67.7086 78.7155 70.877C83.6762 73.7414 86.4084 77.3683 86.4084 81.0854C86.4084 84.8024 83.6762 88.4293 78.7155 91.2937Z" fill="#9269AD"/>
<path opacity="0.5" d="M80.2378 68.2433C67.95 61.1497 48.0312 61.1497 35.7463 68.2433C23.4613 75.3368 23.4585 86.8367 35.7463 93.9303C48.034 101.024 67.95 101.024 80.2378 93.9303C92.5255 86.8367 92.5227 75.3368 80.2378 68.2433ZM78.7155 91.2937C73.2286 94.4621 65.8678 96.2066 57.992 96.2066C50.1162 96.2066 42.7554 94.4621 37.2657 91.2937C32.305 88.4293 29.5728 84.8052 29.5728 81.0854C29.5728 77.3655 32.305 73.7414 37.2657 70.877C42.7526 67.7086 50.1134 65.9641 57.992 65.9641C65.8706 65.9641 73.2286 67.7086 78.7155 70.877C83.6762 73.7414 86.4084 77.3683 86.4084 81.0854C86.4084 84.8024 83.6762 88.4293 78.7155 91.2937Z" fill="white"/>
<path d="M86.4112 81.0856C86.3931 82.5976 85.9684 84.0769 85.1816 85.3682C83.9351 83.21 81.7375 81.1841 78.7099 79.4424C73.2287 76.2712 65.865 74.5267 57.9864 74.5267C50.1078 74.5267 42.7498 76.2712 37.2658 79.4424C34.2409 81.1841 32.0462 83.21 30.7941 85.3682C30.0135 84.0746 29.592 82.5963 29.5729 81.0856C29.5729 77.3686 32.3051 73.7416 37.2686 70.8744C42.7526 67.7117 50.1135 65.9644 57.9892 65.9644C65.865 65.9644 73.2315 67.7117 78.7127 70.8744C83.6791 73.7416 86.4112 77.3742 86.4112 81.0856Z" fill="#9269AD"/>
<path opacity="0.3" d="M86.4112 81.0856C86.3931 82.5976 85.9684 84.0769 85.1816 85.3682C83.9351 83.21 81.7375 81.1841 78.7099 79.4424C73.2287 76.2712 65.865 74.5267 57.9864 74.5267C50.1078 74.5267 42.7498 76.2712 37.2658 79.4424C34.2409 81.1841 32.0462 83.21 30.7941 85.3682C30.0135 84.0746 29.592 82.5963 29.5729 81.0856C29.5729 77.3686 32.3051 73.7416 37.2686 70.8744C42.7526 67.7117 50.1135 65.9644 57.9892 65.9644C65.865 65.9644 73.2315 67.7117 78.7127 70.8744C83.6791 73.7416 86.4112 77.3742 86.4112 81.0856Z" fill="white"/>
<path opacity="0.6" d="M37.2686 70.8742C32.3051 73.7414 29.5729 77.3684 29.5729 81.0854C29.5928 82.5963 30.0154 84.0746 30.7969 85.368C32.0518 83.2098 34.2466 81.1839 37.2686 79.4421C38.5465 78.7112 39.8741 78.0709 41.2416 77.5259C40.0429 77.9902 36.3625 79.1748 37.7047 75.666C39.3001 71.4988 47.0858 66.9855 52.8063 66.2371C46.9226 66.8195 41.5286 68.4177 37.2686 70.8742Z" fill="#9269AD"/>
<path opacity="0.4" d="M78.7155 74.7544C73.2286 71.5861 65.8678 69.8416 57.992 69.8416C50.1162 69.8416 42.7526 71.5861 37.2657 74.7544C33.1744 77.118 30.6027 79.9993 29.826 83.0241C30.6027 86.0489 33.1744 88.9331 37.2657 91.2938C42.7554 94.4621 50.1134 96.2067 57.992 96.2067C65.8706 96.2067 73.2286 94.4621 78.7155 91.2938C82.8095 88.9302 85.3813 86.0489 86.1551 83.0241C85.3841 79.9993 82.8095 77.118 78.7155 74.7544Z" fill="white"/>
<path d="M35.1638 84.9881C36.9224 86.3669 38.9174 87.2392 40.9518 87.9314C42.9917 88.6069 45.0811 89.1224 47.2012 89.4733C51.4374 90.1612 55.7337 90.4064 60.0208 90.2049C62.162 90.1092 64.3061 89.9095 66.4362 89.6224C68.5595 89.3372 70.6634 88.9228 72.7362 88.3816C74.799 87.8655 76.7944 87.1101 78.6817 86.1305C79.1476 85.8823 79.5986 85.607 80.0324 85.3061C80.4679 85.0089 80.8808 84.6797 81.2676 84.3213C81.6577 83.9611 82.006 83.558 82.3059 83.1198C82.6162 82.6696 82.8527 82.1728 83.0065 81.6482C83.0157 82.2233 82.9204 82.7954 82.7251 83.3365C82.5186 83.8804 82.2485 84.3979 81.9204 84.8784C81.5961 85.3624 81.2268 85.8146 80.8174 86.229C80.4121 86.6453 79.9807 87.0353 79.5259 87.3967C77.6923 88.7944 75.6598 89.9098 73.4959 90.7058C71.3625 91.5096 69.1619 92.1226 66.9201 92.5375C64.6902 92.9596 62.4338 93.2275 60.1671 93.3394C55.6173 93.5773 51.0586 93.092 46.6609 91.9016C44.461 91.2988 42.3362 90.4493 40.3271 89.3692C39.3266 88.8207 38.3757 88.1861 37.4852 87.4727C37.2629 87.2955 37.0547 87.1013 36.8408 86.91C36.627 86.7186 36.4244 86.5245 36.2302 86.3191C35.8383 85.9059 35.4816 85.4607 35.1638 84.9881Z" fill="white"/>
<path d="M79.3007 99.3807C79.3385 98.6155 79.5565 97.8701 79.9369 97.2051C80.3173 96.5401 80.8494 95.9744 81.4898 95.5539C82.0919 95.2022 82.6406 95.1656 83.0402 95.3907L90.0521 99.4004C90.4489 99.6283 90.6965 100.121 90.6993 100.807C90.6608 101.572 90.4425 102.317 90.0622 102.982C89.6818 103.647 89.1501 104.213 88.5102 104.634C87.9024 104.989 87.3509 105.025 86.9513 104.794L79.9422 100.788C79.5539 100.579 79.3035 100.087 79.3007 99.3807Z" fill="#37474F"/>
<path d="M79.9563 100.807C79.5539 100.579 79.3035 100.087 79.3007 99.3808C79.3107 98.8113 79.4381 98.25 79.6749 97.7319L89.751 103.506C89.4232 103.967 89.006 104.357 88.5242 104.654C87.9165 105.008 87.365 105.045 86.9654 104.814L79.9563 100.807Z" fill="#263238"/>
<path d="M113.927 110.805L91.6139 99.4341L91.5857 99.4172C91.068 99.1358 90.3645 99.1864 89.5908 99.6366C88.0094 100.56 86.7348 102.788 86.7432 104.617C86.7432 105.534 87.0724 106.176 87.5873 106.474L108.558 119.98C109.162 120.362 109.836 120.619 110.541 120.734C111.245 120.85 111.966 120.823 112.66 120.654C113.354 120.485 114.006 120.178 114.579 119.752C115.152 119.325 115.633 118.788 115.993 118.171C116.354 117.555 116.586 116.872 116.677 116.164C116.768 115.456 116.716 114.736 116.523 114.049C116.329 113.361 116 112.72 115.554 112.162C115.107 111.605 114.553 111.143 113.924 110.805H113.927Z" fill="#455A64"/>
<path d="M87.5902 106.48L108.561 119.986C109.341 120.475 110.234 120.754 111.154 120.794C112.074 120.834 112.988 120.635 113.807 120.215C114.627 119.795 115.323 119.17 115.828 118.4C116.333 117.631 116.629 116.743 116.688 115.824C116.285 117.572 113.398 119.057 109.819 117.057C106.24 115.056 92.9814 106.674 86.9571 103.205C86.8157 103.66 86.7418 104.134 86.7377 104.611C86.7405 105.54 87.0725 106.182 87.5902 106.48Z" fill="#37474F"/>
<path d="M87.59 106.48C87.0666 106.182 86.7458 105.54 86.7458 104.623C86.7458 102.794 88.012 100.565 89.5934 99.6423C90.3672 99.1921 91.0706 99.1442 91.5884 99.4228L93.558 100.425C93.0262 100.143 92.3087 100.188 91.5124 100.65C89.8917 101.595 88.5832 103.883 88.5917 105.759C88.5917 106.699 88.9153 107.372 89.4499 107.676" fill="#9269AD"/>
<path opacity="0.2" d="M89.4473 107.676C88.9127 107.372 88.6032 106.699 88.5891 105.76C88.5922 105.262 88.669 104.768 88.8171 104.294C88.1446 103.894 87.5171 103.528 86.9571 103.205C86.8862 103.44 86.8307 103.68 86.7911 103.922C86.7743 104.04 86.7602 104.158 86.7489 104.277C86.7489 104.395 86.7349 104.51 86.7489 104.623C86.7489 105.54 87.0781 106.182 87.5931 106.48L89.4473 107.676Z" fill="black"/>
<path d="M34.2326 119.513L17.3499 111.069L10.625 114.046L34.2326 119.513Z" fill="#9269AD"/>
<g opacity="0.15">
<path opacity="0.15" d="M34.2326 119.513L17.3499 111.069L10.625 114.046L34.2326 119.513Z" fill="white"/>
</g>
<path d="M34.2324 119.513L19.3616 109.572L22.0234 105.745L34.2324 119.513Z" fill="#9269AD"/>
<g opacity="0.15">
<path opacity="0.15" d="M34.2324 119.513L19.3616 109.572L22.0234 105.745L34.2324 119.513Z" fill="white"/>
</g>
<path d="M19.3616 109.572L19.6401 112.214L34.2324 119.513L19.3616 109.572Z" fill="#9269AD"/>
<g opacity="0.2">
<path opacity="0.2" d="M19.3616 109.572L19.6401 112.214L34.2324 119.513L19.3616 109.572Z" fill="black"/>
</g>
<path d="M16.9531 109.066C16.9939 109.065 17.033 109.049 17.0628 109.021C17.0972 108.987 17.118 108.941 17.1211 108.893C17.1242 108.845 17.1095 108.797 17.0797 108.759L16.7561 108.326C16.743 108.307 16.7261 108.292 16.7066 108.281C16.6871 108.27 16.6654 108.263 16.643 108.261C16.6206 108.259 16.598 108.261 16.5768 108.269C16.5555 108.276 16.5361 108.288 16.5197 108.303C16.4854 108.337 16.4645 108.382 16.4609 108.43C16.4573 108.478 16.4712 108.526 16.5 108.565C16.607 108.708 16.7167 108.846 16.8264 108.99C16.8402 109.011 16.8589 109.029 16.8808 109.043C16.9028 109.056 16.9275 109.064 16.9531 109.066Z" fill="#455A64"/>
<path d="M15.4703 107.147C15.2696 106.854 15.0754 106.559 14.8878 106.261C14.8624 106.22 14.8527 106.171 14.8605 106.123C14.8683 106.076 14.893 106.032 14.93 106.002C14.9475 105.988 14.9678 105.978 14.9895 105.973C15.0112 105.967 15.0338 105.967 15.0558 105.971C15.0777 105.975 15.0984 105.984 15.1165 105.997C15.1347 106.01 15.1498 106.027 15.1608 106.047C15.3493 106.342 15.5406 106.635 15.7235 106.925C15.7511 106.964 15.7629 107.013 15.7566 107.061C15.7504 107.108 15.7265 107.152 15.6898 107.183C15.6624 107.207 15.6274 107.22 15.5913 107.22C15.567 107.217 15.5435 107.21 15.5226 107.197C15.5017 107.184 15.4838 107.167 15.4703 107.147ZM13.9818 104.73C13.8101 104.418 13.6413 104.1 13.4809 103.782C13.4589 103.739 13.4533 103.689 13.4652 103.643C13.4772 103.596 13.5058 103.555 13.5457 103.528C13.565 103.516 13.5867 103.509 13.6093 103.506C13.6319 103.503 13.6548 103.506 13.6764 103.512C13.6981 103.519 13.718 103.531 13.7348 103.546C13.7515 103.562 13.7648 103.581 13.7736 103.602C13.9311 103.914 14.0972 104.226 14.266 104.536C14.2899 104.578 14.2977 104.627 14.2879 104.674C14.278 104.721 14.2512 104.763 14.2125 104.792C14.1862 104.808 14.1561 104.817 14.1253 104.817C14.0958 104.817 14.0669 104.808 14.0417 104.793C14.0165 104.778 13.9958 104.756 13.9818 104.73ZM12.7268 102.152C12.5862 101.818 12.4455 101.48 12.3273 101.145C12.31 101.101 12.3097 101.052 12.3263 101.007C12.3429 100.962 12.3753 100.925 12.4173 100.903C12.4383 100.894 12.4609 100.89 12.4836 100.89C12.5064 100.89 12.5288 100.896 12.5495 100.905C12.5702 100.915 12.5886 100.928 12.6036 100.946C12.6187 100.963 12.63 100.983 12.6368 101.004C12.7578 101.334 12.89 101.666 13.0307 101.995C13.0496 102.039 13.0518 102.088 13.0368 102.134C13.0217 102.18 12.9906 102.218 12.9491 102.242C12.9273 102.253 12.9032 102.259 12.8788 102.259C12.8458 102.258 12.8138 102.248 12.7868 102.229C12.7598 102.21 12.7389 102.183 12.7268 102.152ZM11.7533 99.4287C11.652 99.077 11.5563 98.7196 11.4719 98.3735C11.4585 98.3276 11.4632 98.2783 11.4853 98.2358C11.5073 98.1934 11.5448 98.1611 11.5901 98.1456C11.6121 98.1398 11.6351 98.1386 11.6576 98.142C11.6801 98.1455 11.7016 98.1535 11.7209 98.1657C11.7402 98.1778 11.7567 98.1938 11.7696 98.2126C11.7824 98.2314 11.7912 98.2527 11.7955 98.275C11.8771 98.6183 11.9699 98.9672 12.0769 99.3133C12.0912 99.3586 12.0882 99.4075 12.0684 99.4507C12.0486 99.4938 12.0136 99.5281 11.9699 99.5468H11.9193C11.8826 99.5475 11.8467 99.5363 11.8168 99.5151C11.787 99.4938 11.7647 99.4635 11.7533 99.4287ZM11.1005 96.5839C11.0442 96.2266 10.9936 95.8608 10.9513 95.4978C10.9431 95.4512 10.9535 95.4032 10.9804 95.3643C11.0073 95.3253 11.0484 95.2985 11.0948 95.2896C11.141 95.2865 11.1865 95.3015 11.2217 95.3314C11.257 95.3614 11.2791 95.4039 11.2834 95.45C11.3228 95.8073 11.3734 96.1675 11.4297 96.5192C11.4392 96.565 11.4307 96.6127 11.4061 96.6525C11.3815 96.6922 11.3426 96.7211 11.2974 96.7331H11.2665C11.2259 96.731 11.1873 96.7151 11.1571 96.6879C11.1269 96.6608 11.1069 96.6241 11.1005 96.5839ZM10.8191 93.6689C10.8191 93.3875 10.8022 93.1061 10.8022 92.805V92.5687C10.8011 92.5458 10.8045 92.5228 10.8122 92.5012C10.8199 92.4796 10.8319 92.4598 10.8473 92.4428C10.8627 92.4258 10.8813 92.412 10.9021 92.4022C10.9228 92.3925 10.9453 92.3869 10.9682 92.3858C11.0148 92.3894 11.058 92.4112 11.0886 92.4465C11.1191 92.4818 11.1345 92.5277 11.1314 92.5743V92.805C11.1314 93.0864 11.1314 93.3678 11.1314 93.6492C11.1354 93.6961 11.1208 93.7427 11.0908 93.7789C11.0608 93.8152 11.0178 93.8383 10.971 93.8433C10.9288 93.8378 10.89 93.817 10.862 93.7849C10.834 93.7528 10.8187 93.7115 10.8191 93.6689ZM11.0414 90.9423C10.9953 90.934 10.9542 90.9084 10.9265 90.8707C10.8987 90.833 10.8865 90.7862 10.8923 90.7397C10.9232 90.3767 10.9626 90.0081 11.0076 89.6452C11.0093 89.6222 11.0157 89.5998 11.0264 89.5793C11.0371 89.5589 11.0519 89.5409 11.0698 89.5264C11.0877 89.5119 11.1085 89.5012 11.1307 89.495C11.1529 89.4888 11.1761 89.4873 11.199 89.4904C11.2449 89.4999 11.2853 89.527 11.3116 89.5659C11.3379 89.6048 11.348 89.6524 11.3396 89.6986C11.2946 90.056 11.2552 90.4189 11.2243 90.7735C11.2223 90.8171 11.2042 90.8585 11.1736 90.8897C11.143 90.9208 11.1019 90.9396 11.0583 90.9423H11.0414ZM11.4353 88.0666C11.3903 88.0523 11.3524 88.0213 11.3294 87.98C11.3064 87.9387 11.3 87.8902 11.3115 87.8443C11.3847 87.487 11.4691 87.1296 11.5619 86.7779C11.5661 86.7556 11.575 86.7344 11.5878 86.7157C11.6007 86.697 11.6173 86.6812 11.6367 86.6692C11.656 86.6573 11.6776 86.6496 11.7001 86.6465C11.7226 86.6434 11.7455 86.645 11.7673 86.6513C11.8119 86.6684 11.8484 86.7016 11.8698 86.7443C11.8911 86.787 11.8957 86.8361 11.8827 86.882C11.7927 87.2253 11.7083 87.5798 11.6351 87.9288C11.6292 87.9676 11.61 88.0032 11.5807 88.0294C11.5515 88.0556 11.514 88.0707 11.4747 88.0723L11.4353 88.0666ZM12.195 85.2838C12.1522 85.263 12.1189 85.2268 12.1016 85.1824C12.0844 85.1381 12.0846 85.0889 12.1022 85.0446C12.2232 84.707 12.3582 84.3665 12.4989 84.0345C12.5069 84.0134 12.5191 83.9942 12.5348 83.9781C12.5506 83.9619 12.5695 83.9493 12.5904 83.9408C12.6112 83.9323 12.6336 83.9283 12.6562 83.9289C12.6787 83.9295 12.7008 83.9348 12.7212 83.9444C12.7622 83.9691 12.793 84.0077 12.808 84.0531C12.8229 84.0985 12.8211 84.1478 12.8028 84.1921C12.6621 84.5185 12.5214 84.8505 12.4117 85.1825C12.4011 85.2155 12.3806 85.2443 12.3528 85.265C12.3251 85.2857 12.2915 85.2972 12.2569 85.2979C12.2354 85.2986 12.2141 85.2938 12.195 85.2838ZM13.3515 82.6698C13.3119 82.6419 13.2839 82.6003 13.273 82.5531C13.2621 82.5058 13.269 82.4562 13.2924 82.4137C13.4641 82.1014 13.6441 81.7891 13.827 81.488C13.8378 81.4681 13.8528 81.4507 13.871 81.4371C13.8891 81.4234 13.91 81.4139 13.9322 81.4091C13.9544 81.4043 13.9773 81.4043 13.9995 81.4092C14.0216 81.4141 14.0425 81.4237 14.0606 81.4374C14.0976 81.4681 14.1225 81.5111 14.1307 81.5585C14.139 81.6059 14.1301 81.6548 14.1056 81.6962C13.9227 81.9917 13.7454 82.2984 13.5794 82.6051C13.566 82.6318 13.5456 82.6543 13.5203 82.6702C13.495 82.6861 13.4658 82.6947 13.4359 82.6951C13.4059 82.695 13.3766 82.6862 13.3515 82.6698ZM14.8456 80.2809C14.8115 80.2475 14.7907 80.2028 14.7871 80.1552C14.7835 80.1075 14.7973 80.0602 14.8259 80.022C15.037 79.7407 15.2592 79.4593 15.4815 79.1948C15.4961 79.1776 15.5142 79.1638 15.5346 79.1543C15.555 79.1448 15.5772 79.1399 15.5997 79.1399C15.6222 79.1399 15.6444 79.1448 15.6649 79.1543C15.6853 79.1638 15.7034 79.1776 15.7179 79.1948C15.7499 79.2308 15.7676 79.2774 15.7676 79.3256C15.7676 79.3738 15.7499 79.4204 15.7179 79.4565C15.4984 79.7181 15.2818 79.9883 15.0735 80.2668C15.0588 80.2875 15.0394 80.3044 15.0169 80.3162C14.9944 80.3279 14.9695 80.3341 14.9441 80.3344C14.9226 80.3339 14.9015 80.3289 14.8821 80.3197C14.8627 80.3105 14.8455 80.2973 14.8315 80.2809H14.8456ZM16.6549 78.1762C16.6228 78.1401 16.6051 78.0936 16.6051 78.0453C16.6051 77.9971 16.6228 77.9506 16.6549 77.9145C16.9025 77.6697 17.1585 77.4305 17.4146 77.2054C17.4315 77.1904 17.4514 77.1792 17.473 77.1725C17.4946 77.1659 17.5174 77.1639 17.5399 77.1669C17.5623 77.1698 17.5838 77.1775 17.603 77.1895C17.6221 77.2015 17.6385 77.2175 17.651 77.2364C17.6782 77.2762 17.6903 77.3244 17.6852 77.3724C17.68 77.4204 17.6579 77.4649 17.6228 77.4981C17.3696 77.7175 17.1192 77.9511 16.8744 78.1903C16.8455 78.22 16.8061 78.2372 16.7646 78.2381C16.7407 78.2377 16.7171 78.2319 16.6957 78.2212C16.6743 78.2105 16.6555 78.1951 16.6408 78.1762H16.6549ZM18.7258 76.3951C18.7027 76.3533 18.6951 76.3046 18.7044 76.2578C18.7137 76.2109 18.7392 76.1689 18.7765 76.139C19.0578 75.9364 19.3392 75.7479 19.6206 75.5763C19.6399 75.5648 19.6613 75.5576 19.6836 75.5552C19.7059 75.5527 19.7284 75.555 19.7497 75.5619C19.771 75.5688 19.7906 75.5802 19.8071 75.5953C19.8237 75.6104 19.8368 75.6288 19.8457 75.6494C19.8676 75.6918 19.8731 75.7408 19.8611 75.787C19.8492 75.8332 19.8207 75.8733 19.781 75.8998C19.4996 76.0687 19.2182 76.2544 18.9369 76.4626C18.9105 76.4811 18.879 76.4909 18.8468 76.4907C18.8181 76.4875 18.7906 76.477 18.767 76.4603C18.7434 76.4435 18.7244 76.4211 18.7118 76.3951H18.7258Z" fill="#455A64"/>
<path d="M21.2017 75.1792H21.2524C21.401 75.1229 21.5546 75.0805 21.711 75.0526C21.7572 75.0424 21.7977 75.0148 21.8239 74.9754C21.8501 74.9361 21.8601 74.8881 21.8517 74.8416C21.85 74.8187 21.8437 74.7965 21.8332 74.7761C21.8227 74.7558 21.8082 74.7377 21.7907 74.7231C21.7731 74.7084 21.7528 74.6973 21.7309 74.6906C21.709 74.6839 21.686 74.6817 21.6632 74.684C21.4889 74.7166 21.3176 74.7636 21.1511 74.8247C21.1065 74.8424 21.0704 74.8764 21.05 74.9197C21.0296 74.9631 21.0265 75.0126 21.0414 75.0582C21.052 75.0927 21.0732 75.1229 21.102 75.1446C21.1308 75.1664 21.1657 75.1785 21.2017 75.1792Z" fill="#455A64"/>
<path d="M100.213 10.4483L82.908 5.14429L96.2396 14.3031L100.213 10.4483Z" fill="#9269AD"/>
<path opacity="0.15" d="M100.213 10.4483L82.908 5.14429L96.2396 14.3031L100.213 10.4483Z" fill="white"/>
<path d="M82.9081 5.14434L101.532 8.14101L105.506 4.28613L82.9081 5.14434Z" fill="#9269AD"/>
<path opacity="0.15" d="M82.9081 5.14434L101.532 8.14101L105.506 4.28613L82.9081 5.14434Z" fill="white"/>
<path d="M101.532 8.14096L101.549 12.7443L100.213 10.4483L82.908 5.14429L101.532 8.14096Z" fill="#9269AD"/>
<path opacity="0.2" d="M101.532 8.14096L101.549 12.7443L100.213 10.4483L82.908 5.14429L101.532 8.14096Z" fill="black"/>
<path d="M101.549 12.7443L98.8875 11.7341L100.213 10.4482L101.549 12.7443Z" fill="#9269AD"/>
<path opacity="0.2" d="M100.213 10.4482L98.8875 11.7341L99.3123 11.8945L100.213 10.4482Z" fill="black"/>
<path d="M105.041 9.63794C105.025 9.64996 105.011 9.66513 105.001 9.68254C104.991 9.69995 104.985 9.71924 104.982 9.73924C104.976 9.78726 104.988 9.83579 105.015 9.87605C105.041 9.9163 105.082 9.94563 105.128 9.95871L105.64 10.0966C105.662 10.1033 105.685 10.1053 105.707 10.1024C105.729 10.0995 105.751 10.0917 105.77 10.0797C105.789 10.0676 105.805 10.0516 105.817 10.0326C105.829 10.0137 105.837 9.99228 105.84 9.96997C105.847 9.9226 105.836 9.8744 105.811 9.83412C105.785 9.79384 105.745 9.76417 105.7 9.75049L105.182 9.61262C105.158 9.60567 105.133 9.60434 105.109 9.60874C105.084 9.61313 105.061 9.62313 105.041 9.63794Z" fill="#455A64"/>
<path d="M107.385 10.2655C107.72 10.378 108.055 10.4962 108.384 10.6172C108.429 10.6343 108.467 10.6669 108.49 10.7092C108.513 10.7515 108.52 10.8007 108.511 10.8479C108.505 10.8697 108.494 10.89 108.48 10.9073C108.466 10.9247 108.448 10.9388 108.427 10.9487C108.407 10.9586 108.385 10.964 108.363 10.9645C108.34 10.9651 108.318 10.9609 108.297 10.952C107.97 10.831 107.638 10.7157 107.306 10.6031C107.261 10.5877 107.223 10.5563 107.199 10.5149C107.175 10.4735 107.168 10.4249 107.177 10.378C107.183 10.3419 107.204 10.3097 107.233 10.288C107.255 10.2718 107.28 10.2613 107.306 10.2573C107.333 10.2534 107.36 10.2562 107.385 10.2655ZM110.033 11.2841C110.362 11.4304 110.686 11.5654 111.006 11.7371C111.05 11.7574 111.084 11.7931 111.103 11.8372C111.122 11.8814 111.123 11.9309 111.108 11.9762C111.099 11.9972 111.087 12.0162 111.07 12.0319C111.054 12.0477 111.035 12.0598 111.014 12.0675C110.992 12.0752 110.97 12.0783 110.947 12.0767C110.925 12.075 110.903 12.0686 110.883 12.0578C110.568 11.9031 110.247 11.754 109.923 11.6133C109.88 11.5935 109.845 11.5588 109.824 11.5154C109.804 11.4721 109.8 11.4229 109.813 11.3769C109.823 11.3465 109.841 11.3199 109.867 11.3009C109.891 11.2834 109.918 11.2726 109.948 11.2697C109.977 11.2667 110.006 11.2717 110.033 11.2841ZM112.593 12.5756C112.909 12.7557 113.218 12.9442 113.522 13.1383C113.562 13.1635 113.592 13.2024 113.606 13.2479C113.62 13.2934 113.617 13.3425 113.598 13.3859C113.587 13.4059 113.572 13.4232 113.553 13.4369C113.535 13.4505 113.514 13.4602 113.492 13.4652C113.469 13.4703 113.446 13.4706 113.424 13.4661C113.402 13.4617 113.38 13.4526 113.362 13.4394C113.063 13.2509 112.757 13.068 112.447 12.8767C112.405 12.8534 112.374 12.8155 112.358 12.7704C112.343 12.7252 112.344 12.6759 112.363 12.6319C112.372 12.6084 112.388 12.588 112.408 12.5728C112.436 12.555 112.468 12.5458 112.501 12.5463C112.534 12.5468 112.566 12.557 112.593 12.5756ZM115.019 14.1541C115.314 14.3708 115.604 14.5959 115.883 14.821C115.92 14.8501 115.946 14.8923 115.954 14.9393C115.961 14.9863 115.951 15.0345 115.925 15.0742C115.911 15.0924 115.894 15.1075 115.873 15.1185C115.853 15.1295 115.831 15.1361 115.808 15.138C115.786 15.1399 115.763 15.1369 115.741 15.1293C115.719 15.1217 115.7 15.1096 115.683 15.0939C115.402 14.8716 115.12 14.6521 114.839 14.4383C114.799 14.4109 114.772 14.3696 114.761 14.3227C114.751 14.2758 114.758 14.2266 114.783 14.1851C114.791 14.1703 114.802 14.1578 114.816 14.1485C114.847 14.1282 114.882 14.1179 114.919 14.1189C114.955 14.1199 114.99 14.1322 115.019 14.1541ZM117.256 16.0337C117.52 16.2841 117.782 16.543 118.035 16.8075C118.068 16.8416 118.086 16.8869 118.086 16.9341C118.086 16.9813 118.068 17.0267 118.035 17.0607C118.019 17.0771 118 17.09 117.979 17.0989C117.957 17.1077 117.935 17.1123 117.912 17.1123C117.888 17.1123 117.866 17.1077 117.844 17.0989C117.823 17.09 117.804 17.0771 117.788 17.0607C117.54 16.8019 117.281 16.5458 117.022 16.301C116.987 16.2696 116.965 16.2259 116.961 16.1789C116.957 16.1318 116.971 16.0849 117 16.0478L117.022 16.0253C117.055 15.9975 117.098 15.9831 117.141 15.9846C117.184 15.9862 117.225 16.0037 117.256 16.0337ZM119.251 18.1778C119.434 18.4001 119.611 18.6252 119.788 18.8559L119.929 19.0445C119.958 19.0804 119.973 19.1266 119.968 19.1729C119.964 19.2192 119.942 19.262 119.906 19.2921C119.887 19.3053 119.866 19.3145 119.843 19.3192C119.82 19.324 119.797 19.3241 119.774 19.3197C119.751 19.3152 119.73 19.3062 119.71 19.2933C119.691 19.2803 119.674 19.2637 119.662 19.2442L119.521 19.0585C119.349 18.8334 119.175 18.6111 118.995 18.3917C118.962 18.3581 118.944 18.3132 118.944 18.2664C118.944 18.2197 118.962 18.1748 118.995 18.1412C119.013 18.1251 119.034 18.1129 119.057 18.1053C119.08 18.0978 119.104 18.0952 119.128 18.0975C119.152 18.0999 119.176 18.1073 119.197 18.1192C119.218 18.1311 119.236 18.1472 119.251 18.1666V18.1778ZM120.728 20.4851C120.769 20.4633 120.818 20.4582 120.863 20.4708C120.908 20.4833 120.946 20.5126 120.97 20.5526C121.164 20.8622 121.356 21.1773 121.533 21.4953C121.545 21.5146 121.553 21.5362 121.557 21.5587C121.561 21.5813 121.56 21.6044 121.555 21.6267C121.55 21.649 121.54 21.67 121.527 21.6885C121.513 21.707 121.496 21.7226 121.477 21.7344C121.434 21.7535 121.385 21.7557 121.341 21.7406C121.297 21.7255 121.26 21.6941 121.237 21.6528C121.057 21.3405 120.869 21.0282 120.675 20.7271C120.65 20.6913 120.639 20.6475 120.645 20.6043C120.65 20.5611 120.672 20.5216 120.706 20.4936L120.728 20.4851ZM122.155 23.0175C122.2 23.0014 122.249 23.0028 122.293 23.0216C122.337 23.0404 122.372 23.0752 122.391 23.1188C122.546 23.448 122.698 23.7829 122.836 24.1177C122.845 24.1383 122.851 24.1607 122.852 24.1835C122.853 24.2063 122.849 24.229 122.841 24.2503C122.833 24.2716 122.82 24.291 122.804 24.3074C122.788 24.3238 122.769 24.3368 122.748 24.3456C122.702 24.3586 122.653 24.354 122.611 24.3327C122.568 24.3113 122.535 24.2748 122.518 24.2303C122.383 23.901 122.236 23.5718 122.082 23.2511C122.062 23.2162 122.056 23.1756 122.063 23.1364C122.071 23.0973 122.093 23.0621 122.124 23.0372C122.131 23.022 122.142 23.0085 122.155 22.9978V23.0175ZM123.238 25.6906C123.285 25.6817 123.333 25.6907 123.374 25.7157C123.414 25.7406 123.444 25.7799 123.457 25.8257C123.564 26.169 123.666 26.5207 123.753 26.8696C123.76 26.8912 123.762 26.914 123.759 26.9365C123.756 26.959 123.749 26.9807 123.737 27.0001C123.725 27.0195 123.71 27.0362 123.691 27.0491C123.673 27.062 123.651 27.0708 123.629 27.075C123.582 27.0811 123.534 27.0695 123.495 27.0425C123.456 27.0155 123.429 26.9749 123.418 26.9287C123.331 26.5854 123.232 26.2393 123.137 25.9045C123.125 25.8721 123.123 25.8368 123.132 25.8035C123.141 25.7702 123.161 25.7406 123.187 25.7187C123.2 25.6989 123.217 25.6825 123.238 25.6709V25.6906ZM123.913 28.4622C123.961 28.461 124.008 28.4775 124.045 28.5087C124.082 28.5398 124.106 28.5833 124.113 28.631C124.169 28.9827 124.214 29.3401 124.251 29.6946C124.254 29.7167 124.252 29.7391 124.245 29.7603C124.239 29.7816 124.228 29.8012 124.213 29.818C124.199 29.8347 124.181 29.8482 124.161 29.8575C124.14 29.8667 124.118 29.8717 124.096 29.8719C124.048 29.8714 124.002 29.8529 123.966 29.8202C123.931 29.7874 123.909 29.7427 123.905 29.6946C123.868 29.3485 123.826 28.9996 123.77 28.6535C123.765 28.6244 123.768 28.5944 123.778 28.5667C123.788 28.539 123.806 28.5146 123.829 28.496C123.85 28.4694 123.88 28.4507 123.913 28.4425V28.4622Z" fill="#455A64"/>
<path d="M126.994 73.3868C126.24 72.9366 125.177 72.9985 123.995 73.6682L102.565 86.0488C100.278 87.3685 98.4204 90.5087 98.4204 93.0608C98.4204 94.3073 98.865 95.1796 99.5853 95.5932L101.884 96.9185C102.635 97.3462 103.685 97.2787 104.85 96.6062L126.282 84.2255C128.57 82.9059 130.424 79.7657 130.424 77.2136C130.424 75.9755 129.985 75.1004 129.271 74.6812C128.88 74.4673 127.371 73.6119 126.994 73.3868Z" fill="#E0E0E0"/>
<path d="M102.948 97.0707C101.653 97.0707 100.849 96.0464 100.849 94.4004C100.849 91.8989 102.675 88.8066 104.92 87.5122L126.353 75.1316C126.905 74.7893 127.536 74.5954 128.185 74.5688C129.479 74.5688 130.284 75.5931 130.284 77.2391C130.284 79.7434 128.457 82.8329 126.212 84.1301L104.779 96.5107C104.228 96.8533 103.597 97.0463 102.948 97.0707Z" fill="#FAFAFA"/>
<path d="M128.184 74.698C129.392 74.698 130.154 75.6687 130.154 77.2304C130.154 79.6896 128.359 82.7257 126.153 83.9835L104.72 96.3641C104.19 96.695 103.583 96.8831 102.959 96.91C102.692 96.919 102.426 96.8666 102.182 96.7568C101.938 96.6471 101.723 96.4829 101.552 96.2769C101.152 95.7281 100.954 95.0584 100.989 94.3804C100.989 91.924 102.784 88.8879 104.99 87.6273L126.423 75.2467C126.953 74.9158 127.56 74.7277 128.184 74.7008V74.698ZM128.184 74.4194C127.51 74.4449 126.854 74.6467 126.282 75.0047L104.85 87.3853C102.562 88.7078 100.708 91.8452 100.708 94.3973C100.708 96.184 101.617 97.2111 102.959 97.2111C103.633 97.185 104.288 96.9843 104.861 96.6286L126.294 84.248C128.581 82.9283 130.435 79.7881 130.435 77.236C130.435 75.4493 129.527 74.4223 128.184 74.4223V74.4194Z" fill="#EBEBEB"/>
<path d="M108.21 90.1375C108.297 89.9743 108.283 89.8054 108.21 89.7604L107.492 89.3468C107.477 89.3389 107.46 89.3348 107.443 89.3348C107.426 89.3348 107.409 89.3389 107.394 89.3468L106.735 89.6L106.518 89.1386C106.508 89.1158 106.49 89.0971 106.468 89.0851L105.75 88.6687C105.66 88.618 105.511 88.7334 105.452 88.9247L105.005 90.3907C104.98 90.479 104.929 90.5576 104.858 90.6158L103.859 91.3896C103.699 91.5106 103.637 91.8088 103.752 91.8904L104.476 92.4138C104.501 92.4395 104.519 92.4709 104.529 92.5052C104.538 92.5396 104.539 92.5758 104.532 92.6108L104.36 94.0374C104.346 94.1415 104.377 94.2118 104.425 94.2371L105.142 94.6536C105.199 94.6845 105.283 94.6536 105.359 94.5607L106.254 93.4183C106.273 93.3871 106.299 93.3611 106.33 93.3429C106.362 93.3247 106.398 93.3148 106.434 93.3142L107.332 93.4127C107.472 93.4324 107.638 93.1735 107.613 92.9794L107.441 91.7498C107.434 91.6589 107.453 91.5677 107.498 91.4881L108.21 90.1375Z" fill="#9269AD"/>
<path opacity="0.15" d="M108.201 89.7549C108.186 89.7478 108.169 89.7441 108.152 89.7441C108.135 89.7441 108.118 89.7478 108.103 89.7549L107.101 90.1376C107.088 90.144 107.074 90.1476 107.059 90.1483C107.045 90.1489 107.03 90.1465 107.017 90.1412C107.003 90.1359 106.991 90.1278 106.981 90.1175C106.971 90.1072 106.963 90.0949 106.957 90.0813L106.727 89.5917L107.385 89.3413C107.4 89.3336 107.417 89.3296 107.434 89.3296C107.451 89.3296 107.468 89.3336 107.484 89.3413L108.201 89.7549Z" fill="white"/>
<path opacity="0.15" d="M105.714 90.8016C105.689 90.8896 105.638 90.968 105.567 91.0267L104.568 91.7976C104.522 91.8334 104.486 91.8798 104.462 91.9327L103.744 91.5163C103.77 91.4642 103.806 91.4182 103.851 91.3812L104.85 90.6102C104.92 90.5527 104.971 90.4752 104.996 90.3879L105.714 90.8016Z" fill="white"/>
<path opacity="0.1" d="M106.465 89.0823C106.375 89.0232 106.223 89.1386 106.161 89.3356L105.714 90.8015L104.996 90.3851L105.444 88.9191C105.503 88.7278 105.652 88.6124 105.742 88.6631C105.762 88.6631 106.369 89.0288 106.462 89.0795L106.465 89.0823Z" fill="black"/>
<path opacity="0.25" d="M105.185 92.8245L104.473 92.4137L103.75 91.8903C103.665 91.8284 103.677 91.6596 103.75 91.5217L104.467 91.9382C104.394 92.0732 104.383 92.2449 104.467 92.3068L105.185 92.8245Z" fill="black"/>
<path opacity="0.15" d="M105.081 94.4481C105.081 94.5522 105.097 94.6225 105.151 94.6506L104.431 94.2342C104.402 94.2103 104.381 94.1788 104.37 94.1434C104.359 94.108 104.359 94.0702 104.369 94.0344L104.54 92.6078C104.547 92.5742 104.547 92.5394 104.538 92.5061C104.529 92.4729 104.512 92.4422 104.49 92.4165L105.202 92.8273C105.225 92.8523 105.241 92.8826 105.25 92.9154C105.259 92.9482 105.26 92.9827 105.252 93.0158L105.081 94.4481Z" fill="black"/>
<path d="M106.51 89.1328L106.957 90.0839C106.962 90.0974 106.97 90.1098 106.981 90.1201C106.991 90.1304 107.003 90.1385 107.017 90.1438C107.03 90.1491 107.045 90.1515 107.059 90.1509C107.074 90.1502 107.088 90.1466 107.101 90.1401L108.103 89.7575C108.26 89.6956 108.325 89.9207 108.209 90.1373L107.486 91.4936C107.442 91.5732 107.422 91.6644 107.43 91.7553L107.602 92.9849C107.627 93.179 107.461 93.4379 107.32 93.4182L106.426 93.3085C106.389 93.3091 106.353 93.3189 106.322 93.3371C106.29 93.3554 106.264 93.3813 106.245 93.4126L105.362 94.555C105.218 94.7379 105.052 94.6732 105.081 94.4452L105.252 93.0186C105.26 92.9837 105.259 92.9473 105.25 92.9129C105.24 92.8784 105.221 92.847 105.196 92.8217L104.473 92.3011C104.357 92.2167 104.422 91.9213 104.58 91.7975L105.579 91.0265C105.649 90.9683 105.7 90.8897 105.725 90.8014L106.172 89.3354C106.231 89.1019 106.437 88.9837 106.51 89.1328Z" fill="#9269AD"/>
<path opacity="0.5" d="M106.51 89.1328L106.957 90.0839C106.962 90.0974 106.97 90.1098 106.981 90.1201C106.991 90.1304 107.003 90.1385 107.017 90.1438C107.03 90.1491 107.045 90.1515 107.059 90.1509C107.074 90.1502 107.088 90.1466 107.101 90.1401L108.103 89.7575C108.26 89.6956 108.325 89.9207 108.209 90.1373L107.486 91.4936C107.442 91.5732 107.422 91.6644 107.43 91.7553L107.602 92.9849C107.627 93.179 107.461 93.4379 107.32 93.4182L106.426 93.3085C106.389 93.3091 106.353 93.3189 106.322 93.3371C106.29 93.3554 106.264 93.3813 106.245 93.4126L105.362 94.555C105.218 94.7379 105.052 94.6732 105.081 94.4452L105.252 93.0186C105.26 92.9837 105.259 92.9473 105.25 92.9129C105.24 92.8784 105.221 92.847 105.196 92.8217L104.473 92.3011C104.357 92.2167 104.422 91.9213 104.58 91.7975L105.579 91.0265C105.649 90.9683 105.7 90.8897 105.725 90.8014L106.172 89.3354C106.231 89.1019 106.437 88.9837 106.51 89.1328Z" fill="white"/>
<path d="M113.241 87.2391C113.328 87.0759 113.311 86.9099 113.241 86.8649L112.526 86.4513C112.51 86.4434 112.493 86.4392 112.475 86.4392C112.458 86.4392 112.44 86.4434 112.425 86.4513L111.769 86.7045L111.55 86.2431C111.541 86.22 111.524 86.201 111.502 86.1896L110.784 85.7732C110.694 85.7225 110.545 85.8379 110.486 86.0292L110.019 87.5036C109.993 87.5914 109.942 87.6697 109.873 87.7287L108.874 88.4997C108.713 88.6235 108.651 88.9218 108.764 89.0034L109.49 89.5267C109.515 89.5524 109.533 89.5839 109.542 89.6183C109.551 89.6528 109.552 89.689 109.543 89.7237L109.375 91.1503C109.361 91.2544 109.389 91.3248 109.436 91.3501L110.146 91.7524C110.202 91.7834 110.283 91.7524 110.362 91.6596L111.257 90.5172C111.276 90.4859 111.302 90.46 111.334 90.4418C111.365 90.4236 111.401 90.4137 111.437 90.4131L112.332 90.5228C112.473 90.5397 112.639 90.2836 112.613 90.0895L112.444 88.8599C112.435 88.7689 112.455 88.6774 112.501 88.5982L113.241 87.2391Z" fill="#9269AD"/>
<path opacity="0.15" d="M113.224 86.8621C113.208 86.8552 113.191 86.8516 113.174 86.8516C113.157 86.8516 113.141 86.8552 113.125 86.8621L112.115 87.2448C112.102 87.2513 112.087 87.2549 112.073 87.2556C112.058 87.2562 112.043 87.2538 112.03 87.2486C112.016 87.2433 112.003 87.2352 111.993 87.2249C111.982 87.2146 111.974 87.2022 111.969 87.1885L111.741 86.6989L112.396 86.4485C112.412 86.4408 112.429 86.4368 112.447 86.4368C112.465 86.4368 112.482 86.4408 112.498 86.4485L113.224 86.8621Z" fill="white"/>
<path opacity="0.15" d="M110.736 87.906C110.711 87.9941 110.66 88.0725 110.59 88.1311L109.583 88.9106C109.537 88.9463 109.5 88.9927 109.476 89.0456L108.764 88.6292C108.792 88.5776 108.829 88.5318 108.874 88.4941L109.873 87.7231C109.942 87.6642 109.993 87.5859 110.019 87.498L110.736 87.906Z" fill="white"/>
<path opacity="0.1" d="M111.488 86.1869C111.398 86.1278 111.246 86.2432 111.184 86.4401L110.736 87.9061L110.019 87.5037L110.466 86.0378C110.525 85.8464 110.674 85.7311 110.764 85.7817C110.784 85.7817 111.392 86.1475 111.482 86.1953L111.488 86.1869Z" fill="black"/>
<path opacity="0.25" d="M110.207 89.9264L109.496 89.5184L108.772 88.9951C108.691 88.9332 108.702 88.7643 108.772 88.6265L109.493 89.0429C109.42 89.178 109.408 89.3496 109.493 89.4087L110.207 89.9264Z" fill="black"/>
<path opacity="0.15" d="M110.092 91.55C110.078 91.6569 110.109 91.7272 110.159 91.7554L109.442 91.3389C109.394 91.3108 109.366 91.2433 109.38 91.1392L109.552 89.7126C109.558 89.6789 109.557 89.6442 109.548 89.6111C109.539 89.578 109.523 89.5473 109.501 89.5212L110.213 89.9292C110.236 89.9543 110.252 89.9845 110.261 90.0173C110.27 90.0501 110.271 90.0846 110.264 90.1178L110.092 91.55Z" fill="black"/>
<path d="M111.53 86.2377L111.977 87.1888C111.983 87.2024 111.991 87.2148 112.001 87.2252C112.012 87.2355 112.024 87.2436 112.038 87.2488C112.052 87.2541 112.066 87.2565 112.081 87.2559C112.096 87.2552 112.11 87.2515 112.123 87.2451L113.125 86.8624C113.283 86.8005 113.347 87.0256 113.232 87.2394L112.509 88.5985C112.463 88.6777 112.443 88.7692 112.453 88.8602L112.621 90.0898C112.65 90.2839 112.484 90.54 112.34 90.5231L111.445 90.4134C111.409 90.414 111.373 90.4238 111.342 90.4421C111.31 90.4603 111.284 90.4862 111.265 90.5175L110.37 91.6599C110.227 91.8428 110.061 91.7781 110.089 91.5501L110.261 90.1236C110.268 90.0886 110.267 90.0524 110.257 90.018C110.247 89.9836 110.229 89.9522 110.204 89.9266L109.481 89.406C109.366 89.3216 109.428 89.0262 109.588 88.9024L110.587 88.1314C110.658 88.0732 110.709 87.9946 110.733 87.9063L111.181 86.4403C111.254 86.2068 111.459 86.097 111.53 86.2377Z" fill="#9269AD"/>
<path opacity="0.5" d="M111.53 86.2377L111.977 87.1888C111.983 87.2024 111.991 87.2148 112.001 87.2252C112.012 87.2355 112.024 87.2436 112.038 87.2488C112.052 87.2541 112.066 87.2565 112.081 87.2559C112.096 87.2552 112.11 87.2515 112.123 87.2451L113.125 86.8624C113.283 86.8005 113.347 87.0256 113.232 87.2394L112.509 88.5985C112.463 88.6777 112.443 88.7692 112.453 88.8602L112.621 90.0898C112.65 90.2839 112.484 90.54 112.34 90.5231L111.445 90.4134C111.409 90.414 111.373 90.4238 111.342 90.4421C111.31 90.4603 111.284 90.4862 111.265 90.5175L110.37 91.6599C110.227 91.8428 110.061 91.7781 110.089 91.5501L110.261 90.1236C110.268 90.0886 110.267 90.0524 110.257 90.018C110.247 89.9836 110.229 89.9522 110.204 89.9266L109.481 89.406C109.366 89.3216 109.428 89.0262 109.588 88.9024L110.587 88.1314C110.658 88.0732 110.709 87.9946 110.733 87.9063L111.181 86.4403C111.254 86.2068 111.459 86.097 111.53 86.2377Z" fill="white"/>
<path d="M118.255 84.344C118.339 84.1808 118.325 84.0148 118.255 83.9697L117.529 83.5646C117.513 83.5574 117.495 83.5537 117.478 83.5537C117.461 83.5537 117.443 83.5574 117.427 83.5646L116.769 83.8178L116.552 83.3563C116.543 83.3333 116.526 83.3143 116.504 83.3029L115.787 82.8864C115.697 82.8358 115.545 82.9512 115.489 83.1425L115.041 84.6085C115.016 84.6963 114.965 84.7746 114.895 84.8336L113.893 85.6046C113.736 85.7284 113.671 86.0238 113.786 86.1082L114.509 86.6316C114.536 86.6565 114.554 86.6878 114.564 86.7224C114.574 86.7571 114.575 86.7937 114.566 86.8286L114.394 88.2551C114.394 88.3592 114.411 88.4268 114.459 88.4549L115.176 88.8713C115.235 88.9023 115.317 88.8714 115.396 88.7785L116.288 87.6361C116.307 87.6045 116.334 87.5782 116.366 87.56C116.398 87.5417 116.434 87.5321 116.471 87.532L117.363 87.6417C117.506 87.6586 117.672 87.4026 117.644 87.2084L117.475 85.9788C117.466 85.8882 117.485 85.797 117.529 85.7171L118.255 84.344Z" fill="#9269AD"/>
<path opacity="0.15" d="M118.246 83.9668C118.23 83.9598 118.213 83.9562 118.196 83.9562C118.178 83.9562 118.161 83.9598 118.145 83.9668L117.146 84.3495C117.133 84.356 117.118 84.3596 117.104 84.3603C117.089 84.3609 117.074 84.3585 117.061 84.3533C117.047 84.348 117.034 84.3399 117.024 84.3296C117.013 84.3192 117.005 84.3069 117 84.2932L116.769 83.8036L117.427 83.5532C117.443 83.5455 117.46 83.5415 117.477 83.5415C117.494 83.5415 117.511 83.5455 117.526 83.5532L118.246 83.9668Z" fill="white"/>
<path opacity="0.15" d="M115.773 85.0079C115.747 85.0965 115.697 85.1757 115.627 85.2358L114.628 86.0068C114.582 86.0432 114.544 86.0893 114.518 86.1418L113.8 85.7254C113.828 85.6738 113.865 85.628 113.91 85.5903L114.909 84.8193C114.979 84.7604 115.03 84.682 115.055 84.5942L115.773 85.0079Z" fill="white"/>
<path opacity="0.1" d="M116.51 83.2831C116.42 83.224 116.265 83.3394 116.206 83.5335L115.773 85.0079L115.055 84.5943L115.503 83.1283C115.562 82.937 115.711 82.8216 115.801 82.8723C115.821 82.8723 116.426 83.2381 116.518 83.2859L116.51 83.2831Z" fill="black"/>
<path opacity="0.25" d="M115.227 87.0311L114.518 86.6231L113.786 86.0969C113.705 86.035 113.713 85.8661 113.786 85.7283L114.504 86.1447C114.434 86.2798 114.422 86.4514 114.504 86.5105L115.227 87.0311Z" fill="black"/>
<path opacity="0.15" d="M115.115 88.6545C115.101 88.7614 115.132 88.8317 115.182 88.8599L114.465 88.4434C114.417 88.4153 114.389 88.3478 114.4 88.2437L114.572 86.8143C114.579 86.7813 114.578 86.7471 114.57 86.7143C114.562 86.6816 114.546 86.6513 114.524 86.6257L115.233 87.0337C115.255 87.0593 115.271 87.0896 115.28 87.1222C115.288 87.1549 115.29 87.189 115.283 87.2223L115.115 88.6545Z" fill="black"/>
<path d="M116.552 83.342L117 84.2931C117.005 84.3068 117.013 84.3192 117.024 84.3295C117.034 84.3398 117.047 84.3479 117.061 84.3532C117.074 84.3584 117.089 84.3608 117.104 84.3602C117.118 84.3595 117.133 84.3559 117.146 84.3494L118.145 83.9667C118.305 83.9048 118.367 84.1299 118.255 84.3438L117.529 85.7028C117.485 85.7827 117.466 85.8739 117.475 85.9645L117.644 87.1941C117.672 87.3883 117.506 87.6443 117.363 87.6274L116.471 87.5177C116.434 87.5178 116.398 87.5275 116.366 87.5457C116.334 87.5639 116.307 87.5902 116.288 87.6218L115.396 88.7642C115.252 88.9471 115.086 88.8824 115.114 88.6545L115.283 87.2279C115.292 87.1932 115.291 87.157 115.282 87.1225C115.273 87.0881 115.255 87.0565 115.23 87.0309L114.504 86.5075C114.391 86.4259 114.453 86.1277 114.614 86.0067L115.612 85.2357C115.682 85.1767 115.733 85.0984 115.759 85.0106L116.206 83.5446C116.277 83.3111 116.482 83.1929 116.552 83.342Z" fill="#9269AD"/>
<path opacity="0.5" d="M116.552 83.342L117 84.2931C117.005 84.3068 117.013 84.3192 117.024 84.3295C117.034 84.3398 117.047 84.3479 117.061 84.3532C117.074 84.3584 117.089 84.3608 117.104 84.3602C117.118 84.3595 117.133 84.3559 117.146 84.3494L118.145 83.9667C118.305 83.9048 118.367 84.1299 118.255 84.3438L117.529 85.7028C117.485 85.7827 117.466 85.8739 117.475 85.9645L117.644 87.1941C117.672 87.3883 117.506 87.6443 117.363 87.6274L116.471 87.5177C116.434 87.5178 116.398 87.5275 116.366 87.5457C116.334 87.5639 116.307 87.5902 116.288 87.6218L115.396 88.7642C115.252 88.9471 115.086 88.8824 115.114 88.6545L115.283 87.2279C115.292 87.1932 115.291 87.157 115.282 87.1225C115.273 87.0881 115.255 87.0565 115.23 87.0309L114.504 86.5075C114.391 86.4259 114.453 86.1277 114.614 86.0067L115.612 85.2357C115.682 85.1767 115.733 85.0984 115.759 85.0106L116.206 83.5446C116.277 83.3111 116.482 83.1929 116.552 83.342Z" fill="white"/>
<path d="M123.274 81.4485C123.362 81.2853 123.348 81.1193 123.274 81.0743L122.56 80.6578C122.544 80.6507 122.526 80.647 122.509 80.647C122.492 80.647 122.474 80.6507 122.458 80.6578L121.8 80.9111L121.583 80.4496C121.574 80.4262 121.557 80.4065 121.535 80.3933C121.445 80.3455 120.838 79.991 120.818 79.9797C120.728 79.9291 120.576 80.0444 120.517 80.2358L120.069 81.7017C120.045 81.7893 119.995 81.8677 119.926 81.9268L118.924 82.6978C118.767 82.8216 118.702 83.1171 118.817 83.2015L119.541 83.7248C119.566 83.7494 119.585 83.7803 119.595 83.8144C119.604 83.8485 119.605 83.8845 119.597 83.919L119.425 85.3456C119.425 85.4497 119.442 85.52 119.49 85.5482L120.207 85.9646C120.264 85.9956 120.348 85.9646 120.424 85.8718L121.319 84.7294C121.337 84.6981 121.364 84.6722 121.395 84.6539C121.427 84.6357 121.462 84.6258 121.499 84.6252L122.394 84.735C122.537 84.7519 122.703 84.4958 122.675 84.3017L122.503 83.072C122.497 82.9812 122.516 82.8904 122.56 82.8104L123.274 81.4485Z" fill="#9269AD"/>
<path opacity="0.15" d="M123.266 81.0714C123.251 81.0643 123.234 81.0607 123.217 81.0607C123.2 81.0607 123.183 81.0643 123.168 81.0714L122.166 81.4541C122.153 81.4605 122.139 81.4642 122.124 81.4648C122.11 81.4654 122.095 81.463 122.082 81.4577C122.068 81.4524 122.056 81.4443 122.046 81.434C122.035 81.4237 122.028 81.4114 122.022 81.3978L121.792 80.9082L122.45 80.6578C122.465 80.6494 122.482 80.645 122.499 80.645C122.517 80.645 122.533 80.6494 122.549 80.6578L123.266 81.0714Z" fill="white"/>
<path opacity="0.15" d="M120.782 82.1126C120.756 82.2012 120.705 82.2804 120.635 82.3405L119.636 83.1115C119.59 83.1479 119.553 83.194 119.527 83.2466L118.809 82.8301C118.836 82.7787 118.872 82.7328 118.916 82.6951L119.915 81.9241C119.987 81.8662 120.039 81.7876 120.064 81.699L120.782 82.1126Z" fill="white"/>
<path opacity="0.1" d="M121.533 80.3963C121.443 80.3372 121.288 80.4525 121.229 80.6467L120.782 82.1127L120.064 81.6991L120.511 80.2331C120.568 80.0417 120.72 79.9264 120.81 79.977C120.829 79.977 121.434 80.3428 121.527 80.3906L121.533 80.3963Z" fill="black"/>
<path opacity="0.25" d="M120.25 84.1271L119.541 83.7191L118.817 83.1958C118.733 83.1338 118.744 82.965 118.817 82.8271L119.535 83.2436C119.462 83.3786 119.453 83.5503 119.535 83.6094L120.25 84.1271Z" fill="black"/>
<path opacity="0.15" d="M120.134 85.7591C120.134 85.866 120.154 85.9364 120.205 85.9645L119.481 85.534C119.434 85.5059 119.406 85.4383 119.417 85.3342L119.588 83.9048C119.595 83.8718 119.594 83.8378 119.586 83.8051C119.578 83.7725 119.562 83.7422 119.541 83.7163L120.25 84.1243C120.272 84.1498 120.288 84.1802 120.296 84.2129C120.304 84.2456 120.305 84.2799 120.297 84.3128L120.134 85.7591Z" fill="black"/>
<path d="M121.575 80.4469L122.022 81.3979C122.028 81.4116 122.036 81.424 122.046 81.4343C122.057 81.4446 122.069 81.4527 122.083 81.458C122.097 81.4633 122.112 81.4656 122.126 81.465C122.141 81.4643 122.155 81.4607 122.169 81.4542L123.167 81.0715C123.328 81.0096 123.39 81.2347 123.274 81.4486L122.551 82.8076C122.508 82.8877 122.488 82.9785 122.495 83.0693L122.667 84.2989C122.695 84.4931 122.529 84.7491 122.385 84.7322L121.49 84.6225C121.454 84.6231 121.418 84.633 121.387 84.6512C121.355 84.6694 121.329 84.6954 121.31 84.7266L120.416 85.869C120.275 86.0519 120.109 85.9872 120.134 85.7593L120.306 84.3327C120.315 84.2978 120.314 84.2612 120.304 84.2266C120.295 84.192 120.276 84.1606 120.25 84.1357L119.526 83.6124C119.411 83.5308 119.476 83.2325 119.633 83.1115L120.635 82.3405C120.704 82.2811 120.755 82.203 120.781 82.1154L121.229 80.6466C121.299 80.4159 121.505 80.2977 121.575 80.4469Z" fill="#9269AD"/>
<path opacity="0.5" d="M121.575 80.4469L122.022 81.3979C122.028 81.4116 122.036 81.424 122.046 81.4343C122.057 81.4446 122.069 81.4527 122.083 81.458C122.097 81.4633 122.112 81.4656 122.126 81.465C122.141 81.4643 122.155 81.4607 122.169 81.4542L123.167 81.0715C123.328 81.0096 123.39 81.2347 123.274 81.4486L122.551 82.8076C122.508 82.8877 122.488 82.9785 122.495 83.0693L122.667 84.2989C122.695 84.4931 122.529 84.7491 122.385 84.7322L121.49 84.6225C121.454 84.6231 121.418 84.633 121.387 84.6512C121.355 84.6694 121.329 84.6954 121.31 84.7266L120.416 85.869C120.275 86.0519 120.109 85.9872 120.134 85.7593L120.306 84.3327C120.315 84.2978 120.314 84.2612 120.304 84.2266C120.295 84.192 120.276 84.1606 120.25 84.1357L119.526 83.6124C119.411 83.5308 119.476 83.2325 119.633 83.1115L120.635 82.3405C120.704 82.2811 120.755 82.203 120.781 82.1154L121.229 80.6466C121.299 80.4159 121.505 80.2977 121.575 80.4469Z" fill="white"/>
<path d="M128.297 78.5532C128.384 78.39 128.37 78.224 128.297 78.1761L127.58 77.7625C127.564 77.7554 127.547 77.7517 127.53 77.7517C127.513 77.7517 127.497 77.7554 127.481 77.7625L126.823 78.0157L126.606 77.5543C126.595 77.5321 126.578 77.5129 126.558 77.498C126.465 77.4502 125.858 77.0956 125.841 77.0844C125.748 77.0337 125.599 77.1463 125.54 77.3404L125.092 78.8064C125.068 78.8947 125.017 78.9734 124.946 79.0315L123.933 79.7997C123.773 79.9235 123.711 80.2189 123.826 80.3033L124.549 80.8267C124.575 80.8513 124.593 80.8822 124.603 80.9163C124.613 80.9503 124.614 80.9864 124.605 81.0209L124.439 82.439C124.439 82.5431 124.456 82.6135 124.504 82.6416L125.222 83.058C125.278 83.089 125.362 83.058 125.438 82.9652L126.333 81.8228C126.352 81.7915 126.378 81.7656 126.41 81.7474C126.441 81.7291 126.477 81.7193 126.513 81.7187L127.408 81.8284C127.549 81.8453 127.715 81.5892 127.689 81.3951L127.518 80.1655C127.51 80.0746 127.529 79.9834 127.574 79.9038L128.297 78.5532Z" fill="#9269AD"/>
<path opacity="0.15" d="M128.289 78.1763C128.273 78.1686 128.256 78.1646 128.239 78.1646C128.222 78.1646 128.205 78.1686 128.19 78.1763L127.188 78.5589C127.175 78.5654 127.161 78.569 127.147 78.5696C127.132 78.5703 127.118 78.5679 127.104 78.5626C127.091 78.5573 127.078 78.5492 127.068 78.5389C127.058 78.5286 127.05 78.5162 127.045 78.5027L126.814 78.0131L127.473 77.7598C127.488 77.7519 127.505 77.7478 127.522 77.7478C127.539 77.7478 127.556 77.7519 127.571 77.7598L128.289 78.1763Z" fill="white"/>
<path opacity="0.15" d="M125.804 79.2171C125.778 79.306 125.726 79.3852 125.655 79.445L124.656 80.216C124.611 80.2526 124.574 80.2987 124.549 80.351L123.832 79.9346C123.857 79.8826 123.894 79.8366 123.938 79.7995L124.937 79.0286C125.008 78.9704 125.059 78.8918 125.084 78.8035L125.804 79.2171Z" fill="white"/>
<path opacity="0.1" d="M126.555 77.498C126.465 77.4417 126.311 77.557 126.251 77.7512L125.804 79.2172L125.084 78.8035L125.531 77.3376C125.59 77.1462 125.742 77.0309 125.832 77.0815C125.852 77.0815 126.457 77.4473 126.55 77.4951L126.555 77.498Z" fill="black"/>
<path opacity="0.25" d="M125.272 81.2402L124.561 80.8322L123.837 80.3088C123.753 80.2469 123.764 80.0781 123.837 79.9402L124.555 80.3566C124.482 80.4917 124.47 80.6633 124.555 80.7224L125.272 81.2402Z" fill="black"/>
<path opacity="0.15" d="M125.157 82.8638C125.157 82.9707 125.174 83.0411 125.227 83.0664L124.496 82.65C124.448 82.6218 124.42 82.5543 124.431 82.4474L124.602 81.0208C124.609 80.9876 124.608 80.9532 124.6 80.9205C124.591 80.8878 124.574 80.8575 124.552 80.8323L125.264 81.2403C125.286 81.2657 125.302 81.296 125.31 81.3288C125.319 81.3616 125.319 81.3958 125.312 81.4288L125.157 82.8638Z" fill="black"/>
<path d="M126.597 77.5515L127.045 78.5026C127.05 78.5163 127.059 78.5286 127.069 78.539C127.08 78.5493 127.092 78.5574 127.106 78.5627C127.119 78.5679 127.134 78.5703 127.149 78.5697C127.164 78.569 127.178 78.5653 127.191 78.5589L128.19 78.1762C128.348 78.1143 128.412 78.3394 128.297 78.5532L127.574 79.9067C127.529 79.9862 127.51 80.0774 127.518 80.1684L127.689 81.398C127.715 81.5921 127.549 81.8482 127.408 81.8313L126.513 81.7216C126.477 81.7222 126.441 81.732 126.41 81.7502C126.378 81.7685 126.352 81.7944 126.333 81.8257L125.438 82.9681C125.298 83.151 125.132 83.0834 125.157 82.8583L125.328 81.4317C125.337 81.3968 125.336 81.3604 125.326 81.326C125.316 81.2915 125.298 81.2601 125.272 81.2348L124.549 80.7114C124.434 80.6298 124.498 80.3316 124.656 80.2106L125.658 79.4396C125.726 79.3794 125.775 79.3014 125.801 79.2145L126.249 77.7457C126.322 77.5206 126.527 77.3996 126.597 77.5515Z" fill="#9269AD"/>
<path opacity="0.5" d="M126.597 77.5515L127.045 78.5026C127.05 78.5163 127.059 78.5286 127.069 78.539C127.08 78.5493 127.092 78.5574 127.106 78.5627C127.119 78.5679 127.134 78.5703 127.149 78.5697C127.164 78.569 127.178 78.5653 127.191 78.5589L128.19 78.1762C128.348 78.1143 128.412 78.3394 128.297 78.5532L127.574 79.9067C127.529 79.9862 127.51 80.0774 127.518 80.1684L127.689 81.398C127.715 81.5921 127.549 81.8482 127.408 81.8313L126.513 81.7216C126.477 81.7222 126.441 81.732 126.41 81.7502C126.378 81.7685 126.352 81.7944 126.333 81.8257L125.438 82.9681C125.298 83.151 125.132 83.0834 125.157 82.8583L125.328 81.4317C125.337 81.3968 125.336 81.3604 125.326 81.326C125.316 81.2915 125.298 81.2601 125.272 81.2348L124.549 80.7114C124.434 80.6298 124.498 80.3316 124.656 80.2106L125.658 79.4396C125.726 79.3794 125.775 79.3014 125.801 79.2145L126.249 77.7457C126.322 77.5206 126.527 77.3996 126.597 77.5515Z" fill="white"/>
<path d="M130.213 8.99924L127.962 9.96437L127.481 12.3645C127.467 12.4305 127.436 12.4913 127.389 12.5401C127.343 12.589 127.284 12.624 127.219 12.6413C127.154 12.6585 127.085 12.6573 127.021 12.6377C126.956 12.6181 126.898 12.581 126.854 12.5305L125.241 10.6875L122.808 10.9689C122.738 10.9794 122.667 10.9693 122.603 10.9397C122.539 10.9102 122.485 10.8625 122.447 10.8026C122.41 10.7427 122.392 10.6731 122.394 10.6027C122.396 10.5322 122.418 10.4639 122.459 10.4061L123.711 8.30424L122.692 6.07853C122.667 6.01877 122.659 5.95343 122.668 5.88939C122.678 5.82534 122.704 5.76496 122.744 5.71458C122.785 5.66419 122.838 5.62568 122.899 5.60307C122.96 5.58047 123.025 5.57461 123.089 5.58612L125.475 6.12918L127.276 4.47187C127.325 4.42563 127.387 4.39426 127.453 4.38136C127.52 4.36846 127.588 4.37454 127.652 4.39892C127.715 4.4233 127.77 4.46499 127.81 4.5192C127.851 4.57341 127.875 4.63794 127.881 4.70541L128.103 7.14214L130.236 8.34081C130.299 8.3712 130.351 8.41918 130.387 8.47893C130.424 8.53867 130.441 8.60761 130.439 8.67736C130.437 8.7471 130.414 8.81466 130.374 8.8718C130.334 8.92894 130.278 8.97322 130.213 8.99924Z" fill="#E0E0E0"/>
<path d="M117.807 4.82917C117.787 4.85513 117.764 4.87791 117.737 4.8967C117.689 4.93106 117.633 4.95138 117.574 4.95535C117.515 4.95933 117.457 4.94681 117.405 4.91921L116.153 4.26079L114.898 4.91921C114.846 4.94681 114.787 4.95933 114.729 4.95535C114.67 4.95138 114.613 4.93106 114.566 4.8967C114.517 4.86254 114.48 4.81515 114.458 4.76023C114.436 4.70532 114.43 4.64522 114.442 4.58718L114.681 3.18029L113.665 2.19266C113.623 2.15165 113.593 2.0995 113.579 2.04224C113.565 1.98498 113.568 1.92495 113.587 1.86907C113.604 1.81309 113.637 1.76326 113.682 1.72539C113.727 1.68753 113.782 1.66319 113.84 1.65522L115.247 1.45263L115.874 0.180804C115.9 0.128279 115.94 0.0840726 115.99 0.0532271C116.04 0.0223815 116.097 0.00613851 116.155 0.00634969C116.214 0.00678282 116.271 0.0232917 116.321 0.0540654C116.37 0.0848391 116.411 0.128688 116.437 0.180804L117.064 1.45263L118.471 1.65522C118.529 1.66373 118.584 1.68832 118.629 1.72623C118.674 1.76414 118.707 1.81385 118.725 1.86975C118.744 1.92565 118.746 1.98552 118.732 2.04258C118.718 2.09964 118.688 2.15162 118.646 2.19266L117.63 3.18029L117.872 4.58718C117.883 4.6732 117.86 4.76005 117.807 4.82917ZM113.803 1.90565L113.786 1.94223C113.779 1.96324 113.778 1.98582 113.784 2.00728C113.789 2.02873 113.801 2.04815 113.817 2.06322L114.903 3.12402L114.647 4.62095C114.644 4.64298 114.647 4.66555 114.655 4.68615C114.664 4.70675 114.678 4.72458 114.696 4.73769C114.714 4.75079 114.735 4.75864 114.757 4.76039C114.78 4.76213 114.802 4.7577 114.822 4.74757L116.167 4.04131L117.509 4.74757C117.528 4.75868 117.55 4.76453 117.572 4.76453C117.594 4.76453 117.616 4.75868 117.636 4.74757C117.654 4.73475 117.669 4.71671 117.677 4.69569C117.686 4.67467 117.688 4.65161 117.683 4.62939L117.427 3.13246L118.513 2.07166C118.529 2.05622 118.54 2.03679 118.546 2.01547C118.551 1.99415 118.551 1.97175 118.544 1.95067C118.538 1.92927 118.526 1.91018 118.509 1.89569C118.492 1.88121 118.471 1.87196 118.449 1.86907L116.943 1.6496L116.257 0.276472C116.247 0.256028 116.232 0.238747 116.213 0.226751C116.194 0.214754 116.172 0.208565 116.15 0.208942C116.13 0.211181 116.11 0.218551 116.093 0.230362C116.077 0.242173 116.063 0.258039 116.054 0.276472L115.385 1.63834L113.879 1.85782C113.849 1.86395 113.822 1.88096 113.803 1.90565Z" fill="#E0E0E0"/>
<path d="M102.137 23.6308C100.019 22.404 97.1064 22.5701 93.8874 24.4271C87.4157 28.1695 82.1567 37.334 82.1567 44.9002C82.1567 48.7073 83.4905 51.3719 85.6374 52.6184C86.1354 52.8998 88.0826 54.0253 88.0826 54.0253C87.9914 54.8816 87.6955 55.7034 87.22 56.4213C86.7445 57.1392 86.1032 57.7323 85.3504 58.1503C85.2266 58.2206 85.3025 58.3416 85.4123 58.4035L88.3865 60.1228C88.4266 60.1467 88.472 60.1602 88.5187 60.1622C91.4478 60.1622 94.8384 58.1925 95.7839 54.1013C96.1384 53.9324 96.4958 53.7496 96.8587 53.5385C103.33 49.799 108.589 40.6317 108.589 33.0683C108.589 29.2584 107.258 26.5966 105.112 25.3416L102.137 23.6308Z" fill="#37474F"/>
<path d="M96.8587 26.1437C90.387 29.8832 85.1281 39.0505 85.1281 46.6139C85.1281 51.7491 87.5451 54.8217 91.1242 55.1031C90.9892 56.7351 90.5136 58.5697 88.3104 59.8668C88.136 59.971 88.3639 60.1651 88.5102 60.1651C91.4394 60.1651 94.83 58.1955 95.7754 54.1042C96.1299 53.9354 96.4873 53.7525 96.8503 53.5415C103.322 49.802 108.581 40.6347 108.581 33.0712C108.581 25.5078 103.336 22.4042 96.8587 26.1437Z" fill="#455A64"/>
<path d="M88.3188 59.8666C88.2119 59.9341 88.2597 60.0326 88.3498 60.1001L85.4122 58.4118C85.3025 58.3443 85.2265 58.2289 85.3503 58.1558C86.1047 57.7369 86.747 57.1421 87.2227 56.4221C87.6983 55.702 87.9932 54.8779 88.0825 54.0195L88.4061 54.2109L88.7043 54.3853C89.4497 54.7951 90.2755 55.0371 91.1242 55.0944C90.9919 56.7348 90.5136 58.5694 88.3188 59.8666Z" fill="#263238"/>
<path d="M95.6208 47.7984C95.3085 47.5761 95.1509 47.1765 95.1509 46.5997C95.1577 45.9987 95.3164 45.4093 95.6123 44.8861C95.8811 44.3633 96.2903 43.9257 96.7941 43.6227C97.2725 43.347 97.6655 43.3142 97.9731 43.5243C98.2798 43.7325 98.4346 44.1264 98.4346 44.7032C98.4254 45.3148 98.2639 45.9144 97.9647 46.4478C97.7024 46.976 97.2968 47.4197 96.7941 47.728C96.327 47.9954 95.9359 48.0207 95.6208 47.7984ZM95.2015 32.5027L98.3839 30.6653L97.8521 41.3914L95.7333 42.6154L95.2015 32.5027Z" fill="#FAFAFA"/>
<path opacity="0.2" d="M98.4231 52.5144C101.878 49.982 104.858 45.9667 106.682 41.656C103.226 44.1912 100.246 48.2037 98.4231 52.5144Z" fill="black"/>
<path d="M120.517 67.1741C119.318 67.1882 118.426 66.3497 117.866 65.2945C121.457 60.8797 123.885 54.9989 123.885 49.8553C123.885 46.0426 122.548 43.3639 120.396 42.1258L117.427 40.4151C115.309 39.1911 112.399 39.3599 109.183 41.2142C102.711 44.9565 97.4524 54.121 97.4524 61.6873C97.4524 65.4943 98.7833 68.159 100.93 69.4111C101.431 69.6925 103.404 70.8349 103.89 71.119C106.012 72.3543 108.93 72.1911 112.154 70.3284C113.018 69.8258 113.838 69.2516 114.605 68.612C116.783 70.3368 119.439 68.4572 120.492 67.5568C120.632 67.4386 120.649 67.1741 120.517 67.1741Z" fill="#E0E0E0"/>
<path d="M106.963 71.7467C103.041 71.7467 100.607 68.5531 100.607 63.4151C100.607 55.9192 105.829 46.8138 112.245 43.1024C114.04 42.0669 115.756 41.5408 117.346 41.5408C121.266 41.5408 123.702 44.7316 123.702 49.8724C123.702 54.7881 121.412 60.6604 117.726 65.1934L117.65 65.2891L117.706 65.396C118.367 66.6425 119.327 67.3403 120.413 67.3657C120.405 67.3893 120.392 67.4106 120.374 67.4276C119.625 68.0691 118.139 69.1411 116.6 69.1411C115.915 69.1442 115.25 68.9095 114.718 68.4771L114.603 68.3871L114.487 68.4799C113.727 69.1088 112.916 69.6735 112.062 70.1682C110.269 71.2065 108.553 71.7467 106.963 71.7467Z" fill="#FAFAFA"/>
<path d="M117.346 41.3577V41.7235C121.153 41.7235 123.519 44.8468 123.519 49.8694C123.519 54.7484 121.246 60.5758 117.585 65.0778L117.43 65.2664L117.546 65.4802C118.153 66.6282 119.009 67.3345 119.991 67.5118C119.211 68.1336 117.92 68.9637 116.6 68.9637C115.956 68.9667 115.33 68.7459 114.83 68.339L114.6 68.1561L114.372 68.3446C113.619 68.9724 112.817 69.5371 111.972 70.0329C110.205 71.0515 108.519 71.5692 106.963 71.5692C103.156 71.5692 100.79 68.4459 100.79 63.4093C100.79 55.9724 105.97 46.9318 112.326 43.2542C114.093 42.2356 115.779 41.7178 117.335 41.7178V41.3577H117.346ZM117.335 41.3577C115.77 41.3577 114.009 41.867 112.143 42.9446C105.672 46.6842 100.413 55.8486 100.413 63.4149C100.413 68.8033 103.077 71.9294 106.952 71.9294C108.516 71.9294 110.278 71.4201 112.143 70.3424C113.007 69.8398 113.827 69.2657 114.594 68.626C115.157 69.0856 115.862 69.3344 116.589 69.3295C118.198 69.3295 119.738 68.2039 120.48 67.5708C120.621 67.4527 120.638 67.1882 120.506 67.1882H120.478C119.296 67.1882 118.412 66.3581 117.855 65.3086C121.446 60.8937 123.874 55.0129 123.874 49.8694C123.874 44.481 121.209 41.3577 117.335 41.3577Z" fill="#9269AD"/>
<path d="M111.552 57.9168C111.894 57.0979 112.285 56.301 112.726 55.5308C113.029 55.0021 113.305 54.4583 113.553 53.9016C113.724 53.5197 113.815 53.1071 113.82 52.6888C113.82 52.1261 113.651 51.78 113.314 51.6449C112.976 51.5099 112.531 51.6083 111.972 51.9263C111.418 52.2512 110.933 52.6813 110.545 53.1925C110.111 53.7587 109.757 54.3817 109.493 55.044L107.424 54.6191C107.887 53.3971 108.543 52.2571 109.366 51.2426C110.172 50.2469 111.154 49.4084 112.264 48.7692C113.577 48.0189 114.629 47.7844 115.418 48.0658C116.208 48.3472 116.604 49.1519 116.606 50.48C116.61 51.0796 116.532 51.6768 116.375 52.2555C116.236 52.7797 116.048 53.2894 115.812 53.7778C115.59 54.2336 115.3 54.7767 114.948 55.4069C114.607 55.9886 114.299 56.5888 114.026 57.205C113.837 57.6498 113.741 58.1286 113.744 58.6118L111.164 60.1031C111.154 59.3563 111.285 58.6144 111.552 57.9168ZM111.271 65.1567C110.959 64.9344 110.801 64.5349 110.801 63.9552C110.808 63.3542 110.967 62.7647 111.262 62.2416C111.531 61.7196 111.939 61.2822 112.441 60.9782C112.923 60.6969 113.314 60.6687 113.623 60.8798C113.933 61.0908 114.085 61.4847 114.085 62.0615C114.075 62.6721 113.914 63.2708 113.615 63.8033C113.352 64.3323 112.946 64.7762 112.441 65.0835C111.988 65.3537 111.6 65.3762 111.285 65.1567H111.271Z" fill="#455A64"/>
<path d="M52.1198 45.0999L39.1764 52.5958L44.3172 61.3354C44.4162 61.5712 44.589 61.7686 44.8096 61.8981C45.423 62.2442 49.0556 64.3489 49.2554 64.4643C49.4111 64.5542 49.5853 64.6077 49.7647 64.6206C49.9441 64.6336 50.1241 64.6057 50.2912 64.5391C50.4583 64.4725 50.6081 64.3688 50.7294 64.236C50.8507 64.1032 50.9403 63.9445 50.9915 63.7721L56.574 47.6829L52.1198 45.0999Z" fill="#9269AD"/>
<path opacity="0.2" d="M52.1198 45.0999L39.1764 52.5958L44.3172 61.3354C44.4162 61.5712 44.589 61.7686 44.8096 61.8981C45.423 62.2442 49.0556 64.3489 49.2554 64.4643C49.4111 64.5542 49.5853 64.6077 49.7647 64.6206C49.9441 64.6336 50.1241 64.6057 50.2912 64.5391C50.4583 64.4725 50.6081 64.3688 50.7294 64.236C50.8507 64.1032 50.9403 63.9445 50.9915 63.7721L56.574 47.6829L52.1198 45.0999Z" fill="black"/>
<path d="M43.6304 55.1678L48.7711 63.9074C48.8694 64.1294 49.0334 64.3158 49.2411 64.4415C49.4488 64.5672 49.6901 64.626 49.9323 64.61C50.1745 64.5941 50.406 64.5041 50.5954 64.3522C50.7848 64.2004 50.923 63.994 50.9912 63.7611L56.5738 47.6719L43.6304 55.1678Z" fill="#9269AD"/>
<path d="M66.5599 0.27644L17.7493 28.4508C17.4221 28.6629 17.1495 28.9494 16.954 29.2868C16.7584 29.6241 16.6452 30.0029 16.6238 30.3923V64.2674C16.6445 64.6555 16.7574 65.033 16.9532 65.3686C17.1489 65.7043 17.4218 65.9885 17.7493 66.1977L21.7646 68.4487C22.1137 68.6244 22.4992 68.7159 22.8901 68.7159C23.2809 68.7159 23.6664 68.6244 24.0156 68.4487L72.829 40.2574C73.1558 40.0448 73.428 39.7583 73.6235 39.421C73.819 39.0837 73.9324 38.7052 73.9545 38.3159V4.44083C73.9336 4.05286 73.8206 3.67545 73.6249 3.3398C73.4292 3.00416 73.1564 2.71992 72.829 2.51058L68.8166 0.259557C68.4652 0.0860065 68.0781 -0.00286143 67.6863 7.02477e-05C67.2944 0.00300193 66.9086 0.0976516 66.5599 0.27644Z" fill="#9269AD"/>
<path opacity="0.3" d="M73.9349 4.23541C73.8449 3.67266 73.3862 3.47007 72.8263 3.79084L24.0185 31.9737C23.6859 32.1814 23.4133 32.4724 23.2278 32.8178L16.9784 29.2584C17.1659 28.9335 17.4308 28.66 17.7494 28.4621L66.5628 0.276426C66.9122 0.101392 67.2976 0.0102539 67.6883 0.0102539C68.0791 0.0102539 68.4645 0.101392 68.8138 0.276426L72.8263 2.52745C73.1217 2.71715 73.3734 2.96756 73.5645 3.26205C73.7557 3.55654 73.8819 3.88835 73.9349 4.23541Z" fill="white"/>
<path d="M22.8956 67.9197V34.0417C22.9171 33.6527 23.0302 33.2743 23.2258 32.9374C23.4214 32.6005 23.694 32.3146 24.0211 32.103L72.829 3.93429C73.4452 3.57694 73.9545 3.86675 73.9545 4.58146V38.4453C73.9324 38.8345 73.819 39.2131 73.6234 39.5504C73.4279 39.8877 73.1558 40.1742 72.829 40.3868L24.0155 68.5668C23.3965 68.9326 22.8956 68.6344 22.8956 67.9197Z" fill="#9269AD"/>
<path opacity="0.2" d="M24.0155 68.4374C23.665 68.6087 23.28 68.6977 22.8899 68.6977C22.4998 68.6977 22.1149 68.6087 21.7644 68.4374L17.752 66.1864C17.4248 65.9783 17.1519 65.6951 16.9562 65.3603C16.7604 65.0256 16.6474 64.6489 16.6265 64.2617V30.3838C16.6464 29.9841 16.7696 29.5963 16.9838 29.2583L23.2276 32.8121C23.0218 33.1431 22.9072 33.5227 22.8956 33.9123V67.7874C22.8956 68.443 23.357 68.8201 24.0155 68.4374Z" fill="black"/>
<path d="M36.5903 40.7951L36.1035 40.5137C35.9172 40.4071 35.7062 40.351 35.4915 40.351C35.2768 40.351 35.0659 40.4071 34.8795 40.5137L31.9054 42.2301V38.167L37.4119 34.9903C37.6697 34.8382 37.8832 34.6213 38.0313 34.3612C38.1794 34.1011 38.2569 33.8067 38.2561 33.5074V31.2283C38.2569 30.9289 38.1794 30.6346 38.0313 30.3745C37.8832 30.1144 37.6697 29.8975 37.4119 29.7454C37.1515 29.5947 36.856 29.5154 36.5551 29.5154C36.2543 29.5154 35.9587 29.5947 35.6983 29.7454L28.0617 34.1546C27.6096 34.4153 27.2343 34.7905 26.9734 35.2425C26.7126 35.6946 26.5755 36.2073 26.5761 36.7292V57.886C26.5748 58.1858 26.652 58.4807 26.8001 58.7414C26.9482 59.002 27.162 59.2193 27.4202 59.3717C27.6808 59.5218 27.9763 59.6008 28.277 59.6008C28.5777 59.6008 28.8732 59.5218 29.1338 59.3717L31.0387 58.2743C31.2969 58.122 31.5107 57.9046 31.6588 57.644C31.8069 57.3833 31.8842 57.0884 31.8829 56.7886V48.488L36.5706 45.7811C36.7563 45.6732 36.9105 45.5185 37.0176 45.3323C37.1248 45.1462 37.1812 44.9351 37.1812 44.7203V41.8615C37.1851 41.6475 37.1325 41.4363 37.0287 41.2491C36.925 41.0619 36.7738 40.9053 36.5903 40.7951Z" fill="#E0E0E0"/>
<path opacity="0.1" d="M29.3082 59.2702L29.145 59.3659C28.8844 59.5157 28.5891 59.5944 28.2885 59.5942C27.9879 59.594 27.6927 59.5149 27.4323 59.3648C27.1719 59.2146 26.9555 58.9988 26.8047 58.7387C26.654 58.4787 26.5742 58.1836 26.5732 57.883V36.7262C26.574 36.2349 26.6968 35.7515 26.9306 35.3193L28.6442 36.307C28.4094 36.7387 28.2865 37.2224 28.2868 37.7139V58.6737C28.2873 58.7932 28.319 58.9104 28.3787 59.0139C28.4383 59.1174 28.524 59.2035 28.6271 59.2637C28.7303 59.324 28.8474 59.3563 28.9668 59.3574C29.0863 59.3585 29.204 59.3285 29.3082 59.2702Z" fill="black"/>
<path d="M31.9055 38.1668V44.2108L36.5848 41.5123C36.6474 41.4755 36.7187 41.456 36.7914 41.4557C36.864 41.4554 36.9355 41.4744 36.9984 41.5107C37.0613 41.547 37.1135 41.5994 37.1496 41.6625C37.1857 41.7255 37.2044 41.797 37.2038 41.8697V44.7341C37.2037 44.9478 37.1475 45.1577 37.0408 45.3429C36.9342 45.528 36.7808 45.682 36.5961 45.7893L31.9055 48.4961V56.794C31.9066 57.093 31.8293 57.3871 31.6812 57.6468C31.533 57.9065 31.3193 58.1228 31.0613 58.274L29.3281 59.2757C29.224 59.3362 29.1058 59.368 28.9854 59.3682C28.865 59.3683 28.7468 59.3366 28.6426 59.2764C28.5384 59.2161 28.4519 59.1294 28.3919 59.0251C28.332 58.9207 28.3006 58.8024 28.301 58.682V37.7137C28.3011 37.192 28.4384 36.6794 28.6992 36.2275C28.9599 35.7756 29.335 35.4003 29.7867 35.1391L37.3501 30.7721C37.4443 30.7178 37.5512 30.6892 37.66 30.6892C37.7688 30.6893 37.8756 30.718 37.9698 30.7725C38.0639 30.827 38.142 30.9053 38.1963 30.9996C38.2505 31.0939 38.2789 31.2008 38.2787 31.3096V33.5128C38.2794 33.8109 38.2019 34.1041 38.0537 34.3628C37.9056 34.6216 37.6921 34.8369 37.4346 34.9872L31.9055 38.1668Z" fill="#FAFAFA"/>
<path d="M48.2423 25.3867C48.1556 25.0929 48.0034 24.8226 47.7971 24.5962C47.5909 24.3697 47.336 24.193 47.0517 24.0792C46.7673 23.9655 46.4608 23.9177 46.1553 23.9394C45.8498 23.9612 45.5532 24.052 45.2878 24.2049L43.3941 25.2994C43.1502 25.44 42.9383 25.63 42.7721 25.8573C42.6059 26.0845 42.489 26.344 42.429 26.6191L36.7817 52.3314C36.7375 52.5481 36.7623 52.7733 36.8527 52.9751C36.943 53.177 37.0943 53.3455 37.2854 53.4569L37.8031 53.7552C37.9636 53.8478 38.1455 53.8966 38.3307 53.8966C38.516 53.8966 38.6979 53.8478 38.8583 53.7552L41.1403 52.4383C41.4579 52.2438 41.7166 51.9666 41.8888 51.6364C42.0812 51.303 42.2226 50.9426 42.308 50.5672L43.2253 45.8794L47.8399 43.2148L48.3182 45.1197C48.3859 45.3681 48.5407 45.5838 48.7544 45.7275C48.9457 45.84 50.2766 46.6026 50.468 46.7179C50.5916 46.7708 50.7271 46.7894 50.8604 46.7715C50.9936 46.7537 51.1196 46.7002 51.2249 46.6166L54.0105 45.0072L48.2423 25.3867ZM44.4915 39.4077L45.4791 34.3232L45.5382 34.0418L46.585 38.1978L44.4915 39.4077Z" fill="#E0E0E0"/>
<path opacity="0.1" d="M50.4455 46.7038C50.1951 46.5547 48.9401 45.8372 48.7573 45.7275C48.5436 45.5838 48.3888 45.3681 48.3211 45.1197L47.8428 43.2148L49.1202 42.4775L50.0347 46.1073C50.1022 46.346 50.2466 46.5557 50.4455 46.7038Z" fill="black"/>
<path opacity="0.1" d="M48.2985 39.1853L46.5849 38.1949L45.5382 34.0417C45.5382 34.0417 45.5382 34.0417 45.5382 34.0248C45.6282 33.6197 45.7183 33.1582 45.8196 32.6461C45.9406 32.0074 46.0531 31.3264 46.1601 30.5977C46.282 31.1829 46.403 31.7222 46.523 32.2156C46.644 32.708 46.7566 33.1301 46.8635 33.4846L48.2985 39.1853Z" fill="black"/>
<path opacity="0.1" d="M38.5263 53.1757C38.511 53.2432 38.5136 53.3136 38.5337 53.3798C38.5538 53.4461 38.5907 53.506 38.6409 53.5536C38.6912 53.6013 38.7529 53.6351 38.8201 53.6517C38.8873 53.6683 38.9577 53.6672 39.0243 53.6484V53.6709L38.8639 53.761C38.7035 53.8536 38.5216 53.9023 38.3364 53.9023C38.1511 53.9023 37.9692 53.8536 37.8088 53.761L37.2854 53.4571C37.0943 53.3457 36.943 53.1772 36.8527 52.9753C36.7623 52.7734 36.7375 52.5483 36.7817 52.3316L42.4262 26.6305C42.478 26.3927 42.5734 26.1666 42.7076 25.9636L44.4212 26.9541C44.2854 27.1552 44.1898 27.3807 44.1398 27.6181L38.5263 53.1757Z" fill="black"/>
<path d="M54.0133 45.0156L51.2248 46.6251C50.9125 46.8052 50.6621 46.8389 50.4707 46.7264C50.2575 46.5824 50.1028 46.3668 50.0346 46.1186L49.1201 42.4832L43.2112 45.8851L42.2967 50.5728C42.2085 50.9487 42.0664 51.3098 41.8746 51.6449C41.7033 51.975 41.4444 52.2515 41.1262 52.444L39.1087 53.6117C39.0408 53.6503 38.9633 53.6684 38.8854 53.6639C38.8074 53.6594 38.7325 53.6325 38.6695 53.5865C38.6065 53.5404 38.5581 53.4771 38.5302 53.4042C38.5023 53.3313 38.496 53.2519 38.5122 53.1756L44.1257 27.6096C44.1861 27.335 44.3031 27.0761 44.4693 26.8493C44.6355 26.6226 44.8472 26.433 45.0908 26.2927L46.9113 25.2404C47.0407 25.1658 47.1854 25.1215 47.3344 25.1109C47.4835 25.1003 47.6329 25.1236 47.7716 25.1792C47.9103 25.2347 48.0346 25.321 48.1351 25.4315C48.2356 25.542 48.3098 25.6739 48.352 25.8172L54.0133 45.0156ZM48.2985 39.1911L46.8635 33.4791C46.7566 33.1274 46.644 32.7025 46.523 32.2101C46.402 31.7177 46.281 31.1774 46.16 30.5922C46.0559 31.3209 45.9406 31.9991 45.8224 32.6406C45.7042 33.2821 45.586 33.8336 45.4791 34.312L44.0553 41.6278L48.2985 39.1911Z" fill="#FAFAFA"/>
<path d="M67.3507 35.1673C67.8421 34.3225 68.2737 33.4444 68.6423 32.5392C69.0229 31.6062 69.3424 30.6493 69.5989 29.6748C69.8577 28.6901 70.0551 27.6902 70.1898 26.6809C70.3279 25.6616 70.3974 24.6341 70.3981 23.6055C70.4281 22.0931 70.2347 20.5846 69.8241 19.1288C69.5312 18.0347 68.9703 17.0309 68.1921 16.2081C67.9469 15.9733 67.6727 15.7709 67.3761 15.6059L65.6878 14.6267C65.1533 14.3169 64.552 14.1403 63.9348 14.1118C62.9444 14.0555 61.847 14.3753 60.6427 15.0713C59.3823 15.8114 58.2653 16.7721 57.3449 17.9076C56.3299 19.1396 55.4752 20.4954 54.8013 21.9425C53.351 25.0635 52.5946 28.4618 52.584 31.9033C52.5549 33.4179 52.7502 34.9284 53.1637 36.3857C53.4556 37.483 54.0187 38.4893 54.8013 39.312C55.0454 39.554 55.3207 39.7622 55.6201 39.931C55.9015 40.0886 57.0129 40.7358 57.2887 40.8962C57.8299 41.2094 58.4393 41.3861 59.0642 41.4111C60.0546 41.4599 61.1539 41.1363 62.3619 40.4403C62.8758 40.1436 63.3643 39.8048 63.8223 39.4274L64.5201 40.2293C64.6152 40.3269 64.7231 40.4111 64.8408 40.4797C65.0378 40.5951 66.4391 41.3998 66.546 41.4645C66.7339 41.58 66.9535 41.6332 67.1735 41.6165C67.5809 41.5678 67.9723 41.4284 68.3187 41.2085L71.276 39.5033L67.3507 35.1673ZM64.7114 28.1047C64.5322 29.0974 64.2444 30.0675 63.8532 30.9973C63.5103 31.8213 63.0507 32.5917 62.4885 33.2849C61.9751 33.9175 61.3517 34.4523 60.6483 34.8634C60.1329 35.1973 59.5394 35.3913 58.9263 35.4262C58.6179 34.9264 58.398 34.3771 58.2763 33.8026C58.0599 32.8084 57.9598 31.7924 57.978 30.775C57.9727 29.6483 58.0726 28.5235 58.2763 27.4153C58.451 26.4232 58.7341 25.4532 59.1204 24.5228C59.4667 23.6952 59.929 22.9211 60.4936 22.2239C61.0104 21.5828 61.6397 21.0413 62.3507 20.6257C62.8569 20.302 63.4388 20.1158 64.0389 20.0854C64.3507 20.5895 64.5734 21.1435 64.6973 21.7231C64.9181 22.7187 65.0229 23.7366 65.0097 24.7563C65.0131 25.883 64.9132 27.0075 64.7114 28.116V28.1047Z" fill="#E0E0E0"/>
<path opacity="0.1" d="M57.2183 40.8652C56.861 40.6597 55.879 40.0886 55.6201 39.9422C55.3207 39.7734 55.0454 39.5652 54.8013 39.3232C54.0187 38.5005 53.4556 37.4942 53.1637 36.3969C52.7502 34.9396 52.5549 33.4291 52.584 31.9145C52.584 30.1818 52.7784 28.4546 53.1637 26.7653C53.5069 25.2268 54.0047 23.727 54.6493 22.2886L56.3629 23.279C55.0096 26.3121 54.306 29.5949 54.2976 32.9162C54.2682 34.4299 54.4636 35.9395 54.8773 37.3958C55.1686 38.4941 55.7318 39.5014 56.5149 40.3249C56.7288 40.5302 56.9647 40.7114 57.2183 40.8652Z" fill="black"/>
<path opacity="0.1" d="M65.5668 20.8171C65.4013 20.6097 65.1946 20.4388 64.9597 20.3153C64.7248 20.1918 64.4668 20.1183 64.2021 20.0996C64.1543 20.0996 64.1036 20.0996 64.0558 20.0996C64.3661 20.6031 64.5878 21.156 64.7114 21.7344C64.9265 22.727 65.0266 23.741 65.0097 24.7564C65.0141 25.8887 64.9142 27.019 64.7114 28.133C64.5322 29.1257 64.2444 30.0957 63.8532 31.0255C63.5103 31.8495 63.0507 32.6199 62.4885 33.3131C61.9751 33.9457 61.3517 34.4805 60.6483 34.8917C60.1329 35.2256 59.5394 35.4195 58.9263 35.4544C58.9876 35.5532 59.0563 35.6473 59.1317 35.7358C59.2967 35.9448 59.5047 36.1161 59.7416 36.2379C59.9785 36.3597 60.2387 36.4293 60.5048 36.442C61.1653 36.4387 61.8106 36.2432 62.3619 35.8793C63.0653 35.4681 63.6887 34.9334 64.2021 34.3008C64.7631 33.6067 65.2225 32.8365 65.5668 32.0132C65.9584 31.0825 66.2462 30.1115 66.425 29.1178C66.628 28.0038 66.7278 26.8735 66.7233 25.7412C66.7395 24.7286 66.6395 23.7175 66.425 22.7277C66.2909 22.0329 65.9971 21.3788 65.5668 20.8171Z" fill="black"/>
<path opacity="0.1" d="M64.3091 39.0166C64.1487 39.1629 63.9883 39.298 63.8223 39.4387L64.5201 40.2406C64.6152 40.3382 64.7231 40.4224 64.8409 40.491C65.0322 40.6036 66.3519 41.3605 66.5291 41.4674C66.4201 41.4005 66.3199 41.3202 66.2309 41.2282L64.3091 39.0166Z" fill="black"/>
<path d="M71.2759 39.5146L68.3187 41.2226C67.9723 41.4401 67.5823 41.5785 67.1763 41.6278C66.9992 41.6365 66.8224 41.6051 66.6592 41.5359C66.496 41.4667 66.3505 41.3615 66.2337 41.2282L64.309 39.0166C63.714 39.5642 63.0611 40.0454 62.3619 40.4516C61.1538 41.1476 60.0546 41.4711 59.0641 41.4224C58.1051 41.3871 57.1947 40.9912 56.5149 40.3137C55.7328 39.4895 55.1698 38.4825 54.8772 37.3846C54.466 35.9316 54.2707 34.4261 54.2976 32.9163C54.3081 29.4748 55.0646 26.0765 56.5149 22.9555C57.1899 21.5052 58.0465 20.1465 59.0641 18.9121C59.9852 17.7773 61.1021 16.8167 62.3619 16.0758C63.5662 15.378 64.6636 15.0582 65.654 15.1163C66.6091 15.1619 67.5125 15.5635 68.1864 16.2418C68.9662 17.0646 69.5273 18.0698 69.8184 19.1654C70.2314 20.616 70.4267 22.12 70.398 23.628C70.3984 24.6566 70.3298 25.6841 70.1926 26.7035C70.0551 27.7173 69.8559 28.7218 69.5961 29.7114C69.3386 30.6851 69.0181 31.641 68.6366 32.573C68.2692 33.4787 67.8376 34.3569 67.3451 35.2011L71.2759 39.5146ZM57.978 30.7919C57.9598 31.8102 58.0599 32.8271 58.2763 33.8223C58.4089 34.5133 58.6976 35.1649 59.1204 35.7273C59.2866 35.9351 59.4948 36.1055 59.7315 36.2272C59.9681 36.3489 60.2278 36.4192 60.4935 36.4335C61.154 36.4299 61.7992 36.2344 62.3506 35.8708C63.054 35.4596 63.6774 34.9249 64.1909 34.2922C64.7527 33.5983 65.2131 32.8281 65.5583 32.0046C65.9451 31.0734 66.2282 30.1024 66.4025 29.1093C66.607 27.9955 66.7068 26.8651 66.7007 25.7327C66.7185 24.72 66.6184 23.7087 66.4025 22.7192C66.2706 22.028 65.9818 21.3762 65.5583 20.8142C65.3923 20.6067 65.1851 20.4358 64.9497 20.3123C64.7144 20.1888 64.456 20.1154 64.1909 20.0967C63.5376 20.0914 62.8973 20.2793 62.3506 20.637C61.6392 21.0506 61.0097 21.5914 60.4935 22.2324C59.93 22.9303 59.4677 23.7042 59.1204 24.5312C58.7353 25.4621 58.4523 26.4319 58.2763 27.4238C58.0729 28.5311 57.973 29.6549 57.978 30.7806V30.7919Z" fill="#FAFAFA"/>
</svg>
