<svg width="267" height="241" viewBox="0 0 267 241" fill="none" xmlns="http://www.w3.org/2000/svg">
<path d="M133.5 240.56C206.951 240.56 266.494 237.084 266.494 232.795C266.494 228.507 206.951 225.03 133.5 225.03C60.0494 225.03 0.505981 228.507 0.505981 232.795C0.505981 237.084 60.0494 240.56 133.5 240.56Z" fill="#F5F5F5"/>
<path d="M53.068 114.548H205.342C206.307 114.566 207.265 114.377 208.152 113.995C209.038 113.613 209.833 113.045 210.482 112.331C211.132 111.616 211.621 110.772 211.918 109.853C212.214 108.934 212.311 107.962 212.201 107.003L204.001 13.503C203.8 11.4631 202.857 9.56805 201.351 8.17729C199.845 6.78654 197.881 5.99683 195.832 5.95799H43.561C42.5957 5.94006 41.6377 6.12861 40.7512 6.51099C39.8646 6.89336 39.07 7.46075 38.4206 8.17515C37.7712 8.88955 37.2819 9.73447 36.9855 10.6533C36.6891 11.5722 36.5924 12.5438 36.702 13.503L44.885 107.042C45.0955 109.077 46.0443 110.965 47.5521 112.348C49.0599 113.731 51.0222 114.514 53.068 114.548Z" fill="#263238"/>
<path opacity="0.7" d="M53.068 114.548H205.342C206.307 114.566 207.265 114.377 208.152 113.995C209.038 113.613 209.833 113.045 210.482 112.331C211.132 111.616 211.621 110.772 211.918 109.853C212.214 108.934 212.311 107.962 212.201 107.003L204.001 13.503C203.8 11.4631 202.857 9.56805 201.351 8.17729C199.845 6.78654 197.881 5.99683 195.832 5.95799H43.561C42.5957 5.94006 41.6377 6.12861 40.7512 6.51099C39.8646 6.89336 39.07 7.46075 38.4206 8.17515C37.7712 8.88955 37.2819 9.73447 36.9855 10.6533C36.6891 11.5722 36.5924 12.5438 36.702 13.503L44.885 107.042C45.0955 109.077 46.0443 110.965 47.5521 112.348C49.0599 113.731 51.0222 114.514 53.068 114.548Z" fill="white"/>
<path d="M53.233 104.979H201.715L193.477 10.857H44.995L53.233 104.979Z" fill="#407BFF"/>
<path d="M55.304 112.346H207.579C208.544 112.364 209.502 112.175 210.389 111.793C211.275 111.411 212.07 110.843 212.719 110.129C213.369 109.414 213.858 108.57 214.155 107.651C214.451 106.732 214.548 105.76 214.438 104.801L206.207 11.289C205.998 9.25405 205.051 7.36623 203.544 5.9823C202.038 4.59837 200.076 3.8142 198.031 3.77798H45.756C44.7939 3.76066 43.8392 3.94843 42.9553 4.32879C42.0714 4.70915 41.2786 5.27338 40.6297 5.98395C39.9808 6.69451 39.4907 7.53512 39.192 8.44983C38.8932 9.36454 38.7927 10.3324 38.897 11.289L47.073 104.828C47.2832 106.873 48.2382 108.769 49.756 110.155C51.2738 111.542 53.2485 112.321 55.304 112.346Z" fill="#407BFF"/>
<path d="M53.233 104.979H201.715L193.477 10.857H44.995L53.233 104.979Z" fill="#407BFF"/>
<path opacity="0.4" d="M53.233 105.123H201.715L193.477 11.001H44.995L53.233 105.123Z" fill="white"/>
<path d="M194.217 19.479H45.743L44.995 11.001H193.477L194.217 19.479Z" fill="#407BFF"/>
<path opacity="0.5" d="M194.217 19.479H45.743L44.995 11.001H193.477L194.217 19.479Z" fill="black"/>
<path d="M51.271 14.486L51.34 15.247H52.671L52.7189 15.782H51.381L51.481 16.831H50.787L50.533 13.95H52.707L52.755 14.485L51.271 14.486Z" fill="white"/>
<path d="M53.103 15.391C53.086 15.1948 53.1115 14.9973 53.1776 14.8118C53.2437 14.6264 53.349 14.4573 53.4863 14.3161C53.6236 14.175 53.7896 14.065 53.9732 13.9937C54.1567 13.9224 54.3535 13.8915 54.55 13.903C54.9693 13.889 55.3782 14.0349 55.6939 14.3112C56.0096 14.5875 56.2084 14.9735 56.25 15.391C56.2687 15.5875 56.2448 15.7857 56.1799 15.9721C56.115 16.1585 56.0106 16.3287 55.8739 16.4711C55.7372 16.6135 55.5714 16.7248 55.3878 16.7972C55.2042 16.8697 55.0071 16.9017 54.81 16.891C54.3881 16.9049 53.9767 16.7575 53.6596 16.4788C53.3425 16.2002 53.1435 15.8112 53.103 15.391ZM55.579 15.391C55.5651 15.1447 55.4583 14.9129 55.2801 14.7423C55.1019 14.5717 54.8657 14.4751 54.619 14.472C54.5012 14.4673 54.3839 14.4886 54.2753 14.5346C54.1668 14.5805 54.0697 14.6498 53.9911 14.7376C53.9124 14.8254 53.8542 14.9295 53.8205 15.0425C53.7867 15.1554 53.7784 15.2744 53.796 15.391C53.8101 15.6427 53.9207 15.8794 54.1046 16.0518C54.2886 16.2242 54.5319 16.3192 54.784 16.317C54.9006 16.3184 55.016 16.2944 55.1223 16.2466C55.2286 16.1987 55.3232 16.1282 55.3994 16.04C55.4756 15.9518 55.5316 15.848 55.5635 15.7359C55.5954 15.6238 55.6024 15.5061 55.584 15.391H55.579Z" fill="white"/>
<path d="M58.7339 16.831L58.1099 16.031H57.493L57.5619 16.831H56.8759L56.6219 13.95H57.8699C58.0295 13.9248 58.1924 13.9323 58.3489 13.9719C58.5055 14.0116 58.6523 14.0826 58.7806 14.1807C58.9089 14.2787 59.0159 14.4018 59.0952 14.5425C59.1745 14.6832 59.2244 14.8385 59.2419 14.999C59.2697 15.1856 59.2342 15.3761 59.1411 15.5401C59.0479 15.7042 58.9024 15.8323 58.7279 15.904L59.4209 16.83L58.7339 16.831ZM57.9039 14.492H57.3619L57.4439 15.5H57.993C58.393 15.5 58.5829 15.308 58.5619 15C58.5409 14.692 58.2949 14.492 57.8899 14.492H57.9039Z" fill="white"/>
<path d="M62.527 16.832L62.376 15.09L61.649 16.517H61.349L60.389 15.145L60.533 16.832H59.909L59.655 13.951H60.211L61.48 15.776L62.385 13.986H62.927L63.188 16.867L62.527 16.832Z" fill="white"/>
<path d="M55.469 26.202L55.524 26.833H56.635L56.676 27.279H55.565L55.64 28.157H55.084L54.871 25.749H56.671L56.712 26.202H55.469Z" fill="#407BFF"/>
<path d="M56.93 25.745C56.9265 25.7041 56.9322 25.663 56.9467 25.6247C56.9612 25.5863 56.9841 25.5517 57.0138 25.5234C57.0434 25.4951 57.079 25.4738 57.118 25.4611C57.157 25.4484 57.1983 25.4446 57.239 25.45C57.3242 25.4421 57.4093 25.4677 57.4759 25.5215C57.5426 25.5753 57.5856 25.6529 57.596 25.738C57.6004 25.7796 57.5954 25.8218 57.5814 25.8612C57.5675 25.9007 57.5448 25.9366 57.5152 25.9662C57.4856 25.9958 57.4497 26.0185 57.4102 26.0324C57.3707 26.0464 57.3286 26.0514 57.287 26.047C57.1999 26.0529 57.1139 26.0246 57.0473 25.9683C56.9807 25.9119 56.9386 25.8318 56.93 25.745ZM57.04 26.307H57.575L57.74 28.152H57.205L57.04 26.307Z" fill="#407BFF"/>
<path d="M59.221 26.277L59.262 26.777H59.135C58.84 26.777 58.662 26.942 58.689 27.298L58.764 28.169H58.235L58.077 26.324H58.585V26.564C58.6557 26.4636 58.7519 26.3841 58.8638 26.3336C58.9757 26.2831 59.099 26.2635 59.221 26.277Z" fill="#407BFF"/>
<path d="M59.5149 27.985L59.6589 27.601C59.8681 27.7194 60.1046 27.7808 60.3449 27.779C60.5919 27.779 60.6739 27.71 60.6669 27.607C60.6669 27.307 59.5489 27.607 59.4869 26.88C59.4869 26.53 59.7539 26.28 60.2869 26.28C60.5388 26.2779 60.7877 26.3344 61.0139 26.445L60.8699 26.829C60.7014 26.7378 60.5126 26.6907 60.3209 26.692C60.0809 26.692 59.9849 26.767 59.9919 26.863C59.9919 27.179 61.1099 26.863 61.1719 27.597C61.1719 27.94 60.9049 28.187 60.3559 28.187C60.0629 28.1933 59.7732 28.1237 59.5149 27.985Z" fill="#407BFF"/>
<path d="M62.712 28.067C62.5855 28.1483 62.4373 28.1891 62.287 28.184C62.1919 28.1926 62.096 28.1813 62.0054 28.1507C61.9149 28.1201 61.8318 28.071 61.7614 28.0064C61.6909 27.9418 61.6348 27.8632 61.5965 27.7757C61.5582 27.6881 61.5386 27.5935 61.539 27.498L61.477 26.75H61.196L61.155 26.332H61.443L61.402 25.886H61.937L61.978 26.332H62.438L62.472 26.75H62.012L62.081 27.498C62.0801 27.5307 62.0858 27.5632 62.0979 27.5936C62.1099 27.624 62.1281 27.6517 62.1512 27.6748C62.1743 27.6979 62.202 27.7161 62.2324 27.7282C62.2628 27.7402 62.2953 27.746 62.328 27.745C62.4046 27.7455 62.4793 27.7213 62.541 27.676L62.712 28.067Z" fill="#407BFF"/>
<path d="M66.0249 25.749L66.2309 28.157H65.7779L64.4469 26.696L64.577 28.157H64.0279L63.8149 25.749H64.2749L65.5989 27.209L65.4689 25.748L66.0249 25.749Z" fill="#407BFF"/>
<path d="M68.337 27.1L68.437 28.156H67.925V27.923C67.8692 28.0139 67.7884 28.0868 67.6923 28.1331C67.5962 28.1794 67.4888 28.1971 67.383 28.184C67.2115 28.2005 67.04 28.1519 66.9027 28.0477C66.7654 27.9436 66.6723 27.7916 66.642 27.622C66.642 27.3 66.827 27.073 67.39 27.073H67.815C67.815 26.84 67.644 26.71 67.355 26.71C67.1688 26.7045 66.9868 26.7651 66.841 26.881L66.615 26.504C66.8431 26.349 67.1143 26.2699 67.39 26.278C67.5074 26.2635 67.6265 26.2739 67.7397 26.3085C67.8528 26.3431 67.9574 26.401 68.0467 26.4786C68.136 26.5562 68.208 26.6517 68.258 26.759C68.308 26.8662 68.3349 26.9827 68.337 27.101V27.1ZM67.843 27.573V27.381H67.473C67.226 27.381 67.151 27.481 67.164 27.601C67.177 27.721 67.294 27.82 67.486 27.82C67.5584 27.8164 67.628 27.7908 67.6855 27.7467C67.743 27.7026 67.7857 27.642 67.808 27.573H67.843Z" fill="#407BFF"/>
<path d="M71.904 27.1L72.004 28.156H71.464L71.375 27.182C71.375 26.882 71.204 26.743 70.991 26.743C70.778 26.743 70.591 26.901 70.621 27.23L70.703 28.156H70.164L70.082 27.182C70.082 26.882 69.917 26.743 69.691 26.743C69.465 26.743 69.3 26.901 69.327 27.23L69.409 28.156H68.874L68.709 26.311H69.223V26.517C69.2911 26.4371 69.3767 26.3739 69.4731 26.3323C69.5695 26.2907 69.6741 26.2718 69.779 26.277C69.9015 26.273 70.0232 26.2981 70.1341 26.3502C70.245 26.4024 70.3419 26.4801 70.417 26.577C70.4909 26.4789 70.5876 26.4002 70.6988 26.3479C70.81 26.2957 70.9323 26.2713 71.055 26.277C71.1657 26.2708 71.2764 26.2878 71.3802 26.3267C71.484 26.3656 71.5785 26.4256 71.6579 26.503C71.7372 26.5804 71.7996 26.6734 71.8411 26.7762C71.8826 26.8789 71.9023 26.9892 71.899 27.1H71.904Z" fill="#407BFF"/>
<path d="M74.229 27.382H72.857C72.8964 27.4974 72.9731 27.5965 73.075 27.6635C73.177 27.7305 73.2984 27.7616 73.42 27.752C73.5028 27.7571 73.5858 27.7438 73.6629 27.713C73.7401 27.6822 73.8094 27.6348 73.866 27.574L74.182 27.883C74.0903 27.9872 73.9756 28.0686 73.847 28.1206C73.7183 28.1727 73.5793 28.1941 73.441 28.183C73.1654 28.2023 72.8932 28.1137 72.6819 27.9358C72.4706 27.7579 72.3369 27.5048 72.309 27.23C72.2937 27.1057 72.306 26.9796 72.3451 26.8607C72.3841 26.7418 72.449 26.6329 72.5349 26.5419C72.6209 26.4509 72.7258 26.3799 72.8424 26.3341C72.9589 26.2884 73.0841 26.2688 73.209 26.277C73.4932 26.2861 73.7624 26.4066 73.9586 26.6123C74.1548 26.8181 74.2623 27.0927 74.258 27.377L74.229 27.382ZM72.795 27.073H73.707C73.6819 26.963 73.6198 26.8649 73.5312 26.795C73.4426 26.7252 73.3328 26.6877 73.22 26.689C73.1664 26.6843 73.1125 26.6907 73.0615 26.7078C73.0106 26.7249 72.9637 26.7523 72.9238 26.7884C72.8839 26.8244 72.8519 26.8683 72.8297 26.9173C72.8076 26.9662 72.7957 27.0192 72.795 27.073Z" fill="#407BFF"/>
<path d="M60.915 73.564L60.956 74.01H59.097L58.884 71.61H60.702L60.743 72.056H59.475L59.523 72.577H60.641L60.675 73.009H59.565L59.613 73.565L60.915 73.564Z" fill="#407BFF"/>
<path d="M64.385 72.954L64.485 74.01H63.95L63.861 73.036C63.861 72.736 63.689 72.597 63.477 72.597C63.265 72.597 63.077 72.755 63.107 73.084L63.189 74.01H62.654L62.572 73.036C62.572 72.736 62.407 72.597 62.181 72.597C61.955 72.597 61.79 72.755 61.817 73.084L61.899 74.01H61.364L61.199 72.165H61.713V72.378C61.7811 72.2981 61.8667 72.2349 61.9631 72.1933C62.0595 72.1517 62.1641 72.1328 62.269 72.138C62.3917 72.1323 62.514 72.1567 62.6251 72.209C62.7363 72.2612 62.8331 72.3399 62.907 72.438C62.98 72.3389 63.0766 72.2596 63.188 72.2073C63.2994 72.1549 63.4221 72.1311 63.545 72.138C63.6554 72.1302 63.7663 72.1457 63.8703 72.1836C63.9744 72.2215 64.0693 72.2808 64.1489 72.3578C64.2285 72.4348 64.291 72.5276 64.3324 72.6303C64.3738 72.7331 64.393 72.8433 64.389 72.954H64.385Z" fill="#407BFF"/>
<path d="M66.498 72.954L66.598 74.01H66.098V73.777C66.0422 73.8679 65.9614 73.9408 65.8653 73.9871C65.7692 74.0334 65.6618 74.0511 65.556 74.038C65.3844 74.0545 65.213 74.0059 65.0757 73.9017C64.9384 73.7976 64.8453 73.6456 64.815 73.476C64.815 73.154 65 72.927 65.563 72.927H65.988C65.988 72.694 65.817 72.563 65.528 72.563C65.3417 72.5578 65.1596 72.6188 65.014 72.735L64.788 72.358C65.0169 72.2054 65.2881 72.1288 65.563 72.139C65.6793 72.1256 65.7971 72.1366 65.9089 72.1712C66.0207 72.2059 66.1241 72.2634 66.2125 72.3401C66.3009 72.4169 66.3724 72.5112 66.4224 72.617C66.4724 72.7229 66.4998 72.838 66.503 72.955L66.498 72.954ZM66.004 73.427V73.235H65.592C65.345 73.235 65.27 73.335 65.283 73.454C65.296 73.573 65.413 73.674 65.605 73.674C65.6901 73.688 65.7774 73.6707 65.8508 73.6253C65.9241 73.5799 65.9785 73.5094 66.004 73.427Z" fill="#407BFF"/>
<path d="M66.8 71.609C66.7959 71.5686 66.8009 71.5278 66.8145 71.4896C66.8282 71.4513 66.8501 71.4166 66.8788 71.3879C66.9075 71.3592 66.9423 71.3372 66.9805 71.3235C67.0188 71.3099 67.0596 71.3049 67.1 71.309C67.1859 71.3012 67.2715 71.3268 67.339 71.3804C67.4066 71.434 67.451 71.5116 67.4629 71.597C67.4674 71.6386 67.4624 71.6808 67.4484 71.7203C67.4345 71.7598 67.4118 71.7956 67.3822 71.8252C67.3526 71.8549 67.3167 71.8775 67.2772 71.8915C67.2377 71.9054 67.1956 71.9104 67.154 71.906C67.0682 71.9112 66.9836 71.8832 66.9178 71.828C66.852 71.7728 66.8098 71.6944 66.8 71.609ZM66.91 72.165H67.445L67.61 74.01H67.0749L66.91 72.165Z" fill="#407BFF"/>
<path d="M67.884 71.465H68.419L68.638 74.01H68.103L67.884 71.465Z" fill="#407BFF"/>
<path d="M57.842 41.545H56.724L56.552 42.059H55.99L56.854 39.659H57.403L58.686 42.059H58.103L57.842 41.545ZM57.629 41.127L57.163 40.208L56.868 41.127H57.629Z" fill="#407BFF"/>
<path d="M60.531 39.515L60.757 42.06H60.243V41.847C60.1774 41.9299 60.0923 41.9953 59.9953 42.0372C59.8982 42.079 59.7923 42.0962 59.687 42.087C59.4284 42.0963 59.1764 42.0037 58.9853 41.8293C58.7942 41.6548 58.6792 41.4123 58.665 41.154C58.6431 41.034 58.6486 40.9106 58.6812 40.793C58.7138 40.6754 58.7725 40.5667 58.853 40.4751C58.9335 40.3834 59.0337 40.3112 59.1461 40.2637C59.2585 40.2162 59.3801 40.1948 59.502 40.201C59.6072 40.1976 59.7121 40.216 59.81 40.2548C59.9079 40.2937 59.9967 40.3523 60.071 40.427L59.996 39.527L60.531 39.515ZM60.147 41.141C60.147 41.0047 60.0928 40.8739 59.9964 40.7775C59.9 40.6811 59.7693 40.627 59.633 40.627C59.5688 40.6256 59.5052 40.6387 59.4468 40.6654C59.3884 40.692 59.3369 40.7316 59.296 40.7811C59.2551 40.8305 59.2259 40.8886 59.2107 40.9509C59.1954 41.0133 59.1945 41.0782 59.208 41.141C59.2095 41.2763 59.2644 41.4055 59.3606 41.5006C59.4568 41.5957 59.5867 41.649 59.722 41.649C59.7845 41.6511 59.8466 41.6391 59.9039 41.614C59.9612 41.5889 60.0121 41.5512 60.0528 41.5038C60.0936 41.4564 60.1233 41.4005 60.1395 41.3401C60.1558 41.2797 60.1584 41.2165 60.147 41.155V41.141Z" fill="#407BFF"/>
<path d="M62.904 39.515L63.13 42.06H62.616V41.847C62.5504 41.9299 62.4653 41.9952 62.3682 42.0371C62.2712 42.079 62.1653 42.0962 62.06 42.087C61.8028 42.0903 61.5545 41.9933 61.3678 41.8164C61.181 41.6396 61.0706 41.3969 61.06 41.14C61.0381 41.0199 61.0437 40.8965 61.0762 40.7789C61.1088 40.6612 61.1675 40.5525 61.248 40.4608C61.3285 40.369 61.4287 40.2967 61.541 40.2491C61.6534 40.2015 61.7751 40.1799 61.897 40.186C62.0022 40.1826 62.1071 40.2009 62.205 40.2398C62.3028 40.2787 62.3917 40.3373 62.466 40.412L62.391 39.512L62.904 39.515ZM62.52 41.141C62.52 41.0046 62.4658 40.8739 62.3694 40.7775C62.273 40.6811 62.1423 40.627 62.006 40.627C61.9418 40.6255 61.8782 40.6387 61.8198 40.6653C61.7614 40.692 61.7099 40.7316 61.669 40.781C61.6281 40.8305 61.5989 40.8886 61.5837 40.9509C61.5684 41.0132 61.5675 41.0782 61.581 41.141C61.5825 41.2762 61.6374 41.4054 61.7336 41.5005C61.8298 41.5956 61.9597 41.649 62.095 41.649C62.1574 41.6509 62.2195 41.6388 62.2767 41.6136C62.3338 41.5884 62.3846 41.5508 62.4254 41.5034C62.4661 41.4561 62.4958 41.4002 62.5121 41.3399C62.5285 41.2796 62.5312 41.2164 62.52 41.155V41.141Z" fill="#407BFF"/>
<path d="M64.605 40.188L64.646 40.682H64.523C64.228 40.682 64.05 40.847 64.077 41.196L64.152 42.067H63.617L63.459 40.222H63.967V40.469C64.0385 40.3694 64.1354 40.2908 64.2476 40.2414C64.3598 40.192 64.4832 40.1735 64.605 40.188Z" fill="#407BFF"/>
<path d="M66.8 41.291H65.428C65.4673 41.4063 65.5439 41.5052 65.6457 41.5722C65.7474 41.6391 65.8685 41.6704 65.99 41.661C66.0727 41.6642 66.1551 41.6501 66.2319 41.6194C66.3088 41.5887 66.3783 41.5423 66.436 41.483L66.751 41.792C66.6582 41.8945 66.5432 41.9744 66.4147 42.0255C66.2863 42.0767 66.1478 42.0977 66.01 42.087C65.735 42.1082 65.4626 42.021 65.2511 41.8441C65.0395 41.6671 64.9056 41.4144 64.878 41.14C64.8614 41.0155 64.8728 40.8889 64.9114 40.7693C64.95 40.6498 65.0147 40.5404 65.101 40.4491C65.1872 40.3578 65.2927 40.2869 65.4099 40.2415C65.527 40.1962 65.6527 40.1776 65.778 40.187C66.0432 40.1775 66.3015 40.2729 66.4967 40.4527C66.692 40.6324 66.8085 40.8819 66.821 41.147C66.8176 41.1954 66.8106 41.2436 66.8 41.291ZM65.366 40.975H66.278C66.2529 40.865 66.1908 40.7669 66.1022 40.697C66.0136 40.6272 65.9038 40.5897 65.791 40.591C65.7377 40.5876 65.6843 40.5949 65.6339 40.6125C65.5835 40.6301 65.5371 40.6576 65.4975 40.6934C65.4579 40.7292 65.4259 40.7725 65.4033 40.8209C65.3807 40.8692 65.368 40.9216 65.366 40.975Z" fill="#407BFF"/>
<path d="M67.043 41.888L67.187 41.504C67.395 41.6252 67.6323 41.6868 67.873 41.682C68.12 41.682 68.202 41.62 68.195 41.517C68.195 41.217 67.077 41.517 67.015 40.783C67.015 40.433 67.276 40.183 67.815 40.183C68.0668 40.1809 68.3157 40.2374 68.542 40.348L68.398 40.725C68.2295 40.6338 68.0406 40.5867 67.849 40.588C67.609 40.588 67.513 40.663 67.52 40.759C67.52 41.075 68.638 40.759 68.7 41.5C68.7 41.843 68.433 42.083 67.884 42.083C67.5912 42.095 67.3006 42.0276 67.043 41.888Z" fill="#407BFF"/>
<path d="M68.857 41.888L69.001 41.504C69.2094 41.6242 69.4464 41.6857 69.687 41.682C69.934 41.682 70.023 41.62 70.016 41.517C70.016 41.217 68.898 41.517 68.829 40.783C68.829 40.433 69.097 40.183 69.629 40.183C69.8809 40.18 70.13 40.2365 70.356 40.348L70.212 40.725C70.0456 40.6347 69.8593 40.5876 69.67 40.588C69.43 40.588 69.334 40.663 69.341 40.76C69.341 41.076 70.459 40.76 70.521 41.501C70.521 41.844 70.253 42.084 69.698 42.084C69.4053 42.0936 69.1152 42.026 68.857 41.888Z" fill="#407BFF"/>
<path d="M62.369 87.589C62.417 88.124 62.04 88.453 61.402 88.453H60.915L60.977 89.139H60.415L60.209 86.739H61.245C61.3748 86.7205 61.507 86.7279 61.6339 86.7608C61.7608 86.7936 61.88 86.8512 61.9846 86.9303C62.0892 87.0094 62.1771 87.1084 62.2432 87.2216C62.3093 87.3349 62.3524 87.46 62.37 87.59L62.369 87.589ZM61.807 87.589C61.807 87.321 61.594 87.171 61.258 87.171H60.792L60.861 88.001H61.314C61.669 87.997 61.827 87.846 61.806 87.589H61.807Z" fill="#407BFF"/>
<path d="M64.379 88.054L64.4789 89.11H63.9789V88.877C63.9232 88.968 63.8425 89.041 63.7464 89.0873C63.6502 89.1336 63.5428 89.1512 63.437 89.138C63.2654 89.1545 63.094 89.1058 62.9567 89.0017C62.8194 88.8976 62.7263 88.7456 62.6959 88.576C62.6959 88.254 62.8809 88.027 63.4439 88.027H63.8689C63.8689 87.794 63.697 87.663 63.409 87.663C63.2228 87.6587 63.041 87.7196 62.8949 87.835L62.6689 87.458C62.8983 87.3063 63.1691 87.2297 63.4439 87.239C63.5602 87.2256 63.6781 87.2366 63.7899 87.2712C63.9017 87.3059 64.0051 87.3634 64.0935 87.4401C64.1819 87.5169 64.2534 87.6111 64.3034 87.717C64.3534 87.8229 64.3808 87.938 64.3839 88.055L64.379 88.054ZM63.8849 88.527V88.335H63.5349C63.2879 88.335 63.213 88.435 63.226 88.555C63.239 88.675 63.3559 88.774 63.5479 88.774C63.6225 88.7739 63.6951 88.7503 63.7556 88.7067C63.816 88.6631 63.8613 88.6017 63.8849 88.531V88.527Z" fill="#407BFF"/>
<path d="M64.763 88.943L64.907 88.559C65.1161 88.6774 65.3527 88.7388 65.593 88.737C65.84 88.737 65.929 88.668 65.915 88.566C65.915 88.266 64.804 88.566 64.735 87.839C64.735 87.489 65.003 87.239 65.535 87.239C65.7863 87.2345 66.0352 87.2886 66.262 87.397L66.118 87.781C65.9494 87.6898 65.7606 87.6427 65.569 87.644C65.329 87.644 65.233 87.719 65.247 87.815C65.247 88.131 66.358 87.815 66.427 88.549C66.427 88.892 66.159 89.139 65.604 89.139C65.3115 89.1471 65.0218 89.0796 64.763 88.943Z" fill="#407BFF"/>
<path d="M66.58 88.943L66.724 88.559C66.9337 88.676 67.1699 88.7372 67.41 88.737C67.657 88.737 67.746 88.668 67.739 88.566C67.739 88.266 66.621 88.566 66.559 87.839C66.525 87.489 66.82 87.239 67.359 87.239C67.6081 87.2345 67.8547 87.2886 68.079 87.397L67.935 87.781C67.7687 87.6907 67.5823 87.6436 67.393 87.644C67.153 87.644 67.057 87.72 67.064 87.815C67.064 88.131 68.182 87.815 68.244 88.549C68.244 88.892 67.976 89.139 67.421 89.139C67.1287 89.1453 66.8395 89.0779 66.58 88.943Z" fill="#407BFF"/>
<path d="M71.369 87.269L70.861 89.114H70.347L69.833 87.968L69.504 89.114H69.024L68.194 87.269H68.694L69.243 88.517L69.586 87.269H70.039L70.588 88.517L70.931 87.269H71.369Z" fill="#407BFF"/>
<path d="M71.506 88.188C71.4922 88.0615 71.5068 87.9335 71.5486 87.8133C71.5904 87.6931 71.6585 87.5837 71.7478 87.4931C71.8371 87.4024 71.9454 87.3328 72.065 87.2892C72.1845 87.2456 72.3123 87.2291 72.439 87.241C72.7091 87.2266 72.9743 87.3171 73.1792 87.4935C73.3842 87.67 73.5131 87.9188 73.539 88.188C73.5539 88.315 73.5402 88.4438 73.4989 88.5649C73.4576 88.686 73.3897 88.7962 73.3002 88.8877C73.2108 88.9792 73.102 89.0495 72.9819 89.0935C72.8618 89.1375 72.7334 89.154 72.606 89.142C72.3353 89.1543 72.0703 89.0621 71.8655 88.8846C71.6608 88.7071 71.5321 88.4577 71.506 88.188ZM72.994 88.188C72.9924 88.0527 72.9376 87.9235 72.8414 87.8284C72.7451 87.7333 72.6153 87.68 72.48 87.68C72.4159 87.6777 72.3521 87.6899 72.2934 87.7158C72.2347 87.7417 72.1826 87.7805 72.141 87.8294C72.0994 87.8783 72.0695 87.9359 72.0534 87.998C72.0373 88.0601 72.0354 88.1251 72.048 88.188C72.0499 88.3249 72.1055 88.4557 72.2031 88.5519C72.3006 88.6481 72.432 88.702 72.569 88.702C72.6332 88.7034 72.6968 88.6903 72.7552 88.6636C72.8135 88.6369 72.8651 88.5974 72.906 88.5479C72.9469 88.4985 72.9761 88.4404 72.9913 88.378C73.0065 88.3157 73.0075 88.2507 72.994 88.188Z" fill="#407BFF"/>
<path d="M74.955 87.242L74.996 87.736H74.873C74.578 87.736 74.4 87.894 74.427 88.25L74.509 89.121H73.9669L73.809 87.276H74.317V87.516C74.3893 87.4177 74.4866 87.3405 74.5987 87.2923C74.7109 87.2441 74.8339 87.2268 74.955 87.242Z" fill="#407BFF"/>
<path d="M77.076 86.569L77.302 89.114H76.786V88.901C76.7179 88.9809 76.6324 89.0441 76.536 89.0857C76.4396 89.1273 76.3349 89.1462 76.23 89.141C75.9719 89.1443 75.7227 89.0464 75.5358 88.8683C75.3489 88.6902 75.2392 88.446 75.23 88.188C75.2092 88.0684 75.2155 87.9457 75.2485 87.8289C75.2816 87.7121 75.3405 87.6042 75.4208 87.5132C75.5012 87.4223 75.6011 87.3506 75.7129 87.3035C75.8248 87.2563 75.9458 87.235 76.067 87.241C76.1728 87.2369 76.2784 87.2542 76.3773 87.2919C76.4763 87.3295 76.5667 87.3867 76.643 87.46L76.561 86.568L77.076 86.569ZM76.692 88.188C76.6905 88.0527 76.6356 87.9235 76.5394 87.8284C76.4432 87.7333 76.3133 87.68 76.178 87.68C76.1141 87.6774 76.0504 87.6895 75.9919 87.7155C75.9334 87.7414 75.8816 87.7804 75.8406 87.8294C75.7995 87.8785 75.7703 87.9364 75.7551 87.9985C75.7399 88.0607 75.7392 88.1255 75.753 88.188C75.753 88.3243 75.8072 88.4551 75.9036 88.5515C76 88.6478 76.1307 88.702 76.267 88.702C76.3312 88.7034 76.3948 88.6903 76.4532 88.6636C76.5116 88.6369 76.5631 88.5974 76.604 88.5479C76.6449 88.4985 76.6741 88.4404 76.6893 88.3781C76.7046 88.3157 76.7055 88.2507 76.692 88.188Z" fill="#407BFF"/>
<path d="M156.286 98.449H142.753C141.49 98.427 140.279 97.943 139.349 97.0885C138.419 96.2341 137.834 95.0684 137.705 93.812C137.64 93.2212 137.701 92.6232 137.885 92.058C138.069 91.4927 138.371 90.9731 138.771 90.5338C139.172 90.0945 139.661 89.7456 140.207 89.5102C140.753 89.2749 141.343 89.1586 141.937 89.169H155.45C156.714 89.1927 157.925 89.6782 158.855 90.5338C159.785 91.3894 160.369 92.5558 160.498 93.813C160.562 94.4016 160.501 94.9972 160.318 95.5603C160.134 96.1234 159.834 96.6412 159.436 97.0795C159.038 97.5178 158.551 97.8666 158.008 98.1029C157.465 98.3391 156.878 98.4574 156.286 98.45V98.449Z" fill="#407BFF"/>
<path d="M144.783 94.815L144.934 94.39C145.176 94.5515 145.459 94.6397 145.75 94.644C146.079 94.644 146.203 94.534 146.189 94.383C146.155 93.937 144.783 94.246 144.701 93.354C144.667 92.942 144.969 92.606 145.648 92.606C145.948 92.5999 146.243 92.6734 146.505 92.819L146.368 93.237C146.158 93.1201 145.922 93.0565 145.682 93.052C145.353 93.052 145.236 93.175 145.25 93.326C145.284 93.765 146.656 93.463 146.732 94.341C146.766 94.741 146.465 95.089 145.779 95.089C145.428 95.0914 145.083 94.9965 144.783 94.815Z" fill="white"/>
<path d="M148.686 93.971L148.775 95.02H148.275V94.787C148.22 94.8791 148.14 94.9531 148.043 94.9996C147.947 95.046 147.839 95.0629 147.733 95.048C147.563 95.0626 147.393 95.0131 147.257 94.9092C147.121 94.8052 147.029 94.6543 146.999 94.486C146.999 94.164 147.177 93.937 147.74 93.937H148.165C148.165 93.704 148 93.573 147.712 93.573C147.524 93.5676 147.339 93.6281 147.191 93.744L146.965 93.367C147.197 93.2164 147.47 93.1397 147.747 93.147C147.864 93.1336 147.982 93.1448 148.095 93.1798C148.207 93.2148 148.311 93.273 148.399 93.3505C148.488 93.428 148.559 93.5231 148.608 93.6298C148.658 93.7365 148.685 93.8523 148.687 93.97L148.686 93.971ZM148.192 94.437V94.245H147.828C147.574 94.245 147.506 94.345 147.513 94.464C147.52 94.583 147.65 94.69 147.835 94.69C147.91 94.6932 147.985 94.6734 148.049 94.633C148.113 94.5926 148.163 94.5336 148.192 94.464V94.437Z" fill="white"/>
<path d="M150.898 93.202L150.281 95.047H149.732L148.792 93.202H149.341L149.965 94.457L150.383 93.202H150.898Z" fill="white"/>
<path d="M152.952 94.272H151.577C151.614 94.3876 151.689 94.4871 151.79 94.5544C151.891 94.6216 152.012 94.6525 152.133 94.642C152.217 94.6476 152.301 94.6346 152.38 94.6038C152.458 94.5731 152.528 94.5253 152.586 94.464L152.895 94.78C152.804 94.8823 152.69 94.9621 152.563 95.0133C152.435 95.0645 152.298 95.0856 152.161 95.075C151.885 95.0941 151.612 95.0056 151.4 94.8279C151.188 94.6502 151.053 94.3972 151.023 94.122C151.008 93.9977 151.021 93.8717 151.061 93.7531C151.101 93.6344 151.166 93.526 151.253 93.4355C151.339 93.3451 151.445 93.2748 151.561 93.2298C151.678 93.1847 151.803 93.166 151.928 93.175C152.071 93.1727 152.212 93.2 152.343 93.2553C152.475 93.3105 152.593 93.3924 152.691 93.4958C152.789 93.5992 152.865 93.7219 152.913 93.856C152.961 93.9901 152.981 94.1328 152.971 94.275L152.952 94.272ZM151.525 93.963H152.43C152.406 93.8523 152.344 93.7535 152.256 93.6834C152.167 93.6133 152.056 93.5764 151.943 93.579C151.889 93.5753 151.836 93.5826 151.785 93.6006C151.735 93.6186 151.688 93.6468 151.649 93.6835C151.61 93.7202 151.578 93.7645 151.557 93.8138C151.536 93.8631 151.525 93.9163 151.525 93.97V93.963Z" fill="white"/>
<path d="M182.042 98.449H168.481C167.218 98.427 166.007 97.943 165.077 97.0885C164.147 96.2341 163.562 95.0685 163.433 93.812C163.369 93.2208 163.431 92.6227 163.616 92.0575C163.801 91.4922 164.103 90.9728 164.504 90.5336C164.905 90.0944 165.395 89.7456 165.941 89.5103C166.487 89.2751 167.077 89.1587 167.672 89.169H181.204C182.467 89.1927 183.679 89.6782 184.609 90.5338C185.539 91.3894 186.123 92.5559 186.252 93.813C186.317 94.4019 186.257 94.9979 186.074 95.5615C185.891 96.1251 185.591 96.6434 185.192 97.0819C184.794 97.5205 184.307 97.8693 183.763 98.1052C183.22 98.341 182.632 98.4586 182.04 98.45L182.042 98.449Z" fill="#407BFF"/>
<path d="M166.828 93.847C166.808 93.6833 166.825 93.5173 166.877 93.3609C166.93 93.2045 167.016 93.0618 167.13 92.9429C167.245 92.8241 167.384 92.7323 167.538 92.674C167.692 92.6157 167.858 92.5925 168.022 92.606C168.213 92.602 168.402 92.6377 168.578 92.7108C168.754 92.784 168.913 92.893 169.044 93.031L168.721 93.36C168.641 93.2719 168.544 93.2015 168.435 93.1531C168.326 93.1047 168.209 93.0795 168.09 93.079C167.993 93.0783 167.896 93.0983 167.807 93.1378C167.718 93.1773 167.638 93.2353 167.573 93.308C167.509 93.3806 167.46 93.4663 167.431 93.5592C167.401 93.6521 167.392 93.7502 167.404 93.847C167.416 94.0586 167.511 94.2572 167.667 94.4005C167.823 94.5439 168.029 94.6208 168.241 94.615C168.353 94.6178 168.465 94.593 168.565 94.5428C168.665 94.4925 168.752 94.4184 168.817 94.327L169.201 94.656C169.089 94.8004 168.944 94.9153 168.778 94.9906C168.611 95.0659 168.429 95.0993 168.247 95.088C167.897 95.1016 167.555 94.9805 167.291 94.7498C167.027 94.519 166.861 94.196 166.828 93.847Z" fill="white"/>
<path d="M169.277 94.121C169.262 93.9942 169.276 93.8657 169.317 93.7449C169.358 93.6241 169.426 93.5141 169.516 93.4232C169.605 93.3322 169.714 93.2626 169.834 93.2195C169.955 93.1763 170.083 93.1608 170.21 93.174C170.479 93.162 170.741 93.2535 170.944 93.4297C171.147 93.606 171.275 93.8534 171.301 94.121C171.316 94.2474 171.302 94.3754 171.261 94.4959C171.22 94.6164 171.153 94.7262 171.064 94.8175C170.976 94.9087 170.868 94.9791 170.749 95.0235C170.629 95.0678 170.502 95.0851 170.375 95.074C170.104 95.0875 169.839 94.9959 169.634 94.8183C169.43 94.6407 169.302 94.3908 169.277 94.121ZM170.759 94.121C170.757 93.9856 170.702 93.8564 170.606 93.7613C170.509 93.6663 170.379 93.613 170.244 93.613C170.18 93.6104 170.116 93.6225 170.058 93.6484C169.999 93.6744 169.948 93.7134 169.906 93.7624C169.865 93.8115 169.836 93.8694 169.821 93.9315C169.806 93.9937 169.805 94.0585 169.819 94.121C169.819 94.1885 169.832 94.2553 169.858 94.3177C169.884 94.38 169.922 94.4367 169.969 94.4844C170.017 94.5322 170.074 94.57 170.136 94.5959C170.199 94.6217 170.265 94.635 170.333 94.635C170.397 94.6364 170.461 94.6233 170.519 94.5966C170.577 94.5699 170.629 94.5304 170.67 94.4809C170.711 94.4315 170.74 94.3734 170.755 94.311C170.77 94.2487 170.771 94.1837 170.758 94.121H170.759Z" fill="white"/>
<path d="M173.537 93.97L173.626 95.026H173.091L173.009 94.052C173.016 93.9949 173.011 93.9369 172.993 93.8822C172.976 93.8274 172.946 93.7773 172.907 93.7353C172.867 93.6933 172.819 93.6606 172.765 93.6395C172.712 93.6183 172.654 93.6093 172.597 93.613C172.364 93.613 172.165 93.771 172.197 94.113L172.279 95.025H171.744L171.579 93.18H172.093V93.393C172.167 93.3112 172.258 93.2472 172.361 93.2057C172.463 93.1641 172.573 93.1461 172.683 93.153C172.794 93.145 172.906 93.1603 173.01 93.198C173.115 93.2356 173.211 93.2948 173.292 93.3716C173.373 93.4484 173.436 93.5412 173.479 93.6441C173.522 93.747 173.542 93.8576 173.54 93.969L173.537 93.97Z" fill="white"/>
<path d="M175.293 94.958C175.185 95.0385 175.057 95.0879 174.923 95.1006C174.789 95.1134 174.654 95.0891 174.533 95.0303C174.412 94.9716 174.31 94.8807 174.237 94.7676C174.164 94.6545 174.123 94.5235 174.12 94.389L174.051 93.628H173.77L173.729 93.216H174.017L173.976 92.763H174.511L174.552 93.216H175.012L175.046 93.628H174.586L174.655 94.376C174.654 94.4087 174.66 94.4412 174.672 94.4716C174.684 94.5021 174.702 94.5297 174.725 94.5528C174.748 94.5759 174.776 94.5941 174.806 94.6062C174.837 94.6182 174.869 94.624 174.902 94.623C174.979 94.6234 175.053 94.5992 175.115 94.554L175.293 94.958Z" fill="white"/>
<path d="M175.341 92.647C175.337 92.6057 175.342 92.5641 175.356 92.5251C175.37 92.4861 175.393 92.4508 175.423 92.422C175.452 92.3931 175.488 92.3713 175.528 92.3583C175.567 92.3453 175.609 92.3415 175.65 92.347C175.735 92.3391 175.82 92.3647 175.887 92.4185C175.954 92.4723 175.997 92.55 176.007 92.635C176.011 92.6767 176.006 92.7188 175.992 92.7583C175.978 92.7977 175.956 92.8336 175.926 92.8632C175.897 92.8929 175.861 92.9155 175.821 92.9295C175.782 92.9434 175.74 92.9484 175.698 92.944C175.612 92.9499 175.526 92.9224 175.46 92.8671C175.393 92.8118 175.351 92.7329 175.341 92.647ZM175.451 93.203H175.986L176.15 95.048H175.615L175.451 93.203Z" fill="white"/>
<path d="M178.422 93.97L178.522 95.026H177.987L177.898 94.052C177.906 93.9948 177.901 93.9366 177.883 93.8816C177.866 93.8266 177.836 93.7762 177.797 93.7341C177.757 93.692 177.709 93.6593 177.655 93.6383C177.601 93.6174 177.544 93.6087 177.486 93.613C177.246 93.613 177.054 93.771 177.086 94.113L177.161 95.025H176.626L176.468 93.18H176.976V93.393C177.051 93.312 177.142 93.2485 177.244 93.207C177.346 93.1656 177.456 93.1471 177.566 93.153C177.677 93.145 177.789 93.1603 177.894 93.198C177.998 93.2356 178.094 93.2948 178.175 93.3716C178.256 93.4484 178.319 93.5412 178.362 93.6441C178.405 93.747 178.426 93.8576 178.423 93.969L178.422 93.97Z" fill="white"/>
<path d="M180.704 93.202L180.862 95.047H180.354V94.828C180.287 94.9082 180.203 94.9722 180.108 95.015C180.013 95.0578 179.909 95.0784 179.805 95.075C179.693 95.0816 179.58 95.065 179.475 95.0261C179.369 94.9871 179.273 94.9268 179.192 94.8489C179.11 94.7709 179.046 94.677 179.003 94.5731C178.96 94.4692 178.939 94.3575 178.941 94.245L178.852 93.203H179.387L179.469 94.17C179.462 94.2273 179.468 94.2853 179.486 94.3402C179.504 94.395 179.533 94.4453 179.573 94.4877C179.612 94.53 179.66 94.5634 179.713 94.5856C179.766 94.6077 179.823 94.6181 179.881 94.616C180.114 94.616 180.292 94.451 180.265 94.116L180.183 93.204L180.704 93.202Z" fill="white"/>
<path d="M183.092 94.272H181.72C181.758 94.3881 181.835 94.4879 181.937 94.5551C182.039 94.6222 182.161 94.6529 182.283 94.642C182.366 94.6471 182.449 94.6338 182.526 94.603C182.603 94.5722 182.672 94.5247 182.729 94.464L183.045 94.78C182.952 94.8825 182.837 94.9624 182.709 95.0135C182.58 95.0646 182.442 95.0857 182.304 95.075C182.028 95.0943 181.756 95.0057 181.545 94.8278C181.334 94.6499 181.2 94.3967 181.172 94.122C181.157 93.998 181.169 93.8722 181.208 93.7535C181.247 93.6349 181.312 93.5264 181.398 93.4359C181.484 93.3454 181.589 93.2751 181.706 93.2302C181.822 93.1852 181.947 93.1667 182.072 93.176C182.357 93.1833 182.627 93.3032 182.824 93.5093C183.02 93.7155 183.127 93.9912 183.121 94.276L183.092 94.272ZM181.658 93.963H182.57C182.545 93.853 182.483 93.7549 182.394 93.685C182.306 93.6152 182.196 93.5777 182.083 93.579C182.029 93.5756 181.975 93.5831 181.924 93.6011C181.873 93.6192 181.827 93.6473 181.787 93.6838C181.747 93.7203 181.715 93.7645 181.693 93.8137C181.671 93.8629 181.659 93.916 181.658 93.97V93.963Z" fill="white"/>
<path d="M128.046 73.283C127.991 72.683 128.512 72.254 129.26 72.254C129.632 72.2386 129.997 72.3635 130.282 72.604L129.946 72.878C129.774 72.7256 129.552 72.6426 129.322 72.645C128.876 72.645 128.574 72.906 128.636 73.283C128.665 73.4748 128.766 73.6481 128.92 73.7669C129.073 73.8857 129.266 73.9409 129.459 73.921C129.568 73.9255 129.677 73.9071 129.779 73.867C129.88 73.8269 129.972 73.7659 130.049 73.688L130.426 73.962C130.241 74.1192 130.02 74.2281 129.782 74.2788C129.544 74.3294 129.298 74.3204 129.065 74.2524C128.832 74.1844 128.619 74.0596 128.446 73.8892C128.273 73.7188 128.145 73.5081 128.073 73.276L128.046 73.283Z" fill="#407BFF"/>
<path d="M130.495 73.517C130.454 73.057 130.852 72.728 131.441 72.728C131.687 72.6993 131.935 72.7647 132.134 72.911C132.334 73.0574 132.471 73.2738 132.518 73.517C132.559 73.977 132.161 74.306 131.578 74.306C131.331 74.3363 131.082 74.2717 130.881 74.1252C130.68 73.9787 130.542 73.7613 130.495 73.517ZM131.977 73.517C131.965 73.3937 131.905 73.2802 131.81 73.2007C131.715 73.1213 131.592 73.0822 131.469 73.092C131.202 73.092 131.009 73.25 131.037 73.517C131.049 73.6402 131.109 73.7538 131.204 73.8332C131.299 73.9127 131.422 73.9518 131.545 73.942C131.603 73.9497 131.662 73.9441 131.717 73.9255C131.773 73.907 131.823 73.8761 131.865 73.8351C131.907 73.7941 131.938 73.7441 131.958 73.689C131.977 73.6339 131.984 73.575 131.977 73.517Z" fill="#407BFF"/>
<path d="M134.754 73.393L134.829 74.264H134.294L134.225 73.464C134.225 73.413 134.215 73.3625 134.194 73.3158C134.174 73.2692 134.144 73.2273 134.106 73.193C134.068 73.1587 134.024 73.1327 133.975 73.1166C133.927 73.1006 133.876 73.0949 133.825 73.1C133.564 73.1 133.393 73.23 133.413 73.512L133.482 74.267H132.947L132.81 72.737H133.325V72.915C133.492 72.773 133.707 72.7013 133.925 72.715C134.025 72.7016 134.127 72.7088 134.224 72.7362C134.321 72.7635 134.412 72.8104 134.49 72.874C134.568 72.9376 134.633 73.0165 134.68 73.1059C134.726 73.1953 134.754 73.2934 134.762 73.394L134.754 73.393Z" fill="#407BFF"/>
<path d="M136.496 74.209C136.365 74.2782 136.219 74.3126 136.071 74.309C135.632 74.309 135.385 74.124 135.33 73.76L135.275 73.129H134.994L134.96 72.786H135.248L135.214 72.416H135.749L135.783 72.786H136.243V73.129H135.783L135.838 73.753C135.84 73.7826 135.849 73.8115 135.862 73.8378C135.876 73.8641 135.895 73.8874 135.918 73.9061C135.942 73.9248 135.968 73.9386 135.997 73.9467C136.026 73.9547 136.055 73.9569 136.085 73.953C136.16 73.9546 136.233 73.9356 136.298 73.898L136.496 74.209Z" fill="#407BFF"/>
<path d="M138.358 73.393L138.433 74.264H137.933V74.079C137.866 74.1573 137.781 74.2179 137.686 74.2551C137.59 74.2923 137.486 74.3049 137.384 74.292C136.952 74.292 136.698 74.092 136.657 73.826C136.616 73.56 136.842 73.367 137.405 73.367H137.837C137.837 73.182 137.672 73.067 137.384 73.067C137.2 73.0626 137.019 73.1127 136.863 73.211L136.644 72.902C136.883 72.7711 137.153 72.7072 137.426 72.717C137.979 72.704 138.301 72.94 138.358 73.393ZM137.858 73.784V73.626H137.488C137.241 73.626 137.166 73.702 137.179 73.804C137.192 73.906 137.302 73.989 137.495 73.989C137.568 73.9963 137.641 73.9819 137.706 73.9478C137.77 73.9136 137.823 73.8612 137.858 73.797V73.784Z" fill="#407BFF"/>
<path d="M138.74 73.516C138.699 73.056 139.097 72.727 139.7 72.727C139.864 72.7131 140.03 72.7418 140.18 72.8103C140.33 72.8788 140.46 72.9847 140.557 73.118L140.157 73.303C140.107 73.2362 140.041 73.1821 139.966 73.1451C139.891 73.1081 139.809 73.0892 139.725 73.09C139.451 73.09 139.252 73.248 139.279 73.515C139.293 73.6399 139.355 73.7545 139.453 73.8339C139.55 73.9134 139.675 73.9515 139.8 73.94C139.879 73.9448 139.957 73.9274 140.026 73.8897C140.095 73.852 140.152 73.7956 140.191 73.727L140.623 73.912C140.543 74.0463 140.426 74.1547 140.286 74.2241C140.146 74.2934 139.989 74.3208 139.834 74.303C139.233 74.305 138.774 73.976 138.74 73.516Z" fill="#407BFF"/>
<path d="M142.183 74.209C142.049 74.2774 141.901 74.3117 141.751 74.309C141.319 74.309 141.065 74.124 141.017 73.76L140.962 73.129H140.674V72.786H140.955L140.921 72.416H141.463V72.786H141.922L141.956 73.129H141.496L141.551 73.753C141.551 73.883 141.651 73.953 141.798 73.953C141.873 73.9536 141.946 73.9346 142.011 73.898L142.183 74.209Z" fill="#407BFF"/>
<path d="M145.524 72.289L145.702 74.278H145.242L143.942 73.071L144.042 74.278H143.493L143.321 72.289H143.787L145.087 73.496L144.977 72.289H145.524Z" fill="#407BFF"/>
<path d="M147.959 72.748L148.089 74.278H147.581V74.1C147.43 74.239 147.23 74.313 147.025 74.306C146.924 74.3204 146.82 74.3138 146.721 74.2865C146.623 74.2593 146.53 74.2121 146.451 74.1478C146.371 74.0834 146.305 74.0034 146.257 73.9126C146.21 73.8218 146.181 73.7222 146.174 73.62L146.099 72.756H146.634L146.703 73.556C146.702 73.6075 146.711 73.6587 146.732 73.7062C146.752 73.7537 146.782 73.7964 146.819 73.8314C146.857 73.8664 146.902 73.8929 146.951 73.9092C147 73.9255 147.052 73.9313 147.103 73.926C147.158 73.9334 147.214 73.9277 147.266 73.9094C147.318 73.891 147.365 73.8605 147.404 73.8204C147.442 73.7803 147.47 73.7317 147.486 73.6786C147.501 73.6255 147.504 73.5694 147.494 73.515L147.432 72.754L147.959 72.748Z" fill="#407BFF"/>
<path d="M151.628 73.393L151.703 74.264H151.168L151.099 73.464C151.101 73.4139 151.093 73.3638 151.074 73.3173C151.055 73.2708 151.027 73.2288 150.99 73.1943C150.954 73.1598 150.91 73.1335 150.863 73.1172C150.815 73.1009 150.765 73.0951 150.715 73.1C150.662 73.0919 150.608 73.0969 150.557 73.1147C150.506 73.1324 150.46 73.1623 150.424 73.2018C150.387 73.2413 150.361 73.2891 150.347 73.3411C150.334 73.3931 150.333 73.4476 150.345 73.5L150.414 74.268H149.879L149.804 73.468C149.807 73.4182 149.8 73.3683 149.782 73.3218C149.764 73.2752 149.736 73.2331 149.7 73.1985C149.664 73.1638 149.621 73.1374 149.574 73.1211C149.527 73.1048 149.477 73.0989 149.427 73.104C149.374 73.0959 149.32 73.1009 149.269 73.1187C149.218 73.1364 149.172 73.1664 149.136 73.2058C149.099 73.2453 149.073 73.2931 149.059 73.3451C149.046 73.3971 149.045 73.4516 149.057 73.504L149.119 74.272H148.591L148.461 72.742H148.969V72.92C149.045 72.8504 149.133 72.7969 149.23 72.7625C149.327 72.7281 149.43 72.7137 149.532 72.72C149.648 72.7141 149.763 72.7331 149.871 72.7757C149.979 72.8183 150.076 72.8836 150.156 72.967C150.24 72.8827 150.341 72.8171 150.452 72.7745C150.563 72.7319 150.682 72.7133 150.801 72.72C150.901 72.7055 151.003 72.712 151.1 72.739C151.197 72.766 151.287 72.8129 151.366 72.8768C151.444 72.9407 151.507 73.0201 151.553 73.11C151.599 73.1999 151.625 73.2983 151.631 73.399L151.628 73.393Z" fill="#407BFF"/>
<path d="M154.122 73.516C154.17 73.996 153.793 74.305 153.271 74.305C153.06 74.3009 152.858 74.2206 152.702 74.079V74.251H152.194L152.009 72.145H152.544L152.606 72.886C152.756 72.7562 152.95 72.6898 153.148 72.701C153.384 72.6836 153.618 72.7589 153.8 72.9111C153.982 73.0632 154.097 73.2802 154.122 73.516ZM153.58 73.516C153.568 73.3927 153.508 73.2792 153.413 73.1997C153.318 73.1203 153.195 73.0812 153.072 73.091C153.014 73.0833 152.955 73.0889 152.9 73.1075C152.844 73.126 152.794 73.1569 152.752 73.1979C152.711 73.2389 152.679 73.2889 152.659 73.344C152.64 73.3991 152.633 73.4579 152.64 73.516C152.654 73.6385 152.714 73.751 152.809 73.8301C152.904 73.9093 153.025 73.949 153.148 73.941C153.206 73.9487 153.265 73.9431 153.32 73.9245C153.376 73.906 153.426 73.8751 153.468 73.8341C153.51 73.7931 153.541 73.7431 153.561 73.688C153.58 73.6329 153.587 73.574 153.58 73.516Z" fill="#407BFF"/>
<path d="M156.292 73.64H154.92C154.968 73.7435 155.048 73.8291 155.148 73.8846C155.248 73.9401 155.363 73.9626 155.476 73.949C155.641 73.9599 155.804 73.9057 155.929 73.798L156.238 74.059C156.034 74.2362 155.767 74.325 155.497 74.306C154.859 74.306 154.413 73.97 154.372 73.517C154.331 73.064 154.729 72.728 155.291 72.728C155.533 72.7025 155.775 72.7715 155.967 72.9207C156.159 73.0698 156.285 73.2875 156.32 73.528L156.292 73.64ZM154.865 73.379H155.777C155.743 73.2797 155.676 73.1947 155.588 73.1375C155.5 73.0803 155.395 73.054 155.29 73.063C155.24 73.0563 155.19 73.0595 155.142 73.0724C155.093 73.0854 155.048 73.1078 155.009 73.1384C154.969 73.1691 154.936 73.2072 154.911 73.2508C154.887 73.2943 154.871 73.3423 154.865 73.392V73.379Z" fill="#407BFF"/>
<path d="M157.731 72.711L157.765 73.123H157.642C157.347 73.123 157.162 73.253 157.189 73.548L157.251 74.234H156.716L156.586 72.704H157.094V72.91C157.177 72.8298 157.278 72.77 157.389 72.7355C157.5 72.701 157.617 72.6926 157.731 72.711Z" fill="#407BFF"/>
<path d="M57.4029 56.786L57.5609 56.443C57.8094 56.5775 58.0874 56.6483 58.3699 56.649C58.6989 56.649 58.8229 56.56 58.8159 56.436C58.7819 56.066 57.4099 56.319 57.3409 55.579C57.3409 55.243 57.6149 54.962 58.3009 54.962C58.5934 54.9556 58.8837 55.014 59.1509 55.133L59.0069 55.483C58.7913 55.3855 58.5576 55.334 58.3209 55.332C57.9919 55.332 57.8749 55.432 57.8889 55.558C57.8889 55.922 59.2949 55.668 59.3569 56.402C59.3569 56.738 59.0759 57.019 58.3899 57.019C58.0467 57.0249 57.7074 56.9448 57.4029 56.786Z" fill="#407BFF"/>
<path d="M60.943 56.931C60.8134 57.0031 60.6662 57.0377 60.5181 57.031C60.0791 57.031 59.832 56.846 59.777 56.482L59.722 55.858H59.42V55.515H59.708L59.674 55.138H60.209L60.243 55.515H60.703V55.858H60.243L60.298 56.475C60.2996 56.5052 60.3073 56.5347 60.3208 56.5617C60.3343 56.5887 60.3533 56.6127 60.3765 56.632C60.3997 56.6514 60.4266 56.6657 60.4556 56.6741C60.4846 56.6826 60.5151 56.6849 60.545 56.681C60.6198 56.6827 60.6935 56.6636 60.758 56.626L60.943 56.931Z" fill="#407BFF"/>
<path d="M62.808 56.119L62.883 56.99H62.383V56.798C62.301 56.942 62.115 57.011 61.841 57.011C61.409 57.011 61.155 56.811 61.114 56.551C61.073 56.291 61.299 56.091 61.862 56.091H62.287C62.287 55.899 62.122 55.791 61.834 55.791C61.6522 55.7875 61.4735 55.8376 61.32 55.935L61.1 55.619C61.3379 55.4912 61.605 55.4274 61.875 55.434C62.424 55.429 62.767 55.648 62.808 56.119ZM62.308 56.51V56.352H61.938C61.691 56.352 61.616 56.428 61.622 56.53C61.628 56.632 61.752 56.715 61.944 56.715C62.0184 56.7199 62.0926 56.7027 62.1572 56.6655C62.2218 56.6283 62.2739 56.5728 62.307 56.506L62.308 56.51Z" fill="#407BFF"/>
<path d="M64.55 56.931C64.4204 57.0031 64.2732 57.0377 64.125 57.031C63.686 57.031 63.439 56.846 63.384 56.482L63.329 55.858H63.041V55.515H63.329V55.138H63.864L63.898 55.515H64.358V55.858H63.898L63.953 56.475C63.9546 56.5052 63.9623 56.5347 63.9758 56.5617C63.9893 56.5887 64.0083 56.6127 64.0315 56.632C64.0547 56.6514 64.0816 56.6657 64.1106 56.6741C64.1396 56.6826 64.1701 56.6849 64.2 56.681C64.2748 56.6829 64.3485 56.6639 64.413 56.626L64.55 56.931Z" fill="#407BFF"/>
<path d="M66.5429 56.348H65.1709C65.2201 56.4508 65.3 56.5358 65.3996 56.5912C65.4993 56.6466 65.6137 56.6695 65.7269 56.657C65.8888 56.6608 66.0467 56.6073 66.1729 56.506L66.4819 56.76C66.3817 56.8494 66.2643 56.9174 66.1369 56.9599C66.0095 57.0024 65.8748 57.0184 65.7409 57.007C65.1029 57.007 64.6569 56.678 64.6159 56.218C64.5749 55.758 64.9729 55.429 65.5349 55.429C65.7766 55.4034 66.0188 55.4725 66.2106 55.6217C66.4025 55.7708 66.5291 55.9885 66.5639 56.229C66.5602 56.2691 66.5532 56.3089 66.5429 56.348ZM65.1159 56.087H66.0279C65.9948 55.9878 65.9297 55.9024 65.8429 55.8441C65.756 55.7859 65.6523 55.758 65.5479 55.765C65.3009 55.765 65.1359 55.889 65.1159 56.087Z" fill="#407BFF"/>
<path d="M124.04 25.749H124.582L124.753 27.704H125.953L125.987 28.157H124.23L124.04 25.749Z" fill="#407BFF"/>
<path d="M127.848 27.1L127.937 28.156H127.437V27.923C127.382 28.0152 127.302 28.0891 127.205 28.1356C127.109 28.182 127.001 28.1989 126.895 28.184C126.725 28.1987 126.555 28.1492 126.419 28.0452C126.283 27.9412 126.191 27.7903 126.161 27.622C126.161 27.3 126.339 27.073 126.902 27.073H127.327C127.327 26.84 127.162 26.71 126.874 26.71C126.686 26.7046 126.501 26.7651 126.353 26.881L126.127 26.504C126.359 26.3513 126.631 26.2725 126.909 26.278C127.026 26.2646 127.144 26.2758 127.257 26.3108C127.369 26.3459 127.473 26.404 127.561 26.4815C127.65 26.559 127.721 26.6541 127.77 26.7608C127.82 26.8675 127.847 26.9834 127.849 27.101L127.848 27.1ZM127.354 27.573V27.381H126.991C126.737 27.381 126.669 27.481 126.675 27.601C126.681 27.721 126.812 27.82 126.997 27.82C127.07 27.8169 127.141 27.7917 127.2 27.7476C127.259 27.7035 127.303 27.6426 127.326 27.573H127.354Z" fill="#407BFF"/>
<path d="M128.225 27.985L128.369 27.601C128.579 27.7179 128.815 27.7792 129.055 27.779C129.302 27.779 129.391 27.71 129.384 27.608C129.384 27.308 128.266 27.608 128.204 26.881C128.17 26.531 128.465 26.281 129.004 26.281C129.254 26.278 129.501 26.3345 129.724 26.446L129.58 26.83C129.414 26.7398 129.227 26.6927 129.038 26.693C128.798 26.693 128.702 26.768 128.709 26.865C128.709 27.18 129.827 26.865 129.889 27.599C129.889 27.942 129.621 28.189 129.066 28.189C128.773 28.1928 128.484 28.1226 128.225 27.985Z" fill="#407BFF"/>
<path d="M131.442 28.067C131.313 28.1472 131.162 28.1879 131.01 28.184C130.915 28.1926 130.819 28.1813 130.728 28.1507C130.638 28.1201 130.555 28.0709 130.484 28.0064C130.414 27.9418 130.358 27.8632 130.32 27.7756C130.281 27.6881 130.262 27.5935 130.262 27.498L130.2 26.744H129.912L129.878 26.326H130.158L130.124 25.88H130.659L130.7 26.326H131.158L131.192 26.744H130.758L130.82 27.492C130.819 27.5253 130.825 27.5584 130.837 27.5893C130.85 27.6202 130.869 27.6482 130.893 27.6714C130.917 27.6947 130.945 27.7127 130.976 27.7243C131.007 27.7359 131.041 27.7409 131.074 27.739C131.151 27.7394 131.225 27.7152 131.287 27.67L131.442 28.067Z" fill="#407BFF"/>
<path d="M134.734 25.749L134.947 28.157H134.487L133.163 26.696L133.293 28.157H132.742L132.536 25.749H132.996L134.315 27.209L134.185 25.748L134.734 25.749Z" fill="#407BFF"/>
<path d="M137.018 27.1L137.107 28.156H136.607V27.923C136.553 28.0152 136.472 28.0891 136.376 28.1356C136.279 28.182 136.171 28.1989 136.065 28.184C135.895 28.1987 135.725 28.1492 135.589 28.0452C135.453 27.9412 135.361 27.7903 135.331 27.622C135.331 27.3 135.509 27.073 136.072 27.073H136.497C136.497 26.84 136.332 26.71 136.044 26.71C135.856 26.7046 135.671 26.7651 135.523 26.881L135.297 26.504C135.529 26.3513 135.801 26.2725 136.079 26.278C136.196 26.2646 136.314 26.2758 136.427 26.3108C136.539 26.3459 136.643 26.404 136.731 26.4815C136.82 26.559 136.891 26.6541 136.941 26.7608C136.99 26.8675 137.017 26.9834 137.019 27.101L137.018 27.1ZM136.524 27.573V27.381H136.161C135.907 27.381 135.838 27.481 135.845 27.601C135.852 27.721 135.982 27.82 136.167 27.82C136.246 27.8223 136.323 27.7992 136.387 27.7539C136.452 27.7087 136.5 27.6438 136.524 27.569V27.573Z" fill="#407BFF"/>
<path d="M140.619 27.1L140.708 28.156H140.173L140.091 27.182C140.091 26.882 139.919 26.743 139.7 26.743C139.481 26.743 139.309 26.901 139.336 27.23L139.418 28.156H138.887L138.798 27.182C138.798 26.882 138.633 26.743 138.414 26.743C138.195 26.743 138.023 26.901 138.051 27.23L138.133 28.156H137.619L137.461 26.311H137.969V26.517C138.038 26.4361 138.124 26.3724 138.222 26.3307C138.32 26.2891 138.426 26.2707 138.532 26.277C138.608 26.3716 138.705 26.4479 138.815 26.5003C138.925 26.5527 139.045 26.5799 139.166 26.5799C139.288 26.5799 139.408 26.5527 139.518 26.5003C139.628 26.4479 139.724 26.3716 139.801 26.277C139.91 26.2738 140.018 26.2929 140.12 26.3331C140.221 26.3734 140.313 26.4339 140.39 26.5109C140.467 26.588 140.528 26.68 140.568 26.7813C140.608 26.8826 140.627 26.991 140.624 27.1H140.619Z" fill="#407BFF"/>
<path d="M142.938 27.382H141.563C141.6 27.4988 141.676 27.5994 141.779 27.6667C141.881 27.7341 142.004 27.7642 142.126 27.752C142.209 27.7571 142.292 27.7438 142.369 27.713C142.446 27.6822 142.515 27.6348 142.572 27.574L142.881 27.883C142.791 27.9879 142.678 28.07 142.55 28.1222C142.423 28.1743 142.284 28.1952 142.147 28.183C141.871 28.2022 141.598 28.1136 141.386 27.9359C141.174 27.7582 141.039 27.5052 141.009 27.23C140.995 27.1055 141.008 26.9794 141.048 26.8605C141.087 26.7417 141.153 26.633 141.239 26.5422C141.325 26.4513 141.43 26.3805 141.547 26.3346C141.664 26.2888 141.789 26.2691 141.914 26.277C142.056 26.2757 142.197 26.3038 142.328 26.3594C142.459 26.415 142.577 26.4969 142.675 26.6001C142.773 26.7033 142.848 26.8255 142.897 26.9592C142.945 27.0928 142.966 27.235 142.957 27.377L142.938 27.382ZM141.511 27.073H142.416C142.392 26.9624 142.33 26.8635 142.242 26.7934C142.153 26.7234 142.042 26.6864 141.929 26.689C141.876 26.6853 141.823 26.6925 141.773 26.71C141.723 26.7276 141.677 26.7552 141.637 26.7911C141.598 26.827 141.567 26.8706 141.545 26.919C141.523 26.9675 141.512 27.0199 141.511 27.073Z" fill="#407BFF"/>
<path d="M119.897 35.777H55.441L54.954 30.235H119.41L119.897 35.777Z" fill="white"/>
<path d="M122.408 64.482H57.952L57.465 58.94H121.928L122.408 64.482Z" fill="white"/>
<path d="M123.876 81.26H59.42L58.933 75.718H123.396L123.876 81.26Z" fill="white"/>
<path d="M125.22 96.584H60.764L60.277 91.042H124.733L125.22 96.584Z" fill="white"/>
<path d="M193.195 81.26H128.732L128.252 75.718H192.708L193.195 81.26Z" fill="white"/>
<path d="M190.415 49.468H56.635L56.155 43.926H189.924L190.415 49.468Z" fill="white"/>
<path d="M189.217 35.777H124.754L124.274 30.235H188.73L189.217 35.777Z" fill="white"/>
<path d="M143.425 80.677H138.452L138.052 76.102H143.018L143.425 80.677Z" fill="#E0E0E0"/>
<path d="M142.266 77.611L140.853 79.374L139.124 77.611H142.266Z" fill="#263238"/>
<path d="M131.674 78.489H131.074L131.122 79.072H130.685L130.63 78.489H130.068L130.034 78.071H130.624L130.576 77.488H131.015L131.07 78.071H131.67L131.674 78.489Z" fill="#263238"/>
<path d="M133.746 78.75C133.746 79.15 133.499 79.525 132.82 79.525C132.488 79.5278 132.163 79.4373 131.88 79.264L132.058 78.839C132.26 78.9781 132.499 79.0546 132.744 79.059C133.018 79.059 133.183 78.942 133.162 78.75C133.141 78.558 133.004 78.455 132.689 78.455H132.435V78.085L132.881 77.529H131.859L131.818 77.083H133.499V77.44L133.012 78.057C133.198 78.0628 133.375 78.1366 133.51 78.2643C133.646 78.3919 133.729 78.5647 133.746 78.75Z" fill="#263238"/>
<path d="M135.804 79.031L135.845 79.484H134.027L133.993 79.12L134.844 78.249C135.044 78.043 135.07 77.92 135.057 77.803C135.033 77.7138 134.979 77.6357 134.904 77.5819C134.829 77.5282 134.737 77.502 134.645 77.508C134.552 77.502 134.459 77.5211 134.376 77.5633C134.292 77.6055 134.222 77.6693 134.172 77.748L133.747 77.487C133.845 77.338 133.982 77.2181 134.142 77.1396C134.303 77.0612 134.481 77.0271 134.659 77.041C135.194 77.041 135.578 77.315 135.612 77.727C135.623 77.8716 135.598 78.0167 135.539 78.1494C135.48 78.2821 135.39 78.3984 135.276 78.488L134.768 79.009L135.804 79.031Z" fill="#263238"/>
<path d="M179.14 79.511H146.376L146.211 77.611H178.976L179.14 79.511Z" fill="#263238"/>
<path d="M93.7361 79.511H60.97L60.8051 77.611H93.565L93.7361 79.511Z" fill="#263238"/>
<path d="M74.496 62.658H59.501L59.33 60.765H74.324L74.496 62.658Z" fill="#263238"/>
<path d="M71.9789 33.952H56.9849L56.8199 32.059H71.8099L71.9789 33.952Z" fill="#263238"/>
<path d="M141.593 33.952H126.598L126.427 32.059H141.421L141.593 33.952Z" fill="#263238"/>
<path d="M176.36 47.65H58.185L58.02 45.75H176.191L176.36 47.65Z" fill="#263238"/>
<path d="M64.221 93.97L64.77 94.251L64.57 94.651L64.014 94.335L64.069 94.918H63.623L63.575 94.328L63.075 94.65L62.808 94.25L63.308 93.969L62.759 93.681L62.959 93.281L63.515 93.603L63.453 93.013H63.906L63.947 93.603L64.447 93.281L64.721 93.681L64.221 93.97Z" fill="#263238"/>
<path d="M67.692 93.97L68.241 94.251L68.041 94.651L67.485 94.335L67.54 94.918H67.094L67.046 94.328L66.546 94.65L66.279 94.25L66.779 93.969L66.23 93.681L66.422 93.281L66.984 93.603L66.922 93.013H67.375L67.416 93.603L67.916 93.281L68.19 93.681L67.692 93.97Z" fill="#263238"/>
<path d="M71.1349 93.97L71.684 94.251L71.478 94.651L70.922 94.335L70.9839 94.918H70.531L70.49 94.328L69.99 94.65L69.7229 94.25L70.2229 93.969L69.674 93.681L69.866 93.281L70.422 93.603L70.367 93.013H70.8199L70.8609 93.603L71.3609 93.281L71.628 93.681L71.1349 93.97Z" fill="#263238"/>
<path d="M74.5789 93.97L75.1279 94.251L74.922 94.651L74.366 94.335L74.4279 94.918H73.9749L73.9339 94.328L73.4339 94.65L73.166 94.25L73.666 93.969L73.1169 93.681L73.3089 93.281L73.8649 93.603L73.81 93.013H74.263L74.304 93.603L74.804 93.281L75.0719 93.681L74.5789 93.97Z" fill="#263238"/>
<path d="M78.0219 93.97L78.5709 94.251L78.3649 94.651L77.8089 94.335L77.8709 94.918H77.4179L77.3699 94.328L76.8699 94.65L76.6089 94.25L77.1089 93.969L76.5599 93.681L76.7519 93.281L77.3079 93.603L77.2529 93.013H77.7059L77.7469 93.603L78.2469 93.281L78.5139 93.681L78.0219 93.97Z" fill="#263238"/>
<path d="M81.465 93.97L82.007 94.251L81.807 94.651L81.251 94.335L81.313 94.918H80.86L80.812 94.328L80.312 94.65L80.051 94.25L80.545 93.969L79.996 93.681L80.196 93.281L80.752 93.603L80.697 93.013H81.15L81.191 93.603L81.691 93.281L81.959 93.681L81.465 93.97Z" fill="#263238"/>
<path d="M84.9019 93.97L85.4509 94.251L85.2509 94.651L84.6949 94.335L84.7569 94.918H84.3039L84.256 94.328L83.756 94.65L83.4949 94.25L83.9889 93.969L83.4399 93.681L83.6399 93.281L84.1959 93.603L84.1409 93.013H84.5939L84.6349 93.603L85.1349 93.281L85.4019 93.681L84.9019 93.97Z" fill="#263238"/>
<path opacity="0.1" d="M53.233 104.979H201.715L193.477 10.857H44.995L53.233 104.979Z" fill="white"/>
<path opacity="0.1" d="M77.034 3.827L106.042 112.299H96.281L67.603 3.827H77.034Z" fill="white"/>
<path opacity="0.1" d="M61.9791 3.827L90.9791 112.299H71.6291L42.951 3.827H61.9791Z" fill="white"/>
<path d="M61.6847 0.724746L57.46 0.766998L57.4687 1.64495L61.6935 1.6027L61.6847 0.724746Z" fill="#407BFF"/>
<path d="M77.6066 0.757244L65.343 0.859985L65.3504 1.73795L77.6139 1.63521L77.6066 0.757244Z" fill="#407BFF"/>
<path opacity="0.5" d="M208.834 60.086C208.897 60.6608 208.838 61.2425 208.659 61.7924C208.48 62.3424 208.186 62.8479 207.797 63.2755C207.407 63.7031 206.932 64.0429 206.401 64.2723C205.87 64.5017 205.296 64.6154 204.718 64.606C203.487 64.584 202.308 64.112 201.401 63.2792C200.495 62.4463 199.925 61.3103 199.8 60.086C199.743 59.5125 199.808 58.9336 199.989 58.3866C200.17 57.8396 200.464 57.3368 200.852 56.9107C201.24 56.4846 201.713 56.1447 202.241 55.9131C202.768 55.6814 203.339 55.5632 203.915 55.566C205.146 55.5879 206.326 56.0599 207.232 56.8927C208.138 57.7255 208.708 58.8615 208.834 60.086Z" fill="black"/>
<path opacity="0.5" d="M47.855 76.136C47.6178 76.1323 47.3902 76.0414 47.2156 75.8808C47.041 75.7202 46.9315 75.5011 46.908 75.265L43.908 40.914C43.8963 40.8028 43.9085 40.6903 43.9436 40.5842C43.9787 40.478 44.0359 40.3805 44.1116 40.2981C44.1872 40.2158 44.2795 40.1504 44.3824 40.1064C44.4852 40.0625 44.5962 40.0408 44.708 40.043C44.9452 40.0467 45.1727 40.1375 45.3474 40.2981C45.522 40.4587 45.6314 40.6779 45.655 40.914L48.655 75.265C48.6666 75.3762 48.6545 75.4886 48.6194 75.5948C48.5843 75.701 48.527 75.7985 48.4513 75.8809C48.3757 75.9632 48.2834 76.0286 48.1806 76.0726C48.0778 76.1165 47.9668 76.1382 47.855 76.136Z" fill="black"/>
<path d="M59.0081 231.156H44.7141L43.1291 228.156C39.2684 220.872 37.1882 212.776 37.0591 204.533V203.813H66.6771C66.6765 212.637 64.4425 221.317 60.1831 229.045L59.0081 231.156Z" fill="#407BFF"/>
<path opacity="0.7" d="M59.0081 231.156H44.7141L43.1291 228.156C39.2684 220.872 37.1882 212.776 37.0591 204.533V203.813H66.6771C66.6765 212.637 64.4425 221.317 60.1831 229.045L59.0081 231.156Z" fill="white"/>
<path d="M28.121 204.403C30.7492 206.191 33.8595 207.136 37.038 207.112C37.4165 207.131 37.7938 207.057 38.138 206.899C38.3177 206.802 38.4672 206.657 38.5701 206.481C38.6729 206.305 38.7251 206.103 38.721 205.899C38.6797 205.669 38.5881 205.452 38.453 205.262C38.3178 205.071 38.1423 204.914 37.939 204.799C35.9575 203.321 33.7747 202.133 31.457 201.273C30.3121 200.86 29.1382 200.532 27.945 200.292C26.9844 199.967 25.9944 199.736 24.989 199.603C24.808 201.695 26.715 203.465 28.121 204.403Z" fill="#407BFF"/>
<path d="M66.231 192.38C66.8642 191.546 67.6576 190.847 68.5646 190.324C69.4717 189.801 70.4741 189.464 71.513 189.334C71.6301 189.307 71.7533 189.327 71.856 189.389C71.913 189.456 71.9557 189.533 71.9817 189.617C72.0076 189.701 72.0163 189.789 72.007 189.876C72.055 192.557 71.2496 195.183 69.707 197.376C69.0801 198.352 68.1742 199.117 67.107 199.571C66.7234 199.719 66.3127 199.783 65.9022 199.76C65.4918 199.736 65.0911 199.625 64.727 199.434C64.007 199.023 64.137 198.434 64.213 197.616C64.3755 195.715 65.0754 193.899 66.231 192.38Z" fill="#407BFF"/>
<path opacity="0.2" d="M66.231 192.38C66.8642 191.546 67.6576 190.847 68.5646 190.324C69.4717 189.801 70.4741 189.464 71.513 189.334C71.6301 189.307 71.7533 189.327 71.856 189.389C71.913 189.456 71.9557 189.533 71.9817 189.617C72.0076 189.701 72.0163 189.789 72.007 189.876C72.055 192.557 71.2496 195.183 69.707 197.376C69.0801 198.352 68.1742 199.117 67.107 199.571C66.7234 199.719 66.3127 199.783 65.9022 199.76C65.4918 199.736 65.0911 199.625 64.727 199.434C64.007 199.023 64.137 198.434 64.213 197.616C64.3755 195.715 65.0754 193.899 66.231 192.38Z" fill="black"/>
<path d="M53.3011 193.608C54.4064 191.628 55.0093 189.407 55.0571 187.14C55.058 185.185 54.6846 183.248 53.9571 181.433C53.2948 179.827 52.5012 178.278 51.5841 176.803C51.3101 181.193 51.2271 185.61 51.3511 190.021C51.3299 190.947 51.4407 191.871 51.6801 192.765C51.9541 193.588 52.5171 194.226 53.0521 194.02L53.3011 193.608Z" fill="#407BFF"/>
<path d="M57.1351 180.191C55.1072 183.475 54.0018 187.245 53.9351 191.104C53.8381 192.544 53.9914 193.99 54.3881 195.377C54.8201 196.653 55.6711 197.627 56.5491 197.497C57.4271 197.367 58.1881 196.125 58.7101 194.849C59.5741 192.749 60.6241 189.749 60.1301 187.16C59.7199 184.626 58.6912 182.232 57.1351 180.191Z" fill="#407BFF"/>
<path opacity="0.1" d="M57.1351 180.191C55.1072 183.475 54.0018 187.245 53.9351 191.104C53.8381 192.544 53.9914 193.99 54.3881 195.377C54.8201 196.653 55.6711 197.627 56.5491 197.497C57.4271 197.367 58.1881 196.125 58.7101 194.849C59.5741 192.749 60.6241 189.749 60.1301 187.16C59.7199 184.626 58.6912 182.232 57.1351 180.191Z" fill="black"/>
<path d="M62.8081 195.618C63.5547 194.811 64.1236 193.856 64.478 192.815C64.8325 191.774 64.9647 190.67 64.8661 189.575C64.7089 187.355 64.2476 185.167 63.4951 183.072C61.9875 185.156 60.7819 187.442 59.9141 189.863C59.5406 190.798 59.3204 191.787 59.2621 192.792C59.2058 193.793 59.5403 194.777 60.1951 195.536C60.5022 195.876 60.9247 196.091 61.3807 196.138C61.8368 196.185 62.2941 196.061 62.6641 195.79L62.4101 195.941L62.8081 195.618Z" fill="#407BFF"/>
<g opacity="0.2">
<path opacity="0.2" d="M62.8081 195.618C63.5547 194.811 64.1236 193.856 64.478 192.815C64.8325 191.774 64.9647 190.67 64.8661 189.575C64.7089 187.355 64.2476 185.167 63.4951 183.072C61.9875 185.156 60.7819 187.442 59.9141 189.863C59.5406 190.798 59.3204 191.787 59.2621 192.792C59.2058 193.793 59.5403 194.777 60.1951 195.536C60.5022 195.876 60.9247 196.091 61.3807 196.138C61.8368 196.185 62.2941 196.061 62.6641 195.79L62.4101 195.941L62.8081 195.618Z" fill="black"/>
</g>
<path d="M66.279 186.831C66.796 189.583 66.8931 192.398 66.567 195.179C66.101 197.93 64.619 200.618 62.307 201.592C61.8454 201.841 61.3133 201.927 60.7967 201.837C60.28 201.746 59.8091 201.483 59.46 201.092C59.2576 200.76 59.1278 200.39 59.0794 200.004C59.031 199.619 59.0649 199.227 59.179 198.856C59.4051 198.125 59.738 197.432 60.167 196.798C62.012 193.798 65.86 186.509 66.251 186.832L66.279 186.831Z" fill="#407BFF"/>
<path d="M66.279 186.831C66.796 189.583 66.8931 192.398 66.567 195.179C66.101 197.93 64.619 200.618 62.307 201.592C61.8454 201.841 61.3133 201.927 60.7967 201.837C60.28 201.746 59.8091 201.483 59.46 201.092C59.2576 200.76 59.1278 200.39 59.0794 200.004C59.031 199.619 59.0649 199.227 59.179 198.856C59.4051 198.125 59.738 197.432 60.167 196.798C62.012 193.798 65.86 186.509 66.251 186.832L66.279 186.831Z" fill="#407BFF"/>
<g opacity="0.1">
<path opacity="0.1" d="M66.279 186.831C66.796 189.583 66.8931 192.398 66.567 195.179C66.101 197.93 64.619 200.618 62.307 201.592C61.8454 201.841 61.3133 201.927 60.7967 201.837C60.28 201.746 59.8091 201.483 59.46 201.092C59.2576 200.76 59.1278 200.39 59.0794 200.004C59.031 199.619 59.0649 199.227 59.179 198.856C59.4051 198.125 59.738 197.432 60.167 196.798C62.012 193.798 65.86 186.509 66.251 186.832L66.279 186.831Z" fill="black"/>
</g>
<path d="M59.145 190.57C60.0973 192.218 60.765 194.016 61.12 195.886C61.4813 197.784 61.2415 199.748 60.434 201.504C60.0689 202.319 59.4907 203.021 58.7604 203.535C58.03 204.049 57.1745 204.357 56.284 204.426C55.5985 204.405 54.9307 204.204 54.3478 203.843C53.7649 203.481 53.2876 202.973 52.964 202.368C52.175 200.996 52.751 199.727 53.355 198.376C54.694 195.316 56.957 192.895 59.145 190.57Z" fill="#407BFF"/>
<path d="M76.123 195.68C76.3398 196.091 76.4644 196.545 76.4881 197.009C76.5117 197.474 76.4339 197.938 76.26 198.369C75.9168 199.2 75.4062 199.952 74.76 200.578C72.8283 202.7 70.4259 204.34 67.7457 205.366C65.0654 206.392 62.182 206.775 59.327 206.484C59.0863 206.487 58.8486 206.431 58.6345 206.321C58.4205 206.211 58.2366 206.05 58.099 205.853C57.9964 205.589 57.9783 205.299 58.0471 205.024C58.1158 204.749 58.2681 204.502 58.483 204.317C58.9052 204.004 59.3974 203.798 59.917 203.717C62.8063 202.99 65.5395 201.745 67.983 200.04C70.491 198.314 73.454 197.12 76.123 195.68Z" fill="#407BFF"/>
<path opacity="0.1" d="M76.123 195.68C76.3398 196.091 76.4644 196.545 76.4881 197.009C76.5117 197.474 76.4339 197.938 76.26 198.369C75.9168 199.2 75.4062 199.952 74.76 200.578C72.8283 202.7 70.4259 204.34 67.7457 205.366C65.0654 206.392 62.182 206.775 59.327 206.484C59.0863 206.487 58.8486 206.431 58.6345 206.321C58.4205 206.211 58.2366 206.05 58.099 205.853C57.9964 205.589 57.9783 205.299 58.0471 205.024C58.1158 204.749 58.2681 204.502 58.483 204.317C58.9052 204.004 59.3974 203.798 59.917 203.717C62.8063 202.99 65.5395 201.745 67.983 200.04C70.491 198.314 73.454 197.12 76.123 195.68Z" fill="black"/>
<path d="M66.2791 195.674C66.6911 195.063 67.2121 194.357 67.8911 194.432C68.4121 194.494 68.7961 195.022 69.0161 195.571C69.9011 197.78 68.8441 200.496 67.1571 201.991C65.4147 203.32 63.3767 204.207 61.2171 204.577L59.0631 205.119C58.2121 205.338 56.4981 205.05 57.2631 203.699C57.7771 202.794 59.4851 202.279 60.2741 201.744C62.6464 200.124 64.6851 198.064 66.2791 195.674Z" fill="#407BFF"/>
<path d="M75.141 204.405C72.5132 206.194 69.4026 207.139 66.224 207.114C65.8454 207.134 65.4676 207.061 65.124 206.901C64.9422 206.806 64.7906 206.662 64.6863 206.485C64.582 206.308 64.5293 206.106 64.534 205.901C64.5767 205.672 64.6688 205.455 64.8038 205.265C64.9389 205.075 65.1136 204.917 65.316 204.801C67.2991 203.321 69.4844 202.134 71.805 201.275C72.9552 200.848 74.1358 200.509 75.337 200.26C76.2977 199.936 77.2877 199.706 78.293 199.574C78.454 201.695 76.568 203.465 75.141 204.405Z" fill="#407BFF"/>
<path d="M66.4781 212.697C69.1772 212.412 71.7312 211.334 73.8171 209.597C74.2291 209.268 74.6811 208.746 74.5031 208.225C74.4211 208.059 74.3015 207.914 74.1538 207.802C74.006 207.69 73.8343 207.614 73.6521 207.58C71.2225 206.595 68.6324 206.065 66.0111 206.016C64.7661 206.065 63.5458 206.378 62.4311 206.935C61.5531 207.381 59.7311 208.471 59.4821 209.679C59.2331 210.887 61.4921 211.792 62.3291 212.121C63.6528 212.616 65.0695 212.813 66.4781 212.697Z" fill="#407BFF"/>
<path opacity="0.1" d="M66.4781 212.697C69.1772 212.412 71.7312 211.334 73.8171 209.597C74.2291 209.268 74.6811 208.746 74.5031 208.225C74.4211 208.059 74.3015 207.914 74.1538 207.802C74.006 207.69 73.8343 207.614 73.6521 207.58C71.2225 206.595 68.6324 206.065 66.0111 206.016C64.7661 206.065 63.5458 206.378 62.4311 206.935C61.5531 207.381 59.7311 208.471 59.4821 209.679C59.2331 210.887 61.4921 211.792 62.3291 212.121C63.6528 212.616 65.0695 212.813 66.4781 212.697Z" fill="black"/>
<path d="M56.0661 206.167C58.6295 205.596 61.2714 205.463 63.8791 205.776C64.5381 205.814 65.1802 205.999 65.7581 206.318C66.0619 206.5 66.3172 206.753 66.5022 207.055C66.6873 207.357 66.7967 207.7 66.8211 208.053C66.8162 208.413 66.726 208.767 66.5579 209.085C66.3898 209.404 66.1486 209.678 65.8541 209.885C65.2913 210.231 64.6673 210.466 64.0161 210.578C62.1733 211.192 60.2248 211.426 58.2891 211.264C57.5145 211.186 56.7637 210.952 56.0813 210.577C55.3989 210.203 54.7989 209.694 54.3171 209.083C53.1311 207.436 54.6881 206.462 56.0661 206.167Z" fill="#407BFF"/>
<path opacity="0.1" d="M56.0661 206.167C58.6295 205.596 61.2714 205.463 63.8791 205.776C64.5381 205.814 65.1802 205.999 65.7581 206.318C66.0619 206.5 66.3172 206.753 66.5022 207.055C66.6873 207.357 66.7967 207.7 66.8211 208.053C66.8162 208.413 66.726 208.767 66.5579 209.085C66.3898 209.404 66.1486 209.678 65.8541 209.885C65.2913 210.231 64.6673 210.466 64.0161 210.578C62.1733 211.192 60.2248 211.426 58.2891 211.264C57.5145 211.186 56.7637 210.952 56.0813 210.577C55.3989 210.203 54.7989 209.694 54.3171 209.083C53.1311 207.436 54.6881 206.462 56.0661 206.167Z" fill="white"/>
<path d="M48.2471 206.146C47.7148 205.787 47.2771 205.305 46.9711 204.74C46.814 204.442 46.7419 204.106 46.7625 203.77C46.7831 203.434 46.8958 203.11 47.0881 202.833C47.6881 202.147 50.9881 201.139 51.8211 200.947C52.5366 200.865 53.2594 201.019 53.8791 201.386C54.8351 201.843 55.7701 202.317 56.6841 202.806C57.1643 203.037 57.5971 203.356 57.9601 203.746C58.1499 203.96 58.2886 204.215 58.3658 204.49C58.4431 204.766 58.4568 205.055 58.4061 205.337C58.2776 205.693 58.0612 206.012 57.777 206.262C57.4927 206.513 57.1498 206.687 56.7801 206.77C55.0228 207.405 53.1607 207.701 51.2931 207.641C50.2508 207.2 49.2339 206.701 48.2471 206.146Z" fill="#407BFF"/>
<g opacity="0.1">
<path opacity="0.1" d="M48.2471 206.146C47.7148 205.787 47.2771 205.305 46.9711 204.74C46.814 204.442 46.7419 204.106 46.7625 203.77C46.7831 203.434 46.8958 203.11 47.0881 202.833C47.6881 202.147 50.9881 201.139 51.8211 200.947C52.5366 200.865 53.2594 201.019 53.8791 201.386C54.8351 201.843 55.7701 202.317 56.6841 202.806C57.1643 203.037 57.5971 203.356 57.9601 203.746C58.1499 203.96 58.2886 204.215 58.3658 204.49C58.4431 204.766 58.4568 205.055 58.4061 205.337C58.2776 205.693 58.0612 206.012 57.777 206.262C57.4927 206.513 57.1498 206.687 56.7801 206.77C55.0228 207.405 53.1607 207.701 51.2931 207.641C50.2508 207.2 49.2339 206.701 48.2471 206.146Z" fill="black"/>
</g>
<path d="M54.9611 207.45C55.3898 207.569 55.7879 207.779 56.1286 208.066C56.4693 208.352 56.7446 208.708 56.936 209.11C57.1363 209.535 57.2067 210.01 57.1384 210.474C57.0701 210.939 56.8661 211.374 56.552 211.723C56.052 212.099 55.4427 212.301 54.817 212.299L52.5531 212.525C52.3199 212.578 52.0785 212.584 51.8429 212.543C51.6073 212.502 51.3823 212.414 51.1811 212.285C50.9488 212.01 50.7779 211.688 50.6798 211.341C50.5817 210.995 50.5586 210.631 50.6121 210.275C50.5787 209.58 50.6646 208.883 50.8661 208.217C50.9468 207.859 51.1596 207.544 51.4621 207.335C51.7645 207.127 52.1344 207.04 52.4981 207.092C53.3265 207.153 54.1495 207.273 54.9611 207.45Z" fill="#407BFF"/>
<path d="M37.0311 192.38C36.399 191.545 35.6058 190.845 34.6986 190.322C33.7914 189.799 32.7884 189.463 31.7491 189.334C31.632 189.307 31.5088 189.327 31.4061 189.389C31.2951 189.526 31.241 189.7 31.2551 189.876C31.2016 192.553 31.9962 195.178 33.5251 197.376C34.1394 198.36 35.0355 199.137 36.0971 199.605C36.4807 199.753 36.8914 199.817 37.3019 199.794C37.7123 199.77 38.113 199.659 38.4771 199.468C39.1631 199.056 39.0671 198.468 38.9911 197.65C38.8582 195.741 38.1777 193.912 37.0311 192.38Z" fill="#407BFF"/>
<path opacity="0.2" d="M37.0311 192.38C36.399 191.545 35.6058 190.845 34.6986 190.322C33.7914 189.799 32.7884 189.463 31.7491 189.334C31.632 189.307 31.5088 189.327 31.4061 189.389C31.2951 189.526 31.241 189.7 31.2551 189.876C31.2016 192.553 31.9962 195.178 33.5251 197.376C34.1394 198.36 35.0355 199.137 36.0971 199.605C36.4807 199.753 36.8914 199.817 37.3019 199.794C37.7123 199.77 38.113 199.659 38.4771 199.468C39.1631 199.056 39.0671 198.468 38.9911 197.65C38.8582 195.741 38.1777 193.912 37.0311 192.38Z" fill="black"/>
<path d="M49.9611 193.608C48.8558 191.628 48.2528 189.407 48.2051 187.14C48.2075 185.185 48.5807 183.249 49.3051 181.433C49.9727 179.83 50.7662 178.281 51.6781 176.803C51.9521 181.193 52.0351 185.61 51.9181 190.021C51.9335 190.947 51.8204 191.87 51.5821 192.765C51.3151 193.588 50.7451 194.226 50.2101 194.02L49.9611 193.608Z" fill="#407BFF"/>
<path d="M46.126 180.191C48.1569 183.474 49.2626 187.244 49.326 191.104C49.4259 192.544 49.2726 193.99 48.873 195.377C48.441 196.653 47.597 197.627 46.712 197.497C45.827 197.367 45.073 196.125 44.558 194.849C43.687 192.749 42.637 189.749 43.131 187.16C43.5413 184.626 44.57 182.232 46.126 180.191Z" fill="#407BFF"/>
<path opacity="0.1" d="M46.126 180.191C48.1569 183.474 49.2626 187.244 49.326 191.104C49.4259 192.544 49.2726 193.99 48.873 195.377C48.441 196.653 47.597 197.627 46.712 197.497C45.827 197.367 45.073 196.125 44.558 194.849C43.687 192.749 42.637 189.749 43.131 187.16C43.5413 184.626 44.57 182.232 46.126 180.191Z" fill="black"/>
<path d="M40.45 195.618C39.7048 194.81 39.1367 193.855 38.7823 192.814C38.4279 191.773 38.295 190.67 38.392 189.575C38.5496 187.356 39.0112 185.169 39.764 183.075C41.274 185.157 42.4798 187.444 43.345 189.866C43.7301 190.799 43.9618 191.788 44.031 192.795C44.0873 193.796 43.7528 194.78 43.098 195.539C42.7909 195.879 42.3684 196.094 41.9123 196.141C41.4562 196.188 40.999 196.064 40.629 195.793L40.89 195.944L40.45 195.618Z" fill="#407BFF"/>
<g opacity="0.2">
<path opacity="0.2" d="M40.45 195.618C39.7048 194.81 39.1367 193.855 38.7823 192.814C38.4279 191.773 38.295 190.67 38.392 189.575C38.5496 187.356 39.0112 185.169 39.764 183.075C41.274 185.157 42.4798 187.444 43.345 189.866C43.7301 190.799 43.9618 191.788 44.031 192.795C44.0873 193.796 43.7528 194.78 43.098 195.539C42.7909 195.879 42.3684 196.094 41.9123 196.141C41.4562 196.188 40.999 196.064 40.629 195.793L40.89 195.944L40.45 195.618Z" fill="black"/>
</g>
<path d="M36.977 186.831C36.4532 189.582 36.3561 192.398 36.689 195.179C37.162 197.93 38.63 200.618 40.942 201.592C41.4035 201.841 41.9357 201.928 42.4524 201.837C42.9691 201.746 43.44 201.484 43.789 201.092C43.9914 200.76 44.1212 200.39 44.1696 200.004C44.2181 199.619 44.1841 199.227 44.07 198.856C43.844 198.125 43.511 197.432 43.082 196.798C41.237 193.798 37.389 186.509 36.998 186.832L36.977 186.831Z" fill="#407BFF"/>
<path d="M36.977 186.831C36.4532 189.582 36.3561 192.398 36.689 195.179C37.162 197.93 38.63 200.618 40.942 201.592C41.4035 201.841 41.9357 201.928 42.4524 201.837C42.9691 201.746 43.44 201.484 43.789 201.092C43.9914 200.76 44.1212 200.39 44.1696 200.004C44.2181 199.619 44.1841 199.227 44.07 198.856C43.844 198.125 43.511 197.432 43.082 196.798C41.237 193.798 37.389 186.509 36.998 186.832L36.977 186.831Z" fill="#407BFF"/>
<g opacity="0.1">
<path opacity="0.1" d="M36.976 186.831C36.4522 189.582 36.3551 192.398 36.688 195.179C37.161 197.93 38.629 200.618 40.941 201.592C41.4025 201.841 41.9347 201.928 42.4514 201.837C42.9681 201.746 43.439 201.484 43.788 201.092C43.9905 200.76 44.1202 200.39 44.1686 200.004C44.2171 199.619 44.1831 199.227 44.069 198.856C43.843 198.125 43.51 197.432 43.081 196.798C41.236 193.798 37.388 186.509 36.997 186.832L36.976 186.831Z" fill="black"/>
</g>
<path d="M44.1231 190.57C43.1649 192.216 42.4968 194.014 42.1481 195.886C41.7834 197.784 42.0233 199.749 42.8341 201.504C43.2001 202.319 43.7785 203.02 44.5086 203.534C45.2388 204.048 46.0938 204.356 46.9841 204.426C47.6696 204.405 48.3374 204.204 48.9203 203.843C49.5032 203.481 49.9805 202.973 50.3041 202.368C51.0931 200.996 50.5171 199.727 49.9131 198.376C48.5681 195.316 46.3121 192.895 44.1231 190.57Z" fill="#407BFF"/>
<path d="M27.134 195.899C26.9214 196.302 26.7996 196.747 26.7771 197.202C26.7547 197.657 26.8321 198.111 27.004 198.533C27.3415 199.346 27.8398 200.083 28.469 200.699C30.365 202.775 32.7216 204.378 35.3494 205.379C37.9772 206.38 40.803 206.75 43.6 206.461C43.8352 206.464 44.0675 206.409 44.2767 206.302C44.4859 206.194 44.6656 206.037 44.8 205.844C44.9052 205.586 44.926 205.301 44.8596 205.03C44.7932 204.759 44.6428 204.515 44.43 204.335C44.0245 204.036 43.5546 203.836 43.058 203.752C40.2231 203.041 37.5409 201.821 35.142 200.152C32.5456 198.601 29.8729 197.182 27.134 195.899Z" fill="#407BFF"/>
<path opacity="0.1" d="M27.134 195.899C26.9214 196.302 26.7996 196.747 26.7771 197.202C26.7547 197.657 26.8321 198.111 27.004 198.533C27.3415 199.346 27.8398 200.083 28.469 200.699C30.365 202.775 32.7216 204.378 35.3494 205.379C37.9772 206.38 40.803 206.75 43.6 206.461C43.8352 206.464 44.0675 206.409 44.2767 206.302C44.4859 206.194 44.6656 206.037 44.8 205.844C44.9052 205.586 44.926 205.301 44.8596 205.03C44.7932 204.759 44.6428 204.515 44.43 204.335C44.0245 204.036 43.5546 203.836 43.058 203.752C40.2231 203.041 37.5409 201.821 35.142 200.152C32.5456 198.601 29.8729 197.182 27.134 195.899Z" fill="black"/>
<path d="M36.5241 195.488C36.1241 194.888 35.6051 194.188 34.9461 194.267C34.4321 194.322 34.0461 194.843 33.8351 195.378C33.4925 196.492 33.4828 197.681 33.807 198.8C34.1312 199.92 34.7753 200.92 35.6601 201.678C37.3641 202.998 39.3702 203.873 41.4971 204.223L43.6101 204.758C44.4471 204.971 46.1271 204.682 45.3801 203.386C44.8801 202.501 43.1991 202.014 42.4241 201.465C40.091 199.871 38.0877 197.842 36.5241 195.488Z" fill="#407BFF"/>
<path d="M36.785 212.697C34.0884 212.411 31.537 211.332 29.453 209.597C29.035 209.268 28.5821 208.746 28.7671 208.225C28.8499 208.059 28.9698 207.915 29.1173 207.803C29.2649 207.691 29.4362 207.615 29.618 207.58C32.0478 206.595 34.6378 206.065 37.259 206.016C38.5045 206.064 39.7252 206.378 40.84 206.935C41.718 207.381 43.5401 208.471 43.7961 209.679C44.052 210.887 41.7791 211.792 40.9431 212.121C39.6165 212.617 38.1966 212.814 36.785 212.697Z" fill="#407BFF"/>
<path opacity="0.1" d="M36.785 212.697C34.0884 212.411 31.537 211.332 29.453 209.597C29.035 209.268 28.5821 208.746 28.7671 208.225C28.8499 208.059 28.9698 207.915 29.1173 207.803C29.2649 207.691 29.4362 207.615 29.618 207.58C32.0478 206.595 34.6378 206.065 37.259 206.016C38.5045 206.064 39.7252 206.378 40.84 206.935C41.718 207.381 43.5401 208.471 43.7961 209.679C44.052 210.887 41.7791 211.792 40.9431 212.121C39.6165 212.617 38.1966 212.814 36.785 212.697Z" fill="black"/>
<path d="M47.197 206.167C44.6355 205.584 41.9936 205.441 39.384 205.742C38.7252 205.781 38.0833 205.966 37.505 206.284C37.2012 206.466 36.946 206.719 36.7609 207.021C36.5758 207.323 36.4664 207.666 36.442 208.019C36.4471 208.379 36.5374 208.732 36.7055 209.051C36.8735 209.369 37.1146 209.643 37.409 209.85C37.9678 210.215 38.5919 210.469 39.247 210.598C41.0899 211.212 43.0383 211.445 44.974 211.284C45.7491 211.204 46.5003 210.97 47.1835 210.596C47.8667 210.221 48.468 209.714 48.952 209.103C50.133 207.436 48.576 206.462 47.197 206.167Z" fill="#407BFF"/>
<path opacity="0.1" d="M47.197 206.167C44.6355 205.584 41.9936 205.441 39.384 205.742C38.7252 205.781 38.0833 205.966 37.505 206.284C37.2012 206.466 36.946 206.719 36.7609 207.021C36.5758 207.323 36.4664 207.666 36.442 208.019C36.4471 208.379 36.5374 208.732 36.7055 209.051C36.8735 209.369 37.1146 209.643 37.409 209.85C37.9678 210.215 38.5919 210.469 39.247 210.598C41.0899 211.212 43.0383 211.445 44.974 211.284C45.7491 211.204 46.5003 210.97 47.1835 210.596C47.8667 210.221 48.468 209.714 48.952 209.103C50.133 207.436 48.576 206.462 47.197 206.167Z" fill="white"/>
<path d="M55.023 206.147C55.5521 205.784 55.9891 205.303 56.299 204.741C56.4531 204.442 56.523 204.106 56.5013 203.77C56.4797 203.435 56.3672 203.111 56.176 202.834C55.576 202.148 52.276 201.14 51.443 200.948C50.7275 200.866 50.0049 201.02 49.385 201.387C48.438 201.826 47.499 202.299 46.58 202.807C46.0998 203.038 45.667 203.357 45.304 203.747C45.1156 203.962 44.9777 204.217 44.9005 204.492C44.8233 204.767 44.8088 205.056 44.858 205.338C44.9864 205.695 45.2027 206.013 45.4869 206.264C45.7712 206.514 46.1142 206.689 46.484 206.772C48.2414 207.407 50.1034 207.703 51.971 207.643C53.0181 207.207 54.0373 206.708 55.023 206.147Z" fill="#407BFF"/>
<g opacity="0.1">
<path opacity="0.1" d="M55.023 206.147C55.5521 205.784 55.9891 205.303 56.299 204.741C56.4531 204.442 56.523 204.106 56.5013 203.77C56.4797 203.435 56.3672 203.111 56.176 202.834C55.576 202.148 52.276 201.14 51.443 200.948C50.7275 200.866 50.0049 201.02 49.385 201.387C48.438 201.826 47.499 202.299 46.58 202.807C46.0998 203.038 45.667 203.357 45.304 203.747C45.1156 203.962 44.9777 204.217 44.9005 204.492C44.8233 204.767 44.8088 205.056 44.858 205.338C44.9864 205.695 45.2027 206.013 45.4869 206.264C45.7712 206.514 46.1142 206.689 46.484 206.772C48.2414 207.407 50.1034 207.703 51.971 207.643C53.0181 207.207 54.0373 206.708 55.023 206.147Z" fill="black"/>
</g>
<path d="M48.301 207.45C47.8732 207.57 47.4761 207.78 47.1364 208.066C46.7968 208.353 46.5225 208.709 46.332 209.11C46.1309 209.534 46.0593 210.009 46.1264 210.473C46.1935 210.938 46.3961 211.373 46.709 211.723C47.2117 212.099 47.8232 212.301 48.451 212.299L50.708 212.525C51.1791 212.63 51.6724 212.543 52.08 212.285C52.3099 212.008 52.4789 211.686 52.576 211.34C52.673 210.994 52.6958 210.631 52.643 210.275C52.6832 209.579 52.5972 208.882 52.389 208.217C52.3082 207.859 52.0954 207.544 51.793 207.335C51.4905 207.127 51.1207 207.04 50.757 207.092C49.931 207.154 49.1104 207.274 48.301 207.45Z" fill="#407BFF"/>
<path d="M52.026 191.276C51.9091 191.174 51.7772 191.091 51.635 191.029C51.678 191.021 51.7221 191.021 51.765 191.029C51.792 191.023 51.82 191.023 51.847 191.029C51.8764 191.04 51.9023 191.059 51.922 191.084C51.9457 191.107 51.9644 191.135 51.977 191.166C51.9974 191.189 52.0115 191.218 52.018 191.248C52.0226 191.257 52.0253 191.266 52.026 191.276Z" fill="#407BFF"/>
<path opacity="0.1" d="M52.0331 191.276C51.9161 191.174 51.7843 191.091 51.6421 191.029C51.685 191.021 51.7292 191.021 51.7721 191.029C51.7991 191.023 51.827 191.023 51.8541 191.029C51.8835 191.04 51.9093 191.059 51.9291 191.084C51.9528 191.107 51.9715 191.135 51.9841 191.166C52.0045 191.189 52.0186 191.218 52.0251 191.248C52.0257 191.258 52.0284 191.267 52.0331 191.276Z" fill="#407BFF"/>
<path d="M54.845 198.918C54.5926 199.673 54.1967 200.372 53.679 200.976C53.4399 201.267 53.1408 201.502 52.8021 201.667C52.4635 201.831 52.0934 201.921 51.717 201.929H51.539C51.1637 201.92 50.7948 201.831 50.4574 201.666C50.12 201.502 49.822 201.266 49.584 200.976C49.069 200.368 48.6713 199.671 48.411 198.918C47.9997 197.913 47.8351 196.824 47.931 195.742C48.1254 194.582 48.6824 193.514 49.522 192.69C49.728 192.69 50.393 191.922 50.599 191.764L50.654 191.723L50.723 191.668C50.86 191.551 51.052 191.387 51.237 191.243C51.3143 191.175 51.3996 191.118 51.491 191.071L51.56 191.037L51.635 191.003C51.7772 191.065 51.909 191.148 52.026 191.25C52.28 191.435 52.526 191.668 52.657 191.764C52.788 191.86 53.528 192.69 53.741 192.69C54.5823 193.511 55.1376 194.581 55.325 195.742C55.4276 196.824 55.2628 197.915 54.845 198.918Z" fill="#407BFF"/>
<path d="M51.6351 191.029L51.5601 191.063L51.4911 191.097C51.4091 191.145 51.3261 191.207 51.2371 191.269C51.2921 191.111 51.381 191.015 51.498 191.001C51.5451 191.001 51.5917 191.011 51.6351 191.029Z" fill="#407BFF"/>
<g opacity="0.2">
<path opacity="0.2" d="M54.845 198.918C54.5926 199.673 54.1966 200.372 53.679 200.976C53.4399 201.267 53.1408 201.503 52.8022 201.667C52.4636 201.832 52.0934 201.921 51.717 201.929H51.539C51.1637 201.92 50.7948 201.831 50.4574 201.666C50.12 201.502 49.822 201.266 49.584 200.976C49.069 200.369 48.6713 199.671 48.411 198.918C47.9997 197.913 47.8351 196.824 47.931 195.742C48.1253 194.582 48.6823 193.514 49.522 192.69C49.728 192.69 50.393 191.922 50.599 191.764C50.805 191.606 50.99 191.428 51.237 191.243C51.358 191.144 51.4927 191.063 51.637 191.003C51.7822 191.064 51.9171 191.148 52.037 191.25C52.291 191.435 52.537 191.668 52.668 191.765C52.799 191.862 53.539 192.691 53.752 192.691C54.5937 193.512 55.1494 194.582 55.337 195.743C55.4356 196.826 55.2667 197.916 54.845 198.918Z" fill="white"/>
<path opacity="0.2" d="M51.635 191.029C51.4908 191.089 51.356 191.17 51.235 191.269C51.29 191.111 51.379 191.015 51.496 191.001C51.5437 191.001 51.591 191.01 51.635 191.029Z" fill="white"/>
</g>
<path opacity="0.1" d="M52.0331 191.276C51.9132 191.174 51.7782 191.09 51.6331 191.029C51.676 191.021 51.7201 191.021 51.7631 191.029C51.8751 191.015 51.9711 191.112 52.0331 191.276Z" fill="white"/>
<path d="M181.925 129.42H200.719C201.33 129.42 201.604 128.926 201.33 128.32L196.604 117.709C196.456 117.401 196.23 117.138 195.948 116.945C195.667 116.752 195.339 116.636 194.999 116.609H176.218C175.607 116.609 175.333 117.103 175.601 117.709L180.32 128.32C180.467 128.628 180.693 128.892 180.975 129.086C181.257 129.279 181.584 129.394 181.925 129.42Z" fill="#407BFF"/>
<path opacity="0.2" d="M181.925 129.42H200.719C201.33 129.42 201.604 128.926 201.33 128.32L196.604 117.709C196.456 117.401 196.23 117.138 195.948 116.945C195.667 116.752 195.339 116.636 194.999 116.609H176.218C175.607 116.609 175.333 117.103 175.601 117.709L180.32 128.32C180.467 128.628 180.693 128.892 180.975 129.086C181.257 129.279 181.584 129.394 181.925 129.42Z" fill="black"/>
<path d="M175.409 116.607H176.218C175.608 116.607 175.333 117.101 175.601 117.707L180.32 128.318C180.467 128.626 180.693 128.89 180.975 129.084C181.257 129.277 181.584 129.392 181.925 129.418H181.109C180.769 129.391 180.443 129.276 180.162 129.082C179.881 128.889 179.656 128.626 179.509 128.318L174.792 117.707C174.517 117.094 174.799 116.607 175.409 116.607Z" fill="#407BFF"/>
<path opacity="0.4" d="M175.409 116.607H176.218C175.608 116.607 175.333 117.101 175.601 117.707L180.32 128.318C180.467 128.626 180.693 128.89 180.975 129.084C181.257 129.277 181.584 129.392 181.925 129.418H181.109C180.769 129.391 180.443 129.276 180.162 129.082C179.881 128.889 179.656 128.626 179.509 128.318L174.792 117.707C174.517 117.094 174.799 116.607 175.409 116.607Z" fill="black"/>
<path d="M182.275 128.199H199.293L194.67 117.821H177.652L182.275 128.199Z" fill="#263238"/>
<path opacity="0.8" d="M182.275 128.199H199.293L194.67 117.821H177.652L182.275 128.199Z" fill="white"/>
<path d="M174.551 217.026L173.399 222.452L167.507 221.677L168.364 215.655L174.551 217.026Z" fill="#FAB27B"/>
<path d="M164.51 221.676C163.86 221.685 163.229 221.453 162.74 221.024C162.685 220.925 162.662 220.811 162.674 220.697C162.687 220.584 162.734 220.478 162.809 220.393C162.931 220.232 163.11 220.125 163.309 220.093C164.365 219.915 166.403 221.355 166.492 221.417C166.517 221.435 166.536 221.461 166.546 221.491C166.556 221.52 166.556 221.552 166.547 221.582C166.538 221.611 166.521 221.636 166.498 221.656C166.475 221.675 166.447 221.688 166.417 221.692C165.782 221.741 165.144 221.736 164.51 221.676ZM163.68 220.376C163.587 220.359 163.492 220.359 163.399 220.376C163.337 220.379 163.277 220.397 163.223 220.428C163.169 220.459 163.124 220.502 163.09 220.554C162.96 220.726 162.99 220.815 163.028 220.87C163.275 221.302 164.828 221.46 165.998 221.433C165.299 220.939 164.512 220.582 163.68 220.38V220.376Z" fill="#407BFF"/>
<path d="M166.424 221.683C166.404 221.69 166.382 221.69 166.362 221.683C165.676 221.283 164.304 219.797 164.503 219.118C164.503 218.946 164.681 218.754 165.086 218.754C165.233 218.753 165.378 218.782 165.514 218.839C165.649 218.895 165.772 218.978 165.875 219.083C166.373 219.816 166.628 220.687 166.602 221.573C166.603 221.599 166.597 221.624 166.583 221.646C166.57 221.669 166.55 221.686 166.527 221.697C166.492 221.706 166.455 221.701 166.424 221.683ZM165.155 219.029H165.073C164.812 219.029 164.785 219.129 164.764 219.166C164.689 219.584 165.564 220.723 166.28 221.224C166.273 220.517 166.053 219.828 165.649 219.248C165.515 219.117 165.341 219.035 165.155 219.015V219.029Z" fill="#407BFF"/>
<path d="M167.109 220.867L173.858 221.553C173.98 221.566 174.095 221.619 174.183 221.705C174.272 221.791 174.329 221.904 174.345 222.026L175.031 227.637C175.047 227.755 175.04 227.876 175.009 227.992C174.979 228.107 174.926 228.216 174.853 228.311C174.78 228.406 174.689 228.486 174.586 228.545C174.482 228.605 174.368 228.644 174.249 228.659H174.057C171.629 228.378 169.475 228.035 166.45 227.74C162.869 227.39 163.741 227.905 159.529 227.555C156.991 227.342 156.785 224.414 157.903 224.379C162.876 224.242 163.528 222.808 165.603 221.238C166.044 220.937 166.579 220.806 167.109 220.867Z" fill="#263238"/>
<path opacity="0.2" d="M167.912 218.823L174.072 219.303L174.552 217.026L168.365 215.654L167.912 218.823Z" fill="black"/>
<path d="M172.906 172.118L167.089 214.851L176.129 215.564L186.651 173.195L172.906 172.118Z" fill="#263238"/>
<path opacity="0.3" d="M172.906 172.118L167.089 214.851L176.129 215.564L186.651 173.195L172.906 172.118Z" fill="black"/>
<path d="M176.96 214.933L166.067 214.076C165.806 214.48 165.675 214.954 165.691 215.434C165.707 215.915 165.869 216.379 166.156 216.765L176.671 217.712C176.671 217.712 177.714 217.108 176.96 214.933Z" fill="#407BFF"/>
<path d="M183.304 129.879L181.089 124.529C180.898 124.237 180.617 124.016 180.289 123.898L179.178 123.466C178.94 123.378 178.726 123.234 178.554 123.048L178.04 122.492C177.814 122.248 177.517 122.08 177.191 122.013C176.865 121.945 176.527 121.981 176.222 122.115L175.742 122.321C175.502 122.423 175.29 122.583 175.126 122.786C174.962 122.99 174.851 123.23 174.802 123.487C174.514 125.065 174.287 128.515 177.141 130.833L180.331 132.143L183.304 129.879Z" fill="#FAB27B"/>
<path d="M180.334 132.17L184.573 138.549L187.543 135.408L183.304 129.879L180.334 132.17Z" fill="#FAB27B"/>
<path d="M205.988 117.004C205.775 116.572 202.367 117.841 198.381 119.844C194.395 121.847 191.337 123.822 191.556 124.254C191.775 124.686 195.185 123.417 199.17 121.414C203.155 119.411 206.207 117.443 205.988 117.004Z" fill="#263238"/>
<path d="M200.898 118.664L201.975 118.191L202.661 119.563C202.339 119.755 201.975 119.947 201.639 120.146L200.898 118.664Z" fill="#407BFF"/>
<path opacity="0.5" d="M200.898 118.664L201.975 118.191L202.661 119.563C202.339 119.755 201.975 119.947 201.639 120.146L200.898 118.664Z" fill="white"/>
<path d="M204.767 116.874C204.959 115.969 201.337 117.56 201.159 117.674C200.981 117.788 200.734 117.4 200.987 117.274C201.24 117.148 205.587 115.065 205.199 116.931C205.147 117.197 204.712 117.149 204.767 116.874Z" fill="#407BFF"/>
<g opacity="0.2">
<path opacity="0.2" d="M204.766 116.874C204.958 115.969 201.336 117.56 201.158 117.674C200.98 117.788 200.733 117.4 200.986 117.274C201.239 117.148 205.586 115.065 205.198 116.931C205.146 117.197 204.711 117.149 204.766 116.874Z" fill="black"/>
</g>
<path d="M204.959 131.375L201.447 125.408C201.424 123.364 200.845 121.366 199.773 119.626C199.36 119.204 198.92 118.81 198.456 118.446C197.489 118.927 196.571 119.499 195.712 120.154C194.436 121.135 194.1 121.841 195.657 124.222C196.427 125.397 197.384 126.437 198.49 127.302L201.81 134.065L204.959 131.375Z" fill="#FAB27B"/>
<path d="M205.744 130.654L204.224 128.267C203.237 128.5 202.31 128.941 201.508 129.562C200.706 130.183 200.047 130.969 199.574 131.867L200.864 134.652L205.744 130.654Z" fill="#407BFF"/>
<path d="M223.355 117.327C220.701 117.505 218.389 117.039 213.848 131.34C213.133 133.26 212.114 135.053 210.83 136.649L205.836 129.79C205.836 129.79 202.564 129.982 200.301 133.981C200.301 133.981 204.156 146.897 211.385 145.964C218.614 145.031 222.648 136.732 224.239 131.772C225.83 126.812 229.261 116.929 223.355 117.327Z" fill="#263238"/>
<path d="M210.487 110.804L209.993 115.221L217.422 115.255L217.586 109.672L210.487 110.804Z" fill="#FAB27B"/>
<path opacity="0.2" d="M210.323 112.937C211.641 112.42 212.743 111.467 213.444 110.237L211.866 110.546L210.494 110.807L210.323 112.937Z" fill="black"/>
<path d="M208.457 98.378C208.32 98.728 208.388 99.064 208.622 99.178C208.856 99.292 209.185 99.048 209.308 98.705C209.431 98.362 209.377 98.019 209.137 97.905C208.897 97.791 208.601 98.032 208.457 98.378Z" fill="#263238"/>
<path d="M209.376 99.321L206.529 101.379C206.782 101.706 207.108 101.97 207.481 102.149C207.853 102.329 208.262 102.42 208.676 102.415L209.376 99.321Z" fill="#ED893E"/>
<path d="M209.822 96.262C209.855 96.2638 209.886 96.274 209.914 96.2915C209.942 96.309 209.964 96.3332 209.98 96.362C210.09 96.5836 210.252 96.7757 210.451 96.9225C210.65 97.0693 210.882 97.1665 211.126 97.206C211.152 97.2068 211.177 97.2129 211.2 97.2239C211.223 97.2349 211.243 97.2506 211.26 97.2699C211.277 97.2893 211.289 97.3119 211.297 97.3364C211.305 97.3608 211.307 97.3866 211.304 97.412C211.297 97.4647 211.271 97.513 211.23 97.5472C211.189 97.5814 211.137 97.5992 211.084 97.597C210.773 97.5558 210.477 97.4385 210.222 97.2556C209.967 97.0726 209.761 96.8295 209.623 96.548C209.599 96.5015 209.594 96.4473 209.609 96.3972C209.625 96.3471 209.659 96.305 209.705 96.28C209.741 96.2603 209.782 96.254 209.822 96.262Z" fill="#263238"/>
<path d="M222.67 102.449C221.003 107.189 220.4 109.233 217.183 111.037C212.656 112.537 206.764 110.715 206.949 105.584C207.107 100.968 209.803 94.006 215.18 93.368C217.005 93.1298 218.851 93.6226 220.314 94.7392C221.778 95.8558 222.741 97.5056 222.993 99.329C223.133 100.38 223.023 101.449 222.67 102.449Z" fill="#FAB27B"/>
<path d="M225.015 106.317C223.801 107.336 222.655 108.434 221.585 109.603C220.922 110.311 220.13 110.888 219.253 111.303C217.457 112.082 215.435 112.165 213.581 111.536C213.581 111.536 208.635 107.167 211.935 99.052C211.301 98.6012 210.788 98.0013 210.441 97.3054C210.094 96.6094 209.923 95.8387 209.944 95.0612C209.965 94.2838 210.177 93.5234 210.562 92.8472C210.946 92.1711 211.491 91.5999 212.148 91.184C213.705 90.196 216.12 90.82 217.56 91.973C218.537 91.772 219.548 91.8139 220.504 92.095C221.461 92.3761 222.334 92.8877 223.047 93.585C224.453 95.0095 225.494 96.7536 226.079 98.668C226.741 100.249 226.961 101.979 226.717 103.675C226.463 104.721 225.864 105.651 225.017 106.316L225.015 106.317Z" fill="#263238"/>
<path d="M212.381 100.83C211.917 101.049 211.5 101.358 211.156 101.738C210.811 102.118 210.544 102.563 210.371 103.046C209.932 104.335 211.098 105.056 212.381 104.768C213.54 104.5 215.159 103.513 215.042 102.182C215.008 101.888 214.902 101.608 214.733 101.365C214.564 101.123 214.338 100.926 214.074 100.792C213.811 100.658 213.518 100.592 213.223 100.599C212.927 100.605 212.638 100.685 212.381 100.831V100.83Z" fill="#FAB27B"/>
<path d="M219.054 112.327C217.408 111.641 214.438 111.545 210.137 112.21C209.898 112.275 209.679 112.399 209.501 112.572C209.323 112.745 209.193 112.96 209.122 113.198C209.076 113.308 209.053 113.426 209.056 113.545C209.058 113.664 209.086 113.782 209.137 113.889C209.188 113.997 209.262 114.092 209.353 114.169C209.443 114.247 209.55 114.304 209.664 114.337C209.63 114.961 209.472 115.647 209.438 116.278C210.694 116.255 211.951 116.323 213.197 116.484C215.134 116.62 217.061 116.877 218.966 117.252C218.744 116.355 218.681 115.426 218.781 114.508C219.012 114.514 219.239 114.439 219.421 114.296C219.603 114.153 219.731 113.952 219.781 113.726C219.803 113.448 219.746 113.17 219.618 112.922C219.489 112.675 219.294 112.469 219.054 112.327Z" fill="#407BFF"/>
<path d="M219.054 112.327C217.408 111.641 214.438 111.545 210.137 112.21C209.898 112.275 209.679 112.399 209.501 112.572C209.323 112.745 209.193 112.96 209.122 113.198C209.076 113.308 209.053 113.426 209.056 113.545C209.058 113.664 209.086 113.782 209.137 113.889C209.188 113.997 209.262 114.092 209.353 114.169C209.443 114.247 209.55 114.304 209.664 114.337C209.63 114.961 209.472 115.647 209.438 116.278C210.694 116.255 211.951 116.323 213.197 116.484C215.134 116.62 217.061 116.877 218.966 117.252C218.744 116.355 218.681 115.426 218.781 114.508C219.012 114.514 219.239 114.439 219.421 114.296C219.603 114.153 219.731 113.952 219.781 113.726C219.803 113.448 219.746 113.17 219.618 112.922C219.489 112.675 219.294 112.469 219.054 112.327Z" fill="#407BFF"/>
<path d="M198.767 159.381C198.767 159.381 197.244 139.009 197.34 124.31C197.409 113.466 205.187 115.393 215.174 115.462C223.117 115.503 225.82 116.189 226.903 120.517C227.986 124.845 222.664 159.498 222.664 159.498L198.767 159.381Z" fill="#407BFF"/>
<path opacity="0.5" d="M198.767 159.381C198.767 159.381 197.244 139.009 197.34 124.31C197.409 113.466 205.187 115.393 215.174 115.462C223.117 115.503 225.82 116.189 226.903 120.517C227.986 124.845 222.664 159.498 222.664 159.498L198.767 159.381Z" fill="black"/>
<path d="M184.093 130.62C183.422 130.641 182.776 130.882 182.255 131.306C181.41 131.964 180.758 132.839 180.369 133.837C179.704 132.732 178.796 131.794 177.714 131.093L177.652 131.059C178.002 126.259 181.952 126.607 181.952 126.607L182.052 126.854C182.602 128.176 183.286 129.438 184.093 130.62Z" fill="#407BFF"/>
<path opacity="0.2" d="M184.093 130.62C183.422 130.641 182.776 130.882 182.255 131.306C181.41 131.964 180.758 132.839 180.369 133.837C179.704 132.732 178.796 131.794 177.714 131.093L177.652 131.059C178.002 126.259 181.952 126.607 181.952 126.607L182.052 126.854C182.602 128.176 183.286 129.438 184.093 130.62Z" fill="black"/>
<path d="M194.614 147.741C187.322 147.583 180.333 135.532 180.333 135.532C180.175 134.983 180.187 134.4 180.367 133.858C180.756 132.86 181.408 131.985 182.253 131.327C182.774 130.903 183.42 130.662 184.091 130.641C184.542 130.614 184.994 130.677 185.421 130.826C185.421 130.826 190.799 137.459 192.109 136.862C193.419 136.265 193.92 134.062 194.4 131.313C196.959 116.621 199.764 116.175 202.227 116.113C207.345 115.955 201.069 147.878 194.614 147.741Z" fill="#407BFF"/>
<g opacity="0.1">
<path opacity="0.1" d="M194.615 147.741C187.323 147.583 180.334 135.532 180.334 135.532C180.176 134.983 180.188 134.4 180.368 133.858C180.757 132.86 181.409 131.985 182.254 131.327C182.775 130.903 183.421 130.662 184.092 130.641C184.543 130.614 184.995 130.677 185.422 130.826C185.422 130.826 190.8 137.459 192.11 136.862C193.42 136.265 193.921 134.062 194.401 131.313C196.96 116.621 199.765 116.175 202.228 116.113C207.346 115.955 201.07 147.878 194.615 147.741Z" fill="white"/>
</g>
<path d="M222.665 159.498C222.665 159.498 223.289 165.706 223.2 167.887C222.74 179.459 211.779 183.547 203.041 181.942L171.996 178.574C170.734 182.774 156.11 205.935 156.11 205.935L148.425 201.521C148.425 201.521 156.395 182.404 161.54 169.104C164.483 161.511 187.804 161.284 196.611 162.848C199.293 163.534 198.772 159.384 198.772 159.384L222.665 159.498Z" fill="#263238"/>
<path d="M154.152 206.359L151.216 211.259L145.735 208.536L148.582 202.959L154.152 206.359Z" fill="#FAB27B"/>
<path d="M142.823 207.526C142.137 207.197 141.451 206.726 141.323 206.305C141.301 206.188 141.317 206.067 141.367 205.96C141.418 205.852 141.5 205.763 141.604 205.705C141.775 205.59 141.984 205.546 142.187 205.581C143.278 205.759 144.773 207.845 144.841 207.934C144.859 207.96 144.87 207.991 144.87 208.023C144.87 208.054 144.861 208.086 144.842 208.112C144.824 208.138 144.799 208.158 144.769 208.169C144.739 208.18 144.707 208.182 144.676 208.174C144.041 208.013 143.421 207.796 142.823 207.526ZM142.423 205.976C142.334 205.933 142.239 205.903 142.142 205.887C142.081 205.87 142.017 205.868 141.955 205.88C141.894 205.892 141.835 205.918 141.785 205.956C141.607 206.079 141.6 206.182 141.62 206.244C141.72 206.744 143.177 207.431 144.32 207.787C143.805 207.069 143.159 206.454 142.416 205.975L142.423 205.976Z" fill="#407BFF"/>
<path d="M144.652 208.163C144.641 208.162 144.63 208.159 144.62 208.153C144.611 208.147 144.603 208.139 144.597 208.129C144.048 207.505 143.225 205.605 143.65 205.008C143.732 204.857 143.938 204.72 144.336 204.857C144.485 204.901 144.623 204.975 144.741 205.076C144.859 205.176 144.955 205.3 145.022 205.44C145.264 206.318 145.22 207.25 144.898 208.101C144.891 208.127 144.876 208.151 144.855 208.169C144.834 208.187 144.808 208.198 144.781 208.201C144.758 208.209 144.734 208.209 144.71 208.203C144.687 208.196 144.667 208.182 144.652 208.163ZM144.309 205.163L144.234 205.122C143.98 205.022 143.919 205.122 143.891 205.122C143.672 205.499 144.138 206.905 144.666 207.66C144.899 206.97 144.913 206.225 144.707 205.527C144.626 205.352 144.484 205.213 144.307 205.136L144.309 205.163Z" fill="#407BFF"/>
<path d="M145.64 207.636L151.992 210.536C152.107 210.59 152.2 210.681 152.257 210.794C152.314 210.907 152.332 211.036 152.308 211.16L151.094 216.853C151.069 216.976 151.019 217.092 150.948 217.195C150.877 217.298 150.786 217.386 150.681 217.453C150.575 217.52 150.457 217.565 150.334 217.586C150.21 217.607 150.084 217.602 149.962 217.573C149.895 217.565 149.831 217.547 149.77 217.518C147.5 216.427 145.524 215.371 142.677 214.088C139.316 212.551 139.977 213.347 136.003 211.588C133.609 210.532 134.412 207.624 135.482 207.953C140.366 209.49 141.482 208.31 144.029 207.473C144.567 207.324 145.142 207.382 145.64 207.636Z" fill="#263238"/>
<path opacity="0.2" d="M152.657 208.849L154.157 206.359L148.587 202.959L147.215 205.659L152.657 208.849Z" fill="black"/>
<path d="M157.335 206.332L147.801 200.385C147.37 200.629 147.024 201 146.809 201.447C146.595 201.894 146.522 202.396 146.601 202.885L155.758 208.736C155.758 208.736 156.992 208.678 157.335 206.332Z" fill="#407BFF"/>
<path d="M211.249 183.731H227.025C229.968 183.74 232.806 182.635 234.968 180.639C237.131 178.643 238.459 175.903 238.686 172.969L240.936 144.569C241.022 143.48 240.882 142.384 240.524 141.352C240.166 140.319 239.598 139.372 238.856 138.57C238.113 137.767 237.213 137.127 236.212 136.69C235.21 136.253 234.129 136.028 233.036 136.029H224.325C219.362 136.029 214.531 137.631 210.55 140.597C206.57 143.562 203.653 147.732 202.232 152.488L196.176 172.777C195.68 174.431 194.665 175.882 193.28 176.914C191.895 177.945 190.214 178.503 188.487 178.504H177.437C176.049 178.504 174.718 179.055 173.736 180.037C172.754 181.019 172.203 182.35 172.203 183.738H211.246L211.249 183.731Z" fill="#407BFF"/>
<path d="M204.149 183.731C204.581 190.487 205.749 215.098 204.005 220.517C202.475 225.284 195.472 226.423 191.329 228.947C190.643 229.372 190.876 230.723 191.645 230.723H223.883C224.651 230.723 224.891 229.351 224.192 228.947C220.076 226.423 213.046 225.284 211.516 220.517C209.774 215.098 210.94 190.487 211.372 183.731H204.149Z" fill="#407BFF"/>
<path opacity="0.2" d="M204.437 188.841H211.07C211.18 186.783 211.283 185 211.365 183.731H204.149C204.218 185 204.327 186.771 204.437 188.841Z" fill="black"/>
<path opacity="0.7" d="M211.249 183.731H227.025C229.968 183.74 232.806 182.635 234.968 180.639C237.131 178.643 238.459 175.903 238.686 172.969L240.936 144.569C241.022 143.48 240.882 142.384 240.524 141.352C240.166 140.319 239.598 139.372 238.856 138.57C238.113 137.767 237.213 137.127 236.212 136.69C235.21 136.253 234.129 136.028 233.036 136.029H224.325C219.362 136.029 214.531 137.631 210.55 140.597C206.57 143.562 203.653 147.732 202.232 152.488L196.176 172.777C195.68 174.431 194.665 175.882 193.28 176.914C191.895 177.945 190.214 178.503 188.487 178.504H177.437C176.049 178.504 174.718 179.055 173.736 180.037C172.754 181.019 172.203 182.35 172.203 183.738H211.246L211.249 183.731Z" fill="white"/>
</svg>
