<svg id="svg" version="1.1" xmlns="http://www.w3.org/2000/svg" xmlns:xlink="http://www.w3.org/1999/xlink" width="400" height="77.8125" viewBox="0, 0, 400,77.8125"><g id="svgg"><path id="path0" d="M6.204 45.125 L 6.250 61.917 6.648 62.663 C 6.866 63.073,7.249 63.598,7.499 63.829 C 8.539 64.793,9.267 65.329,9.542 65.331 C 9.702 65.332,9.833 65.401,9.833 65.483 C 9.833 65.818,21.106 66.212,22.292 65.920 L 22.667 65.827 22.667 57.590 C 22.667 52.278,22.726 49.316,22.833 49.250 C 22.942 49.183,23.000 45.533,23.000 38.844 L 23.000 28.542 22.479 28.438 C 22.193 28.380,18.403 28.333,14.058 28.333 L 6.157 28.333 6.204 45.125 " stroke="none" fill="#1676ee" fill-rule="evenodd"></path><path id="path1" d="M22.066 12.132 C 21.801 12.389,21.398 12.833,21.172 13.120 C 20.946 13.407,20.702 13.605,20.631 13.561 C 20.559 13.517,20.500 13.610,20.500 13.768 C 20.500 13.926,20.459 14.014,20.408 13.964 C 20.310 13.865,18.667 15.497,18.667 15.693 C 18.667 15.758,18.517 15.858,18.333 15.917 C 18.150 15.975,18.000 16.130,18.000 16.261 C 18.000 16.393,17.933 16.500,17.851 16.500 C 17.769 16.500,17.461 16.725,17.167 17.000 C 16.872 17.275,16.676 17.500,16.731 17.500 C 16.786 17.500,16.595 17.725,16.307 18.000 C 16.019 18.275,15.720 18.500,15.642 18.500 C 15.564 18.500,15.500 18.625,15.500 18.778 C 15.500 18.931,15.459 19.015,15.410 18.965 C 15.311 18.867,14.566 19.562,13.708 20.553 C 13.410 20.897,13.167 21.144,13.167 21.103 C 13.167 20.997,8.845 25.380,8.658 25.676 C 8.574 25.808,8.504 25.855,8.503 25.779 C 8.501 25.703,8.003 26.153,7.395 26.779 L 6.290 27.917 14.244 27.960 C 20.972 27.997,22.253 28.042,22.553 28.252 C 22.857 28.465,24.285 28.500,32.620 28.500 L 42.333 28.500 42.333 33.583 C 42.333 39.060,42.325 39.014,43.187 38.286 C 43.427 38.083,45.190 36.607,47.104 35.007 C 49.018 33.406,50.621 32.056,50.667 32.007 C 50.712 31.957,51.200 31.542,51.749 31.083 C 52.299 30.625,52.937 30.088,53.166 29.890 C 54.120 29.066,57.270 26.447,57.517 26.272 C 58.257 25.749,58.333 25.232,58.333 20.768 C 58.333 18.116,58.271 16.481,58.167 16.417 C 58.075 16.360,58.000 16.056,58.000 15.740 C 58.000 15.425,57.925 15.167,57.833 15.167 C 57.742 15.167,57.667 15.033,57.667 14.870 C 57.667 14.707,57.517 14.465,57.333 14.333 C 57.150 14.201,57.000 14.031,57.000 13.956 C 57.000 13.777,56.223 13.000,56.044 13.000 C 55.969 13.000,55.799 12.850,55.667 12.667 C 55.535 12.483,55.297 12.333,55.140 12.333 C 54.982 12.333,54.807 12.258,54.750 12.167 C 54.693 12.075,54.356 12.000,54.000 12.000 C 53.644 12.000,53.307 11.925,53.250 11.833 C 53.183 11.724,47.868 11.667,37.848 11.667 L 22.549 11.667 22.066 12.132 " stroke="none" fill="#f8a50c" fill-rule="evenodd"></path><path id="path2" d="M119.500 18.146 C 119.362 18.225,118.837 18.337,118.333 18.397 C 117.451 18.501,115.290 19.154,115.057 19.387 C 114.995 19.449,114.807 19.500,114.639 19.500 C 114.471 19.500,114.333 19.575,114.333 19.667 C 114.333 19.758,114.183 19.833,114.000 19.833 C 113.817 19.833,113.667 19.908,113.667 20.000 C 113.667 20.092,113.517 20.167,113.333 20.167 C 113.150 20.167,113.000 20.242,113.000 20.333 C 113.000 20.425,112.918 20.500,112.817 20.500 C 112.563 20.500,110.643 21.681,110.314 22.039 C 110.166 22.201,109.997 22.333,109.940 22.333 C 109.666 22.333,106.167 25.764,106.167 26.033 C 106.167 26.108,105.942 26.405,105.667 26.693 C 105.392 26.981,105.167 27.311,105.167 27.427 C 105.167 27.544,105.104 27.664,105.028 27.694 C 104.814 27.780,103.667 29.913,103.667 30.224 C 103.667 30.376,103.592 30.500,103.500 30.500 C 103.408 30.500,103.333 30.614,103.333 30.752 C 103.333 30.891,103.258 31.154,103.167 31.336 C 103.075 31.518,102.925 31.816,102.833 31.998 C 102.742 32.180,102.667 32.475,102.667 32.655 C 102.667 32.834,102.592 33.027,102.500 33.083 C 102.408 33.140,102.333 33.429,102.333 33.727 C 102.333 34.024,102.265 34.338,102.182 34.425 C 101.788 34.838,101.639 40.415,101.973 42.250 C 102.074 42.800,102.204 43.532,102.263 43.877 C 102.322 44.221,102.437 44.544,102.518 44.595 C 102.600 44.645,102.667 44.833,102.667 45.012 C 102.667 45.191,102.742 45.487,102.833 45.669 C 102.925 45.851,103.075 46.149,103.167 46.331 C 103.258 46.513,103.333 46.776,103.333 46.914 C 103.333 47.053,103.408 47.167,103.500 47.167 C 103.592 47.167,103.667 47.299,103.667 47.461 C 103.667 47.623,103.815 48.017,103.995 48.336 C 104.176 48.655,104.447 49.160,104.598 49.458 C 104.748 49.756,104.938 50.000,105.019 50.000 C 105.100 50.000,105.167 50.098,105.167 50.219 C 105.167 50.339,105.298 50.583,105.458 50.760 C 105.619 50.938,105.974 51.384,106.247 51.750 C 106.884 52.604,108.892 54.610,109.753 55.252 C 110.118 55.525,110.454 55.789,110.500 55.838 C 110.769 56.129,112.516 57.167,112.737 57.167 C 112.881 57.167,113.000 57.242,113.000 57.333 C 113.000 57.425,113.150 57.500,113.333 57.500 C 113.517 57.500,113.667 57.575,113.667 57.667 C 113.667 57.758,113.817 57.833,114.000 57.833 C 114.183 57.833,114.333 57.908,114.333 58.000 C 114.333 58.092,114.483 58.167,114.667 58.167 C 114.850 58.167,115.000 58.242,115.000 58.333 C 115.000 58.425,115.188 58.500,115.417 58.500 C 115.646 58.500,115.833 58.575,115.833 58.667 C 115.833 58.758,116.058 58.833,116.333 58.833 C 116.608 58.833,116.833 58.900,116.833 58.982 C 116.833 59.065,117.115 59.172,117.458 59.221 C 117.802 59.270,118.533 59.397,119.083 59.502 C 120.462 59.767,128.073 59.660,128.361 59.373 C 128.474 59.259,128.810 59.167,129.107 59.167 C 129.404 59.167,129.693 59.092,129.750 59.000 C 129.807 58.908,129.991 58.833,130.161 58.833 C 130.330 58.833,130.757 58.692,131.109 58.520 C 131.462 58.347,132.125 58.029,132.583 57.812 C 133.042 57.596,133.504 57.336,133.611 57.235 C 133.718 57.135,134.036 56.956,134.319 56.839 C 134.602 56.722,134.833 56.560,134.833 56.480 C 134.833 56.399,134.937 56.333,135.064 56.333 C 135.191 56.333,135.550 56.052,135.863 55.708 C 136.175 55.365,136.615 54.981,136.841 54.855 C 137.066 54.730,137.587 54.225,138.000 53.733 C 138.412 53.241,138.919 52.654,139.125 52.427 C 139.331 52.200,139.500 51.943,139.500 51.855 C 139.500 51.767,139.556 51.669,139.625 51.639 C 139.781 51.569,140.323 50.682,140.446 50.292 C 140.497 50.131,140.605 50.000,140.686 50.000 C 140.767 50.000,140.833 49.854,140.833 49.677 C 140.833 49.499,140.902 49.311,140.985 49.259 C 141.069 49.207,141.188 48.865,141.250 48.499 C 141.312 48.133,141.431 47.833,141.515 47.833 C 141.598 47.833,141.667 47.613,141.667 47.343 C 141.667 47.074,141.742 46.807,141.833 46.750 C 141.925 46.693,142.000 46.393,142.000 46.083 C 142.000 45.773,142.075 45.473,142.167 45.417 C 142.258 45.360,142.333 44.948,142.333 44.500 C 142.333 44.052,142.408 43.640,142.500 43.583 C 142.601 43.521,142.667 42.332,142.667 40.573 C 142.667 38.747,142.605 37.667,142.500 37.667 C 142.408 37.667,142.333 37.442,142.333 37.167 L 142.333 36.667 132.667 36.667 L 123.000 36.667 123.000 39.750 L 123.000 42.833 129.583 42.833 L 136.167 42.833 136.167 43.667 C 136.167 44.125,136.092 44.500,136.000 44.500 C 135.908 44.500,135.833 44.725,135.833 45.000 C 135.833 45.275,135.758 45.500,135.667 45.500 C 135.575 45.500,135.500 45.688,135.500 45.917 C 135.500 46.146,135.425 46.333,135.333 46.333 C 135.242 46.333,135.167 46.483,135.167 46.667 C 135.167 46.850,135.109 47.000,135.039 47.000 C 134.969 47.000,134.787 47.281,134.633 47.625 C 134.480 47.969,134.155 48.475,133.911 48.750 C 133.666 49.025,133.380 49.366,133.275 49.508 C 133.169 49.649,132.786 49.987,132.422 50.258 C 132.059 50.528,131.633 50.862,131.476 51.000 C 130.918 51.489,130.744 51.605,130.208 51.842 C 129.910 51.973,129.667 52.138,129.667 52.207 C 129.667 52.277,129.535 52.334,129.375 52.334 C 129.215 52.335,128.869 52.447,128.606 52.584 C 128.343 52.721,127.992 52.833,127.824 52.833 C 127.657 52.833,127.473 52.908,127.417 53.000 C 127.360 53.092,127.056 53.167,126.740 53.167 C 126.425 53.167,126.167 53.242,126.167 53.333 C 126.167 53.438,125.087 53.500,123.260 53.500 C 121.502 53.500,120.312 53.434,120.250 53.333 C 120.193 53.242,119.982 53.167,119.781 53.167 C 119.039 53.167,115.865 51.855,115.260 51.298 C 115.083 51.134,114.879 51.000,114.808 51.000 C 114.679 51.000,113.868 50.314,113.022 49.489 C 112.086 48.577,111.119 47.388,110.794 46.750 C 110.608 46.383,110.409 46.046,110.353 46.000 C 110.131 45.820,109.500 44.451,109.500 44.151 C 109.500 43.976,109.425 43.833,109.333 43.833 C 109.242 43.833,109.167 43.652,109.167 43.431 C 109.167 43.209,109.073 42.997,108.958 42.958 C 108.799 42.905,108.750 41.946,108.750 38.917 C 108.750 35.887,108.799 34.928,108.958 34.875 C 109.073 34.837,109.167 34.587,109.167 34.319 C 109.167 34.052,109.242 33.833,109.333 33.833 C 109.425 33.833,109.500 33.688,109.500 33.510 C 109.500 33.332,109.575 33.140,109.667 33.083 C 109.758 33.027,109.833 32.835,109.833 32.657 C 109.833 32.479,109.908 32.333,110.000 32.333 C 110.092 32.333,110.167 32.183,110.167 32.000 C 110.167 31.817,110.228 31.667,110.302 31.667 C 110.377 31.667,110.564 31.423,110.718 31.125 C 111.221 30.151,111.398 29.936,113.041 28.292 C 113.934 27.398,114.777 26.667,114.916 26.667 C 115.054 26.667,115.167 26.592,115.167 26.500 C 115.167 26.408,115.279 26.333,115.417 26.333 C 115.554 26.333,115.667 26.267,115.667 26.186 C 115.667 26.104,115.948 25.913,116.292 25.761 C 116.635 25.609,117.047 25.412,117.206 25.325 C 117.365 25.238,117.642 25.167,117.821 25.167 C 118.000 25.167,118.193 25.092,118.250 25.000 C 118.307 24.908,118.536 24.833,118.760 24.833 C 118.984 24.833,119.167 24.758,119.167 24.667 C 119.167 24.575,119.462 24.500,119.823 24.500 C 120.185 24.500,120.527 24.425,120.583 24.333 C 120.644 24.235,121.665 24.167,123.083 24.167 C 124.502 24.167,125.522 24.235,125.583 24.333 C 125.640 24.425,125.977 24.500,126.333 24.500 C 126.689 24.500,127.027 24.575,127.083 24.667 C 127.140 24.758,127.369 24.833,127.593 24.833 C 127.817 24.833,128.000 24.908,128.000 25.000 C 128.000 25.092,128.110 25.167,128.245 25.167 C 128.553 25.167,130.397 26.024,130.472 26.202 C 130.503 26.274,130.637 26.333,130.771 26.333 C 130.905 26.333,131.190 26.502,131.403 26.708 C 132.538 27.805,133.276 28.227,133.595 27.963 C 134.541 27.184,137.500 24.097,137.500 23.891 C 137.500 23.364,133.904 20.500,133.242 20.500 C 133.124 20.500,133.003 20.443,132.972 20.374 C 132.920 20.257,130.989 19.281,130.250 18.999 C 129.664 18.775,128.610 18.489,127.667 18.299 C 126.547 18.073,119.848 17.947,119.500 18.146 M232.374 39.292 L 232.417 59.083 235.250 59.131 C 236.808 59.157,238.252 59.137,238.458 59.086 L 238.833 58.994 238.833 39.247 L 238.833 19.500 235.583 19.500 L 232.332 19.500 232.374 39.292 M280.278 21.111 C 280.217 21.172,280.167 29.687,280.167 40.032 L 280.167 58.842 282.792 58.796 L 285.417 58.750 285.395 46.333 C 285.383 39.504,285.319 33.335,285.252 32.625 C 285.166 31.717,285.185 31.333,285.315 31.333 C 285.417 31.333,285.500 31.440,285.500 31.569 C 285.500 31.699,285.558 31.831,285.629 31.861 C 285.700 31.892,286.050 32.479,286.406 33.167 C 286.762 33.854,287.098 34.454,287.152 34.500 C 287.206 34.546,287.363 34.808,287.500 35.083 C 287.637 35.358,287.787 35.621,287.833 35.667 C 287.879 35.712,288.014 35.923,288.133 36.135 C 288.650 37.056,289.577 38.781,289.739 39.124 C 289.837 39.329,289.973 39.498,290.042 39.499 C 290.110 39.499,290.167 39.612,290.167 39.750 C 290.167 39.887,290.242 40.000,290.333 40.000 C 290.425 40.000,290.500 40.150,290.500 40.333 C 290.500 40.517,290.575 40.667,290.667 40.667 C 290.758 40.667,290.833 40.735,290.833 40.820 C 290.833 40.904,291.171 41.543,291.583 42.241 C 291.996 42.939,292.333 43.582,292.333 43.671 C 292.333 43.760,292.394 43.833,292.469 43.833 C 292.543 43.833,292.707 44.096,292.833 44.417 C 292.959 44.737,293.123 45.000,293.198 45.000 C 293.272 45.000,293.333 45.067,293.333 45.149 C 293.333 45.367,294.869 48.074,295.029 48.139 C 295.105 48.169,295.167 48.338,295.167 48.514 C 295.167 48.690,295.223 48.833,295.293 48.833 C 295.362 48.833,295.524 49.072,295.653 49.363 C 295.876 49.867,296.147 50.254,296.637 50.769 C 296.788 50.927,297.264 51.000,298.149 51.000 C 299.727 51.000,299.894 50.846,301.195 48.208 C 301.478 47.635,301.760 47.167,301.823 47.167 C 301.886 47.167,302.041 46.904,302.167 46.583 C 302.293 46.262,302.457 46.000,302.531 46.000 C 302.606 46.000,302.667 45.850,302.667 45.667 C 302.667 45.483,302.730 45.333,302.807 45.333 C 302.981 45.333,303.833 43.789,303.833 43.473 C 303.833 43.345,303.983 43.132,304.167 43.000 C 304.350 42.868,304.500 42.626,304.500 42.463 C 304.500 42.300,304.575 42.167,304.667 42.167 C 304.758 42.167,304.833 42.054,304.833 41.917 C 304.833 41.779,304.908 41.667,305.000 41.667 C 305.092 41.667,305.167 41.523,305.167 41.347 C 305.167 41.172,305.226 41.003,305.298 40.972 C 305.475 40.897,306.333 39.405,306.333 39.172 C 306.333 39.070,306.483 38.825,306.667 38.628 C 306.850 38.431,307.000 38.172,307.000 38.052 C 307.000 37.932,307.057 37.833,307.126 37.833 C 307.195 37.833,307.358 37.590,307.488 37.292 C 307.617 36.994,307.770 36.712,307.826 36.667 C 307.883 36.621,308.151 36.133,308.423 35.583 C 308.694 35.033,308.973 34.558,309.042 34.528 C 309.110 34.497,309.167 34.366,309.167 34.236 C 309.167 34.106,309.242 34.000,309.333 34.000 C 309.425 34.000,309.500 33.887,309.500 33.750 C 309.500 33.612,309.575 33.500,309.667 33.500 C 309.758 33.500,309.833 33.350,309.833 33.167 C 309.833 32.983,309.908 32.833,310.000 32.833 C 310.092 32.833,310.167 32.761,310.167 32.672 C 310.167 32.584,310.392 32.157,310.667 31.723 L 311.167 30.935 311.167 31.601 C 311.167 31.967,311.091 32.342,310.999 32.434 C 310.889 32.545,310.846 37.072,310.874 45.676 L 310.917 58.750 313.454 58.796 C 315.973 58.842,315.992 58.839,316.083 58.463 C 316.134 58.254,316.154 49.758,316.129 39.583 L 316.083 21.083 313.600 21.037 C 311.041 20.989,310.500 21.127,310.500 21.826 C 310.500 21.922,310.425 22.000,310.333 22.000 C 310.242 22.000,310.167 22.116,310.167 22.257 C 310.167 22.398,310.021 22.670,309.843 22.862 C 309.531 23.196,308.667 24.871,308.667 25.140 C 308.667 25.212,308.535 25.416,308.375 25.594 C 308.215 25.771,307.971 26.142,307.834 26.417 C 307.696 26.692,307.546 26.954,307.500 27.000 C 307.361 27.139,306.678 28.364,306.223 29.292 C 305.987 29.773,305.728 30.167,305.647 30.167 C 305.566 30.167,305.500 30.317,305.500 30.500 C 305.500 30.683,305.425 30.833,305.333 30.833 C 305.242 30.833,305.167 30.946,305.167 31.083 C 305.167 31.221,305.100 31.333,305.019 31.333 C 304.938 31.333,304.830 31.465,304.778 31.625 C 304.726 31.785,304.339 32.517,303.919 33.250 C 303.499 33.983,303.111 34.715,303.058 34.875 C 303.005 35.035,302.895 35.167,302.814 35.167 C 302.733 35.167,302.667 35.279,302.667 35.417 C 302.667 35.554,302.592 35.667,302.500 35.667 C 302.408 35.667,302.333 35.810,302.333 35.986 C 302.333 36.162,302.273 36.331,302.200 36.361 C 302.040 36.428,301.167 37.977,301.167 38.195 C 301.167 38.279,301.017 38.508,300.833 38.705 C 300.650 38.902,300.500 39.161,300.500 39.281 C 300.500 39.402,300.425 39.500,300.333 39.500 C 300.242 39.500,300.167 39.644,300.167 39.819 C 300.167 39.995,300.110 40.164,300.042 40.194 C 299.888 40.263,299.441 41.003,298.952 42.000 C 298.749 42.412,298.527 42.775,298.458 42.806 C 298.390 42.836,298.333 42.967,298.333 43.097 C 298.333 43.480,298.074 43.368,297.820 42.875 C 297.690 42.623,297.546 42.379,297.500 42.333 C 297.454 42.287,297.323 42.081,297.208 41.875 C 297.094 41.669,296.906 41.331,296.792 41.125 C 296.677 40.919,296.546 40.712,296.500 40.667 C 296.454 40.621,296.194 40.133,295.923 39.583 C 295.651 39.033,295.389 38.546,295.339 38.500 C 295.290 38.454,295.137 38.192,295.000 37.917 C 294.862 37.642,294.619 37.271,294.458 37.094 C 294.298 36.916,294.167 36.678,294.167 36.566 C 294.167 36.453,294.110 36.336,294.042 36.306 C 293.973 36.275,293.694 35.800,293.423 35.250 C 293.151 34.700,292.883 34.212,292.826 34.167 C 292.770 34.121,292.617 33.840,292.488 33.542 C 292.358 33.244,292.195 33.000,292.126 33.000 C 292.057 33.000,292.000 32.902,292.000 32.781 C 292.000 32.661,291.850 32.402,291.667 32.205 C 291.483 32.008,291.333 31.764,291.333 31.662 C 291.333 31.429,290.475 29.936,290.298 29.861 C 290.226 29.831,290.167 29.662,290.167 29.486 C 290.167 29.310,290.110 29.167,290.041 29.167 C 289.971 29.167,289.821 28.956,289.707 28.698 C 289.593 28.440,289.350 28.068,289.167 27.872 C 288.983 27.675,288.833 27.409,288.833 27.280 C 288.833 27.152,288.646 26.770,288.417 26.433 C 288.188 26.095,288.000 25.747,288.000 25.659 C 288.000 25.572,287.925 25.500,287.833 25.500 C 287.742 25.500,287.667 25.350,287.667 25.167 C 287.667 24.983,287.600 24.833,287.519 24.833 C 287.438 24.833,287.328 24.702,287.274 24.542 C 287.090 23.995,286.547 23.175,286.440 23.282 C 286.381 23.341,286.333 23.245,286.332 23.069 C 286.331 22.894,286.104 22.356,285.828 21.875 L 285.327 21.000 282.858 21.000 C 281.500 21.000,280.339 21.050,280.278 21.111 M380.167 28.917 L 380.167 32.667 378.109 32.667 C 375.432 32.667,375.500 32.599,375.500 35.271 C 375.500 37.784,375.376 37.667,378.033 37.667 L 380.167 37.667 380.167 45.657 C 380.167 50.804,380.226 53.684,380.333 53.750 C 380.425 53.807,380.500 54.036,380.500 54.260 C 380.500 54.484,380.575 54.667,380.667 54.667 C 380.758 54.667,380.833 54.823,380.833 55.014 C 380.833 55.481,381.962 57.072,382.532 57.409 C 382.783 57.557,383.084 57.769,383.202 57.881 C 383.620 58.276,384.872 58.833,385.339 58.833 C 385.600 58.833,385.860 58.908,385.917 59.000 C 385.976 59.096,386.860 59.167,388.000 59.167 C 389.140 59.167,390.024 59.096,390.083 59.000 C 390.140 58.908,390.371 58.833,390.596 58.833 C 391.470 58.833,392.333 58.440,392.333 58.043 C 392.333 57.836,392.258 57.667,392.167 57.667 C 392.075 57.667,392.000 57.484,392.000 57.260 C 392.000 57.036,391.925 56.807,391.833 56.750 C 391.742 56.693,391.667 56.501,391.667 56.323 C 391.667 56.146,391.601 56.000,391.521 56.000 C 391.441 56.000,391.327 55.692,391.267 55.316 C 391.064 54.049,390.763 53.672,390.043 53.786 C 389.698 53.841,389.392 53.948,389.361 54.026 C 389.282 54.226,387.667 54.201,387.667 54.000 C 387.667 53.908,387.517 53.833,387.333 53.833 C 387.150 53.833,387.000 53.758,387.000 53.667 C 387.000 53.575,386.893 53.500,386.761 53.500 C 386.451 53.500,385.833 52.629,385.833 52.192 C 385.833 52.006,385.758 51.807,385.667 51.750 C 385.560 51.684,385.500 49.138,385.500 44.661 L 385.500 37.674 388.542 37.629 L 391.583 37.583 391.630 35.356 C 391.691 32.458,391.941 32.667,388.396 32.667 L 385.500 32.667 385.500 28.917 L 385.500 25.167 382.833 25.167 L 380.167 25.167 380.167 28.917 M6.167 28.167 C 6.167 28.275,8.932 28.334,14.125 28.336 C 18.502 28.337,22.271 28.384,22.500 28.440 C 22.906 28.539,22.908 28.535,22.583 28.276 C 22.184 27.958,6.167 27.852,6.167 28.167 M331.167 32.167 C 331.167 32.258,330.829 32.333,330.417 32.333 C 330.004 32.333,329.667 32.408,329.667 32.500 C 329.667 32.592,329.498 32.667,329.292 32.667 C 328.757 32.667,326.969 33.546,326.452 34.063 C 326.212 34.303,325.951 34.500,325.873 34.500 C 325.656 34.500,324.625 35.505,324.077 36.250 C 323.808 36.617,323.455 37.038,323.294 37.186 C 323.132 37.334,323.000 37.541,323.000 37.645 C 323.000 37.748,322.944 37.834,322.875 37.836 C 322.756 37.838,322.473 38.401,321.672 40.223 C 321.477 40.666,321.273 41.512,321.218 42.103 C 321.163 42.694,321.054 43.217,320.975 43.265 C 320.770 43.392,320.794 48.167,321.000 48.167 C 321.092 48.167,321.167 48.519,321.167 48.950 C 321.167 49.786,321.654 51.667,321.870 51.667 C 321.942 51.667,322.000 51.775,322.000 51.907 C 322.000 52.180,322.671 53.388,322.870 53.472 C 322.941 53.503,323.000 53.601,323.000 53.690 C 323.000 54.133,325.146 56.513,325.922 56.931 C 326.240 57.102,326.500 57.300,326.500 57.371 C 326.500 57.442,326.612 57.500,326.750 57.500 C 326.887 57.500,327.000 57.567,327.000 57.649 C 327.000 57.806,329.017 58.833,329.325 58.833 C 329.424 58.833,329.635 58.902,329.794 58.985 C 331.023 59.631,337.695 59.628,338.095 58.982 C 338.145 58.900,338.365 58.833,338.583 58.833 C 338.802 58.833,339.027 58.758,339.083 58.667 C 339.140 58.575,339.332 58.500,339.510 58.500 C 339.688 58.500,339.833 58.425,339.833 58.333 C 339.833 58.242,339.983 58.167,340.167 58.167 C 340.350 58.167,340.500 58.092,340.500 58.000 C 340.500 57.908,340.612 57.833,340.750 57.833 C 340.887 57.833,341.000 57.767,341.000 57.686 C 341.000 57.604,341.260 57.415,341.577 57.264 C 342.334 56.905,343.627 55.631,345.208 53.688 C 345.369 53.491,345.500 53.218,345.500 53.081 C 345.500 52.945,345.575 52.833,345.667 52.833 C 346.500 52.833,345.638 52.104,343.612 51.095 C 341.460 50.023,340.833 49.874,340.833 50.434 C 340.833 50.562,340.758 50.667,340.667 50.667 C 340.575 50.667,340.500 50.778,340.500 50.913 C 340.500 51.239,338.245 53.500,337.920 53.500 C 337.781 53.500,337.666 53.556,337.665 53.625 C 337.664 53.794,336.839 54.167,336.467 54.167 C 336.302 54.167,336.167 54.242,336.167 54.333 C 336.167 54.436,335.361 54.500,334.083 54.500 C 332.806 54.500,332.000 54.436,332.000 54.333 C 332.000 54.242,331.857 54.167,331.682 54.167 C 330.617 54.167,327.345 51.438,327.336 50.542 C 327.334 50.427,327.258 50.333,327.167 50.333 C 327.075 50.333,327.000 50.221,327.000 50.083 C 327.000 49.946,326.925 49.833,326.833 49.833 C 326.742 49.833,326.667 49.608,326.667 49.333 C 326.667 49.058,326.592 48.833,326.500 48.833 C 326.408 48.833,326.333 48.421,326.333 47.918 L 326.333 47.003 336.208 46.960 L 346.083 46.917 346.059 44.750 C 346.034 42.463,345.897 41.187,345.650 40.925 C 345.567 40.838,345.500 40.631,345.500 40.464 C 345.500 40.298,345.425 40.013,345.333 39.831 C 345.242 39.649,345.092 39.351,345.000 39.169 C 344.908 38.987,344.833 38.724,344.833 38.586 C 344.833 38.447,344.758 38.333,344.667 38.333 C 344.575 38.333,344.500 38.235,344.500 38.115 C 344.500 37.995,344.350 37.735,344.167 37.538 C 343.983 37.342,343.833 37.079,343.833 36.954 C 343.833 36.710,341.128 34.061,340.502 33.693 C 339.327 33.001,338.932 32.826,338.331 32.730 C 337.966 32.672,337.667 32.559,337.667 32.479 C 337.667 32.399,337.367 32.333,337.000 32.333 C 336.633 32.333,336.333 32.258,336.333 32.167 C 336.333 32.063,335.361 32.000,333.750 32.000 C 332.139 32.000,331.167 32.063,331.167 32.167 M359.083 32.167 C 359.027 32.258,358.727 32.333,358.417 32.333 C 358.107 32.333,357.807 32.408,357.750 32.500 C 357.693 32.592,357.486 32.667,357.289 32.667 C 356.879 32.667,354.500 33.833,354.500 34.034 C 354.500 34.107,354.422 34.167,354.328 34.167 C 354.233 34.167,353.908 34.410,353.605 34.708 C 353.301 35.006,352.798 35.490,352.485 35.783 C 351.746 36.475,351.540 36.731,351.306 37.244 C 351.200 37.476,351.064 37.667,351.004 37.667 C 350.945 37.667,350.793 37.929,350.667 38.250 C 350.541 38.571,350.377 38.833,350.302 38.833 C 350.228 38.833,350.167 38.983,350.167 39.167 C 350.167 39.350,350.108 39.500,350.036 39.500 C 349.965 39.500,349.808 39.856,349.689 40.292 C 349.570 40.727,349.408 41.233,349.331 41.417 C 348.915 42.398,348.769 47.827,349.118 49.333 C 349.393 50.516,349.871 51.833,350.025 51.833 C 350.103 51.833,350.167 51.983,350.167 52.167 C 350.167 52.350,350.242 52.500,350.333 52.500 C 350.425 52.500,350.500 52.650,350.500 52.833 C 350.500 53.017,350.575 53.167,350.667 53.167 C 350.758 53.167,350.833 53.247,350.833 53.345 C 350.833 53.862,353.742 57.167,354.197 57.167 C 354.279 57.167,354.508 57.317,354.705 57.500 C 354.902 57.683,355.161 57.833,355.281 57.833 C 355.402 57.833,355.500 57.908,355.500 58.000 C 355.500 58.092,355.650 58.167,355.833 58.167 C 356.017 58.167,356.167 58.242,356.167 58.333 C 356.167 58.425,356.317 58.500,356.500 58.500 C 356.683 58.500,356.833 58.575,356.833 58.667 C 356.833 58.758,357.016 58.833,357.240 58.833 C 357.464 58.833,357.688 58.900,357.739 58.982 C 358.083 59.538,365.751 59.538,366.095 58.982 C 366.145 58.900,366.369 58.833,366.593 58.833 C 366.817 58.833,367.000 58.758,367.000 58.667 C 367.000 58.575,367.157 58.500,367.349 58.500 C 367.541 58.500,367.898 58.366,368.141 58.202 C 368.384 58.039,368.790 57.801,369.042 57.674 C 369.294 57.547,369.500 57.381,369.500 57.305 C 369.500 57.229,369.617 57.167,369.760 57.167 C 370.398 57.167,373.833 53.208,373.833 52.473 C 373.833 52.196,372.996 51.667,372.558 51.667 C 372.434 51.667,372.333 51.592,372.333 51.500 C 372.333 51.408,372.190 51.333,372.014 51.333 C 371.838 51.333,371.669 51.277,371.639 51.208 C 371.608 51.138,371.075 50.826,370.454 50.514 L 369.325 49.946 368.996 50.299 C 368.815 50.494,368.667 50.731,368.667 50.826 C 368.667 50.922,368.604 51.000,368.528 51.000 C 368.452 51.000,368.284 51.206,368.154 51.458 C 367.917 51.921,367.704 52.143,366.919 52.750 C 366.681 52.933,366.306 53.252,366.084 53.458 C 365.863 53.665,365.566 53.833,365.424 53.833 C 365.283 53.833,365.167 53.908,365.167 54.000 C 365.167 54.092,364.994 54.167,364.783 54.167 C 364.572 54.167,364.322 54.245,364.227 54.340 C 363.995 54.571,360.107 54.571,360.030 54.340 C 359.998 54.245,359.791 54.167,359.569 54.167 C 359.348 54.167,359.167 54.092,359.167 54.000 C 359.167 53.908,359.017 53.833,358.833 53.833 C 358.650 53.833,358.500 53.758,358.500 53.667 C 358.500 53.575,358.422 53.500,358.327 53.500 C 358.164 53.500,357.510 53.074,356.789 52.500 C 356.215 52.043,354.833 49.860,354.833 49.412 C 354.833 49.277,354.758 49.167,354.667 49.167 C 354.575 49.167,354.500 48.829,354.500 48.417 C 354.500 48.004,354.425 47.667,354.333 47.667 C 354.242 47.667,354.167 47.517,354.167 47.333 C 354.167 47.004,354.278 47.000,364.167 47.000 L 374.167 47.000 374.167 44.927 C 374.167 43.786,374.103 42.813,374.025 42.765 C 373.946 42.717,373.836 42.174,373.778 41.559 C 373.721 40.944,373.597 40.364,373.503 40.270 C 373.410 40.177,373.333 39.998,373.333 39.873 C 373.333 39.510,372.298 37.443,371.968 37.147 C 371.802 36.999,371.667 36.789,371.667 36.681 C 371.667 36.452,369.436 34.167,369.213 34.167 C 369.130 34.167,368.917 34.033,368.740 33.870 C 368.290 33.457,366.622 32.667,366.202 32.667 C 366.010 32.667,365.807 32.592,365.750 32.500 C 365.693 32.408,365.356 32.333,365.000 32.333 C 364.644 32.333,364.307 32.258,364.250 32.167 C 364.189 32.068,363.140 32.000,361.667 32.000 C 360.193 32.000,359.145 32.068,359.083 32.167 M155.083 32.830 C 154.717 32.908,154.144 33.043,153.812 33.130 C 153.097 33.318,151.274 34.181,151.194 34.369 C 151.164 34.441,150.995 34.500,150.819 34.500 C 150.644 34.500,150.500 34.557,150.500 34.626 C 150.500 34.695,150.265 34.856,149.977 34.983 C 147.777 35.957,145.096 40.130,144.399 43.667 C 144.122 45.068,144.326 49.530,144.684 49.908 C 144.766 49.995,144.833 50.277,144.833 50.533 C 144.833 50.790,144.908 51.000,145.000 51.000 C 145.092 51.000,145.167 51.188,145.167 51.417 C 145.167 51.646,145.242 51.833,145.333 51.833 C 145.425 51.833,145.500 51.983,145.500 52.167 C 145.500 52.350,145.575 52.500,145.667 52.500 C 145.758 52.500,145.833 52.650,145.833 52.833 C 145.833 53.017,145.908 53.167,146.000 53.167 C 146.092 53.167,146.167 53.267,146.167 53.389 C 146.167 53.844,148.931 57.000,149.330 57.000 C 149.395 57.000,149.666 57.187,149.932 57.416 C 150.199 57.646,150.504 57.833,150.611 57.833 C 150.718 57.833,150.831 57.892,150.861 57.964 C 150.932 58.131,152.494 58.887,153.583 59.281 C 154.633 59.662,161.494 59.739,161.858 59.375 C 161.973 59.260,162.203 59.167,162.369 59.167 C 162.535 59.167,162.820 59.092,163.002 59.000 C 163.184 58.908,163.482 58.758,163.664 58.667 C 163.846 58.575,164.109 58.500,164.248 58.500 C 164.386 58.500,164.500 58.425,164.500 58.333 C 164.500 58.242,164.598 58.167,164.719 58.167 C 164.839 58.167,165.098 58.017,165.295 57.833 C 165.492 57.650,165.699 57.500,165.755 57.500 C 165.811 57.500,165.956 57.406,166.077 57.292 C 166.198 57.177,166.510 56.933,166.770 56.750 C 167.499 56.238,168.073 55.613,169.083 54.233 C 169.267 53.983,169.510 53.684,169.625 53.568 C 169.740 53.452,169.833 53.239,169.833 53.095 C 169.833 52.951,169.908 52.833,170.000 52.833 C 170.092 52.833,170.167 52.683,170.167 52.500 C 170.167 52.317,170.242 52.167,170.333 52.167 C 170.425 52.167,170.500 52.029,170.500 51.861 C 170.500 51.693,170.551 51.504,170.614 51.441 C 170.900 51.156,171.189 49.970,171.270 48.750 C 171.318 48.017,171.436 47.256,171.532 47.059 C 171.627 46.861,171.657 46.376,171.599 45.975 C 171.540 45.576,171.429 44.646,171.352 43.909 C 171.202 42.490,171.113 42.104,170.716 41.167 C 170.281 40.139,169.533 38.699,169.332 38.500 C 169.286 38.454,169.027 38.117,168.756 37.750 C 168.217 37.018,166.328 35.170,166.118 35.168 C 166.045 35.167,165.825 35.017,165.628 34.833 C 165.431 34.650,165.172 34.500,165.052 34.500 C 164.932 34.500,164.833 34.425,164.833 34.333 C 164.833 34.242,164.683 34.167,164.500 34.167 C 164.317 34.167,164.167 34.092,164.167 34.000 C 164.167 33.908,164.017 33.833,163.833 33.833 C 163.650 33.833,163.500 33.758,163.500 33.667 C 163.500 33.575,163.349 33.500,163.164 33.500 C 162.980 33.500,162.699 33.435,162.539 33.356 C 161.649 32.911,160.862 32.795,158.417 32.743 C 156.950 32.713,155.450 32.752,155.083 32.830 M184.583 32.766 C 183.929 32.857,181.795 33.521,181.592 33.697 C 181.505 33.772,181.298 33.833,181.133 33.833 C 180.968 33.833,180.833 33.908,180.833 34.000 C 180.833 34.092,180.761 34.167,180.672 34.167 C 180.015 34.167,176.167 37.368,176.167 37.914 C 176.167 38.013,176.017 38.201,175.833 38.333 C 175.650 38.465,175.500 38.707,175.500 38.870 C 175.500 39.033,175.438 39.167,175.363 39.167 C 175.195 39.167,174.167 41.325,174.167 41.679 C 174.167 41.819,174.085 42.015,173.985 42.115 C 173.886 42.214,173.763 43.073,173.713 44.023 C 173.664 44.973,173.546 45.846,173.453 45.964 C 173.337 46.110,173.340 46.296,173.462 46.547 C 173.561 46.750,173.679 47.657,173.725 48.563 C 173.771 49.468,173.890 50.290,173.988 50.388 C 174.086 50.486,174.167 50.668,174.167 50.791 C 174.167 50.915,174.317 51.327,174.500 51.706 C 174.683 52.085,174.833 52.494,174.833 52.615 C 174.833 52.735,174.908 52.833,175.000 52.833 C 175.092 52.833,175.167 52.932,175.167 53.052 C 175.167 53.172,175.317 53.431,175.500 53.628 C 175.683 53.825,175.833 54.030,175.833 54.083 C 175.833 54.431,178.971 57.500,179.326 57.500 C 179.422 57.500,179.500 57.566,179.500 57.647 C 179.500 57.728,179.631 57.836,179.792 57.887 C 179.952 57.938,180.271 58.094,180.500 58.233 C 181.191 58.655,182.379 59.167,182.665 59.167 C 182.812 59.167,183.027 59.260,183.141 59.375 C 183.295 59.529,184.278 59.583,186.883 59.583 C 190.292 59.583,191.263 59.474,192.206 58.984 C 192.365 58.901,192.609 58.833,192.748 58.833 C 192.886 58.833,193.000 58.772,193.000 58.698 C 193.000 58.623,193.262 58.459,193.583 58.333 C 193.904 58.207,194.167 58.043,194.167 57.969 C 194.167 57.894,194.300 57.833,194.463 57.833 C 194.626 57.833,194.868 57.683,195.000 57.500 C 195.132 57.317,195.324 57.167,195.426 57.167 C 195.628 57.167,198.000 54.937,198.000 54.747 C 198.000 54.684,198.188 54.409,198.417 54.136 C 198.646 53.864,198.833 53.534,198.833 53.404 C 198.833 53.273,198.908 53.167,199.000 53.167 C 199.092 53.167,199.167 53.017,199.167 52.833 C 199.167 52.650,199.223 52.500,199.293 52.500 C 199.362 52.500,199.517 52.256,199.637 51.958 C 199.757 51.660,199.925 51.286,200.011 51.127 C 200.097 50.968,200.167 50.649,200.167 50.419 C 200.167 50.189,200.234 50.000,200.316 50.000 C 200.570 50.000,200.707 48.681,200.705 46.250 C 200.703 43.763,200.561 42.333,200.317 42.333 C 200.234 42.333,200.167 42.108,200.167 41.833 C 200.167 41.558,200.092 41.333,200.000 41.333 C 199.908 41.333,199.833 41.146,199.833 40.917 C 199.833 40.688,199.758 40.500,199.667 40.500 C 199.575 40.500,199.500 40.350,199.500 40.167 C 199.500 39.983,199.425 39.833,199.333 39.833 C 199.242 39.833,199.167 39.683,199.167 39.500 C 199.167 39.317,199.104 39.167,199.027 39.167 C 198.950 39.167,198.797 38.970,198.687 38.729 C 198.302 37.884,197.178 36.606,196.019 35.694 C 195.708 35.450,195.357 35.156,195.239 35.042 C 195.121 34.927,194.906 34.833,194.762 34.833 C 194.618 34.833,194.500 34.776,194.500 34.707 C 194.500 34.513,192.550 33.558,191.333 33.156 C 190.273 32.805,186.047 32.561,184.583 32.766 M213.417 32.772 C 212.966 32.839,212.652 32.934,211.583 33.321 C 210.016 33.890,207.974 35.186,206.953 36.259 C 205.426 37.863,205.167 38.164,205.167 38.329 C 205.167 38.423,205.107 38.500,205.034 38.500 C 204.830 38.500,203.667 40.882,203.667 41.299 C 203.667 41.501,203.592 41.667,203.500 41.667 C 203.408 41.667,203.333 41.892,203.333 42.167 C 203.333 42.442,203.258 42.667,203.167 42.667 C 203.075 42.667,203.000 42.989,203.000 43.383 C 203.000 43.778,202.920 44.180,202.823 44.277 C 202.597 44.503,202.715 47.930,202.988 49.083 C 203.096 49.542,203.227 50.160,203.277 50.458 C 203.328 50.756,203.437 51.000,203.518 51.000 C 203.600 51.000,203.667 51.152,203.667 51.339 C 203.667 51.721,204.464 53.387,204.688 53.472 C 204.768 53.503,204.833 53.601,204.833 53.690 C 204.833 54.113,207.631 57.167,208.018 57.167 C 208.124 57.167,208.333 57.298,208.482 57.458 C 208.631 57.619,208.932 57.851,209.150 57.974 C 209.367 58.097,209.800 58.341,210.111 58.516 C 210.422 58.690,210.787 58.833,210.922 58.833 C 211.056 58.833,211.167 58.892,211.167 58.964 C 211.167 60.047,220.179 59.733,220.639 58.633 C 220.669 58.560,220.808 58.500,220.947 58.500 C 221.086 58.500,221.398 58.289,221.641 58.031 C 222.544 57.074,222.667 57.170,222.667 58.829 C 222.667 59.645,222.592 60.360,222.500 60.417 C 222.408 60.473,222.333 60.739,222.333 61.007 C 222.333 62.078,220.290 65.000,219.542 65.000 C 219.427 65.000,219.333 65.075,219.333 65.167 C 219.333 65.258,219.183 65.333,219.000 65.333 C 218.817 65.333,218.667 65.408,218.667 65.500 C 218.667 65.592,218.404 65.667,218.083 65.667 C 217.762 65.667,217.500 65.742,217.500 65.833 C 217.500 65.932,216.889 66.000,216.000 66.000 C 215.111 66.000,214.500 65.932,214.500 65.833 C 214.500 65.742,214.275 65.667,214.000 65.667 C 213.725 65.667,213.500 65.592,213.500 65.500 C 213.500 65.408,213.387 65.333,213.248 65.333 C 212.759 65.333,211.051 64.004,210.576 63.253 C 210.314 62.839,210.040 62.500,209.967 62.500 C 209.893 62.500,209.833 62.387,209.833 62.250 C 209.833 62.112,209.758 62.000,209.667 62.000 C 209.575 62.000,209.500 61.850,209.500 61.667 C 209.500 61.305,208.621 61.170,208.417 61.500 C 208.360 61.592,208.168 61.667,207.990 61.667 C 207.812 61.667,207.667 61.732,207.667 61.813 C 207.667 61.893,207.447 62.002,207.179 62.056 C 206.732 62.145,205.501 62.640,204.794 63.014 C 204.635 63.098,204.392 63.167,204.255 63.167 C 203.651 63.167,204.102 65.652,204.708 65.664 C 204.777 65.666,204.833 65.751,204.833 65.853 C 204.833 65.955,205.061 66.312,205.339 66.645 C 206.642 68.203,207.126 68.701,207.667 69.040 C 207.987 69.242,208.395 69.540,208.573 69.703 C 208.751 69.866,208.988 70.000,209.101 70.000 C 209.213 70.000,209.331 70.056,209.361 70.125 C 209.453 70.333,210.842 71.000,211.182 71.000 C 211.357 71.000,211.500 71.066,211.500 71.148 C 211.500 71.725,218.850 72.050,219.402 71.498 C 219.493 71.407,219.740 71.333,219.952 71.333 C 220.164 71.333,220.468 71.267,220.627 71.186 C 220.786 71.105,221.104 70.965,221.333 70.874 C 222.287 70.496,223.333 69.938,223.333 69.807 C 223.333 69.730,223.411 69.667,223.507 69.667 C 223.822 69.667,226.333 67.272,226.333 66.971 C 226.333 66.888,226.483 66.658,226.667 66.462 C 226.850 66.265,227.000 66.005,227.000 65.885 C 227.000 65.765,227.075 65.667,227.167 65.667 C 227.258 65.667,227.333 65.553,227.333 65.414 C 227.333 65.276,227.420 64.994,227.526 64.789 C 227.940 63.989,228.000 63.827,228.000 63.512 C 228.000 63.333,228.067 63.145,228.149 63.094 C 228.298 63.002,228.342 62.782,228.652 60.583 C 228.748 59.902,228.820 54.027,228.825 46.458 L 228.833 33.500 225.750 33.500 L 222.667 33.500 222.667 34.333 C 222.667 35.306,222.652 35.315,222.001 34.693 C 221.559 34.271,220.353 33.607,218.917 32.997 C 218.417 32.785,214.419 32.621,213.417 32.772 M251.500 32.767 C 250.693 32.912,248.668 33.585,248.668 33.708 C 248.667 33.777,248.517 33.833,248.333 33.833 C 248.150 33.833,248.000 33.908,248.000 34.000 C 248.000 34.092,247.850 34.167,247.667 34.167 C 247.483 34.167,247.333 34.242,247.333 34.333 C 247.333 34.425,247.221 34.500,247.083 34.500 C 246.946 34.500,246.833 34.559,246.833 34.631 C 246.833 34.703,246.593 34.903,246.299 35.077 C 245.209 35.721,242.667 38.689,242.667 39.318 C 242.667 39.418,242.592 39.500,242.500 39.500 C 242.408 39.500,242.333 39.614,242.333 39.752 C 242.333 39.891,242.262 40.135,242.175 40.294 C 241.193 42.083,240.807 48.360,241.552 50.417 C 241.947 51.506,242.702 53.068,242.869 53.139 C 242.941 53.169,243.000 53.338,243.000 53.514 C 243.000 53.690,243.059 53.833,243.131 53.833 C 243.203 53.833,243.403 54.077,243.576 54.375 C 243.957 55.031,246.464 57.500,246.750 57.500 C 246.803 57.500,247.008 57.650,247.205 57.833 C 247.402 58.017,247.661 58.167,247.781 58.167 C 247.902 58.167,248.000 58.242,248.000 58.333 C 248.000 58.425,248.150 58.500,248.333 58.500 C 248.517 58.500,248.667 58.575,248.667 58.667 C 248.667 58.758,248.839 58.833,249.050 58.833 C 249.261 58.833,249.505 58.895,249.592 58.971 C 250.597 59.845,258.569 59.845,259.575 58.971 C 259.662 58.895,259.868 58.833,260.033 58.833 C 260.198 58.833,260.333 58.758,260.333 58.667 C 260.333 58.575,260.483 58.500,260.667 58.500 C 260.850 58.500,261.000 58.425,261.000 58.333 C 261.000 58.242,261.133 58.167,261.297 58.167 C 261.460 58.167,261.701 58.017,261.833 57.833 C 261.965 57.650,262.175 57.500,262.299 57.500 C 262.511 57.500,263.907 56.289,264.486 55.603 C 264.631 55.430,264.989 55.044,265.281 54.745 C 266.052 53.952,266.085 53.353,265.375 52.986 C 264.842 52.711,263.839 52.080,263.549 51.836 C 263.438 51.743,263.269 51.667,263.174 51.667 C 263.078 51.667,263.000 51.604,263.000 51.528 C 263.000 51.452,262.794 51.283,262.542 51.153 C 262.290 51.023,261.938 50.785,261.760 50.625 C 261.293 50.203,260.972 50.266,260.500 50.872 C 259.541 52.103,257.723 53.500,257.079 53.500 C 256.944 53.500,256.833 53.575,256.833 53.667 C 256.833 53.758,256.500 53.833,256.093 53.833 C 255.686 53.833,255.307 53.908,255.250 54.000 C 255.193 54.092,254.851 54.167,254.490 54.167 C 254.129 54.167,253.833 54.092,253.833 54.000 C 253.833 53.908,253.496 53.833,253.083 53.833 C 252.671 53.833,252.333 53.758,252.333 53.667 C 252.333 53.575,252.228 53.500,252.099 53.500 C 251.378 53.500,249.505 52.043,248.958 51.058 C 248.603 50.416,248.598 50.333,248.917 50.333 C 249.054 50.333,249.167 50.277,249.167 50.208 C 249.167 50.140,249.654 49.936,250.250 49.756 C 250.846 49.576,251.333 49.370,251.333 49.298 C 251.333 49.226,251.447 49.167,251.586 49.167 C 251.724 49.167,251.968 49.101,252.127 49.021 C 253.421 48.369,253.908 48.167,254.182 48.167 C 254.357 48.167,254.500 48.092,254.500 48.000 C 254.500 47.908,254.650 47.833,254.833 47.833 C 255.017 47.833,255.167 47.767,255.167 47.686 C 255.167 47.604,255.373 47.497,255.625 47.448 C 256.356 47.305,257.333 46.930,257.333 46.793 C 257.333 46.723,257.521 46.667,257.750 46.667 C 257.979 46.667,258.167 46.592,258.167 46.500 C 258.167 46.408,258.317 46.333,258.500 46.333 C 258.683 46.333,258.833 46.258,258.833 46.167 C 258.833 46.075,259.016 46.000,259.240 46.000 C 259.464 46.000,259.693 45.925,259.750 45.833 C 259.807 45.742,259.999 45.667,260.177 45.667 C 260.354 45.667,260.500 45.592,260.500 45.500 C 260.500 45.408,260.646 45.333,260.823 45.333 C 261.001 45.333,261.193 45.258,261.250 45.167 C 261.307 45.075,261.468 45.000,261.610 45.000 C 261.855 45.000,262.156 44.882,263.833 44.128 C 264.246 43.943,264.752 43.726,264.958 43.646 C 266.314 43.119,266.412 42.903,265.833 41.706 C 265.650 41.327,265.500 40.900,265.500 40.758 C 265.500 40.616,265.425 40.500,265.333 40.500 C 265.242 40.500,265.167 40.350,265.167 40.167 C 265.167 39.983,265.092 39.833,265.000 39.833 C 264.908 39.833,264.833 39.683,264.833 39.500 C 264.833 39.317,264.758 39.167,264.667 39.167 C 264.575 39.167,264.500 39.068,264.500 38.948 C 264.500 38.828,264.350 38.569,264.167 38.372 C 263.983 38.175,263.833 37.943,263.833 37.856 C 263.833 37.525,260.690 34.500,260.346 34.500 C 260.263 34.500,260.169 34.440,260.139 34.366 C 260.078 34.219,258.260 33.337,257.333 33.005 C 256.758 32.799,252.330 32.618,251.500 32.767 M336.410 37.420 C 337.047 37.651,337.609 37.895,337.659 37.962 C 337.709 38.029,337.940 38.181,338.171 38.300 C 338.403 38.419,338.816 38.849,339.088 39.255 C 339.360 39.661,339.640 39.994,339.708 39.996 C 339.777 39.998,339.833 40.150,339.833 40.333 C 339.833 40.517,339.908 40.667,340.000 40.667 C 340.092 40.667,340.167 40.812,340.167 40.990 C 340.167 41.168,340.242 41.360,340.333 41.417 C 340.425 41.473,340.500 41.703,340.500 41.927 L 340.500 42.333 333.583 42.333 C 327.184 42.333,326.252 42.276,326.833 41.917 C 326.925 41.860,327.000 41.631,327.000 41.407 C 327.000 41.183,327.075 41.000,327.167 41.000 C 327.258 41.000,327.333 40.850,327.333 40.667 C 327.333 40.483,327.392 40.333,327.464 40.333 C 327.536 40.333,327.722 40.127,327.877 39.875 C 328.427 38.980,329.263 38.235,330.250 37.760 C 330.800 37.496,331.362 37.221,331.500 37.150 C 332.134 36.820,335.224 36.990,336.410 37.420 M363.750 37.167 C 363.807 37.258,364.017 37.336,364.218 37.339 C 364.419 37.342,364.729 37.454,364.907 37.589 C 365.085 37.723,365.332 37.833,365.457 37.833 C 366.101 37.833,368.333 40.691,368.333 41.516 C 368.333 41.690,368.408 41.833,368.500 41.833 C 368.592 41.833,368.667 41.946,368.667 42.083 C 368.667 42.302,367.787 42.333,361.750 42.333 C 353.927 42.333,354.523 42.469,355.341 40.871 C 355.794 39.986,357.619 37.833,357.917 37.833 C 357.981 37.833,358.269 37.731,358.558 37.606 C 358.847 37.481,359.271 37.299,359.500 37.201 C 360.035 36.972,363.612 36.944,363.750 37.167 M254.417 38.333 C 254.473 38.425,254.808 38.500,255.161 38.500 C 255.792 38.500,256.919 38.981,257.579 39.532 C 258.802 40.552,258.754 40.482,258.403 40.747 C 258.227 40.880,257.997 40.992,257.891 40.995 C 257.725 40.999,257.145 41.258,255.961 41.854 C 255.801 41.934,255.558 42.000,255.419 42.000 C 255.280 42.000,255.167 42.066,255.167 42.146 C 255.167 42.226,254.947 42.336,254.679 42.389 C 254.232 42.479,253.001 42.973,252.294 43.347 C 252.135 43.431,251.891 43.500,251.752 43.500 C 251.614 43.500,251.500 43.575,251.500 43.667 C 251.500 43.758,251.386 43.833,251.248 43.833 C 251.109 43.833,250.846 43.908,250.664 44.000 C 250.482 44.092,250.184 44.242,250.002 44.333 C 249.820 44.425,249.558 44.500,249.419 44.500 C 249.280 44.500,249.167 44.575,249.167 44.667 C 249.167 44.758,248.998 44.834,248.792 44.834 C 248.585 44.835,248.202 44.947,247.939 45.084 C 247.677 45.221,247.433 45.333,247.398 45.333 C 247.255 45.333,247.345 44.679,247.500 44.583 C 247.592 44.527,247.667 44.185,247.667 43.823 C 247.667 43.462,247.742 43.167,247.833 43.167 C 247.925 43.167,248.000 43.057,248.000 42.923 C 248.000 42.168,250.171 39.500,250.785 39.500 C 250.903 39.500,251.001 39.444,251.001 39.375 C 251.003 39.225,251.810 38.833,252.117 38.833 C 252.236 38.833,252.333 38.758,252.333 38.667 C 252.333 38.575,252.629 38.500,252.990 38.500 C 253.351 38.500,253.693 38.425,253.750 38.333 C 253.807 38.242,253.957 38.167,254.083 38.167 C 254.210 38.167,254.360 38.242,254.417 38.333 M159.583 38.667 C 159.640 38.758,159.869 38.833,160.093 38.833 C 160.317 38.833,160.500 38.908,160.500 39.000 C 160.500 39.092,160.650 39.167,160.833 39.167 C 161.017 39.167,161.167 39.242,161.167 39.333 C 161.167 39.425,161.247 39.500,161.344 39.500 C 161.570 39.500,162.681 40.325,162.962 40.700 C 163.079 40.856,163.271 41.081,163.390 41.200 C 163.750 41.563,164.500 42.928,164.500 43.223 C 164.500 43.375,164.575 43.500,164.667 43.500 C 164.758 43.500,164.833 43.758,164.833 44.073 C 164.833 44.389,164.908 44.693,165.000 44.750 C 165.092 44.807,165.167 45.482,165.167 46.250 C 165.167 47.018,165.092 47.693,165.000 47.750 C 164.908 47.807,164.833 48.037,164.833 48.262 C 164.833 48.487,164.758 48.820,164.667 49.002 C 164.575 49.184,164.437 49.465,164.360 49.625 C 164.022 50.330,163.301 51.556,163.117 51.739 C 162.757 52.099,161.174 53.167,161.002 53.167 C 160.909 53.167,160.833 53.242,160.833 53.333 C 160.833 53.425,160.646 53.500,160.417 53.500 C 160.188 53.500,160.000 53.575,160.000 53.667 C 160.000 53.758,159.700 53.833,159.333 53.833 C 158.967 53.833,158.667 53.908,158.667 54.000 C 158.667 54.092,158.371 54.167,158.010 54.167 C 157.649 54.167,157.307 54.092,157.250 54.000 C 157.193 53.908,156.899 53.833,156.597 53.833 C 155.412 53.833,152.646 51.915,151.901 50.577 C 151.801 50.397,151.636 50.100,151.536 49.917 C 150.675 48.348,150.669 42.500,151.528 42.500 C 151.604 42.500,151.667 42.387,151.667 42.250 C 151.667 42.112,151.742 42.000,151.833 42.000 C 151.925 42.000,152.000 41.887,152.000 41.750 C 152.000 41.612,152.075 41.500,152.167 41.500 C 152.258 41.500,152.333 41.418,152.333 41.317 C 152.333 40.772,155.102 38.824,155.865 38.831 C 156.020 38.832,156.193 38.758,156.250 38.667 C 156.307 38.575,157.054 38.500,157.917 38.500 C 158.779 38.500,159.527 38.575,159.583 38.667 M188.750 38.667 C 188.807 38.758,189.032 38.833,189.250 38.833 C 189.468 38.833,189.693 38.908,189.750 39.000 C 189.807 39.092,189.999 39.167,190.177 39.167 C 190.354 39.167,190.500 39.237,190.500 39.322 C 190.500 39.408,190.660 39.528,190.855 39.590 C 191.303 39.732,192.836 41.283,193.166 41.929 C 193.304 42.197,193.454 42.454,193.500 42.500 C 193.693 42.691,194.156 44.483,194.231 45.333 C 194.357 46.753,193.829 50.000,193.472 50.000 C 193.396 50.000,193.333 50.094,193.333 50.208 C 193.333 50.471,191.983 52.051,191.301 52.588 C 190.771 53.004,189.787 53.500,189.490 53.500 C 189.312 53.500,189.167 53.575,189.167 53.667 C 189.167 53.758,188.871 53.833,188.510 53.833 C 188.149 53.833,187.807 53.908,187.750 54.000 C 187.693 54.092,187.351 54.167,186.990 54.167 C 186.629 54.167,186.333 54.092,186.333 54.000 C 186.333 53.908,186.075 53.833,185.760 53.833 C 185.444 53.833,185.140 53.758,185.083 53.667 C 185.027 53.575,184.797 53.500,184.573 53.500 C 184.350 53.500,184.167 53.425,184.167 53.333 C 184.167 53.242,184.080 53.167,183.974 53.167 C 183.868 53.167,183.536 52.979,183.235 52.750 C 182.935 52.521,182.643 52.333,182.587 52.333 C 182.473 52.333,181.667 51.555,181.667 51.444 C 181.667 51.406,181.404 50.938,181.083 50.405 C 180.762 49.872,180.500 49.301,180.500 49.135 C 180.500 48.969,180.425 48.833,180.333 48.833 C 180.242 48.833,180.167 48.538,180.167 48.177 C 180.167 47.815,180.092 47.473,180.000 47.417 C 179.908 47.360,179.833 46.793,179.833 46.157 C 179.833 45.497,179.905 45.000,180.000 45.000 C 180.092 45.000,180.167 44.704,180.167 44.343 C 180.167 43.982,180.242 43.640,180.333 43.583 C 180.425 43.527,180.500 43.335,180.500 43.157 C 180.500 42.979,180.575 42.833,180.667 42.833 C 180.758 42.833,180.833 42.718,180.833 42.577 C 180.833 41.996,183.085 39.500,183.609 39.500 C 183.732 39.500,183.833 39.425,183.833 39.333 C 183.833 39.242,183.983 39.167,184.167 39.167 C 184.350 39.167,184.500 39.092,184.500 39.000 C 184.500 38.908,184.683 38.833,184.907 38.833 C 185.131 38.833,185.360 38.758,185.417 38.667 C 185.473 38.575,186.221 38.500,187.083 38.500 C 187.946 38.500,188.693 38.575,188.750 38.667 M217.833 38.667 C 217.833 38.758,217.976 38.833,218.151 38.833 C 219.264 38.833,222.333 41.692,222.333 42.729 C 222.333 42.867,222.408 43.027,222.500 43.083 C 222.592 43.140,222.667 43.365,222.667 43.583 C 222.667 43.802,222.742 44.027,222.833 44.083 C 222.930 44.143,223.000 45.054,223.000 46.250 C 223.000 47.446,222.930 48.357,222.833 48.417 C 222.742 48.473,222.667 48.740,222.667 49.010 C 222.667 49.279,222.592 49.500,222.500 49.500 C 222.408 49.500,222.333 49.650,222.333 49.833 C 222.333 50.017,222.258 50.167,222.167 50.167 C 222.075 50.167,222.000 50.279,222.000 50.417 C 222.000 50.554,221.944 50.668,221.875 50.669 C 221.806 50.670,221.616 50.951,221.451 51.294 C 221.171 51.879,219.610 53.167,219.181 53.167 C 219.081 53.167,219.000 53.242,219.000 53.333 C 219.000 53.425,218.850 53.500,218.667 53.500 C 218.483 53.500,218.333 53.575,218.333 53.667 C 218.333 53.758,218.038 53.833,217.677 53.833 C 217.315 53.833,216.973 53.908,216.917 54.000 C 216.860 54.092,216.560 54.167,216.250 54.167 C 215.940 54.167,215.640 54.092,215.583 54.000 C 215.527 53.908,215.185 53.833,214.823 53.833 C 214.462 53.833,214.167 53.758,214.167 53.667 C 214.167 53.575,214.035 53.498,213.875 53.496 C 213.715 53.494,213.396 53.346,213.167 53.167 C 212.938 52.987,212.670 52.839,212.571 52.837 C 212.260 52.831,210.500 50.993,210.500 50.674 C 210.500 50.578,210.444 50.499,210.375 50.499 C 210.225 50.497,209.833 49.690,209.833 49.383 C 209.833 49.264,209.758 49.167,209.667 49.167 C 209.575 49.167,209.500 48.942,209.500 48.667 C 209.500 48.392,209.425 48.167,209.333 48.167 C 209.232 48.167,209.167 47.417,209.167 46.250 C 209.167 45.083,209.232 44.333,209.333 44.333 C 209.425 44.333,209.500 44.113,209.500 43.843 C 209.500 43.574,209.575 43.307,209.667 43.250 C 209.758 43.193,209.833 43.001,209.833 42.823 C 209.833 42.646,209.908 42.500,210.000 42.500 C 210.092 42.500,210.167 42.399,210.167 42.276 C 210.167 42.153,210.317 41.916,210.500 41.750 C 210.683 41.584,210.833 41.382,210.833 41.300 C 210.833 41.219,210.910 41.062,211.003 40.951 C 211.096 40.841,211.303 40.593,211.461 40.402 C 211.620 40.210,212.313 39.770,213.000 39.423 C 213.688 39.076,214.362 38.731,214.500 38.656 C 214.866 38.456,217.833 38.466,217.833 38.667 " stroke="none" fill="#5c646c" fill-rule="evenodd"></path><path id="path3" d="M68.667 17.167 C 68.667 17.258,68.531 17.333,68.365 17.333 C 68.199 17.333,67.902 17.483,67.705 17.667 C 67.508 17.850,67.287 18.000,67.214 18.000 C 67.140 18.000,66.985 18.153,66.868 18.340 C 66.751 18.527,66.583 18.635,66.495 18.580 C 66.406 18.525,66.333 18.547,66.333 18.629 C 66.333 18.838,64.785 19.927,64.583 19.861 C 64.492 19.830,64.469 19.858,64.534 19.923 C 64.651 20.040,64.289 20.500,64.080 20.500 C 63.863 20.500,63.180 21.124,63.283 21.228 C 63.341 21.286,63.283 21.335,63.153 21.337 C 62.940 21.341,62.569 21.630,61.138 22.906 C 60.893 23.125,60.649 23.260,60.596 23.207 C 60.543 23.154,60.500 23.203,60.500 23.315 C 60.500 23.428,60.430 23.476,60.344 23.423 C 60.258 23.370,60.126 23.425,60.052 23.546 C 59.978 23.666,59.554 24.062,59.111 24.424 C 57.737 25.548,57.833 24.496,57.833 38.424 L 57.833 50.865 57.096 50.308 C 56.690 50.001,53.318 47.350,49.602 44.417 C 45.886 41.483,42.730 39.059,42.589 39.029 C 42.364 38.982,42.333 39.577,42.333 44.070 L 42.333 49.164 32.542 49.207 L 22.750 49.250 22.707 57.550 L 22.664 65.849 38.526 65.800 C 51.033 65.760,54.404 65.706,54.458 65.542 C 54.497 65.427,54.625 65.333,54.745 65.333 C 55.080 65.333,55.842 64.897,55.720 64.775 C 55.660 64.716,55.724 64.667,55.862 64.667 C 56.191 64.667,57.204 63.564,57.508 62.875 C 57.640 62.577,57.805 62.333,57.874 62.333 C 57.943 62.333,58.000 62.075,58.000 61.760 C 58.000 61.444,58.071 61.143,58.157 61.089 C 58.248 61.033,58.320 59.098,58.328 56.464 C 58.336 53.973,58.373 51.905,58.410 51.867 C 58.524 51.754,60.093 53.011,61.333 54.208 C 61.594 54.460,61.891 54.667,61.993 54.667 C 62.095 54.667,62.432 54.910,62.742 55.208 C 63.407 55.848,64.316 56.588,65.147 57.167 C 65.476 57.396,65.971 57.811,66.247 58.089 C 66.744 58.588,67.377 59.044,68.144 59.455 C 68.710 59.759,69.933 59.717,70.464 59.377 C 71.496 58.717,71.412 60.344,71.469 39.845 C 71.527 19.374,71.505 18.490,70.917 17.902 C 70.707 17.692,70.577 17.478,70.629 17.427 C 70.680 17.375,70.527 17.333,70.288 17.333 C 70.049 17.333,69.807 17.258,69.750 17.167 C 69.693 17.075,69.426 17.000,69.157 17.000 C 68.887 17.000,68.667 17.075,68.667 17.167 " stroke="none" fill="#04ab43" fill-rule="evenodd"></path><path id="path4" d="M71.417 38.349 C 71.417 48.882,71.473 57.500,71.542 57.500 C 71.703 57.500,71.701 19.645,71.539 19.391 C 71.472 19.285,71.417 27.816,71.417 38.349 M56.072 27.467 C 55.240 28.172,53.215 29.875,51.572 31.250 C 49.928 32.625,48.358 33.947,48.083 34.189 C 46.038 35.990,42.730 38.667,42.551 38.667 C 42.211 38.667,42.297 38.899,42.710 39.091 C 42.915 39.187,46.070 41.625,49.720 44.508 C 53.370 47.391,56.689 50.001,57.095 50.308 L 57.833 50.865 57.833 38.516 C 57.833 31.724,57.777 26.170,57.708 26.175 C 57.640 26.180,56.903 26.761,56.072 27.467 M342.009 34.958 C 342.014 35.027,342.258 35.266,342.551 35.489 L 343.083 35.895 342.594 35.364 C 342.085 34.812,341.994 34.749,342.009 34.958 M194.205 46.167 C 194.205 46.487,194.240 46.619,194.282 46.458 C 194.323 46.298,194.323 46.035,194.282 45.875 C 194.240 45.715,194.205 45.846,194.205 46.167 M137.906 53.875 L 137.417 54.417 137.958 53.927 C 138.256 53.658,138.500 53.414,138.500 53.385 C 138.500 53.257,138.362 53.370,137.906 53.875 M168.125 55.423 C 167.709 55.979,167.763 56.135,168.186 55.597 C 168.379 55.351,168.511 55.123,168.477 55.091 C 168.444 55.059,168.285 55.208,168.125 55.423 M176.833 55.483 C 176.833 55.638,177.814 56.583,177.876 56.488 C 177.902 56.449,177.678 56.179,177.378 55.889 C 177.078 55.599,176.833 55.416,176.833 55.483 M244.870 56.089 C 245.119 56.351,245.353 56.532,245.390 56.491 C 245.426 56.450,245.222 56.236,244.936 56.014 L 244.417 55.612 244.870 56.089 M263.821 56.292 L 263.417 56.750 263.917 56.333 C 264.192 56.104,264.448 55.898,264.486 55.875 C 264.524 55.852,264.481 55.833,264.390 55.833 C 264.299 55.833,264.043 56.040,263.821 56.292 M210.672 63.269 C 210.665 63.529,211.319 64.333,211.538 64.333 C 211.637 64.333,211.569 64.202,211.387 64.042 C 211.205 63.881,210.971 63.600,210.867 63.417 C 210.762 63.233,210.675 63.167,210.672 63.269 M37.750 65.833 L 22.583 65.919 37.865 65.960 C 47.917 65.986,53.182 65.943,53.250 65.833 C 53.307 65.742,53.255 65.685,53.135 65.707 C 53.015 65.729,46.092 65.786,37.750 65.833 " stroke="none" fill="#05842b" fill-rule="evenodd"></path></g></svg>