<svg width="351" height="351" viewBox="0 0 351 351" fill="none" xmlns="http://www.w3.org/2000/svg">
<path d="M179.009 325.047C244.931 325.047 298.371 294.193 298.371 256.132C298.371 218.071 244.931 187.216 179.009 187.216C113.088 187.216 59.6484 218.071 59.6484 256.132C59.6484 294.193 113.088 325.047 179.009 325.047Z" fill="#263238"/>
<path d="M260.119 198.217C215.325 172.355 142.696 172.355 97.9083 198.217C75.5074 211.147 64.3105 228.101 64.3105 245.047V249.849C64.3105 266.795 75.5425 283.741 97.9083 296.672C142.703 322.541 215.325 322.541 260.119 296.672C282.52 283.741 293.717 266.795 293.71 249.849V245.103C293.738 228.15 282.541 211.161 260.119 198.217Z" fill="#9269AD"/>
<path opacity="0.3" d="M260.119 198.217C215.325 172.355 142.696 172.355 97.9083 198.217C75.5074 211.147 64.3105 228.101 64.3105 245.047V249.849C64.3105 266.795 75.5425 283.741 97.9083 296.672C142.703 322.541 215.325 322.541 260.119 296.672C282.52 283.741 293.717 266.795 293.71 249.849V245.103C293.738 228.15 282.541 211.161 260.119 198.217Z" fill="white"/>
<path opacity="0.1" d="M140.927 307.532V182.576C125.216 185.763 110.467 191 97.9083 198.231C75.5074 211.161 64.3105 228.115 64.3105 245.061V249.863C64.3105 266.809 75.5425 283.755 97.9083 296.693C113.022 305.37 131.274 311.161 150.516 314.004C141.453 312.39 140.927 307.532 140.927 307.532Z" fill="black"/>
<path d="M260.121 198.217C215.326 172.355 142.697 172.355 97.9097 198.217C53.1221 224.078 53.1151 266.009 97.9097 291.87C142.704 317.732 215.326 317.732 260.121 291.87C304.915 266.009 304.915 224.078 260.121 198.217Z" fill="#9269AD"/>
<path opacity="0.8" d="M260.121 198.217C215.326 172.355 142.697 172.355 97.9097 198.217C53.1221 224.078 53.1151 266.009 97.9097 291.87C142.704 317.732 215.326 317.732 260.121 291.87C304.915 266.009 304.915 224.078 260.121 198.217Z" fill="white"/>
<path opacity="0.15" d="M238.421 213.155C205.61 194.201 152.419 194.201 119.608 213.155C86.7965 232.109 86.8035 262.808 119.608 281.748C152.412 300.688 205.61 300.702 238.421 281.748C271.233 262.794 271.226 232.095 238.421 213.155Z" fill="#9269AD"/>
<path d="M231.064 220.66C202.317 204.064 155.711 204.064 126.964 220.66C98.2171 237.255 98.182 264.184 126.964 280.765C155.746 297.346 202.317 297.36 231.064 280.765C259.81 264.17 259.81 237.276 231.064 220.66Z" fill="#9269AD"/>
<path opacity="0.8" d="M231.064 220.66C202.317 204.064 155.711 204.064 126.964 220.66C98.2171 237.255 98.182 264.184 126.964 280.765C155.746 297.346 202.317 297.36 231.064 280.765C259.81 264.17 259.81 237.276 231.064 220.66Z" fill="white"/>
<path d="M97.2344 288.052C106.784 293.03 116.891 296.857 127.343 299.452C137.749 302.077 148.363 303.789 159.067 304.57C169.756 305.358 180.491 305.325 191.176 304.471C201.85 303.643 212.436 301.919 222.822 299.319C233.198 296.787 243.25 293.077 252.784 288.262C262.232 283.411 271.099 277.192 277.929 269.105C281.365 265.095 284.092 260.53 285.995 255.605C287.901 250.665 288.703 245.367 288.347 240.084C287.973 234.765 286.516 229.579 284.065 224.844C282.845 222.458 281.436 220.174 279.853 218.013C278.274 215.833 276.552 213.76 274.7 211.807C276.668 213.66 278.514 215.639 280.225 217.732C281.924 219.85 283.45 222.102 284.788 224.464C287.516 229.229 289.239 234.501 289.849 239.958C290.389 245.471 289.72 251.036 287.891 256.265C286.022 261.469 283.278 266.315 279.775 270.593C276.305 274.859 272.331 278.689 267.94 282C263.588 285.317 258.967 288.264 254.124 290.81C244.415 295.784 234.16 299.612 223.566 302.218C202.421 307.398 180.553 308.969 158.884 306.865C148.08 305.867 137.395 303.85 126.971 300.842C121.778 299.312 116.676 297.488 111.689 295.38C106.697 293.296 101.866 290.846 97.2344 288.052Z" fill="white"/>
<path opacity="0.2" d="M220.316 221.979C197.508 208.81 160.52 208.81 137.712 221.979C114.904 235.149 114.897 256.504 137.712 269.673C160.527 282.843 197.508 282.843 220.316 269.673C243.124 256.504 243.131 235.17 220.316 221.979Z" fill="#9269AD"/>
<path opacity="0.2" d="M220.183 261.446L145.005 219.789L64.3105 245.208C64.3807 262.099 75.5425 278.982 97.9083 291.87C110.467 299.129 125.216 304.345 140.927 307.525L220.183 261.446Z" fill="#9269AD"/>
<path d="M60.457 196.314C60.457 213.941 77.3752 222.99 90.4044 228.487C100.183 232.594 107.624 233.977 112.707 238.16C112.244 235.724 101.012 176.062 101.012 176.062C96.3008 173.167 90.8315 171.749 85.3078 171.99C81.9532 172.086 78.673 173.002 75.7536 174.658L69.7024 178.168C64.7322 180.983 60.457 186.507 60.457 196.314ZM77.7473 192.804C77.7869 190.293 78.7032 187.874 80.3377 185.967C81.0067 185.842 81.6858 185.778 82.3665 185.777C84.7155 185.718 87.0527 186.128 89.2416 186.983C91.4305 187.837 93.4271 189.119 95.1148 190.754C98.0967 199.011 100.444 207.483 102.135 216.097C101.58 215.879 101.026 215.654 100.443 215.395C84.1355 208.585 77.7473 201.614 77.7473 192.832V192.804Z" fill="#FAFAFA"/>
<path d="M60.457 196.314C60.457 213.941 77.3752 222.99 90.4044 228.487C100.183 232.594 107.624 233.977 112.707 238.16C109.106 219.206 100.176 191.695 94.9884 179.543C90.2802 176.634 84.8075 175.203 79.2777 175.437C72.0962 175.605 60.457 180.133 60.457 196.314ZM71.689 196.314C71.6964 194.924 71.9775 193.549 72.5163 192.267C73.0551 190.986 73.8411 189.823 74.8293 188.845C75.8176 187.867 76.9887 187.094 78.2759 186.568C79.5631 186.043 80.9412 185.777 82.3314 185.784C84.6804 185.725 87.0176 186.135 89.2065 186.99C91.3954 187.844 93.392 189.126 95.0797 190.761C98.2527 199.024 102.661 215.717 102.9 222.113C100.148 221.137 97.4665 220.189 94.3917 218.898C78.1123 212.06 71.7241 205.089 71.7241 196.314H71.689Z" fill="#E0E0E0"/>
<path opacity="0.1" d="M93.4504 218.497C95.5316 223.378 98.0652 228.052 101.018 232.46C105.757 234.152 109.66 235.654 112.706 238.16C109.105 219.206 100.176 191.695 94.9878 179.543C92.416 177.961 89.6042 176.806 86.6621 176.125V185.117C86.6621 185.496 86.6621 185.869 86.6621 186.248C89.8313 186.962 92.7445 188.531 95.0861 190.783C98.2591 199.045 102.668 215.739 102.906 222.134C100.155 221.158 97.4729 220.21 94.3982 218.919L93.4504 218.497Z" fill="black"/>
<path d="M265.455 167.652C265.455 155.058 257.136 142.464 240.492 132.853C207.203 113.64 153.24 113.64 119.951 132.853C103.314 142.464 94.9883 155.058 94.9883 167.652V186.142C94.9883 208.748 103.969 230.429 119.954 246.414C127.869 254.329 137.265 260.607 147.606 264.891C157.948 269.174 169.032 271.379 180.225 271.379C202.83 271.377 224.509 262.396 240.492 246.411C256.476 230.426 265.455 208.747 265.455 186.142V167.652Z" fill="#FAFAFA"/>
<path d="M180.225 119.186C202.865 119.186 224.136 124.268 240.12 133.499C255.978 142.625 264.69 154.784 264.69 167.652V186.142C264.69 197.238 262.505 208.225 258.258 218.476C254.012 228.727 247.789 238.042 239.943 245.888C232.097 253.734 222.782 259.957 212.531 264.203C202.28 268.45 191.293 270.635 180.197 270.635C169.102 270.635 158.115 268.45 147.863 264.203C137.612 259.957 128.298 253.734 120.452 245.888C112.606 238.042 106.382 228.727 102.136 218.476C97.8901 208.225 95.7046 197.238 95.7046 186.142V167.652C95.7046 154.784 104.438 142.653 120.275 133.499C136.266 124.268 157.537 119.186 180.176 119.186H180.225ZM180.176 118.441C158.358 118.441 136.547 123.243 119.903 132.853C103.258 142.464 94.9395 155.058 94.9395 167.652V186.142C94.9395 197.34 97.1458 208.428 101.432 218.772C105.719 229.117 112.002 238.516 119.922 246.431C127.842 254.347 137.245 260.624 147.592 264.905C157.939 269.186 169.028 271.386 180.225 271.379C202.83 271.377 224.509 262.396 240.492 246.411C256.476 230.427 265.455 208.747 265.455 186.142V167.652C265.455 155.058 257.137 142.464 240.492 132.853C223.848 123.243 202.037 118.441 180.225 118.441H180.176Z" fill="#E0E0E0"/>
<path d="M153.619 258.294C118.028 243.082 119.425 214.77 131.268 216.125C143.11 217.48 164.964 221.671 193.872 216.223L194.132 137.669L108.895 140.695C99.6285 148.852 94.9883 158.245 94.9883 167.652V186.142C94.9883 208.749 103.969 230.429 119.954 246.414C135.939 262.399 157.619 271.379 180.225 271.379C200.234 271.406 219.609 264.365 234.932 251.498C221.32 261.432 189.218 273.506 153.619 258.294Z" fill="#E0E0E0"/>
<path d="M240.493 132.853C207.204 113.64 153.241 113.64 119.952 132.853C86.6634 152.067 86.6705 183.229 119.952 202.45C153.234 221.67 207.211 221.663 240.493 202.45C273.775 183.236 273.782 152.074 240.493 132.853ZM237.895 197.964C222.578 206.809 202.093 211.681 180.226 211.681C158.359 211.681 137.874 206.795 122.55 197.964C108.124 189.638 100.184 178.877 100.184 167.666C100.184 156.455 108.124 145.693 122.55 137.36C137.874 128.515 158.352 123.643 180.226 123.643C202.1 123.643 222.578 128.515 237.895 137.36C252.321 145.693 260.268 156.455 260.268 167.666C260.268 178.877 252.321 189.624 237.895 197.964Z" fill="white"/>
<path d="M237.894 137.353C222.577 128.501 202.092 123.629 180.225 123.629C158.358 123.629 137.866 128.501 122.549 137.353C108.108 145.679 100.176 156.434 100.176 167.652C100.187 170.869 100.829 174.053 102.064 177.023C105.195 169.301 112.208 162.064 122.549 156.097C137.866 147.251 158.351 142.38 180.225 142.38C202.099 142.38 222.577 147.251 237.894 156.097C248.235 162.064 255.241 169.28 258.386 177.023C259.619 174.052 260.258 170.868 260.267 167.652C260.267 156.441 252.32 145.679 237.894 137.353Z" fill="#EBEBEB"/>
<path d="M180.225 123.629C158.351 123.629 137.866 128.501 122.549 137.353C108.108 145.679 100.176 156.434 100.176 167.652C100.187 170.869 100.829 174.053 102.064 177.023C105.195 169.301 112.208 162.064 122.549 156.097C137.866 147.251 158.351 142.38 180.225 142.38C181.587 142.38 182.949 142.38 184.303 142.436C179.045 142.38 167.954 139.726 171.667 132.531C175.571 125.005 185.441 123.699 192.727 124.177C188.628 123.819 184.451 123.629 180.225 123.629Z" fill="#E0E0E0"/>
<path opacity="0.1" d="M180.225 123.629C158.351 123.629 137.866 128.501 122.549 137.353C108.108 145.679 100.176 156.434 100.176 167.652C100.187 170.869 100.829 174.053 102.064 177.023C105.195 169.301 112.208 162.064 122.549 156.097C137.866 147.251 158.351 142.38 180.225 142.38C181.587 142.38 182.949 142.38 184.303 142.436C179.045 142.38 167.954 139.726 171.667 132.531C175.571 125.005 185.441 123.699 192.727 124.177C188.628 123.819 184.451 123.629 180.225 123.629Z" fill="black"/>
<path d="M260.268 167.652C260.268 157.746 254.062 148.192 242.669 140.358C248.018 146.557 245.006 157.648 233.451 153.696H233.367C234.919 154.461 236.435 155.254 237.895 156.104C248.236 162.071 255.241 169.287 258.386 177.03C259.621 174.057 260.26 170.871 260.268 167.652Z" fill="#E0E0E0"/>
<path opacity="0.1" d="M260.268 167.652C260.268 157.746 254.062 148.192 242.669 140.358C248.018 146.557 245.006 157.648 233.451 153.696H233.367C234.919 154.461 236.435 155.254 237.895 156.104C248.236 162.071 255.241 169.287 258.386 177.03C259.621 174.057 260.26 170.871 260.268 167.652Z" fill="black"/>
<path d="M237.894 156.097C222.577 147.252 202.092 142.38 180.225 142.38C158.358 142.38 137.866 147.252 122.549 156.097C112.208 162.064 105.195 169.28 102.064 177.023C105.202 184.745 112.208 191.983 122.556 197.95C137.866 206.795 158.358 211.667 180.225 211.667C202.092 211.667 222.577 206.795 237.894 197.95C248.235 191.983 255.241 184.759 258.386 177.023C255.241 169.28 248.235 162.064 237.894 156.097Z" fill="#9269AD"/>
<path opacity="0.4" d="M237.894 156.097C222.577 147.252 202.092 142.38 180.225 142.38C158.358 142.38 137.866 147.252 122.549 156.097C112.208 162.064 105.195 169.28 102.064 177.023C105.202 184.745 112.208 191.983 122.556 197.95C137.866 206.795 158.358 211.667 180.225 211.667C202.092 211.667 222.577 206.795 237.894 197.95C248.235 191.983 255.241 184.759 258.386 177.023C255.241 169.28 248.235 162.064 237.894 156.097Z" fill="black"/>
<path opacity="0.3" d="M122.549 156.097C112.208 162.064 105.195 169.28 102.064 177.023C105.202 184.745 112.208 191.983 122.556 197.95C133.83 204.464 147.905 208.81 163.272 210.656C158.674 208.199 152.601 203.292 147.526 202.232C145.771 201.867 144.079 201.333 142.352 200.828C137.473 199.424 135.943 197.831 134.967 196.616C133.332 194.65 132.545 191.828 133.493 189.456C134.2 187.952 135.305 186.671 136.687 185.749C141.398 182.288 147.379 180.983 152.293 177.824C153.563 177.009 154.82 175.977 155.241 174.538C155.711 172.952 155.051 171.239 154.083 169.905C153.114 168.571 151.85 167.476 150.853 166.163C149.857 164.851 149.127 163.18 149.485 161.572C149.714 160.553 150.266 159.635 151.057 158.954C154.427 156.146 158.779 155.633 161.636 154.966C162.692 154.742 163.689 154.297 164.561 153.66C165.433 153.024 166.161 152.211 166.698 151.274C167.8 149.414 166.613 147.097 167.687 145.23C168.316 144.175 169.202 143.298 170.264 142.681C152.187 143.98 135.487 148.606 122.549 156.097ZM121.664 181.151C121.467 181.252 121.248 181.305 121.025 181.305C120.803 181.305 120.584 181.252 120.387 181.151C120.308 181.126 120.239 181.077 120.191 181.011C120.142 180.945 120.116 180.865 120.116 180.782C120.116 180.7 120.142 180.62 120.191 180.554C120.239 180.487 120.308 180.438 120.387 180.414C120.584 180.313 120.803 180.26 121.025 180.26C121.248 180.26 121.467 180.313 121.664 180.414C121.74 180.442 121.804 180.492 121.85 180.558C121.896 180.624 121.921 180.702 121.921 180.782C121.921 180.863 121.896 180.941 121.85 181.007C121.804 181.073 121.74 181.123 121.664 181.151ZM129.674 192.72C129.061 193.031 128.382 193.194 127.694 193.194C127.007 193.194 126.328 193.031 125.715 192.72C124.62 192.088 124.62 191.07 125.715 190.438C126.328 190.127 127.007 189.965 127.694 189.965C128.382 189.965 129.061 190.127 129.674 190.438C130.769 191.07 130.769 192.088 129.674 192.72ZM131.387 187.56C131.189 187.661 130.97 187.714 130.748 187.714C130.526 187.714 130.307 187.661 130.109 187.56C130.031 187.536 129.962 187.487 129.913 187.42C129.865 187.354 129.838 187.274 129.838 187.192C129.838 187.109 129.865 187.029 129.913 186.963C129.962 186.897 130.031 186.848 130.109 186.823C130.308 186.726 130.527 186.676 130.748 186.676C130.97 186.676 131.188 186.726 131.387 186.823C131.462 186.851 131.527 186.901 131.573 186.967C131.619 187.033 131.643 187.111 131.643 187.192C131.643 187.272 131.619 187.35 131.573 187.416C131.527 187.482 131.462 187.532 131.387 187.56ZM132.201 179.136C131.232 179.628 130.161 179.884 129.074 179.884C127.987 179.884 126.916 179.628 125.946 179.136C124.22 178.139 124.22 176.525 125.946 175.528C126.916 175.036 127.987 174.78 129.074 174.78C130.161 174.78 131.232 175.036 132.201 175.528C133.928 176.539 133.928 178.153 132.201 179.15V179.136ZM145.441 158.652C145.753 158.493 146.098 158.41 146.448 158.41C146.799 158.41 147.144 158.493 147.456 158.652C147.58 158.691 147.688 158.768 147.765 158.873C147.842 158.978 147.883 159.105 147.883 159.235C147.883 159.365 147.842 159.491 147.765 159.596C147.688 159.701 147.58 159.778 147.456 159.817C147.144 159.976 146.799 160.059 146.448 160.059C146.098 160.059 145.753 159.976 145.441 159.817C145.32 159.775 145.216 159.696 145.142 159.592C145.068 159.487 145.029 159.362 145.029 159.235C145.029 159.107 145.068 158.982 145.142 158.878C145.216 158.773 145.32 158.694 145.441 158.652ZM136.273 165.89C134.546 164.893 134.546 163.278 136.273 162.281C137.241 161.79 138.311 161.534 139.397 161.534C140.482 161.534 141.553 161.79 142.521 162.281C144.248 163.278 144.248 164.893 142.521 165.89C141.553 166.382 140.483 166.639 139.398 166.641C138.312 166.642 137.241 166.387 136.273 165.897V165.89ZM140.401 179.55C140.087 179.71 139.741 179.792 139.39 179.792C139.038 179.792 138.692 179.71 138.379 179.55C138.257 179.51 138.152 179.432 138.077 179.328C138.002 179.224 137.962 179.099 137.962 178.971C137.962 178.843 138.002 178.718 138.077 178.614C138.152 178.511 138.257 178.433 138.379 178.392C138.692 178.233 139.038 178.15 139.39 178.15C139.741 178.15 140.087 178.233 140.401 178.392C140.522 178.433 140.628 178.511 140.702 178.614C140.777 178.718 140.818 178.843 140.818 178.971C140.818 179.099 140.777 179.224 140.702 179.328C140.628 179.432 140.522 179.51 140.401 179.55ZM149.442 170.586C151.415 171.73 151.415 173.576 149.442 174.714C148.336 175.274 147.113 175.566 145.873 175.566C144.632 175.566 143.41 175.274 142.303 174.714C140.33 173.576 140.33 171.73 142.303 170.586C143.41 170.025 144.632 169.733 145.873 169.733C147.113 169.733 148.336 170.025 149.442 170.586ZM155.999 153.633C155.802 153.733 155.585 153.785 155.364 153.785C155.143 153.785 154.925 153.733 154.729 153.633C154.664 153.6 154.609 153.55 154.571 153.488C154.533 153.426 154.512 153.354 154.512 153.282C154.512 153.209 154.533 153.137 154.571 153.076C154.609 153.014 154.664 152.963 154.729 152.931C154.925 152.831 155.143 152.779 155.364 152.779C155.585 152.779 155.802 152.831 155.999 152.931C156.075 152.957 156.141 153.006 156.188 153.071C156.234 153.137 156.259 153.215 156.259 153.296C156.259 153.376 156.234 153.454 156.188 153.52C156.141 153.585 156.075 153.634 155.999 153.661V153.633Z" fill="#9269AD"/>
<path opacity="0.3" d="M237.895 156.097C234.285 154.026 230.532 152.217 226.663 150.684C225.6 150.915 224.559 151.24 223.553 151.653C222.418 152.03 221.426 152.746 220.71 153.703C219.179 156.104 221.054 159.207 223.076 161.207C226.176 164.144 229.603 166.717 233.29 168.873C235.22 170.06 237.235 171.218 238.667 172.973C240.099 174.728 240.85 177.248 239.881 179.291C239.179 180.793 237.712 181.762 236.47 182.871C235.227 183.98 234.097 185.532 234.406 187.16C234.645 188.41 235.662 189.336 236.512 190.305C237.361 191.274 238.042 192.608 237.53 193.773C237.017 194.938 235.592 195.31 234.336 195.486C229.667 196.132 224.838 195.837 220.296 197.143C218.542 197.536 216.956 198.469 215.761 199.81C214.792 201.053 214.399 202.674 213.374 203.868C211.057 206.578 206.838 205.974 203.279 206.177C198.702 206.43 194.399 208.375 190.292 210.425C189.625 210.754 188.972 211.127 188.312 211.435C207.091 210.396 224.473 205.686 237.895 197.964C248.235 191.997 255.241 184.773 258.386 177.037C255.241 169.28 248.235 162.064 237.895 156.097ZM231.408 158.743C230.439 159.235 229.368 159.491 228.281 159.491C227.194 159.491 226.123 159.235 225.153 158.743C223.427 157.746 223.427 156.132 225.153 155.135C226.123 154.644 227.194 154.387 228.281 154.387C229.368 154.387 230.439 154.644 231.408 155.135C233.135 156.132 233.135 157.746 231.408 158.743ZM236.638 163.868C236.109 164.135 235.525 164.273 234.932 164.273C234.34 164.273 233.756 164.135 233.226 163.868C232.286 163.32 232.286 162.464 233.226 161.895C233.756 161.629 234.34 161.49 234.932 161.49C235.525 161.49 236.109 161.629 236.638 161.895C237.579 162.443 237.579 163.32 236.638 163.868ZM223.799 202.078C223.201 202.382 222.539 202.541 221.868 202.541C221.197 202.541 220.536 202.382 219.938 202.078C218.871 201.467 218.871 200.463 219.938 199.852C220.536 199.548 221.197 199.389 221.868 199.389C222.539 199.389 223.201 199.548 223.799 199.852C224.866 200.463 224.866 201.474 223.799 202.078ZM228.467 200.028C228.122 200.204 227.741 200.296 227.354 200.296C226.967 200.296 226.586 200.204 226.242 200.028C226.119 199.972 226.015 199.882 225.942 199.769C225.869 199.656 225.831 199.524 225.831 199.389C225.831 199.254 225.869 199.123 225.942 199.009C226.015 198.896 226.119 198.806 226.242 198.75C226.586 198.574 226.967 198.482 227.354 198.482C227.741 198.482 228.122 198.574 228.467 198.75C228.589 198.806 228.693 198.896 228.766 199.009C228.839 199.123 228.878 199.254 228.878 199.389C228.878 199.524 228.839 199.656 228.766 199.769C228.693 199.882 228.589 199.972 228.467 200.028ZM244.613 178.736C244.895 178.594 245.206 178.52 245.522 178.52C245.838 178.52 246.149 178.594 246.431 178.736C246.937 179.031 246.937 179.501 246.431 179.789C246.15 179.935 245.838 180.01 245.522 180.01C245.206 180.01 244.894 179.935 244.613 179.789C244.114 179.501 244.114 179.01 244.62 178.736H244.613ZM247.273 189.035C246.008 189.675 244.61 190.009 243.191 190.009C241.773 190.009 240.375 189.675 239.109 189.035C236.856 187.729 236.856 185.616 239.109 184.317C240.375 183.677 241.773 183.343 243.191 183.343C244.61 183.343 246.008 183.677 247.273 184.317C249.541 185.616 249.541 187.729 247.28 189.035H247.273ZM250.18 173.935C249.485 174.288 248.716 174.472 247.937 174.472C247.157 174.472 246.389 174.288 245.694 173.935C244.451 173.233 244.451 172.053 245.694 171.337C246.389 170.984 247.157 170.8 247.937 170.8C248.716 170.8 249.485 170.984 250.18 171.337C251.429 172.053 251.429 173.219 250.187 173.935H250.18ZM254.855 175.254C254.574 175.4 254.262 175.475 253.946 175.475C253.63 175.475 253.318 175.4 253.037 175.254C252.531 174.967 252.531 174.496 253.037 174.201C253.319 174.059 253.63 173.985 253.946 173.985C254.262 173.985 254.573 174.059 254.855 174.201C255.368 174.496 255.368 174.967 254.862 175.254H254.855Z" fill="#9269AD"/>
<path opacity="0.4" d="M168.958 142.822C151.408 144.226 135.206 148.789 122.549 156.097C112.208 162.064 105.195 169.28 102.064 177.023C105.202 184.745 112.208 191.983 122.556 197.95C126.51 200.218 130.633 202.175 134.89 203.805C126.466 198.947 117.902 191.632 117.866 181.874C117.803 162.548 141.243 145.861 168.958 142.822Z" fill="black"/>
<path opacity="0.1" d="M190.474 318.076C190.481 318.006 190.481 317.936 190.474 317.866C190.477 317.838 190.477 317.809 190.474 317.781C190.452 317.716 190.424 317.652 190.39 317.592L190.348 317.508C190.302 317.444 190.25 317.386 190.193 317.332C190.172 317.305 190.148 317.279 190.123 317.255C190.029 317.174 189.928 317.101 189.821 317.037L84.1702 258.673C85.7676 256.437 86.7174 253.804 86.915 251.063C86.9302 250.83 86.9302 250.595 86.915 250.361C86.915 250.361 86.915 250.305 86.915 250.277C86.8308 246.865 84.2966 243.166 78.7438 239.347C67.1748 231.379 40.5479 224.38 29.1966 230.923C25.2373 233.212 24.1422 236.581 24.9846 240.274C25.7498 244.247 28.3682 249.4 33.7666 255.079L33.8087 255.128C34.1597 255.493 34.5107 255.83 34.9039 256.23L35.0513 256.378C35.4725 256.792 35.9147 257.213 36.371 257.634C39.3855 260.512 42.8171 262.919 46.55 264.773C47.6355 265.301 48.7486 265.77 49.8845 266.177C51.6982 266.832 53.5624 267.337 55.4584 267.687C58.3025 268.203 61.1884 268.455 64.079 268.438C68.9449 268.453 73.7199 267.119 77.8733 264.584L178.386 325.202C181.552 327.034 190.495 322.394 190.502 319.698C190.502 319.438 190.502 318.385 190.502 318.104C190.481 318.097 190.474 318.09 190.474 318.076Z" fill="black"/>
<path d="M64.0495 264.514C76.6153 264.514 86.9417 255.816 86.9417 246.381L24.9902 236.385C25.8677 240.955 29.2022 247.111 36.3767 253.745C43.5511 260.379 51.4767 264.514 64.0495 264.514Z" fill="#EBEBEB"/>
<path opacity="0.15" d="M64.0495 264.514C76.6153 264.514 86.9417 255.816 86.9417 246.381L24.9902 236.385C25.8677 240.955 29.2022 247.111 36.3767 253.745C43.5511 260.379 51.4767 264.514 64.0495 264.514Z" fill="black"/>
<path opacity="0.15" d="M83.798 247.806C83.9454 254.566 75.8654 262.948 63.2926 262.906C51.0918 262.857 39.9441 257.452 31.6113 248.796C33.0935 250.549 34.6856 252.207 36.3779 253.759C43.5594 260.4 51.4779 264.528 64.0507 264.528C76.6236 264.528 86.943 255.83 86.943 246.395L83.7629 245.883C83.777 246.564 83.784 247.209 83.798 247.806Z" fill="black"/>
<path d="M78.765 235.451C67.1961 227.483 40.5692 220.484 29.2179 227.027C17.8665 233.569 29.9971 248.95 43.7984 255.633C57.4523 262.246 70.2147 261.46 79.5372 256.083C88.8598 250.705 90.2217 243.334 78.765 235.451Z" fill="#E6E6E6"/>
<path d="M41.5439 225.104C54.7064 225.104 70.6137 230.643 78.3919 235.992C83.7622 239.691 86.4158 243.335 86.2824 246.81C86.156 249.906 83.7131 252.917 79.2062 255.515C74.285 258.306 68.7179 259.758 63.0602 259.727C56.471 259.633 49.9895 258.041 44.1062 255.072C33.843 250.088 25.6366 241.046 25.3979 234.469C25.2926 231.576 26.6896 229.274 29.5467 227.624C32.4039 225.974 36.4614 225.118 41.5439 225.118V225.104ZM41.5439 224.458C36.6931 224.458 32.3688 225.23 29.2168 227.048C17.8725 233.598 29.996 248.972 43.7973 255.655C49.7693 258.664 56.3458 260.279 63.0321 260.379C68.8138 260.431 74.5069 258.957 79.5362 256.104C88.8587 250.72 90.2206 243.349 78.7639 235.465C70.4031 229.709 54.1939 224.458 41.5579 224.458H41.5439Z" fill="#E0E0E0"/>
<path d="M72.2347 237.107C60.9466 229.589 37.3243 222.478 29.2372 227.981C21.1502 233.485 34.3969 247.736 47.2857 254.166C60.0199 260.533 70.4868 260.217 77.1417 255.668C83.7967 251.119 83.4036 244.549 72.2347 237.107Z" fill="#F0F0F0"/>
<path d="M59.5779 234.37C51.5681 229.041 34.8184 224.001 29.076 227.925C23.3336 231.849 32.7475 241.909 41.8805 246.472C51.0135 251.035 58.3354 250.761 63.0528 247.539C67.7703 244.317 67.4965 239.649 59.5779 234.37Z" fill="#FAFAFA"/>
<path d="M189.765 313.092L82.6957 253.934C80.5871 255.521 78.2934 256.846 75.8652 257.88V259.466L178.357 321.284C181.523 323.109 190.467 318.441 190.474 315.774C190.474 315.521 190.474 314.461 190.474 314.187C190.472 313.956 190.404 313.73 190.279 313.536C190.153 313.342 189.975 313.188 189.765 313.092Z" fill="#E0E0E0"/>
<path opacity="0.25" d="M189.765 313.092L82.6957 253.934C80.5916 255.528 78.2971 256.853 75.8652 257.88V259.466L178.357 321.284C181.523 323.109 190.467 318.441 190.474 315.774C190.474 315.521 190.474 314.461 190.474 314.187C190.472 313.956 190.404 313.73 190.279 313.536C190.153 313.342 189.975 313.188 189.765 313.092Z" fill="black"/>
<path d="M178.357 319.698C182.022 321.804 193.429 315.226 189.765 313.113L82.6957 253.934C80.5916 255.528 78.2971 256.853 75.8652 257.88L178.357 319.698Z" fill="#F0F0F0"/>
<path d="M83.334 255.605C83.334 255.605 172.727 304.745 179.389 308.41C186.689 312.411 191.14 314.236 186.5 316.918C181.052 320.063 179.726 318.666 179.726 318.666C181.538 318.48 183.284 317.882 184.829 316.918C187.567 315.163 185.187 312.825 179.824 310.256C174.461 307.687 83.334 255.605 83.334 255.605Z" fill="#FAFAFA"/>
<path opacity="0.2" d="M185.16 178.842C186.34 171.576 183.054 165.981 175.964 161.172C167.779 155.619 154.202 147.996 150.987 131.787C144.999 101.271 184.037 84.4717 191.745 78.7715C200.478 72.3131 205.217 67.1885 203.974 54.8333C217.951 66.7181 223.63 92.5587 197.916 107.911C178.147 119.705 167.379 133.233 178.456 147.925C190.138 163.447 191.177 169.673 185.16 178.842Z" fill="#9269AD"/>
<path opacity="0.2" d="M207.315 74.3066C206.381 83.7485 195.381 90.3544 187.919 94.6646C180.456 98.9749 172.355 102.766 166.016 108.894C160.66 114.075 156.89 121.327 157.073 129.028C157.389 141.207 164.633 147.785 171.885 151.379C172.173 151.52 172.362 151.379 171.464 150.677C167.252 147.167 163.496 142.639 162.211 138.589C160.534 133.282 160.267 128.29 161.65 123.784C164.31 115.121 171.351 109.21 178.736 104.507C189.793 97.4867 207.111 89.5821 207.624 74.2785C207.631 73.9486 207.336 74.1241 207.315 74.3066Z" fill="#9269AD"/>
<path opacity="0.2" d="M187.898 30.8879C197.965 43.5239 196.827 61.6355 181.896 71.3582C166.964 81.0809 143.574 92.6148 144.121 111.618C135.487 99.9788 134.735 83.7134 149.372 72.5165C156.561 67.0129 170.699 60.9757 178.21 53.731C184.711 47.4481 189 39.4172 187.898 30.8879Z" fill="#9269AD"/>
<path d="M81.3914 70.3335C81.3914 72.8186 81.3353 75.2054 77.748 75.767C81.5318 75.7108 81.258 78.0976 81.4335 81.0881C81.5318 78.0976 81.7986 75.9565 84.747 75.8161C81.6933 75.3107 81.7775 73.8926 81.3914 70.3335Z" fill="#455A64"/>
<path d="M302.752 112.145C302.752 114.623 302.689 117.016 299.102 117.571C302.892 117.522 302.612 119.909 302.787 122.899C302.892 119.909 303.152 117.761 306.108 117.62C303.054 117.115 303.131 115.697 302.752 112.145Z" fill="#455A64"/>
<path d="M98.1055 116.399C98.1055 118.884 98.0423 121.271 94.4551 121.832C98.2459 121.776 97.9651 124.163 98.1476 127.153C98.2459 124.163 98.5056 122.022 101.461 121.881C98.4073 121.376 98.4846 119.958 98.1055 116.399Z" fill="#9269AD"/>
<path d="M24.9568 170.34C24.9568 172.074 24.9989 173.738 27.498 174.124C24.8585 174.124 25.0621 175.753 24.9287 177.831C24.8585 175.725 24.676 174.258 22.6191 174.159C24.7462 173.808 24.69 172.818 24.9568 170.34Z" fill="#EBEBEB"/>
<path d="M255.719 89.2173C255.719 90.9442 255.761 92.615 258.26 93.0011C255.62 93.0011 255.817 94.6297 255.69 96.7076C255.62 94.6016 255.438 93.1344 253.381 93.0362C255.529 92.6641 255.452 91.6953 255.719 89.2173Z" fill="#EBEBEB"/>
<path d="M46.6001 151.723C46.6001 154.208 46.6632 156.637 50.2575 157.164C46.4597 157.115 46.7475 159.508 46.5579 162.506C46.4597 159.508 46.1929 157.353 43.2305 157.213C46.3333 156.707 46.214 155.289 46.6001 151.723Z" fill="#E0E0E0"/>
<path d="M264.515 116.012C264.515 118.505 264.578 120.926 268.172 121.46C264.375 121.404 264.662 123.798 264.48 126.795C264.375 123.798 264.115 121.65 261.152 121.509C264.213 120.997 264.136 119.579 264.515 116.012Z" fill="#E0E0E0"/>
<path d="M227.21 35.135C227.21 37.6271 227.273 40.049 230.868 40.5755C227.07 40.5264 227.358 42.9202 227.168 45.9177C227.07 42.9202 226.803 40.7721 223.848 40.6247C226.908 40.1192 226.824 38.7012 227.21 35.135Z" fill="#E0E0E0"/>
<path d="M41.0107 174.728C40.7159 181.818 40.0139 184.226 33.8223 185.328C40.0981 185.869 40.6527 189.884 41.0107 195.711C41.2073 189.884 42.506 185.503 48.2624 185.23C42.3094 184.226 41.7549 181.664 41.0107 174.728Z" fill="#9269AD"/>
<path d="M247.898 97.8167C247.54 105.539 246.789 108.192 240.043 109.379C246.894 109.975 247.498 114.356 247.898 120.73C248.109 114.356 249.534 109.575 255.817 109.273C249.316 108.199 248.713 105.398 247.898 97.8167Z" fill="#9269AD"/>
<path d="M147.476 33.9487C146.873 40.3299 147.175 42.9905 140.779 43.9171C147.175 44.3524 147.139 48.1291 147.476 53.6118C147.666 48.1432 147.799 44.4226 153.577 43.9171C147.799 43.0747 148.178 40.4563 147.476 33.9487Z" fill="#455A64"/>
<path d="M136.363 49.4348C136.363 51.1688 136.321 52.8325 133.822 53.2186C136.462 53.2186 136.265 54.8472 136.392 56.9322C136.462 54.8262 136.644 53.352 138.701 53.2537C136.574 52.9027 136.63 51.948 136.363 49.4348Z" fill="#EBEBEB"/>
<path d="M110.067 98.322C109.744 105.405 109.057 107.82 102.879 108.908C109.148 109.449 109.702 113.464 110.067 119.291C110.264 113.464 111.563 109.084 117.319 108.803C111.366 107.82 110.812 105.258 110.067 98.322Z" fill="#E0E0E0"/>
<path d="M294.552 172.369C294.875 179.452 295.563 181.867 301.741 182.955C295.472 183.496 294.917 187.511 294.552 193.345C294.356 187.511 293.057 183.131 287.301 182.857C293.254 181.867 293.808 179.305 294.552 172.369Z" fill="#E0E0E0"/>
<path d="M311.021 189.695C311.225 194.194 311.66 195.732 315.584 196.42C311.604 196.764 311.253 199.312 311.021 203.019C310.895 199.312 310.073 196.532 306.416 196.357C310.193 195.732 310.551 194.103 311.021 189.695Z" fill="#455A64"/>
<path d="M306.424 164.352C306.536 166.802 306.775 167.638 308.916 168.017C306.747 168.206 306.55 169.589 306.424 171.611C306.361 169.589 305.912 168.101 303.918 167.982C305.975 167.638 306.171 166.753 306.424 164.352Z" fill="#455A64"/>
<path d="M253.85 220.948C257.907 220.772 260.231 220.905 263.397 224.191C266.563 227.476 282.281 241.446 282.281 241.446L278.293 255.654C276.042 254.94 273.868 253.999 271.807 252.846C268.135 250.853 255.52 238.104 255.52 238.104L253.85 220.948Z" fill="#9269AD"/>
<path opacity="0.1" d="M253.85 220.948C257.907 220.772 260.231 220.905 263.397 224.191C266.563 227.476 282.281 241.446 282.281 241.446L278.293 255.654C276.042 254.94 273.868 253.999 271.807 252.846C268.135 250.853 255.52 238.104 255.52 238.104L253.85 220.948Z" fill="black"/>
<path d="M262.759 219.101C261.846 218.203 260.765 217.178 261.102 216.497C261.485 215.694 261.956 214.936 262.506 214.237C262.864 213.886 263.503 214.377 263.721 215.037C263.818 215.668 263.775 216.313 263.594 216.925L262.759 219.101Z" fill="#C8856A"/>
<path d="M263.531 216.293C264.612 215.732 266.009 216.343 266.515 218.069C267.02 219.796 268.705 224.507 267.441 225.925C267.14 226.319 266.71 226.594 266.226 226.702C265.741 226.81 265.235 226.744 264.795 226.515C264.795 226.515 261.25 217.494 263.531 216.293Z" fill="#E0E0E0"/>
<path d="M271.146 219.684C271.097 219.315 270.969 218.96 270.772 218.645C270.575 218.329 270.312 218.058 270.002 217.852C269.084 216.977 268.114 216.159 267.096 215.402C266.534 215.107 265.867 215.521 265.39 216.006C264.912 216.49 263.93 217.41 263.824 217.915C263.826 218.389 263.955 218.855 264.196 219.263L265.537 224.107C265.537 224.107 266.295 224.163 266.499 223.84C266.436 224.086 266.962 224.64 267.075 224.654L267.215 225.469C267.215 225.469 266.787 226.318 265.046 226.072C263.305 225.827 261.178 226.627 260.757 228.178C260.335 229.73 265.13 237.346 265.13 237.346C266.308 237.408 267.486 237.236 268.598 236.841C271.076 236.139 272.726 233.268 272.726 233.268C272.726 233.268 269.539 228.831 269.798 228.227C270.058 227.624 270.802 226.318 271.139 225.693C271.476 225.068 271.392 224.507 271.603 224.107C271.795 223.842 271.92 223.534 271.966 223.21C272.013 222.885 271.979 222.555 271.869 222.246C272.019 221.734 272.057 221.195 271.982 220.667C271.828 220.251 271.532 219.903 271.146 219.684Z" fill="#C8856A"/>
<path opacity="0.5" d="M269.568 225.033C268.83 224.984 268.206 224.029 267.869 223.468C267.532 222.906 266.893 223.159 266.507 223.84C266.444 224.086 266.97 224.64 267.082 224.654L267.223 225.469C267.223 225.469 266.795 226.318 265.054 226.072C263.313 225.827 261.186 226.627 260.764 228.178C260.343 229.73 265.138 237.346 265.138 237.346C266.316 237.408 267.494 237.236 268.606 236.841C271.084 236.139 272.734 233.268 272.734 233.268C272.734 233.268 269.546 228.831 269.806 228.227C270.01 227.743 270.382 227.09 270.873 226.199C271.105 225.763 270.27 225.089 269.568 225.033Z" fill="#AF6152"/>
<path d="M270.009 218.856C269.854 218.856 269.701 218.815 269.567 218.736L269.16 218.519L268.387 218.07C267.892 217.763 267.355 217.526 266.794 217.367C266.548 217.297 266.285 217.314 266.05 217.417C265.812 217.571 265.597 217.758 265.411 217.971C265.011 218.406 264.639 218.884 264.225 219.333C264.501 218.79 264.822 218.271 265.186 217.782C265.377 217.508 265.615 217.27 265.888 217.08C266.199 216.917 266.56 216.877 266.899 216.967C267.5 217.139 268.064 217.419 268.563 217.796C268.816 217.964 269.054 218.154 269.265 218.343C269.476 218.563 269.729 218.737 270.009 218.856Z" fill="#AF6152"/>
<path d="M269.982 220.857C269.84 220.875 269.696 220.843 269.575 220.765C269.448 220.707 269.326 220.639 269.21 220.562L268.508 220.105C268.066 219.808 267.596 219.554 267.104 219.347C267.002 219.304 266.892 219.282 266.781 219.282C266.67 219.282 266.561 219.304 266.458 219.347C266.232 219.474 266.018 219.622 265.819 219.789L264.549 220.835C264.87 220.382 265.229 219.957 265.623 219.565C265.822 219.358 266.046 219.176 266.29 219.024C266.438 218.958 266.598 218.924 266.76 218.924C266.922 218.924 267.083 218.958 267.23 219.024C267.754 219.241 268.242 219.537 268.677 219.902C268.894 220.077 269.091 220.267 269.294 220.449C269.482 220.646 269.72 220.787 269.982 220.857Z" fill="#AF6152"/>
<path d="M269.897 223.019C269.644 223.082 269.412 222.913 269.195 222.808C268.977 222.703 268.794 222.534 268.598 222.387L268.036 221.959C267.84 221.818 267.657 221.657 267.475 221.552C267.138 221.313 266.731 221.495 266.309 221.713C265.89 221.937 265.482 222.183 265.088 222.45C265.392 222.069 265.752 221.735 266.155 221.46C266.367 221.304 266.605 221.185 266.857 221.109C266.996 221.069 267.141 221.059 267.284 221.079C267.427 221.1 267.564 221.151 267.685 221.229C267.894 221.362 268.091 221.512 268.275 221.678C268.463 221.83 268.644 221.992 268.815 222.162L269.328 222.661C269.475 222.837 269.674 222.962 269.897 223.019Z" fill="#AF6152"/>
<path opacity="0.5" d="M271.841 220.351C271.883 220.441 271.905 220.539 271.906 220.638C271.906 220.737 271.886 220.836 271.847 220.927C271.807 221.017 271.748 221.099 271.675 221.165C271.601 221.232 271.514 221.282 271.42 221.313C270.957 221.439 271.469 221.818 271.869 222.246C272.019 221.734 272.057 221.195 271.981 220.667C271.949 220.556 271.902 220.45 271.841 220.351Z" fill="#AF6152"/>
<path d="M267.075 224.64C267.416 224.688 267.764 224.624 268.065 224.458C267.705 224.529 267.331 224.493 266.991 224.352C266.863 224.228 266.765 224.076 266.704 223.908C266.643 223.74 266.621 223.561 266.64 223.384C266.538 223.524 266.487 223.695 266.493 223.868C266.493 224.107 266.795 224.64 267.075 224.64Z" fill="#874C4C"/>
<path d="M264.598 237.115C264.598 237.115 265.075 238.098 267.665 243.04C268.908 245.412 271.779 251.169 275.1 253.78C279.445 257.192 282.702 256.343 284.226 255.002C285.749 253.661 286.051 247.504 284.113 244.044C282.499 241.165 281.446 240.688 278.062 237.403C274.678 234.117 271.288 230.902 271.288 230.902C270.431 235.423 264.598 237.115 264.598 237.115Z" fill="#9269AD"/>
<path d="M222.969 266.36C224.331 280.168 227.462 289.161 233.787 294.44L260.561 272.973L260.217 259.108L222.969 266.36Z" fill="#455A64"/>
<path d="M225.693 226.086C225.693 226.086 232.713 222.576 238.603 221.608C243.635 220.724 248.761 220.502 253.85 220.948C253.85 220.948 258.35 221.544 260.561 231.155C262.113 237.894 260.786 244.767 260.751 251.049C261.081 253.857 261.692 255.416 262.33 258.617C262.387 260.021 261.109 261.523 259.382 262.766C256.391 264.921 251.169 266.718 244.675 269.365C238.02 274.208 230.867 277.311 224.633 277.578C222.302 268.122 221.727 255.409 221.411 250.776C220.365 235.472 223.306 231.976 225.693 226.086Z" fill="#9269AD"/>
<path opacity="0.3" d="M225.693 226.086C225.693 226.086 232.713 222.576 238.603 221.608C243.635 220.724 248.761 220.502 253.85 220.948C253.85 220.948 258.35 221.544 260.561 231.155C262.113 237.894 260.786 244.767 260.751 251.049C261.081 253.857 261.692 255.416 262.33 258.617C262.387 260.021 261.109 261.523 259.382 262.766C256.391 264.921 251.169 266.718 244.675 269.365C238.02 274.208 230.867 277.311 224.633 277.578C222.302 268.122 221.727 255.409 221.411 250.776C220.365 235.472 223.306 231.976 225.693 226.086Z" fill="black"/>
<path d="M257.829 194.566C256.074 190.993 252.298 187.869 246.429 187.701C239.276 187.49 234.579 189.863 234.207 194.398C233.572 194.569 232.984 194.884 232.49 195.319C231.995 195.753 231.608 196.296 231.357 196.904C230.465 199.122 230.522 201.2 232.017 207.139C232.647 209.79 233.526 212.376 234.642 214.861C235.003 215.64 235.649 216.25 236.446 216.567L236.748 211.372V209.266C236.748 209.266 239.304 209.266 239.914 202.169C239.999 201.207 240.16 200.435 240.174 199.782L257.893 202.422C257.893 202.422 259.577 198.14 257.829 194.566Z" fill="#263238"/>
<path d="M231.884 212.482C233.829 213.696 235.865 211.99 235.865 211.99C235.865 211.99 235.703 216.904 235.521 219.593C235.338 222.281 234.517 222.59 233.646 222.864C235.265 224.481 237.208 225.737 239.346 226.55C244.864 228.424 250.515 226.55 247.82 222.85L248.051 219.965C249.513 220.136 250.991 220.113 252.446 219.895C255.338 219.305 256.623 217.915 257.276 215.177C258.181 211.4 258.504 208.052 257.795 205.862C257.67 205.457 257.611 205.035 257.62 204.612C257.733 202.976 257.733 201.334 257.62 199.698C257.472 198.415 256.869 197.227 255.921 196.35C252.972 193.724 248.711 196.855 244.604 198.077C242.906 198.582 239.578 198.224 238.567 197.641C239.824 199.291 239.304 202.106 238.188 205.883C237.809 207.188 237.325 207.42 237.037 207.385C235.886 207.266 235.577 205.806 234.931 204.984C234.6 204.658 234.197 204.413 233.755 204.269C233.313 204.125 232.843 204.085 232.383 204.153C231.923 204.221 231.485 204.395 231.104 204.661C230.723 204.927 230.408 205.278 230.185 205.686C229.846 206.243 229.62 206.861 229.521 207.505C229.423 208.15 229.453 208.807 229.612 209.44C229.77 210.072 230.052 210.667 230.442 211.189C230.832 211.711 231.323 212.151 231.884 212.482Z" fill="#C8856A"/>
<path d="M248.052 219.965C244.191 219.431 241.502 218.561 240.105 217.269C238.838 216.008 237.827 214.513 237.129 212.868C237.129 212.868 237.41 216.574 239.403 218.449C241.397 220.323 243.854 221.46 247.905 221.79L248.052 219.965Z" fill="#AF6152"/>
<path d="M249.498 203.187L249.842 210.684L253.878 209.561C252.913 207.136 251.416 204.958 249.498 203.187Z" fill="#AF6152"/>
<path d="M246.122 201.692L243.594 202.997C243.505 202.835 243.448 202.656 243.428 202.471C243.408 202.286 243.425 202.099 243.478 201.92C243.531 201.742 243.619 201.576 243.736 201.432C243.854 201.288 243.999 201.169 244.163 201.081C244.506 200.916 244.899 200.887 245.263 201C245.626 201.113 245.933 201.361 246.122 201.692Z" fill="#263238"/>
<path d="M253.422 201.285L256.23 201.881C256.274 201.701 256.281 201.514 256.252 201.331C256.223 201.148 256.158 200.972 256.061 200.814C255.964 200.656 255.836 200.519 255.686 200.41C255.535 200.302 255.365 200.225 255.184 200.183C254.805 200.104 254.41 200.174 254.082 200.38C253.753 200.585 253.517 200.909 253.422 201.285Z" fill="#263238"/>
<path d="M244.492 205.728C244.492 206.353 245.314 206.858 246.219 206.662C246.585 206.616 246.917 206.429 247.146 206.14C247.374 205.851 247.48 205.484 247.441 205.117C247.287 205.362 247.082 205.569 246.839 205.724C246.597 205.88 246.322 205.979 246.037 206.016C245.773 206.073 245.501 206.076 245.236 206.027C244.97 205.978 244.718 205.876 244.492 205.728Z" fill="#263238"/>
<path d="M253.168 204.654C253.035 205.272 253.66 205.967 254.572 206.016C254.938 206.071 255.31 205.979 255.609 205.761C255.907 205.543 256.107 205.216 256.166 204.851C255.956 205.043 255.706 205.188 255.435 205.274C255.163 205.36 254.876 205.386 254.593 205.349C254.322 205.334 254.056 205.264 253.811 205.145C253.566 205.026 253.348 204.859 253.168 204.654Z" fill="#263238"/>
<path d="M225.664 226.1C219.416 228.859 218.244 234.18 220.203 242.478C221.831 249.379 225.152 260.47 227.756 265.279C229.862 269.182 231.905 270.488 232.895 270.79L239.859 254.314L236.103 239.656C236.103 239.656 232.789 226.529 225.664 226.1Z" fill="#9269AD"/>
<path opacity="0.15" d="M238.419 248.698L237.457 244.942C235.506 247.392 233.351 250.502 232.178 252.165C230.627 254.37 229.995 259.185 230.241 261.888C230.416 263.791 235.457 254.412 238.419 248.698Z" fill="black"/>
<path d="M263.952 216.448C263.736 216.153 263.47 215.899 263.165 215.697L263.025 215.605C262.483 215.286 261.889 215.065 261.27 214.953C259.478 214.711 257.655 214.894 255.948 215.488C254.24 216.082 252.697 217.07 251.442 218.371C251.02 218.839 250.689 219.382 250.466 219.972C250.443 220.024 250.424 220.078 250.41 220.133C250.296 220.477 250.244 220.838 250.256 221.2C250.256 224.128 253.169 228.333 255.872 229.624L255.949 229.666L256.075 229.723L256.349 229.835L256.44 229.87L256.651 229.94L257.037 230.032C258.339 230.207 259.665 230.073 260.906 229.641C262.148 229.21 263.27 228.492 264.183 227.546C264.268 227.45 264.348 227.349 264.422 227.245L264.555 227.041L264.597 226.978L264.752 226.711C264.766 226.672 264.785 226.634 264.808 226.599L264.85 226.507C266.093 223.84 265.777 218.743 263.952 216.448Z" fill="white"/>
<path d="M259.738 215.163C260.235 215.16 260.731 215.204 261.22 215.296C261.808 215.398 262.372 215.608 262.883 215.914L262.996 215.984C263.271 216.173 263.509 216.411 263.698 216.686C265.375 218.792 265.804 223.706 264.505 226.437V226.479V226.529L264.463 226.613L264.33 226.858L264.294 226.908L264.182 227.076C264.116 227.174 264.043 227.268 263.964 227.357C263.216 228.13 262.321 228.747 261.331 229.17C260.342 229.593 259.277 229.814 258.201 229.821C257.843 229.821 257.486 229.788 257.134 229.723L256.79 229.638L256.593 229.575H256.551H256.509L256.257 229.47L256.144 229.421L255.997 229.73L256.102 229.4C253.427 228.073 250.704 223.959 250.704 221.235C250.694 220.914 250.739 220.594 250.837 220.288C250.853 220.238 250.872 220.188 250.893 220.14C251.105 219.591 251.415 219.085 251.806 218.645C252.834 217.571 254.064 216.71 255.425 216.113C256.786 215.515 258.252 215.193 259.738 215.163ZM259.738 214.812C256.741 214.812 253.287 216.216 251.448 218.371C251.026 218.839 250.695 219.382 250.472 219.972C250.449 220.024 250.43 220.078 250.416 220.133C250.302 220.477 250.25 220.838 250.261 221.2C250.261 224.128 253.175 228.333 255.877 229.624L255.955 229.666L256.081 229.723L256.355 229.835L256.446 229.87L256.657 229.94L257.043 230.031C257.414 230.097 257.789 230.13 258.166 230.13C259.291 230.12 260.403 229.886 261.437 229.443C262.471 228.999 263.406 228.355 264.189 227.546C264.274 227.45 264.354 227.349 264.428 227.245L264.561 227.041L264.603 226.978L264.758 226.711C264.772 226.672 264.791 226.634 264.814 226.599L264.856 226.507C266.127 223.805 265.811 218.708 264 216.413C263.784 216.118 263.518 215.864 263.213 215.662L263.073 215.57C262.531 215.251 261.937 215.03 261.318 214.917C260.796 214.834 260.267 214.799 259.738 214.812Z" fill="#E0E0E0"/>
<path d="M262.821 225.146C264.821 225.328 265.256 226.592 263.796 227.954C262.05 229.433 259.815 230.209 257.527 230.13C255.527 229.954 255.085 228.726 256.545 227.322C258.295 225.844 260.531 225.069 262.821 225.146Z" fill="#EBEBEB"/>
<path d="M262.582 225.426C264.386 225.567 264.765 226.676 263.438 227.904C261.845 229.22 259.832 229.918 257.766 229.87C255.962 229.73 255.576 228.621 256.91 227.392C258.502 226.076 260.516 225.378 262.582 225.426Z" fill="#E0E0E0"/>
<path opacity="0.1" d="M262.582 225.426C264.386 225.567 264.765 226.676 263.438 227.904C261.845 229.22 259.832 229.918 257.766 229.87C255.962 229.73 255.576 228.621 256.91 227.392C258.502 226.076 260.516 225.378 262.582 225.426Z" fill="black"/>
<path d="M262.583 225.426C260.517 225.378 258.504 226.076 256.911 227.392C256.767 227.442 256.634 227.519 256.52 227.62C256.407 227.721 256.314 227.844 256.247 227.981C256.181 228.118 256.142 228.266 256.133 228.418C256.124 228.57 256.145 228.722 256.195 228.866C256.244 229.01 256.322 229.143 256.423 229.256C256.524 229.37 256.647 229.463 256.783 229.529C256.92 229.596 257.069 229.635 257.221 229.644C257.373 229.653 257.525 229.632 257.669 229.582C259.735 229.63 261.75 228.929 263.341 227.61C263.494 227.568 263.637 227.495 263.761 227.396C263.885 227.297 263.987 227.173 264.062 227.032C264.136 226.892 264.18 226.738 264.192 226.579C264.204 226.421 264.183 226.262 264.131 226.112C264.079 225.962 263.997 225.824 263.889 225.707C263.782 225.59 263.651 225.497 263.506 225.433C263.361 225.368 263.204 225.335 263.045 225.334C262.886 225.332 262.729 225.364 262.583 225.426Z" fill="#E0E0E0"/>
<path d="M247.806 224.282C247.638 223.117 247.21 221.952 247.603 221.025C248.199 219.621 248.227 218.652 248.677 218.217C249.126 217.782 250.039 218.477 250.186 219.186L247.806 224.282Z" fill="#AF6152"/>
<path d="M248.395 222.766C248.993 221.414 249.663 220.094 250.402 218.813C251.167 217.82 252.067 216.938 253.077 216.195C254.102 215.346 255.085 214.166 255.52 214.615C255.748 214.836 255.894 215.128 255.935 215.443C255.976 215.758 255.909 216.078 255.745 216.349C255.365 216.981 254.298 218.371 254.298 218.371C254.298 218.371 256.404 216.855 257.219 216.153C258.033 215.451 258.623 214.875 259.093 215.275C259.563 215.675 259.465 216.399 258.805 217.206C258.123 218.038 257.399 218.834 256.636 219.593C256.004 220.217 255.492 220.842 255.492 220.842C255.492 220.842 257.5 219.473 258.18 218.884C258.861 218.294 259.683 217.536 259.971 217.81C260.378 218.196 260.448 219.129 259.563 220.175C258.209 221.769 256.882 223.089 256.264 223.84C255.646 224.591 254.958 225.525 255.267 225.735L256.748 224.331C257.605 223.503 258.854 222.225 259.437 222.043C260.02 221.86 260.841 222.113 260.216 223.243C259.413 224.587 258.472 225.843 257.408 226.992C256.18 228.396 255.899 228.634 255.801 229.322C255.702 230.01 256.236 232.882 256.124 234.187C255.99 235.732 255.422 236.012 254.544 237.395C253.842 238.533 251.736 243.264 251.736 243.264C247.335 241.86 245.832 239.551 246.12 236.757C246.12 236.757 247.622 234.103 247.819 232.081C248.072 229.428 247.65 226.669 247.664 225.44C247.677 224.501 247.928 223.581 248.395 222.766Z" fill="#C8856A"/>
<path d="M247.805 232.074C247.88 229.986 247.8 227.896 247.566 225.819C247.529 225.288 247.569 224.753 247.686 224.233C247.845 223.728 248.04 223.236 248.268 222.759C248.668 221.79 249.146 220.856 249.63 219.951C249.89 219.487 250.122 219.031 250.416 218.547C250.738 218.126 251.1 217.738 251.498 217.388C252.277 216.686 253.112 216.055 253.87 215.339C254.067 215.17 254.263 214.995 254.474 214.826C254.678 214.649 254.917 214.518 255.176 214.44C255.253 214.429 255.331 214.439 255.402 214.469C255.474 214.498 255.536 214.547 255.583 214.608C255.671 214.713 255.748 214.826 255.815 214.945C255.943 215.189 255.997 215.465 255.969 215.739C255.934 216.005 255.832 216.258 255.674 216.476C255.527 216.7 255.38 216.911 255.218 217.122C254.909 217.543 254.593 217.957 254.263 218.364C254.579 217.943 254.881 217.522 255.176 217.086C255.518 216.697 255.759 216.229 255.878 215.725C255.893 215.481 255.839 215.238 255.724 215.023C255.59 214.826 255.436 214.552 255.218 214.601C254.981 214.678 254.763 214.805 254.579 214.973C254.383 215.135 254.186 215.31 253.997 215.493C252.501 216.946 250.599 218.041 249.841 220.049C249.349 220.969 248.872 221.895 248.437 222.857C248.208 223.322 248.014 223.803 247.854 224.296C247.739 224.798 247.694 225.313 247.721 225.826C247.763 226.865 247.861 227.932 247.889 228.957C247.931 229.997 247.903 231.038 247.805 232.074Z" fill="#874C4C"/>
<path d="M254.3 218.371C253.906 218.75 253.478 219.073 253.113 219.466C252.75 219.857 252.424 220.28 252.137 220.73C251.821 221.172 251.506 221.608 251.176 222.036C251.01 222.256 250.827 222.463 250.628 222.654C250.419 222.84 250.156 222.953 249.877 222.976C250.425 222.836 250.698 222.352 251 221.902C251.302 221.453 251.597 221.004 251.906 220.562C252.201 220.099 252.555 219.677 252.959 219.305C253.378 218.956 253.827 218.644 254.3 218.371Z" fill="#AF6152"/>
<path d="M255.527 220.842C255.183 221.179 254.789 221.474 254.431 221.79C254.253 221.933 254.09 222.096 253.947 222.274C253.821 222.464 253.687 222.674 253.561 222.878C253.301 223.285 253.041 223.692 252.761 224.086C252.496 224.491 252.197 224.874 251.869 225.23C252.115 224.816 252.332 224.387 252.571 223.966C252.81 223.545 253.063 223.138 253.315 222.724C253.449 222.52 253.568 222.324 253.722 222.113C253.889 221.923 254.081 221.755 254.291 221.614C254.663 221.334 255.077 221.088 255.527 220.842Z" fill="#AF6152"/>
<path opacity="0.5" d="M256.265 223.84L256.483 223.587C255.69 224.267 254.973 225.03 254.342 225.862C254.019 226.332 254.005 226.564 254.138 226.641C254.271 226.718 254.714 226.248 254.714 226.248L255.268 225.742C254.959 225.518 255.654 224.591 256.265 223.84Z" fill="#AF6152"/>
<path d="M255.267 225.735C254.958 226.079 254.649 226.437 254.355 226.767C254.2 226.936 254.053 227.118 253.919 227.294C253.786 227.469 253.652 227.666 253.498 227.841C253.582 227.631 253.688 227.42 253.793 227.21C253.92 227.013 254.061 226.825 254.214 226.648C254.51 226.286 254.867 225.977 255.267 225.735Z" fill="#AF6152"/>
<path d="M254.503 220.646C254.484 220.59 254.461 220.536 254.433 220.484C254.433 220.435 254.363 220.393 254.328 220.344C254.242 220.238 254.143 220.144 254.033 220.063C253.916 219.976 253.789 219.906 253.654 219.852C253.598 219.828 253.539 219.812 253.478 219.803C253.422 219.803 253.373 219.803 253.373 219.873C253.376 219.901 253.387 219.928 253.405 219.95C253.422 219.973 253.445 219.99 253.471 220H253.527L253.619 220.049L253.731 220.112C253.808 220.165 253.881 220.223 253.949 220.288C253.981 220.316 254.011 220.347 254.04 220.379L254.082 220.428C254.142 220.521 254.21 220.607 254.286 220.688L254.335 220.751C254.384 220.828 254.503 220.821 254.489 220.709C254.495 220.688 254.5 220.667 254.503 220.646Z" fill="#AF6152"/>
<path d="M253.745 220.681C253.745 220.681 253.703 220.639 253.682 220.618L253.64 220.576H253.591L253.492 220.491L253.31 220.302C253.31 220.302 253.247 220.246 253.212 220.302C253.199 220.319 253.191 220.34 253.191 220.361C253.191 220.383 253.199 220.404 253.212 220.421C253.269 220.505 253.335 220.582 253.408 220.653L253.542 220.765C253.569 220.79 253.6 220.811 253.633 220.828C253.633 220.828 253.682 220.863 253.703 220.828C253.724 220.793 253.766 220.723 253.745 220.681Z" fill="#AF6152"/>
<path d="M251.722 219.115C251.728 219.092 251.728 219.068 251.722 219.045C251.704 218.997 251.675 218.953 251.637 218.919C251.599 218.878 251.556 218.84 251.511 218.807C251.435 218.748 251.352 218.699 251.265 218.659C251.171 218.61 251.069 218.576 250.963 218.561C250.915 218.55 250.865 218.55 250.816 218.561C250.774 218.561 250.767 218.624 250.774 218.666C250.781 218.695 250.797 218.72 250.82 218.739C250.843 218.758 250.871 218.769 250.9 218.771L251.02 218.807L251.125 218.842L251.244 218.905L251.293 218.94L251.392 219.017L251.434 219.059L251.504 219.122C251.504 219.122 251.553 219.165 251.574 219.179L251.637 219.214C251.645 219.221 251.655 219.224 251.665 219.224C251.676 219.224 251.686 219.221 251.694 219.214V219.172L251.722 219.115Z" fill="#AF6152"/>
<path d="M251.316 219.396C251.316 219.354 251.231 219.326 251.196 219.312H251.126L251.021 219.277L250.923 219.242H250.88H250.81H250.761C250.754 219.242 250.747 219.245 250.741 219.248C250.734 219.252 250.729 219.257 250.725 219.263C250.721 219.269 250.718 219.276 250.717 219.283C250.716 219.291 250.717 219.298 250.719 219.305C250.718 219.322 250.722 219.34 250.729 219.355C250.737 219.371 250.747 219.385 250.761 219.396C250.849 219.447 250.944 219.487 251.042 219.515L251.147 219.551H251.196H251.316C251.322 219.535 251.322 219.517 251.316 219.501C251.323 219.485 251.326 219.467 251.326 219.449C251.326 219.431 251.323 219.413 251.316 219.396Z" fill="#AF6152"/>
<path d="M255.325 222.759C255.133 222.673 254.953 222.562 254.791 222.429C254.616 222.281 254.503 222.092 254.335 221.938C254.335 221.938 254.272 221.938 254.272 221.973C254.27 222.046 254.284 222.118 254.312 222.186C254.339 222.254 254.381 222.315 254.433 222.366C254.509 222.465 254.596 222.554 254.693 222.632C254.871 222.798 255.088 222.914 255.325 222.969C255.336 222.973 255.349 222.973 255.361 222.971C255.373 222.969 255.384 222.963 255.393 222.956C255.403 222.948 255.411 222.939 255.416 222.928C255.421 222.917 255.423 222.904 255.423 222.892C255.422 222.863 255.412 222.834 255.394 222.81C255.377 222.787 255.352 222.769 255.325 222.759Z" fill="#AF6152"/>
<path d="M254.565 223.061L254.495 223.012L254.326 222.864C254.249 222.794 254.165 222.724 254.095 222.647C254.024 222.569 254.003 222.59 253.975 222.647C253.947 222.703 253.975 222.752 253.975 222.787C254.059 222.89 254.148 222.989 254.242 223.082L254.368 223.194L254.439 223.25L254.488 223.292C254.524 223.31 254.562 223.324 254.6 223.335C254.663 223.335 254.677 223.278 254.663 223.236C254.653 223.168 254.618 223.105 254.565 223.061Z" fill="#AF6152"/>
<path d="M256.72 226.346C256.65 226.247 256.567 226.158 256.475 226.079C256.378 225.988 256.269 225.91 256.152 225.848C256.098 225.82 256.042 225.799 255.983 225.784C255.892 225.784 255.885 225.883 255.983 225.932C256.029 225.971 256.079 226.006 256.131 226.037C256.174 226.063 256.217 226.091 256.257 226.121L256.306 226.164L256.404 226.255L256.447 226.304L256.524 226.409C256.576 226.502 256.637 226.589 256.706 226.669C256.706 226.669 256.819 226.732 256.833 226.669C256.847 226.606 256.798 226.451 256.72 226.346Z" fill="#AF6152"/>
<path d="M256.292 226.599C256.265 226.552 256.227 226.513 256.179 226.486L256.13 226.451L256.011 226.374L255.793 226.241H255.73C255.721 226.243 255.713 226.248 255.705 226.254C255.698 226.26 255.692 226.267 255.688 226.276C255.681 226.301 255.682 226.329 255.691 226.354C255.7 226.379 255.716 226.4 255.737 226.416L255.962 226.564L256.074 226.634L256.123 226.669L256.193 226.704H256.249C256.299 226.704 256.306 226.634 256.292 226.599Z" fill="#AF6152"/>
<path d="M246.304 236.146L234.187 252.72C233.141 254.159 230.032 258.336 230.109 264.212C230.158 267.897 230.874 272.341 236.673 270.656C240.927 269.421 242.682 267.848 245.216 263.327C246.732 260.618 248.635 254.995 249.779 251.681C251.759 245.932 252.882 242.169 252.882 242.169C251.12 242.541 246.585 239.017 246.304 236.146Z" fill="#9269AD"/>
<path d="M246.815 212.594C246.745 213.109 246.882 213.63 247.197 214.043C247.512 214.457 247.978 214.728 248.492 214.798C249.007 214.868 249.529 214.73 249.942 214.416C250.355 214.101 250.627 213.635 250.697 213.12L246.815 212.594Z" fill="#874C4C"/>
<path d="M248.508 214.812C248.928 214.867 249.354 214.783 249.722 214.574C249.4 214.128 248.967 213.774 248.466 213.547C247.965 213.321 247.413 213.229 246.865 213.282C246.947 213.675 247.149 214.034 247.443 214.308C247.738 214.582 248.109 214.758 248.508 214.812Z" fill="#F28F8F"/>
<path d="M332.748 334.251C332.696 334.874 332.425 335.458 331.983 335.9C330.889 336.886 329.509 337.498 328.044 337.648C326.675 337.913 325.275 337.972 323.888 337.824C322.496 337.673 321.171 337.146 320.056 336.3C319.228 335.57 318.474 334.761 317.802 333.886C317.265 333.216 316.628 332.634 315.914 332.159C315.582 331.987 315.24 331.837 314.889 331.709C314.489 331.513 314.096 331.302 313.688 331.12C312.67 330.656 311.14 330.06 310.487 329.147C309.715 328.087 309.905 327.125 309.785 325.314C309.441 324.163 309.231 323.208 309.231 323.208C307.441 321.053 302.337 315.591 300.582 313.703L309.862 305.932C313.007 311.225 314.861 314.889 317.409 318.729C318.897 320.969 319.761 322.127 320.547 323.201C321.634 324.653 322.846 326.006 324.169 327.245C324.91 327.979 325.711 328.651 326.563 329.252C327.195 329.71 327.856 330.125 328.543 330.495C329.68 331.141 330.01 331.162 331.07 331.773C331.543 332.002 331.947 332.352 332.241 332.787C332.536 333.222 332.71 333.727 332.748 334.251Z" fill="#C8856A"/>
<path d="M309.195 330.495C309.239 330.932 309.355 331.359 309.539 331.758C310.241 332.959 313.049 333.794 314.102 334.159C315.566 334.621 316.797 335.626 317.542 336.967C318.963 338.97 321.047 340.405 323.425 341.018C326.639 341.921 330.052 341.826 333.211 340.744C337.156 339.488 337.17 337.059 337.17 337.059C337.17 337.059 337.086 334.791 336.033 334.566C334.98 334.342 309.195 330.495 309.195 330.495Z" fill="#263238"/>
<path d="M309.209 323.215C308.76 323.299 308.816 323.594 308.802 323.875C308.928 324.72 308.928 325.578 308.802 326.423C308.498 327.787 308.631 329.211 309.181 330.495C310.585 332.559 315.345 332.825 317.261 334.868C319.178 336.911 321.059 339.515 326.486 339.873C331.912 340.232 335.71 338.013 336.489 336.363C337.268 334.714 336.187 333.422 332.558 332.039C328.704 330.572 323.2 325.412 323.2 325.405C323.067 325.293 322.947 325.167 322.828 325.047C322.224 324.444 320.877 323.243 320.687 322.331C320.651 321.995 320.583 321.663 320.483 321.341C320.405 321.208 320.296 321.096 320.165 321.014C320.035 320.932 319.886 320.883 319.732 320.87C318.224 320.937 316.755 321.368 315.45 322.127C314.814 322.435 314.25 322.872 313.793 323.412L313.695 323.545C313.486 323.822 313.373 324.16 313.372 324.507C313.488 325.063 313.728 325.586 314.074 326.037C313.578 325.846 313.137 325.535 312.79 325.132C312.588 324.866 312.322 324.656 312.017 324.521C311.035 324.261 310.01 324.275 309.68 323.945C309.475 323.736 309.315 323.488 309.209 323.215Z" fill="#37474F"/>
<path d="M322.92 339.066C322.826 337.834 323.07 336.599 323.627 335.495C324.184 334.391 325.032 333.461 326.079 332.804C329.8 330.242 332.397 331.232 333.731 331.955C335.324 332.804 337.69 334.714 336.637 336.469C335.5 338.364 333.422 339.466 329.357 340.049C325.293 340.632 322.92 339.066 322.92 339.066Z" fill="#FAFAFA"/>
<path d="M315.809 327.413C315.88 327.404 315.948 327.377 316.007 327.335C316.066 327.294 316.113 327.239 316.146 327.174C316.518 326.472 319.024 323.749 321.93 324.156C322.029 323.812 321.657 323.552 321.291 323.454C318.224 323.222 315.774 325.967 315.324 326.802C315.297 326.854 315.281 326.911 315.277 326.969C315.272 327.027 315.28 327.086 315.299 327.141C315.318 327.196 315.348 327.247 315.388 327.29C315.427 327.333 315.475 327.368 315.528 327.392C315.618 327.426 315.715 327.434 315.809 327.413Z" fill="#FAFAFA"/>
<path d="M323.903 326.051C323.987 325.791 323.411 325.349 323.103 325.349C320.098 325.349 317.887 327.932 317.487 328.733C317.459 328.784 317.443 328.841 317.439 328.9C317.434 328.958 317.442 329.016 317.461 329.072C317.48 329.127 317.51 329.178 317.55 329.221C317.589 329.264 317.637 329.298 317.69 329.322C317.777 329.367 317.875 329.382 317.971 329.365C318.042 329.354 318.109 329.327 318.168 329.286C318.227 329.244 318.274 329.189 318.308 329.126C318.645 328.424 321.102 325.826 323.903 326.051Z" fill="#FAFAFA"/>
<path d="M328.902 330.01C328.979 329.807 328.445 329.449 327.807 329.238C324.718 328.859 322.191 331.709 321.727 332.53C321.699 332.582 321.681 332.639 321.676 332.698C321.67 332.757 321.677 332.816 321.695 332.872C321.714 332.928 321.744 332.979 321.783 333.023C321.822 333.067 321.87 333.103 321.924 333.127C322.014 333.169 322.114 333.183 322.212 333.169C322.283 333.159 322.35 333.132 322.409 333.09C322.467 333.049 322.515 332.994 322.549 332.931C322.921 332.201 325.806 329.189 328.902 330.01Z" fill="#FAFAFA"/>
<path d="M320.111 331.246C320.182 331.236 320.248 331.209 320.307 331.169C320.365 331.129 320.414 331.076 320.448 331.014C320.813 330.312 323.355 327.645 326.219 327.982C326.289 327.701 325.77 327.329 325.313 327.28C322.245 327.28 320.055 329.849 319.627 330.649C319.599 330.701 319.583 330.758 319.578 330.816C319.573 330.875 319.58 330.934 319.598 330.989C319.616 331.045 319.646 331.097 319.685 331.141C319.723 331.185 319.771 331.221 319.824 331.246C319.917 331.277 320.018 331.277 320.111 331.246Z" fill="#FAFAFA"/>
<path d="M240.357 272.131C242.716 285.012 248.508 290.628 259.129 294.293C270.993 298.385 289.006 301.586 289.006 301.586C290.239 303.966 291.796 306.163 293.632 308.115C299.431 314.187 300.266 315.837 301.305 316.539C302.344 317.241 303.151 317.459 303.629 317.241L302.73 316.385C302.66 313.857 309.792 308.262 311.856 309.133L312.593 310.361C312.757 310.073 312.835 309.744 312.817 309.413C312.8 309.082 312.688 308.763 312.495 308.494C311.793 307.139 307.714 300.688 300.884 290.109C299.08 287.301 298.237 286.416 290.993 280.983C282.239 274.405 267.651 265.504 267.651 265.504L240.357 272.131Z" fill="#455A64"/>
<path d="M282.85 300.386C283.012 297.185 283.945 283.573 283.945 276.034C280.639 273.787 277.536 271.772 274.658 269.94L259.516 273.78L249.154 288.894C252.114 291.293 255.498 293.115 259.13 294.264C266.613 296.876 276.532 299.094 282.85 300.386Z" fill="#37474F"/>
<path d="M302.731 316.427C302.415 313.134 308.431 308.066 311.857 309.175L314.04 313.001C314.04 313.001 312.067 312.889 309.463 314.707C307.813 315.942 306.586 317.659 305.953 319.621L302.731 316.427Z" fill="#263238"/>
<path opacity="0.2" d="M289.007 301.586C288.445 299.968 288.117 298.278 288.031 296.567C287.77 298.165 287.751 299.793 287.975 301.397L289.007 301.586Z" fill="black"/>
<path d="M292.734 320.562C292.584 321.169 292.214 321.7 291.695 322.05C290.453 322.843 288.987 323.212 287.518 323.103C286.125 323.131 284.736 322.949 283.397 322.562C282.054 322.175 280.841 321.43 279.887 320.407C279.197 319.546 278.592 318.62 278.083 317.641C277.666 316.888 277.136 316.204 276.511 315.612C276.215 315.387 275.906 315.181 275.584 314.995C275.219 314.735 274.882 314.461 274.503 314.208C273.44 313.535 272.492 312.696 271.695 311.723C270.579 310.116 271.204 308.494 271.316 306.683C271.316 306.241 271.379 305.798 271.414 305.356L271.351 304.654C271.014 300.091 268.782 290.418 268.283 287.806L282.056 287.245C281.755 294.882 281.411 299.881 281.305 302.808C281.178 304.349 281.357 305.9 281.832 307.371C282.275 308.934 283.034 310.389 284.064 311.646C284.912 312.707 285.829 313.711 286.809 314.651C287.284 315.075 287.799 315.454 288.346 315.781C289.448 316.409 290.512 317.1 291.533 317.852C291.953 318.159 292.284 318.571 292.495 319.047C292.705 319.522 292.788 320.044 292.734 320.562Z" fill="#C8856A"/>
<path d="M270.178 312.825C270.146 313.265 270.189 313.706 270.305 314.131C270.789 315.437 273.401 316.743 274.383 317.276C275.747 317.98 276.787 319.182 277.29 320.632C278.216 322.85 280.154 324.493 282.393 325.637C285.405 327.076 288.784 327.566 292.081 327.041C296.188 326.479 296.616 324.093 296.616 324.093C296.616 324.093 296.918 321.839 295.914 321.446C294.91 321.053 270.178 312.825 270.178 312.825Z" fill="#263238"/>
<path d="M271.317 304.605C270.861 304.605 270.72 305.026 270.734 305.497C270.848 306.581 270.739 307.678 270.411 308.719C270.124 309.87 269.709 311.365 270.18 312.825C271.226 315.1 275.845 316.181 277.389 318.519C278.934 320.856 280.331 323.756 285.624 325.033C290.917 326.311 295.031 324.78 296.077 323.299C297.123 321.818 296.28 320.358 292.939 318.385C289.394 316.279 284.859 310.249 284.859 310.242C284.748 310.11 284.645 309.972 284.55 309.828C284.065 309.126 282.935 307.722 282.914 306.781C282.934 306.446 282.922 306.11 282.879 305.777C282.826 305.632 282.738 305.501 282.623 305.397C282.508 305.293 282.369 305.219 282.219 305.181C280.723 304.987 279.203 305.16 277.789 305.686C277.105 305.873 276.469 306.203 275.922 306.655L275.803 306.767C275.549 307.004 275.379 307.317 275.318 307.659C275.34 308.226 275.486 308.783 275.747 309.287C275.288 309.016 274.906 308.632 274.638 308.171C274.495 307.902 274.366 307.625 274.251 307.343C273.549 305.665 271.696 306.03 271.366 305.153L271.317 304.605Z" fill="#37474F"/>
<path d="M282.205 323.622C282.328 322.391 282.785 321.217 283.528 320.227C284.27 319.237 285.269 318.469 286.417 318.006C290.524 316.111 292.918 317.536 294.139 318.476C295.543 319.586 297.565 321.874 296.245 323.426C294.799 325.096 292.567 325.826 288.46 325.7C284.353 325.574 282.205 323.622 282.205 323.622Z" fill="#FAFAFA"/>
<path d="M277.219 310.923C277.292 310.925 277.364 310.911 277.43 310.88C277.496 310.85 277.553 310.804 277.599 310.748C278.076 310.13 281.017 307.862 283.804 308.768C283.966 308.445 283.643 308.122 283.299 307.94C280.315 307.188 277.437 309.47 276.854 310.214C276.818 310.26 276.791 310.313 276.776 310.369C276.761 310.426 276.758 310.485 276.766 310.543C276.775 310.601 276.795 310.656 276.826 310.706C276.857 310.755 276.898 310.798 276.946 310.832C277.025 310.891 277.121 310.923 277.219 310.923Z" fill="#FAFAFA"/>
<path d="M285.427 310.986C285.553 310.754 285.062 310.235 284.76 310.13C281.804 309.631 279.186 311.779 278.624 312.495C278.589 312.542 278.564 312.595 278.55 312.652C278.536 312.709 278.533 312.767 278.543 312.825C278.552 312.883 278.572 312.938 278.603 312.987C278.634 313.037 278.675 313.08 278.723 313.113C278.803 313.168 278.899 313.198 278.996 313.197C279.068 313.2 279.139 313.186 279.204 313.156C279.269 313.125 279.325 313.079 279.368 313.022C279.839 312.39 282.71 310.284 285.427 310.986Z" fill="#FAFAFA"/>
<path d="M289.674 315.725C289.786 315.542 289.316 315.093 288.733 314.777C285.749 313.871 282.745 316.251 282.169 316.981C282.134 317.028 282.109 317.081 282.095 317.138C282.081 317.194 282.078 317.253 282.087 317.311C282.097 317.369 282.117 317.424 282.148 317.473C282.179 317.523 282.22 317.565 282.267 317.599C282.346 317.659 282.442 317.691 282.541 317.69C282.613 317.692 282.683 317.676 282.748 317.646C282.812 317.616 282.869 317.571 282.913 317.515C283.426 316.862 286.76 314.384 289.674 315.725Z" fill="#FAFAFA"/>
<path d="M280.8 315.437C280.872 315.438 280.943 315.422 281.009 315.392C281.075 315.362 281.133 315.317 281.179 315.261C281.656 314.651 284.618 312.453 287.384 313.261C287.497 313.001 287.047 312.559 286.612 312.383C283.593 311.864 280.996 314.012 280.434 314.728C280.398 314.774 280.372 314.826 280.356 314.883C280.341 314.94 280.338 314.999 280.346 315.056C280.355 315.114 280.375 315.17 280.406 315.22C280.437 315.269 280.478 315.312 280.526 315.346C280.605 315.405 280.701 315.437 280.8 315.437Z" fill="#FAFAFA"/>
<path d="M268.93 291.211L270.018 296.567C270.018 296.567 271.899 297.894 276.216 297.634C280.534 297.374 281.741 295.893 281.741 295.893L282.141 289.926L268.93 291.211Z" fill="#263238"/>
<path d="M229.589 289.091C234.391 298.835 246.5 300.505 254.159 297.241C267.687 291.457 280.625 259.677 279.965 252.067C279.305 244.458 271.541 242.043 257.971 252.769C250.677 258.533 246.002 263.959 240.386 272.123C238.112 272.889 230.277 277.037 228.01 282.232C228.115 284.595 228.65 286.92 229.589 289.091Z" fill="#455A64"/>
<path d="M240.359 272.13L238.253 272.945C235.36 276.321 234.104 280 235.55 286.135C235.388 283.25 236.469 275.486 240.359 272.13Z" fill="#37474F"/>
<path d="M275.886 245.946C279.852 247.455 283.741 251.393 283.348 265.819C283.067 276.188 282.78 285.805 282.569 289.687C282.513 290.825 281.902 291.618 280.463 292.172C277.209 293.337 273.676 293.476 270.34 292.573C269.845 292.438 269.396 292.171 269.042 291.8C268.688 291.429 268.443 290.968 268.332 290.467C267.813 288.15 267.027 283.489 266.318 278.266C265.195 269.989 264.549 262.653 266.648 256.757C269.091 249.968 275.886 245.946 275.886 245.946Z" fill="#455A64"/>
<path d="M266.171 265.869C265.293 269.315 264.57 269.091 264.971 278.006C265.132 281.572 265.462 285.026 265.511 286.767C266.08 285.981 266.676 285.11 267.224 284.282C266.599 280.533 265.09 270.333 266.171 265.869Z" fill="#37474F"/>
</svg>
