<svg width="206" height="133" viewBox="0 0 206 133" fill="none" xmlns="http://www.w3.org/2000/svg">
<path d="M102.904 132.252C159.379 132.252 205.161 129.58 205.161 126.282C205.161 122.985 159.379 120.312 102.904 120.312C46.429 120.312 0.646973 122.985 0.646973 126.282C0.646973 129.58 46.429 132.252 102.904 132.252Z" fill="#F5F5F5"/>
<path d="M24.3219 107.655C24.2667 107.649 24.2164 107.621 24.1817 107.577C24.1471 107.534 24.131 107.478 24.1369 107.423C24.1369 107.386 24.1689 106.98 24.1999 106.278C24.2579 105.223 24.3419 103.035 24.3109 100.097C24.3136 100.055 24.3136 100.012 24.3109 99.9701C24.2689 96.6901 24.0949 93.4621 23.7839 90.3701C23.4989 87.4851 23.0929 84.6851 22.5759 82.0481C22.1324 79.7771 21.5709 77.5307 20.8939 75.3181C20.7939 74.9911 20.6879 74.6691 20.5829 74.3421C20.4779 74.0151 20.4039 73.8151 20.3089 73.5421C20.0719 72.8511 19.8499 72.192 19.6599 71.58C19.2379 70.235 18.8689 68.8901 18.5519 67.5881C18.3619 66.8021 18.1929 66.0321 18.0249 65.2941C17.4667 62.5013 17.1473 59.666 17.0699 56.8191C17.0379 55.6961 17.0699 54.5781 17.1169 53.4961C17.1776 52.3571 17.2991 51.2221 17.4809 50.0961C17.4742 50.0201 17.4869 49.9437 17.5179 49.8741V49.7691C17.5214 49.7167 17.5418 49.6669 17.5759 49.6271C17.5955 49.6072 17.6189 49.5915 17.6446 49.5807C17.6704 49.57 17.698 49.5645 17.7259 49.5645C17.7538 49.5645 17.7814 49.57 17.8072 49.5807C17.8329 49.5915 17.8563 49.6072 17.8759 49.6271C17.9018 49.654 17.9206 49.6869 17.9307 49.7228C17.9408 49.7587 17.9419 49.7966 17.9339 49.8331V49.9441C17.9394 50.0232 17.9267 50.1025 17.8969 50.1761C17.7167 51.2851 17.5969 52.403 17.5379 53.5251C17.4749 54.5801 17.4589 55.7081 17.4909 56.8161C17.5663 59.6404 17.8838 62.453 18.4399 65.2231C18.5769 65.9561 18.7459 66.7231 18.9399 67.4961C19.2509 68.7961 19.6199 70.1331 20.0399 71.4671C20.2249 72.0741 20.4399 72.7271 20.6829 73.4131C20.7779 73.6821 20.8679 73.9401 20.9569 74.2131C21.0459 74.4861 21.1679 74.8671 21.2679 75.1941C21.9504 77.4219 22.5155 79.684 22.9609 81.9711C23.4879 84.6081 23.8889 87.4401 24.1739 90.3411C24.4849 93.4411 24.6589 96.6701 24.7009 99.9711V100.119C24.7329 103.057 24.6429 105.261 24.5899 106.311C24.5579 107.023 24.5319 107.45 24.5269 107.487C24.5163 107.534 24.4903 107.576 24.4532 107.606C24.4161 107.637 24.3699 107.654 24.3219 107.655Z" fill="#407BFF"/>
<path d="M17.74 49.8144C18.0887 49.4781 18.4746 49.1826 18.89 48.9334C19.3433 48.6668 19.8289 48.4594 20.335 48.3164" fill="#407BFF"/>
<path d="M17.7399 50.0202C17.7125 50.028 17.6834 50.028 17.6559 50.0202C17.631 50.0099 17.6084 49.9947 17.5895 49.9754C17.5706 49.9561 17.5559 49.9332 17.546 49.9081C17.5362 49.883 17.5316 49.8561 17.5324 49.8292C17.5333 49.8022 17.5396 49.7757 17.5509 49.7512C17.5585 49.7266 17.5731 49.7047 17.5929 49.6882C17.9491 49.34 18.3456 49.0355 18.7739 48.7812C19.2507 48.4903 19.7629 48.2617 20.2979 48.1012C20.3503 48.0867 20.4063 48.0935 20.4537 48.1201C20.5011 48.1467 20.536 48.1909 20.5509 48.2432C20.5656 48.2962 20.5589 48.3529 20.5324 48.4011C20.5059 48.4493 20.4616 48.4852 20.4089 48.5012C19.9183 48.6398 19.4477 48.8415 19.0089 49.1012C18.6102 49.3418 18.2387 49.6248 17.9009 49.9452C17.8809 49.9684 17.8562 49.9871 17.8285 50C17.8007 50.013 17.7705 50.0198 17.7399 50.0202Z" fill="#407BFF"/>
<path d="M17.3259 53.6857C17.2774 53.6879 17.23 53.6711 17.1939 53.6387L15.7939 52.4787C15.7541 52.4431 15.7296 52.3934 15.7258 52.3401C15.7219 52.2868 15.7389 52.2341 15.7731 52.1931C15.8074 52.152 15.8562 52.126 15.9094 52.1203C15.9625 52.1146 16.0158 52.1298 16.0579 52.1627L17.4579 53.3227C17.4961 53.3613 17.5176 53.4134 17.5176 53.4677C17.5176 53.522 17.4961 53.5741 17.4579 53.6127C17.4412 53.6336 17.4204 53.6509 17.3969 53.6636C17.3734 53.6763 17.3475 53.6842 17.3209 53.6867L17.3259 53.6857Z" fill="#407BFF"/>
<path d="M19.8399 71.7223C19.7848 71.7186 19.7331 71.6943 19.6949 71.6544C19.6568 71.6144 19.635 71.5616 19.6339 71.5063C19.7657 70.5723 20.1283 69.6859 20.6889 68.9273C20.9332 68.5941 21.2147 68.2898 21.5279 68.0203C21.5483 68.0004 21.5726 67.9848 21.5992 67.9746C21.6259 67.9644 21.6544 67.9599 21.6829 67.9612C21.7114 67.9624 21.7393 67.9696 21.7649 67.9821C21.7906 67.9947 21.8133 68.0124 21.8318 68.0341C21.8503 68.0558 21.8641 68.0811 21.8724 68.1084C21.8807 68.1357 21.8833 68.1644 21.8801 68.1928C21.8768 68.2211 21.8677 68.2485 21.8534 68.2732C21.8391 68.2979 21.8199 68.3194 21.7969 68.3363C21.5065 68.5924 21.2465 68.881 21.0219 69.1963C20.7193 69.6051 20.4793 70.0568 20.3099 70.5363C20.1857 70.8635 20.0971 71.2031 20.0459 71.5493C20.0459 71.6024 20.0248 71.6532 19.9873 71.6907C19.9498 71.7282 19.899 71.7493 19.8459 71.7493L19.8399 71.7223Z" fill="#407BFF"/>
<path d="M21.0819 75.451C21.0415 75.4504 21.0021 75.4382 20.9684 75.4159C20.9347 75.3935 20.9082 75.362 20.8919 75.325C20.6934 74.8874 20.4069 74.4953 20.0502 74.1732C19.6936 73.8512 19.2744 73.606 18.8189 73.453C18.7675 73.4339 18.7253 73.3961 18.7008 73.3471C18.6763 73.298 18.6713 73.2415 18.6869 73.189C18.7049 73.1368 18.7426 73.0938 18.792 73.0691C18.8413 73.0445 18.8984 73.0401 18.9509 73.057C19.462 73.2304 19.9318 73.5073 20.3311 73.8703C20.7304 74.2333 21.0507 74.6747 21.2719 75.167C21.2832 75.1918 21.2895 75.2187 21.2903 75.246C21.2911 75.2733 21.2865 75.3005 21.2767 75.3259C21.267 75.3514 21.2522 75.3747 21.2334 75.3945C21.2145 75.4142 21.1919 75.4301 21.1669 75.441C21.1405 75.4525 21.1114 75.4563 21.0829 75.452L21.0819 75.451Z" fill="#407BFF"/>
<path d="M24.249 93.9846C23.774 93.4576 23.342 91.4057 23.11 90.2927C23.052 90.0287 23.01 89.8027 22.968 89.6387" fill="#407BFF"/>
<path d="M24.248 94.1642C24.2182 94.1648 24.1887 94.159 24.1614 94.1471C24.1341 94.1351 24.1098 94.1174 24.09 94.0952C23.4794 92.9145 23.0778 91.637 22.903 90.3192C22.85 90.0552 22.803 89.8342 22.766 89.6702C22.7622 89.62 22.7765 89.5701 22.8062 89.5296C22.836 89.489 22.8793 89.4604 22.9283 89.4489C22.9773 89.4374 23.0288 89.4439 23.0735 89.467C23.1182 89.4902 23.1531 89.5286 23.172 89.5752C23.209 89.7382 23.256 89.9652 23.314 90.2292C23.4956 91.4719 23.8616 92.6806 24.4 93.8152C24.4198 93.8348 24.4356 93.8582 24.4463 93.884C24.457 93.9097 24.4626 93.9373 24.4626 93.9652C24.4626 93.9931 24.457 94.0208 24.4463 94.0465C24.4356 94.0723 24.4198 94.0956 24.4 94.1152C24.3794 94.1334 24.3552 94.1471 24.3291 94.1555C24.3029 94.164 24.2753 94.1669 24.248 94.1642Z" fill="#407BFF"/>
<path d="M18.734 67.7344C18.6834 67.7331 18.635 67.7132 18.5981 67.6786C18.5612 67.6439 18.5384 67.5968 18.534 67.5464C18.523 67.2084 17.996 59.1764 22.4 56.0124C22.4443 55.9805 22.4994 55.967 22.5535 55.9748C22.6075 55.9827 22.6565 56.0112 22.69 56.0544C22.7062 56.0764 22.7178 56.1015 22.7242 56.1281C22.7306 56.1546 22.7316 56.1822 22.7273 56.2092C22.7229 56.2362 22.7132 56.2621 22.6987 56.2853C22.6842 56.3085 22.6653 56.3286 22.643 56.3444C18.424 59.4134 18.951 67.4564 18.951 67.5354C18.953 67.5632 18.9494 67.5911 18.9403 67.6174C18.9313 67.6438 18.917 67.668 18.8983 67.6887C18.8796 67.7094 18.8569 67.726 18.8316 67.7377C18.8062 67.7493 18.7788 67.7557 18.751 67.7564L18.734 67.7344Z" fill="#407BFF"/>
<path d="M19.106 85.1666C18.579 87.1076 22.882 90.5726 22.882 90.5726C22.882 90.5726 28.314 89.6496 28.821 87.7086C28.9913 86.4722 28.7123 85.2158 28.0348 84.1676C27.3573 83.1194 26.3263 82.3491 25.129 81.9966C22.45 81.2956 19.612 83.2256 19.106 85.1666Z" fill="#407BFF"/>
<path d="M13.5079 62.1338C14.1199 64.1428 18.0909 65.4199 18.0909 65.4199C18.0909 65.4199 20.6749 62.1448 20.0629 60.1458C19.4509 58.1468 17.1889 55.9899 15.3799 56.5459C13.5709 57.1019 12.8989 60.1248 13.5079 62.1338Z" fill="#407BFF"/>
<path d="M24.095 68.1941C23.6167 68.6317 23.0627 68.9784 22.46 69.2171C22.1559 69.3306 21.8265 69.3586 21.5076 69.2981C21.1887 69.2377 20.8924 69.091 20.651 68.8741C20.4166 68.5478 20.2781 68.1626 20.2511 67.7619C20.2241 67.3611 20.3096 66.9608 20.498 66.6061C21.089 65.1291 23.398 62.5771 25.287 63.1941C28.014 64.0961 25.25 67.2591 24.095 68.1941Z" fill="#407BFF"/>
<path d="M18.7689 72.1195C19.1379 72.5365 19.5389 73.0745 19.3689 73.6065C19.2699 73.8353 19.0972 74.0245 18.8783 74.1439C18.6594 74.2633 18.4069 74.3061 18.1609 74.2655C17.6708 74.1721 17.2078 73.9701 16.8059 73.6745C15.8359 73.0575 13.8309 71.7655 15.0129 70.4205C16.1949 69.0755 17.9929 71.2335 18.7689 72.1195Z" fill="#407BFF"/>
<path d="M25.9039 53.4176C26.109 53.4201 26.308 53.4872 26.4728 53.6092C26.6376 53.7313 26.7598 53.9022 26.8219 54.0976C26.9219 54.5616 26.5529 54.9976 26.1889 55.2976C25.2769 56.0626 22.5389 58.1406 21.8269 56.2836C21.1259 54.5296 24.6279 53.3406 25.9039 53.4176Z" fill="#407BFF"/>
<path d="M20.404 47.4462C20.989 47.4722 21.559 47.2402 22.144 47.2462C22.729 47.2522 23.399 47.7002 23.294 48.2742C23.189 48.8482 22.55 49.0122 22.012 49.0742C21.0915 49.17 20.1626 49.1468 19.248 49.0052C19.0326 48.9929 18.8295 48.9009 18.678 48.7472C18.425 48.4092 18.778 47.9242 19.205 47.7822C19.6195 47.7146 20.0248 47.5995 20.413 47.4392L20.404 47.4462Z" fill="#407BFF"/>
<path d="M14.881 51.7024C14.301 51.7444 13.721 51.5234 13.135 51.5444C12.549 51.5654 11.89 52.0244 12.006 52.5994C12.122 53.1744 12.771 53.3224 13.306 53.3694C14.2271 53.447 15.1544 53.4026 16.064 53.2374C16.2813 53.2237 16.4852 53.1275 16.634 52.9684C16.877 52.6254 16.513 52.1514 16.107 52.0194C15.6907 51.9582 15.2823 51.8519 14.889 51.7024H14.881Z" fill="#407BFF"/>
<path d="M17.5759 50.5898C17.5219 50.5844 17.472 50.5585 17.4366 50.5173C17.4013 50.4762 17.3831 50.423 17.3859 50.3688C17.4649 49.2298 17.3439 48.1378 17.1279 48.0748C17.0976 48.0711 17.0684 48.0609 17.0423 48.0448C17.0163 48.0287 16.9941 48.0072 16.9772 47.9817C16.9604 47.9562 16.9493 47.9273 16.9447 47.897C16.9401 47.8668 16.9421 47.8359 16.9506 47.8065C16.9591 47.7772 16.9739 47.75 16.994 47.7269C17.0141 47.7038 17.0389 47.6854 17.0668 47.6728C17.0947 47.6603 17.125 47.654 17.1556 47.6543C17.1862 47.6546 17.2163 47.6616 17.2439 47.6748C17.9029 47.8648 17.8509 49.6418 17.7709 50.3958C17.768 50.4464 17.7465 50.4943 17.7106 50.5301C17.6746 50.5659 17.6266 50.5871 17.5759 50.5898Z" fill="#407BFF"/>
<path d="M17.9609 47.914C17.6395 47.1039 17.1125 46.3915 16.4319 45.847C16.2598 45.6824 16.0518 45.5601 15.8242 45.4899C15.5966 45.4197 15.3558 45.4036 15.1209 45.4427C14.886 45.4818 14.6635 45.5752 14.4709 45.7154C14.2784 45.8556 14.1212 46.0387 14.0118 46.2503C13.9025 46.4618 13.8439 46.6959 13.8408 46.934C13.8377 47.1722 13.8902 47.4078 13.9941 47.6221C14.098 47.8364 14.2504 48.0235 14.4392 48.1686C14.628 48.3137 14.8481 48.4128 15.0819 48.458C16.0146 48.7483 17.0119 48.7594 17.9509 48.49V48.063L17.9609 47.914Z" fill="#407BFF"/>
<path d="M24.971 114.657H24.934C24.8796 114.647 24.8314 114.616 24.7997 114.57C24.7681 114.525 24.7556 114.469 24.765 114.414C26.157 106.978 30.387 103.734 30.435 103.703C30.4568 103.687 30.4816 103.675 30.508 103.668C30.5343 103.662 30.5618 103.66 30.5887 103.664C30.6156 103.668 30.6415 103.677 30.6649 103.691C30.6883 103.705 30.7087 103.724 30.725 103.745C30.7413 103.767 30.7531 103.792 30.7598 103.818C30.7665 103.845 30.768 103.872 30.7641 103.899C30.7602 103.926 30.751 103.952 30.7371 103.975C30.7232 103.999 30.7048 104.019 30.683 104.035C30.641 104.067 26.538 107.226 25.177 114.488C25.1673 114.536 25.1416 114.579 25.104 114.609C25.0665 114.64 25.0195 114.657 24.971 114.657Z" fill="#407BFF"/>
<path d="M29.343 105.25C29.294 105.252 29.2462 105.235 29.2082 105.204C29.1702 105.174 29.1444 105.13 29.1355 105.082C29.1266 105.034 29.1351 104.984 29.1596 104.942C29.1841 104.899 29.2228 104.867 29.269 104.85C29.9816 104.648 30.7326 104.621 31.458 104.771C31.5056 104.787 31.5459 104.82 31.5717 104.863C31.5975 104.906 31.6071 104.957 31.5988 105.006C31.5905 105.056 31.5648 105.101 31.5263 105.133C31.4879 105.165 31.4392 105.183 31.389 105.182C30.7363 105.046 30.0605 105.066 29.417 105.24C29.3933 105.249 29.3681 105.252 29.343 105.25Z" fill="#407BFF"/>
<path d="M28.404 106.414C28.3504 106.414 28.2989 106.393 28.2604 106.356C28.2219 106.319 28.1995 106.268 28.198 106.214C28.1464 104.398 28.6426 102.608 29.622 101.077C29.6373 101.054 29.6571 101.035 29.6801 101.02C29.703 101.005 29.7288 100.995 29.7558 100.99C29.7828 100.985 29.8106 100.985 29.8374 100.991C29.8642 100.997 29.8896 101.008 29.912 101.024C29.9569 101.056 29.9876 101.104 29.9975 101.158C30.0074 101.213 29.9957 101.269 29.965 101.314C29.0457 102.772 28.5762 104.469 28.615 106.192C28.6165 106.22 28.6125 106.248 28.6032 106.274C28.594 106.3 28.5796 106.324 28.561 106.345C28.5425 106.365 28.52 106.382 28.4949 106.394C28.4699 106.406 28.4427 106.413 28.415 106.414H28.404Z" fill="#407BFF"/>
<path d="M26.917 108.846C26.864 108.846 26.8131 108.825 26.775 108.788C26.7552 108.769 26.7394 108.745 26.7287 108.719C26.7179 108.694 26.7124 108.666 26.7124 108.638C26.7124 108.61 26.7179 108.583 26.7287 108.557C26.7394 108.531 26.7552 108.508 26.775 108.488C27.1491 108.127 27.6123 107.872 28.1173 107.749C28.6223 107.626 29.1509 107.64 29.649 107.788C29.7007 107.805 29.7438 107.842 29.7694 107.89C29.7949 107.938 29.8009 107.994 29.786 108.046C29.7781 108.072 29.7652 108.096 29.7479 108.117C29.7307 108.138 29.7095 108.156 29.6855 108.168C29.6615 108.181 29.6353 108.189 29.6082 108.191C29.5812 108.194 29.5539 108.191 29.528 108.183C29.1014 108.062 28.6506 108.054 28.2198 108.159C27.789 108.264 27.3928 108.479 27.07 108.783C27.0505 108.804 27.0267 108.82 27.0003 108.831C26.9739 108.842 26.9455 108.847 26.917 108.846Z" fill="#407BFF"/>
<path d="M26.158 110.53C26.1186 110.53 26.08 110.519 26.0464 110.499C26.0128 110.478 25.9857 110.449 25.968 110.414C25.5159 109.298 25.3632 108.084 25.525 106.891C25.5362 106.839 25.5663 106.794 25.6094 106.763C25.6525 106.733 25.7054 106.72 25.7577 106.726C25.81 106.733 25.858 106.759 25.8921 106.799C25.9262 106.839 25.944 106.891 25.942 106.944C25.7931 108.057 25.9308 109.19 26.342 110.235C26.3581 110.266 26.3659 110.301 26.3645 110.337C26.3631 110.372 26.3526 110.407 26.334 110.437C26.3154 110.467 26.2893 110.492 26.2583 110.509C26.2273 110.526 26.1924 110.535 26.157 110.535L26.158 110.53Z" fill="#407BFF"/>
<path d="M25.377 112.21C25.377 112.242 25.224 112.4 25.82 112.442C27.286 112.537 29.87 112.505 30.809 111.261C32.143 109.489 28.947 109.573 29.227 108.582C29.507 107.591 32.972 108.492 33.604 107.082C34.236 105.672 31.737 105.89 31.832 105.162C31.927 104.434 34.58 105.447 35.402 103.954C36.224 102.461 33.952 103.216 34.302 102.599C34.652 101.982 37.466 99.4354 36.296 98.8394C35.126 98.2434 32.441 100.88 31.549 101.149C30.657 101.418 30.368 98.7494 29.207 99.6044C28.046 100.459 28.943 104.519 27.577 104.983C26.554 105.331 27.05 103.902 25.805 103.928C24.106 103.957 23.706 109.595 25.377 112.21Z" fill="#407BFF"/>
<g opacity="0.3">
<path opacity="0.3" d="M25.3759 112.21C25.3759 112.242 25.2229 112.4 25.8189 112.442C27.2849 112.537 29.8689 112.505 30.8079 111.261C32.1419 109.489 28.9459 109.573 29.2259 108.582C29.5059 107.591 32.9709 108.492 33.6029 107.082C34.2349 105.672 31.7359 105.89 31.8309 105.162C31.9259 104.434 34.5789 105.447 35.4009 103.954C36.2229 102.461 33.9509 103.216 34.3009 102.599C34.6509 101.982 37.4649 99.4354 36.2949 98.8394C35.1249 98.2434 32.4399 100.88 31.5479 101.149C30.6559 101.418 30.3669 98.7494 29.2059 99.6044C28.0449 100.459 28.9419 104.519 27.5759 104.983C26.5529 105.331 27.0489 103.902 25.8039 103.928C24.1049 103.957 23.7049 109.595 25.3759 112.21Z" fill="white"/>
</g>
<path d="M24.813 114.84C24.7668 114.84 24.7219 114.825 24.6856 114.796C24.6493 114.767 24.6238 114.727 24.613 114.682C23.5515 110.851 21.5037 107.365 18.674 104.572C18.6493 104.555 18.6285 104.533 18.613 104.507C18.5975 104.482 18.5877 104.453 18.5842 104.423C18.5807 104.393 18.5836 104.363 18.5927 104.335C18.6018 104.306 18.6169 104.28 18.6369 104.257C18.657 104.235 18.6816 104.217 18.7091 104.205C18.7366 104.193 18.7663 104.187 18.7964 104.188C18.8264 104.188 18.8559 104.195 18.8831 104.207C18.9103 104.22 18.9345 104.238 18.954 104.261C21.841 107.111 23.9304 110.668 25.014 114.577C25.0211 114.604 25.0228 114.631 25.0192 114.658C25.0156 114.685 25.0066 114.711 24.9928 114.735C24.9791 114.758 24.9608 114.779 24.939 114.795C24.9172 114.812 24.8924 114.823 24.866 114.83L24.813 114.84Z" fill="#407BFF"/>
<path d="M21.1849 107.57H21.1109C20.3847 107.301 19.611 107.185 18.8379 107.227C18.8097 107.229 18.7814 107.225 18.7548 107.216C18.7281 107.206 18.7037 107.191 18.6831 107.172C18.6624 107.153 18.6459 107.13 18.6346 107.104C18.6234 107.078 18.6176 107.05 18.6176 107.021C18.6176 106.993 18.6234 106.965 18.6346 106.939C18.6459 106.913 18.6624 106.89 18.6831 106.871C18.7037 106.852 18.7281 106.837 18.7548 106.827C18.7814 106.818 18.8097 106.814 18.8379 106.816C19.6682 106.77 20.4991 106.894 21.2799 107.18C21.3297 107.192 21.3732 107.222 21.402 107.265C21.4307 107.307 21.4426 107.359 21.4354 107.409C21.4281 107.46 21.4023 107.506 21.3628 107.539C21.3233 107.572 21.2731 107.588 21.2219 107.586L21.1849 107.57ZM21.2429 107.164H21.2899H21.2429Z" fill="#407BFF"/>
<path d="M22.0169 108.583C21.9895 108.582 21.9626 108.576 21.9376 108.564C21.9126 108.553 21.8902 108.537 21.8715 108.517C21.8529 108.497 21.8385 108.473 21.8291 108.447C21.8197 108.421 21.8156 108.394 21.8169 108.367C21.8519 106.854 21.4389 105.364 20.6299 104.085C20.6144 104.062 20.6033 104.037 20.5975 104.011C20.5916 103.985 20.591 103.957 20.5956 103.93C20.6003 103.904 20.6102 103.878 20.6248 103.855C20.6393 103.833 20.6582 103.813 20.6804 103.797C20.7026 103.782 20.7277 103.771 20.7541 103.765C20.7806 103.759 20.8079 103.758 20.8346 103.763C20.8613 103.768 20.8869 103.777 20.9097 103.792C20.9326 103.807 20.9524 103.825 20.9679 103.848C21.8342 105.2 22.2685 106.784 22.2129 108.389C22.21 108.44 22.1884 108.487 22.1522 108.523C22.116 108.559 22.0678 108.58 22.0169 108.583Z" fill="#407BFF"/>
<path d="M22.8869 109.942C22.834 109.942 22.7833 109.921 22.7449 109.884C22.4511 109.638 22.1001 109.469 21.7241 109.394C21.3481 109.318 20.9591 109.338 20.5929 109.452C20.567 109.46 20.5397 109.463 20.5127 109.461C20.4857 109.458 20.4594 109.45 20.4354 109.438C20.4115 109.425 20.3902 109.408 20.373 109.387C20.3557 109.366 20.3428 109.341 20.3349 109.315C20.3201 109.263 20.326 109.207 20.3515 109.159C20.3771 109.111 20.4202 109.074 20.4719 109.057C20.9081 108.922 21.3715 108.899 21.8189 108.991C22.2663 109.083 22.6829 109.287 23.0299 109.584C23.0611 109.613 23.083 109.65 23.0926 109.69C23.1022 109.731 23.099 109.774 23.0836 109.813C23.0681 109.852 23.0411 109.886 23.0061 109.909C22.9712 109.932 22.9299 109.944 22.8879 109.943L22.8869 109.942Z" fill="#407BFF"/>
<path d="M24.016 112.195C23.9865 112.203 23.9555 112.203 23.926 112.195C23.9014 112.184 23.8793 112.167 23.861 112.147C23.8426 112.128 23.8284 112.104 23.8191 112.079C23.8098 112.053 23.8057 112.026 23.8068 111.999C23.808 111.972 23.8145 111.945 23.826 111.921C24.1856 110.999 24.3053 110.001 24.174 109.021C24.1681 108.966 24.1842 108.91 24.2188 108.867C24.2534 108.823 24.3038 108.795 24.359 108.789C24.386 108.785 24.4134 108.787 24.4398 108.794C24.4661 108.801 24.4908 108.813 24.5123 108.83C24.5339 108.847 24.552 108.867 24.5655 108.891C24.579 108.915 24.5876 108.941 24.591 108.968C24.7388 110.026 24.6042 111.105 24.201 112.095C24.1825 112.127 24.1554 112.154 24.1227 112.171C24.09 112.189 24.0531 112.197 24.016 112.195Z" fill="#407BFF"/>
<path d="M24.697 113.788C23.2012 113.679 21.8026 113.006 20.784 111.905C19.977 110.913 22.166 111.451 21.907 110.645C21.648 109.839 19.001 110.561 18.458 109.416C17.915 108.271 19.858 108.456 19.75 107.86C19.642 107.264 17.64 107.475 16.96 106.278C16.28 105.081 18.052 105.687 17.76 105.178C17.468 104.669 15.165 102.61 16.067 102.119C16.969 101.628 19.131 103.791 19.833 104.012C20.535 104.233 20.633 102.667 21.558 103.374C22.483 104.081 21.958 107.361 23.04 107.746C23.84 108.031 23.44 106.554 24.364 106.892C25.978 107.47 25.156 113.762 24.697 113.788Z" fill="#407BFF"/>
<g opacity="0.2">
<path opacity="0.2" d="M24.697 113.788C23.2012 113.679 21.8026 113.006 20.784 111.905C19.977 110.913 22.166 111.451 21.907 110.645C21.648 109.839 19.001 110.561 18.458 109.416C17.915 108.271 19.858 108.456 19.75 107.86C19.642 107.264 17.64 107.475 16.96 106.278C16.28 105.081 18.052 105.687 17.76 105.178C17.468 104.669 15.165 102.61 16.067 102.119C16.969 101.628 19.131 103.791 19.833 104.012C20.535 104.233 20.633 102.667 21.558 103.374C22.483 104.081 21.958 107.361 23.04 107.746C23.84 108.031 23.44 106.554 24.364 106.892C25.978 107.47 25.156 113.762 24.697 113.788Z" fill="white"/>
</g>
<path d="M33.7309 115.986C33.7309 121.466 36.1519 125.912 23.8049 125.912C12.8349 125.912 13.8849 121.466 13.8849 115.986C13.8849 110.506 18.3259 108.951 23.8049 108.951C29.2839 108.951 33.7309 110.502 33.7309 115.986Z" fill="#263238"/>
<path d="M34.806 108.848H12.835V114.285H34.806V108.848Z" fill="#263238"/>
<path opacity="0.2" d="M34.806 108.848H12.835V114.285H34.806V108.848Z" fill="white"/>
<path d="M114.655 124.274C114.698 125.258 114.518 126.239 114.128 127.143H91.449V126.616H91.908V121.938H91.449V121.41H114.127C114.511 122.315 114.691 123.292 114.655 124.274Z" fill="#263238"/>
<path opacity="0.2" d="M114.655 124.274C114.698 125.258 114.518 126.239 114.128 127.143H91.449V126.616H91.908V121.938H91.449V121.41H114.127C114.511 122.315 114.691 123.292 114.655 124.274Z" fill="white"/>
<path opacity="0.2" d="M102.524 124.274C102.567 125.258 102.387 126.239 101.997 127.143H91.449V126.616H91.908V121.938H91.449V121.41H101.997C102.38 122.315 102.56 123.292 102.524 124.274Z" fill="black"/>
<path opacity="0.8" d="M101.406 124.273C101.441 125.073 101.295 125.87 100.979 126.604H91.913V121.938H100.979C101.291 122.675 101.437 123.473 101.406 124.273Z" fill="white"/>
<path opacity="0.6" d="M110.963 124.272C111.006 125.256 110.826 126.237 110.436 127.141H106.216C106.606 126.237 106.786 125.256 106.743 124.272C106.781 123.287 106.601 122.306 106.216 121.398H110.436C110.821 122.306 111.001 123.287 110.963 124.272Z" fill="white"/>
<path d="M116.675 118.53C116.718 119.514 116.538 120.494 116.148 121.399H93.469V120.872H93.938V116.205H93.479V115.678H116.159C116.538 116.58 116.714 117.553 116.676 118.531L116.675 118.53Z" fill="#407BFF"/>
<path opacity="0.2" d="M104.544 118.53C104.587 119.514 104.407 120.494 104.017 121.399H93.469V120.872H93.938V116.205H93.479V115.678H104.027C104.405 116.579 104.582 117.553 104.544 118.53Z" fill="black"/>
<path opacity="0.8" d="M103.431 118.529C103.466 119.329 103.32 120.125 103.004 120.86H93.938V116.193H103.004C103.316 116.931 103.462 117.729 103.431 118.529Z" fill="white"/>
<path opacity="0.2" d="M112.983 118.53C113.026 119.514 112.846 120.495 112.456 121.399H108.236C108.626 120.495 108.806 119.514 108.763 118.53C108.801 117.545 108.621 116.564 108.236 115.656H112.455C112.84 116.564 113.021 117.545 112.983 118.53Z" fill="black"/>
<path d="M148.551 2.2182V80.3732C148.551 80.5616 148.514 80.7482 148.442 80.9222C148.37 81.0963 148.264 81.2544 148.131 81.3875C147.997 81.5207 147.839 81.6263 147.665 81.6983C147.491 81.7703 147.304 81.8073 147.116 81.8072H33.847C33.6586 81.8073 33.472 81.7703 33.2979 81.6983C33.1238 81.6263 32.9656 81.5207 32.8324 81.3875C32.6991 81.2544 32.5934 81.0963 32.5212 80.9222C32.4491 80.7482 32.412 80.5616 32.412 80.3732V2.2182C32.412 1.83762 32.5632 1.47262 32.8323 1.20351C33.1014 0.934392 33.4664 0.783203 33.847 0.783203H147.116C147.304 0.783072 147.491 0.820098 147.665 0.892166C147.839 0.964235 147.998 1.06994 148.131 1.20322C148.264 1.3365 148.37 1.49474 148.442 1.6689C148.514 1.84306 148.551 2.02972 148.551 2.2182Z" fill="#407BFF"/>
<path opacity="0.4" d="M148.551 5.63086V80.3739C148.551 80.5624 148.514 80.749 148.442 80.9232C148.37 81.0973 148.264 81.2556 148.131 81.3889C147.998 81.5221 147.839 81.6278 147.665 81.6999C147.491 81.772 147.304 81.809 147.116 81.8089H33.847C33.6585 81.809 33.4718 81.772 33.2977 81.6999C33.1235 81.6278 32.9653 81.5221 32.832 81.3889C32.6987 81.2556 32.593 81.0973 32.521 80.9232C32.4489 80.749 32.4119 80.5624 32.412 80.3739V5.63086H148.551Z" fill="white"/>
<path opacity="0.2" d="M148.551 77.1934V80.3574C148.551 80.5458 148.514 80.7325 148.442 80.9066C148.37 81.0808 148.264 81.2391 148.131 81.3723C147.998 81.5056 147.839 81.6113 147.665 81.6834C147.491 81.7554 147.304 81.7925 147.116 81.7924H33.847C33.6585 81.7925 33.4718 81.7554 33.2977 81.6834C33.1235 81.6113 32.9653 81.5056 32.832 81.3723C32.6987 81.2391 32.593 81.0808 32.521 80.9066C32.4489 80.7325 32.4119 80.5458 32.412 80.3574V77.1934H148.551Z" fill="black"/>
<path opacity="0.4" d="M145.677 4.32384C146.225 4.32384 146.669 3.87971 146.669 3.33184C146.669 2.78398 146.225 2.33984 145.677 2.33984C145.129 2.33984 144.685 2.78398 144.685 3.33184C144.685 3.87971 145.129 4.32384 145.677 4.32384Z" fill="white"/>
<path opacity="0.4" d="M141.922 4.32384C142.47 4.32384 142.914 3.87971 142.914 3.33184C142.914 2.78398 142.47 2.33984 141.922 2.33984C141.374 2.33984 140.93 2.78398 140.93 3.33184C140.93 3.87971 141.374 4.32384 141.922 4.32384Z" fill="white"/>
<path opacity="0.4" d="M139.158 3.33185C139.158 3.52781 139.1 3.7193 138.991 3.88214C138.882 4.04498 138.727 4.17185 138.546 4.2467C138.364 4.32156 138.165 4.34104 137.973 4.30269C137.781 4.26434 137.604 4.16987 137.466 4.03123C137.327 3.8926 137.233 3.71603 137.195 3.52382C137.157 3.33161 137.177 3.13241 137.252 2.95139C137.327 2.77036 137.454 2.61564 137.617 2.50679C137.78 2.39794 137.971 2.33984 138.167 2.33984C138.297 2.33984 138.426 2.36551 138.546 2.41537C138.667 2.46524 138.776 2.53833 138.868 2.63046C138.96 2.72259 139.033 2.83195 139.083 2.9523C139.133 3.07265 139.158 3.20162 139.158 3.33185Z" fill="white"/>
<g opacity="0.5">
<path opacity="0.5" d="M47.153 13.4824V16.6824H46.779L44.859 14.2984V16.6824H44.405V13.4824H44.779L46.699 15.8714V13.4824H47.153Z" fill="black"/>
<path opacity="0.5" d="M50.227 15.6169H48.263C48.2893 15.8255 48.3951 16.0159 48.5582 16.1485C48.7214 16.2811 48.9294 16.3457 49.139 16.3289C49.2703 16.3319 49.4008 16.3067 49.5216 16.2549C49.6423 16.2032 49.7506 16.1261 49.839 16.0289L50.082 16.3139C49.96 16.4449 49.8109 16.5476 49.6451 16.615C49.4793 16.6824 49.3007 16.7127 49.122 16.7039C48.9533 16.7161 48.784 16.6929 48.6248 16.6357C48.4656 16.5786 48.3202 16.4888 48.1978 16.3721C48.0754 16.2554 47.9787 16.1145 47.914 15.9582C47.8493 15.802 47.8179 15.634 47.822 15.4649C47.8155 15.3025 47.8424 15.1404 47.9011 14.9888C47.9598 14.8372 48.049 14.6993 48.1632 14.5836C48.2774 14.4679 48.4142 14.3769 48.565 14.3162C48.7158 14.2556 48.8775 14.2265 49.04 14.2309C49.2031 14.2265 49.3653 14.2562 49.5162 14.3181C49.6671 14.38 49.8035 14.4728 49.9164 14.5905C50.0294 14.7082 50.1166 14.8482 50.1723 15.0015C50.228 15.1549 50.2511 15.3181 50.24 15.4809C50.2382 15.5264 50.2339 15.5719 50.227 15.6169ZM48.263 15.3009H49.814C49.7913 15.1111 49.6999 14.9363 49.557 14.8094C49.4141 14.6825 49.2296 14.6124 49.0385 14.6124C48.8474 14.6124 48.6629 14.6825 48.52 14.8094C48.3771 14.9363 48.2856 15.1111 48.263 15.3009Z" fill="black"/>
<path opacity="0.5" d="M54.468 14.2617L53.561 16.6827H53.139L52.439 14.8737L51.739 16.6827H51.328L50.428 14.2617H50.845L51.545 16.1917L52.278 14.2617H52.647L53.364 16.1977L54.087 14.2617H54.468Z" fill="black"/>
<path opacity="0.5" d="M58.314 15.6169H56.347C56.3733 15.8253 56.479 16.0156 56.6419 16.1481C56.8048 16.2807 57.0126 16.3455 57.222 16.3289C57.3534 16.332 57.4839 16.3068 57.6046 16.255C57.7254 16.2032 57.8336 16.1261 57.922 16.0289L58.165 16.3139C58.0436 16.4442 57.8953 16.5466 57.7304 16.6139C57.5655 16.6813 57.3879 16.712 57.21 16.7039C57.0413 16.7161 56.872 16.6929 56.7128 16.6357C56.5537 16.5786 56.4082 16.4888 56.2858 16.3721C56.1634 16.2554 56.0667 16.1145 56.002 15.9582C55.9373 15.802 55.9059 15.634 55.91 15.4649C55.9035 15.3029 55.9303 15.1413 55.9887 14.99C56.0471 14.8388 56.1359 14.7011 56.2496 14.5855C56.3632 14.4699 56.4993 14.3788 56.6496 14.3178C56.7998 14.2568 56.9609 14.2272 57.123 14.2309C57.2861 14.2265 57.4483 14.2562 57.5992 14.3181C57.7501 14.38 57.8865 14.4728 57.9994 14.5905C58.1124 14.7082 58.1996 14.8482 58.2553 15.0015C58.311 15.1549 58.3341 15.3181 58.323 15.4809C58.3227 15.5264 58.3197 15.5718 58.314 15.6169ZM56.347 15.3009H57.929C57.929 15.197 57.9085 15.0942 57.8688 14.9982C57.829 14.9022 57.7708 14.815 57.6973 14.7416C57.6239 14.6681 57.5367 14.6099 57.4407 14.5701C57.3447 14.5303 57.2419 14.5099 57.138 14.5099C57.0341 14.5099 56.9313 14.5303 56.8353 14.5701C56.7393 14.6099 56.6521 14.6681 56.5787 14.7416C56.5052 14.815 56.447 14.9022 56.4072 14.9982C56.3675 15.0942 56.347 15.197 56.347 15.3009Z" fill="black"/>
<path opacity="0.5" d="M61.239 15.2909V16.6829H60.8V15.3389C60.8 14.8639 60.563 14.6319 60.146 14.6319C60.0398 14.6239 59.9332 14.6396 59.8338 14.678C59.7345 14.7163 59.645 14.7763 59.5717 14.8536C59.4984 14.9309 59.4433 15.0235 59.4103 15.1247C59.3774 15.226 59.3673 15.3333 59.381 15.4389V16.6839H58.938V14.2629H59.36V14.6269C59.4647 14.4974 59.5986 14.3946 59.7507 14.3268C59.9028 14.2591 60.0687 14.2282 60.235 14.2369C60.3737 14.2267 60.513 14.2475 60.6427 14.2978C60.7724 14.348 60.8893 14.4265 60.985 14.5274C61.0807 14.6284 61.1527 14.7493 61.196 14.8815C61.2392 15.0137 61.2525 15.1539 61.235 15.2919L61.239 15.2909Z" fill="black"/>
<path opacity="0.5" d="M63.407 16.5413C63.2563 16.6572 63.0699 16.7169 62.88 16.7103C62.7772 16.722 62.6731 16.7104 62.5754 16.6765C62.4777 16.6425 62.3889 16.5871 62.3155 16.5143C62.2421 16.4414 62.1859 16.353 62.1512 16.2556C62.1165 16.1582 62.1041 16.0542 62.115 15.9513V14.6223H61.704V14.2633H62.115V13.7363H62.553V14.2633H63.253V14.6223H62.553V15.9303C62.5459 15.9831 62.5506 16.0367 62.5668 16.0874C62.583 16.1381 62.6103 16.1846 62.6467 16.2235C62.683 16.2623 62.7276 16.2926 62.7771 16.3121C62.8266 16.3317 62.8799 16.3399 62.933 16.3363C63.057 16.3368 63.1777 16.296 63.276 16.2203L63.407 16.5413Z" fill="black"/>
<path opacity="0.5" d="M65.2381 14.2372V14.6642H65.1381C65.0314 14.6579 64.9247 14.6752 64.8255 14.7148C64.7263 14.7544 64.637 14.8154 64.564 14.8933C64.491 14.9713 64.4361 15.0644 64.4031 15.166C64.3701 15.2676 64.3598 15.3752 64.3731 15.4812V16.6892H63.9351V14.2682H64.3571V14.6742C64.4478 14.5257 64.5786 14.4059 64.7345 14.3286C64.8904 14.2512 65.0649 14.2196 65.2381 14.2372Z" fill="black"/>
<path opacity="0.5" d="M65.701 13.5137C65.6998 13.4571 65.7155 13.4014 65.7461 13.3537C65.7766 13.3061 65.8207 13.2686 65.8727 13.2461C65.9247 13.2236 65.9821 13.2171 66.0378 13.2274C66.0935 13.2377 66.1448 13.2644 66.1853 13.304C66.2258 13.3436 66.2535 13.3944 66.265 13.4498C66.2765 13.5053 66.2712 13.5629 66.2498 13.6153C66.2284 13.6677 66.1919 13.7126 66.1449 13.7442C66.0979 13.7758 66.0426 13.7926 65.986 13.7927C65.9114 13.7927 65.8398 13.7635 65.7865 13.7113C65.7333 13.6592 65.7026 13.5882 65.701 13.5137ZM65.775 14.2627H66.218V16.6837H65.775V14.2627Z" fill="black"/>
<path opacity="0.5" d="M69.2311 15.6173H67.2691C67.2957 15.8258 67.4015 16.016 67.5646 16.1486C67.7277 16.2812 67.9356 16.3458 68.1451 16.3293C68.2764 16.3323 68.4069 16.307 68.5277 16.2553C68.6484 16.2035 68.7567 16.1264 68.8451 16.0292L69.0881 16.3143C68.9667 16.4446 68.8184 16.547 68.6535 16.6143C68.4886 16.6816 68.311 16.7123 68.1331 16.7043C67.9644 16.7164 67.7951 16.6932 67.6359 16.6361C67.4767 16.5789 67.3313 16.4891 67.2089 16.3725C67.0864 16.2558 66.9898 16.1148 66.9251 15.9586C66.8604 15.8024 66.829 15.6343 66.8331 15.4653C66.8248 15.3011 66.8501 15.1371 66.9074 14.9831C66.9647 14.8291 67.0529 14.6884 67.1665 14.5697C67.2801 14.451 67.4168 14.3567 67.5681 14.2927C67.7194 14.2287 67.8822 14.1962 68.0466 14.1973C68.2109 14.1984 68.3732 14.233 68.5237 14.2991C68.6741 14.3651 68.8095 14.4612 68.9216 14.5814C69.0336 14.7016 69.1199 14.8434 69.1752 14.9981C69.2304 15.1529 69.2536 15.3173 69.2431 15.4813C69.2416 15.5268 69.2376 15.5722 69.2311 15.6173ZM67.2691 15.3013H68.8201C68.7974 15.1115 68.706 14.9366 68.5631 14.8097C68.4202 14.6829 68.2357 14.6128 68.0446 14.6128C67.8535 14.6128 67.669 14.6829 67.5261 14.8097C67.3832 14.9366 67.2917 15.1115 67.2691 15.3013Z" fill="black"/>
<path opacity="0.5" d="M69.541 16.4583L69.726 16.1103C69.9797 16.272 70.2742 16.358 70.575 16.3583C70.981 16.3583 71.15 16.2373 71.15 16.0313C71.15 15.5043 69.621 15.9573 69.621 14.9763C69.621 14.5443 70.011 14.2483 70.628 14.2483C70.9375 14.2435 71.243 14.3197 71.514 14.4693L71.324 14.8173C71.1148 14.6855 70.8711 14.6193 70.624 14.6273C70.239 14.6273 70.049 14.7643 70.049 14.9593C70.049 15.5293 71.584 15.0643 71.584 16.0143C71.584 16.4573 71.184 16.7313 70.529 16.7313C70.1799 16.7399 69.8361 16.6449 69.541 16.4583Z" fill="black"/>
</g>
<path opacity="0.2" d="M42.254 15.345C42.255 15.7522 42.1351 16.1506 41.9094 16.4897C41.6838 16.8287 41.3626 17.0931 40.9865 17.2494C40.6104 17.4057 40.1964 17.4469 39.7969 17.3677C39.3975 17.2885 39.0305 17.0925 38.7425 16.8045C38.4545 16.5165 38.2585 16.1495 38.1793 15.7501C38.1001 15.3506 38.1412 14.9365 38.2976 14.5605C38.4539 14.1844 38.7183 13.8632 39.0573 13.6376C39.3964 13.4119 39.7947 13.292 40.202 13.293C40.7458 13.2943 41.267 13.5109 41.6515 13.8955C42.0361 14.28 42.2527 14.8012 42.254 15.345Z" fill="black"/>
<path d="M40.176 16.5421C40.1413 16.5421 40.107 16.5353 40.075 16.522C40.0429 16.5088 40.0138 16.4893 39.9893 16.4648C39.9648 16.4403 39.9454 16.4112 39.9321 16.3791C39.9188 16.3471 39.912 16.3128 39.912 16.2781V14.4111C39.9098 14.3751 39.915 14.3391 39.9272 14.3052C39.9394 14.2713 39.9585 14.2403 39.9832 14.214C40.0079 14.1878 40.0377 14.1668 40.0707 14.1525C40.1038 14.1382 40.1395 14.1309 40.1755 14.1309C40.2115 14.1309 40.2472 14.1382 40.2803 14.1525C40.3133 14.1668 40.3432 14.1878 40.3678 14.214C40.3925 14.2403 40.4116 14.2713 40.4238 14.3052C40.436 14.3391 40.4412 14.3751 40.439 14.4111V16.2781C40.439 16.348 40.4113 16.415 40.362 16.4644C40.3127 16.5139 40.2459 16.5418 40.176 16.5421Z" fill="white"/>
<path d="M41.109 15.6076H39.242C39.2061 15.6098 39.17 15.6046 39.1361 15.5924C39.1022 15.5801 39.0712 15.5611 39.045 15.5364C39.0187 15.5117 38.9978 15.4819 38.9835 15.4488C38.9692 15.4158 38.9618 15.3801 38.9618 15.3441C38.9618 15.308 38.9692 15.2724 38.9835 15.2393C38.9978 15.2062 39.0187 15.1764 39.045 15.1517C39.0712 15.1271 39.1022 15.108 39.1361 15.0958C39.17 15.0835 39.2061 15.0784 39.242 15.0806H41.109C41.1761 15.0847 41.2391 15.1143 41.2851 15.1632C41.3312 15.2122 41.3568 15.2769 41.3568 15.3441C41.3568 15.4113 41.3312 15.476 41.2851 15.5249C41.2391 15.5739 41.1761 15.6035 41.109 15.6076Z" fill="white"/>
<path opacity="0.2" d="M138.835 25.5977H118.68C117.045 25.5977 115.72 26.9229 115.72 28.5577V39.5617C115.72 41.1964 117.045 42.5217 118.68 42.5217H138.835C140.47 42.5217 141.795 41.1964 141.795 39.5617V28.5577C141.795 26.9229 140.47 25.5977 138.835 25.5977Z" fill="black"/>
<path d="M136.057 30.0378H133.594C133.44 30.0378 133.29 29.9922 133.163 29.9068C133.035 29.8213 132.935 29.6998 132.877 29.5578L132.35 28.3238C132.292 28.1821 132.194 28.0608 132.067 27.9753C131.94 27.8898 131.791 27.844 131.638 27.8438H125.838C125.685 27.8447 125.536 27.8907 125.409 27.9761C125.283 28.0615 125.184 28.1825 125.126 28.3238L124.599 29.5578C124.541 29.699 124.442 29.82 124.316 29.9054C124.189 29.9908 124.04 30.0368 123.887 30.0378H121.419C121.046 30.0378 120.687 30.1861 120.423 30.4501C120.159 30.7142 120.011 31.0723 120.011 31.4458V38.5397C120.012 38.9128 120.161 39.2701 120.425 39.5339C120.689 39.7977 121.046 39.9464 121.419 39.9478H136.019C136.392 39.9478 136.751 39.7994 137.015 39.5354C137.279 39.2713 137.427 38.9132 137.427 38.5397V31.4467C137.429 31.079 137.287 30.7252 137.03 30.4618C136.773 30.1983 136.424 30.0464 136.056 30.0388L136.057 30.0378ZM128.757 37.4218C129.197 36.9847 129.792 36.74 130.413 36.7416C131.033 36.7431 131.627 36.9907 132.065 37.43C132.503 37.8693 132.748 38.4643 132.748 39.0845C132.747 39.7047 132.501 40.2994 132.062 40.7379C131.624 41.1765 131.029 41.4231 130.409 41.4236C129.789 41.4241 129.193 41.1785 128.754 40.7407C128.315 40.3028 128.067 39.7086 128.066 39.0884C128.064 38.4682 128.309 37.8728 128.746 37.4328L128.757 37.4218Z" fill="white"/>
<g opacity="0.5">
<path opacity="0.5" d="M125.53 22.9766H125.741V24.4476H125.53V22.9766Z" fill="black"/>
<path opacity="0.5" d="M128.008 23.8045V24.4475H127.802V23.8405C127.802 23.6195 127.697 23.5135 127.517 23.5135C127.469 23.5106 127.421 23.5184 127.377 23.5364C127.332 23.5544 127.292 23.5821 127.26 23.6174C127.228 23.6528 127.204 23.695 127.19 23.7408C127.175 23.7867 127.172 23.8351 127.179 23.8825V24.4575H126.979V23.8405C126.979 23.6195 126.874 23.5135 126.689 23.5135C126.641 23.5115 126.594 23.5199 126.55 23.5382C126.506 23.5565 126.466 23.5842 126.434 23.6194C126.402 23.6545 126.378 23.6963 126.363 23.7417C126.349 23.7872 126.345 23.8353 126.351 23.8825V24.4575H126.151V23.3135H126.351V23.4765C126.396 23.4178 126.454 23.3711 126.521 23.3407C126.589 23.3103 126.662 23.2972 126.736 23.3025C126.813 23.2959 126.891 23.3118 126.959 23.3484C127.027 23.3849 127.084 23.4406 127.121 23.5085C127.172 23.4424 127.237 23.3893 127.313 23.3535C127.388 23.3177 127.471 23.3003 127.554 23.3025C127.619 23.2966 127.685 23.3058 127.747 23.3295C127.808 23.3532 127.863 23.3906 127.907 23.439C127.952 23.4874 127.984 23.5453 128.003 23.6084C128.021 23.6714 128.024 23.7379 128.013 23.8025L128.008 23.8045Z" fill="black"/>
<path opacity="0.5" d="M129.275 23.7733V24.4483H129.075V24.3053C129.034 24.3621 128.979 24.4072 128.915 24.436C128.851 24.4648 128.781 24.4763 128.711 24.4693C128.458 24.4693 128.294 24.3323 128.294 24.1373C128.294 23.9423 128.41 23.8103 128.748 23.8103H129.064V23.7733C129.064 23.5993 128.964 23.5043 128.764 23.5043C128.635 23.5015 128.508 23.5424 128.405 23.6203L128.321 23.4723C128.455 23.3741 128.619 23.3241 128.785 23.3303C128.848 23.3177 128.913 23.32 128.975 23.337C129.037 23.354 129.094 23.3853 129.142 23.4284C129.189 23.4715 129.226 23.5251 129.249 23.585C129.273 23.6449 129.281 23.7094 129.275 23.7733ZM129.069 24.1113V23.9533H128.749C128.549 23.9533 128.491 24.0323 128.491 24.1273C128.491 24.2223 128.591 24.3063 128.739 24.3063C128.808 24.3124 128.877 24.2963 128.936 24.2603C128.994 24.2243 129.04 24.1703 129.066 24.1063L129.069 24.1113Z" fill="black"/>
<path opacity="0.5" d="M130.72 23.3145V24.2794C130.727 24.3569 130.716 24.4348 130.689 24.5078C130.663 24.5807 130.62 24.6467 130.564 24.7012C130.509 24.7557 130.442 24.7972 130.369 24.8228C130.295 24.8485 130.217 24.8576 130.14 24.8495C129.951 24.858 129.764 24.8 129.613 24.6855L129.713 24.5275C129.836 24.6243 129.988 24.6765 130.145 24.6754C130.409 24.6754 130.53 24.5545 130.53 24.3015V24.2115C130.458 24.2896 130.364 24.3439 130.26 24.3674C130.156 24.3908 130.048 24.3822 129.949 24.3427C129.851 24.3032 129.766 24.2347 129.707 24.1462C129.648 24.0577 129.618 23.9534 129.619 23.8471C129.621 23.7408 129.655 23.6375 129.717 23.5508C129.778 23.4642 129.865 23.3984 129.965 23.362C130.065 23.3256 130.173 23.3204 130.276 23.3471C130.379 23.3738 130.471 23.4311 130.541 23.5115V23.3145H130.72ZM130.52 23.8414C130.521 23.7921 130.511 23.7431 130.492 23.6975C130.473 23.6519 130.445 23.6107 130.409 23.5766C130.374 23.5424 130.331 23.516 130.285 23.4989C130.239 23.4819 130.189 23.4746 130.14 23.4774C130.043 23.4774 129.951 23.5158 129.883 23.5841C129.814 23.6523 129.776 23.7449 129.776 23.8414C129.776 23.938 129.814 24.0306 129.883 24.0988C129.951 24.1671 130.043 24.2055 130.14 24.2055C130.189 24.2084 130.239 24.201 130.285 24.184C130.331 24.1669 130.374 24.1405 130.409 24.1063C130.445 24.0722 130.473 24.031 130.492 23.9854C130.511 23.9399 130.521 23.8908 130.52 23.8414Z" fill="black"/>
<path opacity="0.5" d="M132.112 23.9569H131.205C131.218 24.0529 131.268 24.1402 131.343 24.201C131.419 24.2618 131.514 24.2914 131.611 24.2839C131.671 24.2864 131.731 24.2759 131.786 24.2531C131.842 24.2303 131.892 24.1958 131.933 24.1519L132.044 24.2789C131.991 24.3419 131.923 24.3915 131.847 24.4236C131.771 24.4557 131.688 24.4695 131.606 24.4639C131.528 24.4697 131.449 24.459 131.376 24.4325C131.302 24.406 131.235 24.3642 131.178 24.31C131.121 24.2558 131.077 24.1903 131.047 24.1177C131.018 24.0452 131.004 23.9672 131.006 23.8889C131.004 23.8139 131.016 23.7391 131.044 23.6692C131.071 23.5992 131.112 23.5355 131.165 23.4818C131.217 23.4282 131.28 23.3857 131.349 23.3569C131.419 23.3282 131.493 23.3137 131.568 23.3145C131.643 23.3152 131.717 23.3311 131.786 23.3613C131.855 23.3914 131.917 23.4351 131.968 23.4898C132.02 23.5445 132.06 23.609 132.086 23.6795C132.111 23.7499 132.123 23.8249 132.119 23.8999C132.119 23.8999 132.112 23.9409 132.112 23.9569ZM131.205 23.8149H131.912C131.907 23.7231 131.867 23.6366 131.801 23.5734C131.734 23.5101 131.645 23.4748 131.554 23.4748C131.462 23.4748 131.373 23.5101 131.306 23.5734C131.24 23.6366 131.2 23.7231 131.195 23.8149H131.205Z" fill="black"/>
</g>
<path d="M108.957 25.5977H40.888C39.3582 25.5977 38.118 26.8378 38.118 28.3677V28.8767C38.118 30.4065 39.3582 31.6467 40.888 31.6467H108.957C110.487 31.6467 111.727 30.4065 111.727 28.8767V28.3677C111.727 26.8378 110.487 25.5977 108.957 25.5977Z" fill="white"/>
<g opacity="0.5">
<path opacity="0.5" d="M39.3629 23.1556H38.8359V22.9766H40.0539V23.1556H39.5269V24.4476H39.3159L39.3629 23.1556Z" fill="black"/>
<path opacity="0.5" d="M40.218 22.9858C40.217 22.9585 40.2242 22.9315 40.2386 22.9083C40.253 22.8852 40.2741 22.8668 40.299 22.8557C40.3239 22.8445 40.3516 22.8411 40.3785 22.8458C40.4054 22.8505 40.4303 22.8632 40.45 22.8821C40.4696 22.901 40.4832 22.9254 40.4889 22.9521C40.4946 22.9788 40.4922 23.0066 40.482 23.032C40.4718 23.0573 40.4542 23.079 40.4316 23.0943C40.409 23.1096 40.3823 23.1177 40.355 23.1178C40.3372 23.1184 40.3195 23.1155 40.3029 23.1092C40.2863 23.1029 40.2712 23.0932 40.2584 23.0809C40.2456 23.0686 40.2354 23.0538 40.2285 23.0375C40.2215 23.0211 40.218 23.0035 40.218 22.9858ZM40.255 23.3338H40.455V24.4468H40.255V23.3338Z" fill="black"/>
<path opacity="0.5" d="M41.4709 24.3674C41.3994 24.4207 41.3121 24.4485 41.2229 24.4465C41.1753 24.4513 41.1273 24.4455 41.0823 24.4295C41.0372 24.4134 40.9964 24.3876 40.9626 24.3538C40.9288 24.32 40.9029 24.2791 40.8869 24.2341C40.8708 24.189 40.8651 24.141 40.8699 24.0935V23.4815H40.6709V23.3125H40.8609V23.0645H41.0669V23.3125H41.3829V23.4754H41.0709V24.0825C41.0709 24.2035 41.1289 24.2675 41.2449 24.2675C41.3022 24.2695 41.3584 24.2507 41.4029 24.2144L41.4709 24.3674Z" fill="black"/>
<path opacity="0.5" d="M42.3169 24.3674C42.2472 24.4207 42.1615 24.4486 42.0739 24.4465C42.0263 24.4513 41.9783 24.4455 41.9333 24.4295C41.8882 24.4134 41.8473 24.3876 41.8135 24.3538C41.7797 24.32 41.7539 24.2791 41.7379 24.2341C41.7218 24.189 41.716 24.141 41.7209 24.0935V23.4815H41.5309V23.3125H41.7309V23.0645H41.9309V23.3125H42.2579V23.4754H41.9359V24.0825C41.9325 24.1066 41.9346 24.1312 41.942 24.1544C41.9494 24.1776 41.9619 24.1989 41.9786 24.2166C41.9953 24.2344 42.0157 24.2481 42.0385 24.2569C42.0612 24.2657 42.0856 24.2693 42.1099 24.2675C42.1672 24.2694 42.2233 24.2506 42.2679 24.2144L42.3169 24.3674Z" fill="black"/>
<path opacity="0.5" d="M42.5649 22.8867H42.7809V24.4687H42.5809L42.5649 22.8867Z" fill="black"/>
<path opacity="0.5" d="M44.1569 23.9569H43.2499C43.2631 24.0529 43.3125 24.1402 43.388 24.201C43.4635 24.2618 43.5593 24.2914 43.6559 24.2839C43.7159 24.2857 43.7755 24.2749 43.831 24.2522C43.8865 24.2295 43.9365 24.1953 43.9779 24.1519L44.0889 24.2789C44.035 24.3426 43.9667 24.3926 43.8897 24.4248C43.8127 24.4569 43.7291 24.4703 43.6459 24.4639C43.5678 24.4697 43.4893 24.459 43.4155 24.4325C43.3418 24.406 43.2745 24.3642 43.2179 24.31C43.1613 24.2558 43.1168 24.1903 43.0871 24.1177C43.0575 24.0452 43.0435 23.9672 43.0459 23.8889C43.0436 23.8139 43.0564 23.7391 43.0837 23.6692C43.1109 23.5992 43.1521 23.5355 43.2046 23.4818C43.2571 23.4282 43.3199 23.3857 43.3893 23.3569C43.4586 23.3282 43.5331 23.3137 43.6082 23.3145C43.6832 23.3152 43.7574 23.3311 43.8261 23.3613C43.8949 23.3914 43.9569 23.4351 44.0083 23.4898C44.0598 23.5445 44.0996 23.609 44.1255 23.6795C44.1514 23.7499 44.1628 23.8249 44.1589 23.8999C44.1589 23.8999 44.1569 23.9409 44.1569 23.9569ZM43.2499 23.8149H43.9669C43.9695 23.7662 43.9621 23.7175 43.9453 23.6718C43.9284 23.6261 43.9024 23.5842 43.8689 23.5489C43.8353 23.5135 43.7949 23.4854 43.7502 23.4661C43.7054 23.4469 43.6572 23.437 43.6084 23.437C43.5597 23.437 43.5115 23.4469 43.4667 23.4661C43.4219 23.4854 43.3815 23.5135 43.348 23.5489C43.3144 23.5842 43.2884 23.6261 43.2716 23.6718C43.2547 23.7175 43.2474 23.7662 43.2499 23.8149Z" fill="black"/>
</g>
<path d="M108.957 36.4727H40.888C39.3582 36.4727 38.118 37.7128 38.118 39.2427V39.7517C38.118 41.2815 39.3582 42.5217 40.888 42.5217H108.957C110.487 42.5217 111.727 41.2815 111.727 39.7517V39.2427C111.727 37.7128 110.487 36.4727 108.957 36.4727Z" fill="white"/>
<g opacity="0.5">
<path opacity="0.5" d="M38.952 34.583C38.9505 34.4813 38.9699 34.3804 39.0089 34.2864C39.048 34.1925 39.1059 34.1075 39.1791 34.0369C39.2523 33.9662 39.3393 33.9113 39.4345 33.8756C39.5298 33.8398 39.6314 33.824 39.733 33.829C39.8381 33.825 39.9429 33.8436 40.0403 33.8836C40.1376 33.9236 40.2251 33.9842 40.297 34.0611L40.16 34.193C40.1077 34.1349 40.0432 34.0892 39.9711 34.0591C39.899 34.029 39.821 34.0153 39.743 34.0191C39.6481 34.0185 39.5545 34.0417 39.4708 34.0864C39.3871 34.1312 39.3159 34.1962 39.2636 34.2755C39.2114 34.3548 39.1798 34.4458 39.1717 34.5404C39.1636 34.635 39.1793 34.7301 39.2173 34.8171C39.2553 34.9041 39.3144 34.9803 39.3893 35.0386C39.4642 35.097 39.5524 35.1357 39.6461 35.1513C39.7397 35.1669 39.8358 35.1588 39.9255 35.1279C40.0153 35.0969 40.0959 35.0441 40.16 34.9741L40.297 35.1061C40.2251 35.1829 40.1376 35.2435 40.0403 35.2835C39.9429 35.3235 39.8381 35.3421 39.733 35.3381C39.6314 35.3431 39.5298 35.3273 39.4345 35.2916C39.3393 35.2558 39.2523 35.2009 39.1791 35.1302C39.1059 35.0596 39.048 34.9746 39.0089 34.8807C38.9699 34.7867 38.9505 34.6858 38.952 34.5841V34.583Z" fill="black"/>
<path opacity="0.5" d="M41.4421 34.6476V35.3226H41.2421V35.1746C41.1997 35.2295 41.144 35.2728 41.0804 35.3004C41.0168 35.328 40.9471 35.3391 40.8781 35.3326C40.6251 35.3326 40.4611 35.2006 40.4611 35.0056C40.4611 34.8106 40.5771 34.6786 40.9091 34.6786H41.2311V34.6416C41.2311 34.4676 41.1311 34.3676 40.9311 34.3676C40.8032 34.3672 40.6788 34.4098 40.5781 34.4886L40.4941 34.3356C40.6294 34.2395 40.7921 34.1897 40.9581 34.1936C41.2681 34.1946 41.4421 34.3426 41.4421 34.6476ZM41.2361 34.9796V34.8266H40.9251C40.7251 34.8266 40.6671 34.9056 40.6671 35.0006C40.6671 35.0956 40.7621 35.1796 40.9151 35.1796C40.9829 35.1854 41.0507 35.1692 41.1086 35.1333C41.1664 35.0974 41.2111 35.0439 41.2361 34.9806V34.9796Z" fill="black"/>
<path opacity="0.5" d="M42.4441 35.2567C42.374 35.3085 42.2882 35.3346 42.2011 35.3307C42.1538 35.3366 42.1057 35.3317 42.0606 35.3163C42.0154 35.301 41.9743 35.2756 41.9404 35.2421C41.9064 35.2086 41.8805 35.1679 41.8645 35.123C41.8485 35.0781 41.8429 35.0301 41.8481 34.9827V34.3827H41.6581V34.2137H41.8481V33.9707H42.0481V34.2137H42.3701V34.3827H42.0481V34.9897C42.0447 35.0138 42.0468 35.0384 42.0542 35.0616C42.0616 35.0848 42.0741 35.1061 42.0908 35.1239C42.1075 35.1416 42.1279 35.1554 42.1507 35.1642C42.1734 35.173 42.1978 35.1766 42.2221 35.1747C42.279 35.1742 42.3344 35.1557 42.3801 35.1217L42.4441 35.2567Z" fill="black"/>
<path opacity="0.5" d="M43.657 34.8309H42.75C42.7632 34.9269 42.8126 35.0142 42.8881 35.075C42.9636 35.1358 43.0594 35.1654 43.156 35.1579C43.2165 35.1605 43.2768 35.1496 43.3325 35.1259C43.3882 35.1022 43.438 35.0663 43.478 35.0209L43.589 35.1529C43.5076 35.2421 43.4014 35.305 43.2841 35.3335C43.1667 35.362 43.0435 35.3549 42.9302 35.313C42.817 35.2711 42.7187 35.1964 42.6482 35.0984C42.5776 35.0004 42.5378 34.8836 42.534 34.7629C42.5279 34.6877 42.5375 34.612 42.5622 34.5406C42.5869 34.4693 42.6261 34.4038 42.6774 34.3485C42.7287 34.2931 42.791 34.249 42.8602 34.2189C42.9295 34.1888 43.0042 34.1735 43.0797 34.1738C43.1552 34.1742 43.2298 34.1902 43.2988 34.2209C43.3678 34.2516 43.4296 34.2963 43.4804 34.3521C43.5312 34.408 43.5698 34.4738 43.5939 34.5454C43.6179 34.6169 43.6268 34.6927 43.62 34.7679C43.62 34.7679 43.657 34.8099 43.657 34.8309ZM42.75 34.6829H43.467C43.4589 34.5943 43.4172 34.5122 43.3504 34.4535C43.2836 34.3947 43.1969 34.3637 43.108 34.3669C43.019 34.3627 42.9318 34.3934 42.865 34.4524C42.7982 34.5114 42.7569 34.594 42.75 34.6829Z" fill="black"/>
<path opacity="0.5" d="M45.012 34.2049V35.1699C45.0196 35.2477 45.0097 35.3262 44.9832 35.3997C44.9566 35.4733 44.9141 35.54 44.8585 35.595C44.803 35.6501 44.7359 35.6921 44.6622 35.718C44.5884 35.7439 44.5098 35.7531 44.432 35.7449C44.2421 35.7515 44.0557 35.6918 43.905 35.5759L44 35.4229C44.1233 35.5187 44.2759 35.5689 44.432 35.5649C44.696 35.5649 44.812 35.4439 44.812 35.1909V35.1009C44.7633 35.1588 44.7019 35.2046 44.6325 35.2348C44.5631 35.265 44.4876 35.2787 44.412 35.2749C44.3391 35.278 44.2663 35.2663 44.198 35.2406C44.1297 35.2148 44.0673 35.1755 44.0146 35.125C43.9618 35.0745 43.9199 35.0139 43.8912 34.9468C43.8626 34.8796 43.8478 34.8074 43.8478 34.7344C43.8478 34.6614 43.8626 34.5891 43.8912 34.522C43.9199 34.4548 43.9618 34.3942 44.0146 34.3437C44.0673 34.2932 44.1297 34.2539 44.198 34.2281C44.2663 34.2024 44.3391 34.1907 44.412 34.1939C44.49 34.1924 44.5673 34.2082 44.6383 34.2402C44.7094 34.2722 44.7725 34.3195 44.823 34.3789V34.2049H45.012ZM44.812 34.7319C44.812 34.6557 44.7895 34.5813 44.7472 34.518C44.7049 34.4547 44.6447 34.4053 44.5744 34.3762C44.504 34.347 44.4266 34.3394 44.3519 34.3543C44.2772 34.3691 44.2086 34.4058 44.1548 34.4596C44.101 34.5135 44.0643 34.5821 44.0494 34.6567C44.0346 34.7314 44.0422 34.8088 44.0714 34.8792C44.1005 34.9495 44.1498 35.0097 44.2132 35.052C44.2765 35.0943 44.3509 35.1169 44.427 35.1169C44.5288 35.1166 44.6263 35.0761 44.6983 35.0041C44.7702 34.9321 44.8108 34.8346 44.811 34.7329L44.812 34.7319Z" fill="black"/>
<path opacity="0.5" d="M45.297 34.7638C45.295 34.6487 45.3273 34.5356 45.3899 34.4389C45.4524 34.3422 45.5422 34.2663 45.648 34.2209C45.7538 34.1755 45.8707 34.1625 45.9839 34.1838C46.0971 34.205 46.2013 34.2594 46.2835 34.3402C46.3656 34.4209 46.4218 34.5242 46.445 34.637C46.4682 34.7497 46.4573 34.8668 46.4137 34.9734C46.3701 35.08 46.2958 35.1712 46.2002 35.2353C46.1047 35.2995 45.9921 35.3338 45.877 35.3338C45.8007 35.3375 45.7245 35.3253 45.6532 35.298C45.5818 35.2708 45.5169 35.2291 45.4624 35.1756C45.408 35.1221 45.3652 35.0578 45.3367 34.987C45.3082 34.9161 45.2947 34.8402 45.297 34.7638ZM46.252 34.7638C46.2557 34.713 46.2486 34.662 46.2313 34.6141C46.214 34.5662 46.1869 34.5225 46.1517 34.4857C46.1164 34.449 46.0738 34.42 46.0267 34.4007C45.9796 34.3815 45.9289 34.3723 45.878 34.3738C45.8268 34.3722 45.7758 34.3813 45.7283 34.4004C45.6808 34.4196 45.6378 34.4484 45.6021 34.4851C45.5664 34.5218 45.5386 34.5655 45.5207 34.6135C45.5028 34.6615 45.4951 34.7127 45.498 34.7638C45.4945 34.8156 45.5018 34.8675 45.5194 34.9162C45.5371 34.965 45.5646 35.0096 45.6003 35.0472C45.636 35.0847 45.6791 35.1145 45.7269 35.1346C45.7747 35.1547 45.8262 35.1646 45.878 35.1638C45.9296 35.1647 45.9808 35.1548 46.0283 35.1346C46.0758 35.1145 46.1186 35.0846 46.1538 35.0469C46.1891 35.0092 46.216 34.9645 46.2329 34.9158C46.2499 34.867 46.2563 34.8153 46.252 34.7638Z" fill="black"/>
<path opacity="0.5" d="M47.3371 34.1939V34.3939H47.2901C47.241 34.3903 47.1917 34.3978 47.1458 34.4156C47.1 34.4335 47.0586 34.4613 47.0248 34.4971C46.9911 34.5329 46.9657 34.5758 46.9505 34.6226C46.9353 34.6695 46.9307 34.7191 46.9371 34.7679V35.3269H46.7371V34.2089H46.9371V34.3939C46.9788 34.3254 47.0391 34.2703 47.111 34.2348C47.1829 34.1994 47.2634 34.1852 47.3431 34.1939H47.3371Z" fill="black"/>
<path opacity="0.5" d="M47.5281 33.8617C47.5281 33.8254 47.5425 33.7905 47.5682 33.7648C47.5939 33.7391 47.6287 33.7247 47.6651 33.7247C47.6828 33.724 47.7005 33.7269 47.7171 33.7333C47.7337 33.7396 47.7489 33.7492 47.7617 33.7616C47.7744 33.7739 47.7846 33.7886 47.7916 33.805C47.7985 33.8213 47.8021 33.8389 47.8021 33.8567C47.8028 33.8747 47.7998 33.8926 47.7931 33.9093C47.7864 33.926 47.7763 33.9411 47.7633 33.9536C47.7504 33.966 47.7349 33.9756 47.718 33.9817C47.701 33.9877 47.683 33.9901 47.6651 33.9887C47.6477 33.9894 47.6304 33.9866 47.6142 33.9806C47.5979 33.9746 47.583 33.9654 47.5703 33.9536C47.5575 33.9418 47.5472 33.9276 47.54 33.9119C47.5328 33.8961 47.5287 33.879 47.5281 33.8617ZM47.5651 34.2047H47.7711V35.3227H47.5651V34.2047Z" fill="black"/>
<path opacity="0.5" d="M49.183 34.832H48.276C48.2881 34.9274 48.3363 35.0145 48.4107 35.0754C48.4852 35.1362 48.5802 35.1662 48.676 35.159C48.7373 35.1616 48.7983 35.1507 48.8548 35.127C48.9113 35.1033 48.9619 35.0675 49.003 35.022L49.114 35.154C49.0576 35.2142 48.9887 35.2613 48.9122 35.2923C48.8357 35.3232 48.7534 35.3371 48.671 35.333C48.5933 35.3387 48.5153 35.3282 48.4419 35.3019C48.3685 35.2757 48.3014 35.2345 48.2449 35.1808C48.1884 35.1271 48.1437 35.0622 48.1138 34.9903C48.0839 34.9183 48.0693 34.8409 48.071 34.763C48.0669 34.6885 48.078 34.614 48.1037 34.5439C48.1295 34.4739 48.1692 34.4099 48.2206 34.3558C48.272 34.3017 48.3339 34.2587 48.4026 34.2294C48.4712 34.2001 48.5451 34.1852 48.6197 34.1856C48.6943 34.1859 48.768 34.2015 48.8364 34.2314C48.9048 34.2613 48.9663 34.3049 49.0172 34.3594C49.0681 34.414 49.1072 34.4784 49.1323 34.5486C49.1574 34.6189 49.1679 34.6936 49.163 34.768L49.183 34.832ZM48.276 34.684H48.993C48.9849 34.5954 48.9432 34.5133 48.8764 34.4546C48.8096 34.3958 48.7229 34.3648 48.634 34.368C48.545 34.3638 48.4578 34.3945 48.391 34.4535C48.3242 34.5125 48.2829 34.5951 48.276 34.684Z" fill="black"/>
<path opacity="0.5" d="M49.326 35.2076L49.41 35.0436C49.526 35.1193 49.6615 35.1597 49.8 35.1596C49.99 35.1596 50.069 35.1016 50.069 35.0066C50.069 34.7586 49.362 34.9746 49.362 34.5316C49.362 34.3316 49.541 34.1936 49.826 34.1936C49.9679 34.1903 50.108 34.2248 50.232 34.2936L50.148 34.4566C50.0523 34.3947 49.94 34.3633 49.826 34.3666C49.647 34.3666 49.562 34.4296 49.562 34.5196C49.562 34.7836 50.269 34.5666 50.269 35.0046C50.269 35.2046 50.084 35.3316 49.784 35.3316C49.6223 35.3375 49.4627 35.2943 49.326 35.2076Z" fill="black"/>
</g>
<path d="M139.019 48.4609H40.888C39.3582 48.4609 38.118 49.7011 38.118 51.2309V60.1789C38.118 61.7088 39.3582 62.9489 40.888 62.9489H139.019C140.549 62.9489 141.789 61.7088 141.789 60.1789V51.2309C141.789 49.7011 140.549 48.4609 139.019 48.4609Z" fill="white"/>
<g opacity="0.5">
<path opacity="0.5" d="M39.089 45.8398H39.711C39.9068 45.8398 40.0947 45.9177 40.2332 46.0562C40.3717 46.1946 40.4495 46.3825 40.4495 46.5783C40.4495 46.7742 40.3717 46.9621 40.2332 47.1006C40.0947 47.2391 39.9068 47.3169 39.711 47.3169H39.089V45.8398ZM39.696 47.1319C39.7706 47.135 39.8452 47.1231 39.9151 47.0967C39.985 47.0703 40.0489 47.03 40.1028 46.9783C40.1568 46.9266 40.1997 46.8645 40.2291 46.7958C40.2584 46.727 40.2735 46.6531 40.2735 46.5783C40.2735 46.5036 40.2584 46.4297 40.2291 46.3609C40.1997 46.2922 40.1568 46.2301 40.1028 46.1784C40.0489 46.1267 39.985 46.0864 39.9151 46.06C39.8452 46.0336 39.7706 46.0217 39.696 46.0248H39.296V47.1299L39.696 47.1319Z" fill="black"/>
<path opacity="0.5" d="M41.789 46.8242H40.889C40.9008 46.9197 40.9489 47.007 41.0234 47.0679C41.0979 47.1288 41.193 47.1586 41.289 47.1512C41.3494 47.1531 41.4095 47.1419 41.4651 47.1182C41.5207 47.0945 41.5705 47.059 41.611 47.0142L41.727 47.1462C41.67 47.2058 41.6011 47.2525 41.5247 47.2834C41.4483 47.3142 41.3663 47.3285 41.284 47.3252C41.2062 47.3309 41.1282 47.3204 41.0548 47.2942C40.9814 47.268 40.9143 47.2267 40.8578 47.173C40.8013 47.1193 40.7566 47.0544 40.7267 46.9825C40.6968 46.9105 40.6822 46.8331 40.684 46.7552C40.6798 46.6807 40.6909 46.6061 40.7167 46.5361C40.7424 46.4661 40.7822 46.4021 40.8336 46.348C40.8849 46.2939 40.9469 46.2509 41.0155 46.2216C41.0841 46.1923 41.158 46.1774 41.2326 46.1777C41.3072 46.1781 41.381 46.1937 41.4493 46.2236C41.5177 46.2535 41.5792 46.2971 41.6301 46.3516C41.681 46.4062 41.7202 46.4706 41.7453 46.5408C41.7703 46.6111 41.7808 46.6857 41.776 46.7602C41.7837 46.7805 41.7891 46.8017 41.792 46.8232L41.789 46.8242ZM40.889 46.6762H41.601C41.5955 46.5872 41.5556 46.5038 41.4897 46.4436C41.4238 46.3835 41.3371 46.3514 41.248 46.3542C41.1581 46.3511 41.0706 46.3829 41.0036 46.4429C40.9367 46.503 40.8956 46.5866 40.889 46.6762Z" fill="black"/>
<path opacity="0.5" d="M42.707 47.2472C42.6355 47.3005 42.5482 47.3283 42.459 47.3262C42.4117 47.3321 42.3636 47.3272 42.3185 47.3118C42.2733 47.2965 42.2322 47.2711 42.1983 47.2376C42.1643 47.2042 42.1384 47.1634 42.1224 47.1185C42.1064 47.0736 42.1008 47.0256 42.106 46.9782V46.3612H41.916V46.1972H42.106V45.9492H42.306V46.1972H42.628V46.3612H42.306V46.9672C42.3029 46.992 42.3052 47.0171 42.3129 47.0409C42.3207 47.0646 42.3335 47.0863 42.3506 47.1045C42.3678 47.1227 42.3887 47.1368 42.4119 47.1459C42.4352 47.155 42.4601 47.1589 42.485 47.1572C42.542 47.1567 42.5973 47.1382 42.643 47.1042L42.707 47.2472Z" fill="black"/>
<path opacity="0.5" d="M43.835 46.6401V47.3151H43.645V47.1671C43.6014 47.222 43.5449 47.2652 43.4805 47.2928C43.416 47.3204 43.3458 47.3315 43.276 47.3251C43.023 47.3251 42.865 47.1931 42.865 46.9981C42.865 46.8031 42.981 46.6711 43.313 46.6711H43.635V46.6291C43.635 46.4601 43.535 46.3601 43.335 46.3601C43.2069 46.3588 43.0823 46.4015 42.982 46.4811L42.898 46.3281C43.0303 46.2298 43.1923 46.1797 43.357 46.1861C43.661 46.1871 43.835 46.3341 43.835 46.6401ZM43.635 46.9721V46.8171H43.305C43.105 46.8171 43.052 46.8961 43.052 46.9911C43.052 47.0861 43.142 47.1761 43.295 47.1761C43.3659 47.1823 43.437 47.1658 43.498 47.1292C43.5591 47.0926 43.607 47.0376 43.635 46.9721Z" fill="black"/>
<path opacity="0.5" d="M44.1779 45.847C44.177 45.8195 44.1843 45.7923 44.1989 45.7691C44.2136 45.7458 44.2349 45.7275 44.2602 45.7165C44.2854 45.7055 44.3134 45.7023 44.3404 45.7075C44.3674 45.7126 44.3923 45.7257 44.4117 45.7452C44.4312 45.7646 44.4443 45.7895 44.4495 45.8166C44.4546 45.8436 44.4515 45.8715 44.4405 45.8968C44.4295 45.922 44.4112 45.9433 44.3879 45.958C44.3646 45.9727 44.3374 45.98 44.3099 45.979C44.2749 45.979 44.2414 45.9651 44.2166 45.9403C44.1919 45.9156 44.1779 45.882 44.1779 45.847ZM44.21 46.195H44.416V47.313H44.21V46.195Z" fill="black"/>
<path opacity="0.5" d="M44.801 45.748H45.001V47.33H44.801V45.748Z" fill="black"/>
<path opacity="0.5" d="M45.249 47.1947L45.333 47.0366C45.4487 47.1131 45.5844 47.1534 45.723 47.1526C45.913 47.1526 45.987 47.0947 45.987 46.9997C45.987 46.7517 45.287 46.9677 45.287 46.5197C45.287 46.3197 45.466 46.1877 45.751 46.1877C45.8928 46.1849 46.0328 46.2194 46.157 46.2877L46.073 46.4456C45.974 46.3877 45.8607 46.3587 45.746 46.3617C45.572 46.3617 45.482 46.4246 45.482 46.5146C45.482 46.7786 46.194 46.5617 46.194 46.9947C46.194 47.2007 46.009 47.3267 45.709 47.3267C45.5458 47.3311 45.3851 47.2851 45.249 47.1947Z" fill="black"/>
</g>
<path opacity="0.2" d="M148.551 5.63086H32.412V10.3299H148.551V5.63086Z" fill="black"/>
<path d="M139.561 67.6777H126.334C124.981 67.6777 123.884 68.7746 123.884 70.1277V70.6547C123.884 72.0078 124.981 73.1047 126.334 73.1047H139.561C140.914 73.1047 142.011 72.0078 142.011 70.6547V70.1277C142.011 68.7746 140.914 67.6777 139.561 67.6777Z" fill="#407BFF"/>
<path d="M128.857 71.2488L128.973 71.0008C129.18 71.1685 129.439 71.2596 129.706 71.2588C130.091 71.2588 130.233 71.1108 130.233 70.9158C130.233 70.3888 128.888 70.7158 128.888 69.8928C128.888 69.5498 129.157 69.2598 129.737 69.2598C129.988 69.2592 130.235 69.3284 130.449 69.4598L130.344 69.7128C130.162 69.5979 129.952 69.5359 129.737 69.5338C129.363 69.5338 129.21 69.6918 129.21 69.8868C129.21 70.4138 130.555 70.0868 130.555 70.8998C130.555 71.2378 130.281 71.5328 129.695 71.5328C129.391 71.5367 129.096 71.4365 128.857 71.2488Z" fill="white"/>
<path d="M132.439 70.9481H131.263L131.02 71.5021H130.693L131.693 69.2871H132.003L133.01 71.5021H132.678L132.439 70.9481ZM132.328 70.6951L131.848 69.6091L131.373 70.6951H132.328Z" fill="white"/>
<path d="M135.149 69.2871L134.179 71.5021H133.863L132.893 69.2871H133.231L134.031 71.1071L134.831 69.2871H135.149Z" fill="white"/>
<path d="M137.035 71.2281V71.5021H135.455V69.2871H137.035V69.5611H135.785V70.2521H136.898V70.5211H135.785V71.2381L137.035 71.2281Z" fill="white"/>
<path opacity="0.4" d="M119.304 67.6777H100.803C99.4499 67.6777 98.353 68.7746 98.353 70.1277V70.6547C98.353 72.0078 99.4499 73.1047 100.803 73.1047H119.304C120.657 73.1047 121.754 72.0078 121.754 70.6547V70.1277C121.754 68.7746 120.657 67.6777 119.304 67.6777Z" fill="black"/>
<path d="M102.783 69.2868H103.716C103.871 69.2713 104.027 69.2884 104.175 69.3371C104.322 69.3857 104.458 69.4648 104.573 69.5691C104.689 69.6734 104.781 69.8008 104.844 69.9429C104.907 70.085 104.939 70.2388 104.939 70.3942C104.939 70.5497 104.907 70.7035 104.844 70.8456C104.781 70.9877 104.689 71.1151 104.573 71.2194C104.458 71.3237 104.322 71.4028 104.175 71.4514C104.027 71.5 103.871 71.5172 103.716 71.5017H102.783V69.2868ZM103.695 71.2277C103.916 71.2277 104.128 71.1399 104.284 70.9836C104.441 70.8273 104.528 70.6153 104.528 70.3942C104.528 70.1732 104.441 69.9612 104.284 69.8049C104.128 69.6486 103.916 69.5607 103.695 69.5607H103.095V71.2277H103.695Z" fill="white"/>
<path d="M105.394 69.2871H105.711V71.5021H105.394V69.2871Z" fill="white"/>
<path d="M106.174 71.2488L106.29 71.0008C106.497 71.1692 106.756 71.2604 107.023 71.2588C107.403 71.2588 107.55 71.1108 107.55 70.9158C107.55 70.3888 106.21 70.7158 106.21 69.8928C106.21 69.5498 106.479 69.2598 107.059 69.2598C107.31 69.2592 107.557 69.3284 107.771 69.4598L107.666 69.7128C107.484 69.5983 107.274 69.5364 107.059 69.5338C106.685 69.5338 106.532 69.6918 106.532 69.8868C106.532 70.4138 107.872 70.0868 107.872 70.8998C107.872 71.2378 107.603 71.5328 107.018 71.5328C106.712 71.538 106.414 71.4377 106.174 71.2488Z" fill="white"/>
<path d="M108.178 70.3948C108.176 70.2423 108.206 70.091 108.265 69.9502C108.323 69.8095 108.41 69.6822 108.52 69.576C108.629 69.4699 108.759 69.3873 108.902 69.3331C109.044 69.2789 109.197 69.2543 109.349 69.2608C109.506 69.2555 109.663 69.2837 109.809 69.3437C109.954 69.4038 110.085 69.4941 110.193 69.6088L109.987 69.8088C109.907 69.7244 109.811 69.6577 109.704 69.6133C109.596 69.5688 109.481 69.5475 109.365 69.5508C109.225 69.5521 109.087 69.588 108.964 69.6554C108.841 69.7228 108.737 69.8196 108.661 69.9371C108.584 70.0546 108.538 70.1892 108.527 70.3288C108.515 70.4685 108.538 70.6088 108.594 70.7374C108.649 70.866 108.736 70.9788 108.846 71.0657C108.956 71.1526 109.086 71.211 109.224 71.2356C109.362 71.2602 109.504 71.2502 109.637 71.2067C109.77 71.1631 109.89 71.0872 109.987 70.9858L110.193 71.1858C110.085 71.3004 109.954 71.3908 109.808 71.4508C109.663 71.5108 109.506 71.5391 109.349 71.5338C109.196 71.5404 109.044 71.5156 108.901 71.4611C108.758 71.4066 108.628 71.3235 108.518 71.2168C108.408 71.1102 108.322 70.9823 108.263 70.8409C108.205 70.6995 108.176 70.5477 108.178 70.3948Z" fill="white"/>
<path d="M111.986 70.9481H110.816L110.573 71.5021H110.246L111.246 69.2871H111.557L112.564 71.5021H112.232L111.986 70.9481ZM111.875 70.6951L111.4 69.6091L110.92 70.6951H111.875Z" fill="white"/>
<path d="M114.37 71.5013L113.895 70.8213H113.209V71.4962H112.893V69.2812H113.753C114.333 69.2812 114.681 69.5712 114.681 70.0512C114.688 70.2056 114.644 70.3581 114.555 70.4847C114.467 70.6113 114.338 70.705 114.191 70.7513L114.718 71.4952L114.37 71.5013ZM114.37 70.0562C114.37 69.7402 114.154 69.5562 113.753 69.5562H113.226V70.5562H113.753C114.153 70.5562 114.365 70.3712 114.365 70.0562H114.37Z" fill="white"/>
<path d="M115.193 69.2868H116.126C116.281 69.2713 116.437 69.2884 116.585 69.3371C116.732 69.3857 116.868 69.4648 116.983 69.5691C117.099 69.6734 117.191 69.8008 117.254 69.9429C117.317 70.085 117.35 70.2388 117.35 70.3942C117.35 70.5497 117.317 70.7035 117.254 70.8456C117.191 70.9877 117.099 71.1151 116.983 71.2194C116.868 71.3237 116.732 71.4028 116.585 71.4514C116.437 71.5 116.281 71.5172 116.126 71.5017H115.193V69.2868ZM116.105 71.2277C116.326 71.2277 116.538 71.1399 116.694 70.9836C116.851 70.8273 116.939 70.6153 116.939 70.3942C116.939 70.1732 116.851 69.9612 116.694 69.8049C116.538 69.6486 116.326 69.5607 116.105 69.5607H115.505V71.2277H116.105Z" fill="white"/>
<path d="M36.61 8.19351H34.5C34.464 8.19573 34.428 8.19057 34.3941 8.17833C34.3602 8.16609 34.3291 8.14703 34.3029 8.12234C34.2766 8.09766 34.2557 8.06786 34.2414 8.03479C34.2271 8.00171 34.2197 7.96606 34.2197 7.93002C34.2197 7.89398 34.2271 7.85831 34.2414 7.82524C34.2557 7.79216 34.2766 7.76237 34.3029 7.73768C34.3291 7.713 34.3602 7.69395 34.3941 7.68171C34.428 7.66947 34.464 7.6643 34.5 7.66652H36.61C36.6459 7.6643 36.682 7.66947 36.7159 7.68171C36.7498 7.69395 36.7808 7.713 36.8071 7.73768C36.8333 7.76237 36.8542 7.79216 36.8685 7.82524C36.8828 7.85831 36.8902 7.89398 36.8902 7.93002C36.8902 7.96606 36.8828 8.00171 36.8685 8.03479C36.8542 8.06786 36.8333 8.09766 36.8071 8.12234C36.7808 8.14703 36.7498 8.16609 36.7159 8.17833C36.682 8.19057 36.6459 8.19573 36.61 8.19351Z" fill="white"/>
<path d="M35.123 9.07358C35.0517 9.07347 34.9833 9.04504 34.933 8.99457L34.079 8.14058C34.0308 8.09126 34.0038 8.02503 34.0038 7.95607C34.0038 7.88711 34.0308 7.8209 34.079 7.77158L34.933 6.91158C34.9831 6.86306 35.0502 6.83594 35.12 6.83594C35.1897 6.83594 35.2568 6.86306 35.307 6.91158C35.3316 6.9361 35.3511 6.96524 35.3644 6.99733C35.3778 7.02942 35.3846 7.06383 35.3846 7.09857C35.3846 7.13332 35.3778 7.16772 35.3644 7.19981C35.3511 7.2319 35.3316 7.26104 35.307 7.28557L34.637 7.95558L35.307 8.62558C35.3322 8.64924 35.3523 8.67782 35.366 8.70955C35.3798 8.74128 35.3868 8.77549 35.3868 8.81007C35.3868 8.84465 35.3798 8.87887 35.366 8.9106C35.3523 8.94233 35.3322 8.97091 35.307 8.99457C35.2584 9.04404 35.1923 9.07243 35.123 9.07358Z" fill="white"/>
<path d="M146.404 7.13882H144.163C144.096 7.13469 144.033 7.10513 143.987 7.05616C143.941 7.0072 143.915 6.94254 143.915 6.87533C143.915 6.80813 143.941 6.74345 143.987 6.69448C144.033 6.64552 144.096 6.61596 144.163 6.61183H146.404C146.44 6.60961 146.476 6.61479 146.51 6.62703C146.544 6.63927 146.575 6.65831 146.601 6.68299C146.627 6.70768 146.648 6.73747 146.663 6.77055C146.677 6.80363 146.684 6.8393 146.684 6.87533C146.684 6.91137 146.677 6.94702 146.663 6.9801C146.648 7.01318 146.627 7.04297 146.601 7.06765C146.575 7.09234 146.544 7.1114 146.51 7.12364C146.476 7.13588 146.44 7.14104 146.404 7.13882Z" fill="white"/>
<path d="M146.404 8.19351H144.163C144.096 8.18937 144.033 8.15981 143.987 8.11085C143.941 8.06189 143.915 7.99723 143.915 7.93002C143.915 7.86281 143.941 7.79813 143.987 7.74917C144.033 7.70021 144.096 7.67065 144.163 7.66652H146.404C146.44 7.6643 146.476 7.66947 146.51 7.68171C146.544 7.69395 146.575 7.713 146.601 7.73768C146.627 7.76237 146.648 7.79216 146.663 7.82524C146.677 7.85831 146.684 7.89398 146.684 7.93002C146.684 7.96606 146.677 8.00171 146.663 8.03479C146.648 8.06786 146.627 8.09766 146.601 8.12234C146.575 8.14703 146.544 8.16609 146.51 8.17833C146.476 8.19057 146.44 8.19573 146.404 8.19351Z" fill="white"/>
<path d="M146.404 9.24624H144.163C144.096 9.24211 144.033 9.21255 143.987 9.16359C143.941 9.11462 143.915 9.04996 143.915 8.98275C143.915 8.91555 143.941 8.85087 143.987 8.80191C144.033 8.75295 144.096 8.72338 144.163 8.71925H146.404C146.44 8.71703 146.476 8.72221 146.51 8.73445C146.544 8.74669 146.575 8.76573 146.601 8.79042C146.627 8.8151 146.648 8.84489 146.663 8.87797C146.677 8.91105 146.684 8.94672 146.684 8.98275C146.684 9.01879 146.677 9.05444 146.663 9.08752C146.648 9.1206 146.627 9.15039 146.601 9.17508C146.575 9.19976 146.544 9.21882 146.51 9.23106C146.476 9.2433 146.44 9.24846 146.404 9.24624Z" fill="white"/>
<path d="M186.083 45.1812C187.033 41.1557 184.54 37.1222 180.514 36.1721C176.489 35.222 172.455 37.7151 171.505 41.7406C170.555 45.766 173.048 49.7995 177.074 50.7496C181.099 51.6997 185.133 49.2066 186.083 45.1812Z" fill="#407BFF"/>
<path d="M174.541 47.1621L172.321 53.0001L177.257 49.0711L174.541 47.1621Z" fill="#407BFF"/>
<path d="M181.62 43.735H175.982C175.912 43.7338 175.846 43.7055 175.797 43.6563C175.747 43.607 175.719 43.5407 175.718 43.471C175.718 43.4364 175.725 43.402 175.738 43.37C175.751 43.338 175.771 43.3089 175.795 43.2844C175.82 43.2598 175.849 43.2404 175.881 43.2271C175.913 43.2139 175.947 43.207 175.982 43.207H181.62C181.655 43.207 181.689 43.2139 181.721 43.2271C181.753 43.2404 181.782 43.2598 181.807 43.2844C181.831 43.3089 181.851 43.338 181.864 43.37C181.877 43.402 181.884 43.4364 181.884 43.471C181.883 43.5407 181.854 43.607 181.805 43.6563C181.756 43.7055 181.69 43.7338 181.62 43.735Z" fill="white"/>
<path d="M178.803 46.551C178.733 46.551 178.666 46.5232 178.616 46.4737C178.567 46.4242 178.539 46.357 178.539 46.287V40.654C178.543 40.5869 178.573 40.524 178.622 40.4779C178.671 40.4319 178.735 40.4062 178.802 40.4062C178.87 40.4062 178.934 40.4319 178.983 40.4779C179.032 40.524 179.062 40.5869 179.066 40.654V46.287C179.065 46.3566 179.036 46.423 178.987 46.4723C178.938 46.5215 178.872 46.5497 178.802 46.551H178.803Z" fill="white"/>
<path d="M168.534 55.8117C168.534 55.8117 161.203 49.9367 156.934 59.1767C154.519 64.3927 156.454 75.3997 161.216 79.1287C165.978 82.8577 175.883 74.4717 175.883 74.4717C175.883 74.4717 178.072 63.8397 174.728 59.3717C170.443 53.6497 168.534 55.8117 168.534 55.8117Z" fill="#263238"/>
<path d="M158.281 78.4914C158.257 78.4916 158.233 78.4848 158.212 78.4716C158.191 78.4585 158.175 78.4396 158.165 78.4174C158.112 78.3174 153.229 68.1384 155.644 60.4854C155.892 59.5101 156.346 58.5992 156.976 57.8141C157.605 57.0291 158.396 56.3881 159.294 55.9344C162.4 54.4894 166.082 55.9814 166.119 55.9974C166.135 56.0035 166.151 56.0131 166.163 56.0254C166.176 56.0378 166.186 56.0526 166.192 56.069C166.199 56.0854 166.202 56.103 166.201 56.1206C166.2 56.1383 166.196 56.1556 166.188 56.1714C166.174 56.2025 166.149 56.227 166.117 56.2398C166.086 56.2527 166.051 56.2529 166.019 56.2404C165.982 56.2404 162.401 54.7744 159.4 56.1714C158.537 56.6121 157.779 57.232 157.175 57.9896C156.572 58.7473 156.137 59.6251 155.9 60.5644C153.516 68.0954 158.352 78.1794 158.4 78.2794C158.408 78.2949 158.413 78.3119 158.414 78.3294C158.416 78.3468 158.414 78.3644 158.408 78.381C158.403 78.3977 158.394 78.4131 158.383 78.4264C158.372 78.4397 158.358 78.4505 158.342 78.4584C158.326 78.4745 158.306 78.4856 158.284 78.4904L158.281 78.4914Z" fill="#263238"/>
<path d="M158.487 82.4414C158.487 82.4414 157.187 94.1234 156.768 95.5154C156.349 96.9074 150.397 104.344 150.397 104.344L152.085 105.219C152.085 105.219 158.414 98.7194 159.421 96.7814C160.428 94.8434 161.931 84.7814 161.931 84.7814L158.487 82.4414Z" fill="#EBB376"/>
<path d="M164.305 87.586L163.978 87.533L159.337 86.774L156.863 86.374C156.863 86.374 157.079 79.28 159.679 77.25L162.179 79.565L164.305 87.586Z" fill="#407BFF"/>
<path opacity="0.2" d="M163.977 87.5289L159.336 86.7699C159.216 84.4754 159.643 82.1852 160.581 80.0879C162.653 81.4849 163.808 84.8549 163.977 87.5289Z" fill="black"/>
<path d="M168.303 98.1423L164.363 104.381C156.542 102.561 131.474 98.7383 128.4 107.334C124.571 118.024 152.223 126.542 167.522 127.064C182.821 127.586 195.1 118.879 185.427 96.5703L168.303 98.1423Z" fill="#263238"/>
<path opacity="0.2" d="M168.303 98.1423L164.363 104.381C156.542 102.561 131.474 98.7383 128.4 107.334C124.571 118.024 152.223 126.542 167.522 127.064C182.821 127.586 195.1 118.879 185.427 96.5703L168.303 98.1423Z" fill="black"/>
<path d="M131.912 121.82C131.684 121.645 131.517 121.403 131.432 121.129C131.418 121.038 131.427 120.945 131.459 120.859C131.492 120.773 131.546 120.697 131.617 120.639C131.655 120.598 131.704 120.568 131.758 120.552C131.812 120.536 131.869 120.535 131.923 120.549C132.45 120.702 132.941 122.173 132.978 122.342C132.986 122.358 132.988 122.377 132.983 122.394C132.978 122.412 132.967 122.427 132.952 122.437C132.936 122.448 132.916 122.454 132.897 122.454C132.877 122.454 132.857 122.448 132.841 122.437C132.512 122.263 132.2 122.056 131.912 121.82ZM131.996 120.807C131.962 120.777 131.923 120.754 131.88 120.738C131.859 120.73 131.835 120.73 131.813 120.736C131.792 120.743 131.773 120.757 131.759 120.775C131.707 120.812 131.667 120.862 131.644 120.921C131.62 120.98 131.614 121.045 131.627 121.107C131.855 121.577 132.242 121.95 132.719 122.162C132.553 121.668 132.3 121.209 131.97 120.806L131.996 120.807Z" fill="#263238"/>
<path d="M132.803 122.462V122.42C132.624 121.966 132.576 120.774 132.945 120.511C133.008 120.469 133.083 120.451 133.158 120.459C133.233 120.466 133.303 120.5 133.356 120.553C133.419 120.595 133.474 120.649 133.516 120.712C133.557 120.776 133.586 120.847 133.599 120.922C133.715 121.522 133.008 122.415 132.961 122.457C132.949 122.471 132.933 122.481 132.915 122.486C132.897 122.49 132.878 122.489 132.861 122.483C132.84 122.482 132.82 122.475 132.803 122.462ZM133.251 120.732L133.214 120.706C133.109 120.632 133.061 120.664 133.04 120.68C132.824 120.828 132.787 121.666 132.903 122.173C133.188 121.827 133.353 121.397 133.372 120.949C133.356 120.866 133.314 120.791 133.251 120.735V120.732Z" fill="#263238"/>
<path d="M160.243 125.951C160.357 126.215 160.387 126.508 160.327 126.79C160.296 126.877 160.243 126.954 160.173 127.015C160.103 127.075 160.018 127.116 159.927 127.133C159.873 127.148 159.817 127.15 159.763 127.138C159.708 127.126 159.658 127.1 159.616 127.064C159.247 126.679 159.516 125.144 159.553 124.954C159.555 124.935 159.563 124.918 159.575 124.905C159.588 124.892 159.604 124.883 159.622 124.88C159.642 124.877 159.662 124.881 159.68 124.891C159.698 124.9 159.713 124.915 159.722 124.933C159.929 125.254 160.103 125.595 160.243 125.951ZM159.679 126.8C159.695 126.842 159.718 126.881 159.748 126.916C159.764 126.931 159.783 126.941 159.805 126.946C159.826 126.951 159.848 126.949 159.869 126.942C159.933 126.934 159.993 126.908 160.043 126.866C160.092 126.825 160.129 126.771 160.149 126.71C160.177 126.19 160.018 125.677 159.701 125.265C159.601 125.771 159.594 126.291 159.679 126.801V126.8Z" fill="#263238"/>
<path d="M149.706 117.211L156.006 119.452L159.028 120.528L158.253 123.835L155.326 123.213L148.174 121.689L149.706 117.211Z" fill="#EBB376"/>
<path d="M157.427 123.994L157.954 120.094C157.961 120.042 157.978 119.992 158.005 119.947C158.032 119.901 158.068 119.862 158.11 119.831C158.152 119.8 158.2 119.778 158.251 119.766C158.302 119.754 158.355 119.753 158.407 119.762L160.332 120.084C160.332 120.084 162.969 120.327 163.47 121.002C164.994 122.964 164.045 131.629 163.027 131.935C162.658 132.046 162.262 131.535 162.104 131.186C161.577 130.068 160.685 127.146 160.248 126.223C159.657 125.319 158.744 124.675 157.695 124.423C157.605 124.396 157.529 124.338 157.479 124.259C157.43 124.18 157.411 124.086 157.427 123.994Z" fill="#407BFF"/>
<path d="M159.743 124.965V125.007C159.68 125.492 159.143 126.558 158.688 126.589C158.614 126.594 158.541 126.575 158.479 126.534C158.418 126.493 158.372 126.432 158.35 126.362C158.28 126.224 158.267 126.065 158.313 125.919C158.503 125.334 159.552 124.896 159.613 124.864C159.627 124.853 159.643 124.848 159.66 124.848C159.678 124.848 159.694 124.853 159.708 124.864C159.723 124.875 159.734 124.891 159.74 124.909C159.746 124.927 159.747 124.946 159.743 124.965ZM158.509 126.257V126.299C158.567 126.42 158.62 126.41 158.646 126.41C158.91 126.384 159.346 125.672 159.495 125.171C159.195 125.313 158.604 125.646 158.488 126.01C158.462 126.09 158.462 126.177 158.488 126.258L158.509 126.257Z" fill="#263238"/>
<path opacity="0.2" d="M149.706 117.211L156.006 119.452L155.326 123.212L148.174 121.688L149.706 117.211Z" fill="black"/>
<path d="M154.205 123.779L152.396 123.911L153.609 117.682L155.661 118.816L154.205 123.779Z" fill="#407BFF"/>
<path opacity="0.6" d="M154.205 123.779L152.396 123.911L153.609 117.682L155.661 118.816L154.205 123.779Z" fill="white"/>
<path opacity="0.2" d="M180.469 99.5762L171.039 110.029C171.039 110.029 160.612 109.797 147.955 115.983C147.955 115.983 134.374 110.377 133.124 105.715C131.489 99.6082 164.357 104.381 164.357 104.381L180.469 99.5762Z" fill="black"/>
<path d="M136.241 106.959V108.51C136.241 108.91 136.71 109.069 137.101 109.069H168.065C168.465 109.069 168.941 108.905 168.941 108.51V106.959H136.241Z" fill="#263238"/>
<path opacity="0.4" d="M136.241 106.959V108.51C136.241 108.91 136.71 109.069 137.101 109.069H168.065C168.465 109.069 168.941 108.905 168.941 108.51V106.959H136.241Z" fill="white"/>
<path opacity="0.2" d="M136.241 106.959V108.51C136.241 108.91 136.71 109.069 137.101 109.069H157.522C157.922 109.069 158.392 108.905 158.392 108.51V106.959H136.241Z" fill="black"/>
<path d="M131.063 90.8742L134.755 107.593C134.823 107.861 134.978 108.099 135.195 108.271C135.411 108.442 135.679 108.538 135.955 108.542H156.091C156.217 108.54 156.341 108.508 156.452 108.45C156.564 108.391 156.66 108.307 156.734 108.205C156.807 108.102 156.855 107.984 156.875 107.859C156.894 107.735 156.884 107.607 156.845 107.487L153.153 90.8952C153.078 90.6416 152.918 90.4219 152.699 90.2738C152.48 90.1256 152.216 90.0583 151.953 90.0832H131.822C131.279 90.0872 130.942 90.3252 131.063 90.8742Z" fill="#263238"/>
<path opacity="0.4" d="M131.063 90.8729L134.755 107.591C134.823 107.859 134.978 108.097 135.195 108.268C135.411 108.44 135.679 108.535 135.955 108.54H155.405C155.531 108.537 155.655 108.506 155.767 108.447C155.879 108.389 155.976 108.305 156.05 108.203C156.124 108.1 156.173 107.982 156.194 107.858C156.215 107.733 156.207 107.606 156.17 107.485L152.475 90.8909C152.401 90.6367 152.24 90.4163 152.021 90.2671C151.803 90.1179 151.539 90.0493 151.275 90.0729H131.822C131.279 90.0819 130.942 90.3249 131.063 90.8729Z" fill="white"/>
<path opacity="0.2" d="M140.988 99.3683C141.052 100.042 141.352 100.671 141.834 101.146C142.317 101.62 142.951 101.91 143.625 101.963C144.725 101.963 145.418 100.798 145.096 99.3683C144.993 98.7267 144.692 98.1329 144.237 97.6692C143.782 97.2054 143.194 96.8945 142.554 96.7793C142.876 98.2083 142.19 99.3683 141.067 99.3683C141.041 99.3703 141.014 99.3703 140.988 99.3683Z" fill="black"/>
<path d="M145.334 124.373L138.742 125.454L135.578 125.976L134.65 122.706L137.519 121.836L144.512 119.705L145.334 124.373Z" fill="#EBB376"/>
<path d="M135.297 122.175L136.721 125.867C136.743 125.917 136.754 125.97 136.754 126.025C136.754 126.079 136.743 126.132 136.721 126.182C136.699 126.232 136.667 126.276 136.627 126.313C136.587 126.349 136.54 126.377 136.489 126.394L134.648 127.048C134.648 127.048 132.238 128.103 131.457 127.765C129.173 126.784 125.809 118.741 126.557 117.982C126.826 117.708 127.417 117.982 127.728 118.193C128.714 118.921 130.919 121.036 131.752 121.632C132.704 122.145 133.817 122.268 134.858 121.975C134.943 121.954 135.033 121.962 135.113 121.998C135.193 122.034 135.258 122.097 135.297 122.175Z" fill="#407BFF"/>
<path opacity="0.2" d="M145.334 124.373L138.742 125.454L137.518 121.836L144.511 119.705L145.334 124.373Z" fill="black"/>
<path d="M138.652 121.151C138.652 121.151 165.552 106.041 174.811 106.468C184.07 106.895 185.428 115.08 181.599 120.18C177.77 125.28 170.699 126.546 170.699 126.546C170.699 126.546 175.514 119.746 174.818 117.833C174.122 115.92 171.4 118.587 171.4 118.587C171.4 118.587 154.486 124.045 139.693 125.322L138.652 121.151Z" fill="#263238"/>
<path d="M138.219 120.74L139.738 119.717L141.695 125.717H139.348L138.219 120.74Z" fill="#407BFF"/>
<path opacity="0.6" d="M138.219 120.74L139.738 119.717L141.695 125.717H139.348L138.219 120.74Z" fill="white"/>
<path d="M185.422 96.5691L168.297 98.1511C168.297 98.1511 165.613 92.592 163.55 90.425C161.487 88.258 159.668 77.2401 159.668 77.2401C161.06 76.5662 162.494 75.9813 163.961 75.489C168.186 74.0744 172.606 73.3321 177.061 73.2891H177.156C178.432 73.2891 179.171 73.3521 179.171 73.3521C179.689 73.702 180.109 74.1797 180.389 74.739C182.224 77.903 183.689 85.2871 184.55 90.5871C185.116 94.0111 185.422 96.5691 185.422 96.5691Z" fill="#407BFF"/>
<path opacity="0.2" d="M184.557 90.5882C180.781 88.8582 175.628 85.9312 175.897 82.9622C176.187 79.7032 178.829 76.4222 180.397 74.7402C182.231 77.9042 183.692 85.2882 184.557 90.5882Z" fill="black"/>
<path opacity="0.4" d="M174.658 88.4255C175.523 90.9095 174.368 93.2935 172.084 93.7415C170.853 93.8839 169.611 93.5933 168.571 92.9196C167.531 92.2459 166.757 91.2311 166.384 90.0495C165.524 87.5545 166.669 85.1815 168.958 84.7285C171.247 84.2755 173.798 85.9455 174.658 88.4255Z" fill="white"/>
<path d="M167.3 93.0406L168.376 84.1406L175.47 91.8246L167.3 93.0406Z" fill="#407BFF"/>
<path d="M177.163 73.2892C176.685 75.4295 175.671 77.413 174.215 79.0532C173.894 79.3976 173.541 79.7104 173.16 79.9872C172.098 80.7551 170.835 81.1983 169.526 81.2632C168.665 81.3877 167.787 81.2464 167.008 80.858C166.23 80.4697 165.588 79.8529 165.17 79.0902C164.781 78.3622 164.492 77.5853 164.31 76.7802C164.189 76.3002 164.094 75.8522 163.994 75.4932L164.822 75.2242C165.239 75.0922 165.645 74.9712 166.051 74.8552C168.672 74.126 171.356 73.6438 174.067 73.4152L175.175 73.3412C175.892 73.3042 176.525 73.2882 177.068 73.2832L177.163 73.2892Z" fill="#EBB376"/>
<path d="M166.899 74.4087C166.867 75.4637 166.261 75.7327 166.261 75.7327C166.21 76.0592 166.234 76.3931 166.331 76.709C166.429 77.0248 166.597 77.3141 166.824 77.5549C167.05 77.7956 167.329 77.9814 167.638 78.098C167.947 78.2146 168.279 78.259 168.608 78.2277C171.968 77.8847 173.028 73.8397 173.028 73.8397C170.586 72.8697 170.028 70.1477 169.928 68.5657C169.898 68.1459 169.898 67.7245 169.928 67.3047L165.361 70.1847C165.747 70.8267 166.087 71.495 166.379 72.1847C166.701 72.8834 166.877 73.6399 166.899 74.4087Z" fill="#EBB376"/>
<path opacity="0.2" d="M165.665 69.8311C165.983 70.5151 166.255 71.2201 166.477 71.9411C166.724 72.6701 166.821 73.4416 166.762 74.2091C169.33 74.4091 170.348 68.7351 170.348 68.7351L170.374 68.7031C170.385 68.2839 170.427 67.8661 170.5 67.4531L165.665 69.8311Z" fill="black"/>
<path d="M161.921 58.4182C157.501 59.7632 156.8 62.5632 157.865 67.2182C159.194 73.0182 161.689 76.7112 166.831 73.7892C173.84 69.8472 169.257 56.1782 161.921 58.4182Z" fill="#EBB376"/>
<path d="M160.645 66.0957C160.494 66.8639 160.251 67.6112 159.922 68.3217C160.106 68.4646 160.327 68.5535 160.558 68.5785C160.79 68.6036 161.024 68.5638 161.235 68.4637L160.645 66.0957Z" fill="#D58745"/>
<path d="M163.239 64.9106C163.344 65.2746 163.624 65.5166 163.867 65.4376C164.11 65.3586 164.226 65.0206 164.12 64.6516C164.014 64.2826 163.74 64.0456 163.498 64.1246C163.256 64.2036 163.139 64.5466 163.239 64.9106Z" fill="#263238"/>
<path d="M163.602 64.1134L162.721 64.0234C162.721 64.0234 163.302 64.5824 163.602 64.1134Z" fill="#263238"/>
<path d="M158.677 66.1076C158.777 66.4716 159.057 66.7136 159.299 66.6346C159.541 66.5556 159.658 66.2126 159.557 65.8486C159.456 65.4846 159.172 65.2426 158.929 65.3216C158.686 65.4006 158.572 65.7386 158.677 66.1076Z" fill="#263238"/>
<path d="M159.036 65.3107L158.155 65.2207C158.155 65.2207 158.74 65.7747 159.036 65.3107Z" fill="#263238"/>
<path d="M164.473 62.119C164.435 62.119 164.398 62.1079 164.367 62.087C164.07 61.9312 163.742 61.8441 163.407 61.8322C163.072 61.8202 162.739 61.8838 162.432 62.018C162.386 62.039 162.333 62.0407 162.286 62.0229C162.238 62.0051 162.2 61.9691 162.179 61.923C162.158 61.8769 162.156 61.8243 162.174 61.7768C162.192 61.7294 162.228 61.6909 162.274 61.67C162.639 61.5077 163.037 61.4324 163.436 61.4497C163.835 61.4671 164.224 61.5767 164.574 61.77C164.595 61.7838 164.613 61.8016 164.627 61.8224C164.641 61.8431 164.65 61.8665 164.655 61.891C164.66 61.9155 164.66 61.9408 164.655 61.9653C164.651 61.9898 164.641 62.0132 164.627 62.034C164.611 62.0602 164.588 62.0818 164.561 62.0967C164.534 62.1116 164.504 62.1193 164.473 62.119Z" fill="#263238"/>
<path d="M157.437 63.7283C157.393 63.7308 157.349 63.7157 157.316 63.6863C157.296 63.6709 157.279 63.6516 157.267 63.6294C157.254 63.6072 157.247 63.5827 157.244 63.5575C157.242 63.5322 157.244 63.5067 157.252 63.4826C157.26 63.4584 157.273 63.4362 157.29 63.4173C157.498 63.1285 157.769 62.891 158.082 62.7229C158.396 62.5548 158.743 62.4605 159.099 62.4473C159.149 62.4501 159.196 62.4728 159.23 62.5103C159.263 62.5477 159.281 62.597 159.278 62.6473C159.274 62.6977 159.251 62.7448 159.214 62.7791C159.177 62.8134 159.129 62.8324 159.078 62.8323C158.782 62.8463 158.494 62.9283 158.235 63.0719C157.976 63.2155 157.754 63.4169 157.586 63.6603C157.567 63.6815 157.544 63.6985 157.519 63.7102C157.493 63.722 157.465 63.7281 157.437 63.7283Z" fill="#263238"/>
<path d="M169.019 64.3874C169.019 64.3874 165.855 61.3874 165.327 58.4874C165.327 58.4874 155.48 57.5804 157.759 66.5984C157.759 66.5984 154.494 58.9724 162.036 56.4774C169.578 53.9824 172.936 65.1054 170.021 69.6154C170 69.6144 170.986 66.2704 169.019 64.3874Z" fill="#263238"/>
<path d="M168.581 65.5442C168.468 65.0211 168.567 64.4746 168.857 64.0246C169.147 63.5747 169.603 63.258 170.126 63.1442C171.539 62.8752 173.053 65.4862 169.852 67.2002C169.393 67.4442 168.972 67.0442 168.581 65.5442Z" fill="#EBB376"/>
<path d="M162.253 70.4574C162.211 70.4455 162.174 70.4203 162.148 70.3856C162.122 70.3508 162.107 70.3084 162.107 70.2649C162.107 70.2213 162.122 70.1789 162.148 70.1441C162.174 70.1094 162.211 70.0842 162.253 70.0723C162.752 70.088 163.239 69.9192 163.622 69.5982C164.004 69.2772 164.255 68.8266 164.326 68.3324C164.333 68.2829 164.359 68.2381 164.398 68.2076C164.438 68.1771 164.488 68.1634 164.537 68.1693C164.587 68.177 164.631 68.2029 164.663 68.242C164.694 68.281 164.709 68.3304 164.706 68.3803C164.616 68.9622 164.32 69.4923 163.872 69.8738C163.423 70.2554 162.853 70.4628 162.264 70.4583L162.253 70.4574Z" fill="#263238"/>
<path d="M175.451 69.1016C175.421 69.1021 175.391 69.0918 175.368 69.0725C175.345 69.0533 175.329 69.0264 175.324 68.9966C175.324 68.9706 174.833 66.5546 170.182 65.1966C165.346 63.7886 165.013 57.9866 165.013 57.9286C165.012 57.8936 165.024 57.8595 165.048 57.8337C165.072 57.8079 165.105 57.7926 165.14 57.7911C165.175 57.7897 165.209 57.8022 165.235 57.8259C165.26 57.8496 165.276 57.8826 165.277 57.9176C165.277 57.9756 165.604 63.5926 170.256 64.9426C175.082 66.3506 175.567 68.8426 175.583 68.9426C175.588 68.9767 175.58 69.0113 175.56 69.0396C175.541 69.0679 175.512 69.088 175.478 69.0956L175.451 69.1016Z" fill="#263238"/>
<path d="M177.162 79.123C177.162 79.123 176.603 90.393 175.654 92.923C174.705 95.453 164.742 104.784 164.742 104.784C163.683 104.516 162.596 104.369 161.504 104.346C160.417 105.164 159.378 106.045 158.392 106.983H166.055L166.725 105.796C166.725 105.796 177.03 98.165 178.164 96.34C179.003 94.995 181.698 81.304 181.698 81.304L177.162 79.123Z" fill="#EBB376"/>
<path d="M179.177 73.3521C186.112 75.0521 182.869 85.4821 182.869 85.4821L175.654 83.7151C175.654 83.7151 175.654 72.4881 179.177 73.3521Z" fill="#407BFF"/>
<path d="M174.214 79.0547C173.893 79.3991 173.54 79.7119 173.159 79.9888C172.809 77.7569 173.124 75.4712 174.066 73.4178L175.173 73.3438C174.438 75.1539 174.111 77.1038 174.214 79.0547Z" fill="#263238"/>
<path d="M166.023 74.8574C165.488 76.2025 165.19 77.6298 165.142 79.0764C164.753 78.3484 164.464 77.5715 164.282 76.7664C164.42 76.2358 164.596 75.7158 164.809 75.2104C165.211 75.0944 165.617 74.9994 166.023 74.8574Z" fill="#263238"/>
<path opacity="0.4" d="M174.214 79.0547C173.893 79.3991 173.54 79.7119 173.159 79.9888C172.809 77.7569 173.124 75.4712 174.066 73.4178L175.173 73.3438C174.438 75.1539 174.111 77.1038 174.214 79.0547Z" fill="white"/>
<path opacity="0.4" d="M166.023 74.8574C165.488 76.2025 165.19 77.6298 165.142 79.0764C164.753 78.3484 164.464 77.5715 164.282 76.7664C164.42 76.2358 164.596 75.7158 164.809 75.2104C165.211 75.0944 165.617 74.9994 166.023 74.8574Z" fill="white"/>
</svg>
