<svg width="354" height="354" viewBox="0 0 354 354" fill="none" xmlns="http://www.w3.org/2000/svg"><path d="M288.156 188.328c-61.808-35.655-161.636-35.655-223.02 0-61.384 35.655-61.037 93.499.708 129.168 61.745 35.669 161.608 35.662 223.02 0 61.412-35.662 61.037-93.492-.708-129.168Z" fill="#F0F0F0"/><path d="M167.23 242.292c11.972 6.91 31.314 6.91 43.188 0 5.947-3.462 8.906-7.987 8.878-12.518-.028-4.531-3.03-9.062-9.02-12.517-11.972-6.91-31.315-6.91-43.188 0-5.947 3.455-8.907 7.986-8.878 12.517.028 4.531 3.03 9.056 9.02 12.518Zm137.465-5.246c-18.5-10.677-48.392-10.677-66.772 0-16.234 9.437-18.039 24.072-5.48 34.692-10.131-.623-20.631 1.302-28.369 5.798-13.58 7.894-13.509 20.688.156 28.582 13.664 7.894 35.761 7.894 49.34 0 10.804-6.28 12.957-15.661 6.507-23.208 15.576 2.251 32.709-.142 44.83-7.186 18.38-10.684 18.281-27.995-.212-38.678Zm-242.965.035c18.5-10.677 48.392-10.677 66.765 0 16.241 9.437 18.047 24.072 5.487 34.692 10.131-.63 20.631 1.302 28.369 5.798 13.58 7.894 13.509 20.688-.162 28.582-13.672 7.894-35.754 7.887-49.341 0-10.804-6.28-12.956-15.661-6.499-23.208-15.576 2.251-32.71-.142-44.838-7.193-18.373-10.677-18.28-27.952.22-38.671Zm94.384-49.631c-5.225-3.016-13.671-3.016-18.868 0-5.197 3.016-5.169 7.916.064 10.932 5.232 3.016 13.671 3.016 18.868 0 5.196-3.016 5.168-7.93-.064-10.932Z" fill="#E0E0E0"/><path d="m159.371 170.083-12.659.368-12.659-.368c-.545 8.546 1.125 17.261 3.426 21.516a5.81 5.81 0 0 0 2.507 2.549c3.738 2.124 9.77 2.124 13.452 0a5.6 5.6 0 0 0 2.506-2.62c2.315-4.276 3.965-12.942 3.427-21.445Z" fill="#fff"/><path d="M155.633 164.9c4.956 2.832 4.956 7.505.056 10.365-4.899 2.861-12.942 2.832-17.898 0-4.956-2.832-4.956-7.504-.057-10.365 4.9-2.86 12.943-2.867 17.899 0Z" fill="#EBEBEB"/><path d="M153.671 166.04c3.866 2.23 3.887 5.855.043 8.086-3.845 2.23-10.096 2.237-13.962 0-3.866-2.238-3.887-5.856-.042-8.086 3.844-2.23 10.096-2.237 13.961 0Z" fill="#E0E0E0"/><path opacity=".15" d="M153.671 166.04c3.866 2.23 3.887 5.855.043 8.086-3.845 2.23-10.096 2.237-13.962 0-3.866-2.238-3.887-5.856-.042-8.086 3.844-2.23 10.096-2.237 13.961 0Z" fill="#000"/><path d="M167.52 116.07c-28.525 9.345-28.752 28.426-22.38 42.012 1.621 2.754 6.535 4.248 10.804-12.673l-7.491.963 8.73-4.425 2.266-6.783-7.279.545 9.254-3.886a136.92 136.92 0 0 1 6.096-15.753Z" fill="#FAFAFA"/><path opacity=".2" d="M167.52 116.07c-28.525 9.345-28.752 28.426-22.38 42.012 1.621 2.754 6.535 4.248 10.804-12.673l-7.491.963 8.73-4.425 2.266-6.783-7.279.545 9.254-3.886a136.92 136.92 0 0 1 6.096-15.753Z" fill="#000"/><path opacity=".2" d="M167.52 116.07c-28.525 9.345-28.752 28.426-22.38 42.012 1.621 2.754 6.535 4.248 10.804-12.673l-7.491.963 8.73-4.425 2.266-6.783-7.279.545 9.254-3.886a136.92 136.92 0 0 1 6.096-15.753Z" fill="#9269AD"/><path d="M159.456 120.842c-15.024 11.42-16.405 24.511-12.15 38.175-1.508-12.036-3.129-24.2 12.15-38.175Z" fill="#fff"/><path d="M119.213 135.455c28.115 3.957 31.527 21.686 27.796 35.4-1.055 2.832-5.381 5.019-12.17-10.012l7.136-.346-8.871-2.655-3.236-5.941 6.868-.708-9.254-2.081a128.936 128.936 0 0 0-8.269-13.657Z" fill="#FAFAFA"/><path opacity=".2" d="M119.213 135.455c28.115 3.957 31.527 21.686 27.796 35.4-1.055 2.832-5.381 5.019-12.17-10.012l7.136-.346-8.871-2.655-3.236-5.941 6.868-.708-9.254-2.081a128.936 128.936 0 0 0-8.269-13.657Z" fill="#fff"/><path opacity=".1" d="M119.213 135.455c28.115 3.957 31.527 21.686 27.796 35.4-1.055 2.832-5.381 5.019-12.17-10.012l7.136-.346-8.871-2.655-3.236-5.941 6.868-.708-9.254-2.081a128.936 128.936 0 0 0-8.269-13.657Z" fill="#9269AD"/><path d="M127.518 138.563c15.902 8.128 19.342 20.093 17.657 33.524-.601-11.456-1.111-23.053-17.657-33.524Z" fill="#fff"/><path d="M175.754 142.103c-25.785.418-30.848 16.015-29.028 28.801.637 2.669 4.29 5.133 12.085-7.653l-6.372-1.119 8.277-1.416 3.582-4.956-6.11-1.416 8.567-.842a117.253 117.253 0 0 1 8.999-11.399Z" fill="#FAFAFA"/><path d="M167.916 143.965c-15.243 5.551-19.682 15.951-19.668 28.249 1.848-10.259 3.583-20.659 19.668-28.249Z" fill="#fff"/><path opacity=".2" d="M175.754 142.103c-25.785.418-30.848 16.015-29.028 28.801.637 2.669 4.29 5.133 12.085-7.653l-6.372-1.119 8.277-1.416 3.582-4.956-6.11-1.416 8.567-.842a117.253 117.253 0 0 1 8.999-11.399Z" fill="#9269AD"/><path d="m260.53 71.77-.205 72.315 4.028 2.322.205-72.315-4.028-2.322Z" fill="#E0E0E0"/><path d="m264.558 74.092-.205 72.315 3.498-2.032.191-68.272-3.484-2.011Z" fill="#F0F0F0"/><path opacity=".2" d="m264.544 77.335.014-3.243-4.028-2.322-.007 3.242 4.021 2.323Zm0 0 2.825-1.622-2.811-1.621-.014 3.243Z" fill="#000"/><path d="m212.103 43.804 3.497-2.032-.198 72.322-3.498 2.032.199-72.322Z" fill="#F0F0F0"/><path d="m211.904 116.126 3.498-2.032 100.883 58.24-3.498 2.039-100.883-58.247Z" fill="#F5F5F5"/><path d="M208.095 36.858 317.028 99.75l-.233 81.569-108.933-62.892.233-81.569Zm104.692 137.515.206-72.322-100.89-58.247-.206 72.308 100.89 58.247" fill="#E0E0E0"/><path d="m208.095 36.858 3.498-2.032 108.933 62.892-3.498 2.032-108.933-62.892Z" fill="#F5F5F5"/><path d="m317.028 99.75 3.498-2.032-.234 81.569-3.497 2.032.233-81.569Z" fill="#F0F0F0"/><path d="M74.113 113.11v-5.452l-.247.142c-.156.085-.305.177-.454.269-4.035 2.429-8.078 6.259-11.844 10.394-.623.708-1.246 1.373-1.848 2.074-3.18 3.632-6.287 7.484-9.48 11.087v8.822l3.844-2.223c5.204-9.799 12.34-18.748 20.03-25.113Zm.043 13.53v-7.285a45.697 45.697 0 0 0-8.178 12.036l8.178-4.751Z" fill="#EBEBEB"/><path d="M65.957 131.377a45.697 45.697 0 0 1 8.178-12.036v-6.245c-7.69 6.372-14.826 15.314-20.016 25.113l11.86-6.847-.022.015Zm-8.05-25.786c.192-.057.376-.127.56-.191 1.033-.368 2.074-.8 3.122-1.282l.382-.184c.354-.17.708-.339 1.062-.524l.22-.106c.53-.276 1.069-.566 1.607-.871l.34-.198.283-.163a57.741 57.741 0 0 0 8.227-5.897c.12-.1.24-.199.354-.305v-9.204c-5.855 2.995-11.611 3.922-16.284 2.478a14.237 14.237 0 0 1-7.696-5.961l.064 23.959a28.216 28.216 0 0 0 7.76-1.551Zm3.646 12.871c3.767-4.134 7.788-7.965 11.845-10.393.149-.092.298-.184.454-.269l.247-.142v-5.288a114.458 114.458 0 0 0-21.565 16.411c-.78.708-1.558 1.501-2.337 2.23v10.62c3.193-3.603 6.301-7.455 9.48-11.087.63-.708 1.254-1.402 1.877-2.082Z" fill="#FAFAFA"/><path d="M74.085 102.37v-6.5a7.259 7.259 0 0 1-.354.305 57.734 57.734 0 0 1-8.227 5.897l-.283.163-.34.199c-.538.304-1.076.594-1.607.87l-.22.107-.148.077.148-.077c-.354.177-.708.354-1.054.516l-.39.192a38.303 38.303 0 0 1-3.122 1.281l.587-.219-.587.219c-.184.064-.368.135-.56.191a28.217 28.217 0 0 1-7.787 1.537l.042 13.883c.779-.708 1.558-1.486 2.336-2.23a114.458 114.458 0 0 1 21.566-16.411Z" fill="#EBEBEB"/><path d="M74.021 79.19v-6.811c-3.695-.871-6.563-3.54-8.078-7.59l-8.191 4.722c3.242 6.408 9.119 9.955 16.27 9.679Z" fill="#FAFAFA"/><path d="M57.787 89.13c4.644 1.416 10.4.517 16.284-2.478V79.19c-7.15.276-13.027-3.271-16.284-9.678l-7.689 4.439v9.204a14.237 14.237 0 0 0 7.689 5.975Z" fill="#EBEBEB"/><path d="m75.31 57.83-26.6 15.356.191 69.582 26.6-15.328-.191-69.61Zm-25.042 82.616v-19.442l-.043-13.884-.063-23.958v-9.204l7.689-4.44 8.17-4.722 7.944-4.616v66.474l-8.199 4.737-11.859 6.846-3.639 2.209Z" fill="#fff"/><path d="M74 72.379V60.152l-8.078 4.637c1.515 4.028 4.382 6.719 8.078 7.59Z" fill="#EBEBEB"/><path d="m75.501 127.412-26.6 15.356.008 1.848L77.1 128.339l-1.6-.927Z" fill="#CACACA"/><path d="m75.31 57.83.191 69.582 1.6.927-.198-71.43-1.593.92Z" fill="#F0F0F0"/><path d="m81.18 49.503-36.774 21.24.198 81.279 36.773-21.24-.198-81.279Zm-32.271 95.113v-1.848l-.191-69.582 26.599-15.357 1.593-.92.198 71.43-28.2 16.277Z" fill="#E0E0E0"/><path d="m81.18 49.503-3.038-1.628-36.774 21.233 3.038 1.628 36.773-21.233Z" fill="#F5F5F5"/><path d="m41.368 69.108.234 81.285 3.03 1.629-.226-81.286-3.038-1.628Z" fill="#F0F0F0"/><path d="M127.914 83.622c.262-.283.517-.567.772-.857l.17-.198c.418-.481.821-.977 1.218-1.487l.134-.17c.312-.41.623-.828.921-1.253l.134-.184c.29-.41.567-.835.843-1.26l.191-.305c.226-.347.439-.708.651-1.062.043-.07.085-.148.135-.22.233-.403.467-.82.708-1.231l.163-.312c.177-.332.339-.665.509-.998.05-.113.107-.226.163-.34.198-.417.397-.842.581-1.274 0-.064.056-.12.078-.184.17-.39.325-.772.474-1.161.05-.114.092-.234.135-.347.177-.46.346-.92.495-1.416a.536.536 0 0 0 0-.114c.156-.474.297-.955.432-1.415 0-.093.057-.185.078-.277.156-.559.29-1.111.411-1.663 0-.12.049-.248.077-.369l.128-.644c0-.141.049-.276.071-.418v-.035c0-.22.07-.446.099-.665.028-.22.042-.27.056-.404.064-.474.107-.956.142-1.416v-.304c.028-.473.042-.945.042-1.417V58.9c0-.12 0-.39-.042-.581-.042-.191 0-.234-.042-.354-.043-.12-.036-.361-.064-.538l-.064-.368c0-.163-.049-.333-.085-.489l-.085-.368c-.035-.149-.064-.304-.099-.446l-.106-.361c-.043-.142-.078-.283-.121-.418l-.127-.347c-.042-.127-.085-.262-.134-.39-.05-.127-.1-.219-.142-.325a7.61 7.61 0 0 0-.319-.68c-.056-.106-.113-.233-.177-.34l-.17-.29c-.063-.106-.127-.219-.198-.325-.071-.106-.127-.177-.184-.27l-.212-.297c-.071-.092-.142-.17-.213-.255l-.219-.276-.227-.226-.24-.255-.241-.213a3.795 3.795 0 0 0-.255-.219c-.092-.07-.17-.135-.255-.198l-.262-.198-.269-.17a8.304 8.304 0 0 0-2.662-1.084c1.791 2.018 2.832 5.09 2.832 9.042 0 .472-.014.944-.043 1.416v.304c-.035.467-.077.949-.141 1.416 0 .135-.036.269-.057.404-.021.134-.063.446-.099.665-.035.22-.057.304-.078.453l-.127.652c0 .12-.05.247-.078.368-.12.552-.255 1.104-.411 1.663 0 .093-.049.185-.078.277-.134.474-.276.955-.439 1.416a.645.645 0 0 1-.035.113c-.156.46-.319.927-.496 1.416-.042.113-.085.234-.134.347-.149.39-.312.772-.474 1.161l-.078.184c-.184.425-.383.857-.581 1.274l-.163.333-.509 1.006-.163.304c-.22.418-.453.835-.708 1.239l-.135.227c-.212.36-.432.708-.651 1.062l-.191.304c-.276.425-.56.85-.843 1.26l-.134.184c-.298.425-.609.843-.928 1.254l-.127.17c-.397.51-.8 1.005-1.218 1.486l-.17.198c-.255.29-.517.581-.779.864l-.049.05c-.279.297-.562.587-.85.87l-.184.178c-.368.36-.751.708-1.133 1.062l-.106.092c-.397.354-.807.708-1.218 1.005l-.233.184a25.08 25.08 0 0 1-1.225.892l-.22.149c-.432.283-.871.566-1.31.821-.439.255-.708.39-1.054.567l-.305.148-.793.361-.283.12c-.241.1-.489.192-.708.277l-.184.07-.899.277a6.65 6.65 0 0 1-.524.127l-.241.057a10.948 10.948 0 0 1-1.862.255h-1.352c-.255 0-.503-.05-.751-.092l-.226-.036-.248-.056a8.063 8.063 0 0 0 2.067 1.685l.085.042h.05c.199.113.405.215.616.305l.212.085c.232.093.468.173.708.24l.12.043c.262.07.539.134.815.184h.212c.246.042.494.07.743.085h1.346l.531-.043c.198 0 .396-.042.601-.07l.383-.071.368-.071.219-.057h.071l.468-.113.885-.276.184-.071.708-.276.269-.113c.262-.114.531-.234.793-.361l.177-.085.127-.064c.347-.177.708-.361 1.055-.567.347-.205.878-.538 1.31-.82l.056-.043.163-.106c.418-.284.822-.581 1.225-.893.055-.036.107-.076.156-.12l.085-.064c.403-.318.814-.651 1.21-1.005l.064-.057h.043c.382-.34.764-.708 1.132-1.062a2.06 2.06 0 0 0 .185-.177c.292-.283.575-.573.849-.87l.106-.05Z" fill="#9269AD"/><path opacity=".3" d="M127.914 83.622c.262-.283.517-.567.772-.857l.17-.198c.418-.481.821-.977 1.218-1.487l.134-.17c.312-.41.623-.828.921-1.253l.134-.184c.29-.41.567-.835.843-1.26l.191-.305c.226-.347.439-.708.651-1.062.043-.07.085-.148.135-.22.233-.403.467-.82.708-1.231l.163-.312c.177-.332.339-.665.509-.998.05-.113.107-.226.163-.34.198-.417.397-.842.581-1.274 0-.064.056-.12.078-.184.17-.39.325-.772.474-1.161.05-.114.092-.234.135-.347.177-.46.346-.92.495-1.416a.536.536 0 0 0 0-.114c.156-.474.297-.955.432-1.415 0-.093.057-.185.078-.277.156-.559.29-1.111.411-1.663 0-.12.049-.248.077-.369l.128-.644c0-.141.049-.276.071-.418v-.035c0-.22.07-.446.099-.665.028-.22.042-.27.056-.404.064-.474.107-.956.142-1.416v-.304c.028-.473.042-.945.042-1.417V58.9c0-.12 0-.39-.042-.581-.042-.191 0-.234-.042-.354-.043-.12-.036-.361-.064-.538l-.064-.368c0-.163-.049-.333-.085-.489l-.085-.368c-.035-.149-.064-.304-.099-.446l-.106-.361c-.043-.142-.078-.283-.121-.418l-.127-.347c-.042-.127-.085-.262-.134-.39-.05-.127-.1-.219-.142-.325a7.61 7.61 0 0 0-.319-.68c-.056-.106-.113-.233-.177-.34l-.17-.29c-.063-.106-.127-.219-.198-.325-.071-.106-.127-.177-.184-.27l-.212-.297c-.071-.092-.142-.17-.213-.255l-.219-.276-.227-.226-.24-.255-.241-.213a3.795 3.795 0 0 0-.255-.219c-.092-.07-.17-.135-.255-.198l-.262-.198-.269-.17a8.304 8.304 0 0 0-2.662-1.084c1.791 2.018 2.832 5.09 2.832 9.042 0 .472-.014.944-.043 1.416v.304c-.035.467-.077.949-.141 1.416 0 .135-.036.269-.057.404-.021.134-.063.446-.099.665-.035.22-.057.304-.078.453l-.127.652c0 .12-.05.247-.078.368-.12.552-.255 1.104-.411 1.663 0 .093-.049.185-.078.277-.134.474-.276.955-.439 1.416a.645.645 0 0 1-.035.113c-.156.46-.319.927-.496 1.416-.042.113-.085.234-.134.347-.149.39-.312.772-.474 1.161l-.078.184c-.184.425-.383.857-.581 1.274l-.163.333-.509 1.006-.163.304c-.22.418-.453.835-.708 1.239l-.135.227c-.212.36-.432.708-.651 1.062l-.191.304c-.276.425-.56.85-.843 1.26l-.134.184c-.298.425-.609.843-.928 1.254l-.127.17c-.397.51-.8 1.005-1.218 1.486l-.17.198c-.255.29-.517.581-.779.864l-.049.05c-.279.297-.562.587-.85.87l-.184.178c-.368.36-.751.708-1.133 1.062l-.106.092c-.397.354-.807.708-1.218 1.005l-.233.184a25.08 25.08 0 0 1-1.225.892l-.22.149c-.432.283-.871.566-1.31.821-.439.255-.708.39-1.054.567l-.305.148-.793.361-.283.12c-.241.1-.489.192-.708.277l-.184.07-.899.277a6.65 6.65 0 0 1-.524.127l-.241.057a10.948 10.948 0 0 1-1.862.255h-1.352c-.255 0-.503-.05-.751-.092l-.226-.036-.248-.056a8.063 8.063 0 0 0 2.067 1.685l.085.042h.05c.199.113.405.215.616.305l.212.085c.232.093.468.173.708.24l.12.043c.262.07.539.134.815.184h.212c.246.042.494.07.743.085h1.346l.531-.043c.198 0 .396-.042.601-.07l.383-.071.368-.071.219-.057h.071l.468-.113.885-.276.184-.071.708-.276.269-.113c.262-.114.531-.234.793-.361l.177-.085.127-.064c.347-.177.708-.361 1.055-.567.347-.205.878-.538 1.31-.82l.056-.043.163-.106c.418-.284.822-.581 1.225-.893.055-.036.107-.076.156-.12l.085-.064c.403-.318.814-.651 1.21-1.005l.064-.057h.043c.382-.34.764-.708 1.132-1.062a2.06 2.06 0 0 0 .185-.177c.292-.283.575-.573.849-.87l.106-.05Z" fill="#000"/><path opacity=".1" d="M127.914 83.622c.262-.283.517-.567.772-.857l.17-.198c.418-.481.821-.977 1.218-1.487l.134-.17c.312-.41.623-.828.921-1.253l.134-.184c.29-.41.567-.835.843-1.26l.191-.305c.226-.347.439-.708.651-1.062.043-.07.085-.148.135-.22.233-.403.467-.82.708-1.231l.163-.312c.177-.332.339-.665.509-.998.05-.113.107-.226.163-.34.198-.417.397-.842.581-1.274 0-.064.056-.12.078-.184.17-.39.325-.772.474-1.161.05-.114.092-.234.135-.347.177-.46.346-.92.495-1.416a.536.536 0 0 0 0-.114c.156-.474.297-.955.432-1.415 0-.093.057-.185.078-.277.156-.559.29-1.111.411-1.663 0-.12.049-.248.077-.369l.128-.644c0-.141.049-.276.071-.418v-.035c0-.22.07-.446.099-.665.028-.22.042-.27.056-.404.064-.474.107-.956.142-1.416v-.304c.028-.473.042-.945.042-1.417V58.9c0-.12 0-.39-.042-.581-.042-.191 0-.234-.042-.354-.043-.12-.036-.361-.064-.538l-.064-.368c0-.163-.049-.333-.085-.489l-.085-.368c-.035-.149-.064-.304-.099-.446l-.106-.361c-.043-.142-.078-.283-.121-.418l-.127-.347c-.042-.127-.085-.262-.134-.39-.05-.127-.1-.219-.142-.325a7.61 7.61 0 0 0-.319-.68c-.056-.106-.113-.233-.177-.34l-.17-.29c-.063-.106-.127-.219-.198-.325-.071-.106-.127-.177-.184-.27l-.212-.297c-.071-.092-.142-.17-.213-.255l-.219-.276-.227-.226-.24-.255-.241-.213a3.795 3.795 0 0 0-.255-.219c-.092-.07-.17-.135-.255-.198l-.262-.198-.269-.17a8.304 8.304 0 0 0-2.662-1.084c1.791 2.018 2.832 5.09 2.832 9.042 0 .472-.014.944-.043 1.416v.304c-.035.467-.077.949-.141 1.416 0 .135-.036.269-.057.404-.021.134-.063.446-.099.665-.035.22-.057.304-.078.453l-.127.652c0 .12-.05.247-.078.368-.12.552-.255 1.104-.411 1.663 0 .093-.049.185-.078.277-.134.474-.276.955-.439 1.416a.645.645 0 0 1-.035.113c-.156.46-.319.927-.496 1.416-.042.113-.085.234-.134.347-.149.39-.312.772-.474 1.161l-.078.184c-.184.425-.383.857-.581 1.274l-.163.333-.509 1.006-.163.304c-.22.418-.453.835-.708 1.239l-.135.227c-.212.36-.432.708-.651 1.062l-.191.304c-.276.425-.56.85-.843 1.26l-.134.184c-.298.425-.609.843-.928 1.254l-.127.17c-.397.51-.8 1.005-1.218 1.486l-.17.198c-.255.29-.517.581-.779.864l-.049.05c-.279.297-.562.587-.85.87l-.184.178c-.368.36-.751.708-1.133 1.062l-.106.092c-.397.354-.807.708-1.218 1.005l-.233.184a25.08 25.08 0 0 1-1.225.892l-.22.149c-.432.283-.871.566-1.31.821-.439.255-.708.39-1.054.567l-.305.148-.793.361-.283.12c-.241.1-.489.192-.708.277l-.184.07-.899.277a6.65 6.65 0 0 1-.524.127l-.241.057a10.948 10.948 0 0 1-1.862.255h-1.352c-.255 0-.503-.05-.751-.092l-.226-.036-.248-.056a8.063 8.063 0 0 0 2.067 1.685l.085.042h.05c.199.113.405.215.616.305l.212.085c.232.093.468.173.708.24l.12.043c.262.07.539.134.815.184h.212c.246.042.494.07.743.085h1.346l.531-.043c.198 0 .396-.042.601-.07l.383-.071.368-.071.219-.057h.071l.468-.113.885-.276.184-.071.708-.276.269-.113c.262-.114.531-.234.793-.361l.177-.085.127-.064c.347-.177.708-.361 1.055-.567.347-.205.878-.538 1.31-.82l.056-.043.163-.106c.418-.284.822-.581 1.225-.893.055-.036.107-.076.156-.12l.085-.064c.403-.318.814-.651 1.21-1.005l.064-.057h.043c.382-.34.764-.708 1.132-1.062a2.06 2.06 0 0 0 .185-.177c.292-.283.575-.573.849-.87l.106-.05Z" fill="#fff"/><path d="M119.064 49.383c-9.204 5.31-16.631 18.175-16.602 28.745.028 10.57 7.512 14.826 16.709 9.523 9.196-5.303 16.63-18.182 16.595-28.745-.035-10.564-7.505-14.833-16.702-9.523Zm-.12 2.875-.326.184v3.327l.56-.325-.56.325v-3.327l.326-.184Zm-.227 16.715.043.043s-.035 0-.043-.043l-4.63-7.837 4.63 7.837Zm0 16.122v-3.32l.326-.192-.326.191v3.32l.418-.233-.418.234Zm.269-16.015 7.08-.552-7.08.552Zm6.896 9.947.765-.949-.765.95Zm3.243-22.387 2.499-3.108-2.499 3.108Z" fill="#9269AD"/><path opacity=".2" d="M119.064 49.383c-9.204 5.31-16.631 18.175-16.602 28.745.028 10.57 7.512 14.826 16.709 9.523 9.196-5.303 16.63-18.182 16.595-28.745-.035-10.564-7.505-14.833-16.702-9.523Zm-.12 2.875-.326.184v3.327l.56-.325-.56.325v-3.327l.326-.184Zm-.227 16.715.043.043s-.035 0-.043-.043l-4.63-7.837 4.63 7.837Zm0 16.122v-3.32l.326-.192-.326.191v3.32l.418-.233-.418.234Zm.269-16.015 7.08-.552-7.08.552Zm6.896 9.947.765-.949-.765.95Zm3.243-22.387 2.499-3.108-2.499 3.108Z" fill="#000"/><path opacity=".2" d="M119.064 49.383c-9.204 5.31-16.631 18.175-16.602 28.745.028 10.57 7.512 14.826 16.709 9.523 9.196-5.303 16.63-18.182 16.595-28.745-.035-10.564-7.505-14.833-16.702-9.523Zm-.12 2.875-.326.184v3.327l.56-.325-.56.325v-3.327l.326-.184Zm-.227 16.715.043.043s-.035 0-.043-.043l-4.63-7.837 4.63 7.837Zm0 16.122v-3.32l.326-.192-.326.191v3.32l.418-.233-.418.234Zm.269-16.015 7.08-.552-7.08.552Zm6.896 9.947.765-.949-.765.95Zm3.243-22.387 2.499-3.108-2.499 3.108Z" fill="#fff"/><path opacity=".4" d="M119.114 68.003a.565.565 0 0 1 .177-.056h.149l6.966-.545c.227 0 .333.22.234.538a.968.968 0 0 1-.404.538.484.484 0 0 1-.177.064l-7.08.552h-.035c-.227 0-.333-.22-.234-.531a.985.985 0 0 1 .404-.56Z" fill="#fff"/><path opacity=".5" d="M114.491 60.18c.163-.099.318-.085.396.05l4.553 7.738h-.149a.568.568 0 0 0-.177.057.986.986 0 0 0-.404.545c-.099.312 0 .552.234.531h.042a.219.219 0 0 1-.261-.106l-4.631-7.838a.792.792 0 0 1 .198-.807.712.712 0 0 1 .199-.17Z" fill="#fff"/><path opacity=".3" d="M107.8 74.538v1.02l-2.889 1.67v-1.026l2.889-1.664Zm23.378-21.601.446.623-2.499 3.108-.446-.63 2.499-3.1Zm-11.661-1.005.008 3.328-.885.51-.015-3.328.892-.51ZM112.36 58l1.451 2.046-.765.955-1.458-2.046.772-.956Zm-5.353 8.892 2.514.205-.447 1.147-2.506-.22.439-1.132Zm2.103 13.466.446.63-2.499 3.108-.446-.63 2.499-3.108Zm3.993 2.648.779.064-1.445 3.717-.771-.064 1.437-3.717Zm6.492-1.742.015 3.32-.893.51-.007-3.32.885-.51Zm5.594-5.232 1.458 2.046-.765.95-1.458-2.047.765-.949Zm3.971-7.242 2.507.212-.439 1.147-2.514-.22.446-1.14Zm4.163-8.992.008 1.026-2.896 1.671V61.47l2.888-1.671Zm-7.526-9.558.772.07-1.437 3.71-.772-.063 1.437-3.717Z" fill="#fff"/><path d="m107.715 91.155-.269-.198-.276-.248-.255-.227-.262-.269-.241-.254c-.085-.092-.162-.199-.24-.298-.078-.099-.156-.177-.227-.269l-.226-.318-.206-.298-.212-.347c-.057-.106-.128-.205-.184-.318-.057-.114-.128-.248-.191-.368-.064-.12-.121-.22-.17-.34-.05-.12-.114-.262-.17-.397-.057-.134-.106-.233-.156-.354-.05-.12-.099-.283-.149-.425-.049-.141-.092-.24-.134-.368-.043-.127-.085-.297-.135-.453a3.695 3.695 0 0 1-.106-.39c-.028-.134-.078-.31-.113-.474-.036-.162-.064-.269-.092-.403a12.887 12.887 0 0 1-.092-.517c-.029-.17-.05-.269-.071-.41a17.71 17.71 0 0 1-.071-.595l-.042-.368c0-.227-.036-.454-.05-.709v-1.373c0-.517 0-1.04.05-1.565v-.106c0-.58.092-1.175.162-1.77v-.191c.043-.326.093-.644.142-.963l.085-.489c.05-.233.092-.474.142-.707v-.12a37.06 37.06 0 0 1 1.062-3.93 41.53 41.53 0 0 1 2.074-5.07l.05-.106a48.43 48.43 0 0 1 1.465-2.754l.149-.248c.241-.396.481-.793.708-1.19l.184-.275a45.17 45.17 0 0 1 2.159-3.059v-.035a40.781 40.781 0 0 1 2.351-2.761c.319-.333.63-.659.956-.977.048-.053.1-.103.155-.15.418-.41.843-.813 1.275-1.196l.049-.042a25.85 25.85 0 0 1 1.374-1.14l.255-.198c.432-.34.878-.659 1.324-.963h.049a31 31 0 0 1 .857-.56c.283-.176.496-.31.751-.452.382-.22.764-.425 1.139-.617a18.652 18.652 0 0 1 3.413-1.338l.311-.078.496-.12.347-.064.453-.084h.043l.339-.043.588-.057h.227a11.53 11.53 0 0 1 1.288 0h.177c.269 0 .538.057.8.1a9.41 9.41 0 0 1 1.112.24h.113c.25.076.486.16.708.255l.106.05c.334.134.658.29.97.467l-4.17-2.549-.099-.07-.113-.057a8.253 8.253 0 0 0-.666-.326l-.127-.064-.106-.035a7.827 7.827 0 0 0-.808-.283h-.035a9.21 9.21 0 0 0-.899-.213h-.248a10.197 10.197 0 0 0-.814-.099h-.177a10.154 10.154 0 0 0-1.041 0h-.68c-.247 0-.488.05-.708.085-.269.035-.538.092-.814.149l-.255.063-.516.12h-.05c-.319.086-.644.185-.97.298l-.198.071-.793.304-.106.043-.199.085c-.283.127-.566.255-.856.396l-.326.156a25.84 25.84 0 0 0-1.14.616c-.382.22-.949.574-1.416.885l-.241.163a24.24 24.24 0 0 0-1.324.963l-.254.198c-.444.345-.883.706-1.317 1.083l-.107.1c-.42.372-.83.755-1.231 1.146l-.128.12-.071.079c-.311.304-.616.616-.92.941l-.043.05a27.32 27.32 0 0 0-.849.934.478.478 0 0 0-.078.092l-.099.114a36.643 36.643 0 0 0-1.324 1.614.129.129 0 0 0-.036.05l-.099.127c-.339.444-.672.897-.998 1.36l-.106.134-.043.07c-.311.447-.616.9-.906 1.353 0 .05-.064.092-.092.134l-.12.199a54.49 54.49 0 0 0-.708 1.14l-.106.184-.043.07c-.255.44-.503.885-.743 1.339a.718.718 0 0 0-.057.106c-.042.07-.078.148-.12.226-.184.354-.368.708-.545 1.077l-.114.226-.063.135c-.22.46-.432.92-.631 1.416v.042c0 .042-.035.092-.056.142a40.16 40.16 0 0 0-.524 1.267c0 .07-.057.135-.078.205l-.064.17c-.191.503-.368.999-.538 1.501a.402.402 0 0 0 0 .085 38.28 38.28 0 0 0-.474 1.558l-.064.19v.107a44.26 44.26 0 0 0-.446 1.798c-.008.055-.02.11-.035.163l-.043.234c-.05.234-.099.467-.141.708l-.085.488a13.84 13.84 0 0 0-.107.708c0 .114-.042.234-.056.347a.355.355 0 0 1 0 .085 24.221 24.221 0 0 0-.149 1.55v.32c0 .53-.05 1.047-.05 1.564 0 5.664 2.018 9.671 5.247 11.548l4.418 2.563-.283-.177-.284-.177-.46-.213Z" fill="#9269AD"/><path opacity=".2" d="m107.715 91.155-.269-.198-.276-.248-.255-.227-.262-.269-.241-.254c-.085-.092-.162-.199-.24-.298-.078-.099-.156-.177-.227-.269l-.226-.318-.206-.298-.212-.347c-.057-.106-.128-.205-.184-.318-.057-.114-.128-.248-.191-.368-.064-.12-.121-.22-.17-.34-.05-.12-.114-.262-.17-.397-.057-.134-.106-.233-.156-.354-.05-.12-.099-.283-.149-.425-.049-.141-.092-.24-.134-.368-.043-.127-.085-.297-.135-.453a3.695 3.695 0 0 1-.106-.39c-.028-.134-.078-.31-.113-.474-.036-.162-.064-.269-.092-.403a12.887 12.887 0 0 1-.092-.517c-.029-.17-.05-.269-.071-.41a17.71 17.71 0 0 1-.071-.595l-.042-.368c0-.227-.036-.454-.05-.709v-1.373c0-.517 0-1.04.05-1.565v-.106c0-.58.092-1.175.162-1.77v-.191c.043-.326.093-.644.142-.963l.085-.489c.05-.233.092-.474.142-.707v-.12a37.06 37.06 0 0 1 1.062-3.93 41.53 41.53 0 0 1 2.074-5.07l.05-.106a48.43 48.43 0 0 1 1.465-2.754l.149-.248c.241-.396.481-.793.708-1.19l.184-.275a45.17 45.17 0 0 1 2.159-3.059v-.035a40.781 40.781 0 0 1 2.351-2.761c.319-.333.63-.659.956-.977.048-.053.1-.103.155-.15.418-.41.843-.813 1.275-1.196l.049-.042a25.85 25.85 0 0 1 1.374-1.14l.255-.198c.432-.34.878-.659 1.324-.963h.049a31 31 0 0 1 .857-.56c.283-.176.496-.31.751-.452.382-.22.764-.425 1.139-.617a18.652 18.652 0 0 1 3.413-1.338l.311-.078.496-.12.347-.064.453-.084h.043l.339-.043.588-.057h.227a11.53 11.53 0 0 1 1.288 0h.177c.269 0 .538.057.8.1a9.41 9.41 0 0 1 1.112.24h.113c.25.076.486.16.708.255l.106.05c.334.134.658.29.97.467l-4.17-2.549-.099-.07-.113-.057a8.253 8.253 0 0 0-.666-.326l-.127-.064-.106-.035a7.827 7.827 0 0 0-.808-.283h-.035a9.21 9.21 0 0 0-.899-.213h-.248a10.197 10.197 0 0 0-.814-.099h-.177a10.154 10.154 0 0 0-1.041 0h-.68c-.247 0-.488.05-.708.085-.269.035-.538.092-.814.149l-.255.063-.516.12h-.05c-.319.086-.644.185-.97.298l-.198.071-.793.304-.106.043-.199.085c-.283.127-.566.255-.856.396l-.326.156a25.84 25.84 0 0 0-1.14.616c-.382.22-.949.574-1.416.885l-.241.163a24.24 24.24 0 0 0-1.324.963l-.254.198c-.444.345-.883.706-1.317 1.083l-.107.1c-.42.372-.83.755-1.231 1.146l-.128.12-.071.079c-.311.304-.616.616-.92.941l-.043.05a27.32 27.32 0 0 0-.849.934.478.478 0 0 0-.078.092l-.099.114a36.643 36.643 0 0 0-1.324 1.614.129.129 0 0 0-.036.05l-.099.127c-.339.444-.672.897-.998 1.36l-.106.134-.043.07c-.311.447-.616.9-.906 1.353 0 .05-.064.092-.092.134l-.12.199a54.49 54.49 0 0 0-.708 1.14l-.106.184-.043.07c-.255.44-.503.885-.743 1.339a.718.718 0 0 0-.057.106c-.042.07-.078.148-.12.226-.184.354-.368.708-.545 1.077l-.114.226-.063.135c-.22.46-.432.92-.631 1.416v.042c0 .042-.035.092-.056.142a40.16 40.16 0 0 0-.524 1.267c0 .07-.057.135-.078.205l-.064.17c-.191.503-.368.999-.538 1.501a.402.402 0 0 0 0 .085 38.28 38.28 0 0 0-.474 1.558l-.064.19v.107a44.26 44.26 0 0 0-.446 1.798c-.008.055-.02.11-.035.163l-.043.234c-.05.234-.099.467-.141.708l-.085.488a13.84 13.84 0 0 0-.107.708c0 .114-.042.234-.056.347a.355.355 0 0 1 0 .085 24.221 24.221 0 0 0-.149 1.55v.32c0 .53-.05 1.047-.05 1.564 0 5.664 2.018 9.671 5.247 11.548l4.418 2.563-.283-.177-.284-.177-.46-.213Z" fill="#000"/><path opacity=".3" d="m107.715 91.155-.269-.198-.276-.248-.255-.227-.262-.269-.241-.254c-.085-.092-.162-.199-.24-.298-.078-.099-.156-.177-.227-.269l-.226-.318-.206-.298-.212-.347c-.057-.106-.128-.205-.184-.318-.057-.114-.128-.248-.191-.368-.064-.12-.121-.22-.17-.34-.05-.12-.114-.262-.17-.397-.057-.134-.106-.233-.156-.354-.05-.12-.099-.283-.149-.425-.049-.141-.092-.24-.134-.368-.043-.127-.085-.297-.135-.453a3.695 3.695 0 0 1-.106-.39c-.028-.134-.078-.31-.113-.474-.036-.162-.064-.269-.092-.403a12.887 12.887 0 0 1-.092-.517c-.029-.17-.05-.269-.071-.41a17.71 17.71 0 0 1-.071-.595l-.042-.368c0-.227-.036-.454-.05-.709v-1.373c0-.517 0-1.04.05-1.565v-.106c0-.58.092-1.175.162-1.77v-.191c.043-.326.093-.644.142-.963l.085-.489c.05-.233.092-.474.142-.707v-.12a37.06 37.06 0 0 1 1.062-3.93 41.53 41.53 0 0 1 2.074-5.07l.05-.106a48.43 48.43 0 0 1 1.465-2.754l.149-.248c.241-.396.481-.793.708-1.19l.184-.275a45.17 45.17 0 0 1 2.159-3.059v-.035a40.781 40.781 0 0 1 2.351-2.761c.319-.333.63-.659.956-.977.048-.053.1-.103.155-.15.418-.41.843-.813 1.275-1.196l.049-.042a25.85 25.85 0 0 1 1.374-1.14l.255-.198c.432-.34.878-.659 1.324-.963h.049a31 31 0 0 1 .857-.56c.283-.176.496-.31.751-.452.382-.22.764-.425 1.139-.617a18.652 18.652 0 0 1 3.413-1.338l.311-.078.496-.12.347-.064.453-.084h.043l.339-.043.588-.057h.227a11.53 11.53 0 0 1 1.288 0h.177c.269 0 .538.057.8.1a9.41 9.41 0 0 1 1.112.24h.113c.25.076.486.16.708.255l.106.05c.334.134.658.29.97.467l-4.17-2.549-.099-.07-.113-.057a8.253 8.253 0 0 0-.666-.326l-.127-.064-.106-.035a7.827 7.827 0 0 0-.808-.283h-.035a9.21 9.21 0 0 0-.899-.213h-.248a10.197 10.197 0 0 0-.814-.099h-.177a10.154 10.154 0 0 0-1.041 0h-.68c-.247 0-.488.05-.708.085-.269.035-.538.092-.814.149l-.255.063-.516.12h-.05c-.319.086-.644.185-.97.298l-.198.071-.793.304-.106.043-.199.085c-.283.127-.566.255-.856.396l-.326.156a25.84 25.84 0 0 0-1.14.616c-.382.22-.949.574-1.416.885l-.241.163a24.24 24.24 0 0 0-1.324.963l-.254.198c-.444.345-.883.706-1.317 1.083l-.107.1c-.42.372-.83.755-1.231 1.146l-.128.12-.071.079c-.311.304-.616.616-.92.941l-.043.05a27.32 27.32 0 0 0-.849.934.478.478 0 0 0-.078.092l-.099.114a36.643 36.643 0 0 0-1.324 1.614.129.129 0 0 0-.036.05l-.099.127c-.339.444-.672.897-.998 1.36l-.106.134-.043.07c-.311.447-.616.9-.906 1.353 0 .05-.064.092-.092.134l-.12.199a54.49 54.49 0 0 0-.708 1.14l-.106.184-.043.07c-.255.44-.503.885-.743 1.339a.718.718 0 0 0-.057.106c-.042.07-.078.148-.12.226-.184.354-.368.708-.545 1.077l-.114.226-.063.135c-.22.46-.432.92-.631 1.416v.042c0 .042-.035.092-.056.142a40.16 40.16 0 0 0-.524 1.267c0 .07-.057.135-.078.205l-.064.17c-.191.503-.368.999-.538 1.501a.402.402 0 0 0 0 .085 38.28 38.28 0 0 0-.474 1.558l-.064.19v.107a44.26 44.26 0 0 0-.446 1.798c-.008.055-.02.11-.035.163l-.043.234c-.05.234-.099.467-.141.708l-.085.488a13.84 13.84 0 0 0-.107.708c0 .114-.042.234-.056.347a.355.355 0 0 1 0 .085 24.221 24.221 0 0 0-.149 1.55v.32c0 .53-.05 1.047-.05 1.564 0 5.664 2.018 9.671 5.247 11.548l4.418 2.563-.283-.177-.284-.177-.46-.213Z" fill="#fff"/><path d="M134.046 47.84a8.189 8.189 0 0 0-.97-.468l-.128-.056c-.236-.09-.472-.175-.708-.255l-.134-.043a9.432 9.432 0 0 0-1.112-.24 9.85 9.85 0 0 0-.8-.1h-.205c-.429-.024-.86-.024-1.289 0h-.226l-.588.057-.382.05-.453.085-.361.07-.496.12-.319.079a18.67 18.67 0 0 0-3.412 1.338c-.375.19-.758.396-1.14.616-.255.141-.503.297-.751.453-.247.156-.573.368-.856.56h-.05c-.446.304-.892.622-1.324.962l-.255.198a26.12 26.12 0 0 0-1.373 1.14l-.05.043c-.432.382-.856.785-1.274 1.196a1.522 1.522 0 0 0-.156.149c-.326.319-.637.644-.956.977-.814.87-1.6 1.798-2.35 2.761v.036c-.76.986-1.48 2.006-2.16 3.058l-.184.283a26.49 26.49 0 0 0-.708 1.19l-.148.255a48.612 48.612 0 0 0-1.466 2.754l-.05.106a41.53 41.53 0 0 0-2.074 5.07 37.3 37.3 0 0 0-1.062 3.929v.12c-.05.234-.092.474-.142.708l-.085.489c-.049.318-.099.637-.141.962v.191c-.071.595-.128 1.19-.163 1.77v.107c0 .524-.05 1.047-.05 1.564v1.374c0 .227 0 .453.05.708l.042.368c0 .198.043.404.071.595.029.19.05.276.071.41.021.135.057.347.092.517.036.17.064.27.092.404.028.134.071.318.113.474l.107.39c.035.127.085.304.134.453a5.3 5.3 0 0 0 .135.368c.049.12.092.29.148.425.057.134.099.24.156.354.057.113.106.269.17.396l.17.34c.057.113.12.248.191.368.071.12.128.213.184.319l.213.347.205.297.226.319c.071.092.149.177.227.269.078.092.156.205.241.297l.24.255.262.269.255.227.276.247.269.198.298.227.283.177c3.292 2.124 7.937 1.897 13.084-1.076 9.947-5.742 17.976-19.654 17.948-31.074-.135-5.657-2.153-9.65-5.402-11.526Zm-7.038 36.71a2.181 2.181 0 0 1-.184.176c-.368.368-.75.708-1.133 1.062h-.042c-.42.368-.845.722-1.275 1.062l-.085.064a22.69 22.69 0 0 1-1.543 1.119l-.057.042c-.432.283-.871.567-1.309.822-.439.254-.708.389-1.055.566l-.128.064c-.326.162-.651.311-.97.446l-.269.113c-.592.243-1.197.454-1.812.63l-.468.113-.29.071-.368.07-.382.072c-.206 0-.404.056-.602.07l-.531.043h-1.36a6.466 6.466 0 0 1-.743-.085h-.212c-.284-.05-.56-.113-.829-.184l-.12-.042a6.85 6.85 0 0 1-.708-.241l-.212-.085a7.508 7.508 0 0 1-.708-.333l-.085-.042a8.068 8.068 0 0 1-2.068-1.686c-1.784-2.017-2.832-5.083-2.832-9.02 0-10.57 7.406-23.441 16.596-28.751 3.504-2.018 6.754-2.648 9.444-2.082.944.204 1.845.57 2.663 1.084l.269.17.262.198c.085.063.177.127.254.198.078.07.17.142.255.22l.241.212.241.255.226.226.22.276c.071.085.141.163.212.255l.213.297c.056.093.127.178.184.27l.198.325.17.29c.064.107.12.227.177.34.056.114.106.206.156.312.049.106.106.24.162.368.057.128.092.212.142.326.05.113.092.262.135.39l.127.346c.042.135.078.276.12.418l.107.36c.035.142.063.298.099.447l.085.368c.035.156.056.326.085.489l.063.368c0 .177.043.354.064.538.021.184.035.233.043.354.007.12 0 .39.042.58.042.191 0 .234 0 .354v.97c0 .472-.014.944-.042 1.416v.305c0 .467-.078.948-.142 1.416 0 .134-.035.269-.057.403-.021.135-.063.468-.106.708-.042.241-.049.276-.071.418l-.127.644c0 .12-.05.248-.078.368-.12.553-.255 1.105-.411 1.664 0 .092-.049.184-.078.276-.134.475-.276.956-.439 1.416a.43.43 0 0 1 0 .114c-.148.467-.318.927-.495 1.416-.043.113-.085.233-.135.347-.148.389-.304.771-.474 1.16 0 .065-.05.121-.078.185-.184.432-.382.856-.58 1.274-.057.114-.114.227-.163.34-.17.333-.333.666-.51.998l-.163.312c-.219.41-.453.828-.708 1.239-.049.07-.092.148-.134.22-.213.36-.432.707-.652 1.061l-.191.305c-.276.425-.552.85-.842 1.26l-.135.184c-.297.425-.609.843-.92 1.253l-.135.17a35.3 35.3 0 0 1-1.218 1.487l-.17.198a41.4 41.4 0 0 1-.771.857l-.057.056c-.241.298-.505.588-.793.871Z" fill="#9269AD"/><path opacity=".1" d="M134.046 47.84a8.189 8.189 0 0 0-.97-.468l-.128-.056c-.236-.09-.472-.175-.708-.255l-.134-.043a9.432 9.432 0 0 0-1.112-.24 9.85 9.85 0 0 0-.8-.1h-.205c-.429-.024-.86-.024-1.289 0h-.226l-.588.057-.382.05-.453.085-.361.07-.496.12-.319.079a18.67 18.67 0 0 0-3.412 1.338c-.375.19-.758.396-1.14.616-.255.141-.503.297-.751.453-.247.156-.573.368-.856.56h-.05c-.446.304-.892.622-1.324.962l-.255.198a26.12 26.12 0 0 0-1.373 1.14l-.05.043c-.432.382-.856.785-1.274 1.196a1.522 1.522 0 0 0-.156.149c-.326.319-.637.644-.956.977-.814.87-1.6 1.798-2.35 2.761v.036c-.76.986-1.48 2.006-2.16 3.058l-.184.283a26.49 26.49 0 0 0-.708 1.19l-.148.255a48.612 48.612 0 0 0-1.466 2.754l-.05.106a41.53 41.53 0 0 0-2.074 5.07 37.3 37.3 0 0 0-1.062 3.929v.12c-.05.234-.092.474-.142.708l-.085.489c-.049.318-.099.637-.141.962v.191c-.071.595-.128 1.19-.163 1.77v.107c0 .524-.05 1.047-.05 1.564v1.374c0 .227 0 .453.05.708l.042.368c0 .198.043.404.071.595.029.19.05.276.071.41.021.135.057.347.092.517.036.17.064.27.092.404.028.134.071.318.113.474l.107.39c.035.127.085.304.134.453a5.3 5.3 0 0 0 .135.368c.049.12.092.29.148.425.057.134.099.24.156.354.057.113.106.269.17.396l.17.34c.057.113.12.248.191.368.071.12.128.213.184.319l.213.347.205.297.226.319c.071.092.149.177.227.269.078.092.156.205.241.297l.24.255.262.269.255.227.276.247.269.198.298.227.283.177c3.292 2.124 7.937 1.897 13.084-1.076 9.947-5.742 17.976-19.654 17.948-31.074-.135-5.657-2.153-9.65-5.402-11.526Zm-7.038 36.71a2.181 2.181 0 0 1-.184.176c-.368.368-.75.708-1.133 1.062h-.042c-.42.368-.845.722-1.275 1.062l-.085.064a22.69 22.69 0 0 1-1.543 1.119l-.057.042c-.432.283-.871.567-1.309.822-.439.254-.708.389-1.055.566l-.128.064c-.326.162-.651.311-.97.446l-.269.113c-.592.243-1.197.454-1.812.63l-.468.113-.29.071-.368.07-.382.072c-.206 0-.404.056-.602.07l-.531.043h-1.36a6.466 6.466 0 0 1-.743-.085h-.212c-.284-.05-.56-.113-.829-.184l-.12-.042a6.85 6.85 0 0 1-.708-.241l-.212-.085a7.508 7.508 0 0 1-.708-.333l-.085-.042a8.068 8.068 0 0 1-2.068-1.686c-1.784-2.017-2.832-5.083-2.832-9.02 0-10.57 7.406-23.441 16.596-28.751 3.504-2.018 6.754-2.648 9.444-2.082.944.204 1.845.57 2.663 1.084l.269.17.262.198c.085.063.177.127.254.198.078.07.17.142.255.22l.241.212.241.255.226.226.22.276c.071.085.141.163.212.255l.213.297c.056.093.127.178.184.27l.198.325.17.29c.064.107.12.227.177.34.056.114.106.206.156.312.049.106.106.24.162.368.057.128.092.212.142.326.05.113.092.262.135.39l.127.346c.042.135.078.276.12.418l.107.36c.035.142.063.298.099.447l.085.368c.035.156.056.326.085.489l.063.368c0 .177.043.354.064.538.021.184.035.233.043.354.007.12 0 .39.042.58.042.191 0 .234 0 .354v.97c0 .472-.014.944-.042 1.416v.305c0 .467-.078.948-.142 1.416 0 .134-.035.269-.057.403-.021.135-.063.468-.106.708-.042.241-.049.276-.071.418l-.127.644c0 .12-.05.248-.078.368-.12.553-.255 1.105-.411 1.664 0 .092-.049.184-.078.276-.134.475-.276.956-.439 1.416a.43.43 0 0 1 0 .114c-.148.467-.318.927-.495 1.416-.043.113-.085.233-.135.347-.148.389-.304.771-.474 1.16 0 .065-.05.121-.078.185-.184.432-.382.856-.58 1.274-.057.114-.114.227-.163.34-.17.333-.333.666-.51.998l-.163.312c-.219.41-.453.828-.708 1.239-.049.07-.092.148-.134.22-.213.36-.432.707-.652 1.061l-.191.305c-.276.425-.552.85-.842 1.26l-.135.184c-.297.425-.609.843-.92 1.253l-.135.17a35.3 35.3 0 0 1-1.218 1.487l-.17.198a41.4 41.4 0 0 1-.771.857l-.057.056c-.241.298-.505.588-.793.871Z" fill="#000"/><path opacity=".4" d="M134.046 47.84a8.189 8.189 0 0 0-.97-.468l-.128-.056c-.236-.09-.472-.175-.708-.255l-.134-.043a9.432 9.432 0 0 0-1.112-.24 9.85 9.85 0 0 0-.8-.1h-.205c-.429-.024-.86-.024-1.289 0h-.226l-.588.057-.382.05-.453.085-.361.07-.496.12-.319.079a18.67 18.67 0 0 0-3.412 1.338c-.375.19-.758.396-1.14.616-.255.141-.503.297-.751.453-.247.156-.573.368-.856.56h-.05c-.446.304-.892.622-1.324.962l-.255.198a26.12 26.12 0 0 0-1.373 1.14l-.05.043c-.432.382-.856.785-1.274 1.196a1.522 1.522 0 0 0-.156.149c-.326.319-.637.644-.956.977-.814.87-1.6 1.798-2.35 2.761v.036c-.76.986-1.48 2.006-2.16 3.058l-.184.283a26.49 26.49 0 0 0-.708 1.19l-.148.255a48.612 48.612 0 0 0-1.466 2.754l-.05.106a41.53 41.53 0 0 0-2.074 5.07 37.3 37.3 0 0 0-1.062 3.929v.12c-.05.234-.092.474-.142.708l-.085.489c-.049.318-.099.637-.141.962v.191c-.071.595-.128 1.19-.163 1.77v.107c0 .524-.05 1.047-.05 1.564v1.374c0 .227 0 .453.05.708l.042.368c0 .198.043.404.071.595.029.19.05.276.071.41.021.135.057.347.092.517.036.17.064.27.092.404.028.134.071.318.113.474l.107.39c.035.127.085.304.134.453a5.3 5.3 0 0 0 .135.368c.049.12.092.29.148.425.057.134.099.24.156.354.057.113.106.269.17.396l.17.34c.057.113.12.248.191.368.071.12.128.213.184.319l.213.347.205.297.226.319c.071.092.149.177.227.269.078.092.156.205.241.297l.24.255.262.269.255.227.276.247.269.198.298.227.283.177c3.292 2.124 7.937 1.897 13.084-1.076 9.947-5.742 17.976-19.654 17.948-31.074-.135-5.657-2.153-9.65-5.402-11.526Zm-7.038 36.71a2.181 2.181 0 0 1-.184.176c-.368.368-.75.708-1.133 1.062h-.042c-.42.368-.845.722-1.275 1.062l-.085.064a22.69 22.69 0 0 1-1.543 1.119l-.057.042c-.432.283-.871.567-1.309.822-.439.254-.708.389-1.055.566l-.128.064c-.326.162-.651.311-.97.446l-.269.113c-.592.243-1.197.454-1.812.63l-.468.113-.29.071-.368.07-.382.072c-.206 0-.404.056-.602.07l-.531.043h-1.36a6.466 6.466 0 0 1-.743-.085h-.212c-.284-.05-.56-.113-.829-.184l-.12-.042a6.85 6.85 0 0 1-.708-.241l-.212-.085a7.508 7.508 0 0 1-.708-.333l-.085-.042a8.068 8.068 0 0 1-2.068-1.686c-1.784-2.017-2.832-5.083-2.832-9.02 0-10.57 7.406-23.441 16.596-28.751 3.504-2.018 6.754-2.648 9.444-2.082.944.204 1.845.57 2.663 1.084l.269.17.262.198c.085.063.177.127.254.198.078.07.17.142.255.22l.241.212.241.255.226.226.22.276c.071.085.141.163.212.255l.213.297c.056.093.127.178.184.27l.198.325.17.29c.064.107.12.227.177.34.056.114.106.206.156.312.049.106.106.24.162.368.057.128.092.212.142.326.05.113.092.262.135.39l.127.346c.042.135.078.276.12.418l.107.36c.035.142.063.298.099.447l.085.368c.035.156.056.326.085.489l.063.368c0 .177.043.354.064.538.021.184.035.233.043.354.007.12 0 .39.042.58.042.191 0 .234 0 .354v.97c0 .472-.014.944-.042 1.416v.305c0 .467-.078.948-.142 1.416 0 .134-.035.269-.057.403-.021.135-.063.468-.106.708-.042.241-.049.276-.071.418l-.127.644c0 .12-.05.248-.078.368-.12.553-.255 1.105-.411 1.664 0 .092-.049.184-.078.276-.134.475-.276.956-.439 1.416a.43.43 0 0 1 0 .114c-.148.467-.318.927-.495 1.416-.043.113-.085.233-.135.347-.148.389-.304.771-.474 1.16 0 .065-.05.121-.078.185-.184.432-.382.856-.58 1.274-.057.114-.114.227-.163.34-.17.333-.333.666-.51.998l-.163.312c-.219.41-.453.828-.708 1.239-.049.07-.092.148-.134.22-.213.36-.432.707-.652 1.061l-.191.305c-.276.425-.552.85-.842 1.26l-.135.184c-.297.425-.609.843-.92 1.253l-.135.17a35.3 35.3 0 0 1-1.218 1.487l-.17.198a41.4 41.4 0 0 1-.771.857l-.057.056c-.241.298-.505.588-.793.871Z" fill="#fff"/><path d="M186.792 202.969c.198 21.283.424 41.773.424 41.773a.779.779 0 0 0 .454.637 2.442 2.442 0 0 0 2.194 0 .77.77 0 0 0 .446-.637s.227-20.483.425-41.773a45.481 45.481 0 0 1-3.943 0Zm-25.857 26.423a.796.796 0 0 0 .461.637 2.43 2.43 0 0 0 2.187 0 .77.77 0 0 0 .454-.637s.984-14.634 2.4-32.03a23.895 23.895 0 0 1-3.71-2.832c-1.14 18.62-1.792 34.862-1.792 34.862Zm52.555 0a.773.773 0 0 0 .446.637 2.443 2.443 0 0 0 2.195 0 .797.797 0 0 0 .46-.637s-.651-16.185-1.791-34.756a23.14 23.14 0 0 1-3.71 2.832c1.416 17.325 2.4 31.924 2.4 31.924Z" fill="#9269AD"/><path opacity=".3" d="M186.792 202.969c.198 21.283.424 41.773.424 41.773a.779.779 0 0 0 .454.637 2.442 2.442 0 0 0 2.194 0 .77.77 0 0 0 .446-.637s.227-20.483.425-41.773a45.481 45.481 0 0 1-3.943 0Zm-25.857 26.423a.796.796 0 0 0 .461.637 2.43 2.43 0 0 0 2.187 0 .77.77 0 0 0 .454-.637s.984-14.634 2.4-32.03a23.895 23.895 0 0 1-3.71-2.832c-1.14 18.62-1.792 34.862-1.792 34.862Zm52.555 0a.773.773 0 0 0 .446.637 2.443 2.443 0 0 0 2.195 0 .797.797 0 0 0 .46-.637s-.651-16.185-1.791-34.756a23.14 23.14 0 0 1-3.71 2.832c1.416 17.325 2.4 31.924 2.4 31.924Z" fill="#000"/><path d="M219.317 181.878c0 4.531-2.931 9.055-8.878 12.511-11.895 6.917-31.237 6.917-43.188 0-5.99-3.463-8.999-7.987-9.02-12.518v3.441c0 3.2 1.529 6.372 4.517 9.204a23.895 23.895 0 0 0 3.71 2.832c.262.163.517.326.793.481 5.451 3.151 12.446 4.857 19.562 5.133 1.31.057 2.627.057 3.943 0 7.18-.254 14.231-1.968 19.704-5.147l.651-.403a23.198 23.198 0 0 0 3.71-2.832c3.031-2.832 4.539-6.075 4.517-9.311v-3.44l-.021.049Z" fill="#9269AD"/><path opacity=".4" d="M219.317 181.878c0 4.531-2.931 9.055-8.878 12.511-11.895 6.917-31.237 6.917-43.188 0-5.99-3.463-8.999-7.987-9.02-12.518v3.441c0 3.2 1.529 6.372 4.517 9.204a23.895 23.895 0 0 0 3.71 2.832c.262.163.517.326.793.481 5.451 3.151 12.446 4.857 19.562 5.133 1.31.057 2.627.057 3.943 0 7.18-.254 14.231-1.968 19.704-5.147l.651-.403a23.198 23.198 0 0 0 3.71-2.832c3.031-2.832 4.539-6.075 4.517-9.311v-3.44l-.021.049Z" fill="#000"/><path d="M167.23 194.396c11.972 6.91 31.314 6.91 43.188 0 5.947-3.455 8.906-7.98 8.878-12.511-.028-4.531-3.03-9.062-9.02-12.517-11.972-6.91-31.315-6.91-43.188 0-5.947 3.455-8.907 7.986-8.878 12.517.028 4.531 3.03 9.049 9.02 12.511Z" fill="#9269AD"/><path opacity=".2" d="M167.23 194.396c11.972 6.91 31.314 6.91 43.188 0 5.947-3.455 8.906-7.98 8.878-12.511-.028-4.531-3.03-9.062-9.02-12.517-11.972-6.91-31.315-6.91-43.188 0-5.947 3.455-8.907 7.986-8.878 12.517.028 4.531 3.03 9.049 9.02 12.511Z" fill="#000"/><path opacity=".3" d="M186.792 202.969c0 1.416.014 2.832.042 4.248 1.282.05 2.577.057 3.859 0 0-1.416.014-2.832.042-4.248a45.481 45.481 0 0 1-3.943 0Zm-24.065-8.432c-.078 1.359-.163 2.698-.241 4.029a22.72 22.72 0 0 0 3.625 2.832c.106-1.324.219-2.677.326-4.05a23.923 23.923 0 0 1-3.71-2.811Zm52.073.092a23.198 23.198 0 0 1-3.71 2.832l.333 4.057a22.665 22.665 0 0 0 3.618-2.832 743.745 743.745 0 0 0-.241-4.057Z" fill="#000"/><path d="M198.396 158.16c-.468-.467-5.862 0-5.862 0s-5.395-.467-5.863 0c-1.989 1.982-6.053 10.825-6.053 16.766 0 1.762 1.182 3.54 3.54 4.878 4.666 2.697 12.213 2.697 16.85 0 2.315-1.346 3.469-3.116 3.462-4.878-.021-5.941-4.106-14.784-6.074-16.766Z" fill="#E6E6E6"/><path d="M201.553 168.207c.029.161.043.324.043.488 0 1.338-.871 2.683-2.634 3.71-3.54 2.046-9.268 2.046-12.815 0-1.777-1.027-2.669-2.372-2.676-3.71.001-.156.013-.312.036-.467a23.13 23.13 0 0 0-1.261 6.69c0 1.218.991 2.485 2.705 3.477a15.523 15.523 0 0 0 7.625 1.805 15.369 15.369 0 0 0 7.59-1.784c1.692-.984 2.662-2.244 2.655-3.469a23.086 23.086 0 0 0-1.268-6.74Z" fill="#632828"/><path d="M186.147 172.405c3.54 2.046 9.289 2.046 12.815 0 1.763-1.026 2.641-2.372 2.634-3.71a2.75 2.75 0 0 0-.043-.488c-.198-1.176-1.069-2.323-2.633-3.229-3.54-2.046-9.289-2.046-12.815 0-1.558.906-2.421 2.068-2.598 3.25a3.326 3.326 0 0 0-.036.467c.007 1.338.899 2.684 2.676 3.71Z" fill="#804040"/><path opacity=".3" d="M198.396 158.16c-.468-.467-5.862 0-5.862 0s-5.395-.467-5.863 0c-1.989 1.982-6.053 10.825-6.053 16.766 0 1.762 1.182 3.54 3.54 4.878 4.666 2.697 12.213 2.697 16.85 0 2.315-1.346 3.469-3.116 3.462-4.878-.021-5.941-4.106-14.784-6.074-16.766Z" fill="#fff"/><path d="M187.365 160.44a11.444 11.444 0 0 0 10.372 0c1.416-.829 2.124-1.919 2.124-3.009 0-1.09-.708-2.174-2.159-3.002a11.444 11.444 0 0 0-10.372 0c-1.416.828-2.124 1.919-2.124 3.002 0 1.083.722 2.18 2.159 3.009Z" fill="#263238"/><path d="M199.21 158.125a3.15 3.15 0 0 0 .227-.333c2.003-2.924 2.902-5.77 2.902-8.05h-23.534c0 1.77 5.296 7.59 7.916 9.204.203.154.416.296.637.425a11.444 11.444 0 0 0 10.372 0 5.144 5.144 0 0 0 1.416-1.168l.064-.078Z" fill="#E6E6E6"/><path d="M199.883 146.358c1.501.871 2.435 2.067 2.456 3.384 0 2.775-4.092 4.921-8.878 4.843a26.2 26.2 0 0 1-12.617-3.229c-.594-.347-1.189-.708-1.762-1.14a.505.505 0 0 1-.197-.711.509.509 0 0 1 .197-.188c4.665-3.391 10.23-4.368 14.91-4.368a12.04 12.04 0 0 1 5.891 1.409Z" fill="#F0F0F0"/><path d="M198.87 147.073c1.282.708 2.089 1.756 2.124 2.881.036 1.126-.708 2.075-2.018 2.832a11.011 11.011 0 0 1-5.373 1.282h-.234a24.08 24.08 0 0 1-11.767-3.009 22.261 22.261 0 0 1-1.692-1.09c4.644-3.413 10.146-4.121 13.94-4.121 1.751-.031 3.48.391 5.02 1.225Z" fill="#E0E0E0"/><path d="M181.05 179.457c-4.248-2.436-11.031-2.436-15.222 0-4.192 2.435-4.163 6.372.049 8.821 4.213 2.45 11.031 2.429 15.222 0 4.192-2.428 4.17-6.386-.049-8.821Z" fill="#F0F0F0"/><path d="M181.05 178.777c-4.248-2.435-11.031-2.435-15.222 0-4.192 2.436-4.163 6.372.049 8.815 4.213 2.442 11.031 2.435 15.222 0 4.192-2.436 4.17-6.344-.049-8.815Z" fill="#FAFAFA"/><path d="M177 181.829a7.782 7.782 0 0 0-7.038 0c-1.939 1.125-1.932 2.952 0 4.078a7.8 7.8 0 0 0 7.045 0c1.933-1.119 1.919-2.953-.007-4.078Z" fill="#EBEBEB"/><path d="M203.061 185.772c-4.248-2.435-11.03-2.435-15.222 0-4.191 2.436-4.17 6.372.05 8.822 4.22 2.45 11.031 2.428 15.222 0 4.191-2.429 4.163-6.386-.05-8.822Z" fill="#F0F0F0"/><path d="M203.061 185.093c-4.248-2.436-11.03-2.436-15.222 0-4.191 2.435-4.17 6.372.05 8.814 4.22 2.443 11.031 2.436 15.222 0 4.191-2.435 4.163-6.379-.05-8.814Z" fill="#FAFAFA"/><path d="M198.983 188.144a7.779 7.779 0 0 0-7.044 0c-1.933 1.126-1.926 2.952 0 4.078a7.792 7.792 0 0 0 7.044 0c1.962-1.126 1.954-2.952 0-4.078Z" fill="#EBEBEB"/><path d="M246.865 200.251c-6.308 4.382-13.416 7.413-18.684 13.282-9.841 10.974-10.067 28.624-2.343 41.17 7.724 12.546 22.104 20.086 36.738 21.807 15.356 1.812 31.471-2.429 43.514-12.121 12.043-9.693 19.71-24.83 19.703-40.293-.007-15.462-7.901-30.854-20.872-39.308-11.809-7.703-28.801-9.912-40.646-1.083-5.997 4.46-9.99 11.038-15.965 15.505-.51.361-.963.701-1.445 1.041Z" fill="#9269AD"/><path opacity=".2" d="M246.865 200.251c-6.308 4.382-13.416 7.413-18.684 13.282-9.841 10.974-10.067 28.624-2.343 41.17 7.724 12.546 22.104 20.086 36.738 21.807 15.356 1.812 31.471-2.429 43.514-12.121 12.043-9.693 19.71-24.83 19.703-40.293-.007-15.462-7.901-30.854-20.872-39.308-11.809-7.703-28.801-9.912-40.646-1.083-5.997 4.46-9.99 11.038-15.965 15.505-.51.361-.963.701-1.445 1.041Z" fill="#fff"/><path d="M317.552 221.972a45.118 45.118 0 0 0-38.494-43.811c-1.465.14-2.92.377-4.354.708a44.009 44.009 0 0 1 41.659 43.103c.283 14.394-6.755 29.028-18.826 39.238-9.466 7.972-22.033 13.26-35.846 15.165.297.042.588.085.885.113 1.239.149 2.492.255 3.738.319 12.27-2.379 23.364-7.441 31.988-14.691 12.34-10.387 19.54-25.396 19.25-40.144Z" fill="#fff"/><path opacity=".2" d="m249.435 264.523.043-.312a16.589 16.589 0 0 1 13.452-13.834 52.52 52.52 0 0 0 17.233-6.598c3.766-2.28 7.327-5.07 11.554-6.309a18.834 18.834 0 0 1 12.447.708c-3.54-3.724-9.636-5.366-14.5-3.681 3.363-5.155 6.33-10.705 7.491-16.752 1.161-6.046.332-12.68-3.314-17.643a17.756 17.756 0 0 0-27.399-1.466c-3.611 3.951-5.664 9.509-8.022 14.309-1.699 3.441-3.462 6.967-6.273 9.594-4.248 3.964-10.323 5.395-14.719 9.204-4.956 4.297-7.123 11.172-7.144 17.749a51.935 51.935 0 0 0 1.94 13.112 49.73 49.73 0 0 0 18.012 11.01 19.45 19.45 0 0 1-.801-9.091Z" fill="#000"/><path d="M233.35 259.716c.454 2.374.713 4.783.771 7.2l1.707-.644a4.39 4.39 0 0 1 4.729 1.083l.085.085a1.718 1.718 0 0 0 2.79-.451c.101-.214.156-.446.162-.682l.227-7.25-10.471.659Z" fill="#FFA8A7"/><path d="M239.927 286.662c-3.54 3.781-10.039 7.08-14.769 3.859l.531 1.203c4.723 3.229 11.236-.078 14.769-3.858 3.533-3.781 1.239-6.372 4.425-9.756a11.531 11.531 0 0 0 2.747-4.086c-.142-.361-.276-.835-.446-1.373a14.438 14.438 0 0 1-2.832 4.248c-3.186 3.363-.892 5.982-4.425 9.763Z" fill="#37474F"/><path d="M245.442 268.7a6.982 6.982 0 0 1-1.111-2.577 1.484 1.484 0 0 0-.708-1.048l-.043 1.211a1.71 1.71 0 0 1-1.099 1.55 1.713 1.713 0 0 1-1.853-.417l-.085-.085a4.394 4.394 0 0 0-4.729-1.084l-1.735.659a1.332 1.332 0 0 0-.864 1.274c.113 4.956-2.202 11.541-4.63 15.159-2.499 1.033-4.652 4.439-3.54 6.931l.113.248c4.73 3.228 11.236-.078 14.769-3.859 3.533-3.781 1.239-6.372 4.425-9.756a14.438 14.438 0 0 0 2.832-4.248 15.375 15.375 0 0 0-1.742-3.958Z" fill="#455A64"/><path d="M238.532 275.858a.599.599 0 0 0 .8-.269.594.594 0 0 0-.247-.8 6.885 6.885 0 0 0-6.79 0c-.106.389-.22.779-.333 1.168a6.648 6.648 0 0 1 6.57-.099Zm.871-2.676a.606.606 0 0 0 .852-.723.603.603 0 0 0-.3-.353 7.255 7.255 0 0 0-7.08.056c-.07.404-.155.808-.24 1.218 2.074-1.09 4.149-1.508 6.768-.198Zm-1.827 5.345a.608.608 0 0 0 .815-.262.605.605 0 0 0-.262-.814 6.872 6.872 0 0 0-6.641-.064c-.156.418-.312.836-.475 1.239a6.658 6.658 0 0 1 6.563-.099Zm-8.977 4.815c-2.499 1.033-4.652 4.439-3.54 6.931l.113.248c4.659 3.179 11.038 0 14.606-3.696-2.994-5.834-9.211-4.375-11.179-3.483Zm7.93-2.209a.603.603 0 0 0 .841-.721.607.607 0 0 0-.282-.356 6.914 6.914 0 0 0-6.662-.056c-.213.46-.425.906-.652 1.331 2.061-1.09 4.142-1.522 6.755-.198Z" fill="#fff"/><path d="M225.923 274.131a44.025 44.025 0 0 1-2.195 6.881l1.82.099a4.42 4.42 0 0 1 3.894 2.896l.042.113a1.72 1.72 0 0 0 2.735.714c.178-.155.322-.345.423-.558l3.136-6.542-9.855-3.603Z" fill="#FFA8A7"/><path d="M221.066 301.438c-4.765 2.032-12.036 2.429-15.073-2.428v1.309c3.023 4.864 10.308 4.468 15.073 2.436 4.765-2.032 3.717-5.36 7.979-7.144a11.556 11.556 0 0 0 4.163-2.626c0-.39.085-.871.149-1.416a14.353 14.353 0 0 1-4.312 2.747c-4.262 1.77-3.193 5.09-7.979 7.122Z" fill="#37474F"/><path d="M233.357 287.236a6.86 6.86 0 0 1 0-2.832 1.535 1.535 0 0 0-.22-1.247l-.524 1.098a1.709 1.709 0 0 1-1.63.973 1.716 1.716 0 0 1-.935-.333 1.719 1.719 0 0 1-.592-.796l-.043-.113a4.413 4.413 0 0 0-3.894-2.896l-1.791-.085a1.331 1.331 0 0 0-1.303.821c-1.897 4.581-6.676 9.672-10.358 12.001-2.704-.064-6.046 2.181-6.046 4.906v.277c3.023 4.856 10.308 4.46 15.073 2.428 4.765-2.032 3.717-5.352 7.979-7.144a14.302 14.302 0 0 0 4.312-2.747 15.26 15.26 0 0 0-.028-4.311Z" fill="#455A64"/><path d="M224.146 290.988a.59.59 0 0 0 .637.19.606.606 0 0 0 .304-.947 6.893 6.893 0 0 0-6.216-2.726c-.255.311-.517.623-.779.927a6.669 6.669 0 0 1 6.054 2.556Zm1.876-2.124a.601.601 0 0 0 .842.071.599.599 0 0 0 .1-.829 7.238 7.238 0 0 0-2.874-2.261 7.241 7.241 0 0 0-3.612-.571c-.226.34-.467.708-.708 1.013 2.315-.106 4.39.34 6.252 2.577Zm-3.83 4.184a.602.602 0 0 0 .842.071.588.588 0 0 0 .099-.828 6.89 6.89 0 0 0-6.053-2.747c-.305.326-.616.637-.928.941a6.656 6.656 0 0 1 6.04 2.563Zm-10.153.772c-2.705-.064-6.046 2.181-6.046 4.907v.276c2.973 4.786 10.089 4.467 14.868 2.513-.383-6.535-6.663-7.696-8.822-7.696Zm8.149 1.189a.6.6 0 0 0 .85.092.607.607 0 0 0 .092-.849 6.913 6.913 0 0 0-6.075-2.747c-.375.34-.758.658-1.133.956 2.33-.163 4.404.283 6.266 2.548Z" fill="#fff"/><path d="m253.889 212.216-23.831 13.275a11.813 11.813 0 0 0-5.863 12.468l4.631 24.9-3.795 12.036c3.271 4.39 10.783 4.616 10.783 4.616 4.191-8.404 7.264-11.979 9.643-19.017 2.378-7.037 3.964-11.901 3.964-11.901l19.789-5.409a23.45 23.45 0 0 0 17.148-19.952c.34-2.987.354-5.034.354-5.034l-32.823-5.982Z" fill="#37474F"/><path opacity=".2" d="M254.066 218.906a11.248 11.248 0 0 0 2.669 7.265l-16.815 10.52a12.038 12.038 0 0 0-5.147 6.712l-5.947 19.456 5.366-21.672a9.777 9.777 0 0 1 4.404-5.989l15.526-9.601c-1.621-3.993-.056-6.691-.056-6.691Z" fill="#000"/><path d="m236.09 186.459-3.335 3.236c-3.42-4.369-8.022-7.328-12.036-13.452-1.154-1.466-1.034-4.39-1.82-5.884-.616-1.168-1.692-2.924-2.124-3.908a.647.647 0 0 0-.691-.39.658.658 0 0 0-.264.1c-1.14.828-.538 2.832.063 4.899.708 2.45-2.987-.864-3.483-1.416-2.336-2.181-4.347-7.519-5.947-6.988-1.6.531-.326 3.193-.326 3.193-1.473.312-.913 2.655-.913 2.655-.871 1.529-.623 3.894 1.161 6.089 1.296 1.593 4.793 3.781 6.613 4.857a5.801 5.801 0 0 1 1.897 1.791l11.448 16.992a6.942 6.942 0 0 0 9.912 1.685l6.217-4.651-6.372-8.808Z" fill="#FFA8A7"/><path d="M255.461 171.449c-6.337-.283-14.939 10.004-19.789 14.868.375 5.926 6.754 9.82 6.754 9.82a137.903 137.903 0 0 0 13.035-10.195v-14.493Z" fill="#E0E0E0"/><path opacity=".1" d="M255.461 171.449c-6.337-.283-14.939 10.004-19.789 14.868.375 5.926 6.754 9.82 6.754 9.82a137.903 137.903 0 0 0 13.035-10.195v-14.493Z" fill="#000"/><path d="M224.209 211.961a5.876 5.876 0 0 1-5.366 0 9.342 9.342 0 0 1-1.091-.602 2.02 2.02 0 0 0 1.091 1.416 5.916 5.916 0 0 0 5.366 0 1.934 1.934 0 0 0 1.077-1.416 8.65 8.65 0 0 1-1.027.581l-.05.021Z" fill="#263238"/><path d="M230.1 202.7c0 1.268-.821 2.535-2.485 3.505-3.328 1.933-8.744 1.933-12.093 0-1.671-.97-2.513-2.237-2.52-3.505a10.822 10.822 0 0 0 4.779 8.659c.35.224.714.425 1.09.602a5.88 5.88 0 0 0 5.367 0h.049c.356-.17.699-.363 1.027-.58a10.824 10.824 0 0 0 4.786-8.681Z" fill="#455A64"/><path d="M215.494 206.205c3.349 1.933 8.765 1.933 12.093 0 1.663-.97 2.492-2.237 2.485-3.505-.007-1.267-.85-2.534-2.528-3.497-3.349-1.933-8.765-1.933-12.085 0-1.664.963-2.493 2.23-2.486 3.497.008 1.268.843 2.535 2.521 3.505Zm.34-6.372a11.428 11.428 0 0 1 5.664-1.352 11.547 11.547 0 0 1 5.664 1.352c1.416.8 2.124 1.819 2.124 2.867a3.062 3.062 0 0 1-1.36 2.33 6.16 6.16 0 0 1-.75.517 12.574 12.574 0 0 1-11.328 0 7.091 7.091 0 0 1-.793-.539 3.094 3.094 0 0 1-1.359-2.329c.021-1.027.771-2.039 2.138-2.832v-.014Z" fill="#455A64"/><path d="M215.076 205.023a3.54 3.54 0 0 1 1.664-1.735 10.535 10.535 0 0 1 9.53 0c.751.37 1.349.991 1.692 1.756a3.067 3.067 0 0 0 1.359-2.33c0-1.047-.764-2.067-2.124-2.867a11.553 11.553 0 0 0-5.664-1.352 11.431 11.431 0 0 0-5.664 1.352c-1.366.793-2.124 1.805-2.124 2.832a3.099 3.099 0 0 0 1.331 2.344Z" fill="#263238"/><path opacity=".6" d="M224.209 211.961a5.876 5.876 0 0 1-5.366 0 9.342 9.342 0 0 1-1.091-.602 2.02 2.02 0 0 0 1.091 1.416 5.916 5.916 0 0 0 5.366 0 1.934 1.934 0 0 0 1.077-1.416 8.65 8.65 0 0 1-1.027.581l-.05.021Z" fill="#fff"/><path opacity=".7" d="M230.1 202.7c0 1.268-.821 2.535-2.485 3.505-3.328 1.933-8.744 1.933-12.093 0-1.671-.97-2.513-2.237-2.52-3.505a10.822 10.822 0 0 0 4.779 8.659c.35.224.714.425 1.09.602a5.88 5.88 0 0 0 5.367 0h.049c.356-.17.699-.363 1.027-.58a10.824 10.824 0 0 0 4.786-8.681Z" fill="#fff"/><path opacity=".8" d="M215.494 206.205c3.349 1.933 8.765 1.933 12.093 0 1.663-.97 2.492-2.237 2.485-3.505-.007-1.267-.85-2.534-2.528-3.497-3.349-1.933-8.765-1.933-12.085 0-1.664.963-2.493 2.23-2.486 3.497.008 1.268.843 2.535 2.521 3.505Zm.34-6.372a11.428 11.428 0 0 1 5.664-1.352 11.547 11.547 0 0 1 5.664 1.352c1.416.8 2.124 1.819 2.124 2.867a3.062 3.062 0 0 1-1.36 2.33 6.16 6.16 0 0 1-.75.517 12.574 12.574 0 0 1-11.328 0 7.091 7.091 0 0 1-.793-.539 3.094 3.094 0 0 1-1.359-2.329c.021-1.027.771-2.039 2.138-2.832v-.014Z" fill="#fff"/><path opacity=".6" d="M215.076 205.023a3.54 3.54 0 0 1 1.664-1.735 10.535 10.535 0 0 1 9.53 0c.751.37 1.349.991 1.692 1.756a3.067 3.067 0 0 0 1.359-2.33c0-1.047-.764-2.067-2.124-2.867a11.553 11.553 0 0 0-5.664-1.352 11.431 11.431 0 0 0-5.664 1.352c-1.366.793-2.124 1.805-2.124 2.832a3.099 3.099 0 0 0 1.331 2.344Z" fill="#fff"/><path d="M226.27 203.288a10.535 10.535 0 0 0-9.53 0c-.74.367-1.328.98-1.664 1.735.252.197.517.377.793.538a12.568 12.568 0 0 0 11.328 0c.263-.153.514-.326.751-.517a3.598 3.598 0 0 0-1.678-1.756Z" fill="#632828"/><path d="M287.094 220.075c-4.248 4.057-24.532 4.807-34.89-5.055.998-6.96.665-14.422 0-21.8-.666-7.377-4.956-20.27 3.257-21.771 10.995-2.124 18.181-1.982 25.523 2.16 7.88 13.069 6.768 32.624 6.11 46.466Z" fill="#E0E0E0"/><path d="M275.731 154.84a2.99 2.99 0 0 0-1.466-1.537 2.205 2.205 0 0 0-.439-.163 2.762 2.762 0 0 0-2.45.815 4.727 4.727 0 0 0-1.189 2.371 17.738 17.738 0 0 0-.297 2.669 32.125 32.125 0 0 1-.708 4.709 6.01 6.01 0 0 1-3.052 3.979l-.099.056a18.504 18.504 0 0 1-7.08 1.891v2.697c-1.961 2.676-2.506 7.788 2.662 6.252 5.168-1.537 8.539-4.956 8.539-8.348.035-1.416.07-3.256.106-4.899.049-2.209.092-4.057.092-4.057a2.909 2.909 0 0 0 1.89.991c.331.046.668.027.991-.056a3.72 3.72 0 0 0 2.209-1.883c.44-.897.682-1.877.708-2.875a5.833 5.833 0 0 0-.417-2.612Z" fill="#FFA8A7"/><path d="M274.053 145.501a6.37 6.37 0 0 0-4.064-2.124l-21.24 1.976c-2.443 5.189-.489 8.623-.489 8.623-.333 7.915-.609 12.949 2.875 14.613 1.897.906 4.786 1.296 7.788 1.076a18.49 18.49 0 0 0 7.08-1.89l.113-.064a5.992 5.992 0 0 0 3.044-3.993c.349-1.543.586-3.11.708-4.687.032-.896.132-1.788.298-2.669a4.734 4.734 0 0 1 1.189-2.372 2.764 2.764 0 0 1 2.45-.814c.152.039.299.093.439.163.623-3.554.8-6.599-.191-7.838Z" fill="#37474F"/><path d="M266.272 146.11a7.38 7.38 0 0 0 .283 4.446 32.111 32.111 0 0 1 1.352 4.326 7.08 7.08 0 0 1-.587 4.362 5.133 5.133 0 0 1-3.385 2.697c-2.279.489-4.51-.843-6.804-1.289a9.528 9.528 0 0 0-6.372 1.133 1.105 1.105 0 0 1-1.082.023 1.106 1.106 0 0 1-.588-.908c-.269-4.559-.262-11.696.41-15.052l16.773.262Z" fill="#FFA8A7"/><path d="m249.839 141.982-2.641-1.798a5.605 5.605 0 0 0 1.006 5.197 8.394 8.394 0 0 0 4.658 2.74c1.801.366 3.647.449 5.473.248a39.975 39.975 0 0 0 7.901-1.416 6.283 6.283 0 0 0 3.108-1.629 4.109 4.109 0 0 0 .163-4.836 6.145 6.145 0 0 0-4.368-2.527 16.638 16.638 0 0 0-5.253.411 15.922 15.922 0 0 1-5.261.375 5.464 5.464 0 0 1-4.248-2.832c-1.48 2.379-.538 6.067-.538 6.067Z" fill="#37474F"/><path d="m256.501 154.188-3.872 4.687 3.554 1.26.318-5.947Zm2.931 8.277-2.987.92a1.836 1.836 0 0 0 2.01.928 1.655 1.655 0 0 0 .977-1.848Z" fill="#F28F8F"/><path opacity=".3" d="m259.432 162.465-2.987.92a1.836 1.836 0 0 0 2.01.928 1.655 1.655 0 0 0 .977-1.848Z" fill="#000"/><path d="M257.478 164.256c.314.113.653.133.977.057a1.511 1.511 0 0 0 .977-1.353 1.795 1.795 0 0 0-1.161.213 1.762 1.762 0 0 0-.793 1.083Z" fill="#F28F8F"/><path d="M261.769 155.215a1.068 1.068 0 0 1-.708.943 1.058 1.058 0 0 1-1.142-.291 1.063 1.063 0 0 1 .246-1.623 1.066 1.066 0 0 1 1.547.559c.046.132.065.272.057.412Zm-8.9-.821a1.063 1.063 0 1 1-1.603-.971 1.054 1.054 0 0 1 1.331.204c.188.21.286.485.272.767Zm-.821-4.298-2.443 1.501a1.5 1.5 0 0 1 .553-1.642 1.78 1.78 0 0 1 1.89.141Zm9.119.375 2.266 1.756a1.516 1.516 0 0 0-.369-1.692 1.79 1.79 0 0 0-1.897-.064Z" fill="#263238"/><path opacity=".2" d="M267.433 167.598a6.809 6.809 0 0 0 1.239-2.577 5.95 5.95 0 0 1-2.57 2.662l-.099.056a18.51 18.51 0 0 1-7.08 1.891v1.819a17.677 17.677 0 0 0 4.205-.885 9.487 9.487 0 0 0 4.305-2.966Z" fill="#000"/><path d="M241.938 217.533c1.94 0 18.153-.361 25.601-.524a6.002 6.002 0 0 0 5.296-3.462l5.664-12.206-11.71-5.225-4.312 10.691c-6.79-.418-15.328 2.648-20.299 2.237-2.761-.177-2.385-2.662-5.43-3.405-3.044-.744-3.858.12-5.345-.255-1.487-.376-1.728 2.01 1.069 2.52-2.188.142-1.82-1.494-3.073-1.678a2.241 2.241 0 0 0-2.223 1.062 1.959 1.959 0 0 0 .503 2.245 2.127 2.127 0 0 0-1.204 1.968 1.976 1.976 0 0 0 1.197 1.848 1.947 1.947 0 0 0-.326 1.954 1.92 1.92 0 0 0 1.586 1.161 2.508 2.508 0 0 0 1.713 2.074 6.764 6.764 0 0 0 2.726 0c2.797-.311 5.777-.658 8.567-1.005Z" fill="#FFA8A7"/><path d="M276.693 171.633c-5.012 5.098-11.066 25.488-11.066 25.488 3.399 5.551 13.013 5.714 13.013 5.714 9.941-23.782 9.12-28.837-1.947-31.202Z" fill="#E0E0E0"/><path opacity=".1" d="M276.693 171.633c-5.012 5.098-11.066 25.488-11.066 25.488 3.399 5.551 13.013 5.714 13.013 5.714 9.941-23.782 9.12-28.837-1.947-31.202Z" fill="#000"/><path d="M229.555 206.304a1.418 1.418 0 0 0-.949 0c.257-.458.595-.866.998-1.204a1.424 1.424 0 0 1 1.582-.251 1.416 1.416 0 0 1 .804 1.384 4.654 4.654 0 0 1-.339 1.664 1.285 1.285 0 0 1-.843-.453c.08-.301.125-.61.135-.92a1.182 1.182 0 0 0 0-.411.564.564 0 0 0-.227-.333.586.586 0 0 0-.63.057 1.884 1.884 0 0 0-.531.467Z" fill="#263238"/><path opacity=".5" d="M229.555 206.304a1.418 1.418 0 0 0-.949 0c.257-.458.595-.866.998-1.204a1.424 1.424 0 0 1 1.582-.251 1.416 1.416 0 0 1 .804 1.384 4.654 4.654 0 0 1-.339 1.664 1.285 1.285 0 0 1-.843-.453c.08-.301.125-.61.135-.92a1.182 1.182 0 0 0 0-.411.564.564 0 0 0-.227-.333.586.586 0 0 0-.63.057 1.884 1.884 0 0 0-.531.467Z" fill="#fff"/><path d="M116.742 200.286c6.308 4.383 13.41 7.413 18.684 13.282 9.834 10.974 10.068 28.625 2.337 41.17-7.732 12.546-22.097 20.086-36.731 21.807-15.357 1.812-31.471-2.429-43.514-12.121-12.043-9.693-19.71-24.837-19.71-40.292 0-15.456 7.929-30.848 20.878-39.309 11.817-7.703 28.787-9.912 40.646-1.083 5.99 4.46 9.99 11.038 15.966 15.505.477.354.958.701 1.444 1.041Z" fill="#9269AD"/><path opacity=".2" d="M116.742 200.286c6.308 4.383 13.41 7.413 18.684 13.282 9.834 10.974 10.068 28.625 2.337 41.17-7.732 12.546-22.097 20.086-36.731 21.807-15.357 1.812-31.471-2.429-43.514-12.121-12.043-9.693-19.71-24.837-19.71-40.292 0-15.456 7.929-30.848 20.878-39.309 11.817-7.703 28.787-9.912 40.646-1.083 5.99 4.46 9.99 11.038 15.966 15.505.477.354.958.701 1.444 1.041Z" fill="#fff"/><path d="M46.055 222.008a45.108 45.108 0 0 1 38.494-43.811c1.464.136 2.916.373 4.347.708a43.993 43.993 0 0 0-41.651 43.124c-.283 14.393 6.754 29.028 18.826 39.237 9.458 7.972 22.025 13.261 35.839 15.166l-.878.113a60.428 60.428 0 0 1-3.739.318c-12.276-2.378-23.364-7.441-31.987-14.691-12.348-10.407-19.54-25.424-19.25-40.164Z" fill="#fff"/><path opacity=".2" d="m114.172 264.558-.042-.311a16.604 16.604 0 0 0-13.452-13.834 52.653 52.653 0 0 1-17.233-6.606c-3.767-2.273-7.32-5.069-11.548-6.301a18.82 18.82 0 0 0-12.446.708c3.54-3.724 9.636-5.367 14.5-3.682-3.37-5.154-6.33-10.705-7.491-16.751-1.161-6.046-.333-12.68 3.313-17.643a17.741 17.741 0 0 1 27.4-1.466c3.611 3.951 5.664 9.508 8.015 14.309 1.706 3.441 3.469 6.966 6.272 9.593 4.248 3.965 10.33 5.395 14.72 9.204 4.956 4.298 7.129 11.165 7.151 17.743a52.445 52.445 0 0 1-1.933 13.147 49.786 49.786 0 0 1-18.012 11.009 19.446 19.446 0 0 0 .786-9.119Z" fill="#000"/><path d="M137.685 274.166a43.956 43.956 0 0 0 2.195 6.875l-1.82.106a4.38 4.38 0 0 0-3.894 2.896l-.042.113a1.724 1.724 0 0 1-2.124 1.055 1.716 1.716 0 0 1-1.034-.899l-3.137-6.542 9.856-3.604Z" fill="#955"/><path d="M142.542 301.474c4.757 2.031 12.036 2.428 15.073-2.436v1.317c-3.023 4.864-10.316 4.467-15.073 2.428-4.758-2.039-3.717-5.352-7.98-7.136a11.537 11.537 0 0 1-4.17-2.627c0-.389-.078-.878-.148-1.416a14.517 14.517 0 0 0 4.318 2.747c4.263 1.763 3.222 5.083 7.98 7.123Z" fill="#37474F"/><path d="M130.272 287.264a6.893 6.893 0 0 0 0-2.832 1.503 1.503 0 0 1 .212-1.246l.531 1.097a1.711 1.711 0 0 0 1.631.973 1.714 1.714 0 0 0 1.527-1.129l.043-.113a4.377 4.377 0 0 1 3.894-2.896l1.847-.106a1.335 1.335 0 0 1 1.303.822c1.898 4.58 6.677 9.671 10.358 12 2.698-.064 6.047 2.181 6.047 4.907v.269c-3.024 4.864-10.316 4.467-15.074 2.435-4.758-2.032-3.717-5.359-7.979-7.144a14.495 14.495 0 0 1-4.319-2.747 15.884 15.884 0 0 1-.021-4.29Z" fill="#455A64"/><path d="M139.476 291.023a.6.6 0 0 1-.843.078.59.59 0 0 1-.204-.628.596.596 0 0 1 .105-.207 6.9 6.9 0 0 1 2.749-2.182 6.9 6.9 0 0 1 3.468-.544c.254.312.516.623.778.928a6.655 6.655 0 0 0-6.053 2.555Zm-1.89-2.102a.61.61 0 0 1-.854.088.605.605 0 0 1-.088-.853 7.249 7.249 0 0 1 6.485-2.797c.227.34.468.708.708 1.013-2.322-.156-4.361.283-6.251 2.549Zm3.823 4.191a.601.601 0 0 1-.405.215.592.592 0 0 1-.438-.137.61.61 0 0 1-.099-.835 6.897 6.897 0 0 1 6.089-2.783c.312.326.623.637.935.942a6.649 6.649 0 0 0-6.082 2.598Zm10.16.75c2.697-.063 6.046 2.181 6.046 4.907v.269c-2.981 4.793-10.096 4.474-14.868 2.52.382-6.542 6.641-7.738 8.822-7.696Zm-8.149 1.176a.601.601 0 0 1-.405.215.592.592 0 0 1-.438-.137.605.605 0 0 1-.099-.836 6.9 6.9 0 0 1 6.067-2.74c.383.34.758.659 1.133.956-2.322-.163-4.396.276-6.258 2.542Z" fill="#fff"/><path d="M152.574 264.183a44.037 44.037 0 0 0 2.195 6.882l-1.841.099a4.392 4.392 0 0 0-3.901 2.896l-.036.113a1.723 1.723 0 0 1-2.739.715 1.699 1.699 0 0 1-.425-.559l-3.13-6.542 9.877-3.604Z" fill="#955"/><path d="M157.438 291.491c4.758 2.032 12.036 2.428 15.073-2.429v1.31c-3.023 4.864-10.315 4.467-15.073 2.428-4.758-2.039-3.724-5.352-7.986-7.136a11.528 11.528 0 0 1-4.163-2.627c0-.389-.085-.878-.149-1.416a14.554 14.554 0 0 0 4.312 2.747c4.262 1.763 3.221 5.091 7.986 7.123Z" fill="#37474F"/><path d="M145.14 277.281a6.726 6.726 0 0 0 0-2.832 1.535 1.535 0 0 1 .219-1.246l.524 1.098c.102.213.247.404.426.559a1.723 1.723 0 0 0 2.739-.715l.036-.114a4.383 4.383 0 0 1 3.844-2.867l1.841-.106a1.331 1.331 0 0 1 1.303.821c1.904 4.581 6.676 9.671 10.358 12.001 2.704-.064 6.053 2.18 6.053 4.906v.276c-3.023 4.857-10.316 4.461-15.073 2.429-4.758-2.032-3.724-5.36-7.987-7.144a14.55 14.55 0 0 1-4.311-2.747 15.582 15.582 0 0 1 .028-4.319Z" fill="#455A64"/><path d="M154.344 281.076a.61.61 0 0 1-.85.078.607.607 0 0 1-.216-.399.608.608 0 0 1 .124-.437 6.889 6.889 0 0 1 6.217-2.725c.254.311.509.623.778.927a6.657 6.657 0 0 0-6.053 2.556Zm-1.869-2.124a.6.6 0 0 1-1.069-.308.599.599 0 0 1 .127-.442 7.257 7.257 0 0 1 6.493-2.832c.226.339.467.708.708 1.012-2.323-.149-4.39.297-6.259 2.57Zm3.83 4.142a.6.6 0 0 1-.846.095.6.6 0 0 1-.095-.846 6.895 6.895 0 0 1 6.053-2.747c.304.326.616.638.934.942a6.661 6.661 0 0 0-6.046 2.556Zm10.153.814c2.704-.064 6.053 2.181 6.053 4.906v.276c-2.98 4.787-10.096 4.468-14.868 2.514.376-6.57 6.655-7.753 8.815-7.696Zm-8.142 1.147a.601.601 0 0 1-.405.215.594.594 0 0 1-.438-.137.587.587 0 0 1-.099-.829 6.887 6.887 0 0 1 6.068-2.747c.375.34.757.659 1.133.956-2.33-.163-4.404.283-6.259 2.542Z" fill="#fff"/><path d="M153.034 265.422c-3.271 4.39-10.783 4.609-10.783 4.609-4.191-8.404-7.264-11.972-9.643-19.01-2.378-7.037-3.964-11.901-3.964-11.901l-31.931-8.73c-5.26-8.425-3.731-15.087-3.731-15.087l18.408-.255 25.707 10.096a14.865 14.865 0 0 1 9.077 10.528l6.86 29.75Z" fill="#9269AD"/><path opacity=".3" d="M153.034 265.422c-3.271 4.39-10.783 4.609-10.783 4.609-4.191-8.404-7.264-11.972-9.643-19.01-2.378-7.037-3.964-11.901-3.964-11.901l-31.931-8.73c-5.26-8.425-3.731-15.087-3.731-15.087l18.408-.255 25.707 10.096a14.865 14.865 0 0 1 9.077 10.528l6.86 29.75Z" fill="#000"/><path opacity=".3" d="m126.909 232.118-14.797-9.204a8.279 8.279 0 0 1 1.678-3.675 8.775 8.775 0 0 0-4.305 4.1l-2.4 9.876 21.559 5.891s1.586 4.857 3.964 11.901a55.166 55.166 0 0 0 5.006 10.5 990.986 990.986 0 0 1-3.144-18.061 16.494 16.494 0 0 0-7.561-11.328Z" fill="#000"/><path d="M138.577 274.945c-3.271 4.389-10.783 4.609-10.783 4.609-4.191-8.39-7.264-11.973-9.65-19.01a1072.513 1072.513 0 0 1-3.965-11.902l-19.824-5.409A23.498 23.498 0 0 1 77.2 223.176c-.325-2.931-.34-4.956-.34-4.956l19.966-3.654 28.32 19.676a14.863 14.863 0 0 1 6.032 8.899l7.399 31.804Z" fill="#9269AD"/><path opacity=".3" d="M138.577 274.945c-3.271 4.389-10.783 4.609-10.783 4.609-4.191-8.39-7.264-11.973-9.65-19.01a1072.513 1072.513 0 0 1-3.965-11.902l-19.824-5.409A23.498 23.498 0 0 1 77.2 223.176c-.325-2.931-.34-4.956-.34-4.956l19.966-3.654 28.32 19.676a14.863 14.863 0 0 1 6.032 8.899l7.399 31.804Z" fill="#000"/><path d="m116.275 189.333 8.333 6.783 5.515-8.949-6.938-7.788c-6.075 2.683-6.91 9.954-6.91 9.954Z" fill="#823C3C"/><path d="M102.143 165.594c6.57-.708 9.041 1.345 13.303 5.367 4.263 4.021 8.567 8.545 8.567 8.545-6.57 3.215-7.299 11.031-7.299 11.031-3.583-2.775-6.613-4.956-6.613-4.956l-7.958-19.987Z" fill="#9269AD"/><path opacity=".5" d="M102.143 165.594c6.57-.708 9.041 1.345 13.303 5.367 4.263 4.021 8.567 8.545 8.567 8.545-6.57 3.215-7.299 11.031-7.299 11.031-3.583-2.775-6.613-4.956-6.613-4.956l-7.958-19.987Z" fill="#fff"/><path d="M78.701 171.024c9.353-4.382 16.362-4.892 24.009-5.225 11.441 7.371 7.157 13.502 6.966 23.364-.191 9.863-2.343 15.775 4.475 26.005-14.996 11.979-33.942 8.192-38.466 5.31-2.924-27.244-2.053-47.351 3.016-49.454Z" fill="#9269AD"/><path opacity=".7" d="M78.701 171.024c9.353-4.382 16.362-4.892 24.009-5.225 11.441 7.371 7.157 13.502 6.966 23.364-.191 9.863-2.343 15.775 4.475 26.005-14.996 11.979-33.942 8.192-38.466 5.31-2.924-27.244-2.053-47.351 3.016-49.454Z" fill="#fff"/><path d="m115.404 176.009 8.383 19.753a5.805 5.805 0 0 0 7.434 3.15 5.813 5.813 0 0 0 2.456-9.062l-14.089-17.594a6.37 6.37 0 0 0-1.515-1.373l-5.664-3.661a2.983 2.983 0 0 0-2.032-.453l-3.809.524-.184 10.472 2.421.304a3.976 3.976 0 0 0 1.926-.234l4.673-1.826Zm-28.009 19.399 2.124 11.654 15.322 3.894a4.523 4.523 0 0 0 3.242-.376 14.916 14.916 0 0 1 3.427-1.416c.949-.219 1.919-.339 2.867-.552a8.457 8.457 0 0 0 1.94-.658.833.833 0 0 1 .801.019.83.83 0 0 1 .41.689 1.748 1.748 0 0 1-.135.665 3.279 3.279 0 0 1-1.288 1.416 7.993 7.993 0 0 1-2.79 1.168 7.79 7.79 0 0 0 4.362.475c1.416-.184 2.832-.567 4.248-.708a2.61 2.61 0 0 1 1.564.184 1.032 1.032 0 0 1 .468 1.352c-.369.581-1.317.446-1.777.949.225.298.385.641.467 1.005.065.383-.013.776-.22 1.105a1.116 1.116 0 0 1-.977.509 4.002 4.002 0 0 1-1.557 2.677 7.94 7.94 0 0 1-2.832 1.331c-4.248 1.147-8.333-1.055-12.596-2.124-.58-.142-14.223-.963-21.197-1.374a5.236 5.236 0 0 1-4.829-4.205l-3.051-15.343 12.007-2.336Z" fill="#955"/><path d="M82.723 210.042c.92-1.118 4.467-3.384 6.818-3.002l-.22-1.196a6.872 6.872 0 0 0-6.598 4.198Z" fill="#823C3C"/><path d="M78.701 171.024c-11.2 4.192-8.651 14.16-4.524 29.913 6.67 1.841 14.557-3.957 14.557-3.957-2.195-12.468-3.023-26.147-10.033-25.956Z" fill="#9269AD"/><path opacity=".5" d="M78.701 171.024c-11.2 4.192-8.651 14.16-4.524 29.913 6.67 1.841 14.557-3.957 14.557-3.957-2.195-12.468-3.023-26.147-10.033-25.956Z" fill="#fff"/><path d="M81.597 152.985c-1.126-3.781-.885-8.121 1.374-11.328a12.38 12.38 0 0 1 5.996-4.425 18.981 18.981 0 0 1 7.456-.963c1.994.032 3.957.504 5.748 1.38a9.25 9.25 0 0 1 4.864 9.084 9.247 9.247 0 0 1-1.054 3.462 15.497 15.497 0 0 1-3.767 4.298 48.18 48.18 0 0 1-9.487 6.372 51.48 51.48 0 0 1-2.584 1.218c-.595.254-1.72.984-2.386.856-.666-.127-1.367-1.416-1.77-1.89-.581-.708-1.133-1.501-1.65-2.28a21.957 21.957 0 0 1-2.74-5.784Z" fill="#263238"/><path d="M105.124 143.306a9.452 9.452 0 0 1-6.28 2.641c-2.21 0-4.347-.708-6.471-1.289a4.953 4.953 0 0 1-1.466 2.705 5.668 5.668 0 0 1-3.016 1.31 19.494 19.494 0 0 1 0 6.018 1.153 1.153 0 0 1-.807.927c-.708.206-1.19-.531-1.544-1.125a4.957 4.957 0 0 0-1.55-1.735 2.431 2.431 0 0 0-2.251-.227 2.337 2.337 0 0 0-1.183 1.416 4.32 4.32 0 0 0-.092 1.905 5.709 5.709 0 0 0 1.24 2.91 3.932 3.932 0 0 0 2.768 1.416 2.832 2.832 0 0 0 2.662-1.317l.05.198c.073.316.17.626.29.928a7.938 7.938 0 0 0 5.812 4.956 80.241 80.241 0 0 0 6.634 1.097 5.452 5.452 0 0 0 6.018-4.453c1.048-5.749 1.388-12.525-.814-18.281Z" fill="#955"/><path d="M87.495 160.008v10.132a11.173 11.173 0 0 0 8.149 4.517 3.974 3.974 0 0 0 2.93-.751 2.373 2.373 0 0 0 .778-1.953 2.38 2.38 0 0 0-1.075-1.806 1.294 1.294 0 0 1-.594-1.084v-3.292a81.792 81.792 0 0 1-4.376-.786 7.924 7.924 0 0 1-5.812-4.977Z" fill="#955"/><path d="M94.263 167.237c1.122.295 2.265.498 3.42.609v-2.054a81.808 81.808 0 0 1-4.376-.785 7.929 7.929 0 0 1-5.614-4.539 8.063 8.063 0 0 0 2.046 4.248 9.702 9.702 0 0 0 4.524 2.521Z" fill="#823C3C"/><path d="M100.72 150.648h-1.31a9.6 9.6 0 0 0-9.055-.92v1.416l.361.191c.2.891.313 1.799.34 2.712a3.6 3.6 0 0 0 .998 2.4 4.048 4.048 0 0 0 2.698.708 4.964 4.964 0 0 0 2.237-.319 3.58 3.58 0 0 0 1.713-2.053c.319-.864.27-1.359.708-2.4a.775.775 0 0 1 .708-.481.71.71 0 0 1 .666.481c.375 1.041.325 1.536.63 2.4a3.536 3.536 0 0 0 1.6 2.053c.671.281 1.401.39 2.124.319a3.587 3.587 0 0 0 2.52-.708 3.721 3.721 0 0 0 .935-2.4c.023-.912.13-1.82.319-2.712l.339-.191v-1.416a8.505 8.505 0 0 0-8.531.92Zm-1.968.708-.057.496c-.119.891-.34 1.765-.658 2.605a2.93 2.93 0 0 1-1.353 1.65 3.727 3.727 0 0 1-1.614.262h-.29a3.54 3.54 0 0 1-2.23-.538 2.832 2.832 0 0 1-.765-1.926c0-.226-.042-.467-.056-.708-.043-.658 0-2.124.049-3.15a8.446 8.446 0 0 1 2.301-.319 8.8 8.8 0 0 1 4.616 1.345c.078.057.057.283.057.283Zm9.154 1.848c0 .234 0 .475-.049.708a2.956 2.956 0 0 1-.708 1.926 3.076 3.076 0 0 1-2.082.538h-.283a3.279 3.279 0 0 1-1.508-.262 2.875 2.875 0 0 1-1.26-1.65 12.27 12.27 0 0 1-.623-2.605l-.05-.496s0-.226.057-.276a7.836 7.836 0 0 1 4.319-1.345c.719.002 1.435.11 2.124.319.07 1.033.106 2.485.063 3.143Z" fill="#455A64"/><path d="m90.355 149.728-7.37 2.648a3.179 3.179 0 0 1 1.416.708c.078.063 5.926-1.947 5.926-1.947l.028-1.409Z" fill="#455A64"/><path d="m100.055 151.965 3.717 4.503-3.413 1.211-.304-5.714Z" fill="#955"/><path d="m100.055 151.965 3.717 4.503-3.413 1.211-.304-5.714Z" fill="#823C3C"/><path d="M94.801 152.531a1.028 1.028 0 1 0 1.027-1.019 1.037 1.037 0 0 0-1.027 1.019Zm8.567-.276a1.023 1.023 0 0 0 .628.942 1.02 1.02 0 1 0-.628-.942Zm-.531-4.531 2.74.305a1.47 1.47 0 0 0-1.147-1.204 1.75 1.75 0 0 0-1.593.899Zm-5.99-.318-2.655.708a1.415 1.415 0 0 1 .949-1.36 1.735 1.735 0 0 1 1.706.652Z" fill="#263238"/><path d="m96.918 159.357 2.832.871a1.742 1.742 0 0 1-1.912.885 1.58 1.58 0 0 1-.92-1.756Z" fill="#955"/><path d="m96.918 159.357 2.832.871a1.742 1.742 0 0 1-1.912.885 1.58 1.58 0 0 1-.92-1.756Z" fill="#632828"/><path d="M98.773 161.056c-.297.11-.62.129-.927.056a1.41 1.41 0 0 1-.928-1.288c.38-.057.77.015 1.105.205a1.67 1.67 0 0 1 .75 1.027Z" fill="#823C3C"/><path d="M99.941 178.366a5.878 5.878 0 0 0 5.367 0 9.47 9.47 0 0 0 1.09-.601 2.003 2.003 0 0 1-1.09 1.416 5.93 5.93 0 0 1-5.367 0 1.934 1.934 0 0 1-1.076-1.416 8.44 8.44 0 0 0 1.027.58l.05.021Z" fill="#263238"/><path d="M94.086 169.106c0 1.274.814 2.534 2.478 3.54 3.328 1.933 8.744 1.933 12.093 0 1.678-.97 2.513-2.23 2.52-3.54a10.822 10.822 0 0 1-4.779 8.659 9.47 9.47 0 0 1-1.09.601 5.88 5.88 0 0 1-5.367 0h-.05a8.44 8.44 0 0 1-1.026-.58 10.813 10.813 0 0 1-4.779-8.68Z" fill="#455A64"/><path d="M111.156 169.106c0-1.26-.814-2.528-2.478-3.498-3.328-1.933-8.744-1.933-12.093 0-1.678.97-2.513 2.238-2.52 3.498-.007 1.26.814 2.534 2.478 3.54 3.328 1.933 8.744 1.933 12.093 0 1.699-1.006 2.52-2.266 2.52-3.54Zm-.743 0a3.07 3.07 0 0 1-.412 1.321 3.067 3.067 0 0 1-.948 1.008 6.993 6.993 0 0 1-.793.538 12.562 12.562 0 0 1-11.328 0 6.029 6.029 0 0 1-.75-.517 3.063 3.063 0 0 1-1.36-2.329c0-1.048.765-2.067 2.124-2.867a12.565 12.565 0 0 1 11.328 0c1.409.786 2.174 1.798 2.174 2.839l-.035.007Z" fill="#455A64"/><path d="M109.074 171.428a3.542 3.542 0 0 0-1.663-1.735 9.553 9.553 0 0 0-4.758-1.139 9.675 9.675 0 0 0-4.772 1.139 3.601 3.601 0 0 0-1.692 1.756 3.063 3.063 0 0 1-1.36-2.329c0-1.048.765-2.067 2.125-2.867a12.565 12.565 0 0 1 11.328 0c1.359.793 2.124 1.805 2.124 2.832a3.078 3.078 0 0 1-1.332 2.343Z" fill="#263238"/><path opacity=".6" d="M99.941 178.366a5.878 5.878 0 0 0 5.367 0 9.47 9.47 0 0 0 1.09-.601 2.003 2.003 0 0 1-1.09 1.416 5.93 5.93 0 0 1-5.367 0 1.934 1.934 0 0 1-1.076-1.416 8.44 8.44 0 0 0 1.027.58l.05.021Z" fill="#fff"/><path opacity=".7" d="M94.086 169.106c0 1.274.814 2.534 2.478 3.54 3.328 1.933 8.744 1.933 12.093 0 1.678-.97 2.513-2.23 2.52-3.54a10.822 10.822 0 0 1-4.779 8.659 9.47 9.47 0 0 1-1.09.601 5.88 5.88 0 0 1-5.367 0h-.05a8.44 8.44 0 0 1-1.026-.58 10.813 10.813 0 0 1-4.779-8.68Z" fill="#fff"/><path opacity=".8" d="M111.156 169.106c0-1.26-.814-2.528-2.478-3.498-3.328-1.933-8.744-1.933-12.093 0-1.678.97-2.513 2.238-2.52 3.498-.007 1.26.814 2.534 2.478 3.54 3.328 1.933 8.744 1.933 12.093 0 1.699-1.006 2.52-2.266 2.52-3.54Zm-.743 0a3.07 3.07 0 0 1-.412 1.321 3.067 3.067 0 0 1-.948 1.008 6.993 6.993 0 0 1-.793.538 12.562 12.562 0 0 1-11.328 0 6.029 6.029 0 0 1-.75-.517 3.063 3.063 0 0 1-1.36-2.329c0-1.048.765-2.067 2.124-2.867a12.565 12.565 0 0 1 11.328 0c1.409.786 2.174 1.798 2.174 2.839l-.035.007Z" fill="#fff"/><path opacity=".6" d="M109.074 171.428a3.542 3.542 0 0 0-1.663-1.735 9.553 9.553 0 0 0-4.758-1.139 9.675 9.675 0 0 0-4.772 1.139 3.601 3.601 0 0 0-1.692 1.756 3.063 3.063 0 0 1-1.36-2.329c0-1.048.765-2.067 2.125-2.867a12.565 12.565 0 0 1 11.328 0c1.359.793 2.124 1.805 2.124 2.832a3.078 3.078 0 0 1-1.332 2.343Z" fill="#fff"/><path d="M97.881 169.693a9.687 9.687 0 0 1 4.772-1.14 9.567 9.567 0 0 1 4.758 1.14c.74.367 1.328.98 1.663 1.735a6.904 6.904 0 0 1-.793.538 12.56 12.56 0 0 1-11.328 0 6.036 6.036 0 0 1-.75-.517 3.597 3.597 0 0 1 1.678-1.756Z" fill="#632828"/><path d="M83.452 146.436a6.804 6.804 0 1 0-.001-13.609 6.804 6.804 0 0 0 0 13.609Z" fill="#263238"/></svg>