<svg width="77" height="73" viewBox="0 0 77 73" fill="none" xmlns="http://www.w3.org/2000/svg">
<path d="M68.225 22.6586C66.894 33.2716 57.596 43.8676 47.37 50.6916C20.944 68.4696 -4.603 38.3026 1.841 27.4676C6.678 16.4786 21.762 19.4976 28.185 15.1776C64.262 -9.27537 69.476 13.7756 68.225 22.6586Z" fill="#407BFF"/>
<path opacity="0.9" d="M68.225 22.6586C66.894 33.2716 57.596 43.8676 47.37 50.6916C20.944 68.4696 -4.603 38.3026 1.841 27.4676C6.678 16.4786 21.762 19.4976 28.185 15.1776C64.262 -9.27537 69.476 13.7756 68.225 22.6586Z" fill="white"/>
<path d="M38.501 72.2308C59.4624 72.2308 76.455 71.2387 76.455 70.0148C76.455 68.791 59.4624 67.7988 38.501 67.7988C17.5396 67.7988 0.546997 68.791 0.546997 70.0148C0.546997 71.2387 17.5396 72.2308 38.501 72.2308Z" fill="#F5F5F5"/>
<path d="M38.493 59.2117H10.693L9.172 14.5117H36.972L38.493 59.2117Z" fill="#407BFF"/>
<path d="M39.881 57.823H12.081L10.558 13.123H38.358L39.881 57.823Z" fill="#407BFF"/>
<path opacity="0.3" d="M39.881 57.823H12.081L10.558 13.123H38.358L39.881 57.823Z" fill="white"/>
<path d="M30.5656 31.515C33.5416 28.488 33.4154 23.5381 30.2837 20.4591C27.1519 17.3801 22.2006 17.3379 19.2246 20.3649C16.2486 23.3919 16.3748 28.3417 19.5065 31.4208C22.6382 34.4998 27.5895 34.542 30.5656 31.515Z" fill="#407BFF"/>
<path d="M31.35 25.9416C31.3901 27.0067 31.1578 28.0644 30.675 29.0146C30.1537 30.0385 29.3574 30.8969 28.3755 31.4936C27.3937 32.0903 26.2649 32.4016 25.116 32.3926C23.94 32.3862 22.7863 32.0707 21.7708 31.4776C20.7552 30.8845 19.9134 30.0348 19.33 29.0136C18.7859 28.0781 18.4818 27.0223 18.445 25.9406C18.4088 25.1018 18.5435 24.2644 18.841 23.4792C19.1385 22.6941 19.5925 21.9776 20.1755 21.3734C20.7585 20.7691 21.4583 20.2898 22.2323 19.9644C23.0063 19.639 23.8384 19.4744 24.678 19.4806C26.4075 19.4932 28.0657 20.1715 29.3082 21.3747C30.5507 22.5779 31.2819 24.2134 31.35 25.9416Z" fill="white"/>
<path opacity="0.6" d="M30.671 29.015C30.1498 30.0391 29.3536 30.8977 28.3717 31.4946C27.3898 32.0914 26.261 32.4029 25.112 32.394C23.9359 32.3876 22.7823 32.072 21.7667 31.4789C20.7512 30.8859 19.9094 30.0361 19.326 29.015C20.9812 27.8866 22.9398 27.2868 24.943 27.295C26.979 27.2992 28.9695 27.8969 30.671 29.015Z" fill="#407BFF"/>
<path opacity="0.6" d="M26.9071 25.7793C28.0017 24.666 27.9555 22.8457 26.804 21.7135C25.6524 20.5813 23.8316 20.5661 22.737 21.6794C21.6424 22.7928 21.6885 24.6131 22.8401 25.7453C23.9916 26.8774 25.8125 26.8927 26.9071 25.7793Z" fill="#407BFF"/>
<path d="M34.296 41.6343H16.565L16.446 38.1113H34.177L34.296 41.6343Z" fill="white"/>
<path d="M34.511 47.9312H16.778L16.659 44.4082H34.392L34.511 47.9312Z" fill="white"/>
<path d="M27.668 44.8956L23.395 45.4826C23.3544 45.4876 23.3154 45.5009 23.2801 45.5216C23.2449 45.5423 23.2142 45.57 23.1901 45.6029C23.1659 45.6359 23.1488 45.6734 23.1396 45.7132C23.1305 45.7531 23.1296 45.7944 23.137 45.8346L23.699 48.6986C23.7173 48.7827 23.7665 48.8569 23.8369 48.9065C23.9072 48.9561 23.9936 48.9776 24.079 48.9666L28.352 48.3796C28.3926 48.3743 28.4316 48.3608 28.4668 48.3399C28.502 48.3189 28.5325 48.291 28.5565 48.2579C28.5804 48.2247 28.5974 48.187 28.6062 48.1471C28.6151 48.1071 28.6157 48.0657 28.608 48.0256L28.048 45.1615C28.0295 45.0777 27.9801 45.0038 27.9098 44.9546C27.8394 44.9053 27.7531 44.8843 27.668 44.8956ZM26.441 47.7955L25.658 47.8956L25.582 46.9716C25.5014 46.9367 25.4303 46.883 25.3748 46.815C25.3193 46.7469 25.2809 46.6665 25.263 46.5806C25.2486 46.5139 25.2483 46.4449 25.2623 46.3782C25.2762 46.3114 25.304 46.2483 25.3439 46.1929C25.3838 46.1376 25.4348 46.0913 25.4938 46.0569C25.5527 46.0226 25.6182 46.001 25.686 45.9935C25.8252 45.9756 25.966 46.0106 26.0806 46.0915C26.1953 46.1724 26.2753 46.2934 26.305 46.4306C26.3219 46.5133 26.3166 46.599 26.2897 46.6791C26.2629 46.7592 26.2154 46.8307 26.152 46.8866L26.441 47.7955Z" fill="#407BFF"/>
<path d="M27.245 44.7392C27.1694 44.749 27.0928 44.7301 27.0304 44.6863C26.9681 44.6424 26.9244 44.5767 26.908 44.5022L26.853 44.2222C26.7748 43.8403 26.5607 43.4998 26.2505 43.2636C25.9403 43.0275 25.555 42.9119 25.166 42.9382C24.9697 42.9493 24.778 43.0026 24.6041 43.0943C24.4302 43.186 24.278 43.3142 24.158 43.47C24.038 43.6258 23.9529 43.8055 23.9086 43.9971C23.8642 44.1887 23.8617 44.3876 23.901 44.5802L23.964 44.9032C23.9713 44.939 23.9711 44.9759 23.9633 45.0116C23.9555 45.0473 23.9403 45.0809 23.9188 45.1104C23.8972 45.1399 23.8697 45.1645 23.8381 45.1827C23.8064 45.201 23.7713 45.2124 23.735 45.2162C23.6592 45.2272 23.582 45.2088 23.5194 45.1647C23.4567 45.1207 23.4133 45.0543 23.398 44.9792L23.345 44.7072C23.2912 44.453 23.2895 44.1904 23.3397 43.9354C23.39 43.6804 23.4914 43.4382 23.6376 43.2234C23.7839 43.0085 23.9721 42.8255 24.191 42.6852C24.4098 42.545 24.6547 42.4504 24.911 42.4073C25.4672 42.3138 26.038 42.4383 26.5047 42.7549C26.9715 43.0716 27.2982 43.5559 27.417 44.1072L27.48 44.4283C27.4873 44.4645 27.4869 44.5018 27.4788 44.5379C27.4706 44.574 27.4549 44.6079 27.4327 44.6375C27.4105 44.667 27.3823 44.6916 27.35 44.7094C27.3176 44.7273 27.2818 44.7382 27.245 44.7412V44.7392Z" fill="#407BFF"/>
<path d="M31.586 52.8662H20.042L19.966 50.5723H31.507L31.586 52.8662Z" fill="#407BFF"/>
<path d="M26.016 39.8725C26.0194 39.9562 26.0058 40.0396 25.976 40.1178C25.9462 40.196 25.9009 40.2674 25.8427 40.3276C25.7846 40.3878 25.7149 40.4355 25.6377 40.468C25.5606 40.5005 25.4777 40.517 25.394 40.5165C25.2213 40.5154 25.0556 40.4479 24.9313 40.328C24.8069 40.2082 24.7334 40.0451 24.726 39.8725C24.7226 39.7889 24.7362 39.7055 24.766 39.6273C24.7958 39.5491 24.8411 39.4777 24.8992 39.4175C24.9574 39.3573 25.0271 39.3095 25.1043 39.277C25.1814 39.2445 25.2643 39.2281 25.348 39.2285C25.5207 39.2294 25.6864 39.2968 25.8106 39.4168C25.9348 39.5367 26.0081 39.7 26.015 39.8725H26.016Z" fill="#263238"/>
<path d="M23.233 39.8725C23.2367 39.9562 23.2233 40.0398 23.1936 40.1181C23.1639 40.1965 23.1186 40.2679 23.0604 40.3282C23.0022 40.3885 22.9323 40.4362 22.8551 40.4686C22.7778 40.501 22.6948 40.5173 22.611 40.5165C22.4385 40.5154 22.273 40.4478 22.149 40.3279C22.025 40.208 21.9519 40.0449 21.945 39.8725C21.9416 39.7889 21.9552 39.7055 21.985 39.6273C22.0148 39.5491 22.0601 39.4777 22.1183 39.4175C22.1764 39.3573 22.2461 39.3095 22.3233 39.277C22.4004 39.2445 22.4833 39.2281 22.567 39.2285C22.7397 39.2292 22.9054 39.2966 23.0295 39.4166C23.1536 39.5366 23.2265 39.7 23.233 39.8725Z" fill="#263238"/>
<path d="M20.467 39.8725C20.4704 39.9562 20.4568 40.0396 20.427 40.1178C20.3972 40.196 20.3519 40.2674 20.2937 40.3276C20.2356 40.3878 20.1659 40.4355 20.0887 40.468C20.0116 40.5005 19.9287 40.517 19.845 40.5165C19.6723 40.5159 19.5066 40.4485 19.3825 40.3285C19.2584 40.2084 19.1855 40.0451 19.179 39.8725C19.1756 39.7889 19.1892 39.7055 19.219 39.6273C19.2488 39.5491 19.2941 39.4777 19.3523 39.4175C19.4104 39.3573 19.4802 39.3095 19.5573 39.277C19.6344 39.2445 19.7173 39.2281 19.801 39.2285C19.9737 39.2292 20.1394 39.2966 20.2635 39.4166C20.3876 39.5366 20.4606 39.7 20.467 39.8725Z" fill="#263238"/>
<path d="M28.793 39.8724C28.7964 39.956 28.7828 40.0395 28.753 40.1177C28.7232 40.1959 28.6779 40.2673 28.6197 40.3275C28.5616 40.3877 28.4919 40.4354 28.4147 40.4679C28.3376 40.5004 28.2547 40.5169 28.171 40.5164C27.9983 40.5158 27.8326 40.4484 27.7085 40.3284C27.5844 40.2083 27.5114 40.045 27.505 39.8724C27.5022 39.7891 27.5163 39.706 27.5464 39.6282C27.5766 39.5504 27.6222 39.4796 27.6805 39.42C27.7389 39.3603 27.8087 39.3131 27.8858 39.2812C27.9628 39.2493 28.0456 39.2334 28.129 39.2344C28.3003 39.2355 28.4647 39.3023 28.5882 39.421C28.7118 39.5397 28.7851 39.7013 28.793 39.8724Z" fill="#263238"/>
<path d="M31.564 39.8725C31.5677 39.9562 31.5542 40.0398 31.5246 40.1181C31.4949 40.1965 31.4496 40.2679 31.3914 40.3282C31.3332 40.3885 31.2633 40.4362 31.1861 40.4686C31.1088 40.501 31.0258 40.5173 30.942 40.5165C30.7695 40.5154 30.604 40.4478 30.48 40.3279C30.356 40.208 30.2829 40.0449 30.276 39.8725C30.2726 39.7889 30.2862 39.7055 30.316 39.6273C30.3458 39.5491 30.3911 39.4777 30.4493 39.4175C30.5074 39.3573 30.5771 39.3095 30.6543 39.277C30.7314 39.2445 30.8143 39.2281 30.898 39.2285C31.0707 39.2292 31.2364 39.2966 31.3605 39.4166C31.4846 39.5366 31.5575 39.7 31.564 39.8725Z" fill="#263238"/>
<path d="M54.926 22.6504C55.186 23.0694 55.404 23.4684 55.626 23.8854C55.848 24.3024 56.051 24.7214 56.248 25.1504C56.652 26.0185 56.9864 26.9173 57.248 27.8384C57.283 27.9534 57.309 28.0774 57.338 28.1964L57.381 28.3784L57.403 28.4684L57.428 28.6174C57.472 28.9549 57.4513 29.2977 57.367 29.6274C57.2317 30.1393 57.0261 30.63 56.756 31.0854C56.273 31.9133 55.6892 32.6782 55.018 33.3624L54.194 32.7404C54.6069 31.9799 54.9743 31.1955 55.294 30.3914C55.4367 30.0377 55.5374 29.6685 55.594 29.2914C55.6118 29.1762 55.6064 29.0585 55.578 28.9454L55.5 28.7064C55.469 28.6064 55.439 28.5064 55.4 28.4064C55.1021 27.5987 54.7576 26.8091 54.368 26.0414C53.976 25.2584 53.556 24.4754 53.135 23.7274L54.926 22.6504Z" fill="#FF8B7B"/>
<path d="M54.403 32.4688L53.503 32.9448L54.537 34.1548C54.7197 34.0283 54.8741 33.8652 54.9903 33.6758C55.1065 33.4864 55.182 33.2749 55.212 33.0548L54.403 32.4688Z" fill="#FF8B7B"/>
<path d="M52.295 33.6894L53.401 34.5684L54.536 34.1534L53.502 32.9434L52.295 33.6894Z" fill="#FF8B7B"/>
<path d="M48.513 16.2456C48.491 16.3556 48.413 16.4316 48.345 16.4176C48.277 16.4036 48.233 16.3027 48.255 16.1947C48.277 16.0867 48.355 15.9947 48.425 16.0227C48.495 16.0507 48.534 16.1366 48.513 16.2456Z" fill="#263238"/>
<path d="M48.426 16.4336C48.2288 16.7402 47.9902 17.0182 47.717 17.2596C47.7809 17.327 47.8588 17.3798 47.9451 17.4144C48.0314 17.4489 48.1241 17.4643 48.217 17.4596L48.426 16.4336Z" fill="#FF5652"/>
<path d="M48.073 20.2742V18.9902L49.773 19.1902C49.7642 19.4973 49.6672 19.7953 49.4936 20.0487C49.32 20.3021 49.0771 20.5001 48.794 20.6192L48.073 20.2742Z" fill="#FF8B7B"/>
<path d="M48.563 18.0664L49.763 18.4114L49.785 19.1964L48.085 18.9904L48.563 18.0664Z" fill="#FF8B7B"/>
<path opacity="0.2" d="M49.758 18.4075L48.558 18.0625L48.325 18.5085C48.3368 18.8599 48.4459 19.2011 48.6401 19.4942C48.8343 19.7872 49.106 20.0207 49.425 20.1685C49.6304 19.8813 49.7503 19.5419 49.771 19.1895L49.758 18.4075Z" fill="black"/>
<path d="M49.034 15.7233C49.0466 15.7228 49.0587 15.7189 49.0691 15.7119C49.0795 15.7049 49.0878 15.695 49.0929 15.6836C49.098 15.6721 49.0998 15.6595 49.098 15.647C49.0963 15.6346 49.0911 15.6229 49.083 15.6133C49.0142 15.5357 48.9278 15.4757 48.8311 15.4383C48.7344 15.4009 48.6301 15.3872 48.527 15.3983C48.5103 15.4012 48.4953 15.4106 48.4854 15.4245C48.4755 15.4383 48.4714 15.4555 48.474 15.4723C48.477 15.4892 48.4863 15.5043 48.5001 15.5145C48.5138 15.5248 48.531 15.5293 48.548 15.5273C48.6296 15.5193 48.7119 15.531 48.7881 15.5612C48.8643 15.5915 48.9321 15.6395 48.986 15.7013C48.9921 15.708 48.9995 15.7134 49.0078 15.7172C49.016 15.721 49.025 15.723 49.034 15.7233Z" fill="#263238"/>
<path d="M51.536 18.2266C51.336 19.2346 51.219 20.6266 51.928 21.3016C51.928 21.3016 51.654 22.3236 49.775 22.3236C47.718 22.3236 48.786 21.4236 48.786 21.4236C49.641 21.1576 49.634 20.1846 49.438 19.4016L51.536 18.2266Z" fill="#FF8B7B"/>
<path d="M52.309 21.9751C52.4003 21.7836 52.4461 21.5734 52.4426 21.3613C52.4391 21.1491 52.3866 20.9406 52.289 20.7521C51.974 20.5191 50.621 20.4641 48.803 20.8831C48.8702 21.0875 48.8848 21.3054 48.8455 21.5169C48.8061 21.7284 48.7142 21.9266 48.578 22.0931L52.309 21.9751Z" fill="#407BFF"/>
<path d="M58.428 68.4472C58.372 68.4668 58.3127 68.4752 58.2535 68.4718C58.1942 68.4683 58.1363 68.4531 58.083 68.4271C58.0628 68.4083 58.0489 68.3837 58.0434 68.3566C58.0378 68.3296 58.0408 68.3014 58.052 68.2761C58.0576 68.2542 58.0681 68.2339 58.0826 68.2166C58.0971 68.1993 58.1154 68.1855 58.136 68.1762C58.322 68.0862 58.749 68.2601 58.768 68.2681C58.7739 68.2704 58.7789 68.2743 58.7825 68.2795C58.7861 68.2847 58.788 68.2909 58.788 68.2972C58.7879 68.3034 58.7861 68.3096 58.783 68.315C58.7798 68.3204 58.7754 68.3249 58.77 68.3281C58.66 68.3785 58.5455 68.4183 58.428 68.4472ZM58.203 68.2262C58.1901 68.2293 58.1777 68.234 58.166 68.2402C58.1537 68.2446 58.1427 68.2519 58.1338 68.2615C58.1249 68.2711 58.1185 68.2826 58.115 68.2952C58.097 68.3542 58.115 68.3731 58.127 68.3791C58.201 68.4421 58.475 68.3791 58.669 68.3071C58.5216 68.2459 58.3624 68.2182 58.203 68.2262Z" fill="#407BFF"/>
<path d="M58.763 68.3388H58.744C58.587 68.2938 58.255 68.0568 58.251 67.9018C58.2508 67.8772 58.2591 67.8533 58.2744 67.834C58.2896 67.8147 58.311 67.8012 58.335 67.7958C58.3582 67.7871 58.3831 67.7837 58.4078 67.7857C58.4326 67.7878 58.4565 67.7953 58.478 67.8078C58.662 67.9018 58.778 68.2818 58.783 68.2988C58.7857 68.3035 58.7871 68.3088 58.7871 68.3143C58.7871 68.3197 58.7857 68.3251 58.783 68.3298C58.7805 68.3326 58.7774 68.3349 58.774 68.3364C58.7705 68.338 58.7668 68.3388 58.763 68.3388ZM58.372 67.8518H58.356C58.317 67.8658 58.317 67.8848 58.317 67.8948C58.317 67.9868 58.54 68.1728 58.708 68.2468C58.6641 68.0949 58.5768 67.959 58.457 67.8558C58.43 67.845 58.3999 67.845 58.373 67.8558L58.372 67.8518Z" fill="#407BFF"/>
<path d="M48.261 68.68C48.085 68.68 47.915 68.655 47.861 68.58C47.8461 68.5591 47.8381 68.5341 47.8381 68.5085C47.8381 68.4828 47.8461 68.4578 47.861 68.437C47.8718 68.4183 47.8862 68.4019 47.9034 68.3889C47.9205 68.3758 47.9401 68.3663 47.961 68.361C48.19 68.298 48.672 68.572 48.691 68.584C48.6971 68.5868 48.702 68.5916 48.7049 68.5976C48.7078 68.6036 48.7085 68.6105 48.707 68.617C48.7063 68.6236 48.7034 68.6297 48.6989 68.6346C48.6944 68.6394 48.6885 68.6427 48.682 68.644C48.543 68.6684 48.4021 68.6804 48.261 68.68ZM48.044 68.412C48.0231 68.4086 48.0019 68.4086 47.981 68.412C47.9677 68.4146 47.9551 68.42 47.9439 68.4278C47.9327 68.4355 47.9232 68.4454 47.916 68.457C47.893 68.498 47.902 68.518 47.916 68.529C47.981 68.619 48.327 68.621 48.583 68.584C48.4157 68.4926 48.2324 68.4342 48.043 68.412H48.044Z" fill="#407BFF"/>
<path d="M48.68 68.6401H48.666C48.5 68.5661 48.166 68.2681 48.196 68.1111C48.196 68.0741 48.227 68.0291 48.317 68.0211C48.3492 68.0174 48.3818 68.0203 48.4128 68.0298C48.4437 68.0393 48.4724 68.055 48.497 68.0761C48.6222 68.226 48.6974 68.4113 48.712 68.6061C48.7119 68.6116 48.7105 68.6171 48.7081 68.6221C48.7057 68.6271 48.7023 68.6315 48.698 68.6351C48.6925 68.6383 48.6863 68.64 48.68 68.6401ZM48.343 68.0821H48.323C48.264 68.0821 48.26 68.1091 48.26 68.1171C48.244 68.2111 48.467 68.4461 48.638 68.5481C48.6231 68.3909 48.5595 68.2423 48.456 68.1231C48.4237 68.0956 48.3824 68.081 48.34 68.0821H48.343Z" fill="#407BFF"/>
<path d="M50.188 68.6089H48.812L48.675 65.4199H50.051L50.188 68.6089Z" fill="#FF8B7B"/>
<path d="M60.297 67.97L58.952 68.262L57.599 65.292L58.946 65L60.297 67.97Z" fill="#FF8B7B"/>
<path d="M58.822 68.1265L60.335 67.7995C60.3615 67.7938 60.3891 67.7974 60.4133 67.8096C60.4374 67.8218 60.4567 67.8418 60.468 67.8665L60.993 69.0055C61.006 69.0332 61.0126 69.0635 61.012 69.0942C61.0115 69.1248 61.0039 69.1549 60.9899 69.1822C60.9759 69.2094 60.9558 69.2331 60.9312 69.2513C60.9066 69.2696 60.8781 69.282 60.848 69.2875C60.319 69.3875 60.055 69.4165 59.392 69.5595C58.983 69.6495 58.059 69.8745 57.492 69.9965C56.925 70.1185 56.733 69.5755 56.954 69.4755C57.6112 69.2292 58.1882 68.8072 58.622 68.2555C58.6706 68.1894 58.7418 68.1435 58.822 68.1265Z" fill="#263238"/>
<path d="M48.825 68.4473H50.325C50.3522 68.4475 50.3786 68.4569 50.3998 68.4739C50.4211 68.491 50.4359 68.5147 50.442 68.5413L50.714 69.7643C50.7212 69.7942 50.7215 69.8253 50.7147 69.8553C50.708 69.8853 50.6944 69.9133 50.6751 69.9372C50.6557 69.9611 50.6311 69.9802 50.6032 69.9931C50.5753 70.0059 50.5447 70.0121 50.514 70.0113C49.972 70.0013 49.189 69.9703 48.508 69.9703C47.708 69.9703 47.022 70.0133 46.087 70.0133C45.521 70.0133 45.365 69.4413 45.602 69.3893C46.6071 69.2895 47.5855 69.0068 48.489 68.5553C48.5887 68.4885 48.7051 68.4511 48.825 68.4473Z" fill="#263238"/>
<path d="M54.39 21.618C55.68 21.918 56.739 25.208 56.739 25.208L54.161 27.179C53.4919 26.4634 53.0199 25.5865 52.791 24.634C52.334 22.908 53.07 21.312 54.39 21.618Z" fill="#407BFF"/>
<path opacity="0.4" d="M54.39 21.618C55.68 21.918 56.739 25.208 56.739 25.208L54.161 27.179C53.4919 26.4634 53.0199 25.5865 52.791 24.634C52.334 22.908 53.07 21.312 54.39 21.618Z" fill="black"/>
<path d="M47.603 25.5473C47.282 25.8933 46.961 26.2033 46.624 26.5263C46.458 26.6833 46.289 26.8393 46.117 26.9903L45.857 27.2193L45.792 27.2763L45.68 27.3663C45.5651 27.458 45.4379 27.5331 45.302 27.5893C45.1509 27.6542 44.9884 27.6882 44.824 27.6893C44.6838 27.69 44.5446 27.6656 44.413 27.6173C44.2669 27.5617 44.1335 27.477 44.021 27.3683C43.8778 27.2281 43.7728 27.0536 43.716 26.8613C43.6862 26.7664 43.6671 26.6685 43.659 26.5693C43.6488 26.4535 43.6488 26.3371 43.659 26.2213C43.669 26.1273 43.681 26.0453 43.696 25.9683C43.7496 25.7014 43.8255 25.4395 43.923 25.1853C44.0099 24.9437 44.1101 24.707 44.223 24.4763C44.348 24.2273 44.468 24.0453 44.587 23.8383C45.072 23.0439 45.6254 22.2934 46.241 21.5953C46.8504 20.9022 47.5219 20.2662 48.247 19.6953L48.967 20.4373C48.462 21.1143 47.967 21.8373 47.505 22.5553C47.0472 23.265 46.6289 23.9995 46.252 24.7553C46.168 24.9393 46.052 25.1463 46.003 25.2953C45.933 25.4683 45.8723 25.6449 45.821 25.8243C45.7716 25.9857 45.7341 26.1504 45.709 26.3173C45.7077 26.3433 45.7077 26.3693 45.709 26.3953V26.3773C45.7059 26.3335 45.6975 26.2901 45.684 26.2483C45.6417 26.1096 45.5642 25.9842 45.459 25.8843C45.3658 25.7968 45.2559 25.7288 45.136 25.6843C45.0309 25.6444 44.9195 25.6237 44.807 25.6233C44.699 25.6222 44.5918 25.6429 44.492 25.6843C44.4575 25.698 44.424 25.7144 44.392 25.7333L44.466 25.6643L44.703 25.4493L45.171 25.0113C45.48 24.7193 45.792 24.4113 46.085 24.1183L47.603 25.5473Z" fill="#FF8B7B"/>
<path opacity="0.2" d="M53.284 24.0371C53.9553 24.9104 54.3014 25.9903 54.263 27.0911L54.149 27.1791C53.4799 26.4636 53.0078 25.5867 52.779 24.6341C52.754 24.5341 52.73 24.4341 52.712 24.3271L53.284 24.0371Z" fill="black"/>
<path d="M46.235 22.9878C45.953 24.4758 45.777 27.5308 46.593 33.5798H53.965C54.016 32.4508 53.305 26.9338 54.396 21.6078C53.5815 21.4515 52.7578 21.3476 51.93 21.2968C50.8868 21.237 49.8411 21.237 48.798 21.2968C48.453 21.3278 48.113 21.3788 47.819 21.4318C47.4284 21.5002 47.0678 21.6856 46.7849 21.9634C46.5021 22.2413 46.3103 22.5985 46.235 22.9878Z" fill="#407BFF"/>
<path opacity="0.4" d="M46.235 22.9878C45.953 24.4758 45.777 27.5308 46.593 33.5798H53.965C54.016 32.4508 53.305 26.9338 54.396 21.6078C53.5815 21.4515 52.7578 21.3476 51.93 21.2968C50.8868 21.237 49.8411 21.237 48.798 21.2968C48.453 21.3278 48.113 21.3788 47.819 21.4318C47.4284 21.5002 47.0678 21.6856 46.7849 21.9634C46.5021 22.2413 46.3103 22.5985 46.235 22.9878Z" fill="black"/>
<path opacity="0.2" d="M47.362 25.194L46.031 24.875C45.99 25.681 45.986 26.675 46.045 27.915C46.7967 27.1957 47.2642 26.2298 47.362 25.194Z" fill="black"/>
<path opacity="0.2" d="M48.678 65.4199L48.748 67.0639H50.126L50.056 65.4199H48.678Z" fill="black"/>
<path opacity="0.2" d="M58.947 65L57.6 65.292L58.3 66.823L59.647 66.531L58.947 65Z" fill="black"/>
<path d="M52.189 16.7564C51.837 18.0754 51.696 18.8664 50.881 19.4144C50.6088 19.5934 50.2931 19.6952 49.9677 19.7089C49.6422 19.7226 49.319 19.6477 49.0328 19.4922C48.7465 19.3367 48.5078 19.1064 48.3421 18.8259C48.1765 18.5454 48.09 18.2252 48.092 17.8994C48.049 16.6404 48.634 14.6934 50.049 14.4264C50.36 14.3681 50.6807 14.39 50.9809 14.4898C51.2811 14.5897 51.551 14.7644 51.765 14.9974C51.9791 15.2303 52.1304 15.514 52.2045 15.8215C52.2787 16.1291 52.2734 16.4505 52.189 16.7554V16.7564Z" fill="#FF8B7B"/>
<path d="M49.101 16.8049C49.034 16.6289 48.731 15.2639 49.017 14.9099C49.303 14.5559 52.562 14.8099 53.044 15.2859C53.844 16.0689 53.289 16.7739 52.414 17.6799C51.756 18.3609 51.731 19.1289 51.398 19.2459C50.811 19.4459 49.914 19.2579 49.734 18.6369C49.554 18.0159 49.101 16.8049 49.101 16.8049Z" fill="#263238"/>
<path d="M52.647 13.7329C51.496 13.2439 49.337 13.7859 48.17 13.5039C48.1558 13.9376 48.2988 14.3618 48.5726 14.6984C48.8464 15.035 49.2326 15.2614 49.66 15.3359C50.6277 15.5203 51.6109 15.6114 52.596 15.6079C53.875 15.5539 53.626 14.1539 52.647 13.7329Z" fill="#263238"/>
<path d="M52.828 15.3228C53.2486 15.3643 53.6723 15.2834 54.048 15.0898C54.263 15.6138 53.079 15.7568 52.828 15.3228Z" fill="#263238"/>
<path d="M49.727 16.859C49.7004 17.1985 49.5627 17.5198 49.335 17.773C49.035 18.104 48.72 17.896 48.667 17.495C48.62 17.131 48.718 16.516 49.086 16.34C49.454 16.164 49.752 16.45 49.727 16.859Z" fill="#FF8B7B"/>
<path d="M49.206 33.5859C49.206 33.5859 50.772 44.1069 51.627 48.0499C52.565 52.3659 57.603 66.6499 57.603 66.6499L60.067 66.1159C60.067 66.1159 56.544 54.4769 55.761 48.4419C55.154 43.8069 53.961 33.5869 53.961 33.5869L49.206 33.5859Z" fill="#407BFF"/>
<path d="M57.012 65.8242C57.002 65.8242 57.472 66.7172 57.472 66.7172L60.244 66.1172L60.011 65.2832L57.012 65.8242Z" fill="#263238"/>
<path opacity="0.3" d="M50.195 37.334C52.002 37.688 51.81 44.426 51.595 47.893C51.074 45.442 50.311 40.729 49.795 37.383C49.9191 37.3223 50.0599 37.3051 50.195 37.334Z" fill="black"/>
<path d="M46.593 33.5861C46.593 33.5861 46.393 43.8801 46.554 48.0711C46.711 52.4381 48.235 66.7381 48.235 66.7381H50.568C50.568 66.7381 50.652 52.6931 50.768 48.4041C50.882 43.7301 51.445 33.5781 51.445 33.5781L46.593 33.5861Z" fill="#407BFF"/>
<path d="M47.787 65.8184C47.775 65.8184 47.918 66.7854 47.918 66.7854H50.75L50.828 65.9224L47.787 65.8184Z" fill="#263238"/>
<path d="M49.12 23.4459C49.78 25.2249 45.902 27.3219 45.902 27.3219L44.222 25.1689C44.8433 23.9401 45.6916 22.8401 46.722 21.9269C48.415 20.6859 48.617 22.0909 49.12 23.4459Z" fill="#407BFF"/>
<path opacity="0.4" d="M49.12 23.4459C49.78 25.2249 45.902 27.3219 45.902 27.3219L44.222 25.1689C44.8433 23.9401 45.6916 22.8401 46.722 21.9269C48.415 20.6859 48.617 22.0909 49.12 23.4459Z" fill="black"/>
<path d="M64.315 9.93759C68.2169 9.93759 71.38 7.92198 71.38 5.43559C71.38 2.94921 68.2169 0.933594 64.315 0.933594C60.4131 0.933594 57.25 2.94921 57.25 5.43559C57.25 7.92198 60.4131 9.93759 64.315 9.93759Z" fill="#407BFF"/>
<path d="M61.766 7.70266C61.3007 7.70122 60.8507 7.53582 60.4951 7.23553C60.1396 6.93523 59.9013 6.51924 59.822 6.06065C59.744 5.56391 59.856 5.05602 60.1357 4.63813C60.4153 4.22024 60.8421 3.92301 61.331 3.80566C61.7323 3.71319 62.1524 3.74884 62.5323 3.90759C62.9123 4.06634 63.2328 4.34021 63.449 4.69066L67.984 3.75465C68.1583 3.71655 68.3405 3.74551 68.4943 3.83578C68.6481 3.92604 68.7623 4.07096 68.814 4.24165C68.8378 4.33151 68.8431 4.42528 68.8294 4.51722C68.8157 4.60916 68.7833 4.69733 68.7344 4.77634C68.6854 4.85536 68.6208 4.92354 68.5446 4.97673C68.4684 5.02992 68.3821 5.06698 68.291 5.08565L68.174 5.10866C68.1566 5.11189 68.1402 5.11906 68.126 5.12964C68.1117 5.14021 68.1001 5.1539 68.092 5.16965C68.085 5.18539 68.0814 5.20243 68.0814 5.21966C68.0814 5.23688 68.085 5.25391 68.092 5.26965L68.172 5.47665C68.1991 5.54389 68.2018 5.61845 68.1797 5.68747C68.1576 5.75648 68.1121 5.81562 68.051 5.85466C68.003 5.88442 67.9623 5.92474 67.9321 5.97256C67.902 6.02039 67.8832 6.07445 67.877 6.13065C67.8713 6.1952 67.8453 6.25628 67.8027 6.30514C67.7601 6.354 67.7032 6.38813 67.64 6.40266L67.548 6.42265C67.4842 6.43447 67.4183 6.42563 67.3598 6.39739C67.3014 6.36915 67.2534 6.323 67.223 6.26565C67.1823 6.1974 67.1214 6.14354 67.0486 6.11156C66.9759 6.07959 66.895 6.0711 66.8172 6.08728C66.7394 6.10346 66.6686 6.14349 66.6146 6.20181C66.5606 6.26013 66.5261 6.33384 66.516 6.41266C66.5111 6.47694 66.4855 6.53791 66.4432 6.58655C66.4009 6.63518 66.344 6.66888 66.281 6.68265L66.189 6.70266C66.1252 6.71416 66.0594 6.70517 66.001 6.67696C65.9426 6.64876 65.8947 6.60279 65.864 6.54565C65.8347 6.49714 65.7952 6.45557 65.7482 6.4238C65.7013 6.39204 65.648 6.37083 65.592 6.36165C65.5168 6.35264 65.4474 6.31647 65.397 6.25995C65.3465 6.20342 65.3185 6.13042 65.318 6.05466V5.83166C65.3174 5.81412 65.3129 5.79694 65.3049 5.78131C65.2969 5.76568 65.2857 5.75196 65.2719 5.74111C65.2581 5.73027 65.2421 5.72255 65.225 5.7185C65.208 5.71445 65.1902 5.71416 65.173 5.71766L63.726 6.01765C63.667 6.41835 63.486 6.79114 63.2076 7.0853C62.9292 7.37945 62.5669 7.5807 62.17 7.66166C62.0371 7.68881 61.9017 7.70255 61.766 7.70266ZM61.375 3.98366C60.9307 4.08681 60.5421 4.35481 60.2878 4.7335C60.0334 5.11219 59.9324 5.57332 60.005 6.02366C60.0818 6.44251 60.3059 6.82007 60.6369 7.08803C60.9678 7.35598 61.3837 7.49664 61.8094 7.48456C62.2351 7.47247 62.6424 7.30845 62.9576 7.02215C63.2728 6.73586 63.4752 6.3462 63.528 5.92366V5.85366L65.128 5.53065C65.174 5.51961 65.2218 5.51897 65.268 5.52878C65.3142 5.5386 65.3576 5.55861 65.3951 5.58737C65.4326 5.61613 65.4632 5.6529 65.4846 5.69499C65.506 5.73708 65.5178 5.78343 65.519 5.83066V6.05366C65.5195 6.08028 65.529 6.10594 65.5462 6.12633C65.5633 6.14673 65.5869 6.16061 65.613 6.16566C65.6986 6.17795 65.7802 6.20955 65.8518 6.25806C65.9233 6.30657 65.9829 6.37072 66.026 6.44565C66.0363 6.46681 66.0529 6.48425 66.0735 6.49554C66.0941 6.50683 66.1177 6.51142 66.141 6.50866L66.231 6.48865C66.2535 6.48278 66.2736 6.46994 66.2883 6.45198C66.303 6.43402 66.3117 6.41185 66.313 6.38866C66.325 6.26651 66.3756 6.15135 66.4574 6.05991C66.5393 5.96848 66.6482 5.90554 66.7683 5.88022C66.8884 5.85491 67.0134 5.86855 67.1252 5.91917C67.237 5.96978 67.3298 6.05472 67.39 6.16166C67.4001 6.18273 67.4165 6.20014 67.4369 6.21143C67.4574 6.22273 67.4808 6.22735 67.504 6.22465L67.598 6.20466C67.6201 6.19843 67.6397 6.18543 67.6541 6.16749C67.6684 6.14956 67.6768 6.12759 67.678 6.10466C67.6877 6.01871 67.7169 5.9361 67.7633 5.86314C67.8098 5.79018 67.8723 5.72879 67.946 5.68365C67.9676 5.66812 67.9834 5.64579 67.9909 5.62023C67.9983 5.59467 67.9969 5.56736 67.987 5.54265L67.907 5.33565C67.8904 5.29287 67.8833 5.24696 67.8862 5.20114C67.8892 5.15532 67.9021 5.11071 67.9241 5.07041C67.9461 5.03011 67.9767 4.99511 68.0136 4.96786C68.0506 4.94061 68.093 4.92177 68.138 4.91266L68.257 4.88766C68.3216 4.87392 68.3827 4.84731 68.4368 4.80942C68.4908 4.77153 68.5366 4.72314 68.5715 4.66714C68.6065 4.61113 68.6297 4.54865 68.6399 4.48345C68.6502 4.41825 68.6471 4.35166 68.631 4.28766C68.5927 4.16518 68.5098 4.0616 68.3986 3.9975C68.2874 3.93339 68.1562 3.91346 68.031 3.94166L63.368 4.91066L63.333 4.84965C63.1457 4.51606 62.8549 4.25249 62.5046 4.09878C62.1542 3.94508 61.7633 3.90958 61.391 3.99766L61.375 3.98366ZM61.766 6.97465C61.4591 6.96134 61.1689 6.83082 60.9554 6.60996C60.7418 6.3891 60.6211 6.09474 60.6181 5.78753C60.615 5.48031 60.73 5.18364 60.9392 4.95865C61.1484 4.73365 61.4359 4.59747 61.7426 4.57815C62.0492 4.55884 62.3515 4.65787 62.5873 4.85483C62.8231 5.0518 62.9744 5.33169 63.0099 5.63685C63.0455 5.94202 62.9627 6.2492 62.7785 6.49512C62.5943 6.74103 62.3229 6.90693 62.02 6.95865C61.9366 6.97391 61.8518 6.98061 61.767 6.97866L61.766 6.97465ZM61.766 4.66266C61.6932 4.66325 61.6205 4.67061 61.549 4.68465C61.4101 4.7111 61.2779 4.76502 61.1602 4.84325C61.0424 4.92147 60.9414 5.02241 60.8632 5.14017C60.7849 5.25793 60.731 5.39013 60.7045 5.52901C60.678 5.6679 60.6795 5.81067 60.709 5.94896C60.7384 6.08725 60.7951 6.21827 60.8759 6.33433C60.9566 6.4504 61.0597 6.54918 61.1791 6.62488C61.2985 6.70057 61.4319 6.75166 61.5713 6.77515C61.7107 6.79863 61.8534 6.79405 61.991 6.76166C62.1957 6.71898 62.3831 6.6167 62.5297 6.46769C62.6763 6.31868 62.7756 6.12961 62.8149 5.9243C62.8543 5.71899 62.832 5.50663 62.7508 5.31397C62.6697 5.12131 62.5334 4.95697 62.359 4.84166C62.1858 4.72651 61.982 4.6659 61.774 4.66765L61.766 4.66266Z" fill="white"/>
<path opacity="0.6" d="M58.565 12.5791C59.8474 12.5791 60.887 11.9165 60.887 11.0991C60.887 10.2818 59.8474 9.61914 58.565 9.61914C57.2826 9.61914 56.243 10.2818 56.243 11.0991C56.243 11.9165 57.2826 12.5791 58.565 12.5791Z" fill="#407BFF"/>
<path opacity="0.3" d="M54.871 13.1847C55.3973 13.1847 55.824 12.9129 55.824 12.5777C55.824 12.2425 55.3973 11.9707 54.871 11.9707C54.3447 11.9707 53.918 12.2425 53.918 12.5777C53.918 12.9129 54.3447 13.1847 54.871 13.1847Z" fill="#407BFF"/>
</svg>
