<svg width="140" height="140" viewBox="0 0 140 140" fill="none" xmlns="http://www.w3.org/2000/svg">
<path d="M20.5018 129.476C47.8395 143.505 92.1605 143.509 119.498 129.476C146.836 115.442 146.832 92.6979 119.498 78.6685C92.1645 64.6391 47.8395 64.6391 20.5018 78.6685C-6.83591 92.6979 -6.83194 115.446 20.5018 129.476Z" fill="#F5F5F5"/>
<path d="M119.405 119.109C124.44 119.109 128.521 117.014 128.521 114.431C128.521 111.847 124.44 109.753 119.405 109.753C114.37 109.753 110.288 111.847 110.288 114.431C110.288 117.014 114.37 119.109 119.405 119.109Z" fill="#EBEBEB"/>
<path d="M18.4287 115.099L21.654 113.096C23.4548 111.513 24.8254 109.437 25.6212 107.085C26.6169 104.129 26.4781 101.882 25.764 100.754C24.8872 99.3655 22.6141 99.6091 22.5228 102.531C22.3324 108.29 20.7733 112.284 18.4287 115.099Z" fill="#9269AD"/>
<path opacity="0.2" d="M18.4287 115.099L21.654 113.096C23.4548 111.513 24.8254 109.437 25.6212 107.085C26.6169 104.129 26.4781 101.882 25.764 100.754C24.8872 99.3655 22.6141 99.6091 22.5228 102.531C22.3324 108.29 20.7733 112.284 18.4287 115.099Z" fill="black"/>
<path d="M18.4279 115.313C18.3859 115.312 18.3451 115.297 18.3115 115.27C18.2778 115.243 18.2531 115.205 18.2407 115.162C18.2284 115.119 18.2291 115.072 18.2427 115.03C18.2564 114.987 18.2823 114.95 18.3168 114.924C25.775 109.37 24.331 101.625 24.3151 101.548C24.3096 101.52 24.3094 101.491 24.3143 101.463C24.3192 101.435 24.3292 101.408 24.3438 101.384C24.3583 101.36 24.3771 101.339 24.3991 101.323C24.4211 101.307 24.4458 101.296 24.4718 101.29C24.4979 101.284 24.5247 101.284 24.5509 101.289C24.5771 101.294 24.602 101.305 24.6243 101.321C24.6466 101.336 24.6658 101.357 24.6808 101.38C24.6958 101.404 24.7064 101.431 24.7118 101.459C24.7118 101.54 26.2352 109.55 18.5548 115.274C18.5175 115.302 18.4729 115.315 18.4279 115.313V115.313Z" fill="white"/>
<path d="M11.9655 119.12C11.9655 119.12 10.8428 118.137 11.1126 116.805C11.3823 115.472 12.1083 114.515 10.8666 112.797C9.62487 111.08 9.27973 108.79 10.7634 107.551C11.8941 106.59 13.6595 107.949 14.2942 105.415C14.7623 103.561 14.6037 99.4559 16.7975 98.0888C18.9913 96.7218 20.3679 98.7809 20.0228 101.566C19.7213 104.057 19.2928 106.453 19.6261 107.12C20.2688 108.402 21.3677 108.226 21.3161 110.567C21.2724 112.746 19.3563 114.549 19.3563 114.549L11.9655 119.12Z" fill="#9269AD"/>
<path d="M15.6499 117.031C15.6014 117.031 15.5547 117.011 15.5183 116.977C15.4819 116.942 15.4582 116.895 15.4515 116.843C14.8842 111.781 16.245 103.04 17.3558 100.443C17.3651 100.414 17.3801 100.388 17.3997 100.366C17.4193 100.344 17.443 100.326 17.4693 100.315C17.4957 100.304 17.5239 100.299 17.5522 100.3C17.5805 100.301 17.6082 100.309 17.6335 100.323C17.6571 100.335 17.6784 100.351 17.6961 100.372C17.7138 100.392 17.7275 100.416 17.7363 100.443C17.7452 100.469 17.7491 100.497 17.7478 100.525C17.7465 100.553 17.74 100.58 17.7287 100.605C16.6298 103.168 15.3166 111.935 15.8601 116.775C15.8657 116.831 15.8505 116.887 15.8178 116.931C15.7851 116.975 15.7376 117.003 15.6856 117.01L15.6499 117.031Z" fill="white"/>
<path d="M15.5439 113.087C15.5135 113.089 15.4833 113.082 15.4566 113.066C14.08 112.344 13.2072 109.768 13.1715 109.648C13.1618 109.622 13.1571 109.593 13.1578 109.565C13.1584 109.536 13.1644 109.508 13.1753 109.482C13.1862 109.456 13.2019 109.433 13.2213 109.413C13.2408 109.394 13.2637 109.379 13.2886 109.369C13.3135 109.359 13.34 109.355 13.3665 109.357C13.393 109.358 13.4189 109.365 13.4428 109.378C13.4666 109.39 13.4879 109.408 13.5054 109.429C13.5228 109.451 13.5361 109.476 13.5444 109.503C13.5444 109.529 14.3974 112.024 15.6312 112.669C15.6716 112.69 15.7042 112.725 15.7236 112.769C15.743 112.812 15.7481 112.862 15.7379 112.909C15.7278 112.956 15.7031 112.998 15.6678 113.028C15.6325 113.058 15.5889 113.075 15.5439 113.075V113.087Z" fill="white"/>
<path d="M15.5199 114.797C15.4802 114.797 15.4414 114.784 15.4087 114.759C15.3761 114.735 15.3512 114.7 15.3374 114.66C15.3177 114.608 15.3179 114.549 15.3379 114.497C15.358 114.445 15.3963 114.404 15.4445 114.382C17.7614 113.383 19.2054 110.414 19.2213 110.379C19.2455 110.329 19.2873 110.291 19.3375 110.274C19.3877 110.257 19.4422 110.262 19.4891 110.288C19.5359 110.314 19.5712 110.359 19.5872 110.413C19.6032 110.467 19.5986 110.526 19.5744 110.576C19.5109 110.704 18.047 113.72 15.6072 114.78C15.58 114.793 15.5499 114.799 15.5199 114.797V114.797Z" fill="white"/>
<path d="M96.5016 91.8133C96.5016 91.8133 94.768 88.7887 94.5974 85.5035C94.4268 82.2183 95.0973 80.8512 96.0176 80.4582C96.938 80.0652 97.0094 81.2741 97.4815 81.9876C97.9536 82.701 98.9177 82.2952 99.2747 80.0694C99.6317 77.8437 100.933 74.0886 103.639 73.3581C106.614 72.5635 105.019 76.3229 104.269 77.7882C103.52 79.2535 102.94 81.2528 103.432 81.7953C103.924 82.3379 104.69 81.334 105.416 82.2653C106.301 83.3888 103.551 87.4344 101.972 88.4127L96.5016 91.8133Z" fill="#9269AD"/>
<path d="M98.8791 90.5431C98.853 90.542 98.8274 90.5353 98.8037 90.5236C98.7801 90.5118 98.7588 90.4951 98.7411 90.4745C98.7234 90.4539 98.7097 90.4297 98.7007 90.4033C98.6917 90.377 98.6876 90.349 98.6886 90.3209C98.9573 85.0362 100.488 79.9156 103.132 75.4542C103.147 75.431 103.166 75.4113 103.188 75.3962C103.211 75.3812 103.235 75.3712 103.261 75.3668C103.287 75.3624 103.314 75.3637 103.339 75.3707C103.365 75.3776 103.389 75.3901 103.41 75.4072C103.451 75.4405 103.479 75.49 103.487 75.5451C103.495 75.6001 103.483 75.6565 103.453 75.702C100.856 80.0981 99.3535 85.1399 99.0893 90.3423C99.0878 90.3703 99.0812 90.3978 99.0698 90.4231C99.0584 90.4484 99.0424 90.471 99.0229 90.4897C99.0034 90.5083 98.9806 90.5227 98.9559 90.5318C98.9313 90.541 98.9051 90.5448 98.8791 90.5431Z" fill="white"/>
<path d="M99.1046 88.019C99.0715 88.0186 99.0388 88.0099 99.0094 87.9933C97.8986 87.3312 97.2837 85.366 97.2599 85.2849C97.2511 85.2582 97.2474 85.23 97.2488 85.2018C97.2503 85.1736 97.2569 85.146 97.2684 85.1205C97.2798 85.0951 97.2958 85.0724 97.3155 85.0536C97.3351 85.0349 97.358 85.0206 97.3829 85.0115C97.4329 84.9939 97.4873 84.9985 97.5341 85.0241C97.581 85.0498 97.6165 85.0944 97.6328 85.1482C97.6328 85.1482 98.2279 87.0407 99.2197 87.6174C99.2646 87.646 99.2975 87.6922 99.3116 87.7463C99.3256 87.8005 99.3197 87.8584 99.2951 87.9079C99.2771 87.9447 99.2494 87.9749 99.2155 87.9946C99.1816 88.0144 99.143 88.0229 99.1046 88.019Z" fill="white"/>
<path d="M99.2988 86.7261C99.2548 86.7256 99.2122 86.7093 99.1778 86.6799C99.1433 86.6506 99.1189 86.6097 99.1083 86.5637C99.1018 86.5368 99.1004 86.5087 99.104 86.4812C99.1077 86.4536 99.1165 86.4271 99.1298 86.4033C99.1431 86.3794 99.1606 86.3586 99.1815 86.3422C99.2023 86.3257 99.226 86.3139 99.2512 86.3074C102.115 85.5256 103.107 83.9108 103.115 83.8937C103.129 83.8699 103.148 83.8492 103.169 83.833C103.19 83.8168 103.215 83.8053 103.24 83.7991C103.266 83.793 103.292 83.7923 103.318 83.7972C103.344 83.802 103.369 83.8123 103.391 83.8275C103.413 83.8426 103.432 83.8623 103.447 83.8855C103.462 83.9086 103.473 83.9347 103.479 83.9622C103.484 83.9898 103.485 84.0183 103.481 84.0461C103.476 84.074 103.466 84.1005 103.452 84.1244C103.409 84.197 102.377 85.893 99.3503 86.7218L99.2988 86.7261Z" fill="white"/>
<path d="M53.3396 85.1743C53.3396 85.1743 49.5351 84.1746 49.3367 76.502C49.1264 68.2228 50.269 58.5595 45.7663 57.7777C41.2635 56.9959 38.7642 62.9041 38.8198 69.8035C38.8713 75.8441 41.1326 88.9593 53.3237 91.5311L53.3396 85.1743Z" fill="#9269AD"/>
<path opacity="0.2" d="M53.3396 85.1743C53.3396 85.1743 49.5351 84.1746 49.3367 76.502C49.1264 68.2228 50.269 58.5595 45.7663 57.7777C41.2635 56.9959 38.7642 62.9041 38.8198 69.8035C38.8713 75.8441 41.1326 88.9593 53.3237 91.5311L53.3396 85.1743Z" fill="black"/>
<path d="M53.3388 90.7463H53.3031C50.5617 90.208 48.3282 88.5804 46.666 85.9146C41.7388 77.9985 43.2899 63.2173 43.8017 60.637C43.8131 60.582 43.8439 60.534 43.8876 60.5029C43.9312 60.4719 43.9843 60.4602 44.0358 60.4704C44.0871 60.4837 44.1318 60.5177 44.1606 60.5653C44.1894 60.613 44.2001 60.6708 44.1905 60.7267C43.6866 63.2899 42.1434 77.8832 46.9953 85.6754C47.7015 86.8838 48.6333 87.921 49.7314 88.7211C50.8295 89.5212 52.0701 90.0668 53.3745 90.3234C53.4003 90.3285 53.425 90.3391 53.4471 90.3546C53.4691 90.3701 53.4881 90.3901 53.5028 90.4136C53.5176 90.4371 53.5279 90.4634 53.5331 90.4912C53.5383 90.519 53.5383 90.5476 53.5331 90.5754C53.5247 90.624 53.5006 90.6679 53.465 90.6992C53.4294 90.7304 53.3847 90.7471 53.3388 90.7463V90.7463Z" fill="white"/>
<path d="M53.3379 110.434C49.4065 111.007 43.0233 110.998 39.3378 107.871C35.6523 104.744 36.422 102.052 37.8382 100.929C39.2545 99.8053 40.4843 98.5237 38.0485 96.0288C35.6127 93.5339 31.7011 89.5268 30.4316 83.516C29.1621 77.5053 29.7889 73.7459 32.2803 72.4942C34.6963 71.2809 35.335 73.2119 36.8147 77.1934C38.2945 81.1749 41.6229 77.7616 44.4713 79.0047C47.3198 80.2479 47.2047 82.7086 47.3832 84.8232C47.5618 86.9379 48.502 87.5232 50.1166 87.5232C51.7312 87.5232 53.3379 88.5228 53.3379 90.5136V110.434Z" fill="#9269AD"/>
<path d="M53.3398 103.453C53.3228 103.457 53.3052 103.457 53.2882 103.453C53.1176 103.402 49.0513 102.129 43.1283 96.2717C36.8205 90.0345 33.8452 80.6787 33.8134 80.5847C33.7982 80.5309 33.803 80.4728 33.8266 80.4227C33.8503 80.3725 33.8911 80.3341 33.9404 80.3156C33.9899 80.2979 34.0438 80.3018 34.0906 80.3266C34.1373 80.3514 34.1732 80.395 34.1903 80.448C34.2181 80.542 37.1657 89.7953 43.3981 95.9555C49.2378 101.736 53.3517 103.03 53.3953 103.043C53.4203 103.051 53.4437 103.064 53.464 103.081C53.4843 103.099 53.5012 103.121 53.5137 103.145C53.5262 103.17 53.5341 103.197 53.537 103.225C53.5398 103.253 53.5375 103.281 53.5302 103.308C53.5173 103.351 53.4918 103.388 53.4575 103.415C53.4232 103.441 53.3819 103.454 53.3398 103.453Z" fill="white"/>
<path d="M44.7826 97.7603C44.7427 97.761 44.7036 97.7481 44.6709 97.7236C44.6381 97.6991 44.6134 97.6641 44.6001 97.6236C43.3266 94.1034 43.037 86.5718 43.0132 86.2514C43.0121 86.1951 43.0313 86.1404 43.0668 86.099C43.1023 86.0576 43.1514 86.0326 43.2037 86.0293C43.2555 86.0301 43.3052 86.0515 43.3432 86.0893C43.3813 86.1272 43.4051 86.1788 43.4099 86.2343C43.4099 86.3112 43.7075 94.0137 44.9571 97.4698C44.9667 97.4961 44.9713 97.5243 44.9707 97.5526C44.9701 97.5808 44.9642 97.6087 44.9535 97.6345C44.9428 97.6604 44.9275 97.6837 44.9083 97.703C44.8892 97.7224 44.8667 97.7375 44.8421 97.7475C44.823 97.7549 44.8029 97.7592 44.7826 97.7603V97.7603Z" fill="white"/>
<path d="M44.7509 102.821C44.3851 102.824 44.0195 102.804 43.656 102.761C43.6299 102.758 43.6047 102.749 43.5819 102.735C43.559 102.721 43.5389 102.703 43.5227 102.68C43.5065 102.658 43.4945 102.633 43.4874 102.605C43.4803 102.578 43.4783 102.55 43.4814 102.522C43.4845 102.494 43.4928 102.467 43.5056 102.442C43.5185 102.417 43.5357 102.396 43.5563 102.378C43.577 102.361 43.6006 102.348 43.6258 102.34C43.6511 102.333 43.6775 102.33 43.7036 102.334C43.7393 102.334 47.4327 102.787 49.1267 100.928C49.1443 100.906 49.1661 100.888 49.1906 100.875C49.2151 100.862 49.2419 100.854 49.2692 100.853C49.2965 100.851 49.3237 100.856 49.3493 100.867C49.3748 100.877 49.398 100.893 49.4175 100.914C49.4369 100.935 49.4522 100.959 49.4624 100.987C49.4725 101.014 49.4773 101.043 49.4765 101.073C49.4756 101.102 49.4691 101.131 49.4574 101.158C49.4457 101.184 49.429 101.208 49.4083 101.227C48.1825 102.59 46.0442 102.821 44.7509 102.821Z" fill="white"/>
<path d="M57.2567 116.151L94.5479 92.9623C94.6301 92.9312 94.7013 92.8734 94.7516 92.7969C94.8019 92.7203 94.829 92.6289 94.829 92.5351C94.829 92.4413 94.8019 92.3498 94.7516 92.2733C94.7013 92.1968 94.6301 92.139 94.5479 92.1079L91.1005 89.9719C90.8869 89.8562 90.6512 89.7959 90.4122 89.7959C90.1731 89.7959 89.9374 89.8562 89.7239 89.9719L52.4207 113.139C52.3385 113.17 52.2674 113.228 52.217 113.305C52.1667 113.381 52.1396 113.473 52.1396 113.566C52.1396 113.66 52.1667 113.752 52.217 113.828C52.2674 113.905 52.3385 113.962 52.4207 113.994L55.8801 116.13C56.092 116.249 56.327 116.312 56.566 116.316C56.805 116.32 57.0416 116.263 57.2567 116.151V116.151Z" fill="#E0E0E0"/>
<path d="M93.5236 3.43307L59.8979 24.3404C59.3981 24.6917 58.9821 25.1648 58.6837 25.7215C58.3852 26.2781 58.2127 26.9026 58.1802 27.5444V113.442C58.1802 114.621 58.9498 115.1 59.8979 114.51L93.5236 93.6029C94.0241 93.2524 94.4406 92.7794 94.7391 92.2226C95.0376 91.6658 95.2097 91.0409 95.2414 90.3989V4.50108C95.2414 3.32199 94.4757 2.84353 93.5236 3.43307Z" fill="#455A64"/>
<path d="M59.8985 24.3402L93.5242 3.43284C94.3731 2.9031 95.0753 3.23205 95.2181 4.15054C95.1388 3.57306 94.9469 3.02022 94.6549 2.52836C94.3629 2.03651 93.9776 1.61679 93.5242 1.29682L92.1277 0.442411C91.5954 0.151572 91.0069 0 90.41 0C89.813 0 89.2245 0.151572 88.6922 0.442411L55.0626 21.3327C54.5561 21.6747 54.1384 22.1494 53.8486 22.7125L58.6846 25.703C58.9743 25.1443 59.3923 24.6751 59.8985 24.3402V24.3402Z" fill="#37474F"/>
<path d="M53.3379 110.434C53.3705 111.076 53.5429 111.701 53.8414 112.257C54.1398 112.814 54.5558 113.287 55.0557 113.638L56.4561 114.493C56.9408 114.754 57.4712 114.902 58.0127 114.927C58.5541 114.952 59.0944 114.853 59.5981 114.638C58.8046 114.971 58.1739 114.48 58.1739 113.425V27.5441C58.1937 26.8996 58.3672 26.2714 58.6777 25.7199L53.8417 22.7295C53.5356 23.2768 53.3623 23.8982 53.3379 24.5366V110.434Z" fill="#263238"/>
<path d="M60.8228 35.7856L92.6116 16.0274C93.1829 15.6771 93.6431 15.9633 93.6431 16.6682V80.2446C93.624 80.6299 93.5206 81.0049 93.3414 81.339C93.1621 81.6731 92.9121 81.9568 92.6116 82.167L60.8347 101.925C60.2634 102.28 59.8032 101.994 59.8032 101.284V37.708C59.8213 37.3239 59.923 36.9498 60.1001 36.6158C60.2772 36.2819 60.5247 35.9975 60.8228 35.7856V35.7856Z" fill="white"/>
<path d="M76.7119 17.1414C76.5364 17.2654 76.3905 17.4321 76.2857 17.628C76.181 17.8239 76.1204 18.0435 76.1089 18.2692C76.1089 18.6964 76.3787 18.8545 76.7119 18.6451C76.888 18.5218 77.0345 18.3553 77.1393 18.1593C77.2442 17.9632 77.3043 17.7432 77.3149 17.5173C77.3149 17.1029 77.0451 16.9363 76.7119 17.1414Z" fill="#37474F"/>
<path d="M76.7109 95.0865C76.0173 95.575 75.4404 96.2326 75.0269 97.006C74.6134 97.7794 74.3748 98.6468 74.3306 99.5379C74.3306 101.174 75.3977 101.841 76.7109 101.02C77.4042 100.532 77.9809 99.8739 78.3944 99.1005C78.8079 98.3272 79.0466 97.4599 79.0912 96.5689C79.0991 94.9327 78.028 94.2662 76.7109 95.0865Z" fill="#37474F"/>
<path d="M71.0036 23.7553C70.655 24.0045 70.3656 24.3385 70.1589 24.7303C69.9521 25.1222 69.8338 25.5608 69.8135 26.0109C69.8135 26.8397 70.353 27.1772 71.0036 26.7628C71.356 26.5159 71.6492 26.183 71.8595 25.791C72.0697 25.3991 72.1911 24.9592 72.2136 24.5072C72.2136 23.6784 71.6741 23.3409 71.0036 23.7553Z" fill="#37474F"/>
<path d="M73.9663 23.4724C73.9663 24.0277 74.363 24.2371 74.8272 23.9423L82.7615 18.9995C83.0073 18.8343 83.2133 18.6088 83.3629 18.3416C83.5125 18.0743 83.6014 17.7728 83.6224 17.4616C83.6224 16.9105 83.2257 16.7012 82.7615 16.996L74.8272 21.9387C74.5819 22.1036 74.3762 22.3283 74.2266 22.5948C74.077 22.8612 73.9879 23.1619 73.9663 23.4724V23.4724Z" fill="#37474F"/>
<path d="M56.0182 38.5358C56.2997 38.7333 56.5341 38.9994 56.7023 39.3126C56.8705 39.6258 56.9677 39.9773 56.9862 40.3386C56.9862 41.005 56.5538 41.2742 56.0182 40.9409C55.7376 40.7427 55.5042 40.4763 55.3368 40.1632C55.1693 39.8501 55.0725 39.499 55.0542 39.1382C55.0542 38.476 55.4866 38.2068 56.0182 38.5358Z" fill="#37474F"/>
<path d="M56.0182 46.558C56.2997 46.7554 56.5341 47.0216 56.7023 47.3348C56.8705 47.648 56.9677 47.9995 56.9862 48.3608C56.9862 49.0229 56.5538 49.2921 56.0182 48.9631C55.7376 48.7649 55.5042 48.4985 55.3368 48.1854C55.1693 47.8722 55.0725 47.5211 55.0542 47.1603C55.0542 46.4939 55.4866 46.2247 56.0182 46.558Z" fill="#37474F"/>
<path d="M55.7175 38.6988C55.999 38.8963 56.2334 39.1624 56.4016 39.4757C56.5698 39.7889 56.667 40.1404 56.6855 40.5016C56.6855 41.1638 56.2531 41.4329 55.7175 41.104C55.436 40.9065 55.2016 40.6404 55.0334 40.3272C54.8653 40.0139 54.768 39.6625 54.7495 39.3012C54.7535 38.6348 55.1859 38.3784 55.7175 38.6988Z" fill="#455A64"/>
<path d="M55.7175 46.7165C55.9996 46.9144 56.2342 47.1812 56.4024 47.4952C56.5706 47.8092 56.6676 48.1615 56.6855 48.5235C56.6855 49.1857 56.2531 49.4548 55.7175 49.1216C55.4353 48.9249 55.2004 48.659 55.0322 48.3456C54.8639 48.0322 54.767 47.6803 54.7495 47.3188C54.7535 46.6566 55.1859 46.3875 55.7175 46.7165Z" fill="#455A64"/>
<path d="M100.079 18.6787C100.079 17.9695 99.6184 17.6833 99.0472 18.0379L95.2427 20.4003L67.2702 37.796C66.9698 38.0062 66.7197 38.29 66.5405 38.6241C66.3612 38.9582 66.2578 39.3331 66.2388 39.7184V103.278C66.2388 103.987 66.699 104.273 67.2702 103.919L95.2546 86.5186L99.0472 84.1604C99.3476 83.9502 99.5977 83.6665 99.7769 83.3324C99.9562 82.9983 100.06 82.6233 100.079 82.238V18.6787Z" fill="white"/>
<path d="M100.474 18.6799C100.499 18.4657 100.465 18.2483 100.376 18.0549C100.287 17.8615 100.146 17.7008 99.9728 17.5927C99.7992 17.4846 99.5999 17.4341 99.3998 17.4474C99.1997 17.4607 99.0076 17.5372 98.8477 17.6675L95.2177 19.9274L67.0708 37.4427C66.7084 37.689 66.4071 38.0266 66.1928 38.4262C65.9786 38.8259 65.8578 39.2757 65.8409 39.7368V103.279C65.825 103.492 65.8631 103.706 65.9511 103.898C66.0391 104.09 66.1738 104.252 66.3408 104.368C66.4828 104.457 66.6446 104.503 66.8089 104.501C67.0415 104.493 67.2683 104.421 67.4675 104.292L95.6343 86.7762L99.2563 84.5248C99.6166 84.2761 99.9163 83.938 100.13 83.5388C100.344 83.1397 100.466 82.6911 100.486 82.2307L100.474 18.6799ZM95.2257 86.0457L94.9004 86.2507L67.0866 103.544C67.0399 103.583 66.9857 103.61 66.9281 103.623C66.8704 103.636 66.8107 103.635 66.7534 103.621C66.7018 103.587 66.6502 103.467 66.6502 103.271V39.7197C66.6708 39.4095 66.7564 39.1084 66.9007 38.8391C67.0451 38.5697 67.2443 38.3391 67.4833 38.1647L95.2693 20.863L99.2365 18.3894C99.2832 18.3508 99.3374 18.3238 99.395 18.3105C99.4527 18.2972 99.5123 18.2979 99.5697 18.3125C99.6213 18.3467 99.6728 18.4663 99.6728 18.6629V82.2393C99.6523 82.5495 99.5666 82.8506 99.4223 83.12C99.278 83.3893 99.0788 83.6199 98.8397 83.7943L95.2177 86.0457H95.2257Z" fill="#9269AD"/>
<path d="M83.1576 33.4492C86.728 31.2363 89.6042 33.022 89.6042 37.4607C89.6042 41.8993 86.7161 47.2863 83.1576 49.4822C79.599 51.678 76.7109 49.9094 76.7109 45.475C76.7109 41.0406 79.599 35.6664 83.1576 33.4492Z" fill="#9269AD"/>
<path d="M83.1586 36.934C84.313 36.2163 85.2493 36.7973 85.2493 38.2156C85.21 38.9969 85.0003 39.7573 84.637 40.435C84.2738 41.1127 83.7673 41.6886 83.1586 42.1159C82.0041 42.8336 81.0679 42.2527 81.0679 40.8343C81.1071 40.053 81.3168 39.2926 81.6801 38.6149C82.0434 37.9373 82.5499 37.3614 83.1586 36.934V36.934Z" fill="#9269AD"/>
<path d="M87.2327 44.5891C87.2327 42.2309 85.6974 41.274 83.7971 42.453L82.6069 43.1921C80.7106 44.3712 79.1714 47.242 79.1714 49.6002V50.2367C80.2703 50.6254 81.6509 50.4161 83.1385 49.4805C84.7866 48.3859 86.1802 46.8997 87.2128 45.1359L87.2327 44.5891Z" fill="#9269AD"/>
<path opacity="0.7" d="M83.1586 36.934C84.313 36.2163 85.2493 36.7973 85.2493 38.2156C85.21 38.9969 85.0003 39.7573 84.637 40.435C84.2738 41.1127 83.7673 41.6886 83.1586 42.1159C82.0041 42.8336 81.0679 42.2527 81.0679 40.8343C81.1071 40.053 81.3168 39.2926 81.6801 38.6149C82.0434 37.9373 82.5499 37.3614 83.1586 36.934V36.934Z" fill="white"/>
<path opacity="0.7" d="M87.2327 44.5891C87.2327 42.2309 85.6974 41.274 83.7971 42.453L82.6069 43.1921C80.7106 44.3712 79.1714 47.242 79.1714 49.6002V50.2367C80.2703 50.6254 81.6509 50.4161 83.1385 49.4805C84.7866 48.3859 86.1802 46.8997 87.2128 45.1359L87.2327 44.5891Z" fill="white"/>
<path d="M70.6853 59.2437L78.9807 54.0874C79.3774 53.8524 79.667 54.0404 79.667 54.5146V54.8094C79.6544 55.0661 79.5857 55.316 79.4664 55.5387C79.3472 55.7614 79.1807 55.9507 78.9807 56.091L70.6853 61.2473C70.3085 61.4823 69.999 61.29 69.999 60.8201V60.5253C70.0119 60.2687 70.0807 60.0189 70.2 59.7962C70.3192 59.5736 70.4855 59.3843 70.6853 59.2437V59.2437Z" fill="#9269AD"/>
<path opacity="0.1" d="M70.6853 59.2437L78.9807 54.0874C79.3774 53.8524 79.667 54.0404 79.667 54.5146V54.8094C79.6544 55.0661 79.5857 55.316 79.4664 55.5387C79.3472 55.7614 79.1807 55.9507 78.9807 56.091L70.6853 61.2473C70.3085 61.4823 69.999 61.29 69.999 60.8201V60.5253C70.0119 60.2687 70.0807 60.0189 70.2 59.7962C70.3192 59.5736 70.4855 59.3843 70.6853 59.2437V59.2437Z" fill="black"/>
<path d="M70.3442 65.4678L95.4404 49.8663C95.6269 49.7467 95.7816 49.8407 95.7816 50.0799V53.2327C95.7746 53.3606 95.7401 53.4851 95.6809 53.5963C95.6218 53.7075 95.5394 53.8023 95.4404 53.8735L70.3442 69.4749C70.1537 69.5946 69.999 69.4963 69.999 69.2613V66.1086C70.0058 65.9801 70.0406 65.8551 70.1006 65.7438C70.1605 65.6325 70.244 65.5379 70.3442 65.4678V65.4678Z" fill="#9269AD"/>
<path opacity="0.2" d="M70.3442 65.4678L95.4404 49.8663C95.6269 49.7467 95.7816 49.8407 95.7816 50.0799V53.2327C95.7746 53.3606 95.7401 53.4851 95.6809 53.5963C95.6218 53.7075 95.5394 53.8023 95.4404 53.8735L70.3442 69.4749C70.1537 69.5946 69.999 69.4963 69.999 69.2613V66.1086C70.0058 65.9801 70.0406 65.8551 70.1006 65.7438C70.1605 65.6325 70.244 65.5379 70.3442 65.4678V65.4678Z" fill="white"/>
<path d="M70.6853 73.2684L78.9807 68.112C79.3774 67.877 79.667 68.0693 79.667 68.5392V68.834C79.6547 69.0908 79.5862 69.3408 79.4669 69.5636C79.3476 69.7864 79.181 69.9755 78.9807 70.1156L70.6853 75.2719C70.3085 75.5112 69.999 75.3189 69.999 74.8447V74.55C70.0125 74.2935 70.0816 74.0439 70.2008 73.8214C70.32 73.5988 70.4859 73.4094 70.6853 73.2684V73.2684Z" fill="#9269AD"/>
<path opacity="0.1" d="M70.6853 73.2684L78.9807 68.112C79.3774 67.877 79.667 68.0693 79.667 68.5392V68.834C79.6547 69.0908 79.5862 69.3408 79.4669 69.5636C79.3476 69.7864 79.181 69.9755 78.9807 70.1156L70.6853 75.2719C70.3085 75.5112 69.999 75.3189 69.999 74.8447V74.55C70.0125 74.2935 70.0816 74.0439 70.2008 73.8214C70.32 73.5988 70.4859 73.4094 70.6853 73.2684V73.2684Z" fill="black"/>
<path d="M70.3442 79.4934L95.4404 63.8919C95.6269 63.7723 95.7816 63.8705 95.7816 64.1055V67.2583C95.7746 67.3862 95.7401 67.5107 95.6809 67.6219C95.6218 67.733 95.5394 67.8279 95.4404 67.8991L70.3442 83.5005C70.1537 83.6202 69.999 83.5262 69.999 83.2869V80.1342C70.0058 80.0057 70.0406 79.8808 70.1006 79.7694C70.1605 79.6581 70.244 79.5635 70.3442 79.4934V79.4934Z" fill="#9269AD"/>
<path opacity="0.2" d="M70.3442 79.4934L95.4404 63.8919C95.6269 63.7723 95.7816 63.8705 95.7816 64.1055V67.2583C95.7746 67.3862 95.7401 67.5107 95.6809 67.6219C95.6218 67.733 95.5394 67.8279 95.4404 67.8991L70.3442 83.5005C70.1537 83.6202 69.999 83.5262 69.999 83.2869V80.1342C70.0058 80.0057 70.0406 79.8808 70.1006 79.7694C70.1605 79.6581 70.244 79.5635 70.3442 79.4934V79.4934Z" fill="white"/>
<path d="M80.3538 81.2824L90.2717 75.1264C90.6684 74.8871 90.962 75.0794 90.962 75.5536V78.8516C90.949 79.1087 90.8797 79.3589 90.7597 79.5816C90.6397 79.8044 90.4725 79.9934 90.2717 80.1332L80.3538 86.2935C79.9571 86.5284 79.6675 86.3362 79.6675 85.8663V82.564C79.6813 82.3076 79.7505 82.0582 79.8697 81.8357C79.9888 81.6131 80.1546 81.4237 80.3538 81.2824Z" fill="#9269AD"/>
<path opacity="0.1" d="M80.3538 81.2824L90.2717 75.1264C90.6684 74.8871 90.962 75.0794 90.962 75.5536V78.8516C90.949 79.1087 90.8797 79.3589 90.7597 79.5816C90.6397 79.8044 90.4725 79.9934 90.2717 80.1332L80.3538 86.2935C79.9571 86.5284 79.6675 86.3362 79.6675 85.8663V82.564C79.6813 82.3076 79.7505 82.0582 79.8697 81.8357C79.9888 81.6131 80.1546 81.4237 80.3538 81.2824Z" fill="black"/>
<path d="M103.84 67.3658C103.84 67.3658 98.9686 60.129 98.683 59.2489C98.4569 58.5996 98.683 57.6341 98.7544 57.1855C98.8258 56.737 98.8893 55.7373 98.9607 55.4767C99.0797 54.9897 98.4965 55.088 98.1673 55.5322C97.838 55.9765 97.7269 56.8651 97.5563 57.0104C97.3857 57.1556 96.0885 55.1179 95.4101 54.178C94.7317 53.2382 94.3072 52.6657 93.8907 53.016C93.5931 53.2681 93.8153 53.8149 94.3072 54.618C94.5945 55.0505 94.8594 55.4998 95.1007 55.9637C95.176 56.1389 94.7714 56.1517 94.5532 56.5148C94.3826 56.7968 94.5532 57.2539 94.3152 57.4718C94.1687 57.5918 94.0683 57.7657 94.0332 57.9603C93.9981 58.1549 94.0307 58.3566 94.1247 58.527C94.5663 59.2737 95.1358 59.9232 95.8028 60.4408C96.5328 60.9834 96.8264 61.1756 97.2588 61.9147C97.6912 62.6537 101.571 70.2024 101.833 70.6553C102.095 71.1081 102.599 72.0309 103.364 72.0565C104.13 72.0821 110.398 66.2722 110.719 65.9817C111.751 65.0546 112.08 64.9222 112.255 65.7552C112.315 66.0514 112.36 66.3509 112.39 66.6524C112.513 67.7118 113.183 71.4969 113.183 71.4969C113.183 71.4969 116.357 73.1501 118.963 72.3513C121.57 71.5524 122.45 70.3605 122.45 70.3605L121.145 68.0707C121.498 67.1266 123.129 63.2988 123.656 60.6202L115.484 59.1977C115.317 59.1592 115.048 59.0866 114.69 58.9883C114.242 58.8602 113.104 58.4372 112.243 59.2489C109.434 61.8848 103.848 67.3658 103.848 67.3658" fill="#FFA8A7"/>
<path d="M120.042 111.771L118.578 113.962C119.243 114.297 119.97 114.465 120.705 114.453C122.018 114.505 122.379 114.026 122.426 113.932C122.648 113.42 122.303 112.497 122.208 111.702L120.042 111.771Z" fill="#37474F"/>
<path d="M118.662 112.91C118.662 112.91 116.885 112.787 115.659 112.624C114.433 112.462 113.461 113.103 113.747 113.645C114.032 114.188 114.711 114.641 115.766 115.021C116.666 115.35 117.749 115.585 118.686 115.875C119.622 116.166 120.273 116.546 120.816 116.341C121.423 116.114 121.685 115.854 121.633 115.375C121.501 114.695 121.337 114.022 121.141 113.359L118.662 112.91Z" fill="#37474F"/>
<path d="M122.426 109.57C122.426 109.57 122.204 111.561 122.188 111.988C122.172 112.415 120.383 112.552 120.042 111.77L119.986 109.335L122.426 109.57Z" fill="#F28F8F"/>
<path d="M120.625 110.79L121.264 113.815C121.264 113.815 121.323 114.182 119.863 114.417C118.403 114.652 116.11 113.592 115.718 113.379C115.325 113.165 115.281 112.734 116.717 112.819C118.153 112.905 118.661 112.909 118.661 112.909L118.193 111.572L120.625 110.79Z" fill="#FFA8A7"/>
<path d="M123.633 60.5934L124.644 60.29C124.644 60.29 126.759 67.497 126.993 68.1933C127.227 68.8896 127.493 69.6244 127.037 70.4831C126.493 71.5041 123.633 75.6096 123.633 75.6096L121.816 73.6957L123.879 69.6287L122.054 65.6557L123.633 60.5934Z" fill="#F28F8F"/>
<path d="M113.242 51.2347C113.005 50.7553 112.885 50.2189 112.892 49.6758C112.9 49.1326 113.035 48.6005 113.286 48.129C114.294 46.1168 116.539 45.1385 119.213 45.5102C120.451 45.6854 121.911 46.7918 122.708 48.4451C123.589 50.2778 123.672 53.9688 123.898 55.3658L113.242 51.2347Z" fill="#37474F"/>
<path d="M113.171 52.0264C113.171 52.0264 112.536 53.3293 112.647 53.4489C112.812 53.5524 112.992 53.6247 113.179 53.6625L113.171 52.0264Z" fill="#FFA8A7"/>
<path d="M115.099 47.9071C114.409 48.3899 113.218 49.2785 113.167 52.2048C113.111 55.1952 113.508 56.1821 113.921 56.5281C114.198 56.763 115.829 56.6434 116.527 56.4683C117.225 56.2931 119.237 55.2208 119.963 53.5932C120.816 51.6793 120.641 48.894 119.375 48.0396C118.731 47.6294 118.001 47.4021 117.253 47.3789C116.505 47.3558 115.764 47.5375 115.099 47.9071V47.9071Z" fill="#FFA8A7"/>
<path d="M122.425 70.3438C123.647 72.3943 124.805 74.1886 125.059 76.504C125.583 81.3699 123.869 86.932 123.5 90.5334C124.194 91.5577 124.594 92.7785 124.651 94.045C124.651 95.5359 122.425 109.57 122.425 109.57C122.425 109.57 120.807 110.099 119.985 109.335L118.458 83.5187L119.251 80.3745L122.425 70.3438Z" fill="#9269AD"/>
<path opacity="0.2" d="M122.425 70.3438C123.647 72.3943 124.805 74.1886 125.059 76.504C125.583 81.3699 123.869 86.932 123.5 90.5334C124.194 91.5577 124.594 92.7785 124.651 94.045C124.651 95.5359 122.425 109.57 122.425 109.57C122.425 109.57 120.807 110.099 119.985 109.335L118.458 83.5187L119.251 80.3745L122.425 70.3438Z" fill="black"/>
<path d="M118.458 83.5199L119.251 80.3757C120.771 79.945 122.236 79.3182 123.615 78.5088C123.615 78.5088 122.79 80.1279 120.418 81.0165L119.192 85.0535L119.089 94.3025L118.458 83.5199Z" fill="#9269AD"/>
<path opacity="0.3" d="M118.458 83.5199L119.251 80.3757C120.771 79.945 122.236 79.3182 123.615 78.5088C123.615 78.5088 122.79 80.1279 120.418 81.0165L119.192 85.0535L119.089 94.3025L118.458 83.5199Z" fill="black"/>
<path d="M122.426 70.3438C123.081 71.4972 124.644 73.4623 124.311 75.3548C123.914 77.6446 122.763 79.2552 119.264 80.3745L115.979 93.1906C115.979 93.1906 117.689 94.8994 118.213 96.5527C118.737 98.206 120.625 110.8 120.625 110.8C120.625 110.8 120.038 111.829 118.193 111.582C118.193 111.582 111.762 95.7752 111.31 94.7456C110.761 93.7029 110.569 92.4861 110.767 91.3066C110.969 89.6491 113.147 71.5057 113.147 71.5057L122.426 70.3438Z" fill="#9269AD"/>
<path opacity="0.2" d="M122.426 70.3438C123.081 71.4972 124.644 73.4623 124.311 75.3548C123.914 77.6446 122.763 79.2552 119.264 80.3745L115.979 93.1906C115.979 93.1906 117.689 94.8994 118.213 96.5527C118.737 98.206 120.625 110.8 120.625 110.8C120.625 110.8 120.038 111.829 118.193 111.582C118.193 111.582 111.762 95.7752 111.31 94.7456C110.761 93.7029 110.569 92.4861 110.767 91.3066C110.969 89.6491 113.147 71.5057 113.147 71.5057L122.426 70.3438Z" fill="black"/>
<path d="M123.632 60.5948L115.46 59.1722C115.293 59.1338 115.024 59.0611 114.666 58.9629C114.666 58.9629 114.317 64.4824 112.219 65.7469C112.27 66.0118 112.314 66.3065 112.354 66.644C112.477 67.7035 113.147 71.4885 113.147 71.4885C113.147 71.4885 116.321 73.1418 118.927 72.3429C121.534 71.544 122.414 70.3521 122.414 70.3521L121.109 68.0623C121.474 67.1097 123.117 63.2819 123.632 60.5948Z" fill="#9269AD"/>
<path opacity="0.7" d="M123.632 60.5948L115.46 59.1722C115.293 59.1338 115.024 59.0611 114.666 58.9629C114.666 58.9629 114.317 64.4824 112.219 65.7469C112.27 66.0118 112.314 66.3065 112.354 66.644C112.477 67.7035 113.147 71.4885 113.147 71.4885C113.147 71.4885 116.321 73.1418 118.927 72.3429C121.534 71.544 122.414 70.3521 122.414 70.3521L121.109 68.0623C121.474 67.1097 123.117 63.2819 123.632 60.5948Z" fill="white"/>
<path d="M121.478 67.1514C120.393 67.8532 119.256 68.4576 118.078 68.9584C119.147 68.9355 120.193 68.6241 121.121 68.0528L121.478 67.1514Z" fill="#9269AD"/>
<path d="M114.897 48.0514C114.897 48.0514 114.501 50.8282 115.437 52.4602C115.437 52.4602 115.786 51.3537 116.655 51.563C117.524 51.7724 117.571 53.007 116.96 53.699C116.805 53.8932 116.602 54.0362 116.375 54.1118C116.147 54.1873 115.905 54.1924 115.675 54.1262C115.675 54.1262 115.536 56.1341 115.461 57.8173C115.385 59.5005 114.973 63.1701 116.73 64.6525C118.488 66.1349 122.899 66.6561 124.966 63.5461C126.117 61.8159 124.589 58.7571 123.879 55.3267C123.224 52.1739 122.856 47.5003 119.749 46.7484C116.643 45.9966 114.897 48.0514 114.897 48.0514Z" fill="#37474F"/>
<path d="M126.295 10.1093L125.64 10.5365C125.695 10.2857 125.726 10.0294 125.732 9.77181C125.732 8.34068 124.799 7.76395 123.649 8.4902C123.299 8.71762 122.986 9.00639 122.725 9.3446V9.3446C122.725 7.42219 121.471 6.64041 119.924 7.60161C119.108 8.17418 118.43 8.94564 117.943 9.85341C117.457 10.7612 117.176 11.7797 117.123 12.8263C117.123 12.9246 117.123 13.0186 117.123 13.1125C116.724 13.0585 116.321 13.1584 115.984 13.3945C115.378 13.8199 114.874 14.3932 114.512 15.0679C114.15 15.7426 113.941 16.4997 113.902 17.2778C113.901 17.4586 113.919 17.639 113.953 17.816L113.604 18.0339C112.656 18.6235 111.886 19.7726 111.886 20.5971C111.886 21.4216 112.656 21.6182 113.604 21.0243L126.299 13.1424C127.247 12.5529 128.017 11.4037 128.017 10.5792C128.017 9.75472 127.243 9.51549 126.295 10.1093Z" fill="#EBEBEB"/>
</svg>
