<svg width="83" height="66" viewBox="0 0 83 66" fill="none" xmlns="http://www.w3.org/2000/svg">
<path d="M41.361 65.5787C63.9517 65.5787 82.265 64.5096 82.265 63.1907C82.265 61.8719 63.9517 60.8027 41.361 60.8027C18.7703 60.8027 0.457001 61.8719 0.457001 63.1907C0.457001 64.5096 18.7703 65.5787 41.361 65.5787Z" fill="#F5F5F5"/>
<path d="M12.413 5.24078C12.0522 5.41396 11.738 5.67083 11.4966 5.99002C11.2551 6.30921 11.0934 6.68146 11.025 7.07578C10.692 8.52078 11.578 11.6388 11.719 13.1138C11.86 14.5888 10.242 17.5778 14.447 17.8498C18.652 18.1218 19.259 6.64978 17.312 5.84978C15.7311 5.34387 14.0697 5.13734 12.413 5.24078Z" fill="#263238"/>
<path d="M17.113 6.01486C18.286 5.46186 18.788 9.28086 18.379 12.0359" stroke="#263238" stroke-width="0.5" stroke-linecap="round" stroke-linejoin="round"/>
<path d="M27.085 4.47168L27.585 3.09668C27.585 3.09668 27.374 2.84567 28.336 2.38567C29.298 1.92567 29.884 1.67667 30.279 1.80167C30.5144 1.94442 30.7162 2.13638 30.8705 2.36438C31.0248 2.59239 31.128 2.85106 31.173 3.12267C31.131 3.43067 28.502 3.85867 28.502 3.85867L28.126 4.91368L27.085 4.47168Z" fill="#E4897B"/>
<path d="M18.952 11.5126C18.952 11.5126 23.543 10.1346 24.294 9.43065C25.045 8.72665 27.172 3.47266 27.172 3.47266L28.714 4.10565C28.714 4.10565 27.134 10.2056 25.799 11.6136C24.464 13.0216 19.331 15.5267 19.331 15.5267L18.952 11.5126Z" fill="#407BFF"/>
<path opacity="0.6" d="M18.952 11.5126C18.952 11.5126 23.543 10.1346 24.294 9.43065C25.045 8.72665 27.172 3.47266 27.172 3.47266L28.714 4.10565C28.714 4.10565 27.134 10.2056 25.799 11.6136C24.464 13.0216 19.331 15.5267 19.331 15.5267L18.952 11.5126Z" fill="white"/>
<path d="M10.649 58.2999L11.668 58.8999C12.1458 58.2571 12.6628 57.6442 13.216 57.0649C13.516 56.7529 13.821 56.4069 14.144 56.0359C14.79 55.2959 15.488 54.4499 16.22 53.5359L16.876 52.7149C19.42 49.5039 22.184 45.7319 23.218 43.1819C23.5121 42.5682 23.6518 41.8919 23.625 41.2119C23.2735 39.1697 22.78 37.1545 22.148 35.1809C21.119 31.7949 19.96 28.5859 19.96 28.5859L17.114 33.4059C17.114 33.4059 17.987 35.4879 18.783 37.7059C19.566 39.8829 20.272 42.1929 20.011 42.7939C19.986 42.8529 19.954 42.9229 19.918 43.0049C19.445 43.9839 18.137 46.2049 16.652 48.6499L16.198 49.3949C15.398 50.7029 14.571 52.0469 13.804 53.2809C13.504 53.7659 13.213 54.2349 12.937 54.6809C11.629 56.7749 10.649 58.2999 10.649 58.2999Z" fill="#E4897B"/>
<path opacity="0.2" d="M16.935 52.7175C15.589 54.4055 14.296 55.9455 13.335 57.0635C13.198 56.3755 13.059 55.5635 12.949 54.6735C14.061 52.8885 15.421 50.6865 16.658 48.6465C16.6313 50.009 16.724 51.3712 16.935 52.7175Z" fill="black"/>
<path d="M11.856 38.7674C12.1479 40.7455 12.5421 42.7071 13.037 44.6444C13.237 45.4224 13.366 45.8824 13.366 45.8824C13.3709 48.35 13.5161 50.8153 13.801 53.2664C13.909 54.2324 14.025 55.1664 14.145 56.0234C14.588 59.2174 15.054 61.5084 15.054 61.5084L16.267 61.3504L16.221 53.5254L16.196 49.3784L16.162 43.7354L16.149 42.7524L16.09 38.4614L16.004 32.1324L11.785 30.2324C11.3137 33.06 11.3377 35.9481 11.856 38.7674Z" fill="#E4897B"/>
<path opacity="0.2" d="M23.146 38.8069C22.0608 39.4837 20.8669 39.9681 19.617 40.2389C19.387 39.4519 19.09 38.5679 18.773 37.7069C17.973 35.4899 17.104 33.4069 17.104 33.4069L19.95 28.5859C19.95 28.5859 21.108 31.7949 22.138 35.1809C22.522 36.4149 22.872 37.6679 23.146 38.8069Z" fill="black"/>
<path opacity="0.2" d="M16.125 41.1281C14.8137 41.0997 13.5047 41.0053 12.203 40.8451C12.081 40.1851 11.96 39.4861 11.855 38.7671C11.3408 35.9514 11.3164 33.0681 11.783 30.2441L16.002 32.1441L16.088 38.4731L16.125 41.1281Z" fill="black"/>
<path d="M23.351 38.3892C20.712 39.9402 12.951 40.5982 12.951 40.5982L11.685 37.0292L11.828 40.5692H11.45C11.45 40.5692 8.61499 30.9692 12.382 24.6792L19.133 24.1582L19.871 27.6352C19.871 27.6352 21.766 32.6082 23.351 38.3892Z" fill="#263238"/>
<path d="M18.4 63.0756C18.2011 62.9568 17.9822 62.8751 17.754 62.8346C17.0815 62.1583 16.6175 61.3031 16.417 60.3706L15.529 60.2706C15.3781 60.2569 15.2266 60.29 15.0953 60.3655C14.9639 60.441 14.859 60.5553 14.795 60.6926C14.7761 60.7304 14.7633 60.7709 14.757 60.8126C14.7433 61.0277 14.7433 61.2435 14.757 61.4586C14.8109 62.1788 14.9081 62.8951 15.048 63.6036L15.204 63.5826L15.073 62.2286C15.031 61.7686 15.457 62.2536 15.628 62.7286C15.6643 62.8823 15.7316 63.027 15.8259 63.1537C15.9201 63.2804 16.0392 63.3866 16.1759 63.4656C16.3126 63.5446 16.4641 63.5949 16.6209 63.6133C16.7778 63.6317 16.9367 63.6179 17.088 63.5726C18.258 63.4346 18.737 63.3206 18.4 63.0756Z" fill="#2E353A"/>
<path d="M16.172 59.6953C16.172 59.6953 16.488 60.5583 16.91 61.5073C17.1038 61.9996 17.3903 62.4501 17.754 62.8343C17.563 62.9002 17.358 62.9145 17.1598 62.8757C16.9615 62.8369 16.777 62.7464 16.625 62.6133C16.23 62.1533 15.551 60.4933 14.794 60.6853C14.8344 60.5502 14.8912 60.4206 14.963 60.2993C15.3378 60.0458 15.7443 59.8428 16.172 59.6953Z" fill="#E4897B"/>
<path d="M10.968 62.3235C10.9256 62.0947 10.8412 61.8756 10.719 61.6775C10.7808 60.7262 11.1139 59.8124 11.679 59.0445L11.166 58.3125C11.0772 58.1898 10.9528 58.0974 10.8096 58.048C10.6665 57.9987 10.5115 57.9946 10.366 58.0365C10.3252 58.0482 10.2862 58.0654 10.25 58.0875C10.0798 58.2181 9.91783 58.359 9.76498 58.5095C9.26137 59.0276 8.78951 59.5756 8.35199 60.1505L8.47198 60.2505L9.39999 59.2505C9.71599 58.9155 9.63398 59.5565 9.38898 59.9995C9.2987 60.1292 9.23549 60.2757 9.20312 60.4303C9.17076 60.5849 9.16991 60.7445 9.20062 60.8995C9.23134 61.0544 9.29298 61.2016 9.38187 61.3322C9.47077 61.4628 9.58508 61.5741 9.71799 61.6595C10.605 62.4565 11.008 62.7385 10.968 62.3235Z" fill="#2E353A"/>
<path d="M12.022 58.4103C12.022 58.4103 11.585 59.2203 11.153 60.1653C10.9133 60.6364 10.7656 61.1489 10.718 61.6753C10.718 61.6753 10.056 61.2853 10.138 60.6833C10.22 60.0813 11.014 58.4763 10.368 58.0333C10.4959 57.9751 10.6301 57.9318 10.768 57.9043C11.2069 58.0156 11.6288 58.1858 12.022 58.4103Z" fill="#E4897B"/>
<path d="M12.311 23.9803L12.273 24.9993L19.25 24.7273L19.296 23.5273L12.311 23.9803Z" fill="#263238"/>
<path opacity="0.2" d="M12.311 23.9803L12.273 24.9993L19.25 24.7273L19.296 23.5273L12.311 23.9803Z" fill="white"/>
<path d="M14.669 23.6379L14.323 23.6426L14.3467 25.4044L14.6926 25.3998L14.669 23.6379Z" fill="#263238"/>
<path d="M17.676 23.6399L16.151 23.7188L16.2108 24.8752L17.7358 24.7964L17.676 23.6399Z" fill="white"/>
<path d="M18.934 23.3295L18.588 23.334L18.6109 25.096L18.9569 25.0915L18.934 23.3295Z" fill="#263238"/>
<path d="M10.416 24.4102L12.011 25.3212C12.3827 25.4625 12.6926 25.7306 12.886 26.0782C13.276 26.7112 12.715 29.1241 12.411 29.1241C12.107 29.1241 10.392 28.7491 10.411 28.4151C10.5968 27.7604 10.8267 27.1189 11.099 26.4951L9.55701 25.5352L10.416 24.4102Z" fill="#E4897B"/>
<path d="M12.273 23.9777C12.273 23.9777 11.851 17.7927 10.417 14.2567C13.1305 12.9739 16.0002 12.0517 18.953 11.5137C18.953 11.5137 20.553 15.4057 19.297 23.5957L12.273 23.9777Z" fill="#407BFF"/>
<path opacity="0.6" d="M16.912 18.0483C17.0213 18.0483 17.11 17.9597 17.11 17.8503C17.11 17.741 17.0213 17.6523 16.912 17.6523C16.8026 17.6523 16.714 17.741 16.714 17.8503C16.714 17.9597 16.8026 18.0483 16.912 18.0483Z" fill="white"/>
<path opacity="0.6" d="M17.306 20.2526C17.3014 20.2957 17.2828 20.3362 17.2532 20.3679C17.2235 20.3996 17.1844 20.4208 17.1416 20.4283C17.0988 20.4357 17.0548 20.4291 17.0162 20.4094C16.9775 20.3896 16.9463 20.3578 16.9273 20.3188C16.9083 20.2798 16.9025 20.2356 16.9108 20.193C16.9191 20.1504 16.9411 20.1117 16.9733 20.0826C17.0056 20.0536 17.0464 20.0358 17.0896 20.032C17.1329 20.0282 17.1762 20.0386 17.213 20.0616C17.2449 20.0814 17.2705 20.1099 17.287 20.1437C17.3034 20.1775 17.31 20.2152 17.306 20.2526Z" fill="white"/>
<path opacity="0.6" d="M17.306 22.5319C17.3014 22.575 17.2828 22.6155 17.2532 22.6472C17.2235 22.6789 17.1844 22.7001 17.1416 22.7076C17.0988 22.715 17.0548 22.7084 17.0162 22.6886C16.9775 22.6689 16.9463 22.6371 16.9273 22.5981C16.9083 22.5591 16.9025 22.5149 16.9108 22.4723C16.9191 22.4297 16.9411 22.391 16.9733 22.3619C17.0056 22.3329 17.0464 22.3151 17.0896 22.3113C17.1329 22.3075 17.1762 22.3179 17.213 22.3409C17.2449 22.3607 17.2705 22.3892 17.287 22.423C17.3034 22.4568 17.31 22.4945 17.306 22.5319Z" fill="white"/>
<path d="M10.417 14.2559C9.105 14.9769 4.348 20.4459 4.717 22.0719C5.086 23.6979 10.417 26.2449 10.417 26.2449L11.33 24.6689C10.0451 23.7487 8.82485 22.7413 7.67799 21.6539C7.51099 21.2359 11.513 18.0889 11.513 18.0889C11.5634 17.255 11.5386 16.4183 11.439 15.5889C11.3965 15.2983 11.2802 15.0235 11.101 14.7908C10.9219 14.5581 10.686 14.3753 10.416 14.2599L10.417 14.2559Z" fill="#407BFF"/>
<path opacity="0.6" d="M10.417 14.2559C9.105 14.9769 4.348 20.4459 4.717 22.0719C5.086 23.6979 10.417 26.2449 10.417 26.2449L11.33 24.6689C10.0451 23.7487 8.82485 22.7413 7.67799 21.6539C7.51099 21.2359 11.513 18.0889 11.513 18.0889C11.5634 17.255 11.5386 16.4183 11.439 15.5889C11.3965 15.2983 11.2802 15.0235 11.101 14.7908C10.9219 14.5581 10.686 14.3753 10.416 14.2599L10.417 14.2559Z" fill="white"/>
<path d="M12.881 15.3505C12.881 15.3505 11.546 13.1694 14.467 12.4164C17.388 11.6634 18.279 13.4164 18.279 13.4164L16.823 13.1655L16.639 16.6444C15.966 15.4403 14.8709 14.5279 13.565 14.0835L12.881 15.3505Z" fill="#407BFF"/>
<path opacity="0.6" d="M12.881 15.3505C12.881 15.3505 11.546 13.1694 14.467 12.4164C17.388 11.6634 18.279 13.4164 18.279 13.4164L16.823 13.1655L16.639 16.6444C15.966 15.4403 14.8709 14.5279 13.565 14.0835L12.881 15.3505Z" fill="white"/>
<path d="M16.199 14.9371C15.2196 14.4795 14.2809 13.9396 13.393 13.3231C13.6544 13.0291 13.8289 12.6682 13.8971 12.2808C13.9652 11.8934 13.9244 11.4946 13.779 11.1291C13.7246 10.9404 13.654 10.7567 13.568 10.5801L15.587 10.9581C15.5405 11.2371 15.5144 11.5192 15.509 11.8021C15.5015 12.0146 15.5206 12.2273 15.566 12.4351C15.703 13.0351 16.047 13.0471 16.047 13.0471C16.2605 13.6533 16.3129 14.3046 16.199 14.9371Z" fill="#E4897B"/>
<path opacity="0.2" d="M15.514 11.8087C15.5065 12.0213 15.5256 12.234 15.571 12.4417C15.1995 12.3589 14.8489 12.2008 14.5409 11.9772C14.2328 11.7536 13.9739 11.4693 13.78 11.1417C13.7256 10.9533 13.655 10.77 13.569 10.5938L15.588 10.9717C15.5432 11.2486 15.5184 11.5283 15.514 11.8087Z" fill="black"/>
<path d="M15.112 5.27539C17.287 5.27539 17.468 6.33038 17.593 8.13838C17.749 10.4004 17.245 12.0074 15.049 11.5134C12.068 10.8554 12.195 5.27539 15.112 5.27539Z" fill="#E4897B"/>
<path d="M16.467 8.03711C16.6072 8.30019 16.7788 8.54531 16.978 8.76711C16.9264 8.83969 16.8558 8.89673 16.774 8.93199C16.6922 8.96726 16.6022 8.97939 16.514 8.9671L16.467 8.03711Z" fill="#DE5753"/>
<path d="M15.385 7.88984C15.385 8.03284 15.311 8.15183 15.216 8.15383C15.121 8.15583 15.039 8.04185 15.037 7.89685C15.035 7.75185 15.109 7.63484 15.204 7.63284C15.299 7.63084 15.381 7.74284 15.385 7.88984Z" fill="#263238"/>
<path d="M15.166 7.64072L15.476 7.51172C15.476 7.51172 15.326 7.77972 15.166 7.64072Z" fill="#263238"/>
<path d="M17.178 7.82348C17.178 7.96648 17.104 8.08547 17.009 8.08747C16.914 8.08947 16.832 7.97349 16.83 7.83049C16.828 7.68749 16.902 7.56648 16.999 7.56448C17.096 7.56248 17.174 7.67848 17.178 7.82348Z" fill="#263238"/>
<path d="M16.959 7.57236L17.269 7.44336C17.269 7.44336 17.119 7.70936 16.959 7.57236Z" fill="#263238"/>
<path d="M15.371 6.67688C15.2319 6.65966 15.0908 6.6745 14.9584 6.72026C14.8259 6.76602 14.7058 6.8415 14.607 6.94089" stroke="#263238" stroke-width="0.708" stroke-linecap="round" stroke-linejoin="round"/>
<path d="M16.647 6.60246C16.7671 6.57258 16.8925 6.57018 17.0137 6.59546C17.1349 6.62074 17.2488 6.67304 17.347 6.74846" stroke="#263238" stroke-width="0.708" stroke-linecap="round" stroke-linejoin="round"/>
<path d="M13.223 8.33847C13.6703 7.55966 13.9112 6.67951 13.923 5.78148C14.3177 5.41267 14.8372 5.20661 15.3774 5.20457C15.9175 5.20253 16.4385 5.40466 16.836 5.77047C17.2173 6.42809 17.4686 7.15293 17.576 7.90547C17.576 7.90547 17.922 4.76847 14.903 4.69047C11.884 4.61247 11.886 9.03247 13.443 10.3525C13.2453 10.06 13.1219 9.72369 13.0835 9.37272C13.0452 9.02176 13.0931 8.66674 13.223 8.33847Z" fill="#263238"/>
<path d="M13.513 8.7114C13.505 8.61053 13.4773 8.51221 13.4313 8.42207C13.3853 8.33193 13.322 8.25174 13.245 8.18607C13.168 8.12041 13.0789 8.07058 12.9826 8.03941C12.8863 8.00823 12.7849 7.99634 12.684 8.0044C12.14 8.0634 11.878 9.17941 13.232 9.45141C13.423 9.48841 13.532 9.3004 13.513 8.7114Z" fill="#E4897B"/>
<path d="M16.267 9.91582C16.0636 9.96165 15.8507 9.93813 15.6622 9.84897C15.4738 9.75981 15.3206 9.61015 15.227 9.42383" stroke="#263238" stroke-width="0.708" stroke-linecap="round" stroke-linejoin="round"/>
<path d="M13.936 5.78122C13.936 5.78122 15.944 4.89122 17.273 6.06622C17.3429 5.84655 17.3649 5.61442 17.3374 5.38553C17.3098 5.15664 17.2335 4.93632 17.1134 4.73949C16.9934 4.54266 16.8325 4.37391 16.6416 4.24464C16.4507 4.11538 16.2343 4.02861 16.007 3.99022C14.22 3.46322 12.421 5.24123 12.421 5.24123L13.936 5.78122Z" fill="#263238"/>
<path d="M13.936 5.78036C13.5408 6.2576 13.2481 6.81106 13.076 7.40632C12.904 8.00158 12.8563 8.62587 12.936 9.24035C13.1246 10.9904 12.9507 12.7605 12.425 14.4404C12.3466 14.6112 12.3035 14.7962 12.2985 14.9841C12.2934 15.172 12.3265 15.359 12.3956 15.5338C12.4648 15.7086 12.5686 15.8676 12.7008 16.0013C12.833 16.1349 12.9909 16.2404 13.165 16.3113C12.9822 16.3593 12.7913 16.3674 12.6051 16.3352C12.4189 16.303 12.2418 16.2312 12.0857 16.1246C11.9297 16.0181 11.7983 15.8793 11.7006 15.7176C11.6028 15.5559 11.5409 15.375 11.519 15.1874C11.333 14.2294 11.772 12.1534 11.553 9.68136C11.334 7.20936 12.202 5.45836 13.936 5.78036Z" fill="#263238"/>
<path d="M46.518 0.648438C46.1341 0.648438 45.7588 0.762276 45.4396 0.975555C45.1204 1.18884 44.8716 1.49198 44.7247 1.84665C44.5778 2.20132 44.5394 2.59159 44.6143 2.96811C44.6892 3.34463 44.8741 3.69048 45.1455 3.96193C45.417 4.23338 45.7628 4.41825 46.1393 4.49314C46.5158 4.56804 46.9061 4.5296 47.2608 4.38269C47.6155 4.23578 47.9186 3.987 48.1319 3.6678C48.3452 3.34861 48.459 2.97333 48.459 2.58944C48.459 2.07465 48.2545 1.58095 47.8905 1.21694C47.5265 0.852934 47.0328 0.648438 46.518 0.648438ZM46.518 2.40144C46.4067 2.40144 46.2978 2.36842 46.2052 2.30656C46.1126 2.24469 46.0405 2.15676 45.9979 2.05389C45.9553 1.95101 45.9441 1.83781 45.9658 1.7286C45.9876 1.61939 46.0412 1.51908 46.1199 1.44034C46.1986 1.3616 46.299 1.30798 46.4082 1.28625C46.5174 1.26453 46.6306 1.27569 46.7335 1.3183C46.8363 1.36091 46.9243 1.43307 46.9861 1.52565C47.048 1.61823 47.081 1.72709 47.081 1.83844C47.081 1.98776 47.0217 2.13096 46.9161 2.23654C46.8105 2.34212 46.6673 2.40144 46.518 2.40144Z" fill="#407BFF"/>
<path opacity="0.6" d="M46.518 0.648438C46.1341 0.648438 45.7588 0.762276 45.4396 0.975555C45.1204 1.18884 44.8716 1.49198 44.7247 1.84665C44.5778 2.20132 44.5394 2.59159 44.6143 2.96811C44.6892 3.34463 44.8741 3.69048 45.1455 3.96193C45.417 4.23338 45.7628 4.41825 46.1393 4.49314C46.5158 4.56804 46.9061 4.5296 47.2608 4.38269C47.6155 4.23578 47.9186 3.987 48.1319 3.6678C48.3452 3.34861 48.459 2.97333 48.459 2.58944C48.459 2.07465 48.2545 1.58095 47.8905 1.21694C47.5265 0.852934 47.0328 0.648438 46.518 0.648438ZM46.518 2.40144C46.4067 2.40144 46.2978 2.36842 46.2052 2.30656C46.1126 2.24469 46.0405 2.15676 45.9979 2.05389C45.9553 1.95101 45.9441 1.83781 45.9658 1.7286C45.9876 1.61939 46.0412 1.51908 46.1199 1.44034C46.1986 1.3616 46.299 1.30798 46.4082 1.28625C46.5174 1.26453 46.6306 1.27569 46.7335 1.3183C46.8363 1.36091 46.9243 1.43307 46.9861 1.52565C47.048 1.61823 47.081 1.72709 47.081 1.83844C47.081 1.98776 47.0217 2.13096 46.9161 2.23654C46.8105 2.34212 46.6673 2.40144 46.518 2.40144Z" fill="white"/>
<path d="M59.812 3.19727H33.222C29.0854 3.19727 25.732 6.55065 25.732 10.6873V56.1063C25.732 60.2429 29.0854 63.5963 33.222 63.5963H59.812C63.9486 63.5963 67.302 60.2429 67.302 56.1063V10.6873C67.302 6.55065 63.9486 3.19727 59.812 3.19727Z" fill="#407BFF"/>
<path opacity="0.8" d="M65.102 6.70703H27.932V60.722H65.102V6.70703Z" fill="white"/>
<path d="M55.136 2.68164H37.9C36.9749 2.68164 36.225 3.43156 36.225 4.35664C36.225 5.28172 36.9749 6.03164 37.9 6.03164H55.136C56.0611 6.03164 56.811 5.28172 56.811 4.35664C56.811 3.43156 56.0611 2.68164 55.136 2.68164Z" fill="#407BFF"/>
<path opacity="0.4" d="M55.136 2.68164H37.9C36.9749 2.68164 36.225 3.43156 36.225 4.35664C36.225 5.28172 36.9749 6.03164 37.9 6.03164H55.136C56.0611 6.03164 56.811 5.28172 56.811 4.35664C56.811 3.43156 56.0611 2.68164 55.136 2.68164Z" fill="white"/>
<path d="M54.128 9.14522H48.17C48.0487 9.14731 47.9291 9.11618 47.8242 9.05519C47.7194 8.9942 47.6332 8.90569 47.575 8.79922C47.472 8.60922 47.3196 8.45055 47.1339 8.33998C46.9482 8.22941 46.7361 8.17104 46.52 8.17104C46.3039 8.17104 46.0918 8.22941 45.9061 8.33998C45.7204 8.45055 45.568 8.60922 45.465 8.79922C45.4066 8.90554 45.3204 8.99394 45.2156 9.0549C45.1107 9.11587 44.9913 9.14709 44.87 9.14522H38.904C38.7361 9.14522 38.5751 9.07853 38.4564 8.95982C38.3377 8.84111 38.271 8.6801 38.271 8.51222V4.95721C38.271 4.78933 38.3377 4.62834 38.4564 4.50963C38.5751 4.39092 38.7361 4.32422 38.904 4.32422H54.125C54.2929 4.32422 54.4539 4.39092 54.5726 4.50963C54.6913 4.62834 54.758 4.78933 54.758 4.95721V8.50122C54.7593 8.58519 54.7439 8.66858 54.7127 8.74654C54.6815 8.82449 54.6351 8.89545 54.5762 8.95529C54.5172 9.01513 54.447 9.06266 54.3696 9.09509C54.2921 9.12753 54.209 9.14424 54.125 9.14423L54.128 9.14522ZM46.519 7.74522C46.8127 7.74474 47.1009 7.82449 47.3526 7.97588C47.6043 8.12727 47.8098 8.34453 47.947 8.60422C47.97 8.64271 48.0029 8.67434 48.0423 8.6958C48.0817 8.71726 48.1262 8.72776 48.171 8.72623H54.129C54.1567 8.72623 54.1841 8.72076 54.2097 8.71016C54.2353 8.69956 54.2586 8.68402 54.2782 8.66443C54.2978 8.64484 54.3133 8.62156 54.3239 8.59596C54.3345 8.57036 54.34 8.54294 54.34 8.51523V4.96022C54.34 4.90426 54.3178 4.85059 54.2782 4.81102C54.2386 4.77145 54.185 4.74922 54.129 4.74922H38.904C38.848 4.74922 38.7944 4.77145 38.7548 4.81102C38.7152 4.85059 38.693 4.90426 38.693 4.96022V8.50423C38.693 8.56019 38.7152 8.61386 38.7548 8.65343C38.7944 8.693 38.848 8.71523 38.904 8.71523H44.866C44.9104 8.71643 44.9542 8.70576 44.9931 8.68431C45.032 8.66286 45.0644 8.6314 45.087 8.59322C45.2258 8.33573 45.432 8.12082 45.6835 7.97145C45.9351 7.82209 46.2225 7.74389 46.515 7.74522H46.519Z" fill="#263238"/>
<g opacity="0.2">
<path opacity="0.2" d="M54.128 9.14522H48.17C48.0487 9.14731 47.9291 9.11618 47.8242 9.05519C47.7194 8.9942 47.6332 8.90569 47.575 8.79922C47.472 8.60922 47.3196 8.45055 47.1339 8.33998C46.9482 8.22941 46.7361 8.17104 46.52 8.17104C46.3039 8.17104 46.0918 8.22941 45.9061 8.33998C45.7204 8.45055 45.568 8.60922 45.465 8.79922C45.4066 8.90554 45.3204 8.99394 45.2156 9.0549C45.1107 9.11587 44.9913 9.14709 44.87 9.14522H38.904C38.7361 9.14522 38.5751 9.07853 38.4564 8.95982C38.3377 8.84111 38.271 8.6801 38.271 8.51222V4.95721C38.271 4.78933 38.3377 4.62834 38.4564 4.50963C38.5751 4.39092 38.7361 4.32422 38.904 4.32422H54.125C54.2929 4.32422 54.4539 4.39092 54.5726 4.50963C54.6913 4.62834 54.758 4.78933 54.758 4.95721V8.50122C54.7593 8.58519 54.7439 8.66858 54.7127 8.74654C54.6815 8.82449 54.6351 8.89545 54.5762 8.95529C54.5172 9.01513 54.447 9.06266 54.3696 9.09509C54.2921 9.12753 54.209 9.14424 54.125 9.14423L54.128 9.14522ZM46.519 7.74522C46.8127 7.74474 47.1009 7.82449 47.3526 7.97588C47.6043 8.12727 47.8098 8.34453 47.947 8.60422C47.97 8.64271 48.0029 8.67434 48.0423 8.6958C48.0817 8.71726 48.1262 8.72776 48.171 8.72623H54.129C54.1567 8.72623 54.1841 8.72076 54.2097 8.71016C54.2353 8.69956 54.2586 8.68402 54.2782 8.66443C54.2978 8.64484 54.3133 8.62156 54.3239 8.59596C54.3345 8.57036 54.34 8.54294 54.34 8.51523V4.96022C54.34 4.90426 54.3178 4.85059 54.2782 4.81102C54.2386 4.77145 54.185 4.74922 54.129 4.74922H38.904C38.848 4.74922 38.7944 4.77145 38.7548 4.81102C38.7152 4.85059 38.693 4.90426 38.693 4.96022V8.50423C38.693 8.56019 38.7152 8.61386 38.7548 8.65343C38.7944 8.693 38.848 8.71523 38.904 8.71523H44.866C44.9104 8.71643 44.9542 8.70576 44.9931 8.68431C45.032 8.66286 45.0644 8.6314 45.087 8.59322C45.2258 8.33573 45.432 8.12082 45.6835 7.97145C45.9351 7.82209 46.2225 7.74389 46.515 7.74522H46.519Z" fill="white"/>
</g>
<path d="M52.75 3.70508H40.292C39.8949 3.70508 39.573 4.02699 39.573 4.42408V4.42508C39.573 4.82217 39.8949 5.14408 40.292 5.14408H52.75C53.1471 5.14408 53.469 4.82217 53.469 4.42508V4.42408C53.469 4.02699 53.1471 3.70508 52.75 3.70508Z" fill="#407BFF"/>
<path opacity="0.6" d="M52.744 3.70508H40.286C39.8889 3.70508 39.567 4.02699 39.567 4.42408V4.42508C39.567 4.82217 39.8889 5.14408 40.286 5.14408H52.744C53.1411 5.14408 53.463 4.82217 53.463 4.42508V4.42408C53.463 4.02699 53.1411 3.70508 52.744 3.70508Z" fill="white"/>
<path opacity="0.3" d="M49.969 36.209H46.214V39.964H49.969V36.209Z" fill="black"/>
<path opacity="0.3" d="M49.53 41.4737H46.652C46.5944 41.4737 46.5373 41.4623 46.484 41.4402C46.4307 41.4182 46.3823 41.3859 46.3416 41.3451C46.3008 41.3043 46.2685 41.2559 46.2464 41.2027C46.2244 41.1494 46.213 41.0923 46.213 41.0347C46.2135 40.9186 46.26 40.8074 46.3423 40.7255C46.4246 40.6436 46.5359 40.5977 46.652 40.5977H49.53C49.6461 40.5977 49.7575 40.6436 49.8397 40.7255C49.922 40.8074 49.9685 40.9186 49.969 41.0347C49.969 41.0923 49.9577 41.1494 49.9356 41.2027C49.9135 41.2559 49.8812 41.3043 49.8404 41.3451C49.7997 41.3859 49.7513 41.4182 49.698 41.4402C49.6447 41.4623 49.5876 41.4737 49.53 41.4737Z" fill="black"/>
<path opacity="0.3" d="M61.614 36.209H51.958C51.736 36.209 51.556 36.389 51.556 36.611C51.556 36.833 51.736 37.013 51.958 37.013H61.614C61.836 37.013 62.016 36.833 62.016 36.611C62.016 36.389 61.836 36.209 61.614 36.209Z" fill="black"/>
<path opacity="0.3" d="M59.504 38.3184H51.958C51.736 38.3184 51.556 38.4983 51.556 38.7204C51.556 38.9424 51.736 39.1224 51.958 39.1224H59.504C59.726 39.1224 59.906 38.9424 59.906 38.7204C59.906 38.4983 59.726 38.3184 59.504 38.3184Z" fill="black"/>
<path opacity="0.3" d="M61.614 40.4277H51.958C51.736 40.4277 51.556 40.6077 51.556 40.8297C51.556 41.0518 51.736 41.2317 51.958 41.2317H61.614C61.836 41.2317 62.016 41.0518 62.016 40.8297C62.016 40.6077 61.836 40.4277 61.614 40.4277Z" fill="black"/>
<path opacity="0.3" d="M56.129 42.5371H51.958C51.736 42.5371 51.556 42.7171 51.556 42.9391C51.556 43.1611 51.736 43.3411 51.958 43.3411H56.129C56.351 43.3411 56.531 43.1611 56.531 42.9391C56.531 42.7171 56.351 42.5371 56.129 42.5371Z" fill="black"/>
<path opacity="0.3" d="M57.617 12.2704H35.317C35.1241 12.2699 34.9392 12.1931 34.8028 12.0566C34.6664 11.9202 34.5895 11.7354 34.589 11.5424C34.589 11.3494 34.6657 11.1642 34.8022 11.0277C34.9387 10.8912 35.1239 10.8145 35.317 10.8145H57.617C57.7126 10.8145 57.8073 10.8333 57.8956 10.8699C57.9839 10.9065 58.0642 10.9601 58.1318 11.0277C58.1994 11.0953 58.253 11.1755 58.2896 11.2639C58.3262 11.3522 58.345 11.4468 58.345 11.5424C58.3445 11.7354 58.2676 11.9202 58.1312 12.0566C57.9948 12.1931 57.8099 12.2699 57.617 12.2704Z" fill="black"/>
<path opacity="0.3" d="M61.336 16.5793H46.615C46.5089 16.5793 46.4071 16.5372 46.3321 16.4621C46.2571 16.3871 46.215 16.2854 46.215 16.1793C46.215 16.1268 46.2253 16.0748 46.2454 16.0262C46.2655 15.9777 46.295 15.9336 46.3321 15.8965C46.3693 15.8593 46.4134 15.8299 46.4619 15.8098C46.5104 15.7897 46.5625 15.7793 46.615 15.7793H61.336C61.4421 15.7793 61.5438 15.8214 61.6188 15.8965C61.6938 15.9715 61.736 16.0732 61.736 16.1793C61.736 16.2854 61.6938 16.3871 61.6188 16.4621C61.5438 16.5372 61.4421 16.5793 61.336 16.5793Z" fill="black"/>
<path opacity="0.3" d="M59.226 18.6887H46.615C46.5089 18.6887 46.4071 18.6465 46.3321 18.5715C46.2571 18.4965 46.215 18.3948 46.215 18.2887C46.215 18.2362 46.2253 18.1841 46.2454 18.1356C46.2655 18.0871 46.295 18.043 46.3321 18.0058C46.3693 17.9687 46.4134 17.9392 46.4619 17.9191C46.5104 17.899 46.5625 17.8887 46.615 17.8887H59.226C59.2785 17.8887 59.3305 17.899 59.3791 17.9191C59.4276 17.9392 59.4717 17.9687 59.5088 18.0058C59.546 18.043 59.5754 18.0871 59.5955 18.1356C59.6156 18.1841 59.626 18.2362 59.626 18.2887C59.626 18.3948 59.5838 18.4965 59.5088 18.5715C59.4338 18.6465 59.3321 18.6887 59.226 18.6887Z" fill="black"/>
<path opacity="0.3" d="M61.336 20.798H46.615C46.5625 20.798 46.5104 20.7877 46.4619 20.7676C46.4134 20.7475 46.3693 20.718 46.3321 20.6809C46.295 20.6437 46.2655 20.5997 46.2454 20.5511C46.2253 20.5026 46.215 20.4506 46.215 20.3981C46.215 20.292 46.2571 20.1902 46.3321 20.1152C46.4071 20.0402 46.5089 19.998 46.615 19.998H61.336C61.4421 19.998 61.5438 20.0402 61.6188 20.1152C61.6938 20.1902 61.736 20.292 61.736 20.3981C61.736 20.5041 61.6938 20.6059 61.6188 20.6809C61.5438 20.7559 61.4421 20.798 61.336 20.798Z" fill="black"/>
<path opacity="0.3" d="M57.117 22.9074H46.617C46.5644 22.9074 46.5124 22.8971 46.4639 22.877C46.4154 22.8569 46.3713 22.8274 46.3341 22.7903C46.297 22.7531 46.2675 22.709 46.2474 22.6605C46.2273 22.612 46.217 22.56 46.217 22.5074C46.217 22.4013 46.2591 22.2996 46.3341 22.2246C46.4092 22.1496 46.5109 22.1074 46.617 22.1074H57.117C57.2231 22.1074 57.3248 22.1496 57.3998 22.2246C57.4748 22.2996 57.517 22.4013 57.517 22.5074C57.517 22.56 57.5066 22.612 57.4865 22.6605C57.4664 22.709 57.437 22.7531 57.3998 22.7903C57.3627 22.8274 57.3186 22.8569 57.2701 22.877C57.2215 22.8971 57.1695 22.9074 57.117 22.9074Z" fill="black"/>
<path opacity="0.3" d="M47.268 25.4219L47.5 25.8899L48.019 25.9659L47.644 26.3309L47.733 26.8479L47.269 26.6029L46.807 26.8479L46.896 26.3309L46.52 25.9659L47.037 25.8899L47.268 25.4219Z" fill="black"/>
<path opacity="0.3" d="M49.887 25.4219L50.119 25.8899L50.636 25.9659L50.26 26.3309L50.349 26.8479L49.887 26.6029L49.423 26.8479L49.512 26.3309L49.137 25.9659L49.656 25.8899L49.887 25.4219Z" fill="black"/>
<path opacity="0.3" d="M52.505 25.4219L52.737 25.8899L53.256 25.9659L52.881 26.3309L52.97 26.8479L52.506 26.6029L52.042 26.8479L52.131 26.3309L51.758 25.9659L52.275 25.8899L52.505 25.4219Z" fill="black"/>
<path opacity="0.3" d="M55.125 25.4219L55.355 25.8899L55.874 25.9659L55.498 26.3309L55.587 26.8479L55.125 26.6029L54.661 26.8479L54.75 26.3309L54.375 25.9659L54.894 25.8899L55.125 25.4219Z" fill="black"/>
<path opacity="0.3" d="M57.744 25.4219L57.976 25.8899L58.493 25.9659L58.12 26.3309L58.209 26.8479L57.745 26.6029L57.281 26.8479L57.37 26.3309L56.997 25.9659L57.514 25.8899L57.744 25.4219Z" fill="black"/>
<path opacity="0.3" d="M47.268 28.1094L47.5 28.5774L48.019 28.6534L47.644 29.0184L47.733 29.5354L47.269 29.2904L46.807 29.5354L46.896 29.0184L46.52 28.6534L47.037 28.5774L47.268 28.1094Z" fill="black"/>
<path opacity="0.3" d="M49.887 28.1094L50.119 28.5774L50.636 28.6534L50.26 29.0184L50.349 29.5354L49.887 29.2904L49.423 29.5354L49.512 29.0184L49.137 28.6534L49.656 28.5774L49.887 28.1094Z" fill="black"/>
<path opacity="0.3" d="M52.505 28.1094L52.737 28.5774L53.256 28.6534L52.881 29.0184L52.97 29.5354L52.506 29.2904L52.042 29.5354L52.131 29.0184L51.758 28.6534L52.275 28.5774L52.505 28.1094Z" fill="black"/>
<path opacity="0.1" d="M55.125 28.1094L55.355 28.5774L55.874 28.6534L55.498 29.0184L55.587 29.5354L55.125 29.2904L54.661 29.5354L54.75 29.0184L54.375 28.6534L54.894 28.5774L55.125 28.1094Z" fill="black"/>
<path opacity="0.1" d="M57.744 28.1094L57.976 28.5774L58.493 28.6534L58.12 29.0184L58.209 29.5354L57.745 29.2904L57.281 29.5354L57.37 29.0184L56.997 28.6534L57.514 28.5774L57.744 28.1094Z" fill="black"/>
<path opacity="0.3" d="M47.268 30.7969L47.5 31.2649L48.019 31.3409L47.644 31.7059L47.733 32.2229L47.269 31.9779L46.807 32.2229L46.896 31.7059L46.52 31.3409L47.037 31.2649L47.268 30.7969Z" fill="black"/>
<path opacity="0.3" d="M49.887 30.7969L50.119 31.2649L50.636 31.3409L50.26 31.7059L50.349 32.2229L49.887 31.9779L49.423 32.2229L49.512 31.7059L49.137 31.3409L49.656 31.2649L49.887 30.7969Z" fill="black"/>
<path opacity="0.3" d="M52.505 30.7969L52.737 31.2649L53.256 31.3409L52.881 31.7059L52.97 32.2229L52.506 31.9779L52.042 32.2229L52.131 31.7059L51.758 31.3409L52.275 31.2649L52.505 30.7969Z" fill="black"/>
<path opacity="0.3" d="M55.125 30.7969L55.355 31.2649L55.874 31.3409L55.498 31.7059L55.587 32.2229L55.125 31.9779L54.661 32.2229L54.75 31.7059L54.375 31.3409L54.894 31.2649L55.125 30.7969Z" fill="black"/>
<path opacity="0.1" d="M57.744 30.7969L57.976 31.2649L58.493 31.3409L58.12 31.7059L58.209 32.2229L57.745 31.9779L57.281 32.2229L57.37 31.7059L56.997 31.3409L57.514 31.2649L57.744 30.7969Z" fill="black"/>
<path opacity="0.3" d="M49.969 46.7559H46.214V50.5109H49.969V46.7559Z" fill="black"/>
<path opacity="0.3" d="M49.53 52.0205H46.652C46.5944 52.0205 46.5373 52.0092 46.484 51.9871C46.4307 51.9651 46.3823 51.9327 46.3416 51.892C46.3008 51.8512 46.2685 51.8028 46.2464 51.7495C46.2244 51.6963 46.213 51.6392 46.213 51.5815C46.2135 51.4655 46.26 51.3543 46.3423 51.2724C46.4246 51.1905 46.5359 51.1445 46.652 51.1445H49.53C49.6461 51.1445 49.7575 51.1905 49.8397 51.2724C49.922 51.3543 49.9685 51.4655 49.969 51.5815C49.969 51.6392 49.9577 51.6963 49.9356 51.7495C49.9135 51.8028 49.8812 51.8512 49.8404 51.892C49.7997 51.9327 49.7513 51.9651 49.698 51.9871C49.6447 52.0092 49.5876 52.0205 49.53 52.0205Z" fill="black"/>
<path opacity="0.3" d="M61.614 46.7559H51.958C51.736 46.7559 51.556 46.9358 51.556 47.1579C51.556 47.3799 51.736 47.5599 51.958 47.5599H61.614C61.836 47.5599 62.016 47.3799 62.016 47.1579C62.016 46.9358 61.836 46.7559 61.614 46.7559Z" fill="black"/>
<path opacity="0.3" d="M59.504 48.8672H51.958C51.736 48.8672 51.556 49.0472 51.556 49.2692C51.556 49.4912 51.736 49.6712 51.958 49.6712H59.504C59.726 49.6712 59.906 49.4912 59.906 49.2692C59.906 49.0472 59.726 48.8672 59.504 48.8672Z" fill="black"/>
<path opacity="0.3" d="M61.614 50.9746H51.958C51.736 50.9746 51.556 51.1546 51.556 51.3766C51.556 51.5986 51.736 51.7786 51.958 51.7786H61.614C61.836 51.7786 62.016 51.5986 62.016 51.3766C62.016 51.1546 61.836 50.9746 61.614 50.9746Z" fill="black"/>
<path opacity="0.3" d="M56.129 53.0859H51.958C51.736 53.0859 51.556 53.2659 51.556 53.4879C51.556 53.71 51.736 53.8899 51.958 53.8899H56.129C56.351 53.8899 56.531 53.71 56.531 53.4879C56.531 53.2659 56.351 53.0859 56.129 53.0859Z" fill="black"/>
<path d="M43.818 15.7754H30.278V33.7534H43.818V15.7754Z" fill="white"/>
<path d="M43.185 16.4082H30.911V33.1202H43.185V16.4082Z" fill="#407BFF"/>
<path opacity="0.4" d="M43.185 16.4082H30.911V33.1202H43.185V16.4082Z" fill="white"/>
<path d="M43.185 29.3853V33.1193H42.235C41.9712 32.8681 41.6804 32.6467 41.368 32.4593C41.2174 32.3685 41.0558 32.2976 40.887 32.2483C39.455 31.8603 41.52 28.0293 41.52 28.0293C42.1709 28.3488 42.7403 28.8126 43.185 29.3853Z" fill="#407BFF"/>
<path opacity="0.6" d="M43.185 29.3853V33.1193H42.235C41.9712 32.8681 41.6804 32.6467 41.368 32.4593C41.2174 32.3685 41.0558 32.2976 40.887 32.2483C39.455 31.8603 41.52 28.0293 41.52 28.0293C42.1709 28.3488 42.7403 28.8126 43.185 29.3853Z" fill="white"/>
<path opacity="0.2" d="M43.185 33.1064V33.1194H42.231C41.9672 32.8681 41.6764 32.6468 41.364 32.4594L41.647 30.6934C41.9229 30.9222 42.1676 31.1861 42.375 31.4783C42.7355 31.971 43.0095 32.5216 43.185 33.1064Z" fill="black"/>
<path d="M40.556 27.876C40.526 28.028 40.497 28.182 40.463 28.334C40.429 28.486 40.383 28.695 40.339 28.874C40.0636 30.5071 39.2514 32.0016 38.031 33.121H34.31C33.8701 32.8971 33.5121 32.5399 33.2871 32.1005C33.0621 31.6611 32.9816 31.1619 33.057 30.674C33.08 30.018 33.215 29.349 33.268 28.774C33.2847 28.5761 33.2847 28.377 33.268 28.179C33.241 27.879 33.184 27.519 33.114 27.124C32.791 25.287 32.16 22.635 32.481 21.274C32.5599 20.8216 32.7451 20.3944 33.0213 20.0276C33.2976 19.6608 33.657 19.3648 34.07 19.164C34.07 19.164 34.479 19.137 35.108 19.141C35.572 19.141 36.163 19.164 36.781 19.223H36.825C37.5184 19.2855 38.2052 19.4069 38.878 19.586L39.032 19.63C39.165 19.67 39.298 19.712 39.427 19.759C39.511 19.789 39.594 19.82 39.676 19.854C39.7831 19.9004 39.8795 19.9685 39.959 20.054C40.913 21.033 41.149 24.629 40.556 27.876Z" fill="#263238"/>
<path d="M39.445 20.0598C40.785 19.4268 41.363 23.7958 40.884 26.9498" stroke="#263238" stroke-width="0.5" stroke-linecap="round" stroke-linejoin="round"/>
<path d="M42.476 33.1195H32.848C32.808 32.9385 32.768 32.7565 32.726 32.5775C32.4882 31.5276 32.173 30.4968 31.783 29.4935C32.1774 29.2589 32.5893 29.055 33.015 28.8835C33.095 28.8475 33.177 28.8135 33.266 28.7835C33.599 28.6505 33.988 28.5135 34.422 28.3835L34.561 28.3435C34.888 28.2485 35.24 28.1595 35.616 28.0815C36.3998 27.9168 37.1958 27.8165 37.996 27.7815C38.605 27.7529 39.2152 27.7629 39.823 27.8115C40.061 27.8285 40.304 27.8515 40.551 27.8835C40.861 27.9215 41.184 27.9695 41.502 28.0315C42.0355 29.1068 42.3306 30.2846 42.367 31.4845C42.425 31.9655 42.461 32.5095 42.476 33.1195Z" fill="#407BFF"/>
<path d="M34.476 30.2598C34.476 30.2598 33.376 27.5468 36.813 27.2408C40.25 26.9348 40.937 29.0778 40.937 29.0778L39.337 28.5248L38.493 32.4168C37.9506 30.9326 36.8771 29.7023 35.48 28.9638L34.476 30.2598Z" fill="#407BFF"/>
<path opacity="0.6" d="M34.476 30.2598C34.476 30.2598 33.376 27.5468 36.813 27.2408C40.25 26.9348 40.937 29.0778 40.937 29.0778L39.337 28.5248L38.493 32.4168C37.9506 30.9326 36.8771 29.7023 35.48 28.9638L34.476 30.2598Z" fill="white"/>
<path d="M38.354 30.6938C37.4685 29.7753 36.4631 28.9805 35.365 28.3308C35.6817 28.011 35.9031 27.6093 36.0045 27.1708C36.1058 26.7323 36.0832 26.2742 35.939 25.8479C35.8867 25.6313 35.8161 25.4195 35.728 25.2148L38.013 25.7679C37.9426 26.086 37.8955 26.4088 37.872 26.7338C37.8522 26.9731 37.8612 27.2138 37.899 27.4509C38.019 28.1509 38.412 28.1788 38.412 28.1788C38.5994 29.0092 38.5795 29.873 38.354 30.6938Z" fill="#E4897B"/>
<path opacity="0.2" d="M37.879 26.7328C37.8591 26.972 37.8682 27.2128 37.906 27.4498C37.4861 27.3317 37.0948 27.1288 36.7563 26.8536C36.4178 26.5784 36.1393 26.2368 35.938 25.8498C35.8857 25.6332 35.8151 25.4214 35.727 25.2168L38.012 25.7698C37.9444 26.0872 37.9 26.409 37.879 26.7328Z" fill="black"/>
<path d="M37.156 19.2129C39.643 19.2129 39.856 20.4129 39.996 22.4869C40.173 25.0779 39.596 26.9169 37.083 26.3559C33.671 25.5989 33.816 19.2129 37.156 19.2129Z" fill="#E4897B"/>
<path d="M38.696 22.373C38.8556 22.6766 39.051 22.96 39.278 23.2171C39.2196 23.3006 39.1391 23.3662 39.0454 23.4064C38.9518 23.4467 38.8488 23.4601 38.748 23.4451L38.696 22.373Z" fill="#DE5753"/>
<path d="M37.466 22.2101C37.466 22.3771 37.384 22.5101 37.272 22.5101C37.16 22.5101 37.061 22.3811 37.061 22.2101C37.061 22.0391 37.143 21.9102 37.253 21.9102C37.363 21.9102 37.462 22.0401 37.466 22.2101Z" fill="#263238"/>
<path d="M37.215 21.9195L37.572 21.7695C37.572 21.7695 37.399 22.0755 37.215 21.9195Z" fill="#263238"/>
<path d="M39.518 22.1262C39.518 22.2932 39.436 22.4262 39.324 22.4262C39.212 22.4262 39.113 22.2972 39.113 22.1262C39.113 21.9552 39.195 21.8262 39.305 21.8262C39.415 21.8262 39.514 21.9622 39.518 22.1262Z" fill="#263238"/>
<path d="M39.267 21.8433L39.621 21.6953C39.621 21.6953 39.461 22.0033 39.267 21.8433Z" fill="#263238"/>
<path d="M37.448 20.8166C37.2893 20.7969 37.1281 20.8137 36.9768 20.8657C36.8256 20.9177 36.6881 21.0035 36.575 21.1166" stroke="#263238" stroke-width="0.708" stroke-linecap="round" stroke-linejoin="round"/>
<path d="M38.911 20.7372C39.0483 20.7027 39.1916 20.6998 39.3302 20.7287C39.4688 20.7576 39.599 20.8177 39.711 20.9043" stroke="#263238" stroke-width="0.708" stroke-linecap="round" stroke-linejoin="round"/>
<path d="M34.993 22.7173C35.5043 21.8259 35.7797 20.8188 35.793 19.7913C36.2435 19.37 36.8364 19.1342 37.4532 19.1311C38.0699 19.1279 38.6652 19.3576 39.12 19.7743C39.5575 20.526 39.8441 21.3558 39.964 22.2173C39.964 22.2173 40.364 18.6313 36.905 18.5403C33.446 18.4493 33.458 23.5083 35.238 25.0193C35.0136 24.6842 34.874 24.2996 34.8313 23.8985C34.7886 23.4975 34.8441 23.0921 34.993 22.7173Z" fill="#263238"/>
<path d="M35.32 23.1406C35.3006 22.9082 35.1902 22.6929 35.0128 22.5416C34.8355 22.3903 34.6055 22.3151 34.373 22.3326C33.74 22.4006 33.449 23.6786 35.006 23.9886C35.221 24.0336 35.348 23.8166 35.32 23.1406Z" fill="#E4897B"/>
<path d="M38.476 24.5337C38.243 24.5859 37.9993 24.5588 37.7834 24.4568C37.5675 24.3549 37.3917 24.1838 37.284 23.9707" stroke="#263238" stroke-width="0.708" stroke-linecap="round" stroke-linejoin="round"/>
<path d="M35.797 19.7922C35.797 19.7922 38.097 18.7732 39.615 20.1192C39.6953 19.8682 39.7209 19.6029 39.6901 19.3412C39.6592 19.0795 39.5725 18.8275 39.436 18.6021C39.2994 18.3767 39.1161 18.1832 38.8984 18.0347C38.6807 17.8862 38.4337 17.7861 38.174 17.7412C36.136 17.1362 34.064 19.1732 34.064 19.1732L35.797 19.7922Z" fill="#263238"/>
<path d="M35.797 19.7918C35.3439 20.3372 35.008 20.9702 34.8105 21.6512C34.613 22.3322 34.558 23.0466 34.649 23.7498C34.8648 25.7526 34.666 27.7783 34.065 29.7008C33.9752 29.8962 33.9258 30.1076 33.9198 30.3226C33.9139 30.5375 33.9514 30.7514 34.0303 30.9514C34.1091 31.1514 34.2276 31.3334 34.3786 31.4864C34.5296 31.6394 34.71 31.7603 34.909 31.8418C34.6999 31.8962 34.4816 31.9051 34.2687 31.8679C34.0559 31.8308 33.8535 31.7485 33.6752 31.6265C33.4968 31.5046 33.3467 31.3458 33.2349 31.1609C33.1231 30.9761 33.0522 30.7694 33.027 30.5548C32.816 29.4548 33.318 27.0828 33.065 24.2548C32.812 21.4268 33.826 19.4228 35.797 19.7918Z" fill="#263238"/>
<path opacity="0.2" d="M33.292 33.1202H32.847C32.807 32.9392 32.767 32.7572 32.725 32.5782L33.06 32.2852C33.1547 32.5584 33.2322 32.8373 33.292 33.1202Z" fill="black"/>
<path d="M33.063 33.119H30.911V30.1671C31.1771 29.9149 31.4682 29.6908 31.78 29.498C32.0896 29.6288 32.3601 29.8374 32.5653 30.1035C32.7705 30.3697 32.9033 30.6844 32.951 31.017C33.0133 31.4364 33.0494 31.8592 33.059 32.2831C33.069 32.5831 33.067 32.872 33.063 33.119Z" fill="#407BFF"/>
<path opacity="0.6" d="M33.063 33.119H30.911V30.1671C31.1771 29.9149 31.4682 29.6908 31.78 29.498C32.0896 29.6288 32.3601 29.8374 32.5653 30.1035C32.7705 30.3697 32.9033 30.6844 32.951 31.017C33.0133 31.4364 33.0494 31.8592 33.059 32.2831C33.069 32.5831 33.067 32.872 33.063 33.119Z" fill="white"/>
<path opacity="0.3" d="M43.818 35.8477H30.278V53.8007H43.818V35.8477Z" fill="black"/>
<path opacity="0.3" d="M41.542 38.6301H32.308C32.2019 38.6301 32.1002 38.5879 32.0251 38.5129C31.9501 38.4379 31.908 38.3362 31.908 38.2301C31.908 38.124 31.9501 38.0222 32.0251 37.9472C32.1002 37.8722 32.2019 37.8301 32.308 37.8301H41.542C41.6481 37.8301 41.7498 37.8722 41.8248 37.9472C41.8999 38.0222 41.942 38.124 41.942 38.2301C41.942 38.3362 41.8999 38.4379 41.8248 38.5129C41.7498 38.5879 41.6481 38.6301 41.542 38.6301Z" fill="white"/>
<path opacity="0.3" d="M41.543 40.0723H32.309C32.087 40.0723 31.907 40.2522 31.907 40.4743C31.907 40.6963 32.087 40.8763 32.309 40.8763H41.543C41.765 40.8763 41.945 40.6963 41.945 40.4743C41.945 40.2522 41.765 40.0723 41.543 40.0723Z" fill="white"/>
<path opacity="0.3" d="M37.322 43.1184H32.307C32.2009 43.1184 32.0992 43.0762 32.0241 43.0012C31.9491 42.9262 31.907 42.8245 31.907 42.7184C31.907 42.6123 31.9491 42.5105 32.0241 42.4355C32.0992 42.3605 32.2009 42.3184 32.307 42.3184H37.322C37.3745 42.3184 37.4265 42.3287 37.4751 42.3488C37.5236 42.3689 37.5677 42.3984 37.6048 42.4355C37.642 42.4727 37.6714 42.5168 37.6915 42.5653C37.7116 42.6138 37.722 42.6659 37.722 42.7184C37.722 42.7709 37.7116 42.8229 37.6915 42.8715C37.6714 42.92 37.642 42.9641 37.6048 43.0012C37.5677 43.0384 37.5236 43.0678 37.4751 43.0879C37.4265 43.108 37.3745 43.1184 37.322 43.1184Z" fill="white"/>
<path opacity="0.3" d="M41.542 45.3664H32.308C32.2019 45.3664 32.1002 45.3243 32.0251 45.2492C31.9501 45.1742 31.908 45.0725 31.908 44.9664C31.908 44.8603 31.9501 44.7586 32.0251 44.6836C32.1002 44.6085 32.2019 44.5664 32.308 44.5664H41.542C41.6481 44.5664 41.7498 44.6085 41.8248 44.6836C41.8999 44.7586 41.942 44.8603 41.942 44.9664C41.942 45.0725 41.8999 45.1742 41.8248 45.2492C41.7498 45.3243 41.6481 45.3664 41.542 45.3664Z" fill="white"/>
<path opacity="0.3" d="M41.542 47.6105H32.308C32.2019 47.6105 32.1002 47.5684 32.0251 47.4934C31.9501 47.4184 31.908 47.3166 31.908 47.2105C31.908 47.1045 31.9501 47.0027 32.0251 46.9277C32.1002 46.8527 32.2019 46.8105 32.308 46.8105H41.542C41.6481 46.8105 41.7498 46.8527 41.8248 46.9277C41.8999 47.0027 41.942 47.1045 41.942 47.2105C41.942 47.3166 41.8999 47.4184 41.8248 47.4934C41.7498 47.5684 41.6481 47.6105 41.542 47.6105Z" fill="white"/>
<path opacity="0.3" d="M35.217 49.8488H32.317C32.2109 49.8488 32.1092 49.8067 32.0341 49.7317C31.9591 49.6566 31.917 49.5549 31.917 49.4488C31.917 49.3427 31.9591 49.241 32.0341 49.166C32.1092 49.091 32.2109 49.0488 32.317 49.0488H35.217C35.3231 49.0488 35.4248 49.091 35.4998 49.166C35.5748 49.241 35.617 49.3427 35.617 49.4488C35.617 49.5549 35.5748 49.6566 35.4998 49.7317C35.4248 49.8067 35.3231 49.8488 35.217 49.8488Z" fill="white"/>
<path opacity="0.3" d="M39.432 52.1028H32.308C32.2019 52.1028 32.1002 52.0606 32.0251 51.9856C31.9501 51.9106 31.908 51.8088 31.908 51.7028C31.908 51.5967 31.9501 51.4949 32.0251 51.4199C32.1002 51.3449 32.2019 51.3027 32.308 51.3027H39.432C39.5381 51.3027 39.6398 51.3449 39.7148 51.4199C39.7899 51.4949 39.832 51.5967 39.832 51.7028C39.832 51.8088 39.7899 51.9106 39.7148 51.9856C39.6398 52.0606 39.5381 52.1028 39.432 52.1028Z" fill="white"/>
<path d="M73.96 50.4597C73.7813 50.3888 73.5882 50.3616 73.3969 50.3804C73.2055 50.3992 73.0215 50.4634 72.86 50.5677C71.837 51.1517 71.409 53.5527 71.229 55.4197C71.294 52.7717 71.729 49.1098 73.465 47.1198L73.307 46.9828C71.853 48.6498 71.288 51.3827 71.092 53.7827C71.065 52.7617 71.001 51.6568 70.866 50.6038C70.912 48.3448 71.109 46.2938 71.625 45.5958L71.454 45.4688C70.9015 46.7304 70.6404 48.1003 70.69 49.4767C70.567 48.3265 70.1075 47.2381 69.369 46.3477L69.228 46.5017C70 47.2127 70.428 48.8347 70.65 50.6277C70.65 50.8807 70.65 51.1388 70.639 51.3958C70.5569 50.582 70.2726 49.8016 69.812 49.1258C69.4485 48.8065 68.9813 48.6305 68.4975 48.6305C68.0137 48.6305 67.5465 48.8065 67.183 49.1258L67.318 49.2858C67.6407 48.9975 68.0583 48.8382 68.491 48.8382C68.9237 48.8382 69.3412 48.9975 69.664 49.2858C70.132 49.7398 70.442 51.2228 70.645 52.7858C70.672 54.6608 70.765 56.4248 70.829 57.4498C70.8293 57.538 70.8243 57.6261 70.814 57.7137H70.846C70.869 58.0677 70.886 58.2957 70.89 58.3467L71.076 58.3318C71.0772 58.4132 71.0842 58.4944 71.097 58.5748L71.308 58.5558C71.308 58.5388 71.276 58.2268 71.253 57.7118H71.318C71.318 57.6528 71.388 51.6568 72.974 50.7498C73.1081 50.6613 73.2616 50.6066 73.4214 50.59C73.5812 50.5735 73.7426 50.5957 73.892 50.6548C74.82 51.0388 75.316 52.8147 75.32 52.8337L75.531 52.7768C75.49 52.6998 74.982 50.8837 73.96 50.4597Z" fill="#263238"/>
<path d="M68.474 50.6505C67.552 50.7155 66.839 51.9625 66.807 52.0155L66.993 52.1155C66.993 52.1025 67.681 50.9155 68.493 50.8495C68.6868 50.8528 68.8766 50.9051 69.0448 51.0014C69.213 51.0977 69.3541 51.235 69.455 51.4005C70.7 53.0275 70.449 57.6475 70.447 57.6935L70.658 57.7065C70.658 57.5125 70.915 52.9595 69.622 51.2745C69.4999 51.0811 69.3302 50.9222 69.1293 50.8129C68.9283 50.7037 68.7027 50.6478 68.474 50.6505Z" fill="#263238"/>
<g opacity="0.2">
<path opacity="0.2" d="M73.961 50.4597C73.7823 50.3888 73.5892 50.3616 73.3979 50.3804C73.2066 50.3992 73.0225 50.4634 72.861 50.5677C71.838 51.1517 71.41 53.5527 71.23 55.4197C71.295 52.7717 71.73 49.1098 73.466 47.1198L73.308 46.9828C71.854 48.6498 71.289 51.3827 71.093 53.7827C71.066 52.7617 71.002 51.6568 70.867 50.6038C70.913 48.3448 71.11 46.2938 71.626 45.5958L71.455 45.4688C70.9025 46.7304 70.6414 48.1003 70.691 49.4767C70.568 48.3265 70.1085 47.2381 69.37 46.3477L69.229 46.5017C70.001 47.2127 70.429 48.8347 70.651 50.6277C70.651 50.8807 70.651 51.1388 70.64 51.3958C70.5579 50.582 70.2736 49.8016 69.813 49.1258C69.4495 48.8065 68.9823 48.6305 68.4985 48.6305C68.0147 48.6305 67.5475 48.8065 67.184 49.1258L67.319 49.2858C67.6417 48.9975 68.0593 48.8382 68.492 48.8382C68.9247 48.8382 69.3422 48.9975 69.665 49.2858C70.133 49.7398 70.443 51.2228 70.646 52.7858C70.673 54.6608 70.766 56.4248 70.83 57.4498C70.8303 57.538 70.8253 57.6261 70.815 57.7137H70.847C70.87 58.0677 70.887 58.2957 70.891 58.3467L71.077 58.3318C71.0782 58.4132 71.0852 58.4944 71.098 58.5748L71.309 58.5558C71.309 58.5388 71.277 58.2268 71.254 57.7118H71.319C71.319 57.6528 71.389 51.6568 72.975 50.7498C73.1091 50.6613 73.2626 50.6066 73.4224 50.59C73.5822 50.5735 73.7436 50.5957 73.893 50.6548C74.821 51.0388 75.317 52.8147 75.321 52.8337L75.532 52.7768C75.491 52.6998 74.983 50.8837 73.961 50.4597Z" fill="white"/>
<path opacity="0.2" d="M68.474 50.6524C67.552 50.7174 66.839 51.9644 66.807 52.0174L66.993 52.1174C66.993 52.1044 67.681 50.9174 68.493 50.8514C68.6868 50.8548 68.8766 50.907 69.0448 51.0034C69.213 51.0997 69.3541 51.237 69.455 51.4024C70.7 53.0294 70.449 57.6494 70.447 57.6954L70.658 57.7084C70.658 57.5144 70.915 52.9614 69.622 51.2764C69.4999 51.083 69.3302 50.9241 69.1293 50.8149C68.9283 50.7056 68.7027 50.6497 68.474 50.6524Z" fill="white"/>
</g>
<path d="M74.327 51.5483C74.327 51.5483 73.502 51.8483 73.747 52.5713C73.992 53.2943 76.603 54.4713 76.603 54.4713C76.9303 54.1158 77.1194 53.6547 77.1361 53.1717C77.1528 52.6887 76.996 52.2156 76.694 51.8383C75.69 50.2073 74.351 51.0343 74.327 51.5483Z" fill="#263238"/>
<path d="M70.737 50.1793C70.737 50.1793 71.617 50.1413 71.667 50.9003C71.717 51.6593 69.767 53.7543 69.767 53.7543C69.3266 53.5523 68.9734 53.1989 68.7715 52.7585C68.5696 52.318 68.5326 51.8198 68.667 51.3543C68.969 49.4663 70.52 49.7133 70.737 50.1793Z" fill="#263238"/>
<path d="M69.992 46.5495C69.992 46.5495 70.579 46.4865 70.532 46.1275C70.485 45.7685 68.252 44.8515 66.946 46.3385C66.946 46.3385 67.79 47.7855 69.009 47.8045C70.228 47.8235 69.992 46.5495 69.992 46.5495Z" fill="#263238"/>
<path d="M71.085 45.6828C71.085 45.6828 70.555 45.9398 70.406 45.6108C70.257 45.2818 71.672 43.3218 73.57 43.8868C73.5898 44.3236 73.5128 44.7594 73.3446 45.1631C73.1764 45.5667 72.9211 45.9282 72.597 46.2218C71.574 46.8828 71.085 45.6828 71.085 45.6828Z" fill="#263238"/>
<path d="M68.309 51.2594C68.309 51.2594 68.714 50.9324 68.277 50.7724C67.9699 50.6909 67.6483 50.6812 67.3369 50.744C67.0255 50.8068 66.7327 50.9405 66.4813 51.1346C66.2299 51.3288 66.0266 51.5783 65.8871 51.8637C65.7476 52.1491 65.6757 52.4627 65.677 52.7804C65.677 52.7804 68.177 53.2024 68.477 52.3884C68.777 51.5744 68.309 51.2594 68.309 51.2594Z" fill="#263238"/>
<path d="M73.399 46.4977C73.399 46.4977 72.994 46.1707 73.431 46.0107C73.738 45.9292 74.0597 45.9194 74.3711 45.9823C74.6825 46.0451 74.9753 46.1787 75.2267 46.3729C75.4781 46.5671 75.6814 46.8165 75.8209 47.1019C75.9604 47.3874 76.0323 47.701 76.031 48.0187C76.031 48.0187 73.531 48.4407 73.231 47.6267C72.931 46.8127 73.399 46.4977 73.399 46.4977Z" fill="#263238"/>
<path d="M72.079 48.2061C72.079 48.2061 72.043 47.8061 72.364 47.9651C72.572 48.0909 72.7484 48.2627 72.8795 48.4675C73.0105 48.6722 73.0928 48.9043 73.12 49.1459C73.1471 49.3875 73.1184 49.6321 73.0361 49.8608C72.9537 50.0895 72.8199 50.2963 72.645 50.4651C72.645 50.4651 71.086 49.3111 71.367 48.7101C71.648 48.1091 72.079 48.2061 72.079 48.2061Z" fill="#263238"/>
<path d="M67.942 48.7733C67.942 48.7733 68.182 48.4543 67.83 48.4163C67.5865 48.4116 67.3451 48.4629 67.1246 48.5663C66.904 48.6697 66.7102 48.8223 66.5581 49.0125C66.406 49.2027 66.2996 49.4254 66.2472 49.6632C66.1948 49.9011 66.1978 50.1478 66.256 50.3843C66.256 50.3843 68.191 50.2383 68.273 49.5843C68.355 48.9303 67.942 48.7733 67.942 48.7733Z" fill="#263238"/>
<path d="M74.48 63.5961H67.843L67.128 56.3301H75.197L74.48 63.5961Z" fill="#407BFF"/>
<path opacity="0.2" d="M74.48 63.5961H67.843L67.128 56.3301H75.197L74.48 63.5961Z" fill="white"/>
<path d="M75.553 55.5293H66.775V57.1323H75.553V55.5293Z" fill="#407BFF"/>
<path opacity="0.5" d="M75.553 55.5293H66.775V57.1323H75.553V55.5293Z" fill="white"/>
</svg>
