<svg width="140" height="140" viewBox="0 0 140 140" fill="none" xmlns="http://www.w3.org/2000/svg">
<path d="M140 125.215H0V125.297H140V125.215Z" fill="#EBEBEB"/>
<path d="M125.972 130.483H116.698V130.565H125.972V130.483Z" fill="#EBEBEB"/>
<path d="M92.7418 131.374H90.3086V131.456H92.7418V131.374Z" fill="#EBEBEB"/>
<path d="M116.418 127.445H111.045V127.527H116.418V127.445Z" fill="#EBEBEB"/>
<path d="M26.7817 127.994H14.6885V128.076H26.7817V127.994Z" fill="#EBEBEB"/>
<path d="M31.0497 127.994H29.2773V128.076H31.0497V127.994Z" fill="#EBEBEB"/>
<path d="M63.0419 129.377H36.8115V129.459H63.0419V129.377Z" fill="#EBEBEB"/>
<path d="M66.3604 110.611H12.2952C11.8717 110.61 11.4657 110.413 11.1665 110.062C10.8673 109.712 10.6992 109.237 10.6992 108.741V19.8641C10.7029 19.3716 10.8726 18.9007 11.1714 18.5537C11.4703 18.2067 11.8741 18.0116 12.2952 18.0107H66.3604C66.7844 18.0107 67.1911 18.2077 67.4909 18.5584C67.7908 18.909 67.9592 19.3846 67.9592 19.8804V108.741C67.9592 109.237 67.7908 109.713 67.4909 110.063C67.1911 110.414 66.7844 110.611 66.3604 110.611V110.611ZM12.2952 18.0762C11.8902 18.0771 11.5021 18.2658 11.216 18.601C10.9299 18.9362 10.7692 19.3905 10.7692 19.8641V108.741C10.7692 109.215 10.9299 109.669 11.216 110.004C11.5021 110.339 11.8902 110.528 12.2952 110.529H66.3604C66.7657 110.528 67.1541 110.34 67.4406 110.004C67.7272 109.669 67.8885 109.215 67.8892 108.741V19.8641C67.8885 19.3902 67.7272 18.9359 67.4406 18.6008C67.1541 18.2657 66.7657 18.0771 66.3604 18.0762H12.2952Z" fill="#EBEBEB"/>
<path d="M126.927 110.611H72.8586C72.4348 110.61 72.0285 110.413 71.7289 110.062C71.4292 109.712 71.2605 109.237 71.2598 108.741V19.8641C71.2642 19.3713 71.4345 18.9004 71.7338 18.5535C72.033 18.2066 72.4372 18.0116 72.8586 18.0107H126.927C127.347 18.0124 127.75 18.2079 128.049 18.5549C128.347 18.9018 128.516 19.3722 128.52 19.8641V108.741C128.52 109.236 128.352 109.711 128.053 110.061C127.755 110.411 127.35 110.609 126.927 110.611V110.611ZM72.8586 18.0762C72.4533 18.0771 72.0649 18.2657 71.7784 18.6008C71.4918 18.9359 71.3305 19.3902 71.3298 19.8641V108.741C71.3305 109.215 71.4918 109.669 71.7784 110.004C72.0649 110.34 72.4533 110.528 72.8586 110.529H126.927C127.332 110.528 127.72 110.34 128.007 110.004C128.293 109.669 128.455 109.215 128.455 108.741V19.8641C128.455 19.3902 128.293 18.9359 128.007 18.6008C127.72 18.2657 127.332 18.0771 126.927 18.0762H72.8586Z" fill="#EBEBEB"/>
<path d="M21.1846 95.1523H41.1206C41.5809 95.1523 42.0368 95.2584 42.4621 95.4644C42.8874 95.6704 43.2739 95.9724 43.5994 96.3531C43.9249 96.7338 44.1832 97.1857 44.3593 97.6831C44.5355 98.1805 44.6262 98.7135 44.6262 99.2519V120.208C44.6262 121.295 44.2568 122.338 43.5994 123.107C42.942 123.876 42.0503 124.308 41.1206 124.308H21.1846V95.1654V95.1523Z" fill="#F0F0F0"/>
<path d="M21.3497 95.1523H21.0193C19.0832 95.1523 17.5137 96.9878 17.5137 99.2519V120.195C17.5137 122.459 19.0832 124.295 21.0193 124.295H21.3497C23.2858 124.295 24.8553 122.459 24.8553 120.195V99.2519C24.8553 96.9878 23.2858 95.1523 21.3497 95.1523Z" fill="#F5F5F5"/>
<path d="M23.8536 124.294H49.874V105.902H23.8536L23.8536 124.294Z" fill="#F0F0F0"/>
<path d="M21.7168 125.214H68.614C68.8044 125.213 68.9867 125.124 69.121 124.966C69.2554 124.809 69.3308 124.595 69.3308 124.373V124.294H41.132L21 124.373C21 124.595 21.0754 124.809 21.2098 124.966C21.3441 125.124 21.5264 125.213 21.7168 125.214Z" fill="#E0E0E0"/>
<path d="M42.257 83.0634H66.4658C67.092 83.0496 67.7135 83.1922 68.2888 83.4816C68.8642 83.771 69.3801 84.2006 69.8022 84.7416C70.2244 85.2827 70.543 85.9228 70.7368 86.6193C70.9306 87.3158 70.9951 88.0526 70.9262 88.7805L69.3302 110.064H35.3438L36.9369 88.7805C37.0724 87.2316 37.6885 85.7944 38.6689 84.7409C39.6492 83.6874 40.9257 83.0906 42.257 83.0634V83.0634Z" fill="#E0E0E0"/>
<path d="M38.4329 83.0632H63.1149C63.7105 83.0517 64.3014 83.1885 64.8484 83.4645C65.3954 83.7405 65.8859 84.1494 66.2873 84.6641C66.6888 85.1788 66.992 85.7875 67.1769 86.4498C67.3618 87.112 67.4241 87.8127 67.3597 88.5052L65.7441 110.061H31.7549L33.3705 88.5052C33.4991 87.031 34.0853 85.6631 35.0181 84.6602C35.951 83.6574 37.1659 83.0892 38.4329 83.0632V83.0632Z" fill="#F5F5F5"/>
<path d="M25.9395 104.222H46.5503C47.1355 104.222 47.6967 104.494 48.1105 104.977C48.5243 105.461 48.7567 106.118 48.7567 106.802V109.13C48.7571 109.469 48.7003 109.805 48.5896 110.118C48.4789 110.432 48.3164 110.717 48.1115 110.957C47.9066 111.197 47.6632 111.387 47.3953 111.517C47.1275 111.647 46.8403 111.714 46.5503 111.714H25.9395C25.09 111.714 24.2752 111.319 23.6745 110.616C23.0738 109.914 22.7363 108.961 22.7363 107.968V107.968C22.7363 106.974 23.0738 106.021 23.6745 105.319C24.2752 104.616 25.09 104.222 25.9395 104.222V104.222Z" fill="#E0E0E0"/>
<path d="M49.9883 95.1523H69.9243C70.854 95.1523 71.7457 95.5843 72.4031 96.3531C73.0605 97.1219 73.4299 98.1646 73.4299 99.2519V120.208C73.4299 121.295 73.0605 122.338 72.4031 123.107C71.7457 123.876 70.854 124.308 69.9243 124.308H49.9883V95.1654V95.1523Z" fill="#F0F0F0"/>
<path d="M50.1534 95.1523H49.823C47.8869 95.1523 46.3174 96.9878 46.3174 99.2519V120.195C46.3174 122.459 47.8869 124.295 49.823 124.295H50.1534C52.0895 124.295 53.659 122.459 53.659 120.195V99.2519C53.659 96.9878 52.0895 95.1523 50.1534 95.1523Z" fill="#F5F5F5"/>
<path d="M105.003 79.1338H85.8369V125.215H105.003V79.1338Z" fill="#F0F0F0"/>
<path d="M88.7041 121.626V82.7227H88.2617V121.626H88.7041Z" fill="#E6E6E6"/>
<path d="M102.178 82.7227H88.2617V83.3775H102.178V82.7227Z" fill="#E6E6E6"/>
<path d="M124.611 79.1338H105.445V125.215H124.611V79.1338Z" fill="#F0F0F0"/>
<path d="M124.614 125.215H127.15V79.1341H124.614V125.215Z" fill="#E0E0E0"/>
<path d="M108.312 121.626V82.7227H107.87V121.626H108.312Z" fill="#E6E6E6"/>
<path d="M105.448 125.215V79.6582H105.006V125.215H105.448Z" fill="#E6E6E6"/>
<path d="M121.786 82.7227H107.87V83.3775H121.786V82.7227Z" fill="#E6E6E6"/>
<path d="M104.163 89.3281H103.211V99.5115H104.163V89.3281Z" fill="#E0E0E0"/>
<path d="M107.237 89.3281H106.285V99.5115H107.237V89.3281Z" fill="#E0E0E0"/>
<path d="M119.312 31.0811H21.5859V71.8441H119.312V31.0811Z" fill="#E0E0E0"/>
<path d="M118.415 31.0811H20.6895V71.8441H118.415V31.0811Z" fill="#F0F0F0"/>
<path d="M115.483 68.4172V34.5107L23.621 34.5107V68.4172H115.483Z" fill="#FAFAFA"/>
<path d="M38.5332 68.4172L44.6204 34.5107H58.0576L51.9704 68.4172H38.5332Z" fill="white"/>
<path d="M57.6406 68.4172L63.7278 34.5107H70.4478L64.3578 68.4172H57.6406Z" fill="white"/>
<path d="M98.666 68.4172L104.753 34.5107H111.473L105.383 68.4172H98.666Z" fill="white"/>
<path d="M70.0001 140C99.9832 140 124.289 138.341 124.289 136.294C124.289 134.246 99.9832 132.587 70.0001 132.587C40.017 132.587 15.7109 134.246 15.7109 136.294C15.7109 138.341 40.017 140 70.0001 140Z" fill="#F5F5F5"/>
<path d="M46.4796 37.863C47.1852 35.9736 40.9356 34.2611 39.0456 40.083C37.332 45.3646 34.4872 46.7137 35.8256 50.3712C37.2732 54.33 45.4632 54.8047 49.0192 50.417C51.9032 46.8578 48.7728 45.3581 49.176 42.0116C49.5792 38.6652 48.7336 37.5748 46.4796 37.863Z" fill="#263238"/>
<path d="M35.0956 49.1985C34.7708 47.1356 35.426 46.2843 36.2548 45.207C37.3748 43.8779 38.1421 42.1983 38.464 40.3707C38.6309 39.3726 39.0577 38.4593 39.6857 37.7559C40.3138 37.0525 41.1125 36.5933 41.9724 36.4414C43.8204 36.0419 45.7776 36.7492 46.2956 37.6464C46.3781 37.7728 46.4251 37.926 46.4301 38.0849C46.4351 38.2438 46.3979 38.4006 46.3236 38.5337L46.0884 38.3569C46.1337 38.2778 46.1557 38.1835 46.1512 38.0884C46.1466 37.9933 46.1157 37.9025 46.0632 37.8297C45.604 37.0308 43.7392 36.3923 42.0256 36.7656C40.802 37.0308 39.2256 37.8821 38.7384 40.4427C38.4066 42.325 37.616 44.0548 36.462 45.4231C35.6556 46.4709 35.062 47.2306 35.3728 49.1363L35.0956 49.1985Z" fill="#263238"/>
<path d="M31.2451 47.6299L31.0715 46.9751C30.9517 46.53 30.7345 46.1293 30.4415 45.8127L29.8815 45.2167C29.7044 45.0252 29.4756 44.9122 29.2347 44.8972C28.9939 44.8823 28.7561 44.9663 28.5627 45.1349L27.9635 45.6588C27.854 45.7545 27.7618 45.8747 27.6923 46.0123C27.6228 46.15 27.5773 46.3025 27.5586 46.4609C27.5398 46.6192 27.5482 46.7804 27.5831 46.935C27.618 47.0896 27.6787 47.2345 27.7619 47.3614L28.1483 47.9508C28.1483 47.9508 29.0555 49.7452 30.3687 50.3674L30.6711 50.0661C30.9604 49.7705 31.1691 49.382 31.2711 48.9489C31.3732 48.5158 31.3641 48.0571 31.2451 47.6299Z" fill="#FFC3BD"/>
<path d="M42.1287 58.9996L41.9495 59.16L41.8039 59.2845L41.5239 59.5137C41.3363 59.6577 41.1459 59.792 40.9639 59.923C40.5829 60.179 40.1904 60.4108 39.7879 60.6171C38.9604 61.044 38.0902 61.3476 37.1979 61.5209C36.2558 61.706 35.2943 61.7127 34.3503 61.5405C33.8673 61.4517 33.3928 61.308 32.9335 61.1116C32.8187 61.069 32.7039 61.0133 32.5919 60.9577L32.4239 60.8758L32.3399 60.8332L32.2475 60.7874L32.1299 60.7219C31.8856 60.5755 31.6602 60.3892 31.4607 60.1685C31.3173 60.0125 31.1853 59.8427 31.0659 59.661C30.7491 59.1586 30.4929 58.6078 30.3043 58.0238C30.1363 57.5392 30.0075 57.0742 29.8927 56.6191C29.6839 55.7383 29.5147 54.8454 29.3859 53.9439C29.1302 52.2017 28.987 50.4395 28.9575 48.6721C28.9229 48.3413 28.9974 48.0074 29.1659 47.7386C29.3344 47.4697 29.5842 47.2862 29.8644 47.2252C30.1446 47.1643 30.4342 47.2305 30.6741 47.4106C30.914 47.5906 31.0861 47.8708 31.1555 48.194V48.2301C31.6427 49.7985 32.1103 51.4062 32.6031 52.9321C32.8579 53.6918 33.1043 54.4482 33.3843 55.1358C33.5187 55.4796 33.6643 55.807 33.8015 56.0919C33.8949 56.3006 34.0148 56.4916 34.1571 56.6584C34.1571 56.6584 34.1571 56.6584 34.1375 56.6125C34.073 56.5343 33.9972 56.47 33.9135 56.4226L33.8603 56.3899C33.8435 56.3899 33.8099 56.367 33.8295 56.3735H33.8743L33.9611 56.3997C34.0189 56.4207 34.0778 56.4371 34.1375 56.4488C34.3739 56.504 34.6135 56.5379 34.8543 56.5503C35.3584 56.5684 35.8623 56.5067 36.3523 56.367C36.89 56.2084 37.4133 55.989 37.9147 55.7121C38.1751 55.5745 38.4327 55.4141 38.6847 55.2537C38.8107 55.1718 38.9339 55.0834 39.0515 54.9983L39.3315 54.7887L39.5499 54.6282C40.0419 54.2625 40.636 54.1339 41.2073 54.2694C41.7787 54.405 42.2829 54.7941 42.6141 55.3552C42.9453 55.9163 43.0777 56.6056 42.9836 57.2784C42.8894 57.9512 42.576 58.5552 42.1091 58.9636L42.1287 58.9996Z" fill="#FFC3BD"/>
<path d="M47.0405 134.864C48.8129 134.18 50.3053 132.779 50.0057 130.319C49.8741 129.265 52.7665 128.853 52.7665 128.853C52.4389 132.202 52.7973 132.782 53.1417 133.538C53.4861 134.295 53.4665 135.221 52.8617 135.303C52.1449 135.405 51.9853 135.303 51.0949 135.45C50.0533 135.611 49.3785 136.246 47.2981 136.246C46.1753 136.246 46.4805 135.08 47.0405 134.864Z" fill="#9269AD"/>
<path d="M52.4301 99.0846C52.6345 82.3065 51.3101 73.1611 51.3101 73.1611L40.6953 73.78C40.6953 73.78 42.2661 89.1304 45.0549 100.437C45.7997 106.504 47.4769 116.766 48.6389 123.659C50.3631 123.486 52.0677 123.109 53.7265 122.533C54.1325 116.478 54.2053 107.726 52.4301 99.0846Z" fill="#9269AD"/>
<path d="M52.6596 130.496C52.6596 130.496 53.074 127.326 53.354 122.532C51.9454 123.106 50.4841 123.484 49 123.659C49.6048 127.843 50.036 130.509 50.036 130.509C50.8846 130.866 51.8137 130.861 52.6596 130.496V130.496Z" fill="#FFC3BD"/>
<path d="M48.0586 121.651C48.151 122.227 48.4086 123.671 48.6634 124.179C48.6781 124.208 48.6984 124.233 48.7226 124.252C48.7469 124.271 48.7745 124.283 48.8034 124.287C50.783 124.578 52.7598 124.114 53.5634 123.694C53.5858 123.684 53.6061 123.668 53.623 123.648C53.6399 123.627 53.653 123.603 53.6614 123.577C53.8854 122.882 53.9666 121.422 53.9918 120.806C53.9932 120.773 53.988 120.74 53.9768 120.709C53.9656 120.678 53.9485 120.651 53.9269 120.629C53.9053 120.608 53.8798 120.592 53.8522 120.583C53.8246 120.575 53.7957 120.574 53.7678 120.58C51.9331 120.978 50.08 121.249 48.2182 121.392C48.1927 121.396 48.1681 121.406 48.1459 121.421C48.1238 121.436 48.1046 121.456 48.0896 121.481C48.0746 121.505 48.0641 121.533 48.0587 121.562C48.0534 121.591 48.0533 121.622 48.0586 121.651V121.651Z" fill="#263238"/>
<path d="M40.8355 54.0518C39.2619 54.3792 36.8623 55.9345 36.8623 55.9345C36.8623 55.9345 35.5995 59.4709 37.1115 62.0184C38.6011 62.431 39.3515 62.0937 39.3515 62.0937L40.8355 54.0518Z" fill="#263238"/>
<path opacity="0.2" d="M37.1113 62.0187C38.6009 62.4313 39.3513 62.0941 39.3513 62.0941L39.2981 57.3232C38.2873 58.9146 37.4445 60.4929 37.1113 62.0187Z" fill="black"/>
<path opacity="0.2" d="M52.3746 89.1873C51.1874 85.7918 49.9106 82.9954 49.4206 80.4414C48.5806 87.3864 49.2414 93.7748 52.4362 98.3524C52.4726 94.9732 52.4418 91.9149 52.3746 89.1873Z" fill="black"/>
<path d="M68.5993 115.814L64.3629 119.337C60.9049 114.068 55.7193 106.02 54.4649 102.516C51.2785 93.6262 44.8721 74.0289 44.8721 74.0289L53.1881 71.7695C53.1881 71.7695 58.4353 77.467 61.8205 98.9667C64.6541 103.675 67.0397 110.604 68.5993 115.814Z" fill="#9269AD"/>
<path d="M68.3565 132.513C69.4121 130.1 69.4261 127.441 68.2865 125.345C67.7965 124.448 70.2857 122.677 70.2857 122.677C71.1649 125.889 71.8817 126.076 72.4921 126.573C73.1025 127.071 73.1641 128.142 72.6489 128.505C72.0867 128.892 71.6078 129.424 71.2489 130.061C70.6105 131.043 70.2521 132.392 69.3365 133.233C68.7513 133.767 67.8917 133.571 68.3565 132.513Z" fill="#9269AD"/>
<path d="M70.7471 124.15C70.7471 124.15 70.0163 121.144 68.5827 116.642C67.5 117.841 66.302 118.889 65.0127 119.765C67.0371 123.289 68.5183 125.82 68.5183 125.82C69.379 125.515 70.1505 124.937 70.7471 124.15V124.15Z" fill="#FFC3BD"/>
<path d="M63.4486 118.391C63.7286 118.869 64.479 120.064 64.8906 120.401C64.9147 120.421 64.9423 120.435 64.9714 120.44C65.0005 120.446 65.0303 120.444 65.0586 120.434C66.9626 119.746 68.6006 118.368 69.1998 117.592C69.2166 117.571 69.2293 117.546 69.2371 117.519C69.2448 117.492 69.2474 117.463 69.2446 117.435C69.2054 116.698 68.763 115.326 68.5698 114.753C68.5593 114.723 68.543 114.695 68.5223 114.673C68.5015 114.651 68.4768 114.635 68.4499 114.625C68.4231 114.616 68.3947 114.614 68.367 114.619C68.3393 114.624 68.3129 114.636 68.2898 114.655C66.7618 115.901 65.1724 117.042 63.5298 118.07C63.5049 118.083 63.4827 118.102 63.4647 118.126C63.4467 118.15 63.4334 118.178 63.4257 118.208C63.418 118.239 63.416 118.271 63.42 118.303C63.4239 118.334 63.4337 118.364 63.4486 118.391V118.391Z" fill="#263238"/>
<path d="M38.4335 58.9365C38.8143 61.8344 37.3387 64.0806 39.6095 65.4165C39.2315 67.6202 39.7915 72.021 40.6903 73.7663C41.9531 74.5685 48.1299 73.3832 53.1783 71.7656C53.1055 69.2443 51.3331 64.2836 51.8259 56.0256C51.8524 55.5738 51.7975 55.1206 51.6646 54.6953C51.5318 54.2699 51.324 53.882 51.0547 53.5566C50.7854 53.2312 50.4607 52.9756 50.1016 52.8064C49.7424 52.6372 49.3569 52.5581 48.9699 52.5743C48.5331 52.5743 48.0683 52.6234 47.5979 52.6726C45.9441 52.7967 44.3 53.0593 42.6783 53.4584C42.1547 53.6025 41.6143 53.7662 41.1019 53.9365C40.2112 54.244 39.4477 54.9227 38.956 55.8441C38.4643 56.7655 38.2784 57.8657 38.4335 58.9365V58.9365Z" fill="#263238"/>
<path d="M42 56.7331C42 56.7331 43.582 56.0585 44.4108 57.7154C45.7912 56.8084 47.7316 52.974 47.5944 52.6826C45.2844 53.4259 42 56.7331 42 56.7331Z" fill="white"/>
<path d="M42 56.7337C42 56.7337 40.7988 56.5667 40.46 57.811C40.46 55.3551 41.8768 53.8096 42.4956 53.5215C42.28 54.1633 42 56.7337 42 56.7337Z" fill="white"/>
<path d="M46.9903 46.1836C46.8139 48.0991 46.7859 51.1771 47.5979 52.6866C47.5979 52.6866 44.5179 55.1522 41.9979 56.7337C41.2055 54.589 42.4935 53.5215 42.4935 53.5215C43.6947 52.9845 43.6835 51.1869 43.5211 49.8116L46.9903 46.1836Z" fill="#FFC3BD"/>
<path opacity="0.2" d="M43.5254 49.8119L45.4854 47.749C45.5512 48.134 45.53 48.5324 45.4238 48.9049C45.0843 49.9781 44.4319 50.8767 43.5814 51.4426C43.6122 50.8982 43.5935 50.3516 43.5254 49.8119V49.8119Z" fill="black"/>
<path d="M47.6224 42.6242C47.3424 45.7349 47.3004 47.0545 45.9284 48.5935C43.862 50.9085 40.7176 49.8476 40.1996 46.7107C39.732 43.8849 40.2444 39.2745 42.8428 38.1514C45.4412 37.0283 47.88 39.5168 47.6224 42.6242Z" fill="#FFC3BD"/>
<path d="M47.0405 44.8998C46.6299 44.4402 46.39 43.8105 46.3722 43.1462C46.3544 42.4819 46.5601 41.8359 46.9453 41.3471C47.6453 40.5187 48.6253 42.2344 48.6253 42.2344L47.0405 44.8998Z" fill="#263238"/>
<path d="M43.7947 43.4853C43.7947 43.7407 43.6631 43.9405 43.5147 43.9339C43.3663 43.9274 43.2655 43.7146 43.2739 43.4624C43.2823 43.2103 43.4055 43.0073 43.5539 43.0138C43.7023 43.0204 43.8031 43.2201 43.7947 43.4853Z" fill="#263238"/>
<path d="M41.1238 43.4092C41.1238 43.6613 40.995 43.861 40.8438 43.8545C40.6926 43.8479 40.5946 43.6384 40.603 43.383C40.6114 43.1276 40.7318 42.9311 40.883 42.9377C41.0342 42.9442 41.1322 43.1538 41.1238 43.4092Z" fill="#263238"/>
<path d="M40.9439 42.9536L40.4287 42.7539C40.4287 42.7539 40.6807 43.2418 40.9439 42.9536Z" fill="#263238"/>
<path d="M41.7814 43.5078C41.565 44.0787 41.2824 44.612 40.9414 45.0926C41.049 45.1896 41.1734 45.258 41.3059 45.293C41.4384 45.3281 41.5758 45.329 41.7086 45.2956L41.7814 43.5078Z" fill="#ED847E"/>
<path d="M42.9372 46.2908C42.8157 46.3109 42.6929 46.3175 42.5704 46.3105C42.5538 46.3096 42.5381 46.3013 42.5266 46.2873C42.5152 46.2733 42.5088 46.2546 42.5088 46.2352C42.5091 46.2253 42.5112 46.2156 42.5147 46.2066C42.5183 46.1976 42.5234 46.1896 42.5296 46.1829C42.5359 46.1762 42.5432 46.171 42.5511 46.1676C42.5591 46.1642 42.5675 46.1627 42.576 46.1631C42.8456 46.182 43.1152 46.1266 43.3632 46.0015C43.6112 45.8764 43.8307 45.685 44.004 45.4428C44.0085 45.4347 44.0144 45.4278 44.0212 45.4224C44.028 45.417 44.0357 45.4133 44.0438 45.4115C44.0519 45.4096 44.0603 45.4097 44.0683 45.4117C44.0764 45.4137 44.084 45.4176 44.0908 45.4231C44.0978 45.4287 44.1038 45.4358 44.1084 45.4441C44.113 45.4524 44.1162 45.4617 44.1178 45.4714C44.1193 45.4812 44.1192 45.4912 44.1175 45.5008C44.1157 45.5105 44.1124 45.5197 44.1076 45.5279C43.8173 45.9507 43.3974 46.2244 42.9372 46.2908Z" fill="#263238"/>
<path d="M48.0648 45.2299C47.9609 45.4871 47.8112 45.7154 47.6258 45.8995C47.4404 46.0836 47.2235 46.2192 46.9896 46.2974C46.3932 46.4709 46.116 45.7047 46.3008 44.9385C46.466 44.2476 46.9784 43.3275 47.5664 43.4945C48.1544 43.6615 48.3532 44.5587 48.0648 45.2299Z" fill="#FFC3BD"/>
<path d="M46.2439 38.2C44.359 39.5751 42.2425 40.4586 40.0391 40.79C40.0391 38.5536 43.7799 36.0421 46.2439 38.2Z" fill="#263238"/>
<path d="M44.7991 38.4711C44.3651 40.4358 48.7191 44.0376 47.8791 47.5019C49.3015 44.9119 48.2767 39.0834 48.2767 39.0834C48.2767 39.0834 44.6087 36.369 44.7991 38.4711Z" fill="#263238"/>
<path d="M44.3519 41.8162C44.3349 41.8134 44.3186 41.8064 44.3041 41.7957C44.2896 41.785 44.2773 41.7707 44.2679 41.754C44.1814 41.5961 44.0644 41.4643 43.9262 41.3693C43.788 41.2743 43.6327 41.2188 43.4727 41.2071C43.456 41.208 43.4394 41.205 43.4238 41.1981C43.4082 41.1913 43.394 41.1808 43.3819 41.1673C43.3699 41.1539 43.3603 41.1377 43.3538 41.1198C43.3472 41.1018 43.3439 41.0826 43.3439 41.0631C43.3431 41.0432 43.3458 41.0233 43.3518 41.0047C43.3578 40.986 43.367 40.969 43.3787 40.9546C43.3905 40.9402 43.4047 40.9288 43.4203 40.921C43.436 40.9132 43.4528 40.9092 43.4699 40.9092C43.672 40.9194 43.8691 40.9864 44.0446 41.1043C44.22 41.2223 44.3686 41.3878 44.4779 41.587C44.4874 41.6031 44.4941 41.6212 44.4975 41.6403C44.501 41.6594 44.5011 41.6792 44.498 41.6984C44.4949 41.7176 44.4885 41.7358 44.4793 41.7521C44.4701 41.7684 44.4582 41.7824 44.4443 41.7933C44.4309 41.804 44.4159 41.8116 44.4 41.8155C44.3842 41.8194 44.3678 41.8197 44.3519 41.8162V41.8162Z" fill="#263238"/>
<path d="M39.9416 41.7072C39.9089 41.7046 39.8781 41.6883 39.8548 41.6614C39.8429 41.6477 39.8335 41.6314 39.8271 41.6134C39.8207 41.5954 39.8174 41.5761 39.8174 41.5566C39.8174 41.5371 39.8207 41.5178 39.8271 41.4998C39.8335 41.4818 39.8429 41.4655 39.8548 41.4518C39.9945 41.2802 40.1673 41.1502 40.3587 41.0728C40.5502 40.9953 40.7547 40.9726 40.9552 41.0065C40.9881 41.0151 41.0167 41.0385 41.035 41.0715C41.0534 41.1046 41.0599 41.1447 41.0532 41.1833C41.0499 41.2026 41.0433 41.2208 41.0339 41.2371C41.0244 41.2533 41.0123 41.2672 40.9982 41.2778C40.9841 41.2885 40.9684 41.2958 40.9518 41.2992C40.9353 41.3027 40.9184 41.3022 40.902 41.2979C40.7431 41.2742 40.5816 41.2948 40.4307 41.3579C40.2799 41.4211 40.1439 41.5251 40.034 41.6614C40.0096 41.6903 39.9764 41.7068 39.9416 41.7072V41.7072Z" fill="#263238"/>
<path d="M43.6158 43.0295L43.1006 42.833C43.1006 42.833 43.3498 43.3209 43.6158 43.0295Z" fill="#263238"/>
<path opacity="0.2" d="M51.7576 57.628C51.7073 59.3762 51.7569 61.1265 51.906 62.867C50.506 61.1381 48.7476 57.8735 48.6328 56.2363L51.7576 57.628Z" fill="black"/>
<path d="M60.8994 51.4767L61.2046 49.3975L63.9682 50.645C63.9682 50.645 63.327 52.5802 62.1482 53.4348L61.8206 53.1925C61.5637 53.0097 61.3468 52.7595 61.1869 52.4617C61.027 52.1639 60.9286 51.8267 60.8994 51.4767V51.4767Z" fill="#FFC3BD"/>
<path d="M62.93 48.2384L63.84 48.818C64.0388 48.9441 64.1869 49.1571 64.2519 49.4105C64.317 49.6638 64.2937 49.9369 64.1872 50.1703L63.9716 50.6451L61.208 49.3975L61.866 48.4774C61.993 48.3008 62.168 48.1807 62.3617 48.1372C62.5555 48.0937 62.7561 48.1294 62.93 48.2384V48.2384Z" fill="#FFC3BD"/>
<path d="M51.2657 53.8511L51.6185 54.2768L52.0021 54.7319C52.2625 55.0299 52.5229 55.3344 52.7917 55.6226C53.3237 56.2087 53.8725 56.7522 54.4241 57.2598C54.9444 57.7369 55.4968 58.1639 56.0761 58.5368C56.519 58.8281 57.0008 59.0296 57.5013 59.1327L56.7481 59.2965C56.5633 59.4012 56.5745 59.4471 56.6137 59.4111C56.6893 59.3518 56.7588 59.2826 56.8208 59.2048C57.0257 58.9555 57.213 58.6872 57.3808 58.4025C57.7616 57.7706 58.148 57.0535 58.5008 56.3102C58.8536 55.5669 59.2289 54.804 59.5901 54.0181L60.6681 51.6867V51.6671C60.7945 51.3893 61.0012 51.1731 61.2514 51.0571C61.5016 50.9412 61.7789 50.9331 62.0337 51.0343C62.2885 51.1354 62.5043 51.3393 62.6424 51.6094C62.7805 51.8795 62.832 52.1982 62.7877 52.5086C62.6589 53.4516 62.4824 54.3423 62.2864 55.2493C62.0904 56.1563 61.8805 57.0535 61.6005 57.954C61.3261 58.8824 61.0006 59.7891 60.6261 60.6684C60.4088 61.1635 60.1628 61.6405 59.8897 62.0961C59.7173 62.3771 59.5243 62.6401 59.3129 62.8819C58.9997 63.2471 58.6301 63.5393 58.2237 63.7431C58.0242 63.8425 57.8104 63.8969 57.5937 63.9035H57.4705C56.3641 63.9111 55.2691 63.642 54.2589 63.1144C53.8129 62.8915 53.3774 62.6412 52.9541 62.3646C52.549 62.0852 52.1579 61.7959 51.7809 61.4969C51.0481 60.8968 50.3503 60.2405 49.6921 59.5322C49.3701 59.1851 49.0509 58.8348 48.7457 58.4648C48.5945 58.2814 48.4405 58.098 48.2921 57.9048C48.1437 57.7116 48.0121 57.5348 47.8301 57.2892C47.4276 56.7682 47.2186 56.0815 47.249 55.3802C47.2795 54.679 47.5469 54.0206 47.9925 53.5499C48.438 53.0792 49.0252 52.8348 49.6249 52.8704C50.2246 52.906 50.7876 53.2187 51.1901 53.7398L51.2657 53.8511Z" fill="#FFC3BD"/>
<path d="M49.0917 52.5918C51.1441 52.6638 53.1853 55.5388 53.1853 55.5388C53.1853 55.5388 52.3957 59.3534 50.1473 60.9972C48.8817 59.8446 47.8093 58.9212 47.8093 58.9212C46.0201 55.8531 46.6165 53.8164 49.0917 52.5918Z" fill="#263238"/>
<path d="M40.2805 73.5538C40.4317 74.5787 40.6137 75.3842 40.6725 75.6298C40.6782 75.6559 40.6883 75.6803 40.7023 75.7017C40.7162 75.7231 40.7337 75.7409 40.7537 75.7542C41.0533 75.9474 42.4197 76.7365 44.9285 76.563C47.7285 76.3862 51.8361 74.5984 53.9669 72.6959C53.998 72.6678 54.0203 72.6286 54.0304 72.5842C54.0405 72.5398 54.0379 72.4928 54.0229 72.4503C53.8583 72.0236 53.6665 71.6121 53.4489 71.2192C53.4277 71.1815 53.3965 71.1528 53.3602 71.1375C53.3239 71.1221 53.2843 71.1209 53.2473 71.134C52.3289 71.4615 46.5469 73.3966 40.4569 73.3115C40.4311 73.3116 40.4055 73.3182 40.3821 73.331C40.3586 73.3437 40.3378 73.3622 40.3211 73.3852C40.3043 73.4082 40.292 73.4352 40.285 73.4643C40.278 73.4934 40.2765 73.524 40.2805 73.5538V73.5538Z" fill="#9269AD"/>
<path opacity="0.3" d="M40.2805 73.5538C40.4317 74.5787 40.6137 75.3842 40.6725 75.6298C40.6782 75.6559 40.6883 75.6803 40.7023 75.7017C40.7162 75.7231 40.7337 75.7409 40.7537 75.7542C41.0533 75.9474 42.4197 76.7365 44.9285 76.563C47.7285 76.3862 51.8361 74.5984 53.9669 72.6959C53.998 72.6678 54.0203 72.6286 54.0304 72.5842C54.0405 72.5398 54.0379 72.4928 54.0229 72.4503C53.8583 72.0236 53.6665 71.6121 53.4489 71.2192C53.4277 71.1815 53.3965 71.1528 53.3602 71.1375C53.3239 71.1221 53.2843 71.1209 53.2473 71.134C52.3289 71.4615 46.5469 73.3966 40.4569 73.3115C40.4311 73.3116 40.4055 73.3182 40.3821 73.331C40.3586 73.3437 40.3378 73.3622 40.3211 73.3852C40.3043 73.4082 40.292 73.4352 40.285 73.4643C40.278 73.4934 40.2765 73.524 40.2805 73.5538V73.5538Z" fill="white"/>
<path d="M96.3954 126.526H59.5306C58.8488 126.533 58.173 126.376 57.5458 126.063C56.9186 125.75 56.3536 125.289 55.8863 124.708C55.4189 124.127 55.0594 123.44 54.8303 122.689C54.6012 121.938 54.5075 121.14 54.555 120.344L59.035 30.7399C59.1372 29.0767 59.7692 27.5189 60.8061 26.3743C61.8429 25.2296 63.2093 24.5814 64.635 24.5579H101.508C102.19 24.5505 102.866 24.7082 103.493 25.0211C104.12 25.334 104.685 25.7953 105.153 26.3759C105.62 26.9566 105.979 27.6441 106.209 28.3951C106.438 29.1461 106.531 29.9445 106.484 30.7399L101.99 120.344C101.888 122.006 101.256 123.563 100.221 124.708C99.1851 125.852 97.8202 126.501 96.3954 126.526V126.526Z" fill="#9269AD"/>
<path opacity="0.8" d="M96.3954 126.526H59.5306C58.8488 126.533 58.173 126.376 57.5458 126.063C56.9186 125.75 56.3536 125.289 55.8863 124.708C55.4189 124.127 55.0594 123.44 54.8303 122.689C54.6012 121.938 54.5075 121.14 54.555 120.344L59.035 30.7399C59.1372 29.0767 59.7692 27.5189 60.8061 26.3743C61.8429 25.2296 63.2093 24.5814 64.635 24.5579H101.508C102.19 24.5505 102.866 24.7082 103.493 25.0211C104.12 25.334 104.685 25.7953 105.153 26.3759C105.62 26.9566 105.979 27.6441 106.209 28.3951C106.438 29.1461 106.531 29.9445 106.484 30.7399L101.99 120.344C101.888 122.006 101.256 123.563 100.221 124.708C99.1851 125.852 97.8202 126.501 96.3954 126.526V126.526Z" fill="white"/>
<path d="M96.1776 124.733H60.3376C59.8586 124.738 59.3837 124.627 58.943 124.408C58.5023 124.188 58.1052 123.864 57.7767 123.457C57.4482 123.049 57.1954 122.566 57.0343 122.038C56.8732 121.511 56.8072 120.95 56.8404 120.391L61.3204 31.1763C61.3922 30.0106 61.8342 28.9185 62.5596 28.1145C63.2849 27.3104 64.2412 26.8527 65.2404 26.8312H101.08C101.56 26.8263 102.034 26.9373 102.475 27.1572C102.916 27.3772 103.313 27.7014 103.641 28.1095C103.97 28.5176 104.223 29.0007 104.384 29.5285C104.545 30.0563 104.611 30.6173 104.578 31.1763L100.098 120.391C100.026 121.556 99.5836 122.648 98.8582 123.451C98.1328 124.255 97.1766 124.712 96.1776 124.733V124.733Z" fill="#9269AD"/>
<path d="M95.7909 124.253H59.9509C59.4717 124.258 58.9968 124.147 58.5561 123.927C58.1153 123.707 57.7183 123.383 57.3898 122.975C57.0614 122.567 56.8087 122.084 56.6476 121.556C56.4865 121.028 56.4204 120.467 56.4537 119.908L60.9337 30.6939C61.0055 29.5282 61.4475 28.436 62.1728 27.632C62.8982 26.828 63.8544 26.3703 64.8537 26.3488H100.694C101.173 26.3438 101.648 26.4548 102.088 26.6748C102.529 26.8948 102.926 27.219 103.255 27.6271C103.583 28.0352 103.836 28.5183 103.997 29.0461C104.158 29.5738 104.224 30.1349 104.191 30.6939L99.7109 119.908C99.6391 121.074 99.1971 122.166 98.4717 122.97C97.7464 123.774 96.7901 124.232 95.7909 124.253V124.253Z" fill="white"/>
<path opacity="0.1" d="M94.7437 120.936H61.3201C61.0239 120.939 60.7304 120.871 60.4581 120.735C60.1857 120.599 59.9403 120.399 59.7373 120.146C59.5343 119.894 59.378 119.596 59.2784 119.27C59.1788 118.943 59.138 118.597 59.1585 118.251L61.0401 81.0377C61.0842 80.3155 61.3583 79.6391 61.8083 79.1419C62.2583 78.6447 62.8515 78.3631 63.4705 78.3526H96.8801C97.1762 78.3496 97.4697 78.4181 97.7421 78.554C98.0144 78.69 98.2599 78.8903 98.4629 79.1425C98.6659 79.3946 98.8221 79.6931 98.9217 80.0193C99.0213 80.3454 99.0621 80.6922 99.0417 81.0377L97.174 118.251C97.1299 118.973 96.8558 119.65 96.4058 120.147C95.9558 120.644 95.3627 120.926 94.7437 120.936V120.936Z" fill="#9269AD"/>
<path opacity="0.1" d="M87.3205 32.9663H77.5793C77.4735 32.9675 77.3686 32.9431 77.2712 32.8945C77.1738 32.846 77.086 32.7744 77.0134 32.6843C76.9408 32.5942 76.885 32.4875 76.8494 32.3709C76.8138 32.2543 76.7992 32.1304 76.8065 32.0069V32.0069C76.822 31.7479 76.9201 31.5052 77.0814 31.3269C77.2427 31.1486 77.4554 31.0477 77.6773 31.0442H87.4157C87.5228 31.0411 87.6292 31.0643 87.7281 31.1122C87.8271 31.1601 87.9163 31.2317 87.9902 31.3224C88.064 31.4131 88.1208 31.5208 88.1569 31.6387C88.193 31.7566 88.2076 31.882 88.1997 32.0069V32.0069C88.1842 32.2672 88.0848 32.5109 87.9216 32.689C87.7585 32.867 87.5437 32.9661 87.3205 32.9663Z" fill="#9269AD"/>
<path opacity="0.1" d="M91.1963 68.8831C97.1947 62.0711 97.6043 51.1862 92.111 44.571C86.6178 37.9559 77.3019 38.1155 71.3035 44.9275C65.3051 51.7395 64.8955 62.6244 70.3888 69.2395C75.8821 75.8547 85.1979 75.6951 91.1963 68.8831Z" fill="#9269AD"/>
<path d="M70.9527 68.2944C69.7271 66.7684 68.7843 64.9628 68.1834 62.9906C67.5826 61.0185 67.3367 58.9225 67.4611 56.834H67.7411C67.6198 58.8776 67.8606 60.9285 68.4484 62.8583C69.0362 64.788 69.9584 66.5551 71.1571 68.0488L70.9527 68.2944Z" fill="#9269AD"/>
<path d="M95.0375 56.9753L94.7575 56.9557C94.834 55.5132 94.7398 54.0654 94.4775 52.6531L94.7575 52.5811C95.0253 54.0234 95.1196 55.5025 95.0375 56.9753V56.9753Z" fill="#9269AD"/>
<path d="M93.6654 49.8041C92.9801 48.0262 91.9998 46.425 90.7814 45.0934C89.5629 43.7619 88.1306 42.7264 86.5674 42.0471L86.6654 41.7393C88.2643 42.4325 89.7293 43.4911 90.9748 44.8533C92.2204 46.2154 93.2216 47.8539 93.9202 49.6731L93.6654 49.8041Z" fill="#9269AD"/>
<path d="M89.9168 67.3426C95.1442 61.4062 95.5016 51.921 90.7151 46.1569C85.9285 40.3928 77.8106 40.5325 72.5832 46.4689C67.3558 52.4054 66.9984 61.8905 71.785 67.6546C76.5715 73.4187 84.6894 73.279 89.9168 67.3426Z" fill="#9269AD"/>
<path d="M79.8252 58.9395C80.4412 58.779 80.7297 58.1634 80.8613 57.4627C80.8753 57.3874 80.8865 57.3154 80.8977 57.2433V57.1778C80.9312 56.8858 80.9499 56.5917 80.9536 56.297C80.3573 56.228 79.8035 55.9049 79.3976 55.3892C78.9918 54.8736 78.7623 54.2014 78.7529 53.5007C78.722 52.1112 78.9855 50.7343 79.52 49.4928C79.3824 49.5139 79.252 49.5771 79.142 49.6762C79.1314 49.6857 79.1191 49.6923 79.1061 49.6957C79.093 49.6991 79.0795 49.6991 79.0664 49.6958C79.0422 49.6909 79.0202 49.6758 79.0048 49.6533C78.99 49.6287 78.9837 49.5983 78.9873 49.5685C78.991 49.5386 79.0043 49.5115 79.0245 49.4928C79.1985 49.3389 79.411 49.2561 79.6293 49.257C79.6713 49.1785 79.7104 49.0966 79.7524 49.0213C79.5732 49.0213 79.3996 49.0213 79.2316 49.0213C79.4164 47.5085 81.9056 46.2381 83.6024 47.3841C84.3584 47.5609 85.6072 48.8248 85.6072 48.8248C85.6323 49.6299 85.6127 50.436 85.5485 51.2381C85.4365 52.6068 85.1593 54.2145 84.4845 55.1117C84.6523 54.6527 84.7141 54.1503 84.6637 53.6546C84.5019 53.8416 84.3011 53.9759 84.0813 54.0442C84.0015 54.2449 83.9078 54.4376 83.8013 54.6205C83.5381 56.0252 83.3504 57.8949 83.7508 58.9722C84.112 58.9984 84.4621 59.0377 84.7953 59.0803L84.8765 59.0966C85.0963 58.9456 85.3077 58.7783 85.5093 58.5957C88.0293 56.3036 85.3553 53.612 85.9853 51.1464C86.6153 48.6808 86.0833 47.7443 84.3613 47.6657C85.0753 46.333 80.5392 44.2046 78.5456 48.3402C76.7396 52.0894 76.1572 53.9624 76.8068 56.893C77.051 57.8508 77.6043 58.6599 78.3497 59.149C78.4766 59.1084 78.6056 59.0778 78.7361 59.0573C79.0917 59.0181 79.4612 58.9722 79.8252 58.9395Z" fill="#263238"/>
<path d="M75.9078 64.7018C75.805 64.4892 75.7115 64.2706 75.6278 64.0469C75.4374 64.7018 75.2498 65.3566 75.0678 66.0115C74.8942 66.6009 74.729 67.1903 74.5554 67.7535L74.295 68.5492L74.183 68.8766C74.1438 68.965 74.183 68.9126 74.183 68.9388C74.0636 69.1014 73.9314 69.2505 73.7882 69.3842C73.7574 69.4202 73.7182 69.4529 73.6846 69.4857C74.4593 70.0968 75.2929 70.599 76.1682 70.9821C76.1878 69.4857 76.3446 67.9303 76.5126 67.5145C75.5046 66.6959 75.6558 65.8151 75.9078 64.7018Z" fill="#FFC3BD"/>
<path d="M76.8894 60.2861L76.8184 60.4024C76.8411 60.3626 76.8667 60.326 76.8922 60.2895L76.8894 60.2861Z" fill="#263238"/>
<path d="M76.2412 62.479C76.2371 61.7582 76.4239 61.0536 76.776 60.4619C76.2391 61.4495 75.7978 62.5038 75.46 63.6053C75.46 63.6053 75.5104 63.7789 75.6168 64.0507C75.7005 64.2744 75.794 64.4929 75.8968 64.7055C76.0964 63.9848 76.2123 63.2359 76.2412 62.479V62.479Z" fill="#263238"/>
<path d="M86.0023 67.2302C85.6704 66.6599 85.3755 66.0611 85.1203 65.4391C85.0363 65.4915 84.9495 65.5439 84.8599 65.5898C84.0199 64.5518 83.3031 63.7135 83.3031 63.7135C82.2559 61.1595 82.9027 59.7057 84.8879 59.113C85.1959 59.1871 85.49 59.3258 85.7559 59.5223C85.4941 59.307 85.1931 59.1658 84.8767 59.1097L84.7955 59.0934C84.4623 59.0508 84.1123 59.0115 83.7511 58.9853C83.8295 59.2243 82.0319 62.2597 80.9035 62.741C80.4415 61.3789 79.1451 61.2872 79.1451 61.2872C79.1451 61.2872 77.9355 60.9958 77.5603 61.8864C77.8067 60.0462 79.3215 59.077 79.8255 58.9395C79.4615 58.9755 79.0919 59.0213 78.7363 59.0737C78.6059 59.0942 78.4768 59.1248 78.3499 59.1654C77.7737 59.3502 77.2627 59.7447 76.8911 60.2918C76.8659 60.3278 76.8407 60.3638 76.8183 60.4031L76.7763 60.4653C76.4242 61.057 76.2374 61.7616 76.2415 62.4824C76.216 63.2376 76.1039 63.9853 75.9083 64.7057C75.6563 65.8059 75.5051 66.6998 76.4935 67.5184C76.3255 67.9342 76.1687 69.483 76.1491 70.986C77.5406 71.5893 79.0134 71.8954 80.4975 71.8897C82.3977 71.8864 84.2751 71.4051 86.0023 70.4785C85.9542 69.2596 85.9626 68.0387 86.0275 66.8209V66.8209C86.0191 66.9519 86.0079 67.096 86.0023 67.2302Z" fill="#263238"/>
<path d="M79.1455 61.2863C79.1455 61.2863 80.4419 61.378 80.9039 62.7401C82.0239 62.2424 83.8299 59.2234 83.7515 58.9844C83.7515 58.9844 81.2007 60.4317 79.1455 61.2863Z" fill="white"/>
<path d="M79.8306 58.9395C79.3266 59.0803 77.8118 60.0495 77.5654 61.8864C77.9406 60.9958 79.1502 61.2872 79.1502 61.2872C78.7582 59.5649 79.8306 58.9395 79.8306 58.9395Z" fill="white"/>
<path d="M83.8005 54.6328C83.5571 55.0457 83.2494 55.4012 82.8933 55.6806C82.7436 55.8066 82.5842 55.9162 82.4173 56.0081C82.0505 56.6965 81.5036 57.2282 80.8577 57.5241V57.4684C80.7261 58.1692 80.4377 58.7782 79.8217 58.9452C79.8217 58.9452 78.7493 59.5739 79.1357 61.2962C81.1937 60.4416 83.7417 59.0041 83.7417 59.0041C83.3497 57.9105 83.5373 56.0375 83.8005 54.6328Z" fill="#FFC3BD"/>
<path d="M80.8672 57.4596C80.8812 57.3843 80.8924 57.3123 80.9036 57.2402C80.8924 57.3024 80.8812 57.3843 80.8672 57.4596Z" fill="#263238"/>
<path opacity="0.2" d="M80.8672 57.4596C80.8812 57.3843 80.8924 57.3123 80.9036 57.2402C80.8924 57.3024 80.8812 57.3843 80.8672 57.4596Z" fill="black"/>
<path d="M80.9671 56.2939C80.9634 56.5886 80.9447 56.8827 80.9111 57.1748C80.946 56.8829 80.9647 56.5887 80.9671 56.2939V56.2939Z" fill="#263238"/>
<path opacity="0.2" d="M80.9671 56.2939C80.9634 56.5886 80.9447 56.8827 80.9111 57.1748C80.946 56.8829 80.9647 56.5887 80.9671 56.2939V56.2939Z" fill="black"/>
<path d="M82.4188 55.9922C81.9678 56.2449 81.4658 56.3468 80.9684 56.2869C80.9659 56.5816 80.9472 56.8758 80.9124 57.1677V57.2332C80.9124 57.3052 80.89 57.3773 80.876 57.4526V57.5082C81.5156 57.2087 82.0563 56.6774 82.4188 55.9922V55.9922Z" fill="#FFC3BD"/>
<path opacity="0.2" d="M82.4188 55.9922C81.9678 56.2449 81.4658 56.3468 80.9684 56.2869C80.9659 56.5816 80.9472 56.8758 80.9124 57.1677V57.2332C80.9124 57.3052 80.89 57.3773 80.876 57.4526V57.5082C81.5156 57.2087 82.0563 56.6774 82.4188 55.9922V55.9922Z" fill="black"/>
<path d="M82.4181 55.9922C82.585 55.9003 82.7444 55.7907 82.8941 55.6647C83.2501 55.3853 83.5579 55.0298 83.8013 54.6169C83.9079 54.434 84.0015 54.2413 84.0813 54.0406C84.0281 54.0406 83.9749 54.0734 83.9245 54.0799C83.4569 54.129 83.3253 53.5135 83.5381 52.9634C83.6101 52.7773 83.7044 52.6043 83.8181 52.4493C83.6959 51.9818 83.7258 51.478 83.9021 51.0347C83.4765 50.0131 83.0257 49.0701 82.9837 48.3857C81.936 48.7645 80.8487 48.9727 79.7525 49.0046C79.7105 49.0799 79.6713 49.1618 79.6293 49.2404C79.7242 49.2399 79.8187 49.2565 79.9093 49.2895C79.9211 49.2946 79.9319 49.3024 79.9411 49.3124C79.9504 49.3224 79.9578 49.3345 79.963 49.3478C79.9682 49.3612 79.9711 49.3757 79.9715 49.3904C79.9719 49.4051 79.9698 49.4198 79.9653 49.4336C79.9564 49.4615 79.9386 49.4843 79.9156 49.4971C79.8926 49.51 79.8662 49.5118 79.8421 49.5023C79.7415 49.4666 79.6353 49.4577 79.5313 49.4761C79.004 50.7187 78.7472 52.0942 78.7837 53.4807C78.7931 54.1814 79.0226 54.8536 79.4285 55.3693C79.8343 55.8849 80.3881 56.208 80.9845 56.2771V56.2771C81.4756 56.3364 81.9713 56.2379 82.4181 55.9922ZM81.7937 49.5613C81.9462 49.5963 82.0891 49.6743 82.2101 49.7884C82.3311 49.9025 82.4265 50.0493 82.4881 50.2161C82.499 50.2436 82.5004 50.2749 82.492 50.3036C82.4837 50.3322 82.4662 50.356 82.4433 50.37C82.42 50.3813 82.3938 50.3813 82.3705 50.37C82.3579 50.366 82.3462 50.3585 82.3365 50.3483C82.3268 50.3381 82.3193 50.3253 82.3145 50.3111C82.2636 50.1789 82.1861 50.063 82.0886 49.9735C81.991 49.884 81.8764 49.8234 81.7545 49.797C81.7293 49.7922 81.7065 49.7763 81.6909 49.7526C81.6753 49.7288 81.668 49.6991 81.6705 49.6693C81.6716 49.6525 81.6759 49.6363 81.6831 49.6217C81.6902 49.6071 81.7 49.5945 81.7117 49.5848C81.7235 49.5751 81.7369 49.5685 81.7511 49.5656C81.7653 49.5627 81.7798 49.5634 81.7937 49.5678V49.5613ZM81.6957 51.1788C81.7424 51.2199 81.777 51.277 81.7946 51.3422C81.8121 51.4073 81.8118 51.4773 81.7937 51.5423C81.7629 51.7322 81.6509 51.8697 81.5445 51.8402C81.4381 51.8108 81.3765 51.6438 81.4073 51.4539C81.4227 51.3576 81.4651 51.2701 81.5277 51.205C81.4404 51.151 81.3721 51.0629 81.3345 50.9561L81.6957 51.1788ZM79.3997 51.0413C79.4148 50.9465 79.4561 50.8602 79.5173 50.7957C79.4314 50.739 79.3644 50.6502 79.3269 50.5436L79.6937 50.763C79.7389 50.8055 79.7723 50.8627 79.7897 50.9274C79.8071 50.992 79.8078 51.0613 79.7917 51.1264C79.7581 51.3163 79.6489 51.4539 79.5425 51.4277C79.4361 51.4015 79.3689 51.2377 79.3997 51.0478V51.0413ZM80.0493 52.6326C79.9455 52.6398 79.8416 52.6204 79.7448 52.5757C79.6481 52.531 79.5609 52.4622 79.4893 52.374C79.7891 52.0563 80.0509 51.6929 80.2677 51.2934L80.0493 52.6326ZM80.5897 53.5102C80.5773 53.5063 80.5666 53.497 80.5598 53.4843C80.553 53.4715 80.5507 53.4562 80.5533 53.4414C80.556 53.4272 80.5634 53.4147 80.5738 53.4067C80.5843 53.3988 80.5971 53.3959 80.6093 53.3989C80.8114 53.4498 81.0209 53.4443 81.2208 53.3828C81.4208 53.3214 81.6055 53.2057 81.7601 53.0452C81.7645 53.0398 81.7698 53.0355 81.7756 53.0325C81.7815 53.0296 81.7877 53.0279 81.7941 53.0278C81.8005 53.0276 81.8068 53.0289 81.8127 53.0317C81.8187 53.0344 81.8241 53.0384 81.8287 53.0436C81.8333 53.0487 81.837 53.0549 81.8395 53.0617C81.8421 53.0686 81.8435 53.0759 81.8436 53.0834C81.8437 53.0908 81.8426 53.0982 81.8403 53.1052C81.838 53.1121 81.8345 53.1184 81.8301 53.1238C81.5698 53.4041 81.2262 53.5545 80.8725 53.5429C80.7778 53.542 80.6833 53.5332 80.5897 53.5167V53.5102Z" fill="#FFC3BD"/>
<path d="M84.2806 52.0629C84.163 51.7354 84.0286 51.3851 83.8914 51.0576C83.7151 51.5009 83.6852 52.0047 83.8074 52.4722C83.9316 52.2894 84.0948 52.1482 84.2806 52.0629V52.0629Z" fill="#263238"/>
<path d="M81.5219 51.2147C81.4593 51.2797 81.4169 51.3673 81.4015 51.4635C81.3707 51.6534 81.4323 51.827 81.5387 51.8499C81.6451 51.8728 81.7571 51.7419 81.7879 51.5519C81.806 51.487 81.8064 51.417 81.7888 51.3518C81.7712 51.2866 81.7366 51.2295 81.6899 51.1885C81.6663 51.2096 81.6383 51.2231 81.6089 51.2277C81.5794 51.2323 81.5494 51.2278 81.5219 51.2147Z" fill="#263238"/>
<path d="M79.8006 51.1369C79.8167 51.0718 79.816 51.0025 79.7986 50.9378C79.7812 50.8732 79.7478 50.816 79.7026 50.7734C79.6783 50.7942 79.6501 50.8078 79.6203 50.8129C79.5906 50.8181 79.5602 50.8146 79.5318 50.8029C79.4706 50.8674 79.4293 50.9537 79.4142 51.0485C79.3834 51.2384 79.445 51.412 79.5514 51.4381C79.6578 51.4643 79.753 51.3268 79.8006 51.1369Z" fill="#263238"/>
<path d="M79.6881 50.7731L79.3213 50.5537C79.3588 50.6603 79.4258 50.7491 79.5117 50.8058C79.5411 50.8183 79.5727 50.8218 79.6035 50.816C79.6343 50.8103 79.6635 50.7955 79.6881 50.7731Z" fill="#263238"/>
<path d="M79.4922 52.3911C79.5638 52.4793 79.651 52.5482 79.7477 52.5928C79.8445 52.6375 79.9484 52.657 80.0522 52.6498L80.2734 51.3105C80.0557 51.7102 79.793 52.0737 79.4922 52.3911V52.3911Z" fill="#ED847E"/>
<path d="M81.824 53.0458C81.8146 53.0352 81.802 53.0293 81.789 53.0293C81.7759 53.0293 81.7634 53.0352 81.754 53.0458C81.6 53.2053 81.4162 53.3204 81.2173 53.3818C81.0184 53.4432 80.81 53.4493 80.6088 53.3995C80.5965 53.3965 80.5838 53.3994 80.5733 53.4073C80.5628 53.4153 80.5555 53.4278 80.5528 53.442C80.5502 53.4568 80.5525 53.4721 80.5593 53.4849C80.5661 53.4976 80.5768 53.5069 80.5892 53.5108C80.6818 53.5293 80.7753 53.5402 80.8692 53.5435C81.2229 53.5551 81.5665 53.4047 81.8268 53.1244C81.8347 53.1132 81.8387 53.099 81.8382 53.0845C81.8377 53.07 81.8326 53.0562 81.824 53.0458V53.0458Z" fill="#263238"/>
<path d="M84.2798 52.0635C84.094 52.1488 83.9308 52.29 83.8066 52.4728C83.6929 52.6278 83.5986 52.8009 83.5266 52.9869C83.3138 53.537 83.4454 54.1525 83.913 54.1034C83.9634 54.1034 84.0166 54.0772 84.0698 54.0641C84.2897 53.9958 84.4904 53.8615 84.6522 53.6745C84.5936 53.1196 84.4682 52.5773 84.2798 52.0635Z" fill="#FFC3BD"/>
<path d="M83.0374 47.9117C83.0542 47.4402 83.2838 47.3256 83.5974 47.3976C81.9006 46.2385 79.4114 47.509 79.2266 49.0348C79.3946 49.0348 79.5682 49.0348 79.7474 49.0348C80.8436 49.0029 81.9309 48.7947 82.9786 48.416C82.9623 48.2448 82.9825 48.0716 83.0374 47.9117V47.9117Z" fill="#263238"/>
<path d="M83.0369 47.9108C82.9839 48.0666 82.9637 48.2351 82.9781 48.402C83.0201 49.0961 83.4709 50.0392 83.8965 51.051C84.0337 51.3784 84.1765 51.7058 84.2857 52.0562C84.4742 52.57 84.5995 53.1124 84.6581 53.6672C84.7086 54.1629 84.6468 54.6654 84.4789 55.1243C85.1537 54.2271 85.4309 52.6194 85.5429 51.2507C85.6071 50.4486 85.6268 49.6425 85.6017 48.8375C85.6017 48.8375 84.3529 47.5735 83.5969 47.3967C83.2833 47.3247 83.0537 47.4393 83.0369 47.9108Z" fill="#263238"/>
<path d="M81.7597 49.7933C81.8816 49.8197 81.9963 49.8802 82.0938 49.9698C82.1913 50.0593 82.2688 50.1751 82.3197 50.3074C82.3245 50.3216 82.332 50.3343 82.3417 50.3446C82.3515 50.3548 82.3631 50.3622 82.3757 50.3663C82.399 50.3776 82.4252 50.3776 82.4485 50.3663C82.4714 50.3523 82.4889 50.3285 82.4972 50.2998C82.5056 50.2712 82.5042 50.2399 82.4933 50.2124C82.4317 50.0455 82.3363 49.8987 82.2153 49.7846C82.0943 49.6705 81.9514 49.5926 81.7989 49.5575C81.7733 49.5538 81.7475 49.562 81.7271 49.5804C81.7066 49.5988 81.6932 49.6259 81.6897 49.6557C81.6844 49.6848 81.6887 49.715 81.7017 49.7405C81.7147 49.766 81.7354 49.7849 81.7597 49.7933V49.7933Z" fill="#263238"/>
<path d="M79.8255 49.5188C79.8496 49.5283 79.876 49.5265 79.899 49.5136C79.922 49.5008 79.9398 49.478 79.9487 49.45C79.9531 49.4363 79.9552 49.4216 79.9549 49.4069C79.9545 49.3922 79.9516 49.3777 79.9464 49.3643C79.9412 49.3509 79.9337 49.3389 79.9245 49.3289C79.9153 49.3188 79.9045 49.3111 79.8927 49.306C79.802 49.273 79.7076 49.2564 79.6127 49.2568C79.3944 49.2559 79.182 49.3387 79.0079 49.4926C78.9877 49.5113 78.9744 49.5384 78.9707 49.5683C78.9671 49.5981 78.9734 49.6284 78.9883 49.653C79.0037 49.6756 79.0256 49.6907 79.0499 49.6956C79.0629 49.6989 79.0765 49.6989 79.0895 49.6955C79.1026 49.6921 79.1148 49.6854 79.1255 49.676C79.2354 49.5769 79.3658 49.5137 79.5035 49.4926C79.6111 49.4721 79.7213 49.4811 79.8255 49.5188Z" fill="#263238"/>
<path d="M81.522 51.2143C81.5496 51.2274 81.5796 51.2319 81.609 51.2273C81.6385 51.2227 81.6664 51.2092 81.69 51.1881V51.1881L81.3232 50.9688C81.3628 51.0754 81.4332 51.1623 81.522 51.2143V51.2143Z" fill="#263238"/>
<path d="M86.0021 67.2293C86.0021 67.095 86.0189 66.951 86.0245 66.8134C85.8677 66.522 85.7081 66.2273 85.5429 65.9359L85.2209 65.376L85.1201 65.4382C85.3754 66.0602 85.6702 66.6589 86.0021 67.2293V67.2293Z" fill="#263238"/>
<path opacity="0.2" d="M86.0021 67.2293C86.0021 67.095 86.0189 66.951 86.0245 66.8134C85.8677 66.522 85.7081 66.2273 85.5429 65.9359L85.2209 65.376L85.1201 65.4382C85.3754 66.0602 85.6702 66.6589 86.0021 67.2293V67.2293Z" fill="black"/>
<path d="M86.8339 69.9423V69.9947C87.9506 69.289 88.9794 68.4076 89.8915 67.3751C89.7386 66.8469 89.559 66.3298 89.3539 65.8263C89.0822 65.1416 88.7804 64.4738 88.4495 63.8257C88.1695 63.2625 87.8727 62.7255 87.5675 62.1885C87.2875 62.8728 86.4923 64.5199 85.2295 65.3679L85.5515 65.9278C85.7167 66.2193 85.8763 66.514 86.0331 66.8054C86.1703 67.0608 86.3131 67.3195 86.4279 67.5749C86.6435 68.0169 86.8451 68.4622 86.9879 68.8846L86.9599 69.1073C86.9263 69.3791 86.8843 69.6574 86.8339 69.9423Z" fill="#FFC3BD"/>
<path d="M83.3032 63.7128C83.3032 63.7128 84.02 64.5511 84.86 65.5891C84.9496 65.5432 85.0364 65.4908 85.1204 65.4385L85.2212 65.3762C86.484 64.5282 87.2736 62.8811 87.5592 62.1968C87.6404 62.0036 87.6824 61.8857 87.6824 61.8857C87.6824 61.8857 86.8704 60.314 85.756 59.5216C85.4901 59.3251 85.1961 59.1865 84.888 59.1123C82.9028 59.705 82.256 61.1588 83.3032 63.7128Z" fill="#263238"/>
<path d="M96.7287 30.8688H100.674C100.782 30.8666 100.885 30.8174 100.963 30.7307C101.041 30.644 101.089 30.5263 101.097 30.4005V30.4005C101.1 30.3406 101.093 30.2805 101.076 30.224C101.058 30.1675 101.031 30.1158 100.996 30.0722C100.961 30.0285 100.918 29.9938 100.871 29.9703C100.824 29.9468 100.773 29.935 100.721 29.9356H96.7735C96.6662 29.9376 96.5634 29.9864 96.4852 30.0724C96.407 30.1584 96.359 30.2754 96.3507 30.4005V30.4005C96.3468 30.461 96.3537 30.5217 96.371 30.5788C96.3883 30.636 96.4156 30.6882 96.4512 30.7323C96.4868 30.7764 96.5299 30.8113 96.5776 30.8348C96.6254 30.8583 96.6768 30.8699 96.7287 30.8688V30.8688Z" fill="#9269AD"/>
<path d="M96.6482 32.4765H100.593C100.701 32.4744 100.804 32.4252 100.883 32.3385C100.961 32.2518 101.009 32.134 101.016 32.0083V32.0083C101.02 31.9481 101.013 31.8877 100.996 31.8308C100.979 31.7739 100.952 31.7218 100.917 31.6778C100.881 31.6337 100.839 31.5988 100.791 31.5751C100.744 31.5514 100.693 31.5394 100.641 31.5401H96.6958C96.5875 31.5414 96.4837 31.5903 96.4048 31.677C96.326 31.7638 96.2779 31.882 96.2702 32.0083C96.2671 32.0685 96.2747 32.1288 96.2923 32.1855C96.3099 32.2422 96.3373 32.2941 96.3727 32.338C96.4081 32.3818 96.4508 32.4167 96.4982 32.4406C96.5456 32.4644 96.5966 32.4766 96.6482 32.4765Z" fill="#9269AD"/>
<path d="M64.7296 32.4765H68.6748C68.7828 32.4745 68.8863 32.4253 68.9651 32.3387C69.0438 32.2521 69.092 32.1343 69.1004 32.0083V32.0083C69.1038 31.948 69.0966 31.8875 69.0792 31.8306C69.0617 31.7736 69.0343 31.7216 68.9988 31.6776C68.9634 31.6336 68.9205 31.5987 68.8729 31.5751C68.8253 31.5514 68.7741 31.5395 68.7224 31.5401H64.7772C64.6692 31.5414 64.5657 31.5904 64.4873 31.6773C64.4089 31.7641 64.3614 31.8823 64.3544 32.0083C64.3509 32.0684 64.3581 32.1286 64.3754 32.1853C64.3927 32.242 64.4197 32.2939 64.4549 32.3378C64.4901 32.3817 64.5327 32.4167 64.5799 32.4406C64.6272 32.4644 64.6781 32.4767 64.7296 32.4765Z" fill="#9269AD"/>
<path d="M96.5663 34.081H100.52C100.628 34.0797 100.732 34.0308 100.811 33.9441C100.89 33.8573 100.938 33.739 100.946 33.6128C100.949 33.5526 100.941 33.4922 100.923 33.4356C100.906 33.3789 100.878 33.327 100.843 33.2831C100.808 33.2393 100.765 33.2043 100.718 33.1805C100.67 33.1567 100.619 33.1444 100.568 33.1445H96.6139C96.5059 33.1466 96.4024 33.1957 96.3237 33.2823C96.245 33.3689 96.1967 33.4868 96.1883 33.6128V33.6128C96.1849 33.6731 96.1921 33.7336 96.2096 33.7905C96.227 33.8474 96.2544 33.8995 96.2899 33.9435C96.3254 33.9874 96.3682 34.0223 96.4158 34.046C96.4634 34.0697 96.5146 34.0816 96.5663 34.081Z" fill="#9269AD"/>
<path d="M91.3805 92.8265H67.5133C67.0676 92.8314 66.6258 92.7284 66.2158 92.5239C65.8058 92.3194 65.4363 92.018 65.1308 91.6385C64.8252 91.259 64.59 90.8096 64.4401 90.3187C64.2902 89.8278 64.2288 89.3059 64.2597 88.7859C64.3269 87.6991 64.74 86.6812 65.4175 85.9332C66.095 85.1852 66.9877 84.7613 67.9193 84.7453H91.7865C92.2323 84.7404 92.674 84.8434 93.0841 85.0479C93.4941 85.2524 93.8635 85.5538 94.1691 85.9333C94.4747 86.3128 94.7098 86.7622 94.8597 87.2531C95.0096 87.744 95.071 88.2659 95.0401 88.7859C94.973 89.8727 94.5599 90.8906 93.8824 91.6386C93.2049 92.3867 92.3122 92.8105 91.3805 92.8265V92.8265Z" fill="white"/>
<path d="M90.8372 103.688H66.9672C66.5215 103.692 66.0798 103.588 65.67 103.383C65.2602 103.178 64.8909 102.877 64.5855 102.497C64.28 102.117 64.0449 101.668 63.8949 101.177C63.7449 100.686 63.6832 100.164 63.7136 99.6442V99.6442C63.7828 98.5592 64.1968 97.5437 64.8741 96.7977C65.5514 96.0517 66.4429 95.6293 67.3732 95.6134H91.2432C91.689 95.6086 92.1307 95.7116 92.5408 95.9161C92.9508 96.1205 93.3202 96.422 93.6258 96.8015C93.9314 97.181 94.1665 97.6303 94.3164 98.1212C94.4663 98.6122 94.5277 99.134 94.4968 99.6541C94.4277 100.739 94.0138 101.755 93.3366 102.502C92.6594 103.248 91.7678 103.672 90.8372 103.688Z" fill="white"/>
<path d="M90.2917 114.546H66.4245C65.9787 114.55 65.537 114.447 65.1269 114.243C64.7169 114.039 64.3475 113.737 64.0419 113.358C63.7363 112.978 63.5012 112.529 63.3513 112.038C63.2014 111.547 63.1399 111.025 63.1709 110.505V110.505C63.238 109.418 63.651 108.4 64.3284 107.651C65.0059 106.902 65.8986 106.478 66.8305 106.461H90.6977C91.1435 106.457 91.5854 106.56 91.9954 106.765C92.4054 106.97 92.7748 107.272 93.0804 107.651C93.3859 108.031 93.621 108.481 93.7709 108.972C93.9208 109.463 93.9822 109.985 93.9513 110.505V110.505C93.8841 111.592 93.471 112.61 92.7935 113.358C92.116 114.106 91.2233 114.53 90.2917 114.546V114.546Z" fill="white"/>
<path d="M69.3674 90.2337C70.094 89.4085 70.1442 88.0906 69.4795 87.2901C68.8148 86.4897 67.6869 86.5097 66.9602 87.3349C66.2336 88.1601 66.1834 89.478 66.8481 90.2785C67.5128 91.0789 68.6407 91.0589 69.3674 90.2337Z" fill="#9269AD"/>
<path d="M67.9531 97.6755L68.1883 98.7134C68.2019 98.7705 68.2312 98.8207 68.2718 98.8562C68.3123 98.8918 68.3617 98.9106 68.4123 98.9099H69.3447C69.3973 98.9105 69.4483 98.9312 69.4899 98.9688C69.5315 99.0065 69.5614 99.059 69.575 99.1184C69.5887 99.1778 69.5853 99.2408 69.5655 99.2977C69.5456 99.3547 69.5104 99.4025 69.4651 99.4338L68.6783 100.089C68.6336 100.123 68.5993 100.174 68.5802 100.232C68.5612 100.291 68.5583 100.355 68.5719 100.416L68.8071 101.454C68.8211 101.514 68.819 101.577 68.8012 101.635C68.7834 101.693 68.7508 101.744 68.7077 101.779C68.6646 101.815 68.6131 101.834 68.5603 101.835C68.5075 101.835 68.4558 101.817 68.4123 101.782L67.6899 101.127C67.6489 101.093 67.6 101.075 67.5499 101.075C67.4998 101.075 67.4509 101.093 67.4099 101.127L66.6231 101.782C66.5819 101.82 66.5308 101.841 66.4782 101.841C66.4255 101.842 66.3742 101.821 66.3326 101.784C66.2909 101.746 66.2613 101.693 66.2485 101.633C66.2357 101.573 66.2404 101.51 66.2619 101.454L66.6007 100.416C66.6215 100.36 66.6257 100.297 66.6125 100.238C66.5993 100.178 66.5695 100.126 66.5279 100.089L65.8055 99.4338C65.7658 99.3939 65.7375 99.3405 65.7246 99.2811C65.7117 99.2216 65.7148 99.159 65.7335 99.1017C65.7522 99.0444 65.7855 98.9952 65.829 98.9609C65.8724 98.9266 65.9239 98.9088 65.9763 98.9099H66.9087C66.9616 98.9099 67.0132 98.8912 67.0567 98.8561C67.1002 98.821 67.1336 98.7712 67.1523 98.7134L67.4799 97.6755C67.4948 97.6156 67.5259 97.5629 67.5686 97.5255C67.6113 97.488 67.6632 97.4678 67.7165 97.4678C67.7699 97.4678 67.8218 97.488 67.8644 97.5255C67.9071 97.5629 67.9382 97.6156 67.9531 97.6755V97.6755Z" fill="#9269AD"/>
<path d="M68.5999 109.404L68.4515 112.318C68.4444 112.44 68.3981 112.555 68.3217 112.639C68.2453 112.723 68.1447 112.77 68.0399 112.77H65.8587C65.8105 112.767 65.7633 112.752 65.72 112.727C65.6767 112.702 65.6381 112.667 65.6065 112.625C65.5749 112.582 65.551 112.532 65.5361 112.478C65.5212 112.425 65.5157 112.368 65.5199 112.312L65.7019 108.684C65.7083 108.561 65.754 108.447 65.8298 108.362C65.9057 108.278 66.006 108.23 66.1107 108.229H67.6787L68.5999 109.404Z" fill="#9269AD"/>
<path d="M67.6646 108.235L68.6082 109.404H67.995C67.9452 109.404 67.8957 109.393 67.8499 109.37C67.804 109.347 67.7626 109.314 67.7285 109.271C67.6943 109.229 67.6679 109.178 67.6512 109.123C67.6344 109.068 67.6276 109.01 67.631 108.952L67.6646 108.235ZM67.4154 107.433L67.3762 108.215L67.3398 108.932C67.335 109.037 67.3481 109.141 67.3784 109.24C67.4087 109.338 67.4556 109.428 67.5162 109.505C67.5779 109.581 67.6521 109.642 67.7345 109.683C67.8168 109.724 67.9055 109.745 67.995 109.744H69.2774L68.8182 109.171L67.8774 108.002L67.4154 107.433V107.433Z" fill="white"/>
<path opacity="0.2" d="M90.58 88.3567H72.7187C72.6465 88.3573 72.5748 88.3405 72.5084 88.3073C72.4419 88.2742 72.3819 88.2253 72.3323 88.1639C72.2826 88.1025 72.2443 88.0297 72.2198 87.9502C72.1952 87.8707 72.1849 87.7861 72.1896 87.7018V87.7018C72.2014 87.5254 72.2691 87.3605 72.3794 87.2394C72.4897 87.1182 72.6347 87.0496 72.786 87.0469H90.6444C90.7166 87.0463 90.7883 87.0631 90.8547 87.0962C90.9212 87.1294 90.9812 87.1782 91.0308 87.2397C91.0805 87.3011 91.1188 87.3738 91.1433 87.4533C91.1679 87.5328 91.1782 87.6174 91.1736 87.7018V87.7018C91.1624 87.8779 91.0953 88.0427 90.9854 88.1639C90.8756 88.2851 90.7309 88.3539 90.58 88.3567V88.3567Z" fill="#9269AD"/>
<path opacity="0.2" d="M87.1944 90.5315H72.612C72.5396 90.5321 72.4679 90.5153 72.4012 90.4822C72.3346 90.449 72.2745 90.4003 72.2246 90.3389C72.1748 90.2775 72.1362 90.2048 72.1113 90.1253C72.0864 90.0458 72.0758 89.9611 72.08 89.8766V89.8766C72.0918 89.7002 72.1595 89.5353 72.2698 89.4142C72.3801 89.2931 72.5251 89.2244 72.6764 89.2217H87.2588C87.3313 89.2207 87.4033 89.2371 87.4701 89.2701C87.5369 89.303 87.5972 89.3518 87.6471 89.4133C87.6971 89.4748 87.7356 89.5477 87.7603 89.6274C87.7851 89.7071 87.7954 89.792 87.7908 89.8766V89.8766C87.7784 90.0527 87.7105 90.2172 87.6003 90.3382C87.4901 90.4592 87.3455 90.528 87.1944 90.5315Z" fill="#9269AD"/>
<path opacity="0.2" d="M89.9913 100.072H85.0633C84.9118 100.074 84.7665 100.143 84.656 100.264C84.5456 100.385 84.4781 100.55 84.4669 100.727C84.4623 100.812 84.4726 100.896 84.4971 100.976C84.5217 101.055 84.56 101.128 84.6096 101.189C84.6593 101.251 84.7192 101.3 84.7857 101.333C84.8522 101.366 84.9238 101.383 84.9961 101.382H89.9241C90.0756 101.38 90.2209 101.312 90.3314 101.19C90.4418 101.069 90.5093 100.904 90.5205 100.727V100.727C90.5251 100.643 90.5148 100.558 90.4903 100.479C90.4657 100.399 90.4274 100.326 90.3778 100.265C90.3281 100.204 90.2682 100.155 90.2017 100.122C90.1352 100.088 90.0636 100.072 89.9913 100.072V100.072Z" fill="#9269AD"/>
<path opacity="0.2" d="M82.183 100.072H72.1338C71.9823 100.074 71.837 100.143 71.7265 100.264C71.6161 100.385 71.5486 100.551 71.5374 100.727V100.727C71.5324 100.812 71.5424 100.896 71.5668 100.976C71.5912 101.056 71.6294 101.129 71.6792 101.19C71.7289 101.252 71.789 101.301 71.8557 101.334C71.9224 101.367 71.9942 101.383 72.0666 101.382H82.1186C82.2699 101.379 82.4149 101.311 82.5252 101.19C82.6355 101.068 82.7032 100.904 82.715 100.727V100.727C82.7196 100.643 82.7093 100.558 82.6845 100.478C82.6598 100.398 82.6213 100.325 82.5713 100.264C82.5214 100.202 82.4611 100.154 82.3943 100.121C82.3274 100.088 82.2555 100.071 82.183 100.072V100.072Z" fill="#9269AD"/>
<path opacity="0.2" d="M86.8252 97.9043H72.2401C72.0886 97.9063 71.9432 97.9747 71.8328 98.0959C71.7224 98.2172 71.6549 98.3825 71.6437 98.5592V98.5592C71.639 98.6435 71.6493 98.7281 71.6739 98.8076C71.6984 98.8871 71.7367 98.9599 71.7864 99.0213C71.836 99.0828 71.896 99.1316 71.9625 99.1647C72.029 99.1979 72.1006 99.2147 72.1729 99.2141H86.7552C86.9065 99.2114 87.0515 99.1427 87.1618 99.0216C87.2721 98.9005 87.3398 98.7356 87.3517 98.5592C87.3563 98.4751 87.346 98.3908 87.3216 98.3115C87.2973 98.2322 87.2592 98.1597 87.2099 98.0983C87.1605 98.0369 87.1009 97.988 87.0348 97.9546C86.9686 97.9213 86.8973 97.9041 86.8252 97.9043V97.9043Z" fill="#9269AD"/>
<path opacity="0.2" d="M89.4461 110.93H71.5877C71.4366 110.933 71.292 111.002 71.1818 111.123C71.0716 111.244 71.0038 111.408 70.9913 111.585C70.9867 111.669 70.997 111.754 71.0218 111.834C71.0465 111.914 71.085 111.986 71.135 112.048C71.1849 112.109 71.2452 112.158 71.312 112.191C71.3789 112.224 71.4508 112.241 71.5233 112.239H89.3817C89.5327 112.237 89.6773 112.168 89.7872 112.047C89.897 111.926 89.9641 111.761 89.9753 111.585V111.585C89.9799 111.5 89.9696 111.416 89.9451 111.336C89.9205 111.257 89.8822 111.184 89.8326 111.122C89.7829 111.061 89.723 111.012 89.6565 110.979C89.59 110.946 89.5184 110.929 89.4461 110.93V110.93Z" fill="#9269AD"/>
<path opacity="0.2" d="M86.2795 108.76H71.6971C71.5458 108.763 71.4008 108.831 71.2905 108.952C71.1802 109.073 71.1125 109.238 71.1007 109.415V109.415C71.0961 109.499 71.1064 109.584 71.1309 109.663C71.1555 109.743 71.1938 109.815 71.2434 109.877C71.2931 109.938 71.353 109.987 71.4195 110.02C71.486 110.053 71.5576 110.07 71.6299 110.07H86.2151C86.3661 110.067 86.5107 109.998 86.6206 109.877C86.7304 109.756 86.7975 109.591 86.8087 109.415V109.415C86.8133 109.33 86.803 109.246 86.7785 109.166C86.7539 109.087 86.7156 109.014 86.666 108.953C86.6163 108.891 86.5564 108.842 86.4899 108.809C86.4234 108.776 86.3518 108.759 86.2795 108.76V108.76Z" fill="#9269AD"/>
</svg>
