<svg width="242" height="242" viewBox="0 0 242 242" fill="none" xmlns="http://www.w3.org/2000/svg">
<path d="M119.776 21.1904H19.3604V111.03H119.776V21.1904Z" fill="#FAFAFA"/>
<path d="M119.775 111.025C119.775 111.025 119.775 110.449 119.751 109.36C119.727 108.271 119.751 106.645 119.751 104.544C119.751 100.329 119.717 94.1627 119.688 86.3074C119.664 70.6112 119.621 48.1827 119.572 21.19L119.8 21.4175L19.3599 21.4562L19.6261 21.19C19.6261 53.8745 19.6261 84.6279 19.5971 111.025L19.3599 110.793L91.9889 110.909L112.472 110.972L117.897 111.001H119.296H119.78C119.78 111.001 119.63 111.001 119.325 111.001H117.956L112.578 111.03L92.1438 111.093L19.3599 111.262H19.1227V111.025C19.1227 84.6279 19.1227 53.8745 19.0889 21.19V20.9189H19.3599L119.766 20.9577H119.993V21.19C119.945 48.2408 119.906 70.7226 119.877 86.4526C119.877 94.2837 119.833 100.435 119.819 104.641C119.819 106.718 119.819 108.315 119.795 109.409C119.771 110.503 119.775 111.025 119.775 111.025Z" fill="#E0E0E0"/>
<path d="M57.8625 37.1519C57.8625 37.2971 52.5772 37.4181 46.0577 37.4181C39.5382 37.4181 34.2529 37.2971 34.2529 37.1519C34.2529 37.0067 39.5382 36.8809 46.0577 36.8809C52.5772 36.8809 57.8625 37.0019 57.8625 37.1519Z" fill="#E0E0E0"/>
<path d="M100.411 43.8941C100.411 44.0442 85.8907 44.1652 67.9827 44.1652C50.0747 44.1652 35.5547 44.0442 35.5547 43.8941C35.5547 43.7441 50.0747 43.6279 67.9827 43.6279C85.8907 43.6279 100.411 43.7489 100.411 43.8941Z" fill="#E0E0E0"/>
<path d="M38.6569 55.3213H34.4268V59.5514H38.6569V55.3213Z" fill="#E0E0E0"/>
<path d="M49.068 55.3213H44.8379V59.5514H49.068V55.3213Z" fill="#E0E0E0"/>
<path d="M59.6774 55.1279H55.4473V59.3581H59.6774V55.1279Z" fill="#E0E0E0"/>
<path d="M69.8991 55.3213H65.6689V59.5514H69.8991V55.3213Z" fill="#E0E0E0"/>
<path d="M80.3102 55.3213H76.0801V59.5514H80.3102V55.3213Z" fill="#E0E0E0"/>
<path d="M90.7253 55.3213H86.4951V59.5514H90.7253V55.3213Z" fill="#E0E0E0"/>
<path d="M101.136 55.3213H96.9062V59.5514H101.136V55.3213Z" fill="#EBEBEB"/>
<path d="M38.6569 64.3145H34.4268V68.5446H38.6569V64.3145Z" fill="#EBEBEB"/>
<path d="M49.068 64.3145H44.8379V68.5446H49.068V64.3145Z" fill="#E0E0E0"/>
<path d="M59.4831 64.3145H55.2529V68.5446H59.4831V64.3145Z" fill="#EBEBEB"/>
<path d="M69.8991 64.3145H65.6689V68.5446H69.8991V64.3145Z" fill="#E0E0E0"/>
<path d="M80.3102 64.3145H76.0801V68.5446H80.3102V64.3145Z" fill="#E0E0E0"/>
<path d="M90.9196 64.126H86.6895V68.3561H90.9196V64.126Z" fill="#E0E0E0"/>
<path d="M101.136 64.3145H96.9062V68.5446H101.136V64.3145Z" fill="#E0E0E0"/>
<path d="M38.6569 73.3115H34.4268V77.5417H38.6569V73.3115Z" fill="#E0E0E0"/>
<path d="M49.2614 73.1182H45.0312V77.3483H49.2614V73.1182Z" fill="#E0E0E0"/>
<path d="M59.4831 73.3115H55.2529V77.5417H59.4831V73.3115Z" fill="#E0E0E0"/>
<path d="M69.8991 73.3115H65.6689V77.5417H69.8991V73.3115Z" fill="#EBEBEB"/>
<path d="M80.3102 73.3115H76.0801V77.5417H80.3102V73.3115Z" fill="#E0E0E0"/>
<path d="M90.7253 73.3115H86.4951V77.5417H90.7253V73.3115Z" fill="#E0E0E0"/>
<path d="M101.136 73.3115H96.9062V77.5417H101.136V73.3115Z" fill="#E0E0E0"/>
<path d="M38.6569 82.3047H34.4268V86.5348H38.6569V82.3047Z" fill="#E0E0E0"/>
<path d="M49.068 82.3047H44.8379V86.5348H49.068V82.3047Z" fill="#E0E0E0"/>
<path d="M59.4831 82.3047H55.2529V86.5348H59.4831V82.3047Z" fill="#E0E0E0"/>
<path d="M70.0876 82.1113H65.8574V86.3415H70.0876V82.1113Z" fill="#E0E0E0"/>
<path d="M80.3102 82.3047H76.0801V86.5348H80.3102V82.3047Z" fill="#E0E0E0"/>
<path d="M90.7253 82.3047H86.4951V86.5348H90.7253V82.3047Z" fill="#EBEBEB"/>
<path d="M101.136 82.3047H96.9062V86.5348H101.136V82.3047Z" fill="#E0E0E0"/>
<path d="M38.6569 91.2979H34.4268V95.528H38.6569V91.2979Z" fill="#E0E0E0"/>
<path d="M49.068 91.2979H44.8379V95.528H49.068V91.2979Z" fill="#EBEBEB"/>
<path d="M59.4831 91.2979H55.2529V95.528H59.4831V91.2979Z" fill="#E0E0E0"/>
<path d="M69.8991 91.2979H65.6689V95.528H69.8991V91.2979Z" fill="#E0E0E0"/>
<path d="M80.3102 91.2979H76.0801V95.528H80.3102V91.2979Z" fill="#E0E0E0"/>
<path d="M90.9196 91.1035H86.6895V95.3337H90.9196V91.1035Z" fill="#E0E0E0"/>
<path d="M101.136 91.2979H96.9062V95.528H101.136V91.2979Z" fill="#E0E0E0"/>
<path d="M208.207 141.948C212.684 139.639 217.95 139.339 222.921 140.162C225.588 140.603 228.371 141.401 230.181 143.405C231.991 145.409 232.339 148.937 230.258 150.665C229.014 151.691 227.282 151.846 225.675 151.827C221.803 151.783 217.471 151.096 214.364 153.438C212.592 154.769 211.411 156.991 209.291 157.649C207.171 158.307 204.877 157.068 203.779 155.195C202.68 153.322 202.646 150.984 203.154 148.874C203.408 147.409 203.996 146.022 204.872 144.821C205.748 143.62 206.89 142.637 208.207 141.948Z" fill="#EBEBEB"/>
<path d="M197.956 122.157C200.69 126.068 206.009 124.77 208.478 122.389C210.946 120.008 211.982 116.542 212.931 113.246C215.099 105.715 217.287 97.8116 215.675 90.1451C215.191 87.8509 214.334 85.5616 212.722 83.8531C211.111 82.1446 208.633 81.1378 206.368 81.738C203.686 82.4446 202.012 85.0728 200.816 87.546C197.267 94.9212 195.407 102.995 195.371 111.18C195.371 114.989 195.807 118.982 197.956 122.123" fill="#EBEBEB"/>
<path d="M190.444 127.777C193.416 124.248 193.977 119.108 192.656 114.709C191.335 110.309 188.349 106.534 184.912 103.47C180.863 99.8623 176.147 97.0804 171.031 95.281C169.027 94.5744 166.907 94.0178 164.792 94.2211C162.677 94.4244 160.543 95.5037 159.555 97.3865C158.103 100.174 159.493 103.553 161.007 106.307C163.676 111.166 166.723 115.807 170.121 120.188C172.856 123.711 175.982 127.186 180.15 128.779C184.317 130.371 188.639 130.182 190.846 127.293" fill="#EBEBEB"/>
<path d="M197.772 181.109C197.915 180.526 197.998 179.931 198.019 179.332C198.145 178.04 198.305 176.428 198.503 174.492C198.747 172.107 199.112 169.735 199.597 167.387C200.23 164.526 201.093 161.721 202.177 158.999C203.24 156.278 204.683 153.721 206.465 151.405C207.913 149.521 209.763 147.983 211.881 146.904C213.316 146.193 214.855 145.713 216.44 145.481C217.036 145.457 217.628 145.372 218.207 145.23C217.61 145.151 217.005 145.141 216.406 145.2C214.76 145.326 213.151 145.745 211.653 146.44C209.422 147.49 207.465 149.044 205.937 150.979C204.083 153.327 202.587 155.937 201.499 158.723C200.398 161.486 199.54 164.34 198.934 167.252C198.463 169.625 198.136 172.026 197.956 174.439C197.801 176.496 197.743 178.161 197.714 179.313C197.67 179.912 197.69 180.514 197.772 181.109Z" fill="#E0E0E0"/>
<path d="M198.106 177.377C198.152 177.106 198.168 176.83 198.154 176.554C198.154 175.935 198.154 175.156 198.154 174.197C198.154 172.155 198.154 169.193 198.261 165.539C198.44 158.23 199.069 150.365 200.289 139.277C201.436 128.851 202.985 116.718 204.611 108.828C204.964 107.033 205.313 105.44 205.647 103.988C205.981 102.536 206.232 101.351 206.494 100.358C206.755 99.3661 206.895 98.6691 207.041 98.069C207.122 97.8049 207.171 97.5318 207.186 97.2559C207.062 97.5024 206.966 97.7622 206.9 98.0303L206.218 100.286C205.913 101.254 205.603 102.478 205.25 103.891C204.896 105.305 204.495 106.912 204.112 108.702C202.092 118.033 200.573 127.465 199.563 136.958C198.343 148.066 197.796 158.187 197.748 165.514C197.704 169.178 197.782 172.145 197.874 174.193C197.937 175.161 197.98 175.925 198.019 176.545C198.016 176.825 198.045 177.104 198.106 177.377Z" fill="#E0E0E0"/>
<path d="M198.154 157.866C198.219 157.047 198.219 156.223 198.154 155.403C198.016 153.169 197.765 150.943 197.404 148.733C196.864 145.457 196.14 142.214 195.236 139.019C194.177 135.089 192.818 131.246 191.17 127.524C187.782 119.529 183.223 113.004 179.24 108.944C178.36 108.016 177.422 107.144 176.432 106.335C176.002 105.972 175.624 105.609 175.237 105.323L174.148 104.573C173.491 104.076 172.797 103.631 172.072 103.242C171.955 103.402 175.009 105.202 178.848 109.302C182.686 113.401 187.138 119.887 190.464 127.815C192.084 131.515 193.455 135.32 194.568 139.203C195.501 142.369 196.271 145.581 196.877 148.825C197.385 151.594 197.68 153.859 197.845 155.427C197.886 156.247 197.99 157.062 198.154 157.866Z" fill="#E0E0E0"/>
<path d="M179.293 192.284L181.248 219.074H215.661L217.616 192.284H179.293Z" fill="#E0E0E0"/>
<path d="M221.72 181.728H175.968V192.288H221.72V181.728Z" fill="#E0E0E0"/>
<path d="M175.968 218.047V220.975H178.117H220.97V218.047H175.968Z" fill="#EBEBEB"/>
<path d="M180.227 226.125L178.117 220.976H219.33L216.871 226.125H180.227Z" fill="#E0E0E0"/>
<path d="M216.978 201.039C216.978 201.039 216.934 201.131 216.818 201.286L216.305 201.968L214.301 204.534L214.209 204.65L214.122 204.529L209.2 197.719H209.48L204.64 204.582L204.486 204.8L204.316 204.597L198.566 197.753H198.895L198.581 198.15C196.795 200.386 195.072 202.554 193.436 204.597L193.266 204.814L193.107 204.592C191.364 202.118 189.719 199.81 188.267 197.724H188.547L182.575 204.534L182.468 204.655L182.386 204.514C181.597 203.193 180.973 202.138 180.518 201.373L180.034 200.536C179.973 200.442 179.924 200.341 179.889 200.236C179.966 200.316 180.034 200.406 180.092 200.502C180.227 200.715 180.407 200.986 180.62 201.31L182.585 204.393H182.396L188.276 197.496L188.426 197.327L188.557 197.511L193.455 204.345H193.126L198.256 197.888L198.571 197.491L198.736 197.288L198.905 197.487L204.636 204.345H204.316L209.214 197.516L209.355 197.317L209.495 197.516L214.335 204.403H214.156L216.242 201.901L216.803 201.252C216.855 201.176 216.913 201.104 216.978 201.039Z" fill="#F5F5F5"/>
<path d="M218.095 192.109C218.095 192.226 209.475 192.322 198.836 192.322C188.198 192.322 179.578 192.226 179.578 192.109C179.578 191.993 188.203 191.896 198.836 191.896C209.47 191.896 218.095 191.988 218.095 192.109Z" fill="#F5F5F5"/>
<path d="M219.833 221.266C219.833 221.382 210.463 221.479 198.905 221.479C187.347 221.479 177.977 221.382 177.977 221.266C177.977 221.149 187.347 221.048 198.905 221.048C210.463 221.048 219.833 221.145 219.833 221.266Z" fill="#F5F5F5"/>
<path d="M95.716 119.616L91.844 121.693L83.2724 128.289C83.2724 128.289 57.0251 131.774 56.0184 132.529C55.0116 133.284 41.9824 139.484 40.1916 147.804C38.4008 156.124 34.7998 210.386 34.7998 210.386L39.5624 226.416L135.157 226.566L157.576 226.246C157.576 226.246 166.186 206.126 166.186 200.594C166.186 195.062 163.67 153.467 163.67 153.467L136.783 134.509L95.716 119.616Z" fill="#9269AD"/>
<path d="M83.0303 127.897C82.9952 127.976 82.9514 128.051 82.8996 128.12C82.7835 128.285 82.648 128.488 82.4786 128.735C82.101 129.258 81.588 130.042 80.9927 131.024C80.7023 131.508 80.3731 132.06 80.0682 132.665C79.7633 133.27 79.4342 133.914 79.1002 134.601C78.4242 136.108 77.8438 137.657 77.3627 139.238C76.5335 142.122 75.9124 145.063 75.5041 148.037C75.3395 149.15 75.2089 150.065 75.1121 150.742C75.0685 151.038 75.0346 151.279 75.0056 151.478C74.9987 151.564 74.9791 151.649 74.9475 151.73C74.9368 151.644 74.9368 151.558 74.9475 151.473C74.9475 151.275 74.9862 151.028 75.0104 150.728C75.0685 150.084 75.175 149.155 75.3202 148.012C75.6885 145.018 76.2971 142.057 77.14 139.16C77.6254 137.572 78.2156 136.019 78.9066 134.509C79.2357 133.812 79.5552 133.159 79.8746 132.573C80.1941 131.987 80.528 131.431 80.8426 130.937C81.467 129.969 81.9994 129.19 82.4011 128.682L82.8609 128.096C82.9096 128.024 82.9665 127.957 83.0303 127.897Z" fill="#263238"/>
<g opacity="0.3">
<path opacity="0.3" d="M83.6259 143.85C83.4661 143.337 83.2629 142.761 82.7643 142.563C82.3771 142.403 82.532 142.655 82.1448 142.819C78.5148 144.315 76.7628 147.659 75.2236 151.454L75.3108 151.362C75.2012 151.679 75.2003 152.024 75.3081 152.342C75.4158 152.66 75.6262 152.933 75.9061 153.119C76.724 153.603 77.7743 153.337 78.6165 152.901C79.4586 152.465 80.2282 151.86 81.1478 151.628C83.1322 151.115 85.1117 152.475 86.5153 153.975C87.9189 155.476 89.1773 157.257 91.094 157.998C87.7638 153.776 85.2329 148.981 83.6259 143.85Z" fill="black"/>
</g>
<path d="M74.9385 151.729C75.375 150.667 75.8895 149.638 76.4776 148.651C77.1474 147.482 77.9183 146.375 78.7814 145.34C79.3277 144.696 79.9338 144.104 80.5916 143.574C81.3339 142.968 82.21 142.548 83.1471 142.349H83.2197L83.2488 142.422C83.8538 144.005 84.4926 145.733 85.2332 147.552C85.9889 149.488 86.8935 151.362 87.9387 153.157C89.0946 155.119 90.4931 156.927 92.1011 158.539C93.8335 160.245 95.7433 161.76 97.7978 163.06C98.4996 163.471 99.1772 163.912 99.879 164.299L101.975 165.417H101.849L105.343 162.997L107.037 161.83C107.599 161.448 108.146 161.066 108.664 160.659C110.615 159.121 112.429 157.416 114.084 155.563C116.061 154.067 117.749 152.223 119.065 150.122C120.074 148.509 120.829 146.752 121.306 144.91C121.61 143.727 121.802 142.518 121.877 141.299C121.906 140.873 121.877 140.549 121.911 140.331C121.945 140.113 121.911 140.002 121.911 140.002C121.911 140.002 121.911 140.113 121.911 140.331C121.911 140.549 121.911 140.878 121.911 141.299C121.866 142.527 121.694 143.746 121.398 144.939C120.937 146.801 120.191 148.581 119.186 150.214C117.88 152.335 116.199 154.199 114.225 155.717C112.565 157.588 110.745 159.309 108.785 160.862C108.262 161.274 107.715 161.661 107.154 162.043L105.46 163.215L101.965 165.635L101.907 165.678L101.839 165.644L99.7338 164.521C99.0272 164.134 98.3447 163.694 97.6429 163.278C95.5681 161.971 93.6417 160.442 91.8978 158.718C90.2786 157.09 88.8719 155.264 87.7112 153.283C86.6733 151.468 85.7785 149.574 85.0347 147.62C84.299 145.791 83.6698 144.058 83.0745 142.475L83.1762 142.533C82.2673 142.724 81.4164 143.127 80.6932 143.709C80.0405 144.228 79.4377 144.806 78.8928 145.437C78.027 146.459 77.2482 147.552 76.5647 148.704C75.9984 149.672 75.5967 150.418 75.3402 150.936L75.045 151.531C75.0186 151.601 74.9827 151.668 74.9385 151.729Z" fill="#263238"/>
<path d="M129.035 139.813C129.109 142.279 128.992 144.747 128.687 147.194C128.384 149.867 127.891 152.515 127.211 155.118C126.375 158.319 125.304 161.454 124.006 164.497L123.823 164.933L123.764 164.449C123.731 164.168 123.706 163.863 123.658 163.554C123.43 161.817 123.026 160.107 122.453 158.452C122.177 157.649 121.862 156.874 121.524 156.129C121.354 155.756 121.175 155.393 120.991 155.035C120.824 154.683 120.627 154.346 120.401 154.029C120.188 153.72 119.893 153.478 119.549 153.332C119.386 153.273 119.21 153.259 119.04 153.291C118.869 153.324 118.711 153.401 118.581 153.515C118.316 153.758 118.07 154.02 117.845 154.3L117.143 155.098L114.583 158.002L110.861 162.218L109.869 163.379L109.598 163.67L109.501 163.762C109.523 163.722 109.549 163.685 109.578 163.65L109.83 163.346L110.798 162.174L114.457 157.905L116.993 154.963C117.226 154.696 117.477 154.43 117.69 154.154C117.924 153.865 118.18 153.593 118.455 153.341C118.612 153.204 118.803 153.112 119.008 153.073C119.213 153.034 119.425 153.049 119.621 153.119C120.001 153.281 120.326 153.548 120.56 153.888C120.797 154.216 121.004 154.564 121.18 154.929C121.364 155.287 121.548 155.655 121.717 156.027C122.061 156.778 122.38 157.562 122.685 158.37C123.264 160.044 123.673 161.773 123.905 163.529C123.953 163.839 123.977 164.149 124.011 164.435L123.769 164.401C125.062 161.368 126.136 158.246 126.983 155.059C127.67 152.469 128.179 149.835 128.508 147.175C128.788 144.91 128.905 143.066 128.953 141.793C128.987 141.154 128.987 140.66 129.001 140.341C129.001 140.186 129.001 140.06 129.001 139.959C129.001 139.857 129.035 139.813 129.035 139.813Z" fill="#263238"/>
<path d="M92.9287 126.44C92.9287 126.44 92.9287 126.479 92.8561 126.537L92.6238 126.799C92.4108 127.021 92.1398 127.375 91.7768 127.834C90.8183 129.18 90.0375 130.645 89.4536 132.19C88.5673 134.463 87.9831 136.842 87.716 139.266C87.376 142.234 87.5067 145.236 88.1032 148.162C88.4093 149.676 88.8632 151.156 89.4584 152.581C90.0114 153.908 90.6871 155.18 91.4767 156.381C92.8112 158.421 94.4425 160.252 96.3167 161.811C97.0959 162.498 97.8897 163.011 98.5528 163.505C99.2158 163.999 99.8547 164.338 100.358 164.623L101.534 165.272L101.839 165.446C101.876 165.464 101.91 165.486 101.941 165.514C101.941 165.514 101.902 165.514 101.829 165.47L101.515 165.315L100.31 164.71C99.7967 164.434 99.1917 164.047 98.4753 163.621C97.759 163.195 97.0233 162.653 96.2054 161.947C94.2966 160.394 92.6352 158.559 91.2782 156.507C90.4849 155.282 89.8092 153.986 89.26 152.635C88.6568 151.197 88.1964 149.704 87.8854 148.177C87.2829 145.223 87.1587 142.192 87.5176 139.199C87.7982 136.757 88.4037 134.365 89.318 132.084C89.9257 130.539 90.7398 129.083 91.738 127.757C92.0137 127.4 92.3129 127.062 92.6334 126.745L92.8803 126.499L92.9287 126.44Z" fill="#263238"/>
<path d="M51.7594 172.948C51.7594 172.948 51.7981 172.987 51.8562 173.084L52.1127 173.534H52.0401C51.6965 171.908 50.7575 166.923 49.6879 161.023C49.049 157.393 48.4682 154.106 48.0375 151.681C47.8439 150.51 47.6841 149.552 47.5535 148.845C47.5099 148.531 47.4712 148.279 47.4421 148.071C47.4222 147.982 47.414 147.891 47.4179 147.8C47.4513 147.886 47.4756 147.975 47.4905 148.066C47.5341 148.264 47.5873 148.521 47.6503 148.831C47.7906 149.528 47.9745 150.486 48.202 151.652C48.6521 154.072 49.2571 157.349 49.9299 160.979C50.9947 166.874 51.8659 171.879 52.1079 173.52L52.1466 173.766L52.0353 173.544L51.8078 173.06C51.7885 173.024 51.7723 172.987 51.7594 172.948Z" fill="#263238"/>
<path d="M50.5931 171.951C50.5302 171.98 49.3105 169.531 47.8682 166.477C46.4259 163.423 45.3127 160.921 45.3756 160.892C45.4385 160.863 46.6582 163.312 48.1005 166.366C49.5428 169.42 50.656 171.922 50.5931 171.951Z" fill="#263238"/>
<g opacity="0.3">
<path opacity="0.3" d="M50.0947 225.167C53.1294 226.691 60.1668 224 62.7223 220.646C65.2778 217.292 66.0183 212.926 66.5943 208.745C67.43 202.443 68.0269 196.117 68.3851 189.767C73.6503 193.595 80.0555 195.529 86.5593 195.256C90.6636 195.067 95.3439 193.436 96.6168 189.53C97.8897 185.624 95.1648 181.684 92.3576 178.746C89.6828 175.947 86.7677 173.388 83.6456 171.099C81.5983 169.599 79.3525 168.195 76.826 167.9C74.1011 167.605 71.3472 168.718 69.2756 170.513C67.2041 172.309 65.757 174.729 64.697 177.256C61.459 184.975 61.6333 193.615 60.9702 201.94C60.3071 210.264 59.4262 218.923 52.0356 224.354" fill="black"/>
</g>
<path d="M50.293 225.196C50.3592 225.157 50.4288 225.124 50.5011 225.099L51.1109 224.833C51.8531 224.438 52.5481 223.961 53.1824 223.41C55.3963 221.391 57.2823 219.039 58.7726 216.44V216.479C59.2131 213.163 59.7407 209.291 60.2779 205.177C61.1685 198.653 61.9525 192.748 62.5866 188.479C62.9786 186.374 63.2932 184.665 63.5207 183.455C63.632 182.879 63.7191 182.425 63.7869 182.091L63.8595 181.737C63.8659 181.697 63.8773 181.658 63.8934 181.621C63.9007 181.661 63.9007 181.702 63.8934 181.742C63.8934 181.839 63.8595 181.955 63.8401 182.1L63.6223 183.475C63.4142 184.685 63.1383 186.379 62.7656 188.508C62.1945 192.801 61.4056 198.672 60.5344 205.211C59.973 209.325 59.4454 213.192 58.9953 216.508V216.532C57.4793 219.143 55.5544 221.495 53.2938 223.497C52.6452 224.044 51.9315 224.509 51.169 224.881C50.898 224.992 50.685 225.065 50.5398 225.113C50.4633 225.156 50.3796 225.184 50.293 225.196Z" fill="#263238"/>
<path d="M96.883 226.246C96.8606 226.198 96.8444 226.148 96.8346 226.096C96.8055 225.98 96.7717 225.83 96.7281 225.641C96.641 225.239 96.4813 224.673 96.3554 223.889C95.9681 221.718 95.7448 219.521 95.6875 217.316C95.6107 214.052 95.7855 210.786 96.2102 207.549C96.6555 203.89 97.396 199.907 98.2575 195.744C99.1191 191.582 100.121 187.657 100.963 184.08C101.762 180.924 102.282 177.705 102.517 174.458C102.642 172.267 102.561 170.07 102.275 167.895C102.192 167.12 102.062 166.53 102.004 166.123L101.936 165.664C101.93 165.611 101.93 165.557 101.936 165.504C101.955 165.554 101.968 165.606 101.975 165.659C101.999 165.775 102.033 165.925 102.071 166.114C102.139 166.515 102.289 167.082 102.386 167.88C102.71 170.06 102.818 172.267 102.71 174.468C102.501 177.733 101.997 180.973 101.205 184.148C100.373 187.734 99.3417 191.645 98.5189 195.812C97.6961 199.979 96.912 203.943 96.4522 207.593C96.0142 210.815 95.8185 214.065 95.8666 217.316C95.9074 219.51 96.1031 221.698 96.4522 223.865C96.5635 224.634 96.7087 225.22 96.7765 225.626C96.8104 225.815 96.8394 225.97 96.8588 226.086C96.8781 226.202 96.883 226.246 96.883 226.246Z" fill="#263238"/>
<path d="M105.028 171.671C104.97 171.632 105.803 170.301 106.732 168.602C107.661 166.903 108.334 165.485 108.402 165.514C108.331 165.851 108.214 166.177 108.053 166.482C107.802 167.068 107.419 167.862 106.955 168.718C106.49 169.575 106.02 170.32 105.662 170.848C105.49 171.15 105.276 171.427 105.028 171.671Z" fill="#263238"/>
<g opacity="0.3">
<path opacity="0.3" d="M106.586 169.661C109.109 166.709 111.841 163.941 114.761 161.38C115.56 160.678 116.426 159.967 117.476 159.793C118.754 159.58 120.056 160.238 120.942 161.187C121.777 162.182 122.444 163.307 122.917 164.517C124.185 161.4 122.868 157.886 121.561 154.783C121.135 153.772 120.4 152.571 119.316 152.736C118.748 152.894 118.255 153.247 117.922 153.733C113.727 158.603 109.847 163.736 106.306 169.1" fill="black"/>
</g>
<g opacity="0.3">
<path opacity="0.3" d="M149.14 146.609L149.319 145.074C147.475 145.248 145.21 145.466 143.739 146.589C142.021 147.901 141.319 150.132 140.767 152.213C139.451 156.947 143.187 181.316 142.993 186.229C144.625 185.537 145.776 175.097 146.067 173.325C146.783 169.061 145.336 166.399 145.776 165.209C146.217 164.018 146.202 162.726 146.236 161.462C146.396 155.805 146.957 151.826 149.14 146.609Z" fill="black"/>
</g>
<path d="M125.081 68.3945C122.738 65.4905 123.508 60.8489 126.189 58.2305C128.87 55.612 132.965 54.886 136.629 55.5055C139.299 55.9806 141.819 57.0813 143.982 58.7175C146.145 60.3538 147.889 62.4791 149.073 64.9193C150.331 67.5571 151.009 70.6741 153.317 72.4649C155.34 74.0427 158.128 74.1783 160.432 75.3108C163.52 76.8209 165.514 80.0589 166.24 83.4227C166.966 86.7865 166.521 90.2906 165.809 93.6593C165.156 96.7472 164.285 100.087 165.611 102.947C166.937 105.808 169.923 107.264 171.903 109.617C175.649 114.036 174.807 121.557 170.165 125.032C168.689 126.14 166.821 126.968 166.114 128.691C165.47 130.25 166.017 132.016 165.983 133.701C165.901 138.057 161.114 141.614 156.928 140.477C154.818 139.896 152.872 138.337 150.699 138.633C148.526 138.928 147.103 140.922 145.375 142.214C143.607 143.443 141.469 144.026 139.322 143.864C137.175 143.703 135.149 142.808 133.585 141.328C132.316 140.065 131.295 138.347 129.562 137.887C127.83 137.427 126.015 138.42 124.238 138.178C121.92 137.863 120.396 135.559 119.708 133.338C119.021 131.116 118.842 128.672 117.685 126.639C116.16 123.948 113.257 122.452 110.837 120.565C108.149 118.488 105.938 115.857 104.355 112.852C102.772 109.847 101.853 106.536 101.66 103.145C101.468 99.7534 102.006 96.3601 103.238 93.1947C104.47 90.0292 106.368 87.1655 108.804 84.7972" fill="#263238"/>
<path d="M92.6185 126.455C90.3199 129.139 88.6921 132.331 87.8691 135.768C87.0461 139.204 87.0516 142.787 87.885 146.222C89.6128 153.051 95.324 163.036 101.921 165.514C106.2 162.378 111.698 157.997 115.686 154.503C118.266 152.243 119.635 148.937 120.913 145.752C121.649 143.913 122.399 141.929 121.939 140.002C121.596 138.584 120.637 137.403 119.626 136.353C116.34 132.997 112.302 130.471 107.847 128.985C103.391 127.498 98.6455 127.094 94.0027 127.805" fill="#EF9D78"/>
<path d="M112.206 77.2855C113.397 74.8711 115.381 72.9391 117.826 71.813C120.271 70.6869 123.029 70.4352 125.637 71.1L142.146 75.3108C150.399 77.968 156.86 90.7408 151.996 101.931C148.153 110.764 144.218 121.862 140.273 127.96C132.336 140.215 121.484 137.413 121.484 137.413L115.628 150.481L91.6846 128.028L112.206 77.2855Z" fill="#EF9D78"/>
<path d="M140.084 105.382C140.394 105.266 141.207 106.834 142.988 107.671C144.769 108.509 146.531 108.272 146.618 108.586C146.666 108.731 146.265 109.022 145.49 109.157C144.453 109.316 143.392 109.147 142.456 108.673C141.522 108.228 140.755 107.495 140.268 106.582C139.929 105.914 139.934 105.43 140.084 105.382Z" fill="#263238"/>
<path d="M121.387 96.8682C121.736 96.8004 122.539 98.5186 124.466 99.7141C126.392 100.91 128.338 100.943 128.42 101.277C128.464 101.432 128.004 101.66 127.137 101.669C125.958 101.646 124.808 101.3 123.812 100.668C122.824 100.063 122.029 99.1882 121.523 98.1459C121.184 97.386 121.218 96.8924 121.387 96.8682Z" fill="#263238"/>
<path d="M129.311 115.124C129.349 115.018 130.564 115.323 132.5 115.904C132.984 116.059 133.468 116.165 133.686 115.879C133.904 115.594 133.971 115.008 133.986 114.365C134.049 113.048 134.117 111.669 134.18 110.217C134.509 104.336 134.959 99.5687 135.196 99.5929C135.433 99.6171 135.365 104.389 135.041 110.275C134.951 111.724 134.864 113.105 134.78 114.418C134.722 115.023 134.755 115.758 134.213 116.354C134.072 116.488 133.903 116.588 133.718 116.646C133.532 116.705 133.336 116.721 133.144 116.693C132.856 116.649 132.574 116.569 132.306 116.455C130.419 115.729 129.272 115.231 129.311 115.124Z" fill="#263238"/>
<path d="M121.484 137.456C121.484 137.456 111.925 133.875 105.474 124.693C105.474 124.693 105.837 135.903 120.023 140.743L121.484 137.456Z" fill="#D37A57"/>
<path d="M122.888 90.6631C123.188 90.1791 125.08 90.8374 127.423 91.0455C129.766 91.2536 131.745 91.0213 131.948 91.5585C132.035 91.815 131.61 92.2458 130.758 92.5991C129.63 93.0169 128.422 93.1726 127.226 93.0544C126.029 92.9361 124.875 92.5471 123.851 91.9167C123.086 91.3988 122.752 90.8954 122.888 90.6631Z" fill="#263238"/>
<path d="M143.986 95.9873C144.596 95.9873 145.351 97.4925 146.658 98.93C147.964 100.368 149.315 101.35 149.228 101.96C149.17 102.236 148.661 102.357 147.858 102.12C146.796 101.752 145.852 101.107 145.123 100.251C144.371 99.4231 143.857 98.406 143.637 97.3086C143.512 96.4858 143.7 96.0067 143.986 95.9873Z" fill="#263238"/>
<path d="M125.114 120.182C125.114 120.182 126.237 119.597 125.715 117.438C125.192 115.279 122.452 113.329 120.715 115.105C120.715 115.105 118.963 115.236 119.65 117.259C120.337 119.282 124.335 122.138 125.081 120.511" fill="#D37A57"/>
<path d="M124.461 121.833C124.141 121.775 124.625 119.669 123.173 117.758C121.721 115.846 119.427 115.555 119.48 115.255C119.48 115.115 120.076 114.965 121.029 115.159C122.265 115.428 123.366 116.126 124.136 117.128C124.88 118.092 125.219 119.307 125.08 120.516C124.959 121.412 124.601 121.877 124.461 121.833Z" fill="#263238"/>
<path d="M98.088 70.4082C96.8087 71.4067 95.7827 72.6926 95.0932 74.1617C94.4036 75.6307 94.07 77.2416 94.1192 78.8637C94.1918 80.6738 94.6322 82.8083 93.3013 84.0376C91.9702 85.267 89.8068 84.6136 87.9772 84.6233C86.3655 84.6763 84.8239 85.2953 83.6229 86.3715C82.4219 87.4477 81.6382 88.9124 81.4094 90.5087C81.2787 91.651 81.4094 92.8852 80.8479 93.8967C80.2865 94.9083 79.0232 95.3923 77.9972 96.0166C76.7171 96.7918 75.6633 97.8897 74.9413 99.2004C74.2193 100.511 73.8545 101.989 73.8834 103.485C73.9124 104.981 74.334 106.443 75.1061 107.725C75.8782 109.007 76.9737 110.063 78.2827 110.788C79.4685 111.442 80.8528 111.853 81.7191 112.894C82.6871 114.089 82.7452 115.798 83.234 117.25C83.7042 118.675 84.6093 119.916 85.8221 120.8C87.0349 121.683 88.4942 122.164 89.9947 122.175C91.4951 122.186 92.9612 121.726 94.1864 120.859C95.4116 119.993 96.3344 118.765 96.8248 117.347" fill="#263238"/>
<path d="M124.872 65.7757C124.385 67.1956 124.217 68.7055 124.379 70.1979C124.542 71.6903 125.031 73.1286 125.812 74.4104C126.594 75.6922 127.648 76.7861 128.9 77.6143C130.152 78.4424 131.571 78.9845 133.057 79.2018C135.351 79.5358 138.09 79.2454 139.572 81.0314C141.13 82.9093 140.206 85.9004 141.44 88.0106C143.197 91.0163 146.202 93.4169 149.048 95.4304C151.25 96.984 148.734 101.306 149.692 103.823C150.65 106.34 154.595 112.085 157.286 112.186C157.876 109.936 161.226 100.048 161.284 97.7245C161.342 95.4013 160.8 92.9813 159.377 91.1518C158.588 90.1499 157.552 89.3513 156.87 88.2768C155.393 85.9488 155.902 82.9528 155.418 80.2279C155.093 78.4715 154.352 76.8185 153.258 75.4071C152.163 73.9958 150.746 72.8673 149.126 72.1161C146.439 70.8867 143.289 70.7512 140.806 69.1492C138.971 67.9634 137.66 66.0709 135.758 64.9964C132.055 62.9056 127.418 64.5124 123.59 66.3516" fill="#263238"/>
<path d="M107.027 93.8961C106.645 93.6396 104.123 95.5611 106.611 97.0954C111.001 99.7767 114.771 90.7066 114.611 87.6912C116.847 86.7232 119.108 85.7891 121.077 84.3032C123.047 82.8174 125.99 77.9241 126.518 75.4364C128.197 76.1188 136.314 76.1817 135.607 75.6929C134.005 74.5845 130.767 72.2081 130.336 70.3689C129.402 66.3275 126.532 62.8088 122.738 61.7537C120.759 61.2538 118.672 61.408 116.788 62.1932C114.904 62.9784 113.326 64.3524 112.288 66.1097C107.772 64.619 102.419 65.9596 98.8183 69.4977C97.0207 71.3094 95.6907 73.5311 94.9428 75.9712C94.1949 78.4114 94.0516 80.9968 94.5252 83.5046C94.7866 84.7921 95.2222 86.1376 94.8108 87.4154C94.2978 88.9932 92.7102 89.8354 91.447 90.8711C88.0058 93.6638 86.5247 98.6151 86.9458 103.053C87.3669 107.492 88.1316 109.278 90.3338 110.889C94.6462 114.035 85.6826 122.079 93.7218 124.8" fill="#263238"/>
<path d="M166.98 124.655C166.98 124.626 167.266 124.456 167.735 124.016C168.428 123.379 168.98 122.604 169.357 121.741C169.967 120.388 170.124 118.874 169.807 117.424C169.429 115.735 168.156 114.128 166.453 112.758C164.749 111.388 162.624 110.067 161.085 107.826C159.546 105.585 159.27 102.502 159.764 99.5982C160.258 96.6942 161.477 93.7902 162.261 90.7362C162.683 89.1979 162.884 87.6072 162.857 86.0123C162.842 84.3908 162.405 82.801 161.589 81.3998C160.708 80.039 159.46 78.9564 157.988 78.278C156.545 77.6026 155.013 77.1365 153.438 76.8938C151.87 76.7091 150.317 76.4115 148.792 76.0032C148.027 75.7996 147.311 75.4416 146.689 74.9514C146.068 74.4611 145.553 73.849 145.176 73.1524C144.474 71.7682 144.319 70.3017 144.015 68.9707C143.777 67.68 143.24 66.4632 142.446 65.4181C140.963 63.5475 138.841 62.2896 136.488 61.8849C134.549 61.5552 132.555 61.7939 130.748 62.5722C129.38 63.1612 128.123 63.9796 127.031 64.9922C126.119 65.887 125.296 66.8676 124.572 67.9204C124.572 67.9204 124.596 67.8333 124.679 67.6881C124.792 67.4672 124.916 67.2524 125.051 67.0444C125.565 66.2331 126.17 65.4843 126.857 64.8131C127.948 63.7456 129.217 62.8774 130.608 62.2479C132.473 61.4061 134.543 61.1252 136.566 61.4396C139.037 61.8454 141.27 63.1525 142.834 65.1084C143.683 66.211 144.264 67.4973 144.528 68.8642C144.847 70.2242 145.012 71.6569 145.665 72.9008C146.011 73.5245 146.48 74.0711 147.044 74.5072C147.608 74.9433 148.256 75.2596 148.947 75.4369C150.445 75.8328 151.97 76.1192 153.511 76.2936C155.148 76.5503 156.74 77.0392 158.239 77.7456C159.822 78.4743 161.164 79.6375 162.111 81.0997C162.984 82.5961 163.451 84.2945 163.467 86.0268C163.496 87.6808 163.287 89.3303 162.847 90.9249C162.029 94.037 160.8 96.8781 160.321 99.7289C159.841 102.58 160.069 105.45 161.501 107.555C162.934 109.661 165.054 110.972 166.724 112.434C168.394 113.896 169.768 115.561 170.112 117.366C170.416 118.887 170.214 120.467 169.536 121.862C169.126 122.74 168.526 123.516 167.779 124.132C167.539 124.344 167.27 124.52 166.98 124.655Z" fill="#455A64"/>
<path d="M152.117 95.4307C152.17 95.4549 151.88 96.1228 151.584 97.3909C151.18 99.1815 151.122 101.033 151.415 102.846C151.611 104.089 151.979 105.3 152.509 106.442C153.15 107.743 153.946 108.962 154.881 110.072C155.389 110.712 155.823 111.409 156.173 112.148C156.543 112.949 156.7 113.833 156.628 114.713C156.487 116.514 155.602 118.101 154.943 119.742C154.285 121.383 153.864 123.077 154.498 124.582C155.132 126.087 156.284 127.215 157.373 128.299C158.491 129.301 159.45 130.466 160.219 131.755C160.866 132.946 161.039 134.338 160.703 135.651C160.481 136.582 160.054 137.451 159.455 138.197C158.856 138.943 158.098 139.546 157.238 139.964C156.769 140.175 156.272 140.314 155.761 140.375C155.585 140.401 155.406 140.401 155.229 140.375C155.883 140.23 156.52 140.019 157.131 139.746C157.921 139.309 158.61 138.709 159.149 137.985C159.689 137.262 160.069 136.431 160.263 135.549C160.544 134.348 160.372 133.084 159.779 132.002C159.019 130.774 158.079 129.668 156.991 128.72C155.897 127.641 154.624 126.479 153.946 124.805C153.611 123.953 153.499 123.03 153.622 122.123C153.761 121.221 154.018 120.34 154.387 119.505C155.069 117.835 155.911 116.281 156.037 114.665C156.163 113.048 155.355 111.63 154.44 110.415C153.493 109.264 152.693 107.999 152.059 106.65C150.76 103.713 150.519 100.417 151.376 97.3231C151.51 96.8259 151.683 96.3404 151.894 95.8711C151.946 95.7138 152.021 95.5653 152.117 95.4307Z" fill="#455A64"/>
<path d="M79.4971 110.623C79.4971 110.623 79.3906 110.565 79.2212 110.42C78.964 110.205 78.7274 109.967 78.5145 109.708C77.6968 108.715 77.144 107.532 76.9077 106.267C76.703 105.279 76.7027 104.26 76.9066 103.272C77.1105 102.284 77.5144 101.348 78.0935 100.522C78.8633 99.4454 79.8887 98.577 81.0774 97.9949C82.2661 97.4128 83.5808 97.1353 84.9034 97.1873L84.6372 97.5455C84.0142 95.9419 83.7355 94.2253 83.8192 92.507C83.869 91.5597 84.1269 90.6349 84.5744 89.7984C85.0219 88.9619 85.6481 88.2342 86.4086 87.667C87.2265 87.0534 88.2176 86.7145 89.24 86.699C90.2643 86.761 91.2631 87.0433 92.1682 87.5267C93.0186 87.9887 93.9246 88.34 94.8641 88.5721C95.3205 88.6596 95.7913 88.6362 96.2368 88.504C96.6823 88.3717 97.0896 88.1345 97.4244 87.8122C98.4139 86.7874 98.9807 85.4273 99.012 84.0031C99.1233 82.5802 98.9878 81.133 99.1378 79.6859C99.4402 76.9015 100.699 74.3082 102.7 72.3484C104.484 70.6087 106.783 69.4931 109.253 69.1685C111.336 68.8759 113.459 69.1415 115.405 69.9381L115.134 70.0494C115.831 68.6558 117.016 67.5671 118.464 66.9905C119.525 66.5549 120.677 66.3887 121.818 66.5065C122.528 66.5778 123.218 66.7779 123.856 67.097C124.077 67.2056 124.284 67.3422 124.47 67.5036C123.637 67.0809 122.73 66.8214 121.799 66.7389C120.7 66.6717 119.601 66.8692 118.595 67.3148C117.248 67.8839 116.155 68.9251 115.521 70.243L115.434 70.4221L115.245 70.3495C113.363 69.6178 111.323 69.3892 109.326 69.6864C106.977 70.0263 104.797 71.1082 103.107 72.7743C101.217 74.6464 100.033 77.1135 99.7525 79.7585C99.6121 81.1282 99.7525 82.5705 99.6412 84.0709C99.6004 85.6528 98.9623 87.1607 97.8552 88.2914C97.4482 88.6769 96.9561 88.9611 96.4187 89.1209C95.8814 89.2806 95.3139 89.3115 94.7624 89.211C93.7621 88.9708 92.7973 88.6014 91.8923 88.1123C91.0712 87.6646 90.1633 87.3989 89.2303 87.3331C88.338 87.3474 87.4727 87.642 86.7571 88.1752C86.0598 88.6897 85.4855 89.3525 85.0753 90.1158C84.6652 90.8791 84.4296 91.7239 84.3855 92.5893C84.2971 94.2269 84.5493 95.865 85.126 97.4003L85.2615 97.7778H84.8598C83.6206 97.7193 82.3861 97.9674 81.2658 98.5001C80.1455 99.0328 79.1738 99.8337 78.4371 100.832C77.8748 101.608 77.4755 102.491 77.2634 103.426C77.0513 104.361 77.0307 105.329 77.2029 106.272C77.4072 107.502 77.9053 108.664 78.6549 109.66C79.1631 110.294 79.5213 110.594 79.4971 110.623Z" fill="#455A64"/>
<path d="M124.655 69.4206C124.684 69.532 123.687 69.3722 122.472 70.2676C121.257 71.163 120.163 73.2588 119.849 75.9498L119.824 76.1773H119.592C118.255 76.0903 116.917 76.3137 115.681 76.8301C114.445 77.3465 113.345 78.1418 112.468 79.1539C111.979 79.7301 111.591 80.3846 111.321 81.0899C111.089 81.8545 110.927 82.6385 110.837 83.4324C110.735 84.2865 110.573 85.1323 110.353 85.9638C110.112 86.8749 109.576 87.6803 108.828 88.2531C107.221 89.5066 105.246 89.7051 103.504 89.9955C101.832 90.1418 100.196 90.5654 98.6639 91.249C96.0996 92.4781 94.0979 94.6355 93.064 97.2845C92.3833 99.0828 92.1556 101.021 92.4009 102.928C92.5752 104.283 92.8849 104.999 92.8027 105.019C92.6977 104.863 92.6177 104.691 92.5655 104.511C92.3891 104.008 92.2532 103.491 92.1589 102.967C91.8088 101.012 91.9757 98.9999 92.6429 97.1296C93.659 94.3188 95.7253 92.0114 98.4074 90.6924C99.9872 89.9689 101.677 89.5157 103.407 89.3518C105.13 89.0759 107.003 88.8339 108.407 87.7255C109.791 86.7575 109.941 84.9183 110.207 83.3066C110.312 82.4741 110.492 81.6528 110.745 80.8527C111.048 80.0857 111.476 79.3742 112.013 78.7473C112.956 77.6767 114.136 76.842 115.46 76.3099C116.784 75.7779 118.214 75.5634 119.636 75.6836L119.379 75.8966C119.766 73.0942 120.947 70.9259 122.322 70.045C122.827 69.697 123.411 69.4792 124.021 69.411C124.231 69.3822 124.445 69.3855 124.655 69.4206Z" fill="#455A64"/>
<path d="M107.962 95.2859C109.341 92.5852 107.478 89.1827 104.453 89.1875C102.783 89.1875 100.992 90.0974 99.5013 92.953C95.5277 100.571 103.998 102.991 104.124 102.778C104.201 102.648 106.345 98.4561 107.962 95.2859Z" fill="#EF9D78"/>
<path d="M103.3 98.6785C103.3 98.6349 103.121 98.7027 102.816 98.6785C102.432 98.6525 102.074 98.4791 101.815 98.1945C101.166 97.4782 101.151 95.8471 101.815 94.458C102.132 93.7923 102.597 93.208 103.175 92.7495C103.371 92.5512 103.613 92.4035 103.88 92.3192C104.146 92.2349 104.429 92.2165 104.704 92.2655C104.878 92.3049 105.033 92.4038 105.141 92.5453C105.25 92.6867 105.306 92.8616 105.299 93.0399C105.299 93.3061 105.164 93.4319 105.193 93.4658C105.222 93.4997 105.425 93.4222 105.527 93.0786C105.593 92.8716 105.588 92.6483 105.512 92.4446C105.45 92.3116 105.361 92.1923 105.253 92.0935C105.144 91.9946 105.017 91.9182 104.878 91.8686C104.533 91.7665 104.168 91.7547 103.817 91.8344C103.466 91.914 103.142 92.0825 102.874 92.3236C102.208 92.8156 101.67 93.4615 101.306 94.2063C100.556 95.7696 100.595 97.5943 101.529 98.5091C101.703 98.6739 101.911 98.7981 102.139 98.8726C102.366 98.9471 102.608 98.9701 102.845 98.9398C103.194 98.8527 103.32 98.7075 103.3 98.6785Z" fill="#D37A57"/>
<path d="M100.372 201.098C99.6943 199.849 97.9519 199.08 97.9519 199.08L96.4999 195.522C96.8473 194.624 96.8473 193.628 96.4999 192.729C95.9239 191.19 91.6889 182.251 91.7857 181.96L90.6919 181.898C90.6919 181.898 94.5929 191.36 94.9753 191.844C95.3576 192.328 95.9433 195.14 94.9753 195.522C94.0073 195.904 91.9696 194.869 91.1033 194.002C90.2369 193.136 87.483 186.626 87.0038 185.29C86.5246 183.955 87.3765 182.072 87.3765 182.072L88.146 180.247H87.12C86.6983 181.475 86.3445 182.726 86.06 183.993C85.6776 185.823 90.0046 193.804 90.6774 194.67C91.3501 195.537 93.6588 196.209 94.9075 197.09C96.1562 197.971 95.9675 200.653 95.9675 200.653C95.3165 201.593 94.9182 202.684 94.8107 203.823C94.7139 205.555 98.5617 213.73 101.156 215.439C103.75 217.147 106.833 215.923 107.119 216.02C107.404 216.116 108.087 214.669 108.087 214.669C108.087 214.669 101.045 202.347 100.372 201.098ZM103.915 215.381C102.498 215.19 101.214 214.447 100.343 213.314C100.028 212.898 96.6596 207.022 96.224 205.948C95.469 204.045 95.9917 202.99 96.2676 201.877C96.6693 200.256 99.1716 201.204 99.1716 201.204C99.1716 201.204 106.538 213.934 106.369 214.321C106.199 214.708 105.299 215.502 103.915 215.381Z" fill="#263238"/>
<path d="M108.063 214.655C108.063 214.655 129.509 206.494 130.511 205.57C131.512 204.645 135.133 199.331 135.133 199.331C135.133 199.331 136.904 199.636 136.672 200.101C136.44 200.565 133.052 205.88 129.412 207.419C125.772 208.958 107.08 216.005 107.08 216.005L108.063 214.655Z" fill="#263238"/>
<path d="M40.1965 147.402L31.3635 198.348C31.3635 198.348 28.1111 208.26 28.5757 210.448C29.0403 212.636 30.6811 221.967 35.6373 224.91C40.5934 227.853 50.4089 225.931 52.4224 223.942C54.4358 221.953 58.4046 218.241 58.8693 216.537C59.3339 214.833 62.5912 188.949 62.5912 188.949L63.8835 181.689C63.8835 181.689 59.0822 183.238 56.1395 181.205C53.1968 179.172 49.3248 170.518 49.3248 170.518L45.0123 177.144L40.1965 147.402Z" fill="#9269AD"/>
<path d="M49.3246 170.47C49.2812 170.571 49.226 170.667 49.1601 170.755L48.6325 171.554C48.1775 172.241 47.5193 173.243 46.7304 174.492C45.1429 176.989 43.0229 180.479 40.7046 184.356C38.3862 188.233 36.3002 191.742 34.7369 194.263C33.9625 195.522 33.3236 196.533 32.8735 197.23C32.6557 197.554 32.4766 197.821 32.3459 198.024C32.2867 198.118 32.2204 198.207 32.1475 198.29C32.1862 198.185 32.2382 198.086 32.3023 197.995L32.7863 197.177L34.5868 194.171L40.4868 184.225C42.8051 180.353 44.9541 176.868 46.5803 174.395C47.3935 173.156 48.0711 172.169 48.5551 171.491L49.1165 170.721C49.1782 170.631 49.2478 170.547 49.3246 170.47Z" fill="#263238"/>
<path d="M62.7756 187.87C62.7217 187.945 62.66 188.015 62.5917 188.078C62.461 188.209 62.2868 188.417 62.0254 188.644C61.2982 189.314 60.4742 189.87 59.5812 190.295C58.9659 190.584 58.3149 190.791 57.6452 190.909C56.8694 191.056 56.0751 191.075 55.293 190.967C54.4304 190.856 53.5869 190.628 52.7859 190.29C51.9358 189.922 51.1251 189.47 50.3659 188.939C49.6176 188.386 48.9312 187.753 48.3186 187.052C46.8034 185.263 45.7881 183.106 45.3758 180.798C45.1956 179.83 45.129 178.844 45.1774 177.861C45.1774 177.512 45.2355 177.246 45.25 177.062C45.2585 176.969 45.2747 176.877 45.2984 176.786C45.3166 177.146 45.3166 177.506 45.2984 177.865C45.29 178.84 45.3824 179.814 45.5743 180.769C45.8567 182.186 46.3597 183.55 47.065 184.811C47.4852 185.547 47.9711 186.244 48.517 186.892C49.1221 187.577 49.7969 188.196 50.5304 188.741C51.278 189.261 52.0757 189.706 52.9117 190.067C53.685 190.399 54.4987 190.626 55.3317 190.745C56.0847 190.846 56.8488 190.829 57.5968 190.696C58.2639 190.589 58.9145 190.397 59.5328 190.125C60.4184 189.722 61.2429 189.195 61.9819 188.562C62.4852 188.121 62.7611 187.85 62.7756 187.87Z" fill="#263238"/>
<path d="M49.3252 170.47L55.9366 166.221C55.9366 166.221 73.5542 159.062 75.345 158.651C77.1358 158.24 79.217 157.412 80.185 158.651C81.153 159.89 91.196 167.184 91.196 167.184C91.196 167.184 97.1154 178.316 97.1154 179.85C97.1154 181.385 98.7658 183.301 97.1154 183.848L95.4456 184.405C95.4456 184.405 94.8938 187.105 92.8271 187.405C90.7604 187.706 90.0732 187.405 90.0732 187.405C90.0732 187.405 89.9376 190.106 88.2872 189.942C86.6368 189.777 83.8828 187.405 83.8828 187.405C83.8828 187.405 82.6438 188.809 81.6806 188.809C80.7174 188.809 77.6876 186.747 77.6876 186.747L71.8312 181.651L66.6718 179.865L63.8888 181.622C63.8888 181.622 57.9356 182.13 57.0402 181.622C56.1448 181.113 49.3252 170.47 49.3252 170.47Z" fill="#EF9D78"/>
<path d="M83.1617 187.869C83.0378 187.617 82.9358 187.355 82.8567 187.085C82.7696 186.834 82.6583 186.524 82.5083 186.171C82.3582 185.817 82.213 185.411 82.0001 184.98C81.7871 184.549 81.579 184.065 81.3079 183.576C81.0369 183.088 80.732 182.56 80.4077 182.013C79.6734 180.851 78.8531 179.746 77.9538 178.707C77.0384 177.682 76.0501 176.725 74.9966 175.842C74.5126 175.45 74.0286 175.063 73.5446 174.748C73.0606 174.434 72.6492 174.129 72.2426 173.877C71.836 173.625 71.4537 173.393 71.1245 173.219C70.7954 173.044 70.505 172.87 70.263 172.735C70.0081 172.619 69.7622 172.485 69.5273 172.333C69.796 172.414 70.0568 172.52 70.3066 172.648C70.6091 172.774 70.9048 172.916 71.1923 173.074C71.5311 173.253 71.9232 173.446 72.3346 173.703C72.746 173.959 73.2009 174.225 73.6656 174.559C74.1302 174.893 74.6336 175.252 75.1176 175.644C77.2831 177.391 79.1315 179.498 80.5819 181.873C80.9062 182.424 81.2208 182.942 81.4677 183.46C81.7145 183.978 81.9517 184.428 82.1404 184.912C82.3292 185.396 82.4841 185.769 82.6244 186.127C82.7648 186.485 82.8567 186.8 82.9293 187.061C83.0279 187.324 83.1055 187.594 83.1617 187.869Z" fill="#D37A57"/>
<path d="M90.0627 187.7C90.0627 187.7 90.0046 187.633 89.9126 187.487C89.8207 187.342 89.6852 187.134 89.5351 186.848C89.1143 186.041 88.7551 185.203 88.4606 184.341C88.0783 183.257 87.7056 181.921 87.27 180.469C86.8349 178.892 86.2109 177.372 85.4114 175.944C84.5638 174.545 83.4368 173.335 82.1009 172.391C80.8812 171.506 79.7051 170.789 78.8097 170.054C78.0825 169.499 77.4513 168.828 76.9414 168.069C76.8085 167.859 76.692 167.639 76.5929 167.411C76.5508 167.335 76.5198 167.254 76.501 167.169C76.5252 167.169 76.6607 167.488 77.0237 168.016C77.5562 168.741 78.1959 169.381 78.921 169.913C79.8212 170.62 80.9973 171.317 82.2364 172.207C83.6077 173.157 84.7623 174.386 85.6244 175.813C86.4357 177.259 87.0633 178.8 87.4926 180.402C87.9186 181.854 88.2719 183.18 88.63 184.274C88.9004 185.132 89.2237 185.972 89.598 186.79C89.7697 187.085 89.9248 187.389 90.0627 187.7Z" fill="#D37A57"/>
<path d="M95.0292 184.506C94.9926 184.431 94.9666 184.351 94.9517 184.269C94.9082 184.08 94.8549 183.853 94.7872 183.572C94.7194 183.291 94.6371 182.899 94.5161 182.478C94.3951 182.057 94.279 181.564 94.0902 181.026C93.9014 180.489 93.732 179.928 93.4852 179.323C93.2384 178.718 92.9673 178.079 92.6721 177.411C91.3235 174.533 89.5265 171.888 87.3481 169.575C86.835 169.052 86.3559 168.544 85.867 168.123C85.3782 167.702 84.9329 167.286 84.5022 166.932C84.0714 166.579 83.6745 166.284 83.326 166.013C82.9776 165.742 82.6678 165.529 82.4113 165.354L81.8208 164.948C81.6901 164.851 81.6224 164.798 81.6272 164.788C81.7055 164.818 81.7802 164.857 81.8498 164.904L82.4645 165.277C82.7307 165.437 83.0502 165.64 83.4083 165.901C83.7665 166.163 84.1876 166.439 84.6183 166.797C85.0491 167.155 85.5282 167.523 86.0074 167.973C86.4866 168.423 86.9754 168.902 87.5126 169.425C88.6117 170.589 89.6213 171.835 90.5328 173.152C91.4223 174.48 92.2087 175.875 92.885 177.324C93.1803 178.001 93.4707 178.64 93.6836 179.26C93.8966 179.879 94.1047 180.45 94.2644 180.988C94.4242 181.525 94.5452 182.009 94.6565 182.44C94.7525 182.805 94.83 183.175 94.8888 183.548C94.9372 183.829 94.9759 184.066 95.0098 184.255C95.0285 184.337 95.035 184.422 95.0292 184.506Z" fill="#D37A57"/>
<path d="M69.0964 165.717C69.0964 165.755 68.7528 165.809 68.2446 166.031C67.5815 166.309 67.0035 166.757 66.5692 167.33C66.1349 167.903 65.8597 168.58 65.7713 169.294C65.6987 169.845 65.7423 170.194 65.7036 170.199C65.5867 169.907 65.55 169.59 65.5971 169.279C65.6394 168.517 65.9078 167.785 66.3682 167.176C66.8286 166.568 67.4599 166.11 68.1816 165.862C68.4691 165.736 68.7841 165.686 69.0964 165.717Z" fill="#D37A57"/>
<path d="M74.0041 161.052C74.0428 161.12 73.191 161.657 72.3488 162.557C71.5067 163.457 71.0033 164.328 70.9355 164.295C71.5142 162.866 72.6098 161.708 74.0041 161.052Z" fill="#D37A57"/>
<path d="M143.076 103.577C142.239 103.925 142.069 104.927 142.084 105.832C142.084 106.965 142.384 107.148 143.308 109.046C144.823 112.148 146.633 118.034 146.633 118.034C146.633 118.034 145.148 132.892 146.149 136.382C146.423 137.307 146.918 138.152 147.593 138.841C148.268 139.53 149.102 140.044 150.021 140.336L148.666 151.812H164.875C164.875 151.812 164.299 140.68 163.951 137.292C163.583 133.71 163.825 112.051 163.825 112.051L162.233 100.489L158.482 93.9933C157.913 94.3654 157.491 94.9239 157.289 95.573C157.087 96.2221 157.116 96.9213 157.373 97.5507C158.22 99.9272 158.777 104.491 158.777 104.491L149.392 90.3682C149.392 90.3682 147.548 90.8086 147.456 94.2402C147.456 94.2402 144.726 96.0164 146.488 98.9011C148.386 102.125 150.428 111.805 149.712 111.805L143.904 103.252L143.076 103.577Z" fill="#EF9D78"/>
<path d="M148.627 151.812C148.627 151.812 148.627 151.555 148.699 151.052C148.772 150.549 148.84 149.798 148.946 148.83C149.169 146.87 149.498 143.99 149.914 140.326L149.958 140.394C149.203 140.15 148.503 139.763 147.896 139.252C147.228 138.699 146.698 137.998 146.347 137.205C145.999 136.344 145.805 135.428 145.776 134.499C145.721 133.531 145.699 132.547 145.708 131.547C145.752 127.491 146.066 122.951 146.526 118.024V118.063C145.766 115.672 144.924 113.15 143.869 110.594C143.603 109.956 143.322 109.321 143.003 108.692C142.648 108.069 142.338 107.422 142.073 106.756C141.984 106.394 141.945 106.021 141.957 105.648C141.958 105.271 142.013 104.896 142.122 104.535C142.228 104.152 142.469 103.821 142.799 103.601C142.965 103.505 143.138 103.424 143.317 103.359L143.83 103.146L143.917 103.112L143.971 103.189L150.04 112.09L149.817 112.138C149.897 111.393 149.887 110.641 149.788 109.897C149.704 109.135 149.575 108.379 149.401 107.632C149.05 106.105 148.597 104.603 148.046 103.136C147.514 101.64 146.841 100.188 146.187 98.6928C145.84 97.9204 145.749 97.0573 145.926 96.2293C146.125 95.3902 146.615 94.6491 147.31 94.1384L147.257 94.2303C147.336 93.4842 147.508 92.7508 147.77 92.0475C147.914 91.6803 148.106 91.3337 148.341 91.0166C148.58 90.6736 148.917 90.4118 149.309 90.2664L149.387 90.2422L149.44 90.3196L149.551 90.4842L158.825 104.448L158.597 104.53C158.371 102.669 158.04 100.822 157.605 98.9977C157.494 98.5476 157.368 98.1072 157.223 97.6764C157.058 97.2306 156.979 96.7576 156.99 96.2825C157.017 95.8082 157.155 95.3469 157.393 94.9358C157.631 94.5247 157.962 94.1753 158.36 93.9157L158.462 93.848L158.525 93.9593L162.276 100.455C162.827 104.501 163.355 108.357 163.858 112.022C163.79 118.014 163.757 123.498 163.766 128.347C163.766 130.768 163.766 133.042 163.839 135.124C163.868 136.169 163.926 137.166 164.023 138.124C164.12 139.083 164.163 139.997 164.221 140.864C164.449 144.329 164.584 147.049 164.681 148.903C164.725 149.827 164.758 150.534 164.778 151.018C164.797 151.502 164.802 151.744 164.802 151.744C164.802 151.744 164.778 151.497 164.749 151.018C164.72 150.539 164.671 149.827 164.618 148.908C164.502 147.054 164.342 144.334 164.1 140.869C164.037 140.002 163.974 139.092 163.892 138.134C163.81 137.176 163.723 136.174 163.694 135.128C163.626 133.028 163.607 130.772 163.592 128.352C163.568 123.512 163.592 118.019 163.65 112.027C163.143 108.368 162.609 104.514 162.048 100.464V100.503L158.287 94.0174L158.452 94.0609C158.09 94.3012 157.788 94.622 157.571 94.9981C157.353 95.3743 157.226 95.7957 157.198 96.2293C157.194 96.6747 157.269 97.1174 157.421 97.5361C157.573 97.9749 157.703 98.4202 157.813 98.8719C158.25 100.707 158.585 102.565 158.815 104.438L158.883 104.965L158.587 104.52L149.309 90.5616L149.203 90.3971L149.333 90.4503C149.001 90.585 148.715 90.8138 148.511 91.1086C148.29 91.4057 148.111 91.7313 147.978 92.0766C147.729 92.7604 147.567 93.4725 147.494 94.1965V94.2497L147.446 94.2884C146.803 94.7625 146.349 95.4481 146.163 96.2244C146.001 97.0029 146.089 97.8125 146.415 98.5379C147.059 100.014 147.741 101.486 148.273 102.986C148.829 104.464 149.285 105.977 149.638 107.516C149.82 108.291 149.954 109.077 150.04 109.868C150.142 110.634 150.151 111.409 150.069 112.177L150.025 112.487L149.846 112.225C147.751 109.138 145.708 106.137 143.782 103.305L143.922 103.344C143.588 103.494 143.206 103.62 142.92 103.78C142.634 103.971 142.428 104.26 142.34 104.593C142.237 104.932 142.185 105.284 142.185 105.638C142.173 105.988 142.209 106.338 142.291 106.679C142.55 107.344 142.854 107.991 143.201 108.615C143.521 109.249 143.806 109.893 144.072 110.551C145.127 113.121 145.965 115.643 146.72 118.043V118.082C146.236 123.004 145.926 127.539 145.868 131.59C145.868 132.6 145.887 133.58 145.926 134.528C145.948 135.439 146.134 136.339 146.473 137.185C146.808 137.922 147.293 138.581 147.897 139.119C148.501 139.658 149.211 140.064 149.982 140.312H150.035V140.36C149.585 144.034 149.237 146.899 148.999 148.855L148.724 151.076C148.67 151.555 148.627 151.812 148.627 151.812Z" fill="#D37A57"/>
<path d="M155.79 113.039C155.709 112.778 155.651 112.511 155.616 112.24C155.524 111.722 155.369 110.977 155.161 110.057C154.596 107.676 153.793 105.357 152.765 103.136C151.715 100.921 150.493 98.7913 149.111 96.7668C148.588 95.9875 148.143 95.3632 147.848 94.9324C147.682 94.7136 147.532 94.484 147.397 94.2451C147.591 94.4393 147.768 94.6498 147.925 94.8743C148.254 95.2857 148.714 95.8956 149.261 96.6651C150.694 98.67 151.943 100.8 152.993 103.03C154.032 105.265 154.818 107.609 155.335 110.019C155.519 110.943 155.655 111.698 155.713 112.226C155.763 112.494 155.788 112.766 155.79 113.039Z" fill="#D37A57"/>
<path d="M160.824 109.433C160.353 108.632 159.956 107.789 159.638 106.916C159.234 106.079 158.91 105.206 158.67 104.308C159.137 105.108 159.532 105.949 159.851 106.82C160.253 107.66 160.578 108.535 160.824 109.433Z" fill="#D37A57"/>
<path d="M147.335 147.059C144.489 172.169 140.787 198.895 136.527 226.657H169.522C175.727 212.921 171.942 200.938 170.277 183.857L164.837 145.074L147.335 147.059Z" fill="#9269AD"/>
<path d="M136.527 226.658C136.522 226.605 136.522 226.551 136.527 226.498L136.586 226.014C136.648 225.584 136.731 224.969 136.837 224.19C137.07 222.588 137.404 220.318 137.805 217.472C138.638 211.79 139.79 203.968 141.058 195.324C142.326 186.68 143.357 178.829 144.049 173.142C144.402 170.296 144.668 167.997 144.847 166.405C144.939 165.621 145.012 165.006 145.065 164.57L145.123 164.086C145.129 164.032 145.141 163.979 145.157 163.927C145.157 163.927 145.157 163.98 145.157 164.086L145.118 164.57C145.08 165.006 145.022 165.626 144.949 166.41C144.799 168.002 144.562 170.311 144.228 173.157C143.584 178.848 142.558 186.709 141.324 195.358C140.09 204.007 138.875 211.814 137.994 217.496C137.554 220.313 137.191 222.597 136.939 224.199C136.813 224.974 136.711 225.584 136.644 226.019C136.61 226.213 136.581 226.372 136.561 226.503C136.555 226.556 136.543 226.607 136.527 226.658Z" fill="#263238"/>
<path d="M208.013 226.44H113.929L126.067 160.408C126.276 159.275 126.874 158.252 127.758 157.514C128.642 156.776 129.756 156.37 130.907 156.366H215.462C216.188 156.368 216.905 156.529 217.561 156.839C218.217 157.149 218.797 157.6 219.259 158.16C219.722 158.719 220.055 159.374 220.235 160.077C220.415 160.78 220.438 161.514 220.302 162.227L208.013 226.44Z" fill="#455A64"/>
<path d="M113.928 226.44H78.2383L78.3835 226.333C81.5667 223.941 85.41 222.589 89.3896 222.461L114.906 221.711L113.928 226.44Z" fill="#455A64"/>
<path d="M136.527 156.453C136.527 156.477 136.265 156.405 135.767 156.4C135.039 156.411 134.323 156.59 133.676 156.923C132.65 157.444 131.784 158.231 131.169 159.202C130.391 160.516 129.869 161.964 129.63 163.471C129.325 165.141 129.054 166.995 128.72 168.974C128.386 170.954 128.018 173.064 127.602 175.266C126.784 179.705 125.811 184.574 124.756 189.67C122.631 199.868 120.661 209.088 119.378 215.806C118.73 219.155 118.231 221.871 117.893 223.749C117.723 224.668 117.593 225.389 117.501 225.907C117.452 226.14 117.418 226.323 117.389 226.469C117.379 226.533 117.363 226.596 117.341 226.657C117.341 226.657 117.341 226.595 117.341 226.464C117.341 226.333 117.389 226.13 117.418 225.898C117.501 225.375 117.607 224.649 117.747 223.724C118.043 221.842 118.507 219.117 119.122 215.758C120.346 209.045 122.278 199.81 124.402 189.622C125.457 184.525 126.435 179.666 127.272 175.232C127.698 173.021 128.071 170.91 128.424 168.94C128.778 166.971 129.054 165.122 129.392 163.437C129.649 161.905 130.198 160.436 131.009 159.11C131.654 158.12 132.558 157.325 133.623 156.811C134.288 156.476 135.026 156.31 135.772 156.327C136.028 156.333 136.282 156.375 136.527 156.453Z" fill="#263238"/>
<path d="M176.263 189.917C176.263 190.817 175.996 191.696 175.497 192.444C174.997 193.193 174.286 193.776 173.455 194.12C172.623 194.464 171.709 194.555 170.826 194.379C169.944 194.203 169.133 193.77 168.497 193.134C167.86 192.498 167.427 191.687 167.251 190.804C167.076 189.922 167.166 189.007 167.51 188.176C167.855 187.344 168.438 186.634 169.186 186.134C169.934 185.634 170.814 185.367 171.714 185.367C172.92 185.367 174.078 185.847 174.931 186.7C175.784 187.553 176.263 188.71 176.263 189.917Z" fill="#F5F5F5"/>
<path d="M231.168 226.512C231.168 226.579 181.621 226.637 120.521 226.637C59.421 226.637 9.86426 226.584 9.86426 226.512C9.86426 226.439 59.3968 226.386 120.521 226.386C181.646 226.386 231.168 226.444 231.168 226.512Z" fill="#263238"/>
<path d="M99.9841 53.1476L98.6918 40.9943L92.4918 42.3931L87.1484 32.9551L90.4784 45.7133L96.7655 44.271L99.9841 53.1476Z" fill="#9269AD"/>
<path d="M97.4578 55.4417L91.6982 49.5127L88.983 52.8475L82.2021 50.0548L89.2976 55.4562L92.0419 52.0634L97.4578 55.4417Z" fill="#9269AD"/>
<path d="M159.72 60.6835L164.957 51.1584L169.559 54.4351L177.182 48.5303L170.072 57.8521L165.407 54.5125L159.72 60.6835Z" fill="#9269AD"/>
<path d="M169.327 66.1192L174.743 63.8105L175.609 66.7436L180.832 66.7775L174.685 68.3698L173.814 65.3884L169.327 66.1192Z" fill="#9269AD"/>
<path d="M131.759 29.1127C131.759 29.1127 131.977 28.9723 132.413 28.711C133.063 28.3312 133.737 27.9933 134.431 27.6994C137.131 26.5423 140.058 26.008 142.993 26.1361C143.487 26.1509 143.979 26.1913 144.469 26.2571C144.989 26.3073 145.504 26.4012 146.008 26.5378C146.541 26.6767 147.054 26.885 147.533 27.1573C148.044 27.4418 148.472 27.8537 148.777 28.3528C149.084 28.889 149.19 29.5169 149.077 30.1242C148.935 30.7488 148.625 31.3228 148.181 31.7844C147.236 32.7359 146.073 33.442 144.793 33.8414C141.998 34.8693 139.018 35.2964 136.047 35.0949C132.685 34.8885 129.419 33.8936 126.513 32.1909L126.445 32.1474L126.488 32.0796C127.729 30.1267 129.462 28.5344 131.512 27.4622C133.682 26.3141 136.067 25.6316 138.516 25.4585C141.096 25.296 143.686 25.5062 146.207 26.0828C147.504 26.3587 148.801 26.7024 150.079 27.1041C151.412 27.4653 152.708 27.9514 153.951 28.5561C155.236 29.186 156.313 30.1722 157.053 31.3972C157.42 32.0276 157.649 32.7286 157.726 33.4542C157.792 34.1925 157.669 34.9355 157.368 35.6128C156.687 36.9469 155.582 38.0164 154.226 38.6523C152.883 39.3277 151.458 39.8271 149.987 40.1382C143.874 41.6225 137.515 41.7875 131.333 40.6222C130.931 40.5544 130.539 40.4576 130.138 40.3754C129.736 40.2931 129.344 40.2011 128.947 40.0995C128.144 39.9197 127.356 39.6786 126.59 39.3783C125.81 39.0727 125.084 38.6464 124.436 38.1151C123.763 37.5717 123.303 36.8095 123.134 35.9613C122.992 35.0979 123.186 34.2126 123.676 33.488C124.159 32.7779 124.772 32.1654 125.482 31.6827C126.186 31.1974 126.935 30.7793 127.718 30.434C128.095 30.2404 128.492 30.071 128.884 29.9064C129.276 29.7419 129.673 29.5725 130.08 29.4224C133.347 28.1956 136.802 27.5407 140.292 27.4864C142.064 27.4569 143.836 27.58 145.587 27.8543C146.027 27.922 146.468 27.9946 146.908 28.0963C147.349 28.1979 147.784 28.2705 148.215 28.3915C149.095 28.592 149.955 28.8706 150.785 29.224C151.631 29.5731 152.415 30.0552 153.108 30.6518C153.819 31.2567 154.327 32.0663 154.56 32.9702L154.633 33.3138L154.662 33.6671C154.679 33.9008 154.679 34.1353 154.662 34.3689C154.601 34.8335 154.463 35.2848 154.255 35.7048C153.83 36.5368 153.233 37.2692 152.503 37.8537C151.79 38.4495 151.011 38.961 150.18 39.3783C149.769 39.5961 149.343 39.78 148.917 39.9591C148.491 40.1382 148.065 40.3221 147.629 40.4867C145.894 41.1568 144.111 41.6988 142.296 42.1081C138.613 42.9608 134.825 43.2738 131.052 43.0374C129.124 42.966 127.235 42.4703 125.52 41.5854C124.652 41.1262 123.909 40.4615 123.357 39.6494C122.827 38.8063 122.583 37.8154 122.66 36.8228C122.732 36.0187 122.993 35.2428 123.42 34.5577C123.85 33.8841 124.375 33.276 124.978 32.7524C126.179 31.7287 127.542 30.911 129.01 30.3324C131.88 29.1147 134.932 28.3788 138.041 28.1544C139.576 28.0422 141.117 28.0535 142.649 28.1882C143.414 28.256 144.174 28.3528 144.929 28.4835C145.688 28.5994 146.435 28.7857 147.16 29.0401C147.891 29.2796 148.582 29.6253 149.212 30.0662C149.862 30.4996 150.376 31.1089 150.693 31.8231C151 32.5493 151.026 33.3634 150.766 34.1076C150.507 34.835 150.066 35.4835 149.483 35.9903C148.322 37.0164 146.821 37.4423 145.393 37.7956C143.966 38.149 142.523 38.4781 141.091 38.7927C138.259 39.4512 135.385 39.9121 132.49 40.1721C129.642 40.4309 126.772 40.294 123.962 39.7655C121.204 39.2461 118.58 38.1744 116.247 36.6147L116.121 36.5324L116.232 36.4308C120.17 33.0337 125.006 30.8485 130.157 30.1388C135.044 29.3837 140.044 30.009 144.595 31.9441C145.137 32.2016 145.644 32.5269 146.105 32.9121C146.575 33.297 146.937 33.7973 147.155 34.3641C147.347 34.9514 147.316 35.589 147.068 36.1549C146.806 36.6959 146.413 37.1633 145.926 37.5149C144.966 38.1665 143.907 38.657 142.789 38.9669C141.709 39.3131 140.604 39.5752 139.484 39.751C137.293 40.0922 135.063 40.0922 132.872 39.751C132.325 39.7008 131.798 39.5126 131.343 39.2041C131.123 39.0222 130.956 38.7852 130.858 38.5172C130.76 38.2493 130.735 37.9601 130.786 37.6795C130.929 37.144 131.229 36.6637 131.648 36.3001C132.038 35.9351 132.478 35.6272 132.955 35.3853C136.642 33.7361 140.7 33.0931 144.716 33.5219C145.671 33.6097 146.611 33.8262 147.508 34.1656C148.402 34.4929 149.185 35.0649 149.769 35.8161C150.34 36.5634 150.609 37.4979 150.524 38.4345C150.379 39.3365 149.894 40.1487 149.169 40.7045C148.495 41.2395 147.772 41.7095 147.01 42.1081C146.268 42.5161 145.502 42.8782 144.716 43.1922C143.219 43.7894 141.661 44.2195 140.069 44.4748C137.17 44.946 134.205 44.8175 131.357 44.0973H131.265L131.319 44.0247C132.541 42.3699 134.225 41.1123 136.159 40.4092C137.844 39.7757 139.667 39.5955 141.444 39.8865C142.243 39.997 143.007 40.2847 143.68 40.7287C143.992 40.9436 144.26 41.2163 144.469 41.5321C144.664 41.8411 144.786 42.1903 144.827 42.5534C144.879 43.2318 144.69 43.9067 144.295 44.4603C143.955 44.9587 143.532 45.3957 143.046 45.7526C142.219 46.3086 141.318 46.7453 140.369 47.0497C139.701 47.2906 139.05 47.5801 138.424 47.9161C138.043 48.1268 137.689 48.3819 137.369 48.676C137.262 48.7728 137.19 48.855 137.136 48.9083L137.059 48.9857C137.153 48.8725 137.253 48.7643 137.359 48.6614C137.675 48.3618 138.026 48.1018 138.404 47.887C139.026 47.5417 139.674 47.244 140.34 46.9965C141.281 46.6836 142.175 46.244 142.998 45.6897C143.477 45.3358 143.891 44.9019 144.222 44.4071C144.607 43.8694 144.789 43.2125 144.735 42.5534C144.695 42.2081 144.576 41.8767 144.387 41.5854C144.185 41.2765 143.923 41.0115 143.617 40.8061C142.955 40.3721 142.204 40.0925 141.42 39.9882C139.66 39.7036 137.856 39.8855 136.188 40.5157C134.276 41.2161 132.613 42.4633 131.406 44.1022L131.372 44.0054C134.202 44.713 137.147 44.8349 140.026 44.3635C141.617 44.1056 143.175 43.6739 144.672 43.0761C145.447 42.7658 146.204 42.4102 146.937 42.0113C147.695 41.6131 148.413 41.143 149.081 40.6077C149.773 40.0752 150.236 39.3003 150.379 38.4394C150.448 37.5463 150.182 36.6593 149.633 35.9516C149.074 35.2242 148.321 34.669 147.46 34.3496C146.58 34.0078 145.656 33.7896 144.716 33.701C140.725 33.267 136.691 33.9035 133.027 35.545C132.568 35.7767 132.144 36.0734 131.769 36.4259C131.385 36.7666 131.111 37.2127 130.98 37.7085C130.934 37.9541 130.955 38.2074 131.04 38.4422C131.125 38.677 131.272 38.8849 131.464 39.0444C131.89 39.3582 132.39 39.5566 132.916 39.6203C135.084 39.9567 137.291 39.9567 139.46 39.6203C140.57 39.4421 141.665 39.18 142.736 38.8362C143.834 38.5246 144.872 38.034 145.81 37.3842C146.268 37.0536 146.637 36.6146 146.884 36.1065C147.11 35.5893 147.138 35.0068 146.962 34.4706C146.766 33.9362 146.432 33.4635 145.994 33.1008C145.554 32.7159 145.066 32.3905 144.542 32.1328C140.022 30.2033 135.053 29.5762 130.196 30.3227C125.085 31.0431 120.292 33.2285 116.397 36.6147V36.4259C118.707 37.9634 121.303 39.0201 124.03 39.5332C126.817 40.0593 129.665 40.1962 132.49 39.9398C135.374 39.6737 138.237 39.208 141.057 38.5458C142.509 38.2312 143.922 37.8924 145.355 37.5488C146.787 37.2052 148.259 36.7792 149.338 35.8016C149.881 35.3151 150.29 34.6966 150.524 34.0059C150.76 33.3158 150.734 32.5632 150.451 31.8908C150.152 31.2214 149.668 30.6507 149.057 30.2452C148.445 29.8206 147.775 29.4864 147.068 29.253C146.355 29.0086 145.621 28.8319 144.876 28.7255C144.13 28.5948 143.375 28.498 142.62 28.4302C141.099 28.2995 139.569 28.2898 138.046 28.4012C134.967 28.6244 131.945 29.3538 129.102 30.5598C127.656 31.1275 126.315 31.9323 125.133 32.9411C123.991 33.9575 123.004 35.2982 122.878 36.847C122.806 37.7835 123.037 38.7183 123.536 39.5138C124.066 40.2903 124.777 40.9264 125.607 41.3676C127.29 42.2341 129.142 42.7199 131.033 42.7905C134.783 43.0253 138.547 42.7156 142.209 41.8709C144.02 41.4567 145.8 40.9116 147.533 40.2398C147.962 40.0753 148.388 39.901 148.81 39.7171C149.236 39.538 149.653 39.3541 150.059 39.1412C150.871 38.7317 151.634 38.2316 152.334 37.6504C153.035 37.0872 153.611 36.3832 154.023 35.5838C154.217 35.1875 154.346 34.7626 154.405 34.3254C154.422 34.1063 154.422 33.8862 154.405 33.6671L154.376 33.338L154.309 33.0137C154.09 32.1599 153.614 31.3942 152.944 30.8212C152.268 30.2431 151.505 29.7758 150.684 29.437C149.866 29.0883 149.019 28.8129 148.152 28.6142C147.721 28.498 147.286 28.4109 146.85 28.3189C146.415 28.227 145.984 28.1495 145.543 28.0818C140.367 27.2649 135.067 27.7984 130.157 29.6306C129.755 29.7709 129.363 29.9306 128.971 30.1146C128.579 30.2985 128.192 30.4437 127.815 30.6373C127.044 30.9777 126.307 31.3893 125.612 31.8666C124.927 32.3303 124.336 32.92 123.87 33.6042C123.41 34.2798 123.226 35.106 123.357 35.9129C123.519 36.7073 123.951 37.4208 124.581 37.9312C125.209 38.4474 125.915 38.8607 126.672 39.1557C127.428 39.4539 128.207 39.6918 129 39.8672C129.392 39.9688 129.784 40.0656 130.181 40.143C130.578 40.2205 130.97 40.3221 131.367 40.3899C137.518 41.5479 143.846 41.3829 149.928 39.9059C151.383 39.6054 152.792 39.1173 154.12 38.4539C155.403 37.7763 156.598 36.8276 157.179 35.516C157.463 34.8716 157.58 34.1655 157.518 33.4638C157.445 32.7564 157.22 32.0729 156.859 31.4601C156.136 30.2707 155.088 29.312 153.839 28.6964C152.615 28.0967 151.338 27.6107 150.025 27.2444C148.733 26.8427 147.441 26.4991 146.153 26.2232C143.649 25.6475 141.075 25.4356 138.511 25.594C136.087 25.7681 133.726 26.4473 131.58 27.5881C129.553 28.6423 127.838 30.2114 126.609 32.1377L126.58 32.0264C129.296 33.6286 132.332 34.6112 135.471 34.9041C138.61 35.1969 141.775 34.7927 144.74 33.7204C146.01 33.3292 147.165 32.633 148.104 31.6924C148.533 31.246 148.836 30.6929 148.98 30.0904C149.09 29.5082 148.989 28.9056 148.694 28.3915C148.4 27.9061 147.985 27.5057 147.489 27.2299C147.019 26.9591 146.514 26.7523 145.989 26.6152C145.489 26.4786 144.979 26.3831 144.464 26.3297C143.98 26.2619 143.496 26.228 143.012 26.2038C140.086 26.0741 137.168 26.5983 134.47 27.7381C133.777 28.0215 133.102 28.3447 132.446 28.7061C131.987 28.9868 131.759 29.1127 131.759 29.1127Z" fill="#263238"/>
</svg>
