<svg width="63" height="72" viewBox="0 0 63 72" fill="none" xmlns="http://www.w3.org/2000/svg">
<path d="M59.598 4.88094C59.529 4.91894 52.742 8.75394 46.113 8.75394C40.745 8.75394 35.963 6.55394 31.6 4.34094C29.295 3.17394 23.293 0.460938 17.086 0.460938C10.879 0.460938 4.873 3.17394 2.573 4.34194V46.3889L3.602 45.8009C3.671 45.7629 10.458 41.9279 17.087 41.9279C23.687 41.9279 30.505 45.7629 30.572 45.8009C30.639 45.8389 31.039 46.0559 31.601 46.3399C33.901 47.5079 39.908 50.2209 46.114 50.2209C53.832 50.2209 61.34 45.9809 61.656 45.8009L62.701 45.2009V3.10694L59.598 4.88094Z" fill="#DB000D"/>
<path d="M61.655 45.8016L62.7 45.2016V3.10156L59.6 4.88156C59.531 4.91956 52.744 8.75456 46.115 8.75456C40.747 8.75456 35.965 6.55456 31.602 4.34156V46.3416C33.902 47.5096 39.909 50.2226 46.115 50.2226C53.832 50.2216 61.339 45.9816 61.655 45.8016Z" fill="#FF0000"/>
<path d="M0.5 0.460938H4.647V71.2309H0.5V0.460938Z" fill="#515866"/>
<path d="M33.673 21.1958V17.0488H29.526V21.1958H25.38V25.3428H29.527V29.4898H33.674V25.3428H37.821V21.1958H33.673Z" fill="#F3F5F9"/>
<path d="M33.673 25.3418H37.82V21.1948H33.673V17.0488H31.6V29.4888H33.673V25.3418Z" fill="#E1E6F0"/>
</svg>
