<svg width="140" height="140" viewBox="0 0 140 140" fill="none" xmlns="http://www.w3.org/2000/svg">
<path d="M69.2913 12.2588H11.1997V64.2324H69.2913V12.2588Z" fill="#FAFAFA"/>
<path d="M69.2914 64.2292C69.2914 64.2292 69.2914 63.896 69.2774 63.266C69.2634 62.636 69.2774 61.6952 69.2774 60.48C69.2774 58.0412 69.2578 54.474 69.241 49.9296C69.227 40.8492 69.2018 27.874 69.1738 12.2584L69.3054 12.39L11.1998 12.4124L11.3538 12.2584C11.3538 31.1668 11.3538 48.958 11.337 64.2292L11.1998 64.0948L53.2166 64.162L65.0662 64.1984L68.205 64.2152H69.0142H69.2942C69.2942 64.2152 69.2074 64.2152 69.031 64.2152H68.2386L65.1278 64.232L53.3062 64.2684L11.1998 64.3664H11.0626V64.2292C11.0626 48.958 11.0626 31.1668 11.043 12.2584V12.1016H11.1998L69.2858 12.124H69.4174V12.2584C69.3894 27.9076 69.367 40.9136 69.3502 50.0136C69.3502 54.544 69.325 58.1028 69.3166 60.536C69.3166 61.7372 69.3166 62.6612 69.3026 63.294C69.2886 63.9268 69.2914 64.2292 69.2914 64.2292Z" fill="#E0E0E0"/>
<path d="M33.4738 21.4927C33.4738 21.5767 30.4162 21.6467 26.6446 21.6467C22.873 21.6467 19.8154 21.5767 19.8154 21.4927C19.8154 21.4087 22.873 21.3359 26.6446 21.3359C30.4162 21.3359 33.4738 21.4059 33.4738 21.4927Z" fill="#E0E0E0"/>
<path d="M58.0884 25.3933C58.0884 25.4801 49.6884 25.5501 39.3284 25.5501C28.9684 25.5501 20.5684 25.4801 20.5684 25.3933C20.5684 25.3065 28.9684 25.2393 39.3284 25.2393C49.6884 25.2393 58.0884 25.3093 58.0884 25.3933Z" fill="#E0E0E0"/>
<path d="M22.3632 32.0039H19.916V34.4511H22.3632V32.0039Z" fill="#E0E0E0"/>
<path d="M28.3862 32.0039H25.939V34.4511H28.3862V32.0039Z" fill="#E0E0E0"/>
<path d="M34.5239 31.8916H32.0767V34.3388H34.5239V31.8916Z" fill="#E0E0E0"/>
<path d="M40.4374 32.0039H37.9902V34.4511H40.4374V32.0039Z" fill="#E0E0E0"/>
<path d="M46.4599 32.0039H44.0127V34.4511H46.4599V32.0039Z" fill="#E0E0E0"/>
<path d="M52.4862 32.0039H50.0391V34.4511H52.4862V32.0039Z" fill="#E0E0E0"/>
<path d="M58.5087 32.0039H56.0615V34.4511H58.5087V32.0039Z" fill="#EBEBEB"/>
<path d="M22.3632 37.2061H19.916V39.6533H22.3632V37.2061Z" fill="#EBEBEB"/>
<path d="M28.3862 37.2061H25.939V39.6533H28.3862V37.2061Z" fill="#E0E0E0"/>
<path d="M34.4116 37.2061H31.9644V39.6533H34.4116V37.2061Z" fill="#EBEBEB"/>
<path d="M40.4374 37.2061H37.9902V39.6533H40.4374V37.2061Z" fill="#E0E0E0"/>
<path d="M46.4599 37.2061H44.0127V39.6533H46.4599V37.2061Z" fill="#E0E0E0"/>
<path d="M52.5976 37.0967H50.1504V39.5439H52.5976V37.0967Z" fill="#E0E0E0"/>
<path d="M58.5087 37.2061H56.0615V39.6533H58.5087V37.2061Z" fill="#E0E0E0"/>
<path d="M22.3632 42.4111H19.916V44.8583H22.3632V42.4111Z" fill="#E0E0E0"/>
<path d="M28.498 42.2998H26.0508V44.747H28.498V42.2998Z" fill="#E0E0E0"/>
<path d="M34.4116 42.4111H31.9644V44.8583H34.4116V42.4111Z" fill="#E0E0E0"/>
<path d="M40.4374 42.4111H37.9902V44.8583H40.4374V42.4111Z" fill="#EBEBEB"/>
<path d="M46.4599 42.4111H44.0127V44.8583H46.4599V42.4111Z" fill="#E0E0E0"/>
<path d="M52.4862 42.4111H50.0391V44.8583H52.4862V42.4111Z" fill="#E0E0E0"/>
<path d="M58.5087 42.4111H56.0615V44.8583H58.5087V42.4111Z" fill="#E0E0E0"/>
<path d="M22.3632 47.6143H19.916V50.0615H22.3632V47.6143Z" fill="#E0E0E0"/>
<path d="M28.3862 47.6143H25.939V50.0615H28.3862V47.6143Z" fill="#E0E0E0"/>
<path d="M34.4116 47.6143H31.9644V50.0615H34.4116V47.6143Z" fill="#E0E0E0"/>
<path d="M40.5468 47.502H38.0996V49.9492H40.5468V47.502Z" fill="#E0E0E0"/>
<path d="M46.4599 47.6143H44.0127V50.0615H46.4599V47.6143Z" fill="#E0E0E0"/>
<path d="M52.4862 47.6143H50.0391V50.0615H52.4862V47.6143Z" fill="#EBEBEB"/>
<path d="M58.5087 47.6143H56.0615V50.0615H58.5087V47.6143Z" fill="#E0E0E0"/>
<path d="M22.3632 52.8164H19.916V55.2636H22.3632V52.8164Z" fill="#E0E0E0"/>
<path d="M28.3862 52.8164H25.939V55.2636H28.3862V52.8164Z" fill="#EBEBEB"/>
<path d="M34.4116 52.8164H31.9644V55.2636H34.4116V52.8164Z" fill="#E0E0E0"/>
<path d="M40.4374 52.8164H37.9902V55.2636H40.4374V52.8164Z" fill="#E0E0E0"/>
<path d="M46.4599 52.8164H44.0127V55.2636H46.4599V52.8164Z" fill="#E0E0E0"/>
<path d="M52.5976 52.7041H50.1504V55.1513H52.5976V52.7041Z" fill="#E0E0E0"/>
<path d="M58.5087 52.8164H56.0615V55.2636H58.5087V52.8164Z" fill="#E0E0E0"/>
<path d="M120.45 82.1186C123.04 80.783 126.086 80.6094 128.962 81.0854C130.505 81.3402 132.115 81.8022 133.162 82.9614C134.209 84.1206 134.411 86.1618 133.207 87.1614C132.487 87.755 131.485 87.8446 130.555 87.8334C128.315 87.8082 125.809 87.4106 124.012 88.7658C122.987 89.5358 122.304 90.821 121.077 91.2018C119.851 91.5826 118.524 90.8658 117.888 89.7822C117.252 88.6986 117.233 87.3462 117.527 86.1254C117.674 85.2779 118.014 84.4756 118.521 83.7807C119.027 83.0859 119.688 82.5171 120.45 82.1186V82.1186Z" fill="#EBEBEB"/>
<path d="M114.52 70.6693C116.102 72.9317 119.179 72.1813 120.607 70.8037C122.035 69.4261 122.634 67.4213 123.183 65.5145C124.437 61.1577 125.703 56.5853 124.77 52.1501C124.49 50.8229 123.995 49.4985 123.062 48.5101C122.13 47.5217 120.696 46.9393 119.386 47.2865C117.835 47.6953 116.866 49.2157 116.174 50.6465C114.121 54.9132 113.045 59.584 113.024 64.3189C113.024 66.5225 113.276 68.8325 114.52 70.6497" fill="#EBEBEB"/>
<path d="M110.174 73.9203C111.894 71.8791 112.218 68.9055 111.454 66.3603C110.69 63.8151 108.962 61.6311 106.974 59.8587C104.631 57.7714 101.904 56.1621 98.9436 55.1211C97.7844 54.7123 96.5581 54.3903 95.3345 54.5079C94.1109 54.6255 92.876 55.2499 92.3048 56.3391C91.4648 57.9519 92.2684 59.9063 93.1448 61.4995C94.6886 64.3107 96.4515 66.9958 98.4172 69.5299C99.9992 71.5683 101.808 73.5787 104.219 74.4999C106.63 75.4211 109.13 75.3119 110.407 73.6403" fill="#EBEBEB"/>
<path d="M114.413 104.773C114.496 104.436 114.543 104.092 114.556 103.745C114.629 102.998 114.721 102.065 114.836 100.945C114.977 99.5654 115.188 98.1935 115.469 96.835C115.835 95.1801 116.334 93.5574 116.961 91.9826C117.576 90.4082 118.411 88.929 119.442 87.5894C120.279 86.4991 121.35 85.6094 122.575 84.9853C123.405 84.5739 124.296 84.2961 125.213 84.1621C125.557 84.148 125.9 84.0992 126.235 84.0165C125.889 83.9709 125.54 83.9653 125.193 83.9997C124.241 84.0721 123.31 84.3149 122.443 84.7165C121.153 85.3242 120.021 86.2233 119.137 87.343C118.064 88.7011 117.199 90.2109 116.569 91.823C115.932 93.4213 115.436 95.0721 115.085 96.7566C114.812 98.1298 114.624 99.5184 114.519 100.915C114.43 102.105 114.396 103.068 114.379 103.734C114.354 104.081 114.365 104.429 114.413 104.773V104.773Z" fill="#E0E0E0"/>
<path d="M114.607 102.614C114.634 102.457 114.643 102.297 114.635 102.138C114.635 101.78 114.635 101.329 114.635 100.774C114.635 99.5927 114.635 97.8791 114.697 95.7651C114.8 91.5371 115.164 86.9871 115.87 80.5723C116.533 74.5411 117.429 67.5215 118.37 62.9575C118.575 61.9187 118.776 60.9975 118.969 60.1575C119.163 59.3175 119.308 58.6315 119.459 58.0575C119.611 57.4835 119.692 57.0803 119.776 56.7331C119.823 56.5803 119.851 56.4223 119.86 56.2627C119.788 56.4053 119.733 56.5556 119.695 56.7107L119.3 58.0155C119.123 58.5755 118.944 59.2839 118.74 60.1015C118.535 60.9191 118.303 61.8487 118.082 62.8847C116.913 68.2825 116.034 73.7392 115.45 79.2311C114.744 85.6571 114.428 91.5119 114.4 95.7511C114.375 97.8707 114.419 99.5871 114.473 100.772C114.509 101.332 114.534 101.774 114.557 102.132C114.555 102.294 114.572 102.456 114.607 102.614V102.614Z" fill="#E0E0E0"/>
<path d="M114.635 91.3274C114.672 90.853 114.672 90.3765 114.635 89.9022C114.555 88.6096 114.41 87.3219 114.201 86.0438C113.888 84.1486 113.47 82.2724 112.947 80.4242C112.334 78.1505 111.548 75.9273 110.595 73.7742C108.635 69.1486 105.997 65.3742 103.693 63.025C103.184 62.4881 102.641 61.984 102.069 61.5158C101.819 61.3058 101.601 61.0958 101.377 60.9306L100.747 60.4966C100.367 60.2091 99.9656 59.9516 99.5458 59.7266C99.4786 59.819 101.245 60.8606 103.466 63.2322C105.686 65.6038 108.262 69.3558 110.186 73.9422C111.123 76.0829 111.916 78.284 112.56 80.5306C113.1 82.3621 113.546 84.22 113.896 86.097C114.19 87.6986 114.361 89.009 114.456 89.9162C114.48 90.3904 114.54 90.8622 114.635 91.3274V91.3274Z" fill="#E0E0E0"/>
<path d="M103.723 111.238L104.854 126.736H124.762L125.893 111.238H103.723Z" fill="#E0E0E0"/>
<path d="M128.268 105.132H101.8V111.241H128.268V105.132Z" fill="#E0E0E0"/>
<path d="M101.8 126.143V127.837H103.043H127.834V126.143H101.8Z" fill="#EBEBEB"/>
<path d="M104.264 130.816L103.043 127.837H126.885L125.463 130.816H104.264Z" fill="#E0E0E0"/>
<path d="M125.524 116.304C125.524 116.304 125.499 116.357 125.431 116.447L125.135 116.841L123.975 118.325L123.922 118.393L123.872 118.323L121.024 114.383H121.187L118.387 118.353L118.297 118.479L118.199 118.362L114.873 114.403H115.063L114.881 114.632C113.848 115.926 112.851 117.18 111.905 118.362L111.807 118.488L111.714 118.359C110.706 116.928 109.754 115.593 108.914 114.386H109.077L105.621 118.325L105.56 118.395L105.512 118.314C105.056 117.55 104.695 116.939 104.431 116.497L104.151 116.013C104.116 115.959 104.088 115.9 104.067 115.839C104.112 115.886 104.152 115.937 104.185 115.993C104.263 116.116 104.367 116.273 104.49 116.461L105.627 118.244H105.518L108.92 114.254L109.007 114.156L109.082 114.263L111.916 118.216H111.725L114.693 114.481L114.875 114.251L114.971 114.134L115.069 114.249L118.384 118.216H118.199L121.033 114.265L121.114 114.151L121.195 114.265L123.995 118.25H123.891L125.098 116.802L125.423 116.427C125.453 116.383 125.486 116.342 125.524 116.304V116.304Z" fill="#F5F5F5"/>
<path d="M126.17 111.138C126.17 111.205 121.183 111.261 115.029 111.261C108.874 111.261 103.888 111.205 103.888 111.138C103.888 111.071 108.877 111.015 115.029 111.015C121.181 111.015 126.17 111.068 126.17 111.138Z" fill="#F5F5F5"/>
<path d="M127.175 128.005C127.175 128.072 121.755 128.128 115.068 128.128C108.382 128.128 102.961 128.072 102.961 128.005C102.961 127.938 108.382 127.879 115.068 127.879C121.755 127.879 127.175 127.935 127.175 128.005Z" fill="#F5F5F5"/>
<path d="M55.3726 69.1992L53.1326 70.4004L48.1738 74.2168C48.1738 74.2168 32.9894 76.2328 32.407 76.6696C31.8246 77.1064 24.287 80.6932 23.251 85.5064C22.215 90.3196 20.1318 121.71 20.1318 121.71L22.887 130.984L78.1898 131.071L91.1594 130.886C91.1594 130.886 96.1406 119.246 96.1406 116.046C96.1406 112.846 94.6846 88.7824 94.6846 88.7824L79.1306 77.8148L55.3726 69.1992Z" fill="#9269AD"/>
<path d="M48.0342 73.9902C48.0139 74.0359 47.9885 74.0791 47.9586 74.119C47.8914 74.2142 47.813 74.3318 47.715 74.4746C47.4966 74.777 47.1998 75.2306 46.8554 75.799C46.6874 76.079 46.497 76.3982 46.3206 76.7482C46.1442 77.0982 45.9538 77.4706 45.7606 77.8682C45.3695 78.7404 45.0337 79.6363 44.7554 80.5506C44.2757 82.2195 43.9164 83.9207 43.6802 85.641C43.585 86.285 43.5094 86.8142 43.4534 87.2062C43.4282 87.377 43.4086 87.517 43.3918 87.6318C43.3878 87.6818 43.3765 87.7308 43.3582 87.7774C43.352 87.7282 43.352 87.6783 43.3582 87.629C43.3582 87.5142 43.3806 87.3714 43.3946 87.1978C43.4282 86.8254 43.4898 86.2878 43.5738 85.627C43.7869 83.8945 44.1389 82.1819 44.6266 80.5058C44.9074 79.5873 45.2488 78.6884 45.6486 77.815C45.839 77.4118 46.0238 77.0338 46.2086 76.695C46.3934 76.3562 46.5866 76.0342 46.7686 75.7486C47.1298 75.1886 47.4378 74.7378 47.6702 74.4438L47.9362 74.105C47.9644 74.0632 47.9972 74.0246 48.0342 73.9902V73.9902Z" fill="#263238"/>
<g opacity="0.3">
<path opacity="0.3" d="M48.3784 83.2186C48.286 82.9218 48.1684 82.5886 47.88 82.4738C47.656 82.3814 47.7456 82.527 47.5216 82.6222C45.4216 83.4874 44.408 85.4223 43.5176 87.6175L43.568 87.5643C43.5046 87.7479 43.5041 87.9474 43.5664 88.1313C43.6288 88.3153 43.7504 88.4734 43.9124 88.5807C44.3856 88.8607 44.9932 88.7067 45.4804 88.4547C45.9676 88.2027 46.4128 87.8527 46.9448 87.7183C48.0928 87.4215 49.238 88.2083 50.05 89.0763C50.862 89.9443 51.59 90.9747 52.6988 91.4031C50.7722 88.9608 49.3081 86.1871 48.3784 83.2186V83.2186Z" fill="black"/>
</g>
<path d="M43.3525 87.7776C43.6051 87.1629 43.9027 86.5676 44.2429 85.9968C44.6305 85.3207 45.0764 84.6798 45.5757 84.0816C45.8918 83.7086 46.2424 83.3664 46.6229 83.0596C47.0524 82.7092 47.5592 82.4663 48.1013 82.3512H48.1433L48.1601 82.3932C48.5101 83.3088 48.8797 84.3084 49.3081 85.3612C49.7454 86.4808 50.2687 87.5648 50.8733 88.6036C51.542 89.7385 52.3511 90.7846 53.2813 91.7172C54.2836 92.7038 55.3884 93.5805 56.5769 94.3324C56.9829 94.5704 57.3749 94.8252 57.7809 95.0492L58.9933 95.696H58.9205L60.9421 94.296L61.9221 93.6212C62.2469 93.4 62.5633 93.1788 62.8629 92.9436C63.9919 92.0538 65.0413 91.0672 65.9989 89.9952V89.9952C67.1426 89.1299 68.1189 88.0634 68.8801 86.848C69.4638 85.9149 69.901 84.8979 70.1765 83.8324C70.3529 83.1482 70.4635 82.4488 70.5069 81.7436C70.5237 81.4972 70.5069 81.3096 70.5265 81.1836C70.5461 81.0576 70.5265 80.9932 70.5265 80.9932C70.5265 80.9932 70.5265 81.0576 70.5265 81.1836C70.5265 81.3096 70.5265 81.5 70.5265 81.7436C70.5005 82.4538 70.401 83.1594 70.2297 83.8492C69.9633 84.9264 69.5316 85.956 68.9501 86.9012C68.1947 88.1278 67.2221 89.2066 66.0801 90.0848C65.1199 91.1668 64.0668 92.1627 62.9329 93.0612C62.6305 93.2992 62.3141 93.5232 61.9893 93.7444L61.0093 94.422L58.9877 95.822L58.9541 95.8472L58.9149 95.8276L57.6969 95.178C57.2881 94.954 56.8933 94.6992 56.4873 94.4584C55.287 93.7024 54.1726 92.818 53.1637 91.8208C52.227 90.879 51.4132 89.8225 50.7417 88.6764C50.1413 87.6262 49.6236 86.5309 49.1933 85.4004C48.7677 84.342 48.4037 83.3396 48.0593 82.424L48.1181 82.4576C47.5923 82.5678 47.1001 82.8009 46.6817 83.138C46.3041 83.438 45.9554 83.7726 45.6401 84.1376C45.1393 84.7289 44.6888 85.3611 44.2933 86.0276C43.9657 86.5876 43.7333 87.0188 43.5849 87.3184L43.4141 87.6628C43.3989 87.7036 43.3781 87.7422 43.3525 87.7776Z" fill="#263238"/>
<path d="M74.6484 80.8838C74.6909 82.3102 74.6235 83.7377 74.4468 85.1538C74.2717 86.7 73.9863 88.2318 73.5928 89.7374C73.1095 91.5894 72.4899 93.4031 71.7392 95.1638L71.6328 95.4158L71.5992 95.1358C71.5796 94.9734 71.5656 94.797 71.5376 94.6178C71.4059 93.613 71.1723 92.6241 70.8404 91.6666C70.6808 91.2018 70.4988 90.7538 70.3028 90.3226C70.2048 90.107 70.1012 89.897 69.9948 89.6898C69.8983 89.486 69.784 89.2911 69.6532 89.1074C69.5305 88.929 69.3596 88.7892 69.1604 88.7042C69.0661 88.6702 68.9644 88.6621 68.8659 88.6808C68.7674 88.6995 68.6757 88.7443 68.6004 88.8106C68.4473 88.9508 68.3051 89.1024 68.1748 89.2642L67.7688 89.7262L66.2877 91.4062L64.1345 93.845L63.5605 94.517L63.4037 94.685L63.3477 94.7382C63.3605 94.7154 63.3755 94.6938 63.3925 94.6738L63.5381 94.4974L64.0981 93.8198L66.2149 91.3502L67.6821 89.6478C67.8165 89.4938 67.9621 89.3398 68.0853 89.1802C68.2208 89.0125 68.3686 88.8553 68.5277 88.7098C68.6187 88.6306 68.7292 88.577 68.8477 88.5544C68.9662 88.5318 69.0886 88.5409 69.2024 88.581C69.4219 88.6752 69.6102 88.8295 69.7456 89.0262C69.8826 89.2159 70.0026 89.4173 70.104 89.6282C70.2104 89.8354 70.3168 90.0482 70.4148 90.2638C70.6136 90.6978 70.7984 91.1514 70.9748 91.619C71.3099 92.5876 71.5462 93.5876 71.6804 94.6038C71.7084 94.783 71.7224 94.9622 71.742 95.1274L71.602 95.1078C72.3501 93.3532 72.9714 91.5472 73.4612 89.7038C73.8584 88.2052 74.1531 86.6812 74.3432 85.1426C74.5056 83.8322 74.5728 82.7654 74.6008 82.029C74.6204 81.6594 74.6204 81.3738 74.6288 81.189C74.6288 81.0994 74.6288 81.0266 74.6288 80.9678C74.6288 80.909 74.6484 80.8838 74.6484 80.8838Z" fill="#263238"/>
<path d="M53.7599 73.1475C53.7599 73.1475 53.7599 73.1699 53.7179 73.2035L53.5835 73.3547C53.4603 73.4835 53.3035 73.6879 53.0935 73.9539C52.539 74.7326 52.0873 75.5796 51.7495 76.4739C51.2367 77.7885 50.8988 79.1648 50.7443 80.5675C50.5476 82.284 50.6232 84.0209 50.9683 85.7139C51.1453 86.5896 51.4079 87.4458 51.7523 88.2703C52.0722 89.0377 52.4631 89.7736 52.9199 90.4683C53.6919 91.6488 54.6356 92.7076 55.7199 93.6099C56.1707 94.0075 56.6299 94.3043 57.0135 94.5899C57.3971 94.8755 57.7667 95.0715 58.0579 95.2367L58.7383 95.6119L58.9147 95.7127C58.9361 95.7228 58.9559 95.736 58.9735 95.7519C58.9735 95.7519 58.9511 95.7519 58.9091 95.7267L58.7271 95.6371L58.0299 95.2871C57.7331 95.1275 57.3831 94.9035 56.9687 94.6571C56.5543 94.4107 56.1287 94.0971 55.6555 93.6883C54.5512 92.7898 53.5901 91.7286 52.8051 90.5411C52.3461 89.8329 51.9552 89.0829 51.6375 88.3011C51.2885 87.4696 51.0222 86.6058 50.8423 85.7223C50.4937 84.0135 50.4219 82.2598 50.6295 80.5283C50.7918 79.116 51.1421 77.7318 51.6711 76.4123C52.0226 75.5185 52.4936 74.6765 53.0711 73.9091C53.2306 73.7027 53.4036 73.5072 53.5891 73.3239L53.7319 73.1811L53.7599 73.1475Z" fill="#263238"/>
<path d="M29.9433 100.053C29.9433 100.053 29.9657 100.075 29.9993 100.131L30.1477 100.392H30.1057C29.9069 99.4507 29.3637 96.5667 28.7449 93.1535C28.3753 91.0535 28.0393 89.1523 27.7901 87.7495C27.6781 87.0719 27.5857 86.5175 27.5101 86.1087C27.4849 85.9267 27.4625 85.7811 27.4457 85.6607C27.4342 85.6093 27.4294 85.5566 27.4317 85.5039C27.451 85.5537 27.4651 85.6053 27.4737 85.6579C27.4989 85.7727 27.5297 85.9211 27.5661 86.1003C27.6473 86.5035 27.7537 87.0579 27.8853 87.7327C28.1457 89.1327 28.4957 91.0283 28.8849 93.1283C29.5009 96.5387 30.0049 99.4339 30.1449 100.383L30.1673 100.526L30.1029 100.397L29.9713 100.117C29.9601 100.096 29.9508 100.075 29.9433 100.053V100.053Z" fill="#263238"/>
<path d="M29.2684 99.4753C29.232 99.4921 28.5264 98.0753 27.692 96.3085C26.8576 94.5417 26.2136 93.0941 26.25 93.0773C26.2864 93.0605 26.992 94.4773 27.8264 96.2441C28.6608 98.0109 29.3048 99.4585 29.2684 99.4753Z" fill="#263238"/>
<g opacity="0.3">
<path opacity="0.3" d="M28.98 130.262C30.7356 131.144 34.8068 129.587 36.2852 127.646C37.7636 125.706 38.192 123.18 38.5252 120.761C39.0086 117.115 39.354 113.456 39.5612 109.782C42.6072 111.997 46.3126 113.116 50.0752 112.957C52.4496 112.848 55.1572 111.905 55.8936 109.645C56.63 107.385 55.0536 105.106 53.4296 103.407C51.8822 101.787 50.1957 100.307 48.3896 98.9827C47.2052 98.1147 45.906 97.3026 44.4444 97.1318C42.868 96.961 41.2748 97.605 40.0764 98.6439C38.878 99.6827 38.0408 101.083 37.4276 102.544C35.5544 107.01 35.6552 112.008 35.2716 116.824C34.888 121.64 34.3784 126.65 30.1028 129.791" fill="black"/>
</g>
<path d="M29.0947 130.279C29.133 130.256 29.1733 130.238 29.2151 130.223L29.5679 130.069C29.9973 129.841 30.3994 129.564 30.7663 129.245C32.0471 128.077 33.1381 126.717 34.0003 125.213V125.236C34.2551 123.318 34.5603 121.078 34.8711 118.698C35.3863 114.924 35.8399 111.508 36.2067 109.038C36.4335 107.82 36.6155 106.832 36.7471 106.132C36.8115 105.798 36.8619 105.535 36.9011 105.342L36.9431 105.138C36.9468 105.114 36.9534 105.092 36.9627 105.07C36.967 105.093 36.967 105.117 36.9627 105.14C36.9627 105.196 36.9431 105.264 36.9319 105.348L36.8059 106.143C36.6855 106.843 36.5259 107.823 36.3103 109.055C35.9799 111.538 35.5235 114.935 35.0195 118.717C34.6947 121.097 34.3895 123.335 34.1291 125.253V125.267C33.2521 126.777 32.1385 128.138 30.8307 129.296C30.4555 129.612 30.0426 129.881 29.6015 130.097C29.4447 130.161 29.3215 130.203 29.2375 130.231C29.1933 130.256 29.1448 130.272 29.0947 130.279V130.279Z" fill="#263238"/>
<path d="M56.0475 130.886C56.0345 130.858 56.0251 130.829 56.0195 130.799C56.0027 130.732 55.9831 130.645 55.9579 130.536C55.9075 130.304 55.8151 129.976 55.7423 129.523C55.5182 128.267 55.389 126.995 55.3559 125.72C55.3115 123.832 55.4126 121.943 55.6583 120.07C55.9159 117.953 56.3443 115.649 56.8427 113.241C57.3411 110.833 57.9207 108.562 58.4079 106.492C58.8703 104.667 59.1711 102.804 59.3067 100.926C59.3791 99.6589 59.3322 98.3877 59.1667 97.1293C59.1191 96.6813 59.0435 96.3397 59.0099 96.1045L58.9707 95.8385C58.967 95.8078 58.967 95.7768 58.9707 95.7461C58.9819 95.7749 58.9895 95.805 58.9931 95.8357C59.0071 95.9029 59.0267 95.9897 59.0491 96.0989C59.0883 96.3313 59.1751 96.6589 59.2311 97.1209C59.4184 98.3819 59.4812 99.6583 59.4187 100.932C59.2975 102.821 59.006 104.695 58.5479 106.532C58.0663 108.607 57.4699 110.869 56.9939 113.28C56.5179 115.691 56.0643 117.984 55.7983 120.095C55.5449 121.959 55.4316 123.839 55.4595 125.72C55.4831 126.989 55.5963 128.255 55.7983 129.509C55.8627 129.954 55.9467 130.293 55.9859 130.528C56.0055 130.637 56.0223 130.727 56.0335 130.794C56.0447 130.861 56.0475 130.886 56.0475 130.886Z" fill="#263238"/>
<path d="M60.7604 99.3129C60.7268 99.2905 61.2084 98.5204 61.746 97.5376C62.2836 96.5548 62.6728 95.7344 62.712 95.7512C62.6712 95.9464 62.6034 96.1349 62.5104 96.3112C62.3648 96.65 62.1436 97.1092 61.8748 97.6048C61.606 98.1004 61.3344 98.5316 61.1272 98.8368C61.0275 99.0116 60.904 99.1718 60.7604 99.3129V99.3129Z" fill="#263238"/>
<g opacity="0.3">
<path opacity="0.3" d="M61.6614 98.151C63.1209 96.4428 64.7014 94.8417 66.3906 93.3602C66.8526 92.9542 67.3538 92.5426 67.9614 92.4418C68.7006 92.3186 69.4538 92.6994 69.9662 93.2482C70.4492 93.824 70.835 94.4747 71.1086 95.1746C71.8422 93.3714 71.0806 91.3386 70.3246 89.5438C70.0782 88.9586 69.6526 88.2642 69.0254 88.3594C68.6972 88.451 68.4117 88.6552 68.219 88.9362C65.7923 91.7536 63.5477 94.723 61.499 97.8262" fill="black"/>
</g>
<g opacity="0.3">
<path opacity="0.3" d="M86.2794 84.8144L86.383 83.9268C85.3162 84.0276 84.0058 84.1536 83.1546 84.8032C82.1606 85.562 81.7546 86.8528 81.4354 88.0568C80.6738 90.7952 82.8354 104.893 82.7234 107.735C83.667 107.335 84.3334 101.295 84.5014 100.27C84.9158 97.8035 84.0786 96.2636 84.3334 95.5748C84.5882 94.886 84.5798 94.1384 84.5994 93.4076C84.6918 90.1344 85.0166 87.8328 86.2794 84.8144" fill="black"/>
</g>
<path d="M72.3601 39.5668C71.0049 37.8868 71.4501 35.2016 73.0013 33.6868C74.5525 32.172 76.9213 31.752 79.0409 32.1104C80.5857 32.3852 82.0433 33.022 83.2946 33.9685C84.5459 34.9151 85.5551 36.1447 86.2397 37.5564C86.9677 39.0824 87.3597 40.8856 88.6953 41.9216C89.8657 42.8344 91.4785 42.9128 92.8113 43.568C94.5977 44.4416 95.7513 46.3148 96.1713 48.2608C96.5913 50.2068 96.3337 52.234 95.9221 54.1828C95.5441 55.9692 95.0401 57.9012 95.8073 59.556C96.5745 61.2108 98.3021 62.0536 99.4473 63.4144C101.615 65.9708 101.127 70.322 98.4421 72.3324C97.5881 72.9736 96.5073 73.4524 96.0985 74.4492C95.7261 75.3508 96.0425 76.3728 96.0229 77.3472C95.9753 79.8672 93.2061 81.9252 90.7841 81.2672C89.5633 80.9312 88.4377 80.0296 87.1805 80.2004C85.9233 80.3712 85.1001 81.5248 84.1005 82.2724C83.0777 82.9832 81.8413 83.3203 80.5992 83.227C79.3571 83.1337 78.1849 82.6156 77.2797 81.76C76.5461 81.0292 75.9553 80.0352 74.9529 79.7692C73.9505 79.5032 72.9005 80.0772 71.8729 79.9372C70.5317 79.7552 69.6497 78.4224 69.2521 77.1372C68.8545 75.852 68.7509 74.438 68.0817 73.262C67.1997 71.7052 65.5197 70.84 64.1197 69.748C62.5648 68.5464 61.2861 67.0247 60.3702 65.286C59.4543 63.5474 58.9227 61.6322 58.8112 59.6703C58.6997 57.7083 59.0109 55.7452 59.7239 53.914C60.4369 52.0828 61.5349 50.426 62.9437 49.056" fill="#263238"/>
<path d="M53.5809 73.1553C52.2511 74.7081 51.3094 76.5546 50.8333 78.5428C50.3572 80.531 50.3603 82.6038 50.8425 84.5905C51.8421 88.5413 55.1461 94.3177 58.9625 95.7513C61.4377 93.9369 64.6185 91.4029 66.9257 89.3813C68.4181 88.0737 69.2105 86.1613 69.9497 84.3189C70.3753 83.2549 70.8093 82.1069 70.5433 80.9925C70.3445 80.1721 69.7901 79.4889 69.2049 78.8813C67.304 76.9396 64.9681 75.4785 62.3905 74.6186C59.8129 73.7587 57.0676 73.5249 54.3817 73.9365" fill="#EF9D78"/>
<path d="M64.912 44.7107C65.6007 43.3139 66.7485 42.1962 68.163 41.5448C69.5775 40.8933 71.1729 40.7477 72.682 41.1323L82.2328 43.5683C87.0068 45.1055 90.7448 52.4947 87.9308 58.9683C85.7076 64.0783 83.4312 70.4987 81.1492 74.0267C76.5572 81.1163 70.2796 79.4951 70.2796 79.4951L66.8916 87.0551L53.04 74.0659L64.912 44.7107Z" fill="#EF9D78"/>
<path d="M81.0399 60.9645C81.2191 60.8973 81.6895 61.8045 82.7199 62.2889C83.7503 62.7733 84.7695 62.6361 84.8199 62.8181C84.8479 62.9021 84.6155 63.0701 84.1675 63.1485C83.5674 63.2402 82.9537 63.1423 82.4119 62.8685C81.8716 62.6109 81.428 62.187 81.1463 61.6589C80.9503 61.2725 80.9531 60.9925 81.0399 60.9645Z" fill="#263238"/>
<path d="M70.2235 56.0392C70.4251 56 70.8899 56.994 72.0044 57.6856C73.1188 58.3772 74.2444 58.3968 74.292 58.59C74.3172 58.6796 74.0512 58.8112 73.55 58.8168C72.8678 58.8033 72.2024 58.6029 71.6263 58.2372C71.0544 57.8877 70.5947 57.3814 70.3019 56.7784C70.1059 56.3388 70.1255 56.0532 70.2235 56.0392Z" fill="#263238"/>
<path d="M74.8072 66.6005C74.8296 66.5389 75.5324 66.7153 76.6524 67.0513C76.9324 67.1409 77.2124 67.2025 77.3384 67.0373C77.4644 66.8721 77.5036 66.5333 77.512 66.1609C77.5484 65.3993 77.5876 64.6013 77.624 63.7613C77.8144 60.3593 78.0748 57.6013 78.212 57.6153C78.3492 57.6293 78.31 60.3901 78.1224 63.7949C78.0701 64.633 78.0197 65.432 77.9712 66.1917C77.9376 66.5417 77.9572 66.9673 77.6436 67.3117C77.562 67.3891 77.4639 67.447 77.3567 67.4809C77.2495 67.5149 77.136 67.524 77.0248 67.5077C76.8582 67.4826 76.6954 67.4365 76.5404 67.3705C75.4484 66.9505 74.7848 66.6621 74.8072 66.6005Z" fill="#263238"/>
<path d="M70.28 79.5203C70.28 79.5203 64.75 77.4483 61.0176 72.1367C61.0176 72.1367 61.2276 78.6215 69.4344 81.4215L70.28 79.5203Z" fill="#D37A57"/>
<path d="M71.0922 52.4492C71.2658 52.1692 72.3606 52.55 73.7158 52.6704C75.071 52.7908 76.2163 52.6564 76.3339 52.9672C76.3843 53.1156 76.1379 53.3648 75.6451 53.5692C74.9928 53.8109 74.294 53.901 73.6017 53.8326C72.9094 53.7642 72.2418 53.5391 71.6494 53.1744C71.207 52.8748 71.0138 52.5836 71.0922 52.4492Z" fill="#263238"/>
<path d="M83.2968 55.5293C83.6496 55.5293 84.0864 56.4001 84.8424 57.2317C85.5984 58.0633 86.3796 58.6317 86.3292 58.9845C86.2956 59.1441 86.0016 59.2141 85.5368 59.0769C84.9224 58.8644 84.3762 58.4912 83.9548 57.9961C83.5195 57.5169 83.2224 56.9285 83.0952 56.2937C83.0224 55.8177 83.1316 55.5405 83.2968 55.5293Z" fill="#263238"/>
<path d="M72.3796 69.5266C72.3796 69.5266 73.0292 69.1878 72.7268 67.939C72.4244 66.6902 70.8396 65.5618 69.8344 66.5894C69.8344 66.5894 68.8208 66.665 69.2184 67.8354C69.616 69.0058 71.9288 70.6578 72.36 69.717" fill="#D37A57"/>
<path d="M72.0018 70.4819C71.817 70.4483 72.097 69.2303 71.257 68.1243C70.417 67.0183 69.0898 66.8503 69.1206 66.6767C69.1206 66.5955 69.465 66.5087 70.0166 66.6207C70.7316 66.7765 71.3683 67.1802 71.8142 67.7603C72.2444 68.3177 72.4403 69.0208 72.3602 69.7203C72.2902 70.2383 72.083 70.5071 72.0018 70.4819Z" fill="#263238"/>
<path d="M56.7448 40.7314C56.0047 41.3091 55.4111 42.053 55.0122 42.9029C54.6133 43.7527 54.4203 44.6846 54.4488 45.623C54.4908 46.6702 54.7456 47.905 53.9756 48.6162C53.2056 49.3274 51.954 48.9494 50.8956 48.955C49.9632 48.9857 49.0713 49.3438 48.3765 49.9664C47.6817 50.589 47.2284 51.4364 47.096 52.3598C47.0204 53.0206 47.096 53.7346 46.7712 54.3198C46.4464 54.905 45.7156 55.185 45.122 55.5462C44.3815 55.9947 43.7718 56.6298 43.3541 57.3881C42.9364 58.1464 42.7254 59.0011 42.7421 59.8666C42.7589 60.7322 43.0028 61.5781 43.4495 62.3197C43.8961 63.0612 44.5299 63.6724 45.2872 64.0918C45.9732 64.4698 46.774 64.7078 47.2752 65.3098C47.8352 66.0014 47.8688 66.9898 48.1516 67.8298C48.4236 68.6542 48.9472 69.3725 49.6488 69.8836C50.3504 70.3948 51.1947 70.673 52.0627 70.6792C52.9307 70.6854 53.7788 70.4192 54.4876 69.9181C55.1965 69.417 55.7303 68.7062 56.014 67.8858" fill="#263238"/>
<path d="M72.24 38.0519C71.9581 38.8733 71.8607 39.7468 71.9547 40.6102C72.0486 41.4736 72.3317 42.3056 72.7838 43.0472C73.2358 43.7887 73.8457 44.4216 74.5701 44.9006C75.2945 45.3797 76.1155 45.6933 76.9748 45.8191C78.302 46.0123 79.8868 45.8443 80.7436 46.8775C81.6452 47.9639 81.1104 49.6943 81.8244 50.9151C82.8408 52.6539 84.5796 54.0427 86.226 55.2075C87.5 56.1063 86.044 58.6067 86.5984 60.0627C87.1528 61.5187 89.4348 64.8423 90.9916 64.9011C91.3332 63.5991 93.2708 57.8787 93.3044 56.5347C93.338 55.1907 93.0244 53.7907 92.2012 52.7323C91.7448 52.1527 91.1456 51.6907 90.7508 51.0691C89.8968 49.7223 90.1908 47.9891 89.9108 46.4127C89.7231 45.3966 89.2946 44.4403 88.6613 43.6238C88.028 42.8073 87.2083 42.1545 86.2708 41.7199C84.7168 41.0087 82.894 40.9303 81.4576 40.0035C80.3964 39.3175 79.6376 38.2227 78.5372 37.6011C76.3952 36.3915 73.7128 37.3211 71.498 38.3851" fill="#263238"/>
<path d="M61.9164 54.3199C61.6952 54.1715 60.2364 55.2831 61.6756 56.1707C64.2152 57.7219 66.3964 52.4747 66.304 50.7303C67.5976 50.1703 68.9052 49.6299 70.0448 48.7703C71.1844 47.9107 72.8868 45.0799 73.192 43.6407C74.1636 44.0355 78.8592 44.0719 78.4504 43.7891C77.5236 43.1479 75.6504 41.7731 75.4012 40.7091C74.8608 38.3711 73.2004 36.3355 71.0052 35.7251C69.8605 35.4359 68.653 35.5251 67.5633 35.9794C66.4736 36.4336 65.5603 37.2285 64.96 38.2451C62.3476 37.3827 59.2508 38.1583 57.1676 40.2051C56.1277 41.2532 55.3582 42.5385 54.9255 43.9502C54.4929 45.3618 54.41 46.8575 54.684 48.3083C54.8352 49.0531 55.0872 49.8315 54.8492 50.5707C54.5524 51.4835 53.634 51.9707 52.9032 52.5699C50.9124 54.1855 50.0556 57.0499 50.2992 59.6175C50.5428 62.1851 50.9852 63.2183 52.2592 64.1507C54.754 65.9707 49.5684 70.6243 54.2192 72.1979" fill="#263238"/>
<path d="M96.6 72.1139C96.6 72.0971 96.7652 71.9991 97.0368 71.7443C97.4375 71.3756 97.757 70.9274 97.9748 70.4283C98.3276 69.6454 98.4189 68.7696 98.2352 67.9307C98.0168 66.9535 97.2804 66.0239 96.2948 65.2315C95.3092 64.4391 94.08 63.6747 93.1896 62.3783C92.2992 61.0819 92.1396 59.2983 92.4252 57.6183C92.7108 55.9383 93.4164 54.2583 93.87 52.4915C94.1142 51.6016 94.2301 50.6814 94.2144 49.7587C94.2059 48.8206 93.9531 47.9009 93.4808 47.0903C92.9716 46.3031 92.2491 45.6768 91.3976 45.2843C90.5628 44.8936 89.6766 44.6239 88.7656 44.4835C87.8584 44.3767 86.96 44.2045 86.0776 43.9683C85.635 43.8505 85.2211 43.6434 84.8614 43.3598C84.5017 43.0762 84.2038 42.7221 83.986 42.3191C83.58 41.5183 83.4904 40.6699 83.314 39.8999C83.1767 39.1533 82.866 38.4493 82.4068 37.8447C81.5484 36.7626 80.3213 36.0348 78.96 35.8007C77.8379 35.61 76.6846 35.7481 75.6392 36.1983C74.8479 36.539 74.1206 37.0125 73.4888 37.5983C72.9614 38.116 72.485 38.6833 72.0664 39.2923C72.0664 39.2923 72.0804 39.2419 72.128 39.1579C72.1934 39.0302 72.2654 38.9059 72.3436 38.7855C72.6405 38.3162 72.991 37.883 73.388 37.4947C74.0191 36.8771 74.7536 36.3749 75.558 36.0107C76.6372 35.5237 77.8348 35.3612 79.0048 35.5431C80.4343 35.7779 81.7262 36.534 82.6308 37.6655C83.1225 38.3034 83.4581 39.0475 83.6108 39.8383C83.7956 40.6251 83.8908 41.4539 84.2688 42.1735C84.4688 42.5344 84.7403 42.8506 85.0667 43.1029C85.3932 43.3551 85.7676 43.5382 86.1672 43.6407C87.0342 43.8698 87.9166 44.0354 88.8076 44.1363C89.7548 44.2848 90.6759 44.5677 91.5432 44.9763C92.4586 45.3979 93.2354 46.0708 93.7832 46.9167C94.2882 47.7824 94.5585 48.7649 94.5672 49.7671C94.584 50.7239 94.4633 51.6782 94.2088 52.6007C93.7356 54.4011 93.0244 56.0447 92.7472 57.6939C92.47 59.3431 92.6016 61.0035 93.4304 62.2215C94.2592 63.4395 95.4856 64.1983 96.4516 65.0439C97.4176 65.8895 98.2128 66.8527 98.4116 67.8971C98.5875 68.7773 98.4705 69.6909 98.0784 70.4983C97.8415 71.0062 97.4943 71.4549 97.062 71.8115C96.9233 71.934 96.7677 72.0358 96.6 72.1139V72.1139Z" fill="#455A64"/>
<path d="M88.0014 55.208C88.0322 55.222 87.8642 55.6084 87.6934 56.342C87.4592 57.3779 87.4259 58.4492 87.5954 59.4976C87.7087 60.2171 87.9216 60.9173 88.2282 61.578C88.599 62.3308 89.0597 63.036 89.6002 63.678C89.8945 64.0485 90.1454 64.4515 90.3478 64.8792C90.5622 65.3428 90.6529 65.8541 90.611 66.3632C90.5298 67.4048 90.0174 68.3232 89.6366 69.2724C89.2558 70.2216 89.0122 71.2016 89.379 72.0724C89.7458 72.9432 90.4122 73.5956 91.0422 74.2228C91.6888 74.8023 92.2439 75.4763 92.6886 76.222C93.0627 76.9112 93.1627 77.7162 92.9686 78.476C92.84 79.0143 92.5934 79.5174 92.2467 79.9488C91.9 80.3803 91.4618 80.7293 90.9638 80.9708C90.6929 81.0932 90.4049 81.1734 90.1098 81.2088C90.0077 81.2237 89.9039 81.2237 89.8018 81.2088C90.18 81.1252 90.5487 81.0032 90.9022 80.8448C91.3594 80.5922 91.7575 80.245 92.0698 79.8264C92.3822 79.4078 92.6018 78.9274 92.7138 78.4172C92.8768 77.722 92.777 76.991 92.4338 76.3648C91.9944 75.6548 91.4507 75.0148 90.821 74.4664C90.1882 73.842 89.4518 73.17 89.0598 72.2012C88.8657 71.7087 88.8011 71.1746 88.8722 70.65C88.9527 70.1279 89.1015 69.6186 89.3146 69.1352C89.7094 68.1692 90.1966 67.2704 90.2694 66.3352C90.3422 65.4 89.8746 64.5796 89.3454 63.8768C88.7973 63.2109 88.3345 62.4791 87.9678 61.6984C87.2165 59.9996 87.077 58.0929 87.573 56.3028C87.65 56.0152 87.7502 55.7343 87.8726 55.4628C87.9023 55.3718 87.9457 55.2859 88.0014 55.208V55.208Z" fill="#455A64"/>
<path d="M45.9903 63.9964C45.9903 63.9964 45.9287 63.9628 45.8307 63.8788C45.6819 63.7547 45.545 63.6169 45.4219 63.4672C44.9488 62.8928 44.629 62.2079 44.4923 61.4764C44.3739 60.9049 44.3737 60.3153 44.4916 59.7437C44.6096 59.1721 44.8433 58.6307 45.1783 58.1528C45.6236 57.53 46.2168 57.0276 46.9045 56.6908C47.5922 56.3541 48.3528 56.1935 49.1179 56.2236L48.9639 56.4308C48.6035 55.5032 48.4422 54.5101 48.4907 53.516C48.5195 52.968 48.6687 52.433 48.9276 51.949C49.1865 51.4651 49.5487 51.0441 49.9887 50.716C50.4618 50.361 51.0352 50.165 51.6267 50.156C52.2192 50.1919 52.797 50.3552 53.3207 50.6348C53.8126 50.9021 54.3368 51.1053 54.8803 51.2396C55.1443 51.2902 55.4167 51.2767 55.6744 51.2002C55.9322 51.1237 56.1678 50.9865 56.3615 50.8C56.9339 50.2071 57.2618 49.4203 57.2799 48.5964C57.3443 47.7732 57.2659 46.936 57.3527 46.0988C57.5276 44.488 58.256 42.9878 59.4135 41.854C60.4454 40.8476 61.7755 40.2022 63.2047 40.0144C64.4094 39.8451 65.6376 39.9988 66.7635 40.4596L66.6067 40.524C67.01 39.7178 67.6956 39.0879 68.5331 38.7544C69.1469 38.5024 69.8135 38.4062 70.4735 38.4744C70.8839 38.5156 71.2834 38.6314 71.6523 38.816C71.7804 38.8788 71.8999 38.9579 72.0079 39.0512C71.5256 38.8067 71.001 38.6566 70.4623 38.6088C69.8267 38.57 69.191 38.6842 68.6087 38.942C67.8294 39.2712 67.1972 39.8736 66.8307 40.636L66.7803 40.7396L66.6711 40.6976C65.5824 40.2743 64.4021 40.1421 63.2467 40.314C61.8876 40.5106 60.6269 41.1366 59.6487 42.1004C58.5557 43.1835 57.8703 44.6107 57.7083 46.1408C57.6271 46.9332 57.7083 47.7676 57.6439 48.6356C57.6203 49.5508 57.2512 50.4231 56.6107 51.0772C56.3752 51.3003 56.0905 51.4647 55.7797 51.5571C55.4688 51.6495 55.1405 51.6674 54.8215 51.6092C54.2428 51.4702 53.6846 51.2566 53.1611 50.9736C52.686 50.7146 52.1608 50.5609 51.6211 50.5228C51.1048 50.5311 50.6043 50.7016 50.1903 51.01C49.7869 51.3077 49.4546 51.6911 49.2174 52.1327C48.9801 52.5743 48.8438 53.063 48.8183 53.5636C48.7672 54.511 48.913 55.4587 49.2467 56.3468L49.3251 56.5652H49.0927C48.3758 56.5314 47.6616 56.6749 47.0135 56.9831C46.3654 57.2913 45.8033 57.7546 45.3771 58.332C45.0517 58.7812 44.8208 59.2917 44.698 59.8326C44.5753 60.3735 44.5634 60.9336 44.6631 61.4792C44.7812 62.1906 45.0694 62.863 45.5031 63.4392C45.7971 63.806 46.0043 63.9796 45.9903 63.9964Z" fill="#455A64"/>
<path d="M72.1144 40.1604C72.1312 40.2248 71.5544 40.1324 70.8516 40.6504C70.1488 41.1684 69.516 42.3808 69.334 43.9376L69.32 44.0692H69.1856C68.4123 44.0188 67.6378 44.1481 66.9228 44.4468C66.2078 44.7455 65.5716 45.2057 65.064 45.7912C64.7813 46.1245 64.557 46.5031 64.4004 46.9112C64.2662 47.3535 64.1724 47.8071 64.1204 48.2664C64.0614 48.7604 63.9678 49.2498 63.8404 49.7308C63.7015 50.2579 63.3912 50.7238 62.9584 51.0552C62.0288 51.7804 60.8864 51.8952 59.8784 52.0632C58.9112 52.1478 57.965 52.3929 57.0784 52.7884C55.5949 53.4994 54.4369 54.7474 53.8388 56.28C53.445 57.3203 53.3132 58.4415 53.4552 59.5448C53.556 60.3288 53.7352 60.7432 53.6876 60.7544C53.6268 60.6641 53.5805 60.5649 53.5504 60.4604C53.4483 60.1693 53.3697 59.8707 53.3152 59.5672C53.1126 58.4364 53.2092 57.2723 53.5952 56.1904C54.183 54.5642 55.3783 53.2294 56.93 52.4664C57.8439 52.0477 58.8216 51.7856 59.8224 51.6908C60.8192 51.5312 61.9028 51.3912 62.7148 50.75C63.5156 50.19 63.6024 49.126 63.7564 48.1936C63.8169 47.7119 63.9209 47.2368 64.0672 46.774C64.2427 46.3302 64.4906 45.9186 64.8008 45.556C65.3463 44.9366 66.0294 44.4537 66.7952 44.1459C67.561 43.8381 68.3883 43.714 69.2108 43.7836L69.0624 43.9068C69.2864 42.2856 69.9696 41.0312 70.7648 40.5216C71.0572 40.3202 71.3948 40.1942 71.7476 40.1548C71.8694 40.1381 71.9931 40.14 72.1144 40.1604V40.1604Z" fill="#455A64"/>
<path d="M62.4568 55.1237C63.2548 53.5613 62.1768 51.5929 60.4268 51.5957C59.4608 51.5957 58.4248 52.1221 57.5624 53.7741C55.2636 58.1813 60.1636 59.5813 60.2364 59.4581C60.2812 59.3825 61.5216 56.9577 62.4568 55.1237Z" fill="#EF9D78"/>
<path d="M59.7605 57.0863C59.7605 57.0611 59.6569 57.1003 59.4805 57.0863C59.2584 57.0712 59.0507 56.9709 58.9009 56.8063C58.5257 56.3919 58.5173 55.4483 58.9009 54.6447C59.0845 54.2596 59.3536 53.9215 59.6877 53.6563C59.8016 53.5415 59.9415 53.4561 60.0956 53.4074C60.2497 53.3586 60.4134 53.3479 60.5725 53.3763C60.6731 53.399 60.7627 53.4563 60.8255 53.5381C60.8884 53.6199 60.9208 53.7211 60.9169 53.8243C60.9169 53.9783 60.8385 54.0511 60.8553 54.0707C60.8721 54.0903 60.9897 54.0455 61.0485 53.8467C61.087 53.7269 61.084 53.5977 61.0401 53.4799C61.0039 53.4029 60.9528 53.3339 60.8899 53.2767C60.8269 53.2196 60.7533 53.1754 60.6733 53.1467C60.4737 53.0876 60.2623 53.0808 60.0593 53.1268C59.8564 53.1729 59.6686 53.2704 59.5141 53.4099C59.1283 53.6945 58.8171 54.0682 58.6069 54.4991C58.1729 55.4035 58.1953 56.4591 58.7357 56.9883C58.8363 57.0836 58.9568 57.1555 59.0885 57.1986C59.2202 57.2417 59.3598 57.2549 59.4973 57.2375C59.6989 57.1871 59.7717 57.1031 59.7605 57.0863Z" fill="#D37A57"/>
<path d="M58.0669 116.337C57.6749 115.614 56.6669 115.169 56.6669 115.169L55.8269 113.111C56.0278 112.591 56.0278 112.015 55.8269 111.496C55.4937 110.605 53.0437 105.434 53.0997 105.266L52.4669 105.229C52.4669 105.229 54.7236 110.703 54.9448 110.983C55.166 111.263 55.5048 112.89 54.9448 113.111C54.3848 113.332 53.206 112.733 52.7048 112.232C52.2036 111.731 50.6104 107.965 50.3332 107.192C50.056 106.419 50.5489 105.33 50.5489 105.33L50.994 104.274H50.4005C50.1565 104.985 49.9518 105.709 49.7872 106.442C49.566 107.5 52.0693 112.117 52.4585 112.618C52.8477 113.12 54.1832 113.509 54.9056 114.018C55.628 114.528 55.5188 116.079 55.5188 116.079C55.1423 116.623 54.9118 117.255 54.8496 117.913C54.7936 118.916 57.0196 123.645 58.5204 124.633C60.0212 125.622 61.8049 124.913 61.9701 124.969C62.1353 125.025 62.5301 124.188 62.5301 124.188C62.5301 124.188 58.4561 117.059 58.0669 116.337ZM60.1164 124.6C59.297 124.489 58.5543 124.059 58.0501 123.404C57.8681 123.163 55.9192 119.764 55.6672 119.142C55.2304 118.042 55.5328 117.432 55.6924 116.788C55.9248 115.85 57.3724 116.398 57.3724 116.398C57.3724 116.398 61.6341 123.762 61.5361 123.986C61.4381 124.21 60.9172 124.67 60.1164 124.6Z" fill="#263238"/>
<path d="M62.5157 124.18C62.5157 124.18 74.9225 119.459 75.5021 118.925C76.0817 118.39 78.1761 115.315 78.1761 115.315C78.1761 115.315 79.2009 115.492 79.0665 115.761C78.9321 116.029 76.9721 119.104 74.8665 119.994C72.7609 120.885 61.9473 124.961 61.9473 124.961L62.5157 124.18Z" fill="#263238"/>
<path d="M23.254 85.2744L18.144 114.747C18.144 114.747 16.2624 120.482 16.5312 121.747C16.8 123.013 17.7492 128.411 20.6164 130.114C23.4836 131.816 29.162 130.704 30.3268 129.554C31.4916 128.403 33.7876 126.255 34.0564 125.27C34.3252 124.284 36.2096 109.31 36.2096 109.31L36.9572 105.11C36.9572 105.11 34.1796 106.006 32.4772 104.83C30.7748 103.654 28.5348 98.6472 28.5348 98.6472L26.04 102.48L23.254 85.2744Z" fill="#9269AD"/>
<path d="M28.5349 98.6191C28.5097 98.6778 28.4778 98.7332 28.4397 98.7843L28.1345 99.2463C27.8713 99.6439 27.4905 100.224 27.0341 100.946C26.1157 102.391 24.8893 104.41 23.5481 106.652C22.2069 108.895 21.0001 110.925 20.0957 112.384C19.6477 113.112 19.2781 113.697 19.0177 114.1C18.8917 114.288 18.7881 114.442 18.7125 114.56C18.6782 114.614 18.6398 114.665 18.5977 114.714C18.6201 114.653 18.6502 114.596 18.6873 114.543L18.9673 114.07L20.0089 112.331L23.4221 106.577C24.7633 104.337 26.0065 102.321 26.9473 100.89C27.4177 100.173 27.8097 99.6019 28.0897 99.2099L28.4145 98.7647C28.4501 98.7127 28.4904 98.664 28.5349 98.6191V98.6191Z" fill="#263238"/>
<path d="M36.3161 108.684C36.2849 108.728 36.2492 108.769 36.2097 108.805C36.1341 108.88 36.0333 109.001 35.8821 109.132C35.4614 109.52 34.9847 109.842 34.4681 110.087C34.1121 110.255 33.7355 110.374 33.3481 110.443C32.8993 110.527 32.4397 110.539 31.9873 110.476C31.4883 110.412 31.0003 110.28 30.5369 110.084C30.0452 109.872 29.5761 109.61 29.1369 109.303C28.704 108.983 28.3069 108.617 27.9525 108.211C27.076 107.177 26.4886 105.929 26.2501 104.594C26.1458 104.034 26.1073 103.463 26.1353 102.894C26.1353 102.692 26.1689 102.538 26.1773 102.432C26.1822 102.378 26.1916 102.325 26.2053 102.272C26.2159 102.48 26.2159 102.689 26.2053 102.897C26.2004 103.461 26.2539 104.024 26.3649 104.577C26.5283 105.397 26.8193 106.185 27.2273 106.915C27.4704 107.341 27.7515 107.744 28.0673 108.119C28.4174 108.515 28.8078 108.873 29.2321 109.188C29.6646 109.49 30.1261 109.747 30.6097 109.956C31.0571 110.147 31.5278 110.279 32.0097 110.348C32.4453 110.406 32.8874 110.397 33.3201 110.32C33.706 110.258 34.0824 110.147 34.4401 109.989C34.9524 109.756 35.4294 109.451 35.8569 109.085C36.1481 108.83 36.3077 108.673 36.3161 108.684Z" fill="#263238"/>
<path d="M28.5347 98.6192L32.3595 96.1608C32.3595 96.1608 42.5515 92.0196 43.5875 91.7816C44.6235 91.5436 45.8275 91.0648 46.3875 91.7816C46.9475 92.4984 52.7575 96.718 52.7575 96.718C52.7575 96.718 56.1819 103.158 56.1819 104.046C56.1819 104.933 57.1367 106.042 56.1819 106.358L55.2159 106.68C55.2159 106.68 54.8967 108.243 53.7011 108.416C52.5055 108.59 52.1079 108.416 52.1079 108.416C52.1079 108.416 52.0295 109.979 51.0747 109.884C50.1199 109.788 48.5267 108.416 48.5267 108.416C48.5267 108.416 47.8099 109.228 47.2527 109.228C46.6955 109.228 44.9427 108.036 44.9427 108.036L41.5547 105.087L38.5699 104.054L36.9599 105.07C36.9599 105.07 33.5159 105.364 32.9979 105.07C32.4799 104.776 28.5347 98.6192 28.5347 98.6192Z" fill="#EF9D78"/>
<path d="M48.1093 108.685C48.0376 108.539 47.9786 108.388 47.9329 108.232C47.8825 108.086 47.8181 107.907 47.7313 107.702C47.6445 107.498 47.5605 107.263 47.4373 107.014C47.3141 106.764 47.1937 106.484 47.0369 106.202C46.8801 105.919 46.7037 105.614 46.5161 105.297C46.0913 104.625 45.6167 103.986 45.0965 103.385C44.5669 102.792 43.9952 102.238 43.3857 101.727C43.1057 101.5 42.8257 101.276 42.5457 101.094C42.2657 100.912 42.0277 100.736 41.7925 100.59C41.5573 100.445 41.3361 100.31 41.1457 100.21C40.9553 100.109 40.7873 100.008 40.6473 99.9297C40.4998 99.8629 40.3575 99.7852 40.2217 99.6973C40.3771 99.7443 40.528 99.8052 40.6725 99.8793C40.8475 99.9523 41.0185 100.035 41.1849 100.126C41.3809 100.229 41.6077 100.341 41.8457 100.49C42.0837 100.638 42.3469 100.792 42.6157 100.985C42.8845 101.178 43.1757 101.386 43.4557 101.612C44.7085 102.623 45.7778 103.842 46.6169 105.216C46.8045 105.535 46.9865 105.835 47.1293 106.134C47.2721 106.434 47.4093 106.694 47.5185 106.974C47.6277 107.254 47.7173 107.47 47.7985 107.677C47.8797 107.884 47.9329 108.066 47.9749 108.218C48.0319 108.37 48.0768 108.526 48.1093 108.685V108.685Z" fill="#D37A57"/>
<path d="M52.1024 108.587C52.1024 108.587 52.0688 108.547 52.0156 108.463C51.9624 108.379 51.884 108.259 51.7972 108.094C51.5538 107.627 51.346 107.142 51.1756 106.643C50.9544 106.016 50.7388 105.243 50.4868 104.403C50.2351 103.491 49.8741 102.612 49.4116 101.785C48.9213 100.976 48.2693 100.276 47.4964 99.7302C46.7908 99.2178 46.1104 98.8034 45.5924 98.3778C45.1718 98.0569 44.8066 97.669 44.5116 97.2298C44.4348 97.1082 44.3674 96.9809 44.31 96.849C44.2857 96.8051 44.2677 96.758 44.2568 96.709C44.2708 96.709 44.3492 96.8938 44.5592 97.199C44.8673 97.6184 45.2374 97.9885 45.6568 98.2966C46.1776 98.7054 46.858 99.1086 47.5748 99.6238C48.3681 100.173 49.0361 100.884 49.5348 101.71C50.0042 102.546 50.3673 103.438 50.6156 104.364C50.862 105.204 51.0664 105.971 51.2736 106.604C51.4301 107.101 51.6171 107.587 51.8336 108.06C51.9329 108.231 52.0227 108.406 52.1024 108.587V108.587Z" fill="#D37A57"/>
<path d="M54.975 106.739C54.9539 106.696 54.9388 106.65 54.9302 106.602C54.905 106.493 54.8742 106.361 54.835 106.199C54.7958 106.036 54.7482 105.81 54.6782 105.566C54.6082 105.322 54.541 105.037 54.4318 104.726C54.3226 104.415 54.2246 104.09 54.0818 103.74C53.939 103.39 53.7822 103.021 53.6114 102.634C52.8313 100.97 51.7916 99.4397 50.5314 98.1012C50.2346 97.7988 49.9574 97.5048 49.6746 97.2612C49.3918 97.0176 49.1342 96.7768 48.885 96.5724C48.6358 96.368 48.4062 96.1972 48.2046 96.0404C48.003 95.8836 47.8238 95.7604 47.6754 95.6596L47.3338 95.4244C47.2582 95.3684 47.219 95.3376 47.2218 95.332C47.2671 95.3495 47.3103 95.3721 47.3506 95.3992L47.7062 95.6148C47.8602 95.7072 48.045 95.8248 48.2522 95.976C48.4594 96.1272 48.703 96.2868 48.9522 96.494C49.2014 96.7012 49.4786 96.914 49.7558 97.1744C50.033 97.4348 50.3158 97.712 50.6266 98.0144C51.2624 98.6881 51.8465 99.4088 52.3738 100.17C52.8884 100.939 53.3434 101.746 53.7346 102.584C53.9054 102.976 54.0734 103.346 54.1966 103.704C54.3198 104.062 54.4402 104.393 54.5326 104.704C54.625 105.014 54.695 105.294 54.7594 105.544C54.815 105.755 54.8598 105.969 54.8938 106.185C54.9218 106.347 54.9442 106.484 54.9638 106.594C54.9746 106.641 54.9784 106.69 54.975 106.739V106.739Z" fill="#D37A57"/>
<path d="M39.9725 95.8693C39.9725 95.8917 39.7737 95.9225 39.4797 96.0513C39.0961 96.212 38.7617 96.4711 38.5104 96.8025C38.2592 97.1339 38.1 97.5258 38.0489 97.9385C38.0069 98.2577 38.0321 98.4593 38.0097 98.4621C37.9421 98.2935 37.9208 98.1098 37.9481 97.9301C37.9725 97.4893 38.1278 97.0658 38.3942 96.7137C38.6605 96.3616 39.0257 96.0968 39.4433 95.9533C39.6096 95.8805 39.7918 95.8516 39.9725 95.8693Z" fill="#D37A57"/>
<path d="M42.8123 93.1699C42.8347 93.2091 42.3419 93.5199 41.8547 94.0407C41.3675 94.5615 41.0763 95.0655 41.0371 95.0459C41.3719 94.2196 42.0057 93.5498 42.8123 93.1699V93.1699Z" fill="#D37A57"/>
<path d="M82.7708 59.9195C82.2864 60.1211 82.1884 60.7007 82.1968 61.2243C82.1968 61.8795 82.3704 61.9859 82.9052 63.0835C83.7816 64.8783 84.8288 68.2831 84.8288 68.2831C84.8288 68.2831 83.9692 76.8791 84.5488 78.8979C84.7068 79.4332 84.9937 79.9216 85.3842 80.3204C85.7747 80.7192 86.2569 81.0162 86.7888 81.1855L86.0048 87.8243H95.382C95.382 87.8243 95.0488 81.3843 94.8472 79.4243C94.6344 77.3523 94.7744 64.8223 94.7744 64.8223L93.8532 58.1331L91.6832 54.3755C91.354 54.5908 91.11 54.9139 90.993 55.2894C90.876 55.6649 90.8933 56.0694 91.042 56.4335C91.532 57.8083 91.854 60.4487 91.854 60.4487L86.4248 52.2783C86.4248 52.2783 85.358 52.5331 85.3048 54.5183C85.3048 54.5183 83.7256 55.5459 84.7448 57.2147C85.8424 59.0795 87.024 64.6795 86.6096 64.6795L83.2496 59.7319L82.7708 59.9195Z" fill="#EF9D78"/>
<path d="M85.9827 87.8249C85.9827 87.8249 85.9827 87.6765 86.0247 87.3853C86.0667 87.0941 86.1059 86.6601 86.1675 86.1001C86.2963 84.9661 86.4867 83.3001 86.7275 81.1805L86.7527 81.2197C86.3161 81.0786 85.911 80.8542 85.5599 80.5589C85.1734 80.2389 84.8666 79.8334 84.6639 79.3745C84.4622 78.8763 84.3504 78.3464 84.3335 77.8093C84.3017 77.2493 84.2887 76.6799 84.2943 76.1013C84.3195 73.7549 84.5015 71.1285 84.7675 68.2781V68.3005C84.3279 66.9173 83.8407 65.4585 83.2303 63.9801C83.0763 63.6105 82.9139 63.2437 82.7291 62.8797C82.524 62.5193 82.3443 62.1451 82.1915 61.7597C82.14 61.55 82.1173 61.3343 82.1243 61.1185C82.1245 60.9003 82.1565 60.6833 82.2195 60.4745C82.2811 60.2531 82.4202 60.0613 82.6115 59.9341C82.7071 59.8788 82.8073 59.832 82.9111 59.7941L83.2079 59.6709L83.2583 59.6513L83.2891 59.6961L86.8003 64.8453L86.6715 64.8733C86.7176 64.442 86.7119 64.0068 86.6547 63.5769C86.6061 63.136 86.5313 62.6984 86.4307 62.2665C86.2276 61.3829 85.9657 60.5139 85.6467 59.6653C85.3387 58.8001 84.9495 57.9601 84.5715 57.0949C84.3707 56.648 84.3177 56.1487 84.4203 55.6697C84.5353 55.1842 84.8191 54.7555 85.2211 54.4601L85.1903 54.5133C85.236 54.0816 85.3357 53.6573 85.4871 53.2505C85.5706 53.038 85.6816 52.8375 85.8175 52.6541C85.9555 52.4556 86.1509 52.3042 86.3775 52.2201L86.4223 52.2061L86.4531 52.2509L86.5175 52.3461L91.8823 60.4241L91.7507 60.4717C91.6197 59.3949 91.4281 58.3264 91.1767 57.2713C91.1123 57.0109 91.0395 56.7561 90.9555 56.5069C90.8602 56.2489 90.8146 55.9753 90.8211 55.7005C90.8366 55.4261 90.9164 55.1592 91.054 54.9214C91.1917 54.6835 91.3833 54.4814 91.6135 54.3313L91.6723 54.2921L91.7087 54.3565L93.8787 58.1141C94.1979 60.4549 94.5031 62.6855 94.7943 64.8061C94.7551 68.2725 94.7355 71.4449 94.7411 74.2505C94.7411 75.6505 94.7411 76.9665 94.7831 78.1705C94.7999 78.7753 94.8335 79.3521 94.8895 79.9065C94.9455 80.4609 94.9707 80.9901 95.0043 81.4913C95.1359 83.4961 95.2143 85.0697 95.2703 86.1421C95.2955 86.6769 95.3151 87.0857 95.3263 87.3657C95.3375 87.6457 95.3403 87.7857 95.3403 87.7857C95.3403 87.7857 95.3263 87.6429 95.3095 87.3657C95.2927 87.0885 95.2647 86.6769 95.2339 86.1449C95.1667 85.0725 95.0743 83.4989 94.9343 81.4941C94.8979 80.9929 94.8615 80.4665 94.8139 79.9121C94.7663 79.3577 94.7159 78.7781 94.6991 78.1733C94.6599 76.9581 94.6487 75.6533 94.6403 74.2533C94.6263 71.4533 94.6403 68.2753 94.6739 64.8089C94.3808 62.6921 94.0719 60.4623 93.7471 58.1197V58.1421L91.5715 54.3901L91.6667 54.4153C91.4572 54.5542 91.2828 54.7398 91.157 54.9574C91.0312 55.175 90.9574 55.4188 90.9415 55.6697C90.9387 55.9273 90.9823 56.1834 91.0703 56.4257C91.158 56.6795 91.2336 56.9371 91.2971 57.1985C91.5499 58.2602 91.7434 59.3352 91.8767 60.4185L91.9159 60.7237L91.7451 60.4661L86.3775 52.3909L86.3159 52.2957L86.3915 52.3265C86.1991 52.4044 86.0337 52.5367 85.9155 52.7073C85.788 52.8792 85.6844 53.0675 85.6075 53.2673C85.4636 53.6629 85.3695 54.0748 85.3275 54.4937V54.5245L85.2995 54.5469C84.9279 54.8211 84.6651 55.2178 84.5575 55.6669C84.4638 56.1172 84.5148 56.5856 84.7031 57.0053C85.0755 57.8593 85.4703 58.7105 85.7783 59.5785C86.0996 60.4335 86.3634 61.309 86.5679 62.1993C86.6729 62.6477 86.7506 63.1022 86.8003 63.5601C86.8591 64.003 86.8648 64.4514 86.8171 64.8957L86.7919 65.0749L86.6883 64.9237C85.4759 63.1373 84.2943 61.4013 83.1799 59.7633L83.2611 59.7857C83.0679 59.8725 82.8467 59.9453 82.6815 60.0377C82.5159 60.1483 82.3964 60.3156 82.3455 60.5081C82.2862 60.7042 82.256 60.908 82.2559 61.1129C82.2491 61.3154 82.2698 61.5179 82.3175 61.7149C82.4671 62.0998 82.643 62.474 82.8439 62.8349C83.0287 63.2017 83.1939 63.5741 83.3479 63.9549C83.9583 65.4417 84.4427 66.9005 84.8795 68.2893V68.3117C84.5995 71.1593 84.4203 73.7829 84.3867 76.1265C84.3867 76.7107 84.3979 77.2773 84.4203 77.8261C84.4333 78.3532 84.5404 78.8738 84.7367 79.3633C84.9303 79.7896 85.211 80.1707 85.5605 80.4822C85.9101 80.7937 86.3209 81.0286 86.7667 81.1721H86.7975V81.2001C86.5371 83.3253 86.3355 84.9829 86.1983 86.1141L86.0387 87.3993C86.0079 87.6765 85.9827 87.8249 85.9827 87.8249Z" fill="#D37A57"/>
<path d="M90.1267 65.3939C90.08 65.243 90.0462 65.0885 90.0259 64.9319C89.9727 64.6323 89.8831 64.2011 89.7627 63.6691C89.4357 62.2915 88.9714 60.9501 88.3767 59.6651C87.7692 58.3836 87.0624 57.1515 86.2627 55.9803C85.9603 55.5295 85.7027 55.1683 85.5319 54.9191C85.4363 54.7925 85.3493 54.6597 85.2715 54.5215C85.3835 54.6338 85.4856 54.7556 85.5767 54.8855C85.7671 55.1235 86.0331 55.4763 86.3495 55.9215C87.1785 57.0813 87.901 58.3136 88.5083 59.6035C89.1096 60.8964 89.5641 62.2526 89.8635 63.6467C89.9699 64.1815 90.0483 64.6183 90.0819 64.9235C90.1108 65.0786 90.1258 65.2361 90.1267 65.3939V65.3939Z" fill="#D37A57"/>
<path d="M93.038 63.308C92.7658 62.8444 92.5362 62.3571 92.352 61.852C92.1185 61.3676 91.931 60.8623 91.792 60.3428C92.0623 60.806 92.2909 61.2923 92.4752 61.796C92.7076 62.2821 92.896 62.7882 93.038 63.308V63.308Z" fill="#D37A57"/>
<path d="M85.2348 85.0748C83.5884 99.6012 81.4464 115.063 78.9824 131.124H98.07C101.66 123.177 99.47 116.244 98.5068 106.363L95.3596 83.9268L85.2348 85.0748Z" fill="#9269AD"/>
<path d="M78.9828 131.124C78.9797 131.093 78.9797 131.062 78.9828 131.031L79.0164 130.751C79.0528 130.502 79.1004 130.147 79.162 129.696C79.2964 128.769 79.4896 127.456 79.722 125.809C80.2036 122.522 80.87 117.997 81.6036 112.997C82.3372 107.996 82.9336 103.454 83.334 100.164C83.5384 98.5178 83.6924 97.1878 83.796 96.2666C83.8492 95.813 83.8912 95.4574 83.922 95.2054L83.9556 94.9254C83.9592 94.8941 83.9657 94.8631 83.9752 94.833C83.9752 94.833 83.9752 94.8638 83.9752 94.9254L83.9528 95.2054C83.9304 95.4574 83.8968 95.8158 83.8548 96.2694C83.768 97.1906 83.6308 98.5262 83.4376 100.173C83.0652 103.465 82.4716 108.013 81.7576 113.016C81.0436 118.02 80.3408 122.536 79.8312 125.823C79.5764 127.453 79.3664 128.775 79.2208 129.701C79.148 130.149 79.0892 130.502 79.05 130.754C79.0304 130.866 79.0136 130.959 79.0024 131.034C78.9985 131.065 78.992 131.095 78.9828 131.124V131.124Z" fill="#263238"/>
<path d="M120.338 130.998H65.9092L72.9316 92.798C73.0524 92.1429 73.3984 91.5506 73.9097 91.1237C74.421 90.6968 75.0655 90.462 75.7316 90.46H124.648C125.067 90.4608 125.482 90.5542 125.862 90.7335C126.241 90.9128 126.577 91.1737 126.844 91.4974C127.112 91.8212 127.304 92.2 127.409 92.6068C127.513 93.0135 127.526 93.4383 127.448 93.8508L120.338 130.998Z" fill="#455A64"/>
<path d="M65.9089 130.998H45.2617L45.3457 130.937C47.1873 129.553 49.4107 128.771 51.7129 128.697L66.4745 128.263L65.9089 130.998Z" fill="#455A64"/>
<path d="M78.982 90.5101C78.982 90.5241 78.8308 90.4821 78.5424 90.4793C78.1213 90.4856 77.7074 90.5891 77.3328 90.7817C76.7396 91.0829 76.2386 91.5385 75.8824 92.1005C75.4325 92.8601 75.1304 93.6981 74.992 94.5701C74.8156 95.5361 74.6588 96.6084 74.4656 97.7536C74.2724 98.8988 74.0596 100.12 73.8188 101.394C73.3456 103.961 72.7828 106.778 72.1724 109.726C70.9432 115.626 69.8036 120.96 69.0616 124.846C68.6864 126.784 68.398 128.355 68.202 129.441C68.104 129.973 68.0284 130.39 67.9752 130.69C67.9472 130.824 67.9276 130.931 67.9108 131.015C67.9049 131.052 67.8955 131.089 67.8828 131.124C67.8828 131.124 67.8828 131.088 67.8828 131.012C67.8828 130.936 67.9108 130.819 67.9276 130.684C67.9752 130.382 68.0368 129.962 68.118 129.427C68.2888 128.338 68.5576 126.762 68.9132 124.818C69.6216 120.935 70.7388 115.592 71.968 109.698C72.5784 106.75 73.144 103.939 73.6284 101.374C73.8748 100.094 74.0904 98.8736 74.2948 97.734C74.4992 96.5944 74.6588 95.5248 74.8548 94.5504C75.0033 93.6638 75.3208 92.814 75.79 92.0472C76.1634 91.4744 76.6862 91.0145 77.302 90.7172C77.6871 90.5233 78.1141 90.4271 78.5452 90.4372C78.6935 90.4405 78.8406 90.4651 78.982 90.5101V90.5101Z" fill="#263238"/>
<path d="M101.97 109.869C101.97 110.39 101.816 110.899 101.526 111.332C101.237 111.764 100.826 112.102 100.345 112.301C99.8643 112.5 99.3351 112.552 98.8246 112.451C98.314 112.349 97.845 112.099 97.477 111.73C97.1089 111.362 96.8582 110.893 96.7566 110.383C96.6551 109.872 96.7072 109.343 96.9064 108.862C97.1056 108.381 97.443 107.97 97.8758 107.681C98.3086 107.392 98.8175 107.237 99.3381 107.237C100.036 107.237 100.706 107.515 101.199 108.008C101.693 108.502 101.97 109.171 101.97 109.869Z" fill="#F5F5F5"/>
<path d="M133.734 131.04C133.734 131.079 105.07 131.112 69.7229 131.112C34.3757 131.112 5.70654 131.082 5.70654 131.04C5.70654 130.998 34.3617 130.967 69.7229 130.967C105.084 130.967 133.734 131 133.734 131.04Z" fill="#263238"/>
<path d="M57.8426 30.747L57.095 23.7162L53.5082 24.5254L50.417 19.0654L52.3434 26.4462L55.9806 25.6118L57.8426 30.747Z" fill="#9269AD"/>
<path d="M56.3813 32.0745L53.0493 28.6445L51.4785 30.5737L47.5557 28.9581L51.6605 32.0829L53.2481 30.1201L56.3813 32.0745Z" fill="#9269AD"/>
<path d="M92.4004 35.107L95.43 29.5966L98.0928 31.4922L102.503 28.0762L98.3896 33.469L95.6904 31.537L92.4004 35.107Z" fill="#9269AD"/>
<path d="M97.958 38.2506L101.091 36.915L101.592 38.6118L104.614 38.6314L101.058 39.5526L100.554 37.8278L97.958 38.2506Z" fill="#9269AD"/>
<path d="M76.2245 16.842C76.2245 16.842 76.3505 16.7608 76.6025 16.6096C76.9789 16.3899 77.3689 16.1945 77.7701 16.0244C79.3324 15.3551 81.0253 15.046 82.7233 15.12C83.009 15.1286 83.2941 15.152 83.5773 15.19C83.8782 15.2191 84.176 15.2734 84.4677 15.3525C84.7762 15.4328 85.0727 15.5533 85.3497 15.7108C85.6453 15.8754 85.8932 16.1137 86.0693 16.4025C86.247 16.7126 86.3085 17.0759 86.2429 17.4272C86.1609 17.7886 85.9818 18.1206 85.7249 18.3876C85.1783 18.9381 84.5055 19.3466 83.7649 19.5776C82.1481 20.1723 80.4241 20.4194 78.7053 20.3028C76.7603 20.1834 74.8707 19.6079 73.1893 18.6228L73.1501 18.5976L73.1753 18.5584C73.8932 17.4287 74.8955 16.5075 76.0817 15.8873C77.3369 15.223 78.7168 14.8282 80.1333 14.728C81.6261 14.634 83.1245 14.7557 84.5825 15.0892C85.3329 15.2488 86.0833 15.4476 86.8225 15.68C87.594 15.889 88.3439 16.1702 89.0625 16.52C89.806 16.8845 90.429 17.455 90.8573 18.1637C91.0697 18.5283 91.2024 18.9339 91.2465 19.3536C91.2849 19.7808 91.2135 20.2106 91.0393 20.6024C90.6459 21.3742 90.0065 21.993 89.2221 22.3608C88.4449 22.7516 87.6205 23.0405 86.7693 23.2204C83.233 24.0791 79.5543 24.1746 75.9781 23.5004C75.7457 23.4612 75.5189 23.4052 75.2865 23.3576C75.0541 23.31 74.8273 23.2568 74.5977 23.198C74.1332 23.094 73.6773 22.9546 73.2341 22.7808C72.7831 22.604 72.3626 22.3574 71.9881 22.05C71.5989 21.7357 71.3324 21.2948 71.2349 20.804C71.1524 20.3046 71.2646 19.7924 71.5485 19.3732C71.8278 18.9624 72.1821 18.6081 72.5929 18.3288C73.0006 18.0481 73.4337 17.8062 73.8865 17.6064C74.1049 17.4944 74.3345 17.3964 74.5613 17.3012C74.7881 17.206 75.0177 17.108 75.2529 17.0212C77.1434 16.3115 79.1419 15.9326 81.1609 15.9012C82.1862 15.8842 83.2111 15.9554 84.2241 16.114C84.4789 16.1532 84.7337 16.1952 84.9885 16.254C85.2433 16.3128 85.4953 16.3548 85.7445 16.4248C86.2535 16.5408 86.7511 16.702 87.2313 16.9064C87.7205 17.1084 88.1742 17.3873 88.5753 17.7324C88.9867 18.0824 89.2801 18.5508 89.4153 19.0736L89.4573 19.2724L89.4741 19.4768C89.4839 19.612 89.4839 19.7477 89.4741 19.8828C89.4386 20.1516 89.3591 20.4127 89.2389 20.6556C88.9927 21.137 88.6472 21.5607 88.2253 21.8988C87.8127 22.2435 87.3617 22.5394 86.8813 22.7808C86.6433 22.9068 86.3969 23.0132 86.1505 23.1168C85.9041 23.2204 85.6577 23.3268 85.4057 23.422C84.4015 23.8097 83.3702 24.1233 82.3201 24.36C80.1895 24.8533 77.9985 25.0344 75.8157 24.8976C74.7001 24.8564 73.6074 24.5696 72.6153 24.0576C72.113 23.792 71.6833 23.4075 71.3637 22.9376C71.0575 22.4499 70.9161 21.8767 70.9605 21.3024C71.0024 20.8372 71.153 20.3884 71.4001 19.992C71.6489 19.6024 71.9525 19.2506 72.3017 18.9476C72.9966 18.3555 73.7847 17.8824 74.6341 17.5476C76.2946 16.8432 78.0599 16.4175 79.8589 16.2876C80.7466 16.2227 81.638 16.2293 82.5245 16.3072C82.9669 16.3464 83.4065 16.4024 83.8433 16.478C84.2827 16.5451 84.7148 16.6529 85.1341 16.8C85.5569 16.9386 85.9569 17.1386 86.3213 17.3936C86.6975 17.6444 86.9946 17.9969 87.1781 18.41C87.3555 18.8302 87.3704 19.3011 87.2201 19.7316C87.0706 20.1525 86.8151 20.5277 86.4781 20.8208C85.8061 21.4144 84.9381 21.6608 84.1121 21.8652C83.2861 22.0696 82.4517 22.26 81.6229 22.442C79.9849 22.823 78.3224 23.0896 76.6473 23.24C74.9998 23.3897 73.3395 23.3106 71.7137 23.0048C70.1183 22.7044 68.6002 22.0843 67.2505 21.182L67.1777 21.1344L67.2421 21.0756C69.5198 19.1104 72.3175 17.8462 75.2977 17.4356C78.1248 16.9988 81.0177 17.3606 83.6501 18.48C83.9638 18.629 84.2574 18.8172 84.5237 19.04C84.7956 19.2627 85.0049 19.5522 85.1313 19.88C85.2426 20.2198 85.2246 20.5887 85.0809 20.916C84.9293 21.229 84.7022 21.4994 84.4201 21.7028C83.8651 22.0798 83.2522 22.3635 82.6057 22.5428C81.9809 22.7431 81.3415 22.8948 80.6933 22.9964C79.426 23.1938 78.1358 23.1938 76.8685 22.9964C76.5516 22.9674 76.2472 22.8585 75.9837 22.68C75.8566 22.5748 75.7598 22.4377 75.7032 22.2827C75.6466 22.1277 75.6323 21.9604 75.6617 21.798C75.7446 21.4883 75.9181 21.2104 76.1601 21C76.386 20.7889 76.6405 20.6108 76.9161 20.4708C79.0491 19.5167 81.3967 19.1448 83.7201 19.3928C84.273 19.4436 84.8164 19.5689 85.3357 19.7652C85.8525 19.9546 86.3056 20.2855 86.6433 20.72C86.9737 21.1524 87.1296 21.693 87.0801 22.2348C86.9961 22.7566 86.7156 23.2265 86.2961 23.548C85.9065 23.8576 85.4883 24.1295 85.0473 24.36C84.6182 24.5961 84.175 24.8055 83.7201 24.9872C82.8542 25.3327 81.9527 25.5815 81.0321 25.7292C79.3549 26.0018 77.6395 25.9275 75.9921 25.5108H75.9389L75.9697 25.4688C76.6771 24.5115 77.6511 23.784 78.7697 23.3772C79.7449 23.0108 80.7992 22.9065 81.8273 23.0748C82.2895 23.1387 82.7315 23.3052 83.1209 23.562C83.3014 23.6864 83.4563 23.8442 83.5773 24.0268C83.6901 24.2056 83.761 24.4076 83.7845 24.6176C83.8143 25.0101 83.7053 25.4005 83.4765 25.7208C83.2798 26.0092 83.0356 26.262 82.7541 26.4684C82.2758 26.7901 81.7546 27.0427 81.2057 27.2188C80.8188 27.3582 80.4426 27.5257 80.0801 27.72C79.86 27.8419 79.6551 27.9895 79.4697 28.1596C79.4081 28.2156 79.3661 28.2632 79.3353 28.294L79.2905 28.3388C79.3451 28.2734 79.4031 28.2108 79.4641 28.1512C79.6468 27.9779 79.8499 27.8275 80.0689 27.7032C80.4287 27.5035 80.8031 27.3312 81.1889 27.188C81.7333 27.007 82.2505 26.7527 82.7261 26.432C83.0032 26.2273 83.2429 25.9763 83.4345 25.69C83.6573 25.379 83.7625 24.999 83.7313 24.6176C83.7084 24.4179 83.6394 24.2262 83.5297 24.0576C83.4131 23.879 83.2617 23.7257 83.0845 23.6068C82.7017 23.3558 82.2672 23.194 81.8133 23.1336C80.7951 22.969 79.7514 23.0743 78.7865 23.4388C77.6808 23.844 76.7187 24.5656 76.0201 25.5136L76.0005 25.4576C77.6378 25.867 79.3414 25.9375 81.0069 25.6648C81.9275 25.5156 82.8289 25.2659 83.6949 24.92C84.1434 24.7405 84.581 24.5348 85.0053 24.304C85.4438 24.0737 85.8592 23.8018 86.2457 23.492C86.6457 23.184 86.9139 22.7357 86.9961 22.2376C87.0364 21.721 86.8827 21.2078 86.5649 20.7984C86.2412 20.3776 85.8055 20.0564 85.3077 19.8716C84.7984 19.6739 84.2641 19.5477 83.7201 19.4964C81.4114 19.2454 79.0775 19.6136 76.9581 20.5632C76.6923 20.6973 76.4471 20.8689 76.2301 21.0728C76.0084 21.2699 75.8496 21.528 75.7737 21.8148C75.7474 21.9569 75.7595 22.1034 75.8087 22.2393C75.8579 22.3751 75.9425 22.4954 76.0537 22.5876C76.3004 22.7692 76.5897 22.884 76.8937 22.9208C78.1481 23.1154 79.425 23.1154 80.6793 22.9208C81.3218 22.8177 81.9554 22.6661 82.5749 22.4672C83.2098 22.287 83.8105 22.0032 84.3529 21.6272C84.618 21.4359 84.8316 21.182 84.9745 20.888C85.1054 20.5888 85.1214 20.2519 85.0193 19.9416C84.9062 19.6325 84.713 19.3591 84.4593 19.1492C84.2051 18.9266 83.9227 18.7383 83.6193 18.5892C81.0048 17.473 78.1301 17.1102 75.3201 17.542C72.3635 17.9588 69.5908 19.2231 67.3373 21.182V21.0728C68.6737 21.9623 70.1754 22.5736 71.7529 22.8704C73.3657 23.1748 75.0128 23.254 76.6473 23.1056C78.316 22.9517 79.972 22.6823 81.6033 22.2992C82.4433 22.1172 83.2609 21.9212 84.0897 21.7224C84.9185 21.5236 85.7697 21.2772 86.3941 20.7116C86.7084 20.4302 86.9447 20.0724 87.0801 19.6728C87.2165 19.2736 87.2016 18.8382 87.0381 18.4492C86.8649 18.062 86.5853 17.7318 86.2317 17.4972C85.8777 17.2516 85.4901 17.0582 85.0809 16.9232C84.6687 16.7818 84.244 16.6796 83.8125 16.618C83.3813 16.5424 82.9445 16.4864 82.5077 16.4472C81.6276 16.3716 80.7428 16.366 79.8617 16.4304C78.08 16.5596 76.3318 16.9815 74.6873 17.6792C73.8507 18.0076 73.0748 18.4732 72.3913 19.0568C71.7305 19.6448 71.1593 20.4204 71.0865 21.3164C71.045 21.8582 71.1785 22.399 71.4673 22.8592C71.7741 23.3085 72.1853 23.6765 72.6657 23.9316C73.6389 24.433 74.7106 24.714 75.8045 24.7548C77.974 24.8907 80.1517 24.7115 82.2697 24.2228C83.3179 23.9832 84.3473 23.6679 85.3497 23.2792C85.598 23.184 85.8444 23.0832 86.0889 22.9768C86.3353 22.8732 86.5761 22.7668 86.8113 22.6436C87.2812 22.4068 87.7226 22.1175 88.1273 21.7812C88.5331 21.4554 88.866 21.0481 89.1045 20.5856C89.2168 20.3564 89.2915 20.1106 89.3257 19.8576C89.3355 19.7309 89.3355 19.6036 89.3257 19.4768L89.3089 19.2864L89.2697 19.0988C89.1433 18.6049 88.8676 18.1619 88.4801 17.8304C88.0894 17.496 87.648 17.2257 87.1725 17.0296C86.6995 16.8279 86.2094 16.6686 85.7081 16.5536C85.4589 16.4864 85.2069 16.436 84.9549 16.3828C84.7029 16.3296 84.4537 16.2848 84.1989 16.2456C81.2042 15.7731 78.1382 16.0817 75.2977 17.1416C75.0653 17.2228 74.8385 17.3152 74.6117 17.4216C74.3849 17.528 74.1609 17.612 73.9425 17.724C73.4967 17.921 73.0702 18.1591 72.6685 18.4352C72.2719 18.7035 71.9299 19.0446 71.6605 19.4404C71.3944 19.8313 71.2882 20.3093 71.3637 20.776C71.4573 21.2356 71.7077 21.6484 72.0721 21.9436C72.4353 22.2423 72.8436 22.4814 73.2817 22.652C73.7191 22.8246 74.1694 22.9622 74.6285 23.0636C74.8553 23.1224 75.0821 23.1784 75.3117 23.2232C75.5413 23.268 75.7681 23.3268 75.9977 23.366C79.5564 24.036 83.2169 23.9405 86.7357 23.086C87.577 22.9122 88.392 22.6298 89.1605 22.246C89.9025 21.854 90.5941 21.3052 90.9301 20.5464C91.0948 20.1736 91.1622 19.7652 91.1261 19.3592C91.084 18.95 90.9541 18.5546 90.7453 18.2C90.3267 17.512 89.7206 16.9574 88.9981 16.6012C88.2899 16.2543 87.5514 15.9731 86.7917 15.7612C86.0441 15.5288 85.2965 15.33 84.5517 15.1704C83.1031 14.8374 81.6141 14.7148 80.1305 14.8064C78.7282 14.9071 77.3624 15.3001 76.1209 15.96C74.9481 16.5699 73.9564 17.4777 73.2453 18.592L73.2285 18.5276C74.7994 19.4545 76.5557 20.023 78.3718 20.1924C80.1878 20.3618 82.0189 20.128 83.7341 19.5076C84.4689 19.2814 85.137 18.8786 85.6801 18.3345C85.9287 18.0762 86.1036 17.7562 86.1869 17.4076C86.2509 17.0708 86.1923 16.7222 86.0217 16.4248C85.8517 16.144 85.6114 15.9124 85.3245 15.7528C85.0524 15.5961 84.7604 15.4766 84.4565 15.3972C84.1675 15.3182 83.8726 15.2629 83.5745 15.2321C83.2945 15.1929 83.0145 15.1732 82.7345 15.1592C81.0417 15.0842 79.3534 15.3874 77.7925 16.0468C77.3919 16.2108 77.0011 16.3978 76.6221 16.6068C76.3561 16.7692 76.2245 16.842 76.2245 16.842Z" fill="#263238"/>
</svg>
