<svg width="265" height="222" viewBox="0 0 265 222" fill="none" xmlns="http://www.w3.org/2000/svg">
<path d="M41.2208 202.009C92.24 228.664 174.962 228.664 225.987 202.009C277.013 175.355 277.007 132.142 225.987 105.488C174.968 78.8335 92.24 78.8274 41.2147 105.488C-9.81065 132.149 -9.80456 175.355 41.2208 202.009Z" fill="#FAFAFA"/>
<path d="M176.296 206.905C186.611 206.905 194.973 202.919 194.973 198.002C194.973 193.085 186.611 189.099 176.296 189.099C165.981 189.099 157.619 193.085 157.619 198.002C157.619 202.919 165.981 206.905 176.296 206.905Z" fill="#F0F0F0"/>
<path d="M30.2476 44.0431V74.6741C30.2476 75.6789 30.954 76.093 31.8309 75.5876L102.946 34.525C103.406 34.2242 103.789 33.8195 104.064 33.3435C104.339 32.8675 104.499 32.3335 104.529 31.7846V1.12921C104.529 0.12441 103.817 -0.289687 102.946 0.215755L31.8309 41.2784C31.3664 41.5804 30.9806 41.9887 30.7053 42.4695C30.4299 42.9503 30.273 43.4897 30.2476 44.0431Z" fill="#F0F0F0"/>
<path d="M35.1981 43.5622L56.512 31.261C57.4924 30.6947 58.278 31.1514 58.278 32.278V53.6954C58.2445 54.3062 58.0671 54.9005 57.7602 55.4296C57.4533 55.9588 57.0256 56.4079 56.512 56.7402L35.1981 69.0474C34.2238 69.6077 33.4321 69.151 33.4321 68.0244V46.6192C33.4651 46.0066 33.6423 45.4105 33.9491 44.8792C34.256 44.348 34.6839 43.8968 35.1981 43.5622Z" fill="#FAFAFA"/>
<path d="M52.4563 41.9482L46.1169 55.0897L42.8894 53.2262C42.5795 53.0567 42.2159 53.0141 41.8752 53.1072C41.5344 53.2003 41.2431 53.422 41.0625 53.7256L33.4321 66.8854V68.0363C33.4321 69.1629 34.2238 69.6196 35.1981 69.0594L56.512 56.7522C57.0246 56.4188 57.4515 55.9694 57.7583 55.4405C58.0651 54.9115 58.2431 54.3178 58.278 53.7073V46.1744L54.0152 41.7046C53.92 41.5715 53.7897 41.4674 53.6388 41.4041C53.4879 41.3407 53.3223 41.3205 53.1606 41.3458C52.9989 41.3711 52.8474 41.4408 52.7231 41.5471C52.5987 41.6535 52.5063 41.7924 52.4563 41.9482Z" fill="#BA68C8"/>
<path d="M36.6353 51.3994C37.9523 50.5405 39.0482 49.3832 39.8343 48.0215C40.6205 46.6598 41.0746 45.132 41.1599 43.562C41.1599 42.2406 40.7336 41.2845 40.0333 40.7729L35.1981 43.562C34.6855 43.8954 34.2586 44.3448 33.9518 44.8737C33.645 45.4027 33.467 45.9964 33.4321 46.6069V51.7039C34.2664 52.1911 35.3869 52.118 36.6353 51.3994Z" fill="#BA68C8"/>
<path d="M66.2311 27.6495L98.2567 9.15518C98.9875 8.73499 99.5782 9.03338 99.5782 9.82504C99.546 10.2687 99.4095 10.6985 99.1799 11.0794C98.9503 11.4604 98.634 11.7817 98.2567 12.0173L66.2311 30.5056C65.5004 30.9257 64.9097 30.6274 64.9097 29.8357C64.9428 29.3931 65.0796 28.9646 65.3092 28.5847C65.5388 28.2049 65.8546 27.8845 66.2311 27.6495Z" fill="#FAFAFA"/>
<path d="M66.2311 33.9769L98.2567 15.4826C98.9875 15.0624 99.5782 15.3608 99.5782 16.1524C99.546 16.5961 99.4095 17.0259 99.1799 17.4068C98.9503 17.7877 98.634 18.1091 98.2567 18.3447L66.2311 36.833C65.5004 37.2531 64.9097 36.9548 64.9097 36.1692C64.9418 35.7255 65.0783 35.2958 65.3079 34.9148C65.5375 34.5339 65.8539 34.2125 66.2311 33.9769Z" fill="#FAFAFA"/>
<path d="M66.2311 40.304L98.2567 21.8158C98.9875 21.3956 99.5782 21.694 99.5782 22.4795C99.546 22.9232 99.4095 23.3529 99.1799 23.7339C98.9503 24.1148 98.634 24.4362 98.2567 24.6718L66.2311 43.1601C65.5004 43.5863 64.9097 43.2879 64.9097 42.4963C64.9418 42.0526 65.0783 41.6229 65.3079 41.2419C65.5375 40.861 65.8539 40.5396 66.2311 40.304Z" fill="#FAFAFA"/>
<path d="M66.2311 46.6315L98.2567 28.1432C98.9875 27.723 99.5782 28.0214 99.5782 28.8131C99.5451 29.2557 99.4082 29.6842 99.1786 30.064C98.949 30.4439 98.6332 30.7643 98.2567 30.9993L66.2311 49.524C65.5004 49.9442 64.9097 49.6458 64.9097 48.8542C64.9371 48.4053 65.0714 47.9694 65.3012 47.5828C65.5311 47.1962 65.8499 46.87 66.2311 46.6315Z" fill="#FAFAFA"/>
<path d="M15.3887 140.418V95.4706C15.4179 94.9213 15.5766 94.3868 15.8518 93.9106C16.1269 93.4343 16.5108 93.0299 16.972 92.7302L70.7559 61.6729C71.6268 61.1675 72.3393 61.5755 72.3393 62.5864V107.534C72.3086 108.083 72.1493 108.617 71.8742 109.093C71.5992 109.569 71.2161 109.974 70.7559 110.275L16.972 141.332C16.0951 141.837 15.3887 141.429 15.3887 140.418Z" fill="#F0F0F0"/>
<path d="M15.3887 138.171V140.418C15.3887 141.429 16.0951 141.837 16.972 141.332L70.7559 110.274C71.2161 109.974 71.5992 109.569 71.8742 109.093C72.1493 108.617 72.3086 108.083 72.3393 107.534V105.281L15.3887 138.171Z" fill="#BA68C8"/>
<path d="M41.4101 97.4068L46.8908 97.1206C47.5607 97.0841 47.7433 97.4616 47.2988 97.9732L41.0021 105.135C40.5575 105.64 40.1982 105.5 40.1982 104.83V98.6917C40.2006 98.3641 40.3269 98.0495 40.5517 97.8111C40.7765 97.5728 41.0832 97.4283 41.4101 97.4068Z" fill="#BA68C8"/>
<path d="M39.9973 109.062C39.3405 109.071 38.6933 108.905 38.1217 108.581C36.7698 107.796 36.0269 106.145 36.0269 103.99C36.0269 99.593 39.1265 94.2462 42.9386 92.0235C44.8203 90.9335 46.5924 90.769 47.9565 91.5485C49.3206 92.328 50.0575 93.9844 50.0575 96.134C50.0575 100.537 46.9517 105.878 43.1457 108.1C42.1983 108.691 41.1128 109.022 39.9973 109.062ZM46.087 91.4815C45.0462 91.5226 44.0342 91.8355 43.1518 92.3889C39.4553 94.5203 36.4531 99.727 36.4531 103.99C36.4531 106.011 37.123 107.516 38.3409 108.216C39.5589 108.916 41.1909 108.752 42.9386 107.741C46.6351 105.603 49.6373 100.433 49.6373 96.134C49.6373 94.1123 48.9674 92.6142 47.7495 91.9078C47.2399 91.6227 46.6647 91.4758 46.0809 91.4815H46.087Z" fill="#BA68C8"/>
<path d="M18.3543 53.7014L15.0232 51.7893C13.4338 50.7236 11.2233 50.7662 8.7813 52.179C3.90957 54.9803 0 62.0869 0 68.0548V69.4128C0 75.3806 8.02618 81.8601 8.02618 81.8601L11.3024 83.7174C11.3024 83.7174 9.33546 81.4703 9.56078 81.0075C11.7348 76.5986 17.5504 64.1391 17.5504 59.2674V57.9094C17.5628 56.9265 17.4377 55.9468 17.179 54.9985L17.5504 55.2117L18.3543 53.7014ZM8.77521 67.3849C6.33935 68.7855 4.38456 67.6468 4.38456 64.8516C5.68775 64.6446 8.97008 59.0421 8.77521 57.2456C11.2111 55.845 13.1598 56.9838 13.1659 59.7789C13.0833 61.3026 12.6428 62.7853 11.8799 64.1069C11.117 65.4284 10.0534 66.5514 8.77521 67.3849Z" fill="#BA68C8"/>
<g opacity="0.2">
<path opacity="0.2" d="M18.3543 53.7014L15.0232 51.7893C13.4338 50.7236 11.2233 50.7662 8.7813 52.179C3.90957 54.9803 0 62.0869 0 68.0548V69.4128C0 75.3806 8.02618 81.8601 8.02618 81.8601L11.3024 83.7174C11.3024 83.7174 9.33546 81.4703 9.56078 81.0075C11.7348 76.5986 17.5504 64.1391 17.5504 59.2674V57.9094C17.5628 56.9265 17.4377 55.9468 17.179 54.9985L17.5504 55.2117L18.3543 53.7014ZM8.77521 67.3849C6.33935 68.7855 4.38456 67.6468 4.38456 64.8516C5.68775 64.6446 8.97008 59.0421 8.77521 57.2456C11.2111 55.845 13.1598 56.9838 13.1659 59.7789C13.0833 61.3026 12.6428 62.7853 11.8799 64.1069C11.117 65.4284 10.0534 66.5514 8.77521 67.3849Z" fill="black"/>
</g>
<path d="M18.3546 53.7013C18.3182 53.6754 18.2795 53.653 18.2389 53.6343C16.6739 52.7574 14.5851 52.8792 12.2832 54.2067C8.81212 56.2163 5.80991 60.4243 4.36666 64.8515C3.80855 66.5358 3.51278 68.296 3.48975 70.0703V71.4466C3.48975 76.0443 8.69641 81.3788 11.0897 83.5894C11.1414 83.6358 11.1964 83.6785 11.2541 83.7173C11.3948 83.8035 11.552 83.8592 11.7156 83.881C11.8792 83.9027 12.0455 83.8899 12.2039 83.8434C12.3622 83.797 12.5091 83.7178 12.635 83.6111C12.7609 83.5045 12.863 83.3726 12.9348 83.224C15.0053 78.9612 21.028 66.246 21.028 61.3012V59.9432C21.0645 56.874 20.0232 54.7061 18.3546 53.7013ZM7.97174 67.7562C7.92118 67.4667 7.89672 67.1732 7.89867 66.8793C7.97909 65.355 8.41808 63.8712 9.17995 62.5486C9.94181 61.2259 11.0051 60.1016 12.2832 59.2672C12.5386 59.1201 12.8053 58.9939 13.081 58.8897C15.1271 58.1467 16.6739 59.3221 16.6739 61.8005C16.5919 63.3235 16.1515 64.8056 15.3885 66.1262C14.6256 67.4468 13.5616 68.5687 12.2832 69.4005C10.1336 70.6549 8.34321 69.8998 7.97174 67.7562Z" fill="#BA68C8"/>
<path d="M16.6738 61.8069C16.5918 63.3299 16.1514 64.8119 15.3884 66.1326C14.6255 67.4532 13.5615 68.575 12.2832 69.4068C10.1335 70.6247 8.34315 69.9001 7.97168 67.7565C8.25073 67.6583 8.51987 67.5339 8.77552 67.385C10.0529 66.5512 11.1156 65.428 11.8775 64.1064C12.6393 62.7849 13.0787 61.3023 13.1601 59.779C13.1629 59.4828 13.1363 59.187 13.0809 58.896C15.127 58.1531 16.6738 59.3284 16.6738 61.8069Z" fill="#BA68C8"/>
<g opacity="0.2">
<path opacity="0.2" d="M16.6733 61.8066C16.5913 63.3296 16.1509 64.8117 15.388 66.1323C14.625 67.4529 13.5611 68.5748 12.2827 69.4066C10.133 70.6245 8.34266 69.8998 7.97119 67.7563C8.25024 67.658 8.51938 67.5337 8.77503 67.3848C10.0524 66.551 11.1151 65.4277 11.877 64.1062C12.6388 62.7846 13.0782 61.302 13.1596 59.7788C13.1624 59.4826 13.1358 59.1868 13.0804 58.8958C15.1266 58.1528 16.6733 59.3282 16.6733 61.8066Z" fill="black"/>
</g>
<path d="M80.6582 137.416C80.6582 137.416 82.8565 123.41 77.9726 111.364C73.0887 99.3191 66.5058 98.5761 63.0955 100.287C59.6853 101.999 61.8776 108.679 64.9224 113.167C68.9782 119.056 75.6768 131.734 75.4576 143.122L80.6582 137.416Z" fill="#BA68C8"/>
<path opacity="0.2" d="M80.6582 137.416C80.6582 137.416 82.8565 123.41 77.9726 111.364C73.0887 99.3191 66.5058 98.5761 63.0955 100.287C59.6853 101.999 61.8776 108.679 64.9224 113.167C68.9782 119.056 75.6768 131.734 75.4576 143.122L80.6582 137.416Z" fill="black"/>
<path d="M78.4657 138.305C78.4111 138.304 78.3573 138.291 78.3075 138.268C78.2578 138.246 78.2132 138.213 78.1762 138.173C78.1393 138.132 78.1109 138.085 78.0926 138.034C78.0743 137.982 78.0666 137.927 78.0699 137.873C78.8737 118.696 69.2947 104.38 65.1598 101.59C65.1146 101.56 65.0759 101.521 65.0457 101.476C65.0156 101.43 64.9948 101.38 64.9843 101.326C64.9738 101.273 64.974 101.218 64.9848 101.164C64.9956 101.111 65.0168 101.06 65.0471 101.015C65.0775 100.97 65.1165 100.931 65.1619 100.901C65.2073 100.871 65.2581 100.85 65.3115 100.84C65.365 100.829 65.42 100.829 65.4733 100.84C65.5267 100.851 65.5774 100.872 65.6226 100.902C70.4944 104.154 79.7019 118.794 78.892 137.909C78.8904 137.963 78.8781 138.017 78.8558 138.066C78.8334 138.115 78.8015 138.16 78.7618 138.197C78.7221 138.233 78.6755 138.262 78.6247 138.281C78.5738 138.299 78.5198 138.308 78.4657 138.305Z" fill="white"/>
<path d="M79.7933 154.047C78.959 151.952 76.8033 149.614 71.2678 147.117C65.7323 144.62 61.567 141.289 60.7997 138.877C60.5688 138.211 60.5386 137.492 60.7129 136.809C60.8872 136.126 61.2583 135.509 61.7801 135.035C61.7801 135.035 56.5612 134.426 55.9036 131.229C55.0814 127.198 59.6426 126.936 59.6426 126.936C59.6426 126.936 53.6565 118.508 52.0671 114.756C50.4777 111.005 52.3107 110.78 56.1715 112.211C60.0324 113.642 67.3887 120.846 68.5274 123.044C68.5274 123.044 70.5188 120.608 72.6623 122.21C74.8059 123.812 74.9094 128.604 73.6428 130.334C74.497 130.175 75.3789 130.266 76.182 130.598C76.985 130.93 77.6746 131.488 78.1674 132.203C80.3475 135.059 81.0661 142.202 81.0661 142.202L79.7933 154.047Z" fill="#BA68C8"/>
<path d="M80.1827 152.098C80.0902 152.097 80.0007 152.065 79.928 152.008C79.8553 151.951 79.8036 151.871 79.7808 151.782C76.8212 139.45 62.7724 119.768 54.0459 113.508C54.0015 113.476 53.9638 113.436 53.9348 113.39C53.9059 113.344 53.8864 113.293 53.8773 113.239C53.8683 113.185 53.8699 113.13 53.8821 113.077C53.8943 113.024 53.9169 112.974 53.9484 112.929C53.98 112.885 54.02 112.847 54.0662 112.818C54.1124 112.789 54.1638 112.77 54.2175 112.761C54.2712 112.752 54.3262 112.753 54.3793 112.766C54.4324 112.778 54.4826 112.8 54.527 112.832C63.3631 119.171 77.5885 139.103 80.5907 151.587C80.6146 151.694 80.5954 151.806 80.5374 151.9C80.4793 151.993 80.387 152.06 80.2802 152.086L80.1827 152.098Z" fill="white"/>
<path d="M190.412 27.9234C190.34 27.9226 190.269 27.9037 190.205 27.8686L188.494 26.876C188.447 26.8488 188.406 26.8126 188.373 26.7694C188.339 26.7263 188.315 26.677 188.301 26.6244C188.287 26.5718 188.283 26.5169 188.29 26.4629C188.297 26.4089 188.315 26.3569 188.342 26.3097C188.369 26.2625 188.405 26.2211 188.449 26.1879C188.492 26.1548 188.541 26.1304 188.594 26.1163C188.646 26.1021 188.701 26.0985 188.755 26.1056C188.809 26.1126 188.861 26.1302 188.908 26.1574L190.62 27.1501C190.667 27.1772 190.708 27.2134 190.741 27.2565C190.775 27.2997 190.799 27.349 190.813 27.4016C190.827 27.4542 190.831 27.5091 190.824 27.5631C190.817 27.6171 190.799 27.6692 190.772 27.7164C190.735 27.7794 190.683 27.8318 190.62 27.8681C190.557 27.9045 190.485 27.9236 190.412 27.9234Z" fill="white"/>
<path d="M79.7935 64.0292V154.631C79.7935 155.642 80.4999 156.05 81.3707 155.545L187.051 94.5323C187.511 94.2316 187.894 93.8269 188.169 93.3509C188.444 92.8749 188.603 92.3409 188.634 91.792V1.18987C188.634 0.178985 187.922 -0.229023 187.051 0.276419L81.3707 61.2888C80.9109 61.5895 80.5285 61.9944 80.2545 62.4705C79.9805 62.9466 79.8225 63.4806 79.7935 64.0292Z" fill="#455A64"/>
<path d="M92.1616 80.7637C92.1616 83.9242 94.5183 85.1178 97.4353 83.437L181.211 35.0668V23.6426L97.4353 72.0067C94.5183 73.6936 92.1616 77.6092 92.1616 80.7637Z" fill="#F5F5F5"/>
<path d="M188.336 19.5442C191.247 17.8634 193.609 19.057 193.609 22.2114C193.609 25.3659 191.247 29.2876 188.336 30.9684L181.241 35.0667V23.6425L188.336 19.5442Z" fill="#BA68C8"/>
<path d="M185.778 29.172C185.474 29.1763 185.176 29.0985 184.913 28.9467C184.589 28.7302 184.33 28.4303 184.163 28.0787C183.996 27.7271 183.927 27.3369 183.963 26.9493C184.007 25.9961 184.278 25.0674 184.755 24.2409C185.232 23.4145 185.9 22.7144 186.703 22.1993C187.01 21.9492 187.386 21.7984 187.78 21.7669C188.174 21.7354 188.569 21.8248 188.912 22.0231C189.254 22.2215 189.528 22.5193 189.697 22.8772C189.866 23.235 189.922 23.6358 189.858 24.0262C189.812 24.979 189.54 25.9072 189.063 26.7335C188.587 27.5597 187.92 28.2601 187.117 28.7762C186.713 29.0232 186.251 29.1597 185.778 29.172ZM188.037 22.6256C187.71 22.6418 187.393 22.7425 187.117 22.9179C186.445 23.3648 185.885 23.9612 185.481 24.6606C185.078 25.36 184.841 26.1434 184.791 26.9493C184.728 27.1918 184.747 27.4482 184.844 27.6792C184.941 27.9103 185.111 28.1031 185.328 28.2282C185.545 28.3533 185.797 28.4038 186.045 28.3719C186.294 28.34 186.525 28.2274 186.703 28.0515C187.377 27.6054 187.937 27.0091 188.341 26.3095C188.744 25.61 188.98 24.8263 189.03 24.0202C189.061 23.7787 189.028 23.5333 188.934 23.3087C188.839 23.0841 188.688 22.8884 188.494 22.7413C188.355 22.6618 188.197 22.6218 188.037 22.6256Z" fill="white"/>
<path d="M189.553 44.5481L108.561 91.2803C108.099 91.5792 107.715 91.9835 107.439 92.4599C107.164 92.9363 107.006 93.4712 106.978 94.0206V118.946C106.978 119.957 107.684 120.365 108.561 119.859L189.553 73.1087C190.015 72.809 190.398 72.4046 190.674 71.9283C190.949 71.4521 191.108 70.9176 191.137 70.3683V45.4616C191.106 44.4507 190.4 44.0427 189.553 44.5481Z" fill="#BA68C8"/>
<path opacity="0.2" d="M189.553 44.5481L108.561 91.2803C108.099 91.5792 107.715 91.9835 107.439 92.4599C107.164 92.9363 107.006 93.4712 106.978 94.0206V118.946C106.978 119.957 107.684 120.365 108.561 119.859L189.553 73.1087C190.015 72.809 190.398 72.4046 190.674 71.9283C190.949 71.4521 191.108 70.9176 191.137 70.3683V45.4616C191.106 44.4507 190.4 44.0427 189.553 44.5481Z" fill="white"/>
<path d="M138.005 78.4374L152.681 69.9606C153.411 69.5404 154.002 69.8388 154.002 70.6305C153.969 71.073 153.832 71.5016 153.603 71.8814C153.373 72.2612 153.057 72.5816 152.681 72.8167L138.005 81.2935C137.274 81.7137 136.683 81.4153 136.683 80.6236C136.716 80.181 136.853 79.7525 137.083 79.3727C137.312 78.9928 137.628 78.6724 138.005 78.4374Z" fill="white"/>
<path d="M136.683 86.3356C136.683 87.1272 137.292 87.4256 138.005 87.0054L182.368 61.3923C182.744 61.1556 183.058 60.8339 183.287 60.453C183.515 60.0722 183.651 59.643 183.683 59.2C183.683 58.4144 183.074 58.116 182.368 58.5362L138.005 84.1494C137.628 84.3844 137.312 84.7048 137.083 85.0846C136.853 85.4644 136.716 85.893 136.683 86.3356Z" fill="white"/>
<path d="M136.683 92.0477C136.683 92.8394 137.292 93.1378 138.005 92.7176L182.368 67.1044C182.744 66.8678 183.058 66.546 183.287 66.1652C183.515 65.7844 183.651 65.3551 183.683 64.9122C183.683 64.1266 183.074 63.8282 182.368 64.2484L138.005 89.8615C137.628 90.0965 137.312 90.4169 137.083 90.7968C136.853 91.1766 136.716 91.6051 136.683 92.0477Z" fill="white"/>
<path d="M136.683 97.7596C136.683 98.5513 137.292 98.8497 138.005 98.4295L182.368 72.8163C182.744 72.5797 183.058 72.2579 183.287 71.8771C183.515 71.4963 183.651 71.067 183.683 70.6241C183.683 69.8385 183.074 69.5401 182.368 69.9603L138.005 95.5734C137.628 95.8085 137.312 96.1289 137.083 96.5087C136.853 96.8885 136.716 97.3171 136.683 97.7596Z" fill="white"/>
<path d="M111.058 92.7056L130.155 81.6772C131.032 81.1778 131.738 81.5859 131.738 82.5906V101.791C131.709 102.34 131.55 102.875 131.275 103.351C131 103.827 130.616 104.232 130.155 104.532L111.058 115.554C110.187 116.059 109.475 115.651 109.475 114.647V95.4459C109.504 94.8967 109.663 94.3622 109.938 93.8859C110.213 93.4097 110.597 93.0053 111.058 92.7056Z" fill="white"/>
<path d="M126.526 91.2621L120.844 103.04L117.951 101.371C117.672 101.21 117.34 101.166 117.028 101.249C116.717 101.333 116.451 101.536 116.289 101.815L109.475 113.611V114.64C109.475 115.651 110.187 116.059 111.058 115.554L130.155 104.531C130.616 104.232 131 103.827 131.275 103.351C131.55 102.875 131.709 102.34 131.738 101.791V95.0499L127.896 91.0429C127.809 90.9309 127.693 90.8445 127.561 90.7925C127.429 90.7405 127.286 90.7248 127.146 90.7472C127.006 90.7697 126.874 90.8293 126.765 90.9198C126.656 91.0104 126.573 91.1286 126.526 91.2621Z" fill="#BA68C8"/>
<path d="M112.343 99.733C113.524 98.9627 114.506 97.925 115.211 96.704C115.915 95.483 116.322 94.1132 116.399 92.7055C116.439 92.2382 116.369 91.7679 116.193 91.3329C116.017 90.898 115.741 90.5107 115.388 90.2026L111.058 92.7055C110.597 93.0052 110.213 93.4096 109.938 93.8858C109.663 94.3621 109.504 94.8966 109.475 95.4458V100.013C110.211 100.439 111.222 100.378 112.343 99.733Z" fill="#BA68C8"/>
<path d="M189.553 81.6772L108.561 128.409C108.1 128.709 107.716 129.113 107.441 129.59C107.165 130.066 107.007 130.6 106.978 131.15V156.093C106.978 157.098 107.684 157.506 108.561 157.006L189.553 110.244C190.015 109.944 190.398 109.54 190.674 109.064C190.949 108.587 191.108 108.053 191.137 107.504V82.5907C191.106 81.5859 190.4 81.1901 189.553 81.6772Z" fill="#BA68C8"/>
<path opacity="0.2" d="M189.553 81.6772L108.561 128.409C108.1 128.709 107.716 129.113 107.441 129.59C107.165 130.066 107.007 130.6 106.978 131.15V156.093C106.978 157.098 107.684 157.506 108.561 157.006L189.553 110.244C190.015 109.944 190.398 109.54 190.674 109.064C190.949 108.587 191.108 108.053 191.137 107.504V82.5907C191.106 81.5859 190.4 81.1901 189.553 81.6772Z" fill="white"/>
<path d="M138.005 115.566L152.681 107.095C153.411 106.675 154.002 106.974 154.002 107.759C153.97 108.203 153.834 108.632 153.604 109.013C153.374 109.394 153.058 109.716 152.681 109.951L138.005 118.422C137.274 118.842 136.683 118.544 136.683 117.758C136.715 117.315 136.852 116.885 137.081 116.504C137.311 116.123 137.627 115.802 138.005 115.566Z" fill="white"/>
<path d="M136.683 123.47C136.683 124.256 137.292 124.554 138.005 124.134L182.368 98.521C182.743 98.2849 183.057 97.9641 183.286 97.5844C183.514 97.2047 183.65 96.7767 183.683 96.3348C183.683 95.5431 183.074 95.2448 182.368 95.6649L138.005 121.278C137.627 121.514 137.311 121.835 137.081 122.216C136.852 122.597 136.715 123.027 136.683 123.47Z" fill="white"/>
<path d="M136.683 129.183C136.683 129.968 137.292 130.266 138.005 129.846L182.368 104.233C182.743 103.997 183.057 103.676 183.286 103.297C183.514 102.917 183.65 102.489 183.683 102.047C183.683 101.255 183.074 100.957 182.368 101.377L138.005 126.99C137.627 127.226 137.311 127.547 137.081 127.928C136.852 128.309 136.715 128.739 136.683 129.183Z" fill="white"/>
<path d="M136.683 134.895C136.683 135.68 137.292 135.979 138.005 135.558L182.368 109.945C182.743 109.709 183.057 109.388 183.286 109.009C183.514 108.629 183.65 108.201 183.683 107.759C183.683 106.967 183.074 106.669 182.368 107.089L138.005 132.702C137.627 132.938 137.311 133.259 137.081 133.64C136.852 134.021 136.715 134.451 136.683 134.895Z" fill="white"/>
<path d="M111.058 129.84L130.155 118.812C131.032 118.306 131.738 118.714 131.738 119.725V138.92C131.71 139.469 131.552 140.004 131.277 140.481C131.001 140.957 130.617 141.361 130.155 141.66L111.058 152.689C110.187 153.194 109.475 152.786 109.475 151.775V132.581C109.504 132.031 109.663 131.497 109.938 131.021C110.213 130.544 110.597 130.14 111.058 129.84Z" fill="white"/>
<path d="M126.526 128.397L120.844 140.174L117.951 138.5C117.813 138.42 117.66 138.369 117.501 138.348C117.342 138.328 117.181 138.339 117.027 138.381C116.872 138.422 116.728 138.494 116.601 138.592C116.475 138.69 116.369 138.811 116.289 138.95L109.475 150.746V151.775C109.475 152.786 110.187 153.194 111.058 152.689L130.155 141.66C130.616 141.362 131 140.958 131.275 140.483C131.55 140.008 131.709 139.474 131.738 138.926V132.179L127.896 128.178C127.81 128.064 127.695 127.976 127.562 127.922C127.43 127.869 127.286 127.853 127.145 127.875C127.004 127.898 126.872 127.958 126.763 128.05C126.654 128.142 126.572 128.262 126.526 128.397Z" fill="#BA68C8"/>
<path d="M112.343 136.862C113.523 136.093 114.506 135.056 115.211 133.836C115.915 132.616 116.322 131.247 116.399 129.84C116.439 129.373 116.369 128.903 116.193 128.468C116.017 128.033 115.741 127.645 115.388 127.337L111.058 129.84C110.597 130.14 110.213 130.544 109.938 131.021C109.663 131.497 109.504 132.031 109.475 132.581V137.148C110.211 137.568 111.222 137.507 112.343 136.862Z" fill="#BA68C8"/>
<path d="M188.634 5.06899V1.18987C188.634 0.178985 187.922 -0.229023 187.051 0.276419L81.3768 61.2888C80.9156 61.5885 80.5317 61.9929 80.2566 62.4692C79.9814 62.9454 79.8227 63.4799 79.7935 64.0292V67.9144L188.634 5.06899Z" fill="#BA68C8"/>
<path d="M175.669 8.33309C175.328 8.55678 175.045 8.8574 174.842 9.21071C174.639 9.56401 174.521 9.9601 174.5 10.367C174.5 11.1161 175.023 11.4205 175.669 11.043C176.011 10.8224 176.297 10.5234 176.501 10.1709C176.705 9.81826 176.823 9.42212 176.844 9.01513C176.844 8.2661 176.32 7.96162 175.669 8.33309Z" fill="#F5F5F5"/>
<path d="M180.328 5.67808C179.986 5.90109 179.701 6.20142 179.497 6.55477C179.293 6.90811 179.175 7.30455 179.152 7.71202C179.152 8.46105 179.682 8.75945 180.328 8.38798C180.67 8.16604 180.956 7.86597 181.16 7.5124C181.364 7.15883 181.482 6.76184 181.503 6.35403C181.503 5.57455 180.979 5.27616 180.328 5.67808Z" fill="#F5F5F5"/>
<path d="M184.987 2.962C184.644 3.1826 184.359 3.48154 184.155 3.83413C183.95 4.18673 183.833 4.58287 183.812 4.98986C183.812 5.73889 184.335 6.04337 184.987 5.6719C185.327 5.44821 185.611 5.14759 185.814 4.79428C186.017 4.44098 186.134 4.04488 186.156 3.63795C186.156 2.88892 185.632 2.58444 184.987 2.962Z" fill="#F5F5F5"/>
<path d="M190.32 193.983C190.505 194.451 190.631 194.94 190.698 195.438C190.869 195.954 190.909 196.505 190.814 197.04C190.403 197.723 189.751 198.228 188.987 198.453C188.443 198.578 187.878 198.589 187.33 198.484C186.782 198.379 186.261 198.161 185.802 197.844C184.687 197.18 183.853 196.37 182.27 195.926C181.141 195.682 180.077 195.198 179.152 194.507C178.275 193.806 177.106 191.858 178.78 191.407C180.455 190.956 184.103 192.546 187.422 192.692L190.32 193.983Z" fill="#263238"/>
<path d="M190.162 191.791C190.162 191.791 190.357 194.117 190.357 194.403C190.357 195.189 187.458 196.23 186.922 194.403L186.459 191.931L190.162 191.791Z" fill="#F28F8F"/>
<path d="M186.606 140.753C187.602 142.218 188.515 143.739 189.34 145.308C189.34 145.308 189.626 148.694 189.626 150.947C189.626 155.088 188.987 158.285 188.408 166.445C189.35 168.05 189.889 169.86 189.979 171.719C190.223 175.415 190.229 175.373 190.253 192.424C189.698 192.723 189.089 192.908 188.462 192.969C187.835 193.03 187.201 192.964 186.599 192.777L181.119 168.899L180.51 159.527L178.792 147.878L186.606 140.753Z" fill="#37474F"/>
<path d="M173.635 198.252C173.83 198.453 173.763 198.861 173.854 199.53C173.955 200.046 173.982 200.573 173.933 201.096C173.614 201.82 173.036 202.399 172.313 202.721C171.788 202.911 171.229 202.99 170.671 202.953C170.114 202.917 169.57 202.765 169.074 202.508C167.892 201.985 166.961 201.29 165.335 201.041C164.184 200.942 163.068 200.595 162.065 200.024C161.108 199.415 159.702 197.649 161.309 196.979C162.917 196.309 166.948 197.509 170.255 197.241L173.635 198.252Z" fill="#263238"/>
<path d="M174.396 195.329C174.396 195.329 173.787 197.984 173.623 198.574C173.257 199.993 170.109 200.066 170.109 198.428L170.322 194.653L174.396 195.329Z" fill="#F28F8F"/>
<path d="M179.499 141.478C181.076 144.577 182.599 147.312 182.647 150.612C182.763 157.597 179.864 165.288 178.799 170.337C179.116 172.164 179.206 174.023 179.067 175.872C178.853 177.985 174.036 197.186 174.036 197.186C174.036 197.186 171.357 197.746 170.218 196.534L171.57 159.564L171.936 148.828L179.499 141.478Z" fill="#37474F"/>
<path d="M177.331 122.545L178.324 128.044L183.293 127.678L182.252 121.449L177.331 122.545Z" fill="#FFA8A7"/>
<path d="M188.536 127.276C188.043 125.785 186.149 124.159 184.273 124.512C181.456 124.991 178.679 125.683 175.967 126.582C174.231 127.191 172.648 128.708 172.502 134.42L171.96 148.791C172.71 149.458 173.611 149.935 174.585 150.18C177.221 150.904 178.963 151.337 182.97 150.46C188.189 149.321 189.431 146.161 189.431 146.161C189.431 146.161 189.23 138.555 189.072 134.42C188.944 130.906 188.871 128.306 188.536 127.276Z" fill="#455A64"/>
<path d="M175.212 115.523L149.909 108.66C147.62 108.264 146.663 113.855 148.953 114.244L174.938 116.869L175.212 115.523Z" fill="#263238"/>
<path d="M167.935 127.118L162.765 127.277C162.765 127.277 163.544 119.585 164.025 118.575C164.506 117.564 165.657 117.357 166.802 117.034C167.947 116.711 167.941 116.163 167.941 116.163L166.912 116.06C166.01 115.968 165.651 114.842 166.041 114.08C166.23 113.727 166.534 113.167 167.082 113.319L168.446 113.691C168.467 113.089 168.317 112.493 168.014 111.973C167.557 111.468 167.253 111.626 166.339 111.31C165.663 111.072 164.281 110.652 163.166 111.109C162.052 111.565 161.206 113.66 160.919 115.14C160.63 116.851 160.16 118.527 159.519 120.14C158.526 122.88 157.083 128.507 156.931 130.76C156.864 131.801 156.961 132.422 158.118 132.696C159.275 132.971 167.788 132.989 167.788 132.989L167.935 127.118Z" fill="#FFA8A7"/>
<path d="M173.653 116.035C173.653 116.035 172.435 117.813 172.606 118.008C172.881 118.192 173.186 118.326 173.507 118.404L173.653 116.035Z" fill="#FFA8A7"/>
<path d="M177.325 110.42C176.168 111.029 174.171 112.083 173.617 116.321C173.05 120.669 173.799 122.07 174.384 122.648C174.786 123.038 176.942 123.062 178.038 122.734C179.39 122.332 182.441 121.169 183.835 118.934C185.473 116.303 185.839 112.783 183.994 111.383C183.055 110.67 181.95 110.208 180.784 110.04C179.617 109.872 178.427 110.003 177.325 110.42Z" fill="#FFA8A7"/>
<path d="M180.729 162.895L183.366 155.441C185.41 154.717 187.241 153.495 188.694 151.885C188.694 151.885 188.085 154.01 183.92 156.19L181.027 163.242V167.164L180.729 162.895Z" fill="#263238"/>
<path d="M173.379 111.852C173.756 112.893 174.396 115.451 177.063 116.516C177.063 116.516 177.447 114.89 178.811 115.061C180.175 115.231 180.412 116.979 179.572 118.063C178.732 119.147 177.916 118.757 177.916 118.757C177.916 118.757 177.733 121.09 179.292 122.149C179.872 122.491 180.524 122.694 181.196 122.742C181.868 122.789 182.542 122.68 183.165 122.423C184.06 122.015 185.333 119.866 186.076 118.1C187.647 114.373 187.872 111.401 185.467 110.439C185.169 108.746 184.407 108.106 182.873 107.79C179.572 107.114 177.075 109.282 174.305 108.898C172.886 108.697 172.94 110.658 173.379 111.852Z" fill="#263238"/>
<path d="M185.546 111.029L187.105 110.061C186.969 109.871 186.766 109.74 186.537 109.694C186.308 109.649 186.07 109.692 185.872 109.815C185.674 109.938 185.529 110.132 185.469 110.358C185.408 110.583 185.436 110.823 185.546 111.029Z" fill="#263238"/>
<path d="M166.777 127.015C166.777 127.015 174.054 126.594 175.912 126.582C177.769 126.57 179.742 129.743 178.585 131.905C177.818 133.324 175.425 133.811 172.41 133.957C169.396 134.103 166.357 134.103 166.357 134.103C166.357 134.103 163.647 131.016 166.777 127.015Z" fill="#455A64"/>
<path d="M172.502 133.957C172.502 133.957 177.112 133.896 178.622 131.905C178.622 131.905 178.269 133.123 176.479 133.872C175.196 134.365 173.844 134.657 172.472 134.736L172.502 133.957Z" fill="#37474F"/>
<path d="M149.909 108.66C147.62 108.264 146.663 113.855 148.953 114.244L152.607 114.61C151.121 114.458 152.15 109.263 153.283 109.568L149.909 108.66Z" fill="#455A64"/>
<path d="M242.058 107.169C242.059 108.302 241.718 109.41 241.079 110.346C240.441 111.283 239.535 112.006 238.48 112.42C237.425 112.834 236.269 112.921 235.164 112.668C234.059 112.416 233.055 111.836 232.285 111.005L231.913 110.554C231.046 109.399 230.656 107.954 230.824 106.519C230.991 105.084 231.702 103.768 232.812 102.842C233.921 101.916 235.343 101.452 236.785 101.544C238.227 101.636 239.578 102.279 240.56 103.338L240.944 103.801C241.667 104.775 242.058 105.956 242.058 107.169Z" fill="#455A64"/>
<path d="M242.058 107.169C242.059 108.302 241.718 109.41 241.079 110.347C240.441 111.283 239.535 112.006 238.48 112.42C237.424 112.834 236.269 112.921 235.164 112.668C234.059 112.416 233.055 111.836 232.284 111.005L231.913 110.555L208.431 82.195L218.327 76.4829L240.56 103.326L240.944 103.789C241.67 104.766 242.061 105.952 242.058 107.169Z" fill="#455A64"/>
<path d="M222.632 99.3436C223.618 100.378 224.961 100.999 226.387 101.082C227.814 101.165 229.219 100.703 230.318 99.7891C231.417 98.8757 232.128 97.579 232.308 96.1613C232.488 94.7435 232.122 93.3104 231.286 92.1517L228.381 88.6501C229.249 89.8066 229.64 91.2524 229.472 92.6888C229.305 94.1252 228.592 95.4423 227.481 96.368C226.37 97.2937 224.946 97.7572 223.503 97.6627C222.06 97.5682 220.708 96.923 219.728 95.8603L222.632 99.3436Z" fill="#BA68C8"/>
<path d="M217.949 31.9004C219.722 32.0977 221.436 32.6552 222.985 33.5386L215.842 29.3854C211.05 26.0909 204.15 26.2858 196.483 30.7069C182.008 39.068 170.267 59.4014 170.267 76.1236C170.267 84.3386 173.062 90.209 177.672 92.9981L177.77 93.059L185.394 97.4496C184.042 96.5699 182.863 95.4491 181.917 94.143C183.795 94.3486 185.695 94.2395 187.537 93.8202C188.207 93.674 188.883 93.4975 189.571 93.2782C189.481 93.2511 189.394 93.2165 189.309 93.1747C188.943 93.0031 188.593 92.7993 188.262 92.5657C187.663 92.148 187.129 91.6431 186.679 91.0677C186.063 90.2798 185.563 89.4084 185.193 88.4796C184.697 88.5513 184.196 88.5879 183.695 88.5892C182.51 88.6129 181.333 88.3781 180.248 87.901C179.994 87.7849 179.748 87.6526 179.511 87.5052C179.298 87.3712 179.085 87.2129 178.902 87.0546C178.462 84.9932 178.247 82.89 178.263 80.7822C178.263 64.0661 190.004 43.7266 204.491 35.3655C206.341 34.2865 208.301 33.4086 210.337 32.7469C210.886 32.9711 211.402 33.2681 211.872 33.6299C212.369 34.0114 212.817 34.4532 213.205 34.9453C213.823 35.7351 214.325 36.6085 214.697 37.5395C215.196 37.4697 215.698 37.4351 216.201 37.4359C217.578 37.399 218.94 37.729 220.148 38.392C220.453 38.5585 220.744 38.75 221.018 38.9645C220.909 38.4773 220.793 37.9962 220.653 37.5395C220.103 35.5107 219.187 33.5996 217.949 31.9004Z" fill="#263238"/>
<path d="M222.986 33.5386L222.572 33.3133C221.132 32.5593 219.565 32.0802 217.95 31.9005C216.216 31.7072 214.463 31.7873 212.755 32.138C211.932 32.2939 211.119 32.4973 210.319 32.7469C208.283 33.4086 206.323 34.2865 204.473 35.3655C189.986 43.7266 178.245 64.0661 178.245 80.7822C178.229 82.89 178.444 84.9933 178.884 87.0546C178.964 87.4261 179.055 87.7793 179.146 88.1325C179.689 90.2879 180.631 92.3225 181.923 94.1308C182.5 94.9266 183.164 95.6557 183.902 96.3048C184.373 96.7188 184.874 97.0973 185.4 97.4375C190.181 100.525 196.971 100.257 204.461 95.9212C218.948 87.56 230.689 67.2266 230.689 50.5044C230.683 42.1433 227.742 36.2667 222.986 33.5386ZM220.124 38.4103C220.429 38.5768 220.72 38.7683 220.994 38.9827C221.454 39.3557 221.872 39.7762 222.243 40.2372C224.07 42.5269 225.038 46.0894 225.038 50.5227C225.038 65.1379 214.32 83.7235 201.635 91.0494C198.438 92.8763 195.363 93.875 192.751 93.875C191.661 93.8878 190.58 93.6807 189.572 93.2661C189.482 93.239 189.394 93.2043 189.31 93.1625C188.943 92.9909 188.593 92.7871 188.262 92.5536C187.851 92.2652 187.472 91.9345 187.13 91.567C186.978 91.4087 186.831 91.2321 186.685 91.0555C186.07 90.2676 185.569 89.3962 185.199 88.4674C184.272 86.0099 183.829 83.3959 183.896 80.77C183.896 80.5752 183.896 80.3864 183.896 80.1611C184.164 65.6068 194.766 47.4413 207.287 40.2189C207.573 40.0545 207.865 39.8901 208.157 39.7379C210.176 38.61 212.381 37.8531 214.667 37.5029C215.166 37.4332 215.668 37.3986 216.171 37.3994C217.255 37.3901 218.329 37.5971 219.332 38.0084C219.607 38.1175 219.871 38.2499 220.124 38.4042V38.4103Z" fill="#455A64"/>
<path opacity="0.6" d="M222.59 48.8298C222.59 63.445 211.872 82.0307 199.187 89.3565C195.99 91.1834 192.921 92.1821 190.302 92.1821C189.214 92.1949 188.135 91.9878 187.129 91.5732C186.977 91.4148 186.831 91.2382 186.685 91.0616C186.069 90.2738 185.569 89.4023 185.199 88.4735C184.271 86.0161 183.829 83.4021 183.896 80.7762C183.896 80.5813 183.896 80.3925 183.896 80.1672C184.164 65.6129 194.766 47.4474 207.286 40.2251C207.572 40.0607 207.865 39.8962 208.157 39.744C210.176 38.6162 212.381 37.8592 214.667 37.5091C215.165 37.4393 215.668 37.4047 216.171 37.4056C217.255 37.3962 218.329 37.6033 219.332 38.0145C219.496 38.179 219.648 38.3556 219.794 38.5322C221.621 40.8341 222.59 44.3965 222.59 48.8298Z" fill="white"/>
</svg>
