<svg width="239" height="235" viewBox="0 0 239 235" fill="none" xmlns="http://www.w3.org/2000/svg">
<path d="M119.5 234.009C185.249 234.009 238.548 230.897 238.548 227.059C238.548 223.221 185.249 220.109 119.5 220.109C53.7517 220.109 0.452148 223.221 0.452148 227.059C0.452148 230.897 53.7517 234.009 119.5 234.009Z" fill="#F5F5F5"/>
<path d="M220.14 61.022H167.141C161.966 61.022 157.771 65.2171 157.771 70.392V79.54C157.771 84.7149 161.966 88.91 167.141 88.91H220.14C225.315 88.91 229.51 84.7149 229.51 79.54V70.392C229.51 65.2171 225.315 61.022 220.14 61.022Z" fill="#B0BEC5"/>
<path d="M211.255 65.726H165.311C164.449 65.726 163.751 66.4242 163.751 67.2855C163.751 68.1468 164.449 68.845 165.311 68.845H211.255C212.117 68.845 212.815 68.1468 212.815 67.2855C212.815 66.4242 212.117 65.726 211.255 65.726Z" fill="#B0BEC5"/>
<path d="M196.354 73.241H165.311C164.449 73.241 163.751 73.9392 163.751 74.8005C163.751 75.6618 164.449 76.36 165.311 76.36H196.354C197.216 76.36 197.914 75.6618 197.914 74.8005C197.914 73.9392 197.216 73.241 196.354 73.241Z" fill="#B0BEC5"/>
<path d="M187.733 80.756H165.311C164.449 80.756 163.751 81.4542 163.751 82.3155C163.751 83.1768 164.449 83.875 165.311 83.875H187.733C188.595 83.875 189.293 83.1768 189.293 82.3155C189.293 81.4542 188.595 80.756 187.733 80.756Z" fill="#B0BEC5"/>
<path d="M216.892 80.756H194.47C193.609 80.756 192.91 81.4542 192.91 82.3155C192.91 83.1768 193.609 83.875 194.47 83.875H216.892C217.754 83.875 218.452 83.1768 218.452 82.3155C218.452 81.4542 217.754 80.756 216.892 80.756Z" fill="#B0BEC5"/>
<g opacity="0.5">
<path opacity="0.5" d="M211.255 65.726H165.311C164.449 65.726 163.751 66.4242 163.751 67.2855C163.751 68.1468 164.449 68.845 165.311 68.845H211.255C212.117 68.845 212.815 68.1468 212.815 67.2855C212.815 66.4242 212.117 65.726 211.255 65.726Z" fill="white"/>
<path opacity="0.5" d="M196.354 73.241H165.311C164.449 73.241 163.751 73.9392 163.751 74.8005C163.751 75.6618 164.449 76.36 165.311 76.36H196.354C197.216 76.36 197.914 75.6618 197.914 74.8005C197.914 73.9392 197.216 73.241 196.354 73.241Z" fill="white"/>
<path opacity="0.5" d="M187.733 80.757H165.311C164.449 80.757 163.751 81.4552 163.751 82.3165C163.751 83.1778 164.449 83.876 165.311 83.876H187.733C188.595 83.876 189.293 83.1778 189.293 82.3165C189.293 81.4552 188.595 80.757 187.733 80.757Z" fill="white"/>
<path opacity="0.5" d="M216.892 80.757H194.47C193.609 80.757 192.91 81.4552 192.91 82.3165C192.91 83.1778 193.609 83.876 194.47 83.876H216.892C217.754 83.876 218.452 83.1778 218.452 82.3165C218.452 81.4552 217.754 80.757 216.892 80.757Z" fill="white"/>
</g>
<path d="M170.205 54.52H112.444C104.856 54.52 98.7041 60.6716 98.7041 68.26V81.672C98.7041 89.2604 104.856 95.412 112.444 95.412H170.205C177.793 95.412 183.945 89.2604 183.945 81.672V68.26C183.945 60.6716 177.793 54.52 170.205 54.52Z" fill="#B0BEC5"/>
<path d="M177.121 61.415H109.759C108.496 61.415 107.472 62.4389 107.472 63.702C107.472 64.9651 108.496 65.989 109.759 65.989H177.121C178.384 65.989 179.408 64.9651 179.408 63.702C179.408 62.4389 178.384 61.415 177.121 61.415Z" fill="#B0BEC5"/>
<path d="M155.269 72.437H109.759C108.496 72.437 107.472 73.4609 107.472 74.724C107.472 75.9871 108.496 77.011 109.759 77.011H155.269C156.532 77.011 157.556 75.9871 157.556 74.724C157.556 73.4609 156.532 72.437 155.269 72.437Z" fill="#B0BEC5"/>
<path d="M142.633 83.458H109.759C108.496 83.458 107.472 84.4819 107.472 85.745C107.472 87.0081 108.496 88.032 109.759 88.032H142.633C143.896 88.032 144.92 87.0081 144.92 85.745C144.92 84.4819 143.896 83.458 142.633 83.458Z" fill="#B0BEC5"/>
<path d="M179.633 83.458H152.512C151.249 83.458 150.225 84.4819 150.225 85.745C150.225 87.0081 151.249 88.032 152.512 88.032H179.633C180.896 88.032 181.92 87.0081 181.92 85.745C181.92 84.4819 180.896 83.458 179.633 83.458Z" fill="#B0BEC5"/>
<g opacity="0.5">
<path opacity="0.5" d="M177.121 61.415H109.759C108.496 61.415 107.472 62.4389 107.472 63.702C107.472 64.9651 108.496 65.989 109.759 65.989H177.121C178.384 65.989 179.408 64.9651 179.408 63.702C179.408 62.4389 178.384 61.415 177.121 61.415Z" fill="white"/>
<path opacity="0.5" d="M155.269 72.436H109.759C108.496 72.436 107.472 73.4599 107.472 74.723C107.472 75.986 108.496 77.01 109.759 77.01H155.269C156.532 77.01 157.556 75.986 157.556 74.723C157.556 73.4599 156.532 72.436 155.269 72.436Z" fill="white"/>
<path opacity="0.5" d="M142.633 83.457H109.759C108.496 83.457 107.472 84.4809 107.472 85.744C107.472 87.007 108.496 88.031 109.759 88.031H142.633C143.896 88.031 144.92 87.007 144.92 85.744C144.92 84.4809 143.896 83.457 142.633 83.457Z" fill="white"/>
<path opacity="0.5" d="M179.633 83.457H152.512C151.249 83.457 150.225 84.4809 150.225 85.744C150.225 87.007 151.249 88.031 152.512 88.031H179.633C180.896 88.031 181.92 87.007 181.92 85.744C181.92 84.4809 180.896 83.457 179.633 83.457Z" fill="white"/>
</g>
<path d="M130.523 102.823H102.551C99.0052 102.823 96.1309 105.697 96.1309 109.243V153.615C96.1309 157.161 99.0052 160.035 102.551 160.035H130.523C134.069 160.035 136.943 157.161 136.943 153.615V109.243C136.943 105.697 134.069 102.823 130.523 102.823Z" fill="#B0BEC5"/>
<path opacity="0.4" d="M130.523 102.823H102.551C99.0052 102.823 96.1309 105.697 96.1309 109.243V153.615C96.1309 157.161 99.0052 160.035 102.551 160.035H130.523C134.069 160.035 136.943 157.161 136.943 153.615V109.243C136.943 105.697 134.069 102.823 130.523 102.823Z" fill="black"/>
<path d="M131.036 108.791H102.033C101.381 108.791 100.853 109.319 100.853 109.971V110.147C100.853 110.799 101.381 111.327 102.033 111.327H131.036C131.688 111.327 132.216 110.799 132.216 110.147V109.971C132.216 109.319 131.688 108.791 131.036 108.791Z" fill="#FAFAFA"/>
<path d="M121.513 114.895H102.033C101.381 114.895 100.853 115.423 100.853 116.075V116.251C100.853 116.903 101.381 117.431 102.033 117.431H121.513C122.165 117.431 122.693 116.903 122.693 116.251V116.075C122.693 115.423 122.165 114.895 121.513 114.895Z" fill="#FAFAFA"/>
<path d="M131.036 121.004H102.033C101.381 121.004 100.853 121.532 100.853 122.184V122.36C100.853 123.012 101.381 123.54 102.033 123.54H131.036C131.688 123.54 132.216 123.012 132.216 122.36V122.184C132.216 121.532 131.688 121.004 131.036 121.004Z" fill="#FAFAFA"/>
<path d="M112.242 127.107H102.033C101.381 127.107 100.853 127.635 100.853 128.287V128.463C100.853 129.115 101.381 129.643 102.033 129.643H112.242C112.894 129.643 113.422 129.115 113.422 128.463V128.287C113.422 127.635 112.894 127.107 112.242 127.107Z" fill="#FAFAFA"/>
<path d="M127.801 127.107H117.592C116.94 127.107 116.412 127.635 116.412 128.287V128.463C116.412 129.115 116.94 129.643 117.592 129.643H127.801C128.453 129.643 128.981 129.115 128.981 128.463V128.287C128.981 127.635 128.453 127.107 127.801 127.107Z" fill="#FAFAFA"/>
<path d="M131.036 133.216H102.033C101.381 133.216 100.853 133.744 100.853 134.396V134.572C100.853 135.224 101.381 135.752 102.033 135.752H131.036C131.688 135.752 132.216 135.224 132.216 134.572V134.396C132.216 133.744 131.688 133.216 131.036 133.216Z" fill="#FAFAFA"/>
<path d="M131.036 139.319H102.033C101.381 139.319 100.853 139.847 100.853 140.499V140.675C100.853 141.327 101.381 141.855 102.033 141.855H131.036C131.688 141.855 132.216 141.327 132.216 140.675V140.499C132.216 139.847 131.688 139.319 131.036 139.319Z" fill="#FAFAFA"/>
<path d="M125.731 145.429H102.033C101.381 145.429 100.853 145.957 100.853 146.609V146.785C100.853 147.437 101.381 147.965 102.033 147.965H125.731C126.383 147.965 126.911 147.437 126.911 146.785V146.609C126.911 145.957 126.383 145.429 125.731 145.429Z" fill="#FAFAFA"/>
<path d="M112.604 151.532H102.033C101.381 151.532 100.853 152.06 100.853 152.712V152.888C100.853 153.54 101.381 154.068 102.033 154.068H112.604C113.256 154.068 113.784 153.54 113.784 152.888V152.712C113.784 152.06 113.256 151.532 112.604 151.532Z" fill="#FAFAFA"/>
<path d="M141.911 102.473H96.2363L116.426 118.543L147.39 130.209V107.943C147.387 106.491 146.808 105.099 145.78 104.074C144.752 103.048 143.359 102.472 141.907 102.472L141.911 102.473Z" fill="#B0BEC5"/>
<path opacity="0.4" d="M141.911 102.473H96.2363L116.426 118.543L147.39 130.209V107.943C147.387 106.491 146.808 105.099 145.78 104.074C144.752 103.048 143.359 102.472 141.907 102.472L141.911 102.473Z" fill="black"/>
<path d="M139.344 110.75H107.067C106.25 110.75 105.587 111.413 105.587 112.23V112.782C105.587 113.599 106.25 114.262 107.067 114.262H139.344C140.161 114.262 140.824 113.599 140.824 112.782V112.23C140.824 111.413 140.161 110.75 139.344 110.75Z" fill="#FAFAFA"/>
<path d="M220.902 143.167V116.647C220.902 112.637 217.651 109.387 213.642 109.387H163.465C159.455 109.387 156.205 112.637 156.205 116.647V143.167C156.205 147.177 159.455 150.427 163.465 150.427H213.642C217.651 150.427 220.902 147.177 220.902 143.167Z" fill="#B0BEC5"/>
<path d="M231.088 132.987V106.467C231.088 102.457 227.837 99.207 223.828 99.207H173.651C169.641 99.207 166.391 102.457 166.391 106.467V132.987C166.391 136.997 169.641 140.247 173.651 140.247H223.828C227.837 140.247 231.088 136.997 231.088 132.987Z" fill="#B0BEC5"/>
<path opacity="0.5" d="M231.088 132.987V106.467C231.088 102.457 227.837 99.207 223.828 99.207H173.651C169.641 99.207 166.391 102.457 166.391 106.467V132.987C166.391 136.997 169.641 140.247 173.651 140.247H223.828C227.837 140.247 231.088 136.997 231.088 132.987Z" fill="white"/>
<path d="M225.427 123.533V106.25C225.427 104.466 223.981 103.02 222.197 103.02H206.461C204.677 103.02 203.231 104.466 203.231 106.25V123.533C203.231 125.317 204.677 126.763 206.461 126.763H222.197C223.981 126.763 225.427 125.317 225.427 123.533Z" fill="#B0BEC5"/>
<path opacity="0.7" d="M225.427 123.533V106.25C225.427 104.466 223.981 103.02 222.197 103.02H206.461C204.677 103.02 203.231 104.466 203.231 106.25V123.533C203.231 125.317 204.677 126.763 206.461 126.763H222.197C223.981 126.763 225.427 125.317 225.427 123.533Z" fill="white"/>
<path d="M199.756 133.389V120.15C199.756 118.78 198.646 117.67 197.276 117.67H185.222C183.852 117.67 182.742 118.78 182.742 120.15V133.389C182.742 134.759 183.852 135.869 185.222 135.869H197.276C198.646 135.869 199.756 134.759 199.756 133.389Z" fill="#B0BEC5"/>
<path opacity="0.3" d="M199.756 133.389V120.15C199.756 118.78 198.646 117.67 197.276 117.67H185.222C183.852 117.67 182.742 118.78 182.742 120.15V133.389C182.742 134.759 183.852 135.869 185.222 135.869H197.276C198.646 135.869 199.756 134.759 199.756 133.389Z" fill="white"/>
<path d="M191.246 35.419V32.932C191.246 28.8561 187.942 25.552 183.866 25.552L39.6681 25.552C35.5922 25.552 32.2881 28.8561 32.2881 32.932V35.419C32.2881 39.4948 35.5922 42.799 39.6681 42.799L183.866 42.799C187.942 42.799 191.246 39.4948 191.246 35.419Z" fill="#B0BEC5"/>
<path opacity="0.5" d="M191.246 35.419V32.932C191.246 28.8561 187.942 25.552 183.866 25.552L39.6681 25.552C35.5922 25.552 32.2881 28.8561 32.2881 32.932V35.419C32.2881 39.4948 35.5922 42.799 39.6681 42.799L183.866 42.799C187.942 42.799 191.246 39.4948 191.246 35.419Z" fill="white"/>
<path d="M162.885 45.684V39.747H119.752V45.684H162.885Z" fill="#B0BEC5"/>
<path opacity="0.5" d="M162.885 45.684V39.747H119.752V45.684H162.885Z" fill="white"/>
<path d="M206.712 9.93798V7.45098C206.712 3.37512 203.408 0.0709839 199.332 0.0709839L55.1339 0.0709839C51.058 0.0709839 47.7539 3.37512 47.7539 7.45098V9.93798C47.7539 14.0138 51.058 17.318 55.1339 17.318L199.332 17.318C203.408 17.318 206.712 14.0138 206.712 9.93798Z" fill="#B0BEC5"/>
<path d="M46.0412 90.764C45.5012 91.992 44.9052 93.318 44.3832 94.614C43.8612 95.91 43.3212 97.242 42.8482 98.568C41.8786 101.155 41.1015 103.81 40.5232 106.511L40.3452 107.493L40.2842 107.861C40.2892 107.983 40.2768 108.105 40.2472 108.223C40.2239 108.821 40.2363 109.42 40.2842 110.016C40.4114 111.384 40.6164 112.743 40.8982 114.087C41.4142 116.868 42.0712 119.736 42.7402 122.56L39.5902 123.788C38.122 121.111 36.8716 118.321 35.8512 115.444C35.3141 113.946 34.8798 112.414 34.5512 110.857C34.3667 109.996 34.2517 109.121 34.2072 108.241C34.2072 107.995 34.2072 107.762 34.2072 107.498C34.1972 107.253 34.2116 107.009 34.2502 106.767L34.3732 105.539C34.5565 103.956 34.8373 102.387 35.2142 100.839C35.5582 99.304 36.0002 97.812 36.4422 96.339C36.8842 94.866 37.4372 93.416 38.0202 91.992C38.3092 91.28 38.6342 90.574 38.9202 89.868C39.2199 89.1392 39.556 88.426 39.9272 87.731L46.0412 90.764Z" fill="#E4897B"/>
<path d="M42.5722 121.728L44.9672 124.067L39.7422 126.523C39.3886 125.885 39.1716 125.181 39.105 124.455C39.0384 123.729 39.1236 122.996 39.3552 122.305L42.5722 121.728Z" fill="#E4897B"/>
<path d="M46.901 127.548L42.486 129.353L39.748 126.498L44.967 124.067L46.901 127.548Z" fill="#E4897B"/>
<path opacity="0.4" d="M136.329 125.032C127.642 124.057 119.438 120.527 112.756 114.89C106.074 109.254 101.214 101.762 98.7886 93.3629C96.3636 84.9639 96.4832 76.0344 99.1324 67.7033C101.782 59.3723 106.841 52.0137 113.672 46.5578C120.503 41.102 128.798 37.7939 137.508 37.0516C146.219 36.3094 154.954 38.1664 162.609 42.3879C170.265 46.6093 176.496 53.0058 180.517 60.7685C184.538 68.5312 186.166 77.3117 185.197 86C184.554 91.7724 182.779 97.3614 179.974 102.448C177.169 107.534 173.39 112.017 168.851 115.642C164.313 119.267 159.105 121.962 153.525 123.573C147.944 125.184 142.101 125.68 136.329 125.032Z" fill="#FAFAFA"/>
<path opacity="0.4" d="M168.492 46.268L101.259 99.987C100.977 99.373 100.7 98.759 100.442 98.145C98.7563 94.1357 97.6777 89.8974 97.2422 85.57L155.314 39.17C160.082 40.7611 164.539 43.163 168.49 46.27L168.492 46.268Z" fill="#FAFAFA"/>
<path opacity="0.4" d="M184.007 69.803L120.796 120.303C114.791 117.173 109.587 112.702 105.587 107.237L174.606 52.088C179.055 57.1946 182.271 63.2552 184.006 69.802L184.007 69.803Z" fill="#FAFAFA"/>
<path d="M91.4951 64.202L90.9121 64.002C91.9225 61.0209 93.1923 58.1342 94.7071 55.375L95.2411 55.67C93.7467 58.3981 92.4936 61.2516 91.4961 64.198L91.4951 64.202ZM98.9491 49.871L98.4491 49.509C103.496 42.6854 110.101 37.1673 117.713 33.415L117.989 33.968C110.464 37.6817 103.936 43.1404 98.9491 49.889V49.871ZM166.237 34.815C164.231 33.7389 162.155 32.7975 160.023 31.997L160.244 31.42C162.396 32.2395 164.493 33.1996 166.519 34.294L166.237 34.815Z" fill="#B0BEC5"/>
<path opacity="0.3" d="M91.4951 64.202L90.9121 64.002C91.9225 61.0209 93.1923 58.1342 94.7071 55.375L95.2411 55.67C93.7467 58.3981 92.4936 61.2516 91.4961 64.198L91.4951 64.202ZM98.9491 49.871L98.4491 49.509C103.496 42.6854 110.101 37.1673 117.713 33.415L117.989 33.968C110.464 37.6817 103.936 43.1404 98.9491 49.889V49.871ZM166.237 34.815C164.231 33.7389 162.155 32.7975 160.023 31.997L160.244 31.42C162.396 32.2395 164.493 33.1996 166.519 34.294L166.237 34.815Z" fill="black"/>
<path d="M186.956 58.518C181.271 46.7268 171.266 37.5756 159.015 32.9616C146.765 28.3475 133.209 28.6244 121.157 33.7348C109.106 38.8452 99.4826 48.3972 94.283 60.4107C89.0835 72.4242 88.7062 85.9778 93.2294 98.262C89.1294 99.699 85.0754 101.24 81.0474 102.83C75.2387 105.135 69.4834 107.542 63.7814 110.051C58.0814 112.575 52.4104 115.151 46.7924 117.836C43.9744 119.156 41.1924 120.55 38.3864 121.901C36.9266 122.528 35.604 123.436 34.4934 124.572C33.8925 125.201 33.3632 125.895 32.9154 126.641C32.369 127.523 31.9552 128.481 31.6874 129.484C31.2253 131.291 31.425 133.203 32.2503 134.876C33.0757 136.548 34.4722 137.87 36.1874 138.602C37.1399 139.002 38.1448 139.262 39.1714 139.376C40.0383 139.474 40.9135 139.474 41.7804 139.376C43.3585 139.185 44.8837 138.687 46.2694 137.908C49.0504 136.502 51.8504 135.145 54.6134 133.702C60.1394 130.884 65.6654 127.943 71.1234 124.959C76.5814 121.975 82.0464 118.85 87.3764 115.645C91.0604 113.416 94.7764 111.138 98.4284 108.756C105.433 119.809 116.421 127.744 129.117 130.917C141.812 134.09 155.241 132.258 166.622 125.801C178.004 119.343 186.465 108.755 190.254 96.2298C194.042 83.7044 192.867 70.2018 186.972 58.519L186.956 58.518ZM159.044 117.173C151.909 120.695 143.89 122.022 136 120.986C128.111 119.95 120.706 116.599 114.721 111.355C108.736 106.111 104.441 99.2099 102.378 91.5248C100.315 83.8398 100.577 75.7156 103.131 68.1795C105.685 60.6433 110.416 54.0337 116.726 49.1862C123.036 44.3387 130.642 41.4711 138.581 40.9459C146.521 40.4208 154.438 42.2616 161.332 46.2358C168.226 50.2099 173.786 56.1389 177.31 63.273C179.651 68.0111 181.036 73.164 181.385 78.4373C181.734 83.7105 181.04 89.0009 179.344 94.0062C177.649 99.0115 174.983 103.634 171.501 107.609C168.018 111.584 163.786 114.834 159.047 117.173H159.044Z" fill="#B0BEC5"/>
<path opacity="0.3" d="M186.956 58.518C181.271 46.7268 171.266 37.5756 159.015 32.9616C146.765 28.3475 133.209 28.6244 121.157 33.7348C109.106 38.8452 99.4826 48.3972 94.283 60.4107C89.0835 72.4242 88.7062 85.9778 93.2294 98.262C89.1294 99.699 85.0754 101.24 81.0474 102.83C75.2387 105.135 69.4834 107.542 63.7814 110.051C58.0814 112.575 52.4104 115.151 46.7924 117.836C43.9744 119.156 41.1924 120.55 38.3864 121.901C36.9266 122.528 35.604 123.436 34.4934 124.572C33.8925 125.201 33.3632 125.895 32.9154 126.641C32.369 127.523 31.9552 128.481 31.6874 129.484C31.2253 131.291 31.425 133.203 32.2503 134.876C33.0757 136.548 34.4722 137.87 36.1874 138.602C37.1399 139.002 38.1448 139.262 39.1714 139.376C40.0383 139.474 40.9135 139.474 41.7804 139.376C43.3585 139.185 44.8837 138.687 46.2694 137.908C49.0504 136.502 51.8504 135.145 54.6134 133.702C60.1394 130.884 65.6654 127.943 71.1234 124.959C76.5814 121.975 82.0464 118.85 87.3764 115.645C91.0604 113.416 94.7764 111.138 98.4284 108.756C105.433 119.809 116.421 127.744 129.117 130.917C141.812 134.09 155.241 132.258 166.622 125.801C178.004 119.343 186.465 108.755 190.254 96.2298C194.042 83.7044 192.867 70.2018 186.972 58.519L186.956 58.518ZM159.044 117.173C151.909 120.695 143.89 122.022 136 120.986C128.111 119.95 120.706 116.599 114.721 111.355C108.736 106.111 104.441 99.2099 102.378 91.5248C100.315 83.8398 100.577 75.7156 103.131 68.1795C105.685 60.6433 110.416 54.0337 116.726 49.1862C123.036 44.3387 130.642 41.4711 138.581 40.9459C146.521 40.4208 154.438 42.2616 161.332 46.2358C168.226 50.2099 173.786 56.1389 177.31 63.273C179.651 68.0111 181.036 73.164 181.385 78.4373C181.734 83.7105 181.04 89.0009 179.344 94.0062C177.649 99.0115 174.983 103.634 171.501 107.609C168.018 111.584 163.786 114.834 159.047 117.173H159.044Z" fill="black"/>
<path d="M63.0122 68.838C63.0122 69.2 63.2022 69.495 63.4422 69.495C63.6822 69.495 63.8722 69.2 63.8722 68.838C63.8722 68.476 63.6822 68.181 63.4422 68.181C63.2022 68.181 63.0122 68.501 63.0122 68.838Z" fill="#263238"/>
<path d="M63.1841 69.495C63.6188 70.607 64.2036 71.6544 64.9221 72.608C64.6736 72.7856 64.3893 72.9068 64.0891 72.9629C63.7888 73.019 63.48 73.0088 63.1841 72.933V69.495Z" fill="#DE5753"/>
<path d="M61.7411 66.819C61.7068 66.819 61.673 66.8113 61.6422 66.7964C61.6114 66.7815 61.5843 66.7598 61.5631 66.733C61.5313 66.6862 61.5187 66.629 61.5278 66.5732C61.5369 66.5174 61.5671 66.4672 61.6121 66.433C61.8825 66.2279 62.1985 66.0913 62.5332 66.0347C62.8678 65.9781 63.2112 66.0033 63.5341 66.108C63.5625 66.1164 63.5889 66.1306 63.6116 66.1497C63.6343 66.1689 63.6528 66.1925 63.666 66.2191C63.6791 66.2457 63.6865 66.2748 63.6879 66.3044C63.6892 66.3341 63.6844 66.3637 63.6738 66.3914C63.6631 66.4191 63.6468 66.4443 63.6259 66.4654C63.605 66.4865 63.58 66.5031 63.5524 66.514C63.5248 66.525 63.4953 66.5301 63.4656 66.529C63.4359 66.528 63.4068 66.5208 63.3801 66.508C63.1236 66.4292 62.8519 66.4132 62.5879 66.4612C62.3239 66.5092 62.0754 66.6199 61.8631 66.784C61.8267 66.8073 61.7843 66.8195 61.7411 66.819Z" fill="#263238"/>
<path d="M50.6093 71.571C51.2233 74.871 51.8983 80.916 49.5903 83.12C49.5903 83.12 50.4903 86.466 56.6263 86.466C63.3803 86.466 59.8433 83.12 59.8433 83.12C56.1593 82.236 56.2633 79.51 56.9023 76.943L50.6093 71.571Z" fill="#E4897B"/>
<path d="M46.8335 84.858C47.5645 83.722 46.3335 80.965 46.3335 80.965C46.3335 80.965 57.1885 78.233 61.6285 82.426C62.5495 83.292 61.5285 84.569 61.5285 84.569L46.8335 84.858Z" fill="#B0BEC5"/>
<path opacity="0.1" d="M46.8335 84.858C47.5645 83.722 46.3335 80.965 46.3335 80.965C46.3335 80.965 57.1885 78.233 61.6285 82.426C62.5495 83.292 61.5285 84.569 61.5285 84.569L46.8335 84.858Z" fill="black"/>
<path d="M28.874 210.132C28.303 210.132 27.388 209.18 27.118 208.824C27.1057 208.807 27.0991 208.786 27.0991 208.765C27.0991 208.744 27.1057 208.724 27.118 208.707C27.1281 208.69 27.1428 208.675 27.1604 208.666C27.178 208.656 27.1979 208.651 27.218 208.652C27.286 208.652 28.79 208.787 29.201 209.321C29.2459 209.377 29.278 209.443 29.2953 209.513C29.3125 209.582 29.3145 209.655 29.301 209.726C29.2959 209.818 29.2624 209.905 29.2053 209.977C29.1481 210.048 29.0701 210.101 28.982 210.126L28.874 210.132ZM27.45 208.904C27.898 209.42 28.617 210.004 28.924 209.929C28.924 209.929 29.047 209.898 29.084 209.702C29.0921 209.661 29.0908 209.619 29.0803 209.578C29.0697 209.538 29.0501 209.501 29.023 209.469C28.5681 209.124 28.0208 208.924 27.451 208.892L27.45 208.904Z" fill="#B0BEC5"/>
<path d="M27.5172 208.891C27.4068 208.902 27.2955 208.902 27.1852 208.891C27.1658 208.889 27.1473 208.882 27.132 208.87C27.1167 208.858 27.1053 208.841 27.0992 208.823C27.0905 208.806 27.0859 208.787 27.0859 208.767C27.0859 208.748 27.0905 208.729 27.0992 208.712C27.1422 208.675 28.0452 207.736 28.7262 207.736C28.8077 207.734 28.8887 207.75 28.9639 207.781C29.0391 207.813 29.1066 207.86 29.1622 207.92C29.2233 207.971 29.2652 208.042 29.2809 208.12C29.2965 208.198 29.285 208.279 29.2482 208.35C29.0712 208.695 28.1312 208.891 27.5172 208.891ZM27.4372 208.676C28.0512 208.676 28.9372 208.486 29.0892 208.216C29.0892 208.216 29.1322 208.136 29.0342 208.038C28.9985 207.999 28.9548 207.969 28.9061 207.948C28.8574 207.928 28.8049 207.919 28.7522 207.921C28.2489 208.037 27.7915 208.299 27.4382 208.676H27.4372Z" fill="#B0BEC5"/>
<path d="M69.3923 224.069C68.9268 224.066 68.4624 224.023 68.0043 223.94C67.9814 223.935 67.9608 223.923 67.9462 223.905C67.9316 223.886 67.9238 223.863 67.9243 223.84C67.9208 223.819 67.9236 223.797 67.9323 223.777C67.941 223.758 67.9553 223.741 67.9733 223.729C68.0413 223.692 69.6123 222.79 70.3683 222.998C70.4384 223.014 70.5046 223.044 70.5627 223.086C70.6208 223.128 70.6697 223.182 70.7063 223.244C70.7545 223.312 70.7804 223.394 70.7804 223.478C70.7804 223.561 70.7545 223.643 70.7063 223.711C70.5253 223.99 69.9693 224.069 69.3923 224.069ZM68.3543 223.78C69.1893 223.903 70.3313 223.897 70.5403 223.602C70.5713 223.565 70.5953 223.502 70.5403 223.369C70.4934 223.292 70.4184 223.237 70.3313 223.215C69.6333 223.221 68.95 223.416 68.3543 223.78Z" fill="#B0BEC5"/>
<path d="M68.0263 223.947C68.0064 223.953 67.9853 223.953 67.9653 223.947C67.9493 223.936 67.9367 223.921 67.929 223.903C67.9214 223.886 67.9191 223.866 67.9223 223.847C67.9641 223.208 68.2094 222.599 68.6223 222.109C68.7058 222.037 68.8039 221.984 68.9099 221.953C69.0159 221.922 69.1272 221.915 69.2363 221.931C69.3284 221.918 69.422 221.941 69.4968 221.996C69.5717 222.052 69.6218 222.134 69.6363 222.226C69.7163 222.736 68.6413 223.712 68.0953 223.958L68.0263 223.947ZM69.1263 222.105C68.9914 222.104 68.8607 222.152 68.7583 222.24C68.4111 222.628 68.1961 223.116 68.1443 223.634C68.6973 223.296 69.4333 222.534 69.3723 222.228C69.3723 222.228 69.3723 222.128 69.1633 222.105H69.1263Z" fill="#B0BEC5"/>
<path d="M63.0674 223.836H67.5774L68.0254 213.392H63.5124L63.0674 223.836Z" fill="#E4897B"/>
<path d="M22.8813 205.907L26.6514 208.375L34.9773 201.345L31.2013 198.871L22.8813 205.907Z" fill="#E4897B"/>
<path d="M27.2712 208.142L23.3542 204.931C23.285 204.874 23.1983 204.843 23.1087 204.843C23.0192 204.843 22.9325 204.874 22.8632 204.931L19.6332 207.467C19.5551 207.529 19.4921 207.608 19.4487 207.698C19.4053 207.788 19.3828 207.886 19.3828 207.986C19.3828 208.086 19.4053 208.184 19.4487 208.274C19.4921 208.364 19.5551 208.443 19.6332 208.505C21.0212 209.605 21.7512 210.071 23.4772 211.483C24.5392 212.349 27.1612 215.001 28.6412 216.198C30.1212 217.395 31.4782 216.106 30.9862 215.486C29.3531 213.569 28.2128 211.282 27.6642 208.824C27.6209 208.556 27.4811 208.314 27.2712 208.142Z" fill="#263238"/>
<path d="M67.5505 223.314H62.6385C62.5489 223.314 62.4621 223.345 62.3919 223.401C62.3217 223.456 62.2723 223.534 62.2515 223.621L61.3615 227.63C61.3399 227.727 61.3405 227.827 61.3633 227.924C61.3861 228.021 61.4305 228.111 61.4931 228.188C61.5558 228.265 61.635 228.326 61.725 228.368C61.8149 228.41 61.9132 228.431 62.0125 228.43C63.7865 228.399 66.3535 228.295 68.5885 228.295C71.1975 228.295 73.4575 228.436 76.5155 228.436C78.3575 228.436 78.8855 226.563 78.1055 226.398C74.5815 225.624 71.6955 225.545 68.6495 223.66C68.3223 223.445 67.9418 223.325 67.5505 223.314Z" fill="#263238"/>
<path d="M40.6991 84.465C36.7881 86.307 34.5591 98.648 34.5591 98.648L44.1191 102.461C45.5184 99.0441 46.6495 95.5234 47.5021 91.9309C48.8161 86.2459 44.6991 82.562 40.6991 84.465Z" fill="#263238"/>
<path d="M45.7715 91.418C43.4075 93.813 42.3265 98.504 41.8545 101.555L44.1445 102.47C45.5042 99.1501 46.6126 95.7328 47.4605 92.247C47.2575 90.949 46.7545 90.427 45.7715 91.418Z" fill="#203048"/>
<path d="M66.7822 84.379C66.7822 84.379 71.5822 89.807 67.0522 123.368H42.9262C42.7602 119.684 45.0872 101.602 41.5142 84.152C44.1802 83.6351 46.8773 83.2947 49.5882 83.133C53.0031 82.9302 56.4272 82.9302 59.8422 83.133C62.1835 83.3685 64.5031 83.785 66.7802 84.379H66.7822Z" fill="#263238"/>
<path d="M68.9864 97.408L64.9214 90.402C64.1366 93.6708 63.8161 97.0338 63.9694 100.392C64.0804 102.799 66.2844 111.714 68.2694 113.016C68.7951 107.83 69.0345 102.62 68.9864 97.408Z" fill="#203048"/>
<path d="M69.5512 89.174C70.1652 92.158 70.7792 95.216 71.4362 98.212C72.0932 101.208 72.7752 104.212 73.5672 107.121C73.7672 107.839 73.9602 108.576 74.1812 109.264L74.3472 109.792L74.4272 110.056V110.025C74.3842 109.97 74.3352 109.964 74.3722 110.025C74.6245 110.3 74.947 110.502 75.3052 110.608C75.8856 110.825 76.4834 110.992 77.0922 111.108C79.995 111.568 82.9342 111.759 85.8722 111.679L86.4552 115.019C85.6322 115.283 84.8652 115.473 84.0552 115.664C83.2452 115.855 82.4462 116.014 81.6302 116.137C79.9405 116.418 78.2273 116.534 76.5152 116.481C75.5637 116.455 74.6174 116.332 73.6912 116.113C72.5136 115.857 71.4068 115.345 70.4492 114.613C69.8238 114.108 69.3077 113.482 68.9322 112.771C68.8322 112.587 68.7482 112.378 68.6682 112.2L68.5572 111.911L68.3302 111.297C68.0172 110.517 67.7592 109.75 67.4772 108.982C66.4392 105.912 65.5772 102.811 64.8122 99.717C64.0472 96.623 63.3942 93.534 62.8472 90.36L69.5512 89.174Z" fill="#E4897B"/>
<path d="M60.7554 87.67C59.4844 91.79 64.6354 104.076 64.6354 104.076L74.8954 101.497C74.5989 97.5591 73.6767 93.6936 72.1634 90.046C68.6424 82.408 62.2814 82.727 60.7554 87.67Z" fill="#263238"/>
<path d="M85.7851 111.677L90.8931 111.548L88.4371 116.865C88.4371 116.865 86.3561 117.141 84.6491 114.335L82.8491 112.186L84.9181 111.775C85.2034 111.715 85.4937 111.682 85.7851 111.677Z" fill="#E4897B"/>
<path d="M94.117 112.538L91.194 116.946L88.437 116.866L90.893 111.549L94.117 112.538Z" fill="#E4897B"/>
<path d="M68.0282 213.392L67.7952 218.777H63.2822L63.5152 213.392H68.0282Z" fill="#CE6F64"/>
<path d="M31.2012 198.871L34.9772 201.345L30.6772 204.968L26.9072 202.5L31.2012 198.871Z" fill="#CE6F64"/>
<path d="M50.8925 68.059C51.1625 72.523 51.0925 75.159 53.3485 77.447C56.7375 80.904 62.2575 78.859 63.3255 74.377C64.2895 70.361 63.6875 63.73 59.3165 61.95C58.3519 61.5607 57.3042 61.4228 56.2718 61.5493C55.2393 61.6758 54.2559 62.0625 53.4138 62.6731C52.5717 63.2838 51.8986 64.0984 51.4576 65.0404C51.0166 65.9825 50.8221 67.0212 50.8925 68.059Z" fill="#E4897B"/>
<path d="M45.635 67.272C46.746 71.343 49.362 76.034 52.745 76.335C56.945 76.703 58.845 72.362 59.395 67.88C61.912 66.155 60.595 64.257 63.116 64.018C66.358 63.711 65.3161 57.78 61.0531 56.828C61.0531 56.828 62.484 59.499 59.481 58.148C56.6257 56.7911 53.4535 56.2412 50.308 56.558C50.308 56.558 54.139 58.474 50.394 59.327C46.649 60.18 45.531 62.489 47.256 63.883C46.9225 63.9925 46.6146 64.1685 46.351 64.4002C46.0873 64.6319 45.8733 64.9146 45.7218 65.2313C45.5703 65.548 45.4845 65.8921 45.4696 66.2428C45.4547 66.5935 45.511 66.9436 45.635 67.272Z" fill="#263238"/>
<path d="M56.8352 68.802C56.9178 69.9115 57.3646 70.9626 58.1062 71.792C59.0882 72.879 60.1142 72.203 60.2862 70.883C60.4462 69.698 60.1202 67.703 58.9172 67.101C57.7142 66.499 56.7552 67.463 56.8352 68.802Z" fill="#E4897B"/>
<path d="M58.4935 123.367C58.4935 123.367 62.8935 155.203 59.4265 167.962C53.9375 188.162 32.9505 205.213 32.9505 205.213L25.8345 200.547C25.8345 200.547 43.7075 186.147 45.8935 169.233C47.8585 154.049 42.9275 135.684 42.9275 123.361L58.4935 123.367Z" fill="#B0BEC5"/>
<path opacity="0.1" d="M58.4935 123.367C58.4935 123.367 62.8935 155.203 59.4265 167.962C53.9375 188.162 32.9505 205.213 32.9505 205.213L25.8345 200.547C25.8345 200.547 43.7075 186.147 45.8935 169.233C47.8585 154.049 42.9275 135.684 42.9275 123.361L58.4935 123.367Z" fill="black"/>
<path d="M60.3114 141.566C59.141 140.225 57.8525 138.992 56.4614 137.882C57.2104 148.216 57.8244 163.523 57.1434 174.396C58.0598 172.311 58.8231 170.163 59.4274 167.967C61.1154 161.736 60.9374 150.972 60.3114 141.566Z" fill="#B0BEC5"/>
<path opacity="0.3" d="M60.3114 141.566C59.141 140.225 57.8525 138.992 56.4614 137.882C57.2104 148.216 57.8244 163.523 57.1434 174.396C58.0598 172.311 58.8231 170.163 59.4274 167.967C61.1154 161.736 60.9374 150.972 60.3114 141.566Z" fill="black"/>
<path d="M35.8181 203.624C35.8491 203.624 33.0611 205.466 33.0611 205.466L25.2881 200.366L27.7441 198.334L35.8181 203.624Z" fill="#B0BEC5"/>
<path opacity="0.3" d="M35.8181 203.624C35.8491 203.624 33.0611 205.466 33.0611 205.466L25.2881 200.366L27.7441 198.334L35.8181 203.624Z" fill="black"/>
<path d="M67.0533 123.368C67.0533 123.368 73.8443 152.168 74.3233 165.924C74.8633 181.348 69.4793 217.733 69.4793 217.733H61.8353C61.8353 217.733 60.8963 181.065 60.5583 167.017C60.1833 151.698 51.1953 123.368 51.1953 123.368H67.0533Z" fill="#B0BEC5"/>
<path opacity="0.1" d="M67.0533 123.368C67.0533 123.368 73.8443 152.168 74.3233 165.924C74.8633 181.348 69.4793 217.733 69.4793 217.733H61.8353C61.8353 217.733 60.8963 181.065 60.5583 167.017C60.1833 151.698 51.1953 123.368 51.1953 123.368H67.0533Z" fill="black"/>
<path d="M70.9444 214.693C70.9814 214.693 70.5144 217.861 70.5144 217.861H61.2144L60.9624 215.03L70.9444 214.693Z" fill="#B0BEC5"/>
<path opacity="0.3" d="M70.9444 214.693C70.9814 214.693 70.5144 217.861 70.5144 217.861H61.2144L60.9624 215.03L70.9444 214.693Z" fill="black"/>
<path d="M184.583 95.695C185.105 96.186 185.516 96.604 185.946 97.07C186.376 97.536 186.781 97.991 187.174 98.464C187.974 99.403 188.721 100.392 189.446 101.387C190.893 103.382 192.181 105.489 193.296 107.687L193.523 108.135C193.634 108.352 193.726 108.578 193.799 108.81C193.948 109.259 194.038 109.726 194.069 110.198C194.109 111.03 193.994 111.863 193.731 112.654C193.283 113.968 192.616 115.196 191.76 116.289C190.218 118.27 188.4 120.019 186.36 121.483L184.831 119.727C185.549 118.886 186.298 117.983 186.968 117.081C187.649 116.206 188.265 115.283 188.81 114.318C189.319 113.476 189.696 112.561 189.927 111.604C190.007 111.262 190.021 110.908 189.97 110.56C189.949 110.443 189.912 110.329 189.86 110.222C189.837 110.175 189.81 110.13 189.78 110.087L189.58 109.755C188.396 107.824 187.111 105.957 185.73 104.161C185.048 103.261 184.318 102.393 183.581 101.539C183.219 101.109 182.844 100.692 182.47 100.274C182.096 99.856 181.69 99.439 181.365 99.114L184.583 95.695Z" fill="#E4897B"/>
<path d="M185.419 119.211L180.833 118.462L183.233 122.478C183.233 122.478 186.186 122.378 187.027 120.636L185.419 119.211Z" fill="#E4897B"/>
<path d="M177.443 120.316L179.629 123.576L183.229 122.476L180.829 118.46L177.443 120.316Z" fill="#E4897B"/>
<path d="M185.198 224.014C184.886 224.041 184.575 223.956 184.32 223.774C184.243 223.701 184.186 223.61 184.155 223.509C184.124 223.408 184.119 223.3 184.142 223.197C184.146 223.131 184.168 223.068 184.206 223.013C184.244 222.959 184.296 222.917 184.357 222.89C184.891 222.651 186.291 223.547 186.451 223.651C186.468 223.663 186.482 223.68 186.491 223.7C186.499 223.72 186.501 223.742 186.497 223.763C186.494 223.784 186.484 223.804 186.469 223.82C186.454 223.835 186.435 223.846 186.414 223.851C186.016 223.952 185.608 224.008 185.198 224.017V224.014ZM184.584 223.062C184.539 223.055 184.493 223.055 184.449 223.062C184.422 223.075 184.399 223.094 184.383 223.119C184.366 223.144 184.357 223.173 184.357 223.203C184.34 223.272 184.342 223.343 184.362 223.411C184.381 223.479 184.417 223.54 184.468 223.59C184.983 223.826 185.57 223.855 186.107 223.67C185.645 223.367 185.127 223.161 184.584 223.066V223.062Z" fill="#B0BEC5"/>
<path d="M186.425 223.846H186.37C185.934 223.594 185.093 222.618 185.197 222.084C185.217 222 185.264 221.925 185.33 221.869C185.397 221.814 185.479 221.782 185.565 221.777C185.648 221.765 185.733 221.772 185.813 221.797C185.893 221.823 185.966 221.866 186.026 221.924C186.526 222.366 186.536 223.692 186.536 223.766C186.535 223.785 186.53 223.803 186.52 223.819C186.51 223.835 186.497 223.848 186.481 223.858L186.425 223.846ZM185.639 222.004H185.59C185.455 222.004 185.424 222.078 185.412 222.133C185.351 222.446 185.872 223.195 186.312 223.545C186.323 223.03 186.175 222.524 185.888 222.096C185.852 222.062 185.808 222.036 185.76 222.02C185.713 222.004 185.662 221.999 185.612 222.004H185.639Z" fill="#B0BEC5"/>
<path d="M164.273 224.013C163.881 224.05 163.489 223.951 163.162 223.731C163.089 223.665 163.033 223.583 162.998 223.491C162.963 223.399 162.951 223.301 162.962 223.203C162.966 223.143 162.985 223.085 163.017 223.035C163.049 222.984 163.094 222.943 163.146 222.914C163.717 222.595 165.546 223.528 165.755 223.645C165.774 223.657 165.789 223.675 165.799 223.696C165.809 223.716 165.813 223.739 165.81 223.762C165.807 223.784 165.797 223.804 165.782 223.82C165.766 223.835 165.746 223.845 165.724 223.848C165.247 223.949 164.762 224.005 164.275 224.014L164.273 224.013ZM163.456 223.061C163.387 223.057 163.318 223.072 163.256 223.104C163.234 223.114 163.215 223.131 163.202 223.152C163.189 223.172 163.182 223.196 163.182 223.221C163.173 223.285 163.179 223.35 163.201 223.411C163.222 223.472 163.258 223.527 163.305 223.571C163.953 223.86 164.684 223.904 165.362 223.694C164.769 223.378 164.126 223.164 163.462 223.062L163.456 223.061Z" fill="#B0BEC5"/>
<path d="M165.703 223.846H165.654C165.108 223.6 164.021 222.618 164.107 222.084C164.107 221.961 164.218 221.808 164.518 221.777C164.628 221.765 164.739 221.776 164.845 221.809C164.951 221.841 165.048 221.895 165.132 221.967C165.546 222.469 165.787 223.091 165.82 223.741C165.824 223.76 165.821 223.78 165.814 223.797C165.806 223.815 165.793 223.83 165.777 223.841C165.754 223.851 165.728 223.853 165.703 223.847V223.846ZM164.603 222.004H164.535C164.335 222.004 164.326 222.104 164.32 222.127C164.271 222.44 165.008 223.22 165.548 223.558C165.495 223.033 165.281 222.538 164.934 222.14C164.842 222.059 164.727 222.01 164.604 222L164.603 222.004Z" fill="#B0BEC5"/>
<path d="M172.961 81.579C172.783 84.354 172.304 89.991 174.435 91.55C174.435 91.55 174.049 94.393 169.021 95.056C163.495 95.774 166.021 92.656 166.021 92.656C168.95 91.539 168.574 89.31 167.776 87.271L172.961 81.579Z" fill="#E4897B"/>
<path d="M161.521 76.67C161.491 76.6701 161.461 76.6635 161.433 76.6507C161.405 76.6379 161.381 76.6192 161.361 76.596C161.186 76.3877 160.964 76.2236 160.713 76.117C160.462 76.0103 160.19 75.9641 159.918 75.982C159.889 75.9873 159.86 75.9866 159.832 75.9801C159.803 75.9736 159.776 75.9614 159.753 75.9441C159.729 75.9269 159.709 75.9051 159.694 75.88C159.68 75.8548 159.67 75.8269 159.666 75.798C159.659 75.7402 159.675 75.682 159.711 75.6359C159.746 75.5899 159.799 75.5597 159.856 75.552C160.203 75.5227 160.552 75.5778 160.872 75.7126C161.193 75.8474 161.476 76.0579 161.698 76.326C161.725 76.358 161.742 76.3969 161.747 76.4381C161.753 76.4794 161.746 76.5213 161.729 76.5591C161.712 76.597 161.684 76.6291 161.649 76.6519C161.614 76.6747 161.574 76.6872 161.532 76.688L161.521 76.67Z" fill="#263238"/>
<path d="M160.564 79.393C160.347 80.2735 160.01 81.1202 159.564 81.91C159.769 82.0204 159.996 82.0843 160.229 82.0971C160.461 82.1099 160.694 82.0713 160.909 81.984L160.564 79.393Z" fill="#DE5753"/>
<path d="M160.809 78.717C160.858 79.085 160.709 79.405 160.465 79.442C160.221 79.479 159.986 79.196 159.943 78.828C159.9 78.46 160.043 78.14 160.287 78.11C160.531 78.08 160.766 78.324 160.809 78.717Z" fill="#263238"/>
<path d="M160.398 78.116L159.483 77.975C159.483 77.975 160.023 78.607 160.398 78.116Z" fill="#263238"/>
<path d="M170.76 223.744H166.16L165.854 213.091H170.453L170.76 223.744Z" fill="#E4897B"/>
<path d="M191.669 223.744H187.069L185.589 213.091H190.189L191.669 223.744Z" fill="#E4897B"/>
<path d="M186.781 223.228H191.951C192.039 223.227 192.125 223.259 192.191 223.316C192.258 223.374 192.301 223.454 192.313 223.541L192.927 227.641C192.938 227.744 192.928 227.849 192.896 227.948C192.864 228.047 192.811 228.137 192.742 228.215C192.672 228.292 192.587 228.353 192.492 228.395C192.397 228.437 192.294 228.459 192.19 228.458C190.39 228.427 189.519 228.323 187.247 228.323C185.847 228.323 183.802 228.464 181.875 228.464C179.948 228.464 179.843 226.554 180.647 226.383C182.723 226.089 184.629 225.074 186.032 223.516C186.243 223.339 186.506 223.237 186.781 223.228Z" fill="#263238"/>
<path d="M166.005 223.228H171.169C171.257 223.227 171.343 223.258 171.411 223.316C171.479 223.373 171.523 223.453 171.537 223.541L172.151 227.641C172.162 227.744 172.151 227.849 172.119 227.948C172.087 228.047 172.035 228.138 171.965 228.215C171.896 228.292 171.81 228.353 171.715 228.395C171.62 228.437 171.517 228.459 171.414 228.458C169.614 228.427 168.743 228.323 166.471 228.323C165.071 228.323 162.171 228.464 160.245 228.464C158.319 228.464 158.213 226.554 159.017 226.383C161.324 226.033 163.486 225.039 165.255 223.516C165.465 223.339 165.729 223.237 166.005 223.228Z" fill="#263238"/>
<path d="M165.85 213.091L166.01 218.591H170.61L170.45 213.091H165.85Z" fill="#CE6F64"/>
<path d="M190.189 213.091H185.589L186.357 218.591H190.954L190.189 213.091Z" fill="#CE6F64"/>
<path d="M173.022 75.832C173.335 80.388 173.562 82.31 171.585 84.932C168.607 88.868 162.946 88.26 161.276 83.888C159.776 79.952 159.514 73.168 163.701 70.788C164.622 70.2602 165.663 69.9764 166.725 69.9636C167.786 69.9509 168.834 70.2095 169.767 70.7151C170.701 71.2207 171.49 71.9564 172.059 72.8524C172.629 73.7484 172.96 74.7751 173.021 75.835L173.022 75.832Z" fill="#E4897B"/>
<path d="M175.675 80.063C178.229 81.487 180.126 77.975 180.126 77.975C180.126 77.975 175.546 78.475 175.957 75.746C176.497 72.13 173.906 67.733 167.41 68.298C167.048 68.329 166.704 68.372 166.366 68.427C165.686 68.1046 164.917 68.0213 164.184 68.1907C163.451 68.36 162.796 68.7721 162.326 69.36C161.736 69.4053 161.168 69.6024 160.676 69.9321C160.185 70.2619 159.787 70.7131 159.521 71.242C159.255 71.7709 159.131 72.3596 159.16 72.9507C159.189 73.5419 159.37 74.1155 159.686 74.616C159.805 74.2832 159.988 73.9773 160.226 73.716C160.367 75.416 161.853 78.116 163.707 78.296C164.107 80.623 162.559 83.318 163.093 85.75C163.885 89.256 169.793 90.05 169.793 90.05C169.589 89.6121 169.513 89.1255 169.574 88.6463C169.635 88.1671 169.83 87.7149 170.137 87.342C174.153 89.184 176.799 87.385 176.799 87.385C174.061 86.366 174.889 84.548 174.889 84.548C175.835 84.9669 176.907 85.003 177.879 84.6488C178.851 84.2945 179.648 83.5774 180.102 82.648C179.193 82.6912 178.29 82.4701 177.503 82.0114C176.716 81.5526 176.079 80.8759 175.669 80.063H175.675Z" fill="#263238"/>
<path d="M165.31 78.994C165.321 79.4312 165.245 79.8662 165.087 80.274C164.929 80.6817 164.692 81.0542 164.389 81.37C163.579 82.211 162.584 81.622 162.314 80.547C162.075 79.577 162.214 77.974 163.266 77.532C163.499 77.4411 163.75 77.4096 163.998 77.4404C164.245 77.4712 164.482 77.5633 164.685 77.7084C164.888 77.8535 165.051 78.0469 165.161 78.2713C165.27 78.4956 165.322 78.7436 165.311 78.993L165.31 78.994Z" fill="#E4897B"/>
<path d="M169.135 121.435C169.135 121.435 170.302 151.742 173.077 169.535C175.312 183.915 185.24 217.513 185.24 217.513H191.515C191.515 217.513 186.339 185.063 185.203 170.849C182.329 134.875 189.79 127.149 182.747 119.66L169.135 121.435Z" fill="#263238"/>
<path d="M174.378 131.024C174.378 131.024 171.541 130.533 169.884 135.936C170.498 146.171 171.548 159.753 173.077 169.536C173.415 171.716 173.93 174.344 174.563 177.223C173.365 159.937 174.378 131.024 174.378 131.024Z" fill="#161F33"/>
<path d="M164.242 122.078C164.242 122.078 159.072 155.608 159.373 169.638C159.686 184.233 165.034 217.53 165.034 217.53H171.254C171.254 217.53 170.272 185.099 170.818 170.768C171.432 155.142 177.811 120.316 177.811 120.316L164.242 122.078Z" fill="#263238"/>
<path d="M192.424 217.813H184.08L183.429 215.013L192.363 215.074L192.424 217.813Z" fill="#B0BEC5"/>
<path opacity="0.2" d="M192.424 217.813H184.08L183.429 215.013L192.363 215.074L192.424 217.813Z" fill="black"/>
<path d="M182.434 91.557C184.834 91.79 188.482 98.612 188.482 98.612L182.422 103.26C182.422 103.26 177.406 98.86 178.001 96.383C178.621 93.815 180.132 91.342 182.434 91.557Z" fill="#B0BEC5"/>
<path opacity="0.1" d="M182.434 91.557C184.834 91.79 188.482 98.612 188.482 98.612L182.422 103.26C182.422 103.26 177.406 98.86 178.001 96.383C178.621 93.815 180.132 91.342 182.434 91.557Z" fill="black"/>
<path d="M180.623 94.496C180.011 94.331 179.377 94.2605 178.744 94.287C178.422 94.9583 178.173 95.6624 178.001 96.387C177.387 98.843 182.422 103.264 182.422 103.264L182.87 102.92L180.623 94.496Z" fill="#B0BEC5"/>
<path opacity="0.3" d="M180.623 94.496C180.011 94.331 179.377 94.2605 178.744 94.287C178.422 94.9583 178.173 95.6624 178.001 96.387C177.387 98.843 182.422 103.264 182.422 103.264L182.87 102.92L180.623 94.496Z" fill="black"/>
<path d="M162.185 101.043C160.435 105.47 158.593 109.97 157.126 114.41C157.026 114.692 156.948 114.963 156.862 115.239L156.653 115.921C156.596 116.122 156.596 116.334 156.653 116.535C157 117.301 157.55 117.958 158.243 118.435C160.079 119.752 162.079 120.824 164.193 121.622L163.64 123.881C161.04 123.538 158.526 122.718 156.223 121.462C154.807 120.705 153.653 119.536 152.914 118.11C152.49 117.198 152.343 116.182 152.49 115.187C152.504 115.065 152.525 114.944 152.551 114.825L152.612 114.567L152.712 114.1C152.786 113.787 152.859 113.486 152.939 113.179C153.553 110.723 154.339 108.39 155.168 106.079C155.997 103.768 156.863 101.479 157.839 99.202L162.185 101.043Z" fill="#E4897B"/>
<path d="M158.458 94.829C158.458 94.829 156.383 95.879 164.242 122.078L182.772 119.659C181.472 112.159 180.856 107.508 182.434 91.559C179.777 91.3687 177.11 91.3687 174.452 91.559C171.623 91.7234 168.81 92.0927 166.034 92.664C162.48 93.454 158.458 94.829 158.458 94.829Z" fill="#B0BEC5"/>
<path opacity="0.1" d="M158.458 94.829C158.458 94.829 156.383 95.879 164.242 122.078L182.772 119.659C181.472 112.159 180.856 107.508 182.434 91.559C179.777 91.3687 177.11 91.3687 174.452 91.559C171.623 91.7234 168.81 92.0927 166.034 92.664C162.48 93.454 158.458 94.829 158.458 94.829Z" fill="black"/>
<path d="M182.911 118.536L183.973 120.077C184.053 120.2 183.919 120.347 183.71 120.377L164.273 122.918C164.107 122.918 163.955 122.875 163.93 122.771L163.548 121.132C163.517 121.021 163.648 120.905 163.837 120.88L182.601 118.424C182.658 118.415 182.716 118.421 182.769 118.44C182.823 118.459 182.871 118.492 182.908 118.535L182.911 118.536Z" fill="#B0BEC5"/>
<path opacity="0.2" d="M182.911 118.536L183.973 120.077C184.053 120.2 183.919 120.347 183.71 120.377L164.273 122.918C164.107 122.918 163.955 122.875 163.93 122.771L163.548 121.132C163.517 121.021 163.648 120.905 163.837 120.88L182.601 118.424C182.658 118.415 182.716 118.421 182.769 118.44C182.823 118.459 182.871 118.492 182.908 118.535L182.911 118.536Z" fill="black"/>
<path d="M180.66 120.961L181.16 120.893C181.26 120.893 181.326 120.819 181.314 120.758L180.798 118.634C180.779 118.598 180.747 118.569 180.709 118.554C180.671 118.538 180.629 118.536 180.589 118.548L180.089 118.609C179.989 118.609 179.917 118.683 179.935 118.75L180.451 120.868C180.463 120.937 180.561 120.973 180.66 120.961Z" fill="#263238"/>
<path d="M168.479 122.532L168.979 122.464C169.079 122.464 169.151 122.39 169.133 122.329L168.617 120.205C168.597 120.169 168.566 120.141 168.528 120.124C168.49 120.107 168.448 120.104 168.408 120.113L167.908 120.181C167.808 120.181 167.736 120.255 167.754 120.316L168.27 122.44C168.282 122.532 168.38 122.569 168.479 122.532Z" fill="#263238"/>
<path d="M159.324 103.719C159.834 106.089 160.552 109.091 161.602 112.892L161.829 103.258L159.324 103.719Z" fill="#B0BEC5"/>
<path opacity="0.3" d="M159.324 103.719C159.834 106.089 160.552 109.091 161.602 112.892L161.829 103.258L159.324 103.719Z" fill="black"/>
<path d="M158.458 94.825C156.158 95.752 154.158 103.625 154.158 103.625L162.079 107.481C162.079 107.481 165.904 97.847 164.191 95.969C162.478 94.091 161.11 93.766 158.458 94.825Z" fill="#B0BEC5"/>
<path opacity="0.1" d="M158.458 94.825C156.158 95.752 154.158 103.625 154.158 103.625L162.079 107.481C162.079 107.481 165.904 97.847 164.191 95.969C162.478 94.091 161.11 93.766 158.458 94.825Z" fill="black"/>
<path d="M172.316 217.813H163.972L163.321 215.013L172.611 215.074L172.316 217.813Z" fill="#B0BEC5"/>
<path opacity="0.2" d="M172.316 217.813H163.972L163.321 215.013L172.611 215.074L172.316 217.813Z" fill="black"/>
<path d="M164.323 120.863L163.654 120.587C163.489 120.52 163.31 120.498 163.134 120.523C162.958 120.548 162.792 120.619 162.652 120.728C162.513 120.838 162.404 120.983 162.339 121.148C162.273 121.313 162.252 121.492 162.279 121.668L162.764 124.868C162.787 125.028 162.845 125.181 162.935 125.316C163.025 125.45 163.143 125.564 163.282 125.647C163.42 125.731 163.576 125.782 163.737 125.798C163.898 125.814 164.06 125.794 164.213 125.74C164.456 125.651 164.684 125.525 164.888 125.365C165.11 125.181 165.285 124.947 165.4 124.682C165.516 124.418 165.567 124.13 165.551 123.842L165.483 122.516C165.471 122.158 165.355 121.81 165.149 121.517C164.943 121.223 164.656 120.997 164.323 120.864V120.863Z" fill="#E4897B"/>
</svg>
