<svg width="179" height="142" viewBox="0 0 179 142" fill="none" xmlns="http://www.w3.org/2000/svg">
<path d="M178.131 116.545H0.906982V116.634H178.131V116.545Z" fill="#EBEBEB"/>
<path d="M62.304 118.805H54.088V118.894H62.304V118.805Z" fill="#EBEBEB"/>
<path d="M163.517 120.705H143.43V120.794H163.517V120.705Z" fill="#EBEBEB"/>
<path d="M36.136 120.705H16.049V120.794H36.136V120.705Z" fill="#EBEBEB"/>
<path d="M84.911 100.736H16.47C15.9339 100.735 15.4201 100.521 15.0414 100.142C14.6627 99.7624 14.45 99.2482 14.45 98.7121V2.50405C14.4547 1.97107 14.6695 1.46147 15.0477 1.08589C15.4259 0.710315 15.937 0.499079 16.47 0.498047H84.91C85.1758 0.498047 85.439 0.550399 85.6845 0.652115C85.9301 0.75383 86.1532 0.902916 86.3412 1.09086C86.5291 1.27881 86.6782 1.50193 86.7799 1.74749C86.8816 1.99306 86.934 2.25625 86.934 2.52205V98.7121C86.934 99.2487 86.7209 99.7633 86.3415 100.143C85.9622 100.522 85.4476 100.736 84.911 100.736ZM16.47 0.569046C15.9577 0.57037 15.4668 0.774822 15.105 1.13756C14.7432 1.5003 14.54 1.99172 14.54 2.50405V98.7121C14.54 99.2247 14.7434 99.7164 15.1057 100.079C15.4679 100.442 15.9593 100.646 16.472 100.647H84.912C85.4246 100.645 85.9157 100.441 86.2782 100.078C86.6407 99.7158 86.8451 99.2247 86.847 98.7121V2.50405C86.8451 1.99142 86.6407 1.50032 86.2782 1.13783C85.9157 0.775349 85.4246 0.57089 84.912 0.569046H16.47Z" fill="#EBEBEB"/>
<path d="M161.582 100.736H93.138C92.6017 100.734 92.088 100.52 91.7088 100.141C91.3297 99.762 91.1158 99.2483 91.114 98.7121V2.50405C91.1195 1.97062 91.3351 1.46087 91.714 1.08535C92.0929 0.709828 92.6045 0.498808 93.138 0.498047H161.582C162.114 0.499867 162.625 0.711453 163.002 1.08694C163.38 1.46244 163.594 1.97158 163.599 2.50405V98.7121C163.599 98.9774 163.548 99.2402 163.447 99.4856C163.346 99.7309 163.197 99.954 163.01 100.142C162.823 100.33 162.6 100.479 162.355 100.581C162.11 100.683 161.847 100.736 161.582 100.736ZM93.138 0.569046C92.6253 0.57089 92.1343 0.775349 91.7718 1.13783C91.4093 1.50032 91.2048 1.99142 91.203 2.50405V98.7121C91.2048 99.2247 91.4093 99.7158 91.7718 100.078C92.1343 100.441 92.6253 100.645 93.138 100.647H161.582C162.095 100.645 162.586 100.441 162.948 100.078C163.311 99.7158 163.515 99.2247 163.517 98.7121V2.50405C163.515 1.99142 163.311 1.50032 162.948 1.13783C162.586 0.775349 162.095 0.57089 161.582 0.569046H93.138Z" fill="#EBEBEB"/>
<path d="M76.816 66.6484H26.92V116.544H76.816V66.6484Z" fill="#E0E0E0"/>
<path d="M67.961 66.6484H22.138V116.544H67.961V66.6484Z" fill="#EBEBEB"/>
<path d="M66.058 69.3496H23.985V82.9746H66.058V69.3496Z" fill="#F5F5F5"/>
<path d="M66.058 85.1191H23.985V98.7441H66.058V85.1191Z" fill="#F5F5F5"/>
<path d="M66.058 100.223H23.985V113.848H66.058V100.223Z" fill="#F5F5F5"/>
<path d="M45.471 75.407C45.471 75.7014 45.3837 75.9893 45.22 76.2342C45.0564 76.4791 44.8239 76.6699 44.5518 76.7826C44.2797 76.8953 43.9803 76.9248 43.6915 76.8673C43.4027 76.8099 43.1373 76.6681 42.9291 76.4598C42.7209 76.2516 42.579 75.9863 42.5216 75.6974C42.4641 75.4086 42.4936 75.1092 42.6063 74.8371C42.719 74.565 42.9099 74.3325 43.1547 74.1689C43.3996 74.0053 43.6875 73.918 43.982 73.918C44.3769 73.918 44.7556 74.0748 45.0349 74.3541C45.3141 74.6333 45.471 75.012 45.471 75.407Z" fill="#FAFAFA"/>
<path d="M45.05 105.655C45.05 105.865 44.9876 106.071 44.8708 106.245C44.754 106.42 44.588 106.556 44.3938 106.637C44.1995 106.717 43.9858 106.738 43.7796 106.697C43.5734 106.656 43.384 106.555 43.2353 106.406C43.0867 106.258 42.9854 106.068 42.9444 105.862C42.9034 105.656 42.9244 105.442 43.0049 105.248C43.0854 105.054 43.2216 104.888 43.3964 104.771C43.5712 104.654 43.7767 104.592 43.987 104.592C44.2689 104.592 44.5393 104.704 44.7386 104.903C44.938 105.102 45.05 105.373 45.05 105.655Z" fill="#FAFAFA"/>
<path d="M45.05 91.7251C45.05 91.9353 44.9876 92.1409 44.8708 92.3157C44.754 92.4905 44.588 92.6267 44.3938 92.7072C44.1995 92.7876 43.9858 92.8087 43.7796 92.7677C43.5734 92.7267 43.384 92.6254 43.2353 92.4767C43.0867 92.3281 42.9854 92.1387 42.9444 91.9325C42.9034 91.7263 42.9244 91.5125 43.0049 91.3183C43.0854 91.1241 43.2216 90.9581 43.3964 90.8412C43.5712 90.7244 43.7767 90.6621 43.987 90.6621C44.2689 90.6621 44.5393 90.7741 44.7386 90.9734C44.938 91.1728 45.05 91.4432 45.05 91.7251Z" fill="#FAFAFA"/>
<path d="M83.054 5.34961H25.045V43.5836H83.054V5.34961Z" fill="#E0E0E0"/>
<path d="M81.934 5.34961H23.925V43.5836H81.934V5.34961Z" fill="#F0F0F0"/>
<path d="M79.8 7.17188H25.591V42.0639H79.8V7.17188Z" fill="#FAFAFA"/>
<path d="M77.971 7.66797L62.549 42.068H56.211L71.045 7.66797H77.971Z" fill="white"/>
<path d="M65.335 7.66797L49.672 42.068H42.243L58.623 7.66797H65.335Z" fill="white"/>
<path d="M82.976 5.34961H23.925V7.66761H82.976V5.34961Z" fill="#E0E0E0"/>
<path d="M82.976 8.26758H23.925V10.5856H82.976V8.26758Z" fill="#E0E0E0"/>
<path d="M82.976 11.1855H23.925V13.5035H82.976V11.1855Z" fill="#E0E0E0"/>
<path d="M82.976 14.0977H23.925V16.4157H82.976V14.0977Z" fill="#E0E0E0"/>
<path d="M82.976 17.0156H23.925V19.3336H82.976V17.0156Z" fill="#E0E0E0"/>
<path d="M84.737 43.5859H22.659V46.4709H84.737V43.5859Z" fill="#E0E0E0"/>
<path d="M156.57 86.834V116.544H146.07L145.51 113.57H104.718V86.834H156.57Z" fill="#E0E0E0"/>
<path d="M149.378 86.834V116.544H146.071L145.511 113.57H103.906L103.247 116.544H97.526V86.834H149.378Z" fill="#EBEBEB"/>
<path d="M146.453 88.918H100.159V99.154H146.453V88.918Z" stroke="#FAFAFA" stroke-miterlimit="10"/>
<path d="M146.453 101.193H100.159V111.532H146.453V101.193Z" stroke="#FAFAFA" stroke-miterlimit="10"/>
<path d="M155.638 3.83984H134.821V31.9938H155.638V3.83984Z" fill="#E0E0E0"/>
<path d="M154.596 3.82227H133.779V31.9763H154.596V3.82227Z" fill="#E6E6E6"/>
<path d="M153.515 4.87891H134.821V30.9629H153.515V4.87891Z" fill="#FAFAFA"/>
<path d="M151.608 25.3027H137.32V25.9127H151.608V25.3027Z" fill="#E0E0E0"/>
<path d="M151.608 26.8574H137.32V27.4674H151.608V26.8574Z" fill="#E0E0E0"/>
<path d="M151.608 28.4141H137.32V29.0241H151.608V28.4141Z" fill="#E0E0E0"/>
<path d="M149.566 14.5282C149.567 15.7078 149.159 16.8513 148.411 17.7638C147.663 18.6764 146.622 19.3015 145.466 19.5327C144.309 19.7639 143.108 19.587 142.067 19.032C141.026 18.477 140.209 17.5784 139.757 16.489C139.304 15.3997 139.243 14.1871 139.584 13.0577C139.925 11.9284 140.646 10.9522 141.626 10.2953C142.606 9.63848 143.784 9.34166 144.958 9.45541C146.132 9.56916 147.23 10.0864 148.066 10.9192C148.541 11.3926 148.918 11.955 149.175 12.5743C149.433 13.1936 149.566 13.8575 149.566 14.5282Z" stroke="#E0E0E0" stroke-miterlimit="10"/>
<path d="M147.489 39.2637H129.713V57.0397H147.489V39.2637Z" fill="#E0E0E0"/>
<path d="M145.969 39.2637H128.193V57.0397H145.969V39.2637Z" fill="#EBEBEB"/>
<path d="M144.742 40.4941H129.423V55.8131H144.742V40.4941Z" fill="#FAFAFA"/>
<path d="M141.144 44.0879H133.02V52.2119H141.144V44.0879Z" fill="#E0E0E0"/>
<path d="M88.838 141.466C121.56 141.466 148.087 139.46 148.087 136.986C148.087 134.512 121.56 132.506 88.838 132.506C56.1157 132.506 29.589 134.512 29.589 136.986C29.589 139.46 56.1157 141.466 88.838 141.466Z" fill="#F5F5F5"/>
<path d="M57.796 113.287H35.99V137.896H57.796V113.287Z" fill="#278DFF"/>
<path d="M68.699 113.287H46.893V137.896H68.699V113.287Z" fill="#278DFF"/>
<path opacity="0.7" d="M57.796 113.287H35.99V137.896H57.796V113.287Z" fill="white"/>
<path opacity="0.2" d="M68.695 113.287H57.771V137.896H68.695V113.287Z" fill="white"/>
<path d="M63.0054 130.505C64.5375 130.469 65.7294 128.295 65.6675 125.649C65.6056 123.003 64.3134 120.888 62.7812 120.923C61.2491 120.959 60.0572 123.133 60.1191 125.779C60.1809 128.425 61.4732 130.541 63.0054 130.505Z" fill="white"/>
<path d="M64.565 124.906L63.381 124.934L63.335 122.928L62.421 122.949L62.467 124.955L61.167 124.987L61.202 126.55L62.502 126.518L62.552 128.506L63.466 128.485L63.42 126.497L64.604 126.469L64.565 124.906Z" fill="#278DFF"/>
<path d="M49.547 113.287H45.131V117.703H49.547V113.287Z" fill="#F5F5F5"/>
<path d="M49.547 122.109H45.131V137.896H49.547V122.109Z" fill="#F5F5F5"/>
<path d="M64.782 93.1016H46.893V113.295H64.782V93.1016Z" fill="#278DFF"/>
<path d="M73.728 93.1016H55.839V113.295H73.728V93.1016Z" fill="#278DFF"/>
<path opacity="0.7" d="M61.992 93.1016H46.893V113.295H61.992V93.1016Z" fill="white"/>
<path opacity="0.2" d="M73.728 93.1016H61.992V113.295H73.728V93.1016Z" fill="white"/>
<path d="M70.134 103.249C70.187 105.418 69.209 107.205 67.951 107.233C66.693 107.261 65.633 105.525 65.583 103.355C65.533 101.185 66.516 99.3887 67.766 99.3887C69.016 99.3887 70.084 101.076 70.134 103.249Z" fill="white"/>
<path d="M69.238 102.639L68.267 102.66L68.228 101.012L67.477 101.03L67.516 102.678L66.446 102.703L66.478 103.986L67.545 103.961L67.584 105.595L68.335 105.574L68.296 103.944L69.267 103.923L69.238 102.639Z" fill="#278DFF"/>
<path d="M54.393 93.1016H50.767V113.295H54.393V93.1016Z" fill="#F5F5F5"/>
<path d="M85.404 65.7526C85.404 65.7526 80.183 90.4786 79.733 98.6806C79.283 106.883 81.424 127.494 81.424 127.494L88.095 128.557L89.367 102.257L92.291 82.2056C92.291 82.2056 95.353 98.5056 96.672 102.328C97.991 106.15 104.282 117.215 109.478 126.058L113.944 122.786C113.944 122.786 105.597 98.9176 104.172 94.2566C102.747 89.5956 103.711 69.8356 99.316 64.2246L85.404 65.7526Z" fill="#278DFF"/>
<path opacity="0.4" d="M85.404 65.7526C85.404 65.7526 80.183 90.4786 79.733 98.6806C79.283 106.883 81.424 127.494 81.424 127.494L88.095 128.557L89.367 102.257L92.291 82.2056C92.291 82.2056 95.353 98.5056 96.672 102.328C97.991 106.15 104.282 117.215 109.478 126.058L113.944 122.786C113.944 122.786 105.597 98.9176 104.172 94.2566C102.747 89.5956 103.711 69.8356 99.316 64.2246L85.404 65.7526Z" fill="white"/>
<path d="M86.644 134.339C85.4667 134.254 84.2988 134.069 83.153 133.786L82.919 130.369L82.827 129.029L86.371 128.717C86.371 128.717 86.431 129.738 86.495 130.907C86.566 132.439 86.683 134.222 86.644 134.339Z" fill="#B55B52"/>
<path opacity="0.2" d="M86.481 130.908L82.919 130.369L82.827 129.029L86.371 128.717C86.371 128.717 86.418 129.738 86.481 130.908Z" fill="black"/>
<path d="M80.619 134.988L80.477 134.788C80.435 134.728 79.414 133.299 79.563 132.598C79.5768 132.529 79.6056 132.465 79.6473 132.409C79.6889 132.353 79.7424 132.307 79.804 132.275C79.8542 132.244 79.9118 132.229 79.9705 132.229C80.0291 132.229 80.0867 132.244 80.137 132.275C80.644 132.583 80.626 134.526 80.623 134.756L80.619 134.988ZM79.981 132.393C79.9459 132.394 79.9117 132.404 79.881 132.421C79.8407 132.443 79.8057 132.474 79.7783 132.512C79.7509 132.549 79.7317 132.592 79.722 132.637C79.612 133.119 80.186 134.055 80.466 134.487C80.466 133.803 80.374 132.605 80.058 132.414C80.0346 132.399 80.0075 132.392 79.98 132.393H79.981Z" fill="#278DFF"/>
<path d="M80.261 135.008L80.0549 134.923C79.8349 134.834 77.907 134.03 77.787 133.339C77.7759 133.269 77.7834 133.197 77.8089 133.13C77.8343 133.064 77.8767 133.005 77.9319 132.96C77.99 132.906 78.0602 132.867 78.1365 132.845C78.2128 132.823 78.2932 132.82 78.371 132.836C79.151 132.971 80.1149 134.736 80.1429 134.81L80.261 135.008ZM78.2729 132.984C78.2299 132.985 78.1874 132.994 78.1479 133.011C78.1085 133.028 78.0728 133.053 78.043 133.084C78.0061 133.11 77.9772 133.145 77.9595 133.187C77.9419 133.228 77.9361 133.274 77.9429 133.318C78.0209 133.772 79.226 134.381 79.892 134.686C79.616 134.215 78.8999 133.095 78.3389 132.995L78.2729 132.984Z" fill="#278DFF"/>
<path d="M86.531 134.147L82.951 133.583C82.7285 133.548 82.5009 133.597 82.313 133.721C81.4828 134.282 80.5487 134.67 79.566 134.862C78.035 135.078 76.674 134.777 76.546 135.217C76.4736 135.503 76.4992 135.805 76.6187 136.074C76.7382 136.343 76.9447 136.565 77.205 136.702C77.705 136.964 83.876 137.921 86.477 138.318C86.6132 138.339 86.7523 138.328 86.8837 138.287C87.0151 138.246 87.1355 138.175 87.2356 138.08C87.3357 137.986 87.413 137.87 87.4615 137.741C87.5101 137.612 87.5287 137.474 87.516 137.336L87.293 134.961C87.2734 134.761 87.1881 134.572 87.0503 134.425C86.9125 134.278 86.7299 134.18 86.531 134.147Z" fill="#222221"/>
<path d="M80.541 126.676L81.101 129.625L88.401 130.32L88.617 127.336L80.541 126.676Z" fill="#278DFF"/>
<path d="M116.187 126.484C115.213 127.151 114.184 127.733 113.11 128.224L111.005 125.909L109.905 124.693L111.025 123.63L112.478 122.258C112.478 122.258 112.627 122.428 112.871 122.698L114.161 124.151C115.117 125.239 116.138 126.395 116.187 126.484Z" fill="#B55B52"/>
<path opacity="0.2" d="M114.16 124.156L111.005 125.91L109.905 124.694L111.025 123.631L112.872 122.699L114.16 124.156Z" fill="black"/>
<path d="M112.079 129.639L111.895 129.554C111.828 129.526 110.272 128.813 110.123 128.186C110.11 128.123 110.112 128.058 110.129 127.996C110.146 127.935 110.179 127.878 110.223 127.832C110.27 127.771 110.333 127.724 110.405 127.695C110.477 127.667 110.555 127.657 110.631 127.669C111.262 127.769 111.918 129.285 111.992 129.459L112.079 129.639ZM110.573 127.817C110.53 127.818 110.488 127.829 110.45 127.848C110.412 127.868 110.379 127.896 110.353 127.931C110.325 127.96 110.304 127.995 110.294 128.035C110.283 128.074 110.283 128.115 110.293 128.154C110.378 128.554 111.257 129.061 111.764 129.317C111.519 128.792 111.016 127.899 110.616 127.817H110.573Z" fill="#278DFF"/>
<path d="M109.747 130.382C109.429 130.415 109.11 130.333 108.847 130.152C108.779 130.085 108.733 130 108.712 129.907C108.691 129.814 108.697 129.717 108.73 129.627C108.754 129.517 108.805 129.414 108.877 129.327C108.949 129.24 109.041 129.171 109.145 129.127C110.07 128.709 112.137 129.761 112.225 129.808L112.402 129.9L112.211 129.957C111.409 130.192 110.582 130.335 109.747 130.382ZM109.68 129.191C109.517 129.186 109.356 129.215 109.205 129.276C109.124 129.311 109.052 129.364 108.996 129.432C108.94 129.5 108.901 129.58 108.882 129.666C108.861 129.726 108.857 129.791 108.869 129.853C108.882 129.915 108.911 129.973 108.953 130.02C109.378 130.431 111.112 130.073 111.959 129.846C111.242 129.5 110.471 129.278 109.68 129.191Z" fill="#278DFF"/>
<path d="M115.982 126.356L112.827 128.128C112.63 128.236 112.482 128.414 112.412 128.628C112.11 129.583 111.618 130.467 110.966 131.228C109.903 132.352 108.648 132.961 108.822 133.383C108.941 133.652 109.148 133.873 109.409 134.01C109.669 134.147 109.969 134.192 110.258 134.138C110.814 134.032 116.245 130.948 118.531 129.651C118.651 129.582 118.753 129.487 118.831 129.372C118.908 129.258 118.959 129.127 118.978 128.991C118.997 128.854 118.985 128.714 118.942 128.583C118.899 128.452 118.827 128.332 118.731 128.233L117.083 126.507C116.941 126.364 116.757 126.272 116.558 126.245C116.359 126.218 116.157 126.256 115.982 126.356Z" fill="#222221"/>
<path d="M106.852 124.531L109.124 126.502L115.281 122.511L113.597 120.037L106.852 124.531Z" fill="#278DFF"/>
<path d="M92.809 34.8801C95.5374 34.6643 98.2827 34.8411 100.961 35.4051C104.861 36.2241 97.913 41.0191 97.913 41.0191L95.737 49.7311L91.749 49.766L91.267 37.3961L92.809 34.8801Z" fill="#EBEBEB"/>
<path d="M100.957 35.4146L92.5 48.7596L93.436 34.7656C92.0868 34.7847 90.7408 34.903 89.409 35.1196C88.456 35.3956 87.637 37.6196 86.953 40.6706C86.269 43.7216 85.23 51.0276 85.23 51.0276L80.371 91.7856C80.371 91.7856 96.984 95.3296 104.81 92.5756C104.81 92.5756 101.868 55.9646 102.354 53.7036C102.84 51.4426 104.41 43.1696 104.41 43.1696C104.41 43.1696 106.586 39.0406 105.64 37.8246C104.694 36.6086 100.957 35.4146 100.957 35.4146Z" fill="#407BFC"/>
<path d="M90.986 61.0918L92.191 93.4388" stroke="white" stroke-width="0.75" stroke-linecap="round" stroke-linejoin="round"/>
<path d="M89.9599 35.8162L60.641 45.8086L68.0252 67.4748L97.3442 57.4824L89.9599 35.8162Z" fill="#278DFF"/>
<path d="M89.959 35.8152L68.02 67.4712L63.901 65.6032L56.52 43.9432L85.84 33.9512L89.959 35.8152Z" fill="#278DFF"/>
<path opacity="0.7" d="M89.959 35.8152L60.639 45.8072L68.02 67.4712L63.901 65.6032L56.52 43.9432L85.84 33.9512L89.959 35.8152Z" fill="white"/>
<path opacity="0.46" d="M89.9599 35.8162L60.641 45.8086L68.0252 67.4748L97.3442 57.4824L89.9599 35.8162Z" fill="white"/>
<path d="M83.6827 58.0583C87.2175 55.1675 87.7395 49.9586 84.8487 46.4238C81.9578 42.8891 76.7489 42.3671 73.2142 45.2579C69.6794 48.1487 69.1574 53.3577 72.0482 56.8924C74.9391 60.4271 80.148 60.9491 83.6827 58.0583Z" fill="#FAFAFA"/>
<path d="M83.415 48.7891L80.044 49.8891L78.959 46.5781L76.354 47.4321L77.439 50.7431L73.732 51.9551L74.572 54.5321L78.283 53.3161L79.357 56.5981L81.962 55.7441L80.888 52.4621L84.259 51.3621L83.415 48.7891Z" fill="#278DFF"/>
<path d="M93.418 17.5623V12.4053C93.418 12.4053 99.064 9.86429 104.463 15.0533L101.982 20.0533L93.418 17.5623Z" fill="#278DFF"/>
<path d="M98.8416 13.1595L98.202 13.0332L97.8153 14.9914L98.4549 15.1177L98.8416 13.1595Z" fill="white"/>
<path d="M97.4203 13.5596L97.294 14.1992L99.2522 14.5859L99.3785 13.9462L97.4203 13.5596Z" fill="white"/>
<path d="M101.57 27.0817C100.539 28.5667 99.5919 28.3617 99.5919 28.3617C99.282 28.9259 98.8782 29.4331 98.3979 29.8617C98.2279 34.4947 99.5919 35.7457 99.5919 35.7457C98.1739 37.9327 96.4229 37.8727 94.6509 37.2347C94.1783 37.1117 93.7511 36.8551 93.4206 36.4956C93.09 36.1361 92.87 35.689 92.787 35.2077C93.3455 35.0046 93.8032 34.5922 94.0632 34.0577C94.3232 33.5232 94.365 32.9085 94.1799 32.3437C94.0895 32.0173 93.9549 31.7047 93.78 31.4147C90.771 30.5887 89.902 27.7037 90.108 24.9817C90.2358 23.3306 90.6415 21.7128 91.308 20.1967L93.0739 17.5117L100.004 18.9297L100.376 22.6017L98.9579 25.3237C101.457 23.4767 102.612 25.5787 101.57 27.0817Z" fill="#B55B52"/>
<path d="M93.422 27.0465C93.2547 27.0474 93.0875 27.0357 92.922 27.0115C92.9059 27.0087 92.8905 27.0027 92.8767 26.994C92.863 26.9852 92.851 26.9738 92.8417 26.9604C92.8323 26.9471 92.8256 26.932 92.8221 26.916C92.8185 26.9001 92.8182 26.8836 92.821 26.8675C92.8238 26.8514 92.8298 26.836 92.8385 26.8223C92.8473 26.8085 92.8587 26.7966 92.872 26.7872C92.8854 26.7778 92.9005 26.7712 92.9165 26.7676C92.9324 26.7641 92.9489 26.7637 92.965 26.7665C93.4386 26.8542 93.9274 26.8069 94.3754 26.63C94.8235 26.4532 95.2128 26.154 95.499 25.7665C95.5168 25.7408 95.5437 25.7228 95.5742 25.7159C95.6047 25.7091 95.6367 25.7139 95.6638 25.7295C95.691 25.7451 95.7113 25.7702 95.7207 25.8001C95.7302 25.8299 95.7281 25.8621 95.715 25.8905C95.4689 26.2685 95.1271 26.5746 94.7243 26.7777C94.3216 26.9807 93.8722 27.0735 93.422 27.0465Z" fill="#263238"/>
<path d="M92.933 25.427C93.007 25.427 93.309 23.166 93.309 23.166L91.7 25.101C91.8657 25.2479 92.0636 25.3538 92.2777 25.4105C92.4919 25.4671 92.7163 25.4727 92.933 25.427Z" fill="#A02724"/>
<path d="M95.428 23.2113C95.389 23.4913 95.215 23.7003 95.042 23.6753C94.869 23.6503 94.758 23.4023 94.797 23.1223C94.836 22.8423 95.01 22.6293 95.183 22.6543C95.356 22.6793 95.464 22.9273 95.428 23.2113Z" fill="#263238"/>
<path d="M92.001 22.8988C91.962 23.1788 91.788 23.3878 91.615 23.3628C91.442 23.3378 91.331 23.0938 91.37 22.8098C91.409 22.5258 91.583 22.3208 91.756 22.3458C91.929 22.3708 92.057 22.6158 92.001 22.8988Z" fill="#263238"/>
<path d="M96.814 21.9427C96.7822 21.9419 96.7513 21.9321 96.7249 21.9144C96.6985 21.8967 96.6777 21.8718 96.665 21.8427C96.243 20.9427 95.648 21.0627 95.623 21.0667C95.582 21.0723 95.5404 21.0624 95.5062 21.0391C95.4721 21.0158 95.4478 20.9806 95.4381 20.9404C95.4284 20.9002 95.4339 20.8578 95.4537 20.8215C95.4734 20.7851 95.506 20.7574 95.545 20.7437C95.58 20.7437 96.424 20.5437 96.963 21.7007C96.9724 21.7207 96.9777 21.7423 96.9787 21.7644C96.9796 21.7865 96.9762 21.8086 96.9686 21.8293C96.9609 21.85 96.9493 21.8691 96.9342 21.8853C96.9192 21.9015 96.9011 21.9145 96.881 21.9237C96.8603 21.9349 96.8374 21.9414 96.814 21.9427Z" fill="#263238"/>
<path d="M90.912 21.3466C90.8697 21.3468 90.8291 21.3303 90.799 21.3006C90.7833 21.2854 90.7708 21.2672 90.7623 21.2471C90.7538 21.227 90.7495 21.2054 90.7495 21.1836C90.7495 21.1618 90.7538 21.1402 90.7623 21.1201C90.7708 21.1 90.7833 21.0818 90.799 21.0666C91.0763 20.7795 91.4293 20.5768 91.8171 20.4822C92.2048 20.3875 92.6115 20.4046 92.99 20.5316C93.0108 20.5391 93.03 20.5506 93.0463 20.5656C93.0627 20.5805 93.0759 20.5986 93.0852 20.6187C93.0945 20.6388 93.0997 20.6605 93.1005 20.6827C93.1014 20.7048 93.0978 20.7269 93.09 20.7476C93.0727 20.7887 93.04 20.8214 92.9988 20.8386C92.9576 20.8559 92.9114 20.8562 92.87 20.8396C92.5533 20.739 92.2149 20.7285 91.8926 20.8092C91.5703 20.8899 91.2768 21.0586 91.045 21.2966C91.0283 21.3149 91.0076 21.3289 90.9845 21.3376C90.9614 21.3463 90.9365 21.3494 90.912 21.3466Z" fill="#263238"/>
<path opacity="0.2" d="M95.322 31.2246C95.0448 31.6816 94.6555 32.0602 94.191 32.3246C94.1005 31.9982 93.966 31.6856 93.791 31.3956C94.3076 31.4448 94.8289 31.3866 95.322 31.2246Z" fill="black"/>
<path d="M99.675 19.2432C99.675 19.2432 93.695 20.8432 91.313 19.9942C88.931 19.1452 89.764 16.2192 90.087 15.9432C90.527 15.5672 91.487 17.1202 91.487 17.1202C91.487 17.1202 90.704 15.4582 91.317 15.0932C91.93 14.7282 92.026 17.2202 94.259 16.9572C96.492 16.6942 102.681 15.0112 103.046 18.9032C103.264 21.2353 102.885 23.5845 101.946 25.7302C101.946 25.7302 101.616 23.6032 98.983 25.2942C98.8629 25.2115 98.7648 25.1008 98.697 24.9717C98.6292 24.8427 98.5938 24.699 98.5938 24.5532C98.5938 24.4074 98.6292 24.2638 98.697 24.1347C98.7648 24.0057 98.8629 23.895 98.983 23.8122C100.507 22.3272 99.976 20.3742 99.675 19.2432Z" fill="#263238"/>
<path d="M99.0399 18.9301C99.0399 18.9301 98.001 22.3301 99.912 22.1631C101.823 21.9961 100.649 18.4551 100.649 18.4551L99.0399 18.9301Z" fill="#263238"/>
<path d="M94.013 17.1572C94.013 17.1572 92.765 16.2392 93.084 15.5732C93.403 14.9072 93.899 16.5162 96.384 16.2222C98.869 15.9282 101.818 15.7052 102.364 17.3532C102.91 19.0012 97.402 17.7462 97.402 17.7462L94.002 18.4762L94.013 17.1572Z" fill="#263238"/>
<path d="M93.584 57.7264L91.184 57.0494C91.184 57.0494 88.348 56.8754 88.111 57.9564C87.874 59.0374 87.757 60.9014 88.884 61.0504C90.4294 61.1126 91.9771 61.0889 93.52 60.9794L93.584 57.7264Z" fill="#B55B52"/>
<path d="M101.773 41.2606L105.64 37.8086C105.64 37.8086 110.429 48.4416 110.698 52.5286C110.967 56.6156 107.809 58.4516 105.133 59.1386C102.457 59.8256 93.589 61.6586 93.589 61.6586L93.11 56.7246C93.11 56.7246 102.556 55.1116 106.193 53.4426C106.18 53.4536 102.907 43.9366 101.773 41.2606Z" fill="#278DFF"/>
<path opacity="0.1" d="M93.588 61.6678L102.527 59.7578L102.552 61.1048L93.588 61.6678Z" fill="black"/>
<path d="M94.659 37.2153L95.676 39.9023C97.2921 38.7126 98.7795 37.3572 100.114 35.8584L98.64 33.4023C97.7455 35.0593 96.3529 36.3931 94.659 37.2153Z" fill="#FAFAFA"/>
<path d="M93.9109 34.2773C93.9403 35.2994 94.1943 36.3025 94.655 37.2153L93.546 39.6963C92.9844 39.1276 92.5563 38.441 92.2927 37.6864C92.0291 36.9318 91.9366 36.1281 92.0219 35.3333L93.9109 34.2773Z" fill="#FAFAFA"/>
</svg>
