<svg width="136" height="127" viewBox="0 0 136 127" fill="none" xmlns="http://www.w3.org/2000/svg">
<path d="M19.916 116.801C46.4726 129.457 89.5274 129.46 116.084 116.801C142.641 104.141 142.637 83.6232 116.084 70.9673C89.5312 58.3114 46.4726 58.3114 19.916 70.9673C-6.6406 83.6232 -6.63674 104.145 19.916 116.801Z" fill="#F5F5F5"/>
<path d="M115.993 107.447C120.884 107.447 124.849 105.558 124.849 103.227C124.849 100.897 120.884 99.0076 115.993 99.0076C111.101 99.0076 107.136 100.897 107.136 103.227C107.136 105.558 111.101 107.447 115.993 107.447Z" fill="#EBEBEB"/>
<path d="M17.9023 103.831L21.0355 102.024C22.7848 100.596 24.1163 98.7227 24.8893 96.6012C25.8566 93.9344 25.7217 91.9073 25.028 90.8899C24.1763 89.6374 21.9681 89.8571 21.8795 92.4931C21.6945 97.688 20.1799 101.291 17.9023 103.831Z" fill="#9269AD"/>
<path opacity="0.2" d="M17.9023 103.831L21.0355 102.024C22.7848 100.596 24.1163 98.7227 24.8893 96.6012C25.8566 93.9344 25.7217 91.9073 25.028 90.8899C24.1763 89.6374 21.9681 89.8571 21.8795 92.4931C21.6945 97.688 20.1799 101.291 17.9023 103.831Z" fill="black"/>
<path d="M17.9017 104.023C17.8609 104.023 17.8213 104.009 17.7886 103.985C17.756 103.96 17.7319 103.926 17.7199 103.887C17.7079 103.848 17.7086 103.806 17.7219 103.768C17.7351 103.729 17.7603 103.696 17.7938 103.673C25.0389 98.6626 23.6362 91.6756 23.6207 91.6063C23.6154 91.5809 23.6152 91.5548 23.6199 91.5294C23.6247 91.504 23.6344 91.4798 23.6486 91.4581C23.6627 91.4365 23.681 91.4178 23.7023 91.4032C23.7237 91.3887 23.7477 91.3784 23.773 91.3731C23.7983 91.3678 23.8244 91.3675 23.8498 91.3723C23.8752 91.3771 23.8994 91.3868 23.9211 91.4009C23.9427 91.4151 23.9614 91.4333 23.976 91.4547C23.9906 91.476 24.0008 91.5 24.0061 91.5253C24.0061 91.5985 25.486 98.8244 18.025 103.989C17.9888 104.013 17.9455 104.025 17.9017 104.023Z" fill="white"/>
<path d="M11.6238 107.458C11.6238 107.458 10.5332 106.572 10.7952 105.369C11.0573 104.167 11.7625 103.304 10.5563 101.754C9.35006 100.205 9.01478 98.1394 10.4561 97.0218C11.5544 96.1547 13.2694 97.3802 13.886 95.0949C14.3407 93.4223 14.1866 89.7188 16.3177 88.4856C18.4489 87.2524 19.7862 89.1099 19.4509 91.6226C19.158 93.8694 18.7418 96.0314 19.0655 96.6325C19.6898 97.7887 20.7573 97.6307 20.7072 99.7426C20.6648 101.708 18.8035 103.334 18.8035 103.334L11.6238 107.458Z" fill="#9269AD"/>
<path d="M15.2029 105.574C15.1557 105.573 15.1104 105.556 15.075 105.525C15.0396 105.494 15.0166 105.451 15.0102 105.404C14.4591 100.837 15.7809 92.9524 16.86 90.6093C16.8691 90.5833 16.8836 90.5596 16.9027 90.5397C16.9217 90.5198 16.9448 90.5042 16.9703 90.494C16.9959 90.4838 17.0233 90.4792 17.0508 90.4804C17.0783 90.4817 17.1053 90.4889 17.1298 90.5014C17.1528 90.5118 17.1735 90.5267 17.1906 90.5451C17.2078 90.5636 17.2211 90.5854 17.2297 90.6091C17.2383 90.6328 17.2421 90.658 17.2408 90.6832C17.2395 90.7084 17.2332 90.7331 17.2222 90.7558C16.1547 93.0681 14.8791 100.976 15.4071 105.342C15.4125 105.393 15.3977 105.444 15.366 105.483C15.3342 105.523 15.288 105.549 15.2375 105.554L15.2029 105.574Z" fill="white"/>
<path d="M15.1002 102.015C15.0707 102.017 15.0413 102.01 15.0154 101.996C13.6781 101.345 12.8303 99.0209 12.7956 98.913C12.7861 98.889 12.7816 98.8634 12.7822 98.8376C12.7829 98.8119 12.7886 98.7865 12.7992 98.763C12.8098 98.7396 12.8251 98.7184 12.844 98.7009C12.8629 98.6834 12.8851 98.6699 12.9093 98.6611C12.9335 98.6524 12.9593 98.6486 12.985 98.6499C13.0107 98.6513 13.0359 98.6578 13.0591 98.669C13.0823 98.6803 13.1029 98.6961 13.1199 98.7155C13.1369 98.7349 13.1498 98.7575 13.1578 98.782C13.1578 98.8051 13.9864 101.056 15.1849 101.638C15.2243 101.657 15.2559 101.689 15.2748 101.728C15.2936 101.767 15.2985 101.812 15.2887 101.855C15.2788 101.897 15.2548 101.935 15.2205 101.962C15.1863 101.989 15.1438 102.004 15.1002 102.004V102.015Z" fill="white"/>
<path d="M15.0766 103.557C15.038 103.557 15.0003 103.545 14.9686 103.523C14.9369 103.501 14.9127 103.47 14.8993 103.434C14.8802 103.387 14.8803 103.334 14.8998 103.287C14.9193 103.24 14.9565 103.203 15.0034 103.183C17.254 102.281 18.6568 99.603 18.6722 99.5722C18.6957 99.5267 18.7363 99.4924 18.7851 99.4769C18.8339 99.4613 18.8869 99.4658 18.9323 99.4893C18.9778 99.5128 19.0121 99.5535 19.0276 99.6022C19.0432 99.651 19.0387 99.704 19.0152 99.7495C18.9535 99.8651 17.5315 102.586 15.1614 103.542C15.135 103.554 15.1057 103.559 15.0766 103.557Z" fill="white"/>
<path d="M93.7446 82.8242C93.7446 82.8242 92.0605 80.0957 91.8947 77.1322C91.729 74.1686 92.3803 72.9354 93.2744 72.5808C94.1685 72.2262 94.2379 73.3169 94.6965 73.9605C95.1551 74.604 96.0916 74.2379 96.4384 72.2301C96.7852 70.2223 98.0493 66.8348 100.678 66.1758C103.568 65.459 102.019 68.8503 101.29 70.1722C100.562 71.494 99.9993 73.2976 100.477 73.787C100.955 74.2765 101.699 73.3708 102.404 74.211C103.264 75.2245 100.593 78.8741 99.059 79.7566L93.7446 82.8242Z" fill="#9269AD"/>
<path d="M96.0539 81.6789C96.0286 81.6779 96.0037 81.6719 95.9807 81.6613C95.9577 81.6507 95.9371 81.6357 95.9199 81.6171C95.9027 81.5985 95.8894 81.5766 95.8806 81.5529C95.8719 81.5291 95.8679 81.5038 95.8689 81.4785C96.1299 76.7112 97.6166 72.0919 100.185 68.0673C100.2 68.0463 100.218 68.0285 100.24 68.0149C100.262 68.0014 100.286 67.9923 100.311 67.9884C100.336 67.9844 100.362 67.9856 100.387 67.9919C100.411 67.9981 100.435 68.0094 100.455 68.0249C100.495 68.0549 100.522 68.0995 100.53 68.1492C100.538 68.1989 100.526 68.2497 100.497 68.2908C97.9747 72.2565 96.5148 76.8047 96.2582 81.4978C96.2567 81.5231 96.2502 81.5479 96.2392 81.5707C96.2281 81.5935 96.2126 81.6139 96.1937 81.6308C96.1747 81.6476 96.1526 81.6605 96.1286 81.6688C96.1046 81.677 96.0792 81.6805 96.0539 81.6789Z" fill="white"/>
<path d="M96.2731 79.402C96.2409 79.4017 96.2092 79.3938 96.1806 79.3789C95.1015 78.7815 94.5042 77.0088 94.4811 76.9355C94.4726 76.9115 94.4689 76.886 94.4703 76.8606C94.4717 76.8351 94.4782 76.8102 94.4893 76.7873C94.5004 76.7643 94.516 76.7438 94.5351 76.727C94.5542 76.7101 94.5764 76.6971 94.6005 76.6889C94.6491 76.6731 94.7019 76.6772 94.7475 76.7003C94.793 76.7235 94.8275 76.7637 94.8433 76.8122C94.8433 76.8122 95.4214 78.5195 96.3849 79.0397C96.4285 79.0655 96.4605 79.1072 96.4741 79.156C96.4878 79.2049 96.482 79.2571 96.4581 79.3018C96.4407 79.3349 96.4138 79.3622 96.3808 79.38C96.3479 79.3979 96.3104 79.4055 96.2731 79.402Z" fill="white"/>
<path d="M96.4621 78.2352C96.4194 78.2347 96.378 78.2201 96.3446 78.1935C96.3111 78.167 96.2873 78.1302 96.2771 78.0887C96.2708 78.0644 96.2693 78.0391 96.2729 78.0142C96.2765 77.9894 96.285 77.9655 96.2979 77.944C96.3108 77.9224 96.3279 77.9037 96.3482 77.8888C96.3684 77.874 96.3914 77.8633 96.4158 77.8575C99.1983 77.1522 100.162 75.6955 100.169 75.6801C100.183 75.6586 100.201 75.64 100.222 75.6253C100.243 75.6107 100.266 75.6003 100.291 75.5947C100.316 75.5892 100.342 75.5886 100.367 75.593C100.392 75.5974 100.416 75.6067 100.437 75.6203C100.459 75.634 100.477 75.6518 100.492 75.6726C100.507 75.6935 100.517 75.717 100.523 75.7419C100.528 75.7668 100.529 75.7925 100.524 75.8176C100.52 75.8427 100.511 75.8667 100.497 75.8882C100.455 75.9537 99.4526 77.4837 96.5122 78.2313L96.4621 78.2352Z" fill="white"/>
<path d="M51.8156 76.8355C51.8156 76.8355 48.1198 75.9337 47.9271 69.0122C47.7229 61.5435 48.8328 52.8262 44.4587 52.121C40.0846 51.4157 37.6567 56.7456 37.7107 62.9695C37.7608 68.4187 39.9574 80.2499 51.8002 82.5699L51.8156 76.8355Z" fill="#9269AD"/>
<path opacity="0.2" d="M51.8156 76.8355C51.8156 76.8355 48.1198 75.9337 47.9271 69.0122C47.7229 61.5435 48.8328 52.8262 44.4587 52.121C40.0846 51.4157 37.6567 56.7456 37.7107 62.9695C37.7608 68.4187 39.9574 80.2499 51.8002 82.5699L51.8156 76.8355Z" fill="black"/>
<path d="M51.8149 81.8613H51.7802C49.1172 81.3758 46.9475 79.9075 45.3327 77.5027C40.5463 70.3616 42.0531 57.0274 42.5503 54.6997C42.5614 54.6501 42.5913 54.6067 42.6337 54.5787C42.6761 54.5507 42.7277 54.5402 42.7777 54.5494C42.8275 54.5614 42.8709 54.592 42.8989 54.635C42.9269 54.6781 42.9373 54.7302 42.928 54.7806C42.4385 57.0929 40.9394 70.2575 45.6526 77.2869C46.3387 78.377 47.2438 79.3126 48.3106 80.0344C49.3773 80.7562 50.5825 81.2484 51.8495 81.4798C51.8747 81.4844 51.8987 81.494 51.9201 81.508C51.9415 81.522 51.9599 81.54 51.9742 81.5612C51.9886 81.5824 51.9986 81.6062 52.0036 81.6312C52.0087 81.6563 52.0087 81.6821 52.0037 81.7072C51.9955 81.751 51.972 81.7906 51.9375 81.8188C51.9029 81.847 51.8595 81.8621 51.8149 81.8613Z" fill="white"/>
<path d="M51.814 99.6224C47.9949 100.139 41.7941 100.131 38.2139 97.3101C34.6337 94.4891 35.3814 92.0612 36.7572 91.0477C38.133 90.0341 39.3277 88.878 36.9614 86.6274C34.5952 84.3767 30.7953 80.7619 29.5621 75.3395C28.3289 69.9172 28.9378 66.5259 31.358 65.3967C33.705 64.3022 34.3254 66.0442 35.7629 69.6359C37.2004 73.2277 40.4337 70.1485 43.2008 71.2699C45.9678 72.3914 45.856 74.6112 46.0295 76.5188C46.2029 78.4264 47.1162 78.9544 48.6847 78.9544C50.2532 78.9544 51.814 79.8562 51.814 81.6521V99.6224Z" fill="#9269AD"/>
<path d="M51.8162 93.3247C51.7997 93.3284 51.7826 93.3284 51.7661 93.3247C51.6004 93.2785 47.6502 92.13 41.8965 86.8465C35.7689 81.2199 32.8786 72.78 32.8477 72.6953C32.833 72.6467 32.8376 72.5943 32.8605 72.549C32.8835 72.5038 32.9231 72.4692 32.9711 72.4525C33.0191 72.4365 33.0715 72.4401 33.117 72.4624C33.1624 72.4848 33.1972 72.5241 33.2139 72.5719C33.2408 72.6567 36.1042 81.0041 42.1585 86.5613C47.8314 91.7755 51.8278 92.9432 51.8701 92.9548C51.8944 92.9618 51.9171 92.9736 51.9368 92.9895C51.9566 93.0053 51.973 93.0249 51.9851 93.0471C51.9973 93.0693 52.005 93.0936 52.0077 93.1188C52.0105 93.144 52.0083 93.1694 52.0012 93.1937C51.9887 93.2326 51.9639 93.2664 51.9305 93.2901C51.8972 93.3137 51.8571 93.3258 51.8162 93.3247Z" fill="white"/>
<path d="M43.5031 88.1892C43.4644 88.1898 43.4265 88.1783 43.3946 88.1561C43.3628 88.134 43.3388 88.1025 43.3259 88.0659C42.0888 84.8904 41.8075 78.0961 41.7843 77.8071C41.7833 77.7562 41.8019 77.7069 41.8364 77.6696C41.8709 77.6322 41.9186 77.6097 41.9693 77.6067C42.0197 77.6074 42.0679 77.6267 42.1049 77.6608C42.1419 77.695 42.165 77.7416 42.1697 77.7917C42.1697 77.861 42.4588 84.8095 43.6727 87.9272C43.682 87.951 43.6865 87.9763 43.6859 88.0018C43.6853 88.0274 43.6796 88.0525 43.6692 88.0758C43.6588 88.0991 43.6439 88.1201 43.6253 88.1376C43.6067 88.1551 43.5848 88.1687 43.561 88.1777C43.5424 88.1844 43.5229 88.1883 43.5031 88.1892Z" fill="white"/>
<path d="M43.4724 92.7551C43.1171 92.7579 42.7619 92.7399 42.4087 92.7011C42.3834 92.6981 42.359 92.6901 42.3368 92.6776C42.3146 92.6651 42.295 92.6484 42.2793 92.6283C42.2635 92.6083 42.2519 92.5854 42.245 92.5608C42.2381 92.5363 42.2361 92.5106 42.2392 92.4853C42.2422 92.46 42.2502 92.4356 42.2627 92.4133C42.2752 92.3911 42.2919 92.3716 42.312 92.3558C42.332 92.3401 42.3549 92.3285 42.3795 92.3216C42.404 92.3147 42.4297 92.3127 42.455 92.3158C42.4897 92.3158 46.0776 92.7243 47.7232 91.0478C47.7403 91.0276 47.7614 91.011 47.7852 90.9993C47.8091 90.9876 47.8351 90.9809 47.8616 90.9797C47.8881 90.9785 47.9146 90.9828 47.9394 90.9923C47.9642 91.0018 47.9867 91.0163 48.0056 91.035C48.0245 91.0536 48.0394 91.076 48.0493 91.1006C48.0591 91.1253 48.0638 91.1517 48.0629 91.1782C48.0621 91.2048 48.0558 91.2308 48.0444 91.2548C48.033 91.2788 48.0168 91.3002 47.9968 91.3176C46.8059 92.547 44.7287 92.7551 43.4724 92.7551Z" fill="white"/>
<path d="M55.6205 104.78L91.8463 83.8615C91.9261 83.8335 91.9952 83.7813 92.0441 83.7123C92.093 83.6433 92.1193 83.5607 92.1193 83.4761C92.1193 83.3915 92.093 83.309 92.0441 83.24C91.9952 83.171 91.9261 83.1188 91.8463 83.0908L88.4973 81.1639C88.2899 81.0595 88.0609 81.0051 87.8287 81.0051C87.5965 81.0051 87.3675 81.0595 87.16 81.1639L50.9227 102.063C50.8429 102.091 50.7737 102.143 50.7248 102.212C50.6759 102.281 50.6497 102.364 50.6497 102.448C50.6497 102.533 50.6759 102.616 50.7248 102.685C50.7737 102.754 50.8429 102.806 50.9227 102.834L54.2832 104.761C54.4891 104.868 54.7173 104.926 54.9495 104.929C55.1818 104.932 55.4115 104.881 55.6205 104.78Z" fill="#E0E0E0"/>
<path d="M90.8513 3.09659L58.1865 21.9571C57.7009 22.274 57.2968 22.7008 57.0069 23.203C56.717 23.7051 56.5494 24.2685 56.5178 24.8475V102.336C56.5178 103.4 57.2654 103.831 58.1865 103.3L90.8513 84.439C91.3376 84.1227 91.7422 83.6961 92.0322 83.1938C92.3222 82.6915 92.4893 82.1278 92.5201 81.5486V4.06004C92.5201 2.99639 91.7763 2.56476 90.8513 3.09659Z" fill="#455A64"/>
<path d="M58.1869 21.9573L90.8518 3.09677C91.6765 2.61889 92.3586 2.91564 92.4973 3.74421C92.4203 3.22327 92.2338 2.72454 91.9502 2.28084C91.6666 1.83714 91.2922 1.45851 90.8518 1.16986L89.4952 0.3991C88.9781 0.136733 88.4064 0 87.8265 0C87.2467 0 86.6749 0.136733 86.1578 0.3991L53.4891 19.2442C52.9971 19.5528 52.5913 19.981 52.3098 20.489L57.0076 23.1867C57.289 22.6827 57.695 22.2594 58.1869 21.9573Z" fill="#37474F"/>
<path d="M51.8137 99.6229C51.8453 100.202 52.0129 100.765 52.3028 101.267C52.5927 101.77 52.9968 102.196 53.4824 102.513L54.8428 103.284C55.3136 103.52 55.8289 103.653 56.3549 103.676C56.8809 103.698 57.4057 103.609 57.895 103.415C57.1242 103.716 56.5115 103.272 56.5115 102.321V24.8474C56.5308 24.266 56.6993 23.6993 57.0009 23.2018L52.3031 20.5042C52.0057 20.9979 51.8374 21.5585 51.8137 22.1343V99.6229Z" fill="#263238"/>
<path d="M59.0851 32.2822L89.9657 14.4583C90.5206 14.1423 90.9677 14.4005 90.9677 15.0364V72.3888C90.9491 72.7364 90.8487 73.0747 90.6746 73.376C90.5005 73.6774 90.2575 73.9334 89.9657 74.123L59.0967 91.9469C58.5417 92.2667 58.0947 92.0085 58.0947 91.3688V34.0164C58.1122 33.6699 58.211 33.3324 58.383 33.0312C58.5551 32.7299 58.7956 32.4734 59.0851 32.2822Z" fill="white"/>
<path d="M74.52 15.4631C74.3495 15.575 74.2077 15.7254 74.106 15.9021C74.0042 16.0788 73.9454 16.2769 73.9342 16.4805C73.9342 16.8659 74.1963 17.0085 74.52 16.8196C74.6911 16.7084 74.8334 16.5582 74.9352 16.3814C75.037 16.2045 75.0955 16.0061 75.1058 15.8022C75.1058 15.4284 74.8437 15.2781 74.52 15.4631Z" fill="#37474F"/>
<path d="M74.5191 85.7772C73.8454 86.2179 73.285 86.8111 72.8833 87.5088C72.4816 88.2065 72.2498 88.989 72.2068 89.7929C72.2068 91.2689 73.2435 91.8701 74.5191 91.1301C75.1926 90.6892 75.7529 90.0959 76.1546 89.3983C76.5563 88.7007 76.7881 87.9183 76.8314 87.1145C76.8391 85.6385 75.7986 85.0373 74.5191 85.7772Z" fill="#37474F"/>
<path d="M68.9748 21.4289C68.6361 21.6537 68.3549 21.955 68.1541 22.3085C67.9533 22.6619 67.8384 23.0576 67.8186 23.4637C67.8186 24.2113 68.3427 24.5158 68.9748 24.1419C69.317 23.9192 69.6019 23.6189 69.8061 23.2653C70.0104 22.9117 70.1283 22.5149 70.1502 22.1071C70.1502 21.3595 69.626 21.0551 68.9748 21.4289Z" fill="#37474F"/>
<path d="M71.8526 21.1751C71.8526 21.6761 72.238 21.8649 72.6889 21.599L80.3965 17.1402C80.6353 16.9911 80.8354 16.7877 80.9808 16.5466C81.1261 16.3055 81.2124 16.0335 81.2328 15.7528C81.2328 15.2556 80.8474 15.0668 80.3965 15.3327L72.6889 19.7916C72.4506 19.9403 72.2508 20.1431 72.1055 20.3834C71.9602 20.6238 71.8735 20.895 71.8526 21.1751Z" fill="#37474F"/>
<path d="M54.4177 34.763C54.6912 34.9412 54.9189 35.1813 55.0823 35.4638C55.2456 35.7464 55.3401 36.0634 55.3581 36.3893C55.3581 36.9905 54.938 37.2333 54.4177 36.9327C54.1452 36.7539 53.9184 36.5136 53.7558 36.2311C53.5931 35.9486 53.4991 35.6319 53.4813 35.3064C53.4813 34.7091 53.9013 34.4663 54.4177 34.763Z" fill="#37474F"/>
<path d="M54.4177 42.0003C54.6912 42.1784 54.9189 42.4185 55.0823 42.701C55.2456 42.9836 55.3401 43.3007 55.3581 43.6266C55.3581 44.2239 54.938 44.4667 54.4177 44.17C54.1452 43.9912 53.9184 43.7508 53.7558 43.4684C53.5931 43.1859 53.4991 42.8691 53.4813 42.5437C53.4813 41.9425 53.9013 41.6997 54.4177 42.0003Z" fill="#37474F"/>
<path d="M54.125 34.9098C54.3985 35.0879 54.6262 35.328 54.7895 35.6105C54.9529 35.8931 55.0474 36.2102 55.0654 36.5361C55.0654 37.1334 54.6453 37.3762 54.125 37.0795C53.8515 36.9013 53.6239 36.6612 53.4605 36.3787C53.2971 36.0961 53.2026 35.779 53.1847 35.4531C53.1885 34.8519 53.6086 34.6207 54.125 34.9098Z" fill="#455A64"/>
<path d="M54.125 42.1432C54.399 42.3217 54.627 42.5624 54.7904 42.8456C54.9538 43.1289 55.048 43.4468 55.0654 43.7733C55.0654 44.3707 54.6453 44.6135 54.125 44.3129C53.8509 44.1354 53.6227 43.8955 53.4593 43.6128C53.2958 43.3301 53.2017 43.0127 53.1847 42.6865C53.1885 42.0892 53.6086 41.8464 54.125 42.1432Z" fill="#455A64"/>
<path d="M97.2188 16.8503C97.2188 16.2106 96.7717 15.9524 96.2168 16.2722L92.521 18.4034L65.3478 34.0961C65.0559 34.2858 64.813 34.5417 64.6388 34.8431C64.4647 35.1445 64.3643 35.4827 64.3458 35.8303V93.1673C64.3458 93.807 64.7928 94.0652 65.3478 93.7454L92.5325 78.0488L96.2168 75.9215C96.5086 75.7319 96.7516 75.4759 96.9257 75.1745C97.0998 74.8731 97.2002 74.5349 97.2188 74.1873V16.8503Z" fill="white"/>
<path d="M97.6035 16.8508C97.6277 16.6576 97.5945 16.4614 97.5078 16.287C97.4212 16.1125 97.2851 15.9675 97.1164 15.87C96.9478 15.7725 96.7542 15.7269 96.5598 15.7389C96.3653 15.7509 96.1788 15.82 96.0234 15.9375L92.4972 17.9761L65.1544 33.7768C64.8024 33.999 64.5097 34.3035 64.3015 34.664C64.0934 35.0245 63.9761 35.4303 63.9597 35.8463V93.1678C63.9443 93.3602 63.9813 93.5532 64.0668 93.7263C64.1523 93.8993 64.2831 94.046 64.4453 94.1506C64.5833 94.2308 64.7405 94.2721 64.9001 94.27C65.126 94.263 65.3463 94.198 65.5398 94.0812L92.9018 78.2806L96.4204 76.2496C96.7704 76.0252 97.0615 75.7202 97.2694 75.3601C97.4773 75.0001 97.5958 74.5954 97.615 74.1801L97.6035 16.8508ZM92.5049 77.6216L92.1889 77.8065L65.1698 93.4068C65.1244 93.4417 65.0718 93.466 65.0158 93.478C64.9598 93.49 64.9018 93.4894 64.8461 93.4761C64.796 93.4453 64.7459 93.3374 64.7459 93.1601V35.8308C64.7659 35.551 64.8491 35.2794 64.9893 35.0364C65.1294 34.7934 65.323 34.5854 65.5552 34.4281L92.5473 18.8201L96.4011 16.5888C96.4465 16.5539 96.4991 16.5295 96.5551 16.5175C96.6111 16.5055 96.6691 16.5062 96.7248 16.5194C96.7749 16.5502 96.825 16.6581 96.825 16.8354V74.1878C96.805 74.4676 96.7219 74.7393 96.5817 74.9823C96.4415 75.2253 96.248 75.4333 96.0157 75.5906L92.4972 77.6216H92.5049Z" fill="#9269AD"/>
<path d="M80.7813 30.1742C84.2497 28.1779 87.0437 29.7888 87.0437 33.7929C87.0437 37.797 84.2382 42.6566 80.7813 44.6375C77.3244 46.6184 74.5189 45.0229 74.5189 41.0226C74.5189 37.0224 77.3244 32.1743 80.7813 30.1742Z" fill="#9269AD"/>
<path d="M80.7823 33.3184C81.9038 32.6709 82.8133 33.1951 82.8133 34.4745C82.7752 35.1794 82.5714 35.8653 82.2185 36.4766C81.8656 37.088 81.3736 37.6075 80.7823 37.993C79.6608 38.6405 78.7513 38.1164 78.7513 36.8369C78.7894 36.1321 78.9932 35.4461 79.3461 34.8348C79.699 34.2234 80.191 33.7039 80.7823 33.3184Z" fill="#9269AD"/>
<path d="M84.7397 40.2238C84.7397 38.0965 83.2483 37.2333 81.4023 38.2969L80.2462 38.9637C78.404 40.0273 76.9088 42.6171 76.9088 44.7444V45.3186C77.9763 45.6693 79.3174 45.4804 80.7626 44.6365C82.3635 43.6489 83.7173 42.3083 84.7204 40.7171L84.7397 40.2238Z" fill="#9269AD"/>
<path opacity="0.7" d="M80.7823 33.3184C81.9038 32.6709 82.8133 33.1951 82.8133 34.4745C82.7752 35.1794 82.5714 35.8653 82.2185 36.4766C81.8656 37.088 81.3736 37.6075 80.7823 37.993C79.6608 38.6405 78.7513 38.1164 78.7513 36.8369C78.7894 36.1321 78.9932 35.4461 79.3461 34.8348C79.699 34.2234 80.191 33.7039 80.7823 33.3184Z" fill="white"/>
<path opacity="0.7" d="M84.7397 40.2238C84.7397 38.0965 83.2483 37.2333 81.4023 38.2969L80.2462 38.9637C78.404 40.0273 76.9088 42.6171 76.9088 44.7444V45.3186C77.9763 45.6693 79.3174 45.4804 80.7626 44.6365C82.3635 43.6489 83.7173 42.3083 84.7204 40.7171L84.7397 40.2238Z" fill="white"/>
<path d="M68.6656 53.4434L76.7239 48.7918C77.1093 48.5799 77.3906 48.7494 77.3906 49.1772V49.4431C77.3784 49.6747 77.3117 49.9002 77.1958 50.1011C77.08 50.302 76.9183 50.4727 76.7239 50.5993L68.6656 55.2508C68.2995 55.4628 67.9989 55.2894 67.9989 54.8654V54.5995C68.0114 54.368 68.0783 54.1427 68.1941 53.9418C68.31 53.7409 68.4715 53.5702 68.6656 53.4434Z" fill="#9269AD"/>
<path opacity="0.1" d="M68.6656 53.4434L76.7239 48.7918C77.1093 48.5799 77.3906 48.7494 77.3906 49.1772V49.4431C77.3784 49.6747 77.3117 49.9002 77.1958 50.1011C77.08 50.302 76.9183 50.4727 76.7239 50.5993L68.6656 55.2508C68.2995 55.4628 67.9989 55.2894 67.9989 54.8654V54.5995C68.0114 54.368 68.0783 54.1427 68.1941 53.9418C68.31 53.7409 68.4715 53.5702 68.6656 53.4434Z" fill="black"/>
<path d="M68.3342 59.0586L92.7134 44.9845C92.8945 44.8766 93.0448 44.9614 93.0448 45.1772V48.0213C93.038 48.1367 93.0046 48.249 92.9471 48.3493C92.8895 48.4496 92.8096 48.5352 92.7134 48.5994L68.3342 62.6735C68.1492 62.7814 67.9989 62.6928 67.9989 62.4808V59.6367C68.0055 59.5208 68.0393 59.4081 68.0976 59.3077C68.1558 59.2072 68.2369 59.1219 68.3342 59.0586Z" fill="#9269AD"/>
<path opacity="0.2" d="M68.3342 59.0586L92.7134 44.9845C92.8945 44.8766 93.0448 44.9614 93.0448 45.1772V48.0213C93.038 48.1367 93.0046 48.249 92.9471 48.3493C92.8895 48.4496 92.8096 48.5352 92.7134 48.5994L68.3342 62.6735C68.1492 62.7814 67.9989 62.6928 67.9989 62.4808V59.6367C68.0055 59.5208 68.0393 59.4081 68.0976 59.3077C68.1558 59.2072 68.2369 59.1219 68.3342 59.0586Z" fill="white"/>
<path d="M68.6656 66.0955L76.7239 61.444C77.1093 61.232 77.3906 61.4054 77.3906 61.8294V62.0953C77.3787 62.3269 77.3121 62.5525 77.1962 62.7535C77.0803 62.9544 76.9185 63.1251 76.7239 63.2514L68.6656 67.903C68.2995 68.1188 67.9989 67.9454 67.9989 67.5176V67.2517C68.012 67.0203 68.0791 66.7952 68.1949 66.5944C68.3107 66.3936 68.4719 66.2228 68.6656 66.0955Z" fill="#9269AD"/>
<path opacity="0.1" d="M68.6656 66.0955L76.7239 61.444C77.1093 61.232 77.3906 61.4054 77.3906 61.8294V62.0953C77.3787 62.3269 77.3121 62.5525 77.1962 62.7535C77.0803 62.9544 76.9185 63.1251 76.7239 63.2514L68.6656 67.903C68.2995 68.1188 67.9989 67.9454 67.9989 67.5176V67.2517C68.012 67.0203 68.0791 66.7952 68.1949 66.5944C68.3107 66.3936 68.4719 66.2228 68.6656 66.0955Z" fill="black"/>
<path d="M68.3342 71.7105L92.7134 57.6364C92.8945 57.5285 93.0448 57.6171 93.0448 57.8291V60.6732C93.038 60.7886 93.0046 60.9009 92.9471 61.0012C92.8895 61.1015 92.8096 61.1871 92.7134 61.2513L68.3342 75.3254C68.1492 75.4333 67.9989 75.3485 67.9989 75.1327V72.2886C68.0055 72.1727 68.0393 72.06 68.0976 71.9596C68.1558 71.8591 68.2369 71.7738 68.3342 71.7105Z" fill="#9269AD"/>
<path opacity="0.2" d="M68.3342 71.7105L92.7134 57.6364C92.8945 57.5285 93.0448 57.6171 93.0448 57.8291V60.6732C93.038 60.7886 93.0046 60.9009 92.9471 61.0012C92.8895 61.1015 92.8096 61.1871 92.7134 61.2513L68.3342 75.3254C68.1492 75.4333 67.9989 75.3485 67.9989 75.1327V72.2886C68.0055 72.1727 68.0393 72.06 68.0976 71.9596C68.1558 71.8591 68.2369 71.7738 68.3342 71.7105Z" fill="white"/>
<path d="M78.0577 73.3254L87.6922 67.772C88.0776 67.5562 88.3628 67.7297 88.3628 68.1574V71.1326C88.3502 71.3645 88.2828 71.5902 88.1663 71.7911C88.0497 71.9921 87.8873 72.1626 87.6922 72.2887L78.0577 77.8459C77.6723 78.0579 77.391 77.8845 77.391 77.4606V74.4815C77.4044 74.2502 77.4717 74.0252 77.5874 73.8245C77.7032 73.6238 77.8642 73.4529 78.0577 73.3254Z" fill="#9269AD"/>
<path opacity="0.1" d="M78.0577 73.3254L87.6922 67.772C88.0776 67.5562 88.3628 67.7297 88.3628 68.1574V71.1326C88.3502 71.3645 88.2828 71.5902 88.1663 71.7911C88.0497 71.9921 87.8873 72.1626 87.6922 72.2887L78.0577 77.8459C77.6723 78.0579 77.391 77.8845 77.391 77.4606V74.4815C77.4044 74.2502 77.4717 74.0252 77.5874 73.8245C77.7032 73.6238 77.8642 73.4529 78.0577 73.3254Z" fill="black"/>
<path d="M100.873 60.7701C100.873 60.7701 96.141 54.2418 95.8635 53.4479C95.6439 52.8621 95.8635 51.9912 95.9329 51.5865C96.0023 51.1819 96.0639 50.2801 96.1333 50.045C96.2489 49.6056 95.6824 49.6943 95.3625 50.0951C95.0427 50.4959 94.9348 51.2975 94.769 51.4285C94.6033 51.5595 93.3431 49.7213 92.6841 48.8734C92.0251 48.0256 91.6128 47.5092 91.2081 47.8252C90.9191 48.0526 91.1349 48.5458 91.6128 49.2704C91.8919 49.6605 92.1492 50.0658 92.3835 50.4843C92.4568 50.6423 92.0637 50.6539 91.8517 50.9815C91.686 51.2358 91.8517 51.6482 91.6205 51.8447C91.4782 51.953 91.3807 52.1099 91.3466 52.2854C91.3125 52.4609 91.3441 52.6429 91.4355 52.7966C91.8645 53.4703 92.4177 54.0562 93.0657 54.5231C93.7748 55.0125 94.0599 55.186 94.48 55.8527C94.9001 56.5194 98.6691 63.3291 98.9234 63.7376C99.1778 64.1461 99.6672 64.9785 100.411 65.0016C101.155 65.0248 107.244 59.7836 107.556 59.5215C108.558 58.6852 108.878 58.5658 109.047 59.3173C109.106 59.5844 109.15 59.8546 109.178 60.1266C109.298 61.0823 109.949 64.4968 109.949 64.4968C109.949 64.4968 113.032 65.9882 115.564 65.2676C118.096 64.5469 118.952 63.4717 118.952 63.4717L117.684 61.406C118.027 60.5543 119.611 57.1013 120.123 54.685L112.184 53.4017C112.023 53.367 111.76 53.3015 111.414 53.2128C110.978 53.0972 109.872 52.7157 109.036 53.4479C106.307 55.8257 100.881 60.7701 100.881 60.7701" fill="#FFA8A7"/>
<path d="M116.612 100.828L115.19 102.805C115.836 103.106 116.543 103.258 117.256 103.248C118.531 103.294 118.882 102.862 118.928 102.778C119.144 102.315 118.809 101.483 118.716 100.766L116.612 100.828Z" fill="#37474F"/>
<path d="M115.271 101.856C115.271 101.856 113.545 101.744 112.354 101.598C111.163 101.451 110.219 102.029 110.496 102.519C110.774 103.008 111.433 103.417 112.458 103.76C113.333 104.057 114.385 104.268 115.294 104.531C116.204 104.793 116.836 105.136 117.364 104.951C117.954 104.746 118.208 104.511 118.158 104.08C118.029 103.466 117.87 102.859 117.68 102.261L115.271 101.856Z" fill="#37474F"/>
<path d="M118.928 98.8431C118.928 98.8431 118.712 100.639 118.697 101.024C118.681 101.41 116.943 101.533 116.612 100.828L116.558 98.6311L118.928 98.8431Z" fill="#F28F8F"/>
<path d="M117.179 99.9434L117.799 102.672C117.799 102.672 117.857 103.003 116.439 103.215C115.02 103.427 112.793 102.471 112.411 102.279C112.03 102.086 111.987 101.697 113.383 101.774C114.778 101.851 115.271 101.855 115.271 101.855L114.816 100.649L117.179 99.9434Z" fill="#FFA8A7"/>
<path d="M120.1 54.6616L121.083 54.3879C121.083 54.3879 123.137 60.8893 123.365 61.5175C123.592 62.1457 123.85 62.8085 123.407 63.5831C122.879 64.5042 120.1 68.2077 120.1 68.2077L118.335 66.4812L120.339 62.8124L118.567 59.2283L120.1 54.6616Z" fill="#F28F8F"/>
<path d="M110.007 46.2182C109.776 45.7857 109.66 45.3019 109.667 44.8119C109.674 44.3219 109.806 43.8418 110.049 43.4165C111.028 41.6014 113.209 40.7188 115.807 41.0541C117.009 41.2121 118.427 42.2103 119.202 43.7017C120.058 45.355 120.139 48.6847 120.358 49.9449L110.007 46.2182Z" fill="#37474F"/>
<path d="M109.937 46.9321C109.937 46.9321 109.321 48.1075 109.429 48.2154C109.588 48.3088 109.763 48.374 109.945 48.4081L109.937 46.9321Z" fill="#FFA8A7"/>
<path d="M111.81 43.2163C111.139 43.6518 109.983 44.4534 109.933 47.0932C109.879 49.7909 110.264 50.6811 110.665 50.9933C110.935 51.2053 112.519 51.0973 113.197 50.9393C113.876 50.7813 115.829 49.814 116.535 48.3457C117.363 46.6192 117.194 44.1065 115.964 43.3358C115.339 42.9658 114.629 42.7607 113.902 42.7398C113.176 42.7189 112.456 42.8829 111.81 43.2163Z" fill="#FFA8A7"/>
<path d="M118.928 63.4568C120.115 65.3066 121.24 66.9252 121.487 69.014C121.995 73.4035 120.33 78.4211 119.972 81.6699C120.646 82.594 121.035 83.6953 121.09 84.8377C121.09 86.1827 118.928 98.8425 118.928 98.8425C118.928 98.8425 117.355 99.3203 116.558 98.6305L115.074 75.3419L115.845 72.5055L118.928 63.4568Z" fill="#9269AD"/>
<path opacity="0.2" d="M118.928 63.4568C120.115 65.3066 121.24 66.9252 121.487 69.014C121.995 73.4035 120.33 78.4211 119.972 81.6699C120.646 82.594 121.035 83.6953 121.09 84.8377C121.09 86.1827 118.928 98.8425 118.928 98.8425C118.928 98.8425 117.355 99.3203 116.558 98.6305L115.074 75.3419L115.845 72.5055L118.928 63.4568Z" fill="black"/>
<path d="M115.074 75.3423L115.845 72.5059C117.32 72.1174 118.744 71.5519 120.084 70.8218C120.084 70.8218 119.282 72.2824 116.978 73.084L115.787 76.7258L115.687 85.0693L115.074 75.3423Z" fill="#9269AD"/>
<path opacity="0.3" d="M115.074 75.3423L115.845 72.5059C117.32 72.1174 118.744 71.5519 120.084 70.8218C120.084 70.8218 119.282 72.2824 116.978 73.084L115.787 76.7258L115.687 85.0693L115.074 75.3423Z" fill="black"/>
<path d="M118.928 63.4568C119.564 64.4973 121.083 66.2701 120.759 67.9773C120.374 70.0429 119.256 71.4958 115.857 72.5055L112.666 84.067C112.666 84.067 114.327 85.6085 114.836 87.0999C115.344 88.5913 117.179 99.9524 117.179 99.9524C117.179 99.9524 116.608 100.881 114.816 100.658C114.816 100.658 108.569 86.3985 108.13 85.4697C107.597 84.5292 107.41 83.4315 107.602 82.3674C107.799 80.8722 109.914 64.505 109.914 64.505L118.928 63.4568Z" fill="#9269AD"/>
<path opacity="0.2" d="M118.928 63.4568C119.564 64.4973 121.083 66.2701 120.759 67.9773C120.374 70.0429 119.256 71.4958 115.857 72.5055L112.666 84.067C112.666 84.067 114.327 85.6085 114.836 87.0999C115.344 88.5913 117.179 99.9524 117.179 99.9524C117.179 99.9524 116.608 100.881 114.816 100.658C114.816 100.658 108.569 86.3985 108.13 85.4697C107.597 84.5292 107.41 83.4315 107.602 82.3674C107.799 80.8722 109.914 64.505 109.914 64.505L118.928 63.4568Z" fill="black"/>
<path d="M120.1 54.6619L112.161 53.3785C111.999 53.3439 111.737 53.2783 111.39 53.1897C111.39 53.1897 111.051 58.1688 109.013 59.3096C109.063 59.5485 109.105 59.8144 109.144 60.1189C109.263 61.0746 109.914 64.4891 109.914 64.4891C109.914 64.4891 112.997 65.9805 115.529 65.2598C118.061 64.5392 118.917 63.464 118.917 63.464L117.649 61.3983C118.004 60.5389 119.599 57.0859 120.1 54.6619Z" fill="#9269AD"/>
<path opacity="0.7" d="M120.1 54.6619L112.161 53.3785C111.999 53.3439 111.737 53.2783 111.39 53.1897C111.39 53.1897 111.051 58.1688 109.013 59.3096C109.063 59.5485 109.105 59.8144 109.144 60.1189C109.263 61.0746 109.914 64.4891 109.914 64.4891C109.914 64.4891 112.997 65.9805 115.529 65.2598C118.061 64.5392 118.917 63.464 118.917 63.464L117.649 61.3983C118.004 60.5389 119.599 57.0859 120.1 54.6619Z" fill="white"/>
<path d="M118.007 60.5771C116.953 61.2102 115.848 61.7555 114.705 62.2073C115.743 62.1866 116.759 61.9057 117.661 61.3903L118.007 60.5771Z" fill="#9269AD"/>
<path d="M111.615 43.3469C111.615 43.3469 111.229 45.8518 112.139 47.324C112.139 47.324 112.478 46.3259 113.322 46.5147C114.166 46.7035 114.212 47.8173 113.619 48.4416C113.468 48.6167 113.271 48.7458 113.05 48.8139C112.829 48.8821 112.593 48.8866 112.37 48.827C112.37 48.827 112.235 50.6383 112.162 52.1567C112.089 53.6751 111.688 56.9855 113.395 58.3228C115.103 59.66 119.388 60.1302 121.396 57.3246C122.513 55.7638 121.03 53.0045 120.34 49.9099C119.704 47.0658 119.346 42.8497 116.328 42.1715C113.311 41.4932 111.615 43.3469 111.615 43.3469Z" fill="#37474F"/>
<path d="M122.687 9.11969L122.051 9.50507C122.104 9.27882 122.134 9.04763 122.14 8.81524C122.14 7.52421 121.234 7.00395 120.116 7.6591C119.776 7.86425 119.473 8.12476 119.218 8.42986C119.218 6.69564 118.001 5.9904 116.498 6.8575C115.706 7.37402 115.046 8.06995 114.574 8.88885C114.101 9.70775 113.828 10.6266 113.777 11.5707C113.777 11.6593 113.777 11.7441 113.777 11.8289C113.39 11.7802 112.998 11.8703 112.671 12.0833C112.082 12.467 111.592 12.9842 111.24 13.5929C110.889 14.2015 110.686 14.8845 110.647 15.5864C110.647 15.7495 110.664 15.9123 110.698 16.072L110.358 16.2685C109.437 16.8003 108.69 17.837 108.69 18.5808C108.69 19.3246 109.437 19.5019 110.358 18.9662L122.691 11.8559C123.612 11.3241 124.359 10.2874 124.359 9.54361C124.359 8.79982 123.608 8.58401 122.687 9.11969Z" fill="#EBEBEB"/>
</svg>
