<svg width="133" height="123" viewBox="0 0 133 123" fill="none" xmlns="http://www.w3.org/2000/svg">
<path d="M66.0345 122.49C102.504 122.49 132.069 105.42 132.069 84.3635C132.069 63.3067 102.504 46.2368 66.0345 46.2368C29.5647 46.2368 0 63.3067 0 84.3635C0 105.42 29.5647 122.49 66.0345 122.49Z" fill="#F5F5F5"/>
<path d="M18.3984 108.485L17.5003 107.956C17.3516 107.858 17.2279 107.726 17.139 107.572C17.0502 107.417 16.9986 107.244 16.9884 107.066V40.5056C16.999 40.3282 17.0508 40.1557 17.1397 40.0018C17.2285 39.8479 17.352 39.7168 17.5003 39.619L58.7987 15.7723C58.958 15.6923 59.1338 15.6506 59.3121 15.6506C59.4904 15.6506 59.6662 15.6923 59.8255 15.7723L60.7235 16.2928C60.8724 16.3904 60.9964 16.5213 61.0858 16.6752C61.1752 16.8291 61.2274 17.0018 61.2383 17.1794V83.7516C61.2278 83.9298 61.1758 84.103 61.0864 84.2574C60.997 84.4119 60.8727 84.5433 60.7235 84.6411L19.4251 108.485C19.2658 108.565 19.09 108.607 18.9118 108.607C18.7335 108.607 18.5577 108.565 18.3984 108.485Z" fill="#37474F"/>
<path d="M61.2326 17.0965C61.1954 16.8333 60.9809 16.7361 60.7235 16.8848L19.4251 40.7286C19.2733 40.8221 19.1482 40.9531 19.0619 41.109L17.1371 39.9993C17.2242 39.844 17.3492 39.7132 17.5003 39.619L58.7987 15.7723C58.958 15.6923 59.1338 15.6506 59.3121 15.6506C59.4903 15.6506 59.6661 15.6923 59.8254 15.7723L60.7235 16.2928C60.861 16.3824 60.9777 16.5005 61.0655 16.6392C61.1534 16.7779 61.2103 16.9338 61.2326 17.0965Z" fill="#455A64"/>
<path d="M19.3336 108.528C19.3242 108.53 19.3144 108.53 19.305 108.528L19.2507 108.548H19.2306C19.1992 108.548 19.1677 108.565 19.1363 108.574C18.9328 108.613 18.7224 108.597 18.5271 108.528C18.4877 108.514 18.4494 108.496 18.4127 108.476L17.5003 107.956C17.3516 107.858 17.2279 107.726 17.139 107.572C17.0502 107.417 16.9986 107.244 16.9884 107.066V40.5055C16.9947 40.3269 17.0458 40.1528 17.1371 39.9993L19.0619 41.1089C18.9688 41.2619 18.9166 41.4362 18.9103 41.6152V108.19C18.9057 108.286 18.9329 108.38 18.9875 108.459C19.0224 108.499 19.0675 108.528 19.118 108.544C19.1685 108.56 19.2223 108.561 19.2735 108.548L19.3336 108.528Z" fill="#263238"/>
<path d="M33.8138 37.8343C33.8005 37.7644 33.7689 37.6993 33.7223 37.6455L33.688 37.6169C33.6609 37.5966 33.6293 37.5833 33.5958 37.5783C33.5623 37.5733 33.5281 37.5768 33.4964 37.5883C33.4708 37.5945 33.4466 37.6051 33.4249 37.6198C33.2978 37.7073 33.1986 37.8294 33.1389 37.9716C33.0624 38.1326 33.0214 38.3082 33.0187 38.4864C33.0072 38.6196 33.0483 38.752 33.1331 38.8553C33.1708 38.8917 33.2199 38.9138 33.272 38.918C33.3242 38.9222 33.3762 38.9081 33.4191 38.8782C33.4804 38.8413 33.5346 38.7939 33.5793 38.7381C33.6201 38.6849 33.6564 38.6285 33.688 38.5693C33.7758 38.3973 33.8237 38.2076 33.8281 38.0145C33.8297 37.9541 33.8249 37.8937 33.8138 37.8343ZM40.5291 22.8279C40.38 22.7403 40.21 22.6949 40.0372 22.6963C39.7091 22.7116 39.3902 22.81 39.1105 22.9823C38.3299 23.4601 37.7272 24.1803 37.3945 25.0329C37.3402 25.1531 37.2887 25.2789 37.243 25.4019C37.1972 25.5249 37.1486 25.6507 37.1085 25.7794C37.0685 25.9081 37.0227 26.0368 36.9856 26.1655C36.9713 26.2084 36.9598 26.2542 36.9455 26.2942L36.8712 26.5545C36.8724 26.5668 36.8724 26.5793 36.8712 26.5916C36.8283 26.7489 36.7882 26.912 36.7425 27.0721C36.7196 27.1608 36.6996 27.2437 36.6767 27.3295L36.6109 27.5841C36.5194 27.9244 36.4279 28.2504 36.3249 28.5622L36.2591 28.7509C36.2277 28.8396 36.1962 28.9283 36.1619 29.0141C36.1276 29.0999 36.1075 29.1456 36.0818 29.2057C36.0389 29.3115 35.9931 29.4116 35.9445 29.5088C35.8959 29.6061 35.8845 29.6318 35.853 29.6919C35.1294 31.0818 34.2457 31.6252 33.7337 32.3402C33.2847 32.9637 33.1617 33.4614 32.5554 34.4481C32.3638 34.7627 32.1236 35.1259 31.809 35.5606C30.9367 36.7618 30.6249 37.3567 30.5191 37.717C30.518 37.7265 30.518 37.7361 30.5191 37.7456C30.5191 37.7742 30.5191 37.8 30.4991 37.8257C30.498 37.8343 30.498 37.8429 30.4991 37.8515C30.4979 37.8743 30.4979 37.8972 30.4991 37.9201C30.4891 37.9902 30.4843 38.0609 30.4848 38.1317V40.803L31.4457 41.3578V38.6837C31.4433 38.5441 31.4636 38.405 31.5058 38.2719C31.6116 37.9115 31.9205 37.3195 32.7957 36.1183C33.1103 35.6807 33.3505 35.3175 33.5421 35.0029C34.1427 34.0191 34.2714 33.5186 34.7204 32.9008C35.2324 32.1829 36.1161 31.6424 36.8397 30.2496C36.944 30.0355 37.0367 29.8159 37.1171 29.5918C37.5804 28.4478 37.7892 26.9062 38.3584 25.6107C38.6904 24.7592 39.2934 24.0406 40.0744 23.5658C40.6607 23.2283 41.0897 23.1997 41.4186 23.3541L40.5291 22.8279ZM44.7419 26.2427C44.662 26.1972 44.5764 26.1626 44.4873 26.1398C44.1241 26.054 43.5836 26.2656 43.0402 26.2027C43.8038 27.1894 44.8649 26.5545 45.4483 26.6946C45.5391 26.7163 45.6259 26.752 45.7057 26.8004L44.7419 26.2427ZM46.7782 29.9121C46.7497 29.9296 46.7229 29.9497 46.6981 29.9722L46.6581 30.0122L46.6209 30.0551C46.4605 30.2625 46.3721 30.5165 46.3692 30.7787C46.3597 30.9103 46.3995 31.0408 46.4808 31.1448C46.4916 31.155 46.5031 31.1645 46.5151 31.1734C46.5415 31.1937 46.5728 31.207 46.6058 31.212C46.6388 31.217 46.6725 31.2136 46.7038 31.202C46.7302 31.1957 46.7553 31.1851 46.7782 31.1705C46.8068 31.1533 46.8325 31.1305 46.8611 31.1104C46.9027 31.0715 46.9401 31.0284 46.9727 30.9817C47.1088 30.7827 47.1834 30.5479 47.1872 30.3068C47.1872 29.9607 47.0041 29.7805 46.7782 29.9121ZM47.4074 27.4954C47.0987 27.3232 46.7632 27.2043 46.415 27.1436C46.2663 27.1093 46.129 27.0721 46.0174 27.0349C46.4001 27.3755 46.8691 27.6041 47.3731 27.6956C47.679 27.7551 47.9766 27.8511 48.2597 27.9816L47.4074 27.4954Z" fill="#9269AD"/>
<path d="M48.3369 28.0304L48.2597 27.9846C47.9766 27.8541 47.679 27.7581 47.3731 27.6986C46.8689 27.6076 46.3997 27.379 46.0174 27.0379C45.9217 26.9495 45.8172 26.8709 45.7057 26.8034C45.6256 26.7562 45.5388 26.7215 45.4483 26.7005C44.8763 26.5603 43.8038 27.1952 43.043 26.2085L43.0173 26.1771C42.4853 25.4592 42.2908 23.8576 41.4929 23.3886L41.4128 23.3428C41.0839 23.1884 40.6549 23.217 40.0686 23.5545C37.9551 24.7757 37.8836 27.6757 37.1228 29.5833C36.3621 31.491 35.281 32.0887 34.6947 32.9095C34.1084 33.7303 34.0683 34.3395 32.767 36.1299C31.4657 37.9202 31.4171 38.3607 31.4171 38.7039V41.3751L48.7258 31.3651V28.6939C48.7363 28.5568 48.7046 28.4199 48.6351 28.3013C48.5656 28.1827 48.4616 28.0882 48.3369 28.0304ZM33.4248 38.8783C33.1989 39.0099 33.0187 38.8354 33.0187 38.4865C33.0165 38.322 33.0519 38.1591 33.1223 38.0104C33.1927 37.8617 33.2962 37.7311 33.4248 37.6285C33.6508 37.497 33.831 37.6743 33.831 38.0232C33.8332 38.1873 33.7978 38.3497 33.7273 38.498C33.6569 38.6463 33.5534 38.7764 33.4248 38.8783ZM40.0686 30.8303C39.9602 30.9128 39.8337 30.9683 39.6996 30.9922C39.5654 31.0161 39.4275 31.0078 39.2973 30.9678C39.167 30.9278 39.0482 30.8574 38.9506 30.7624C38.8529 30.6674 38.7793 30.5504 38.7359 30.4213C38.5864 30.0831 38.515 29.7155 38.5271 29.346C38.5271 28.0332 39.2163 26.5718 40.0686 26.0798C40.1837 26.0111 40.3093 25.9619 40.4404 25.934C41.1154 25.7996 41.6102 26.4459 41.6102 27.5642C41.6102 28.8769 40.9209 30.3384 40.0686 30.8303ZM46.7782 31.1678C46.5522 31.2993 46.3692 31.1249 46.3692 30.7788C46.3675 30.6141 46.4035 30.4512 46.4743 30.3025C46.5452 30.1538 46.6491 30.0232 46.7782 29.9208C47.0041 29.7921 47.1872 29.9666 47.1872 30.3155C47.1888 30.4794 47.1528 30.6415 47.0819 30.7893C47.011 30.937 46.9071 31.0665 46.7782 31.1678Z" fill="#9269AD"/>
<path opacity="0.1" d="M48.3369 28.0304L48.2597 27.9846C47.9766 27.8541 47.679 27.7581 47.3731 27.6986C46.8689 27.6076 46.3997 27.379 46.0174 27.0379C45.9217 26.9495 45.8172 26.8709 45.7057 26.8034C45.6256 26.7562 45.5388 26.7215 45.4483 26.7005C44.8763 26.5603 43.8038 27.1952 43.043 26.2085L43.0173 26.1771C42.4853 25.4592 42.2908 23.8576 41.4929 23.3886L41.4128 23.3428C41.0839 23.1884 40.6549 23.217 40.0686 23.5545C37.9551 24.7757 37.8836 27.6757 37.1228 29.5833C36.3621 31.491 35.281 32.0887 34.6947 32.9095C34.1084 33.7303 34.0683 34.3395 32.767 36.1299C31.4657 37.9202 31.4171 38.3607 31.4171 38.7039V41.3751L48.7258 31.3651V28.6939C48.7363 28.5568 48.7046 28.4199 48.6351 28.3013C48.5656 28.1827 48.4616 28.0882 48.3369 28.0304ZM33.4248 38.8783C33.1989 39.0099 33.0187 38.8354 33.0187 38.4865C33.0165 38.322 33.0519 38.1591 33.1223 38.0104C33.1927 37.8617 33.2962 37.7311 33.4248 37.6285C33.6508 37.497 33.831 37.6743 33.831 38.0232C33.8332 38.1873 33.7978 38.3497 33.7273 38.498C33.6569 38.6463 33.5534 38.7764 33.4248 38.8783ZM40.0686 30.8303C39.9602 30.9128 39.8337 30.9683 39.6996 30.9922C39.5654 31.0161 39.4275 31.0078 39.2973 30.9678C39.167 30.9278 39.0482 30.8574 38.9506 30.7624C38.8529 30.6674 38.7793 30.5504 38.7359 30.4213C38.5864 30.0831 38.515 29.7155 38.5271 29.346C38.5271 28.0332 39.2163 26.5718 40.0686 26.0798C40.1837 26.0111 40.3093 25.9619 40.4404 25.934C41.1154 25.7996 41.6102 26.4459 41.6102 27.5642C41.6102 28.8769 40.9209 30.3384 40.0686 30.8303ZM46.7782 31.1678C46.5522 31.2993 46.3692 31.1249 46.3692 30.7788C46.3675 30.6141 46.4035 30.4512 46.4743 30.3025C46.5452 30.1538 46.6491 30.0232 46.7782 29.9208C47.0041 29.7921 47.1872 29.9666 47.1872 30.3155C47.1888 30.4794 47.1528 30.6415 47.0819 30.7893C47.011 30.937 46.9071 31.0665 46.7782 31.1678Z" fill="black"/>
<path opacity="0.25" d="M31.4771 38.2834C31.4349 38.4165 31.4146 38.5556 31.417 38.6952V41.3693L30.4561 40.8145V38.1432C30.4556 38.0724 30.4604 38.0017 30.4704 37.9316C30.4692 37.9087 30.4692 37.8858 30.4704 37.8629C30.4693 37.8544 30.4693 37.8457 30.4704 37.8372C30.4704 37.8115 30.4704 37.7857 30.4904 37.7571V37.7285L31.4771 38.2834Z" fill="black"/>
<path opacity="0.25" d="M34.6918 32.9122C34.2428 33.53 34.1198 34.0305 33.5135 35.0143L32.5554 34.4538C33.156 33.4671 33.2847 32.9694 33.7337 32.3459L34.6918 32.9122Z" fill="black"/>
<path opacity="0.25" d="M38.3641 25.5879C37.7921 26.8834 37.5862 28.4107 37.1229 29.569C37.0328 29.8006 36.9297 30.0269 36.814 30.2468L35.853 29.6948C35.8845 29.6348 35.9159 29.5718 35.9445 29.5118C35.9731 29.4517 36.0389 29.3144 36.0818 29.2086C36.1076 29.1486 36.1362 29.0828 36.1619 29.017C36.1876 28.9512 36.2277 28.8425 36.2591 28.7539L36.3249 28.5651C36.4279 28.2534 36.5194 27.9273 36.6109 27.587L36.6767 27.3325C36.6996 27.2467 36.7196 27.1637 36.7425 27.0751C36.7882 26.9149 36.8283 26.7519 36.8712 26.5946C36.8724 26.5822 36.8724 26.5698 36.8712 26.5574L36.9455 26.2971C36.9598 26.2571 36.9713 26.2113 36.9856 26.1684C37.0228 26.0397 37.0657 25.911 37.1086 25.7823C37.1515 25.6536 37.1944 25.5307 37.243 25.4048C37.2916 25.279 37.3402 25.156 37.3946 25.0359L38.3641 25.5879Z" fill="black"/>
<path d="M33.1359 37.9716C33.0595 38.1326 33.0185 38.3081 33.0158 38.4864C33.0043 38.6196 33.0454 38.752 33.1302 38.8553C33.048 38.7507 33.0081 38.619 33.0187 38.4864C33.0218 38.3085 33.0618 38.1332 33.1359 37.9716ZM33.8338 38.0145C33.8335 37.9539 33.8268 37.8935 33.8138 37.8343C33.8258 37.8936 33.8316 37.954 33.8309 38.0145C33.8275 38.2074 33.7806 38.3971 33.6936 38.5693C33.7815 38.3973 33.8294 38.2076 33.8338 38.0145ZM46.515 31.1733C46.5415 31.1937 46.5727 31.207 46.6057 31.212C46.6387 31.217 46.6725 31.2135 46.7038 31.2019C46.6722 31.2119 46.6388 31.2144 46.6061 31.2095C46.5734 31.2045 46.5422 31.1922 46.515 31.1733Z" fill="#9269AD"/>
<path d="M41.613 27.564C41.613 28.8768 40.9209 30.3382 40.0686 30.8301C39.9594 30.9096 39.8332 30.9627 39.7 30.9851C39.5668 31.0075 39.4302 30.9987 39.301 30.9593C39.1718 30.9199 39.0535 30.8511 38.9554 30.7582C38.8573 30.6653 38.7822 30.5509 38.7358 30.424C38.8681 30.3956 38.9947 30.3453 39.1105 30.2753C39.9685 29.7805 40.652 28.3219 40.652 27.0092C40.6646 26.6393 40.5922 26.2714 40.4404 25.9338C41.1211 25.7994 41.613 26.4458 41.613 27.564Z" fill="#9269AD"/>
<path opacity="0.3" d="M41.613 27.564C41.613 28.8768 40.9209 30.3382 40.0686 30.8301C39.9594 30.9096 39.8332 30.9627 39.7 30.9851C39.5668 31.0075 39.4302 30.9987 39.301 30.9593C39.1718 30.9199 39.0535 30.8511 38.9554 30.7582C38.8573 30.6653 38.7822 30.5509 38.7358 30.424C38.8681 30.3956 38.9947 30.3453 39.1105 30.2753C39.9685 29.7805 40.652 28.3219 40.652 27.0092C40.6646 26.6393 40.5922 26.2714 40.4404 25.9338C41.1211 25.7994 41.613 26.4458 41.613 27.564Z" fill="black"/>
<path d="M33.6851 38.5694C33.6563 38.6294 33.6208 38.686 33.5793 38.7381C33.5346 38.7939 33.4804 38.8414 33.4191 38.8783C33.3762 38.9082 33.3242 38.9222 33.272 38.9181C33.2199 38.9139 33.1708 38.8918 33.1331 38.8554C33.0483 38.7521 33.0072 38.6197 33.0187 38.4865C33.0214 38.3083 33.0624 38.1327 33.1389 37.9717C33.1986 37.8295 33.2979 37.7074 33.4249 37.6199C33.4466 37.6052 33.4708 37.5946 33.4964 37.5884C33.5355 37.5748 33.5778 37.573 33.6179 37.5831C33.6581 37.5933 33.6944 37.615 33.7223 37.6456C33.7689 37.6994 33.8005 37.7645 33.8138 37.8344C33.8268 37.8936 33.8336 37.954 33.8338 38.0146C33.8294 38.2088 33.7784 38.399 33.6851 38.5694Z" fill="#37474F"/>
<path d="M47.1871 30.3067C47.1834 30.5479 47.1088 30.7826 46.9726 30.9817C46.94 31.0283 46.9026 31.0715 46.8611 31.1104C46.8325 31.1304 46.8068 31.1533 46.7782 31.1704C46.7553 31.185 46.7302 31.1956 46.7038 31.2019C46.6651 31.2149 46.6234 31.2164 46.5838 31.2063C46.5442 31.1961 46.5084 31.1747 46.4807 31.1447C46.3994 31.0407 46.3597 30.9102 46.3692 30.7786C46.3721 30.5164 46.4604 30.2624 46.6209 30.055L46.658 30.0121L46.6981 29.9721C46.7228 29.9496 46.7496 29.9295 46.7782 29.912C47.0041 29.7805 47.1871 29.9606 47.1871 30.3067Z" fill="#37474F"/>
<path d="M22.1049 46.9549L58.0437 26.2056C58.139 26.1576 58.2443 26.1326 58.3511 26.1326C58.4579 26.1326 58.5632 26.1576 58.6586 26.2056L59.0046 26.4058C59.0942 26.4648 59.1687 26.5439 59.2223 26.6367C59.2759 26.7295 59.3072 26.8336 59.3135 26.9406V81.7668C59.3074 81.8735 59.2762 81.9773 59.2226 82.0697C59.1689 82.1621 59.0943 82.2406 59.0046 82.2988L23.0659 103.048C22.9709 103.097 22.8654 103.123 22.7584 103.123C22.6514 103.123 22.5459 103.097 22.451 103.048L22.1049 102.848C22.0151 102.79 21.9403 102.711 21.8866 102.619C21.833 102.527 21.8019 102.423 21.796 102.316V47.4897C21.8017 47.3825 21.8326 47.2782 21.8863 47.1853C21.94 47.0923 22.0149 47.0134 22.1049 46.9549Z" fill="#F5F5F5"/>
<path d="M59.3021 26.8462C59.2621 26.7204 59.1448 26.6803 59.0161 26.7604L23.0659 47.5097C22.9748 47.5671 22.9 47.6469 22.8485 47.7414L21.8876 47.1866C21.9371 47.0914 22.0125 47.0121 22.1049 46.9578L58.0437 26.2084C58.1381 26.1591 58.2431 26.1333 58.3497 26.1333C58.4563 26.1333 58.5613 26.1591 58.6557 26.2084L59.0047 26.4058C59.081 26.4557 59.1467 26.5204 59.1977 26.5961C59.2488 26.6717 59.2843 26.7567 59.3021 26.8462Z" fill="#FAFAFA"/>
<path d="M22.9944 103.094C22.9574 103.108 22.9191 103.117 22.88 103.122H22.8199C22.7581 103.13 22.6958 103.13 22.634 103.122C22.5948 103.118 22.5564 103.108 22.5196 103.094L22.451 103.06L22.1049 102.859C22.0148 102.802 21.9398 102.723 21.886 102.631C21.8323 102.538 21.8014 102.434 21.796 102.327V47.4897C21.799 47.3823 21.8306 47.2776 21.8875 47.1865L22.8485 47.7414C22.7943 47.8335 22.7639 47.9377 22.7598 48.0445V102.871C22.7598 103.039 22.8571 103.122 22.9944 103.094Z" fill="#E0E0E0"/>
<path d="M37.1914 34.3623L37.1428 34.4424C37.0281 34.6296 36.945 34.8345 36.8968 35.0487C36.8968 35.0659 36.8968 35.0744 36.8968 35.083C36.8962 35.0878 36.8962 35.0926 36.8968 35.0973L36.3105 38.3978L36.1275 39.4531C36.1275 39.496 36.1075 39.5389 36.096 39.5847C36.0849 39.6273 36.0715 39.6693 36.056 39.7105C36.056 39.7391 36.036 39.7677 36.0245 39.7963L36.9855 40.3511C37.0314 40.2408 37.065 40.1257 37.0856 40.0079L37.2744 38.9526L37.8464 35.6522C37.8898 35.3877 37.9925 35.1364 38.1467 34.9171L37.1914 34.3623Z" fill="#9269AD"/>
<path d="M30.5734 45.0102C30.4762 45.1646 30.3847 45.319 30.2874 45.4735C30.2474 45.5478 30.2073 45.6222 30.1702 45.6966C30.133 45.7709 30.0786 45.8882 30.0386 45.9826C29.9986 46.0769 29.9471 46.1942 29.907 46.3029C29.867 46.4116 29.827 46.5202 29.7898 46.6289C29.7526 46.7376 29.7068 46.8835 29.6725 47.0122C29.6496 47.0951 29.6268 47.178 29.6039 47.2667C29.5505 47.4688 29.5019 47.6747 29.458 47.8845C29.458 47.956 29.4266 48.0303 29.4151 48.1018C29.4037 48.1733 29.3779 48.2791 29.3636 48.3649C29.3636 48.3649 29.3636 48.3649 29.3636 48.3792C29.3636 48.4479 29.3636 48.4936 29.398 48.5137C29.4025 48.5157 29.4073 48.5168 29.4123 48.5168C29.4172 48.5168 29.4221 48.5157 29.4266 48.5137L30.2531 47.8673L30.3875 47.7615L30.4533 47.7129L30.5248 47.6557L30.582 47.6128L30.6306 47.5727C30.872 46.6984 31.2745 45.8768 31.8175 45.1503L30.8566 44.5955C30.7622 44.7327 30.6649 44.8729 30.5734 45.0102Z" fill="#9269AD"/>
<path d="M40.9724 27.1008C40.9266 27.1752 40.8866 27.2495 40.8465 27.3239C40.8203 27.3649 40.7973 27.408 40.7779 27.4526C40.7436 27.5127 40.715 27.5756 40.6835 27.6385C40.652 27.7014 40.632 27.7386 40.6091 27.7901C40.5605 27.8873 40.5176 27.9846 40.4776 28.0761C40.4375 28.1676 40.3861 28.2877 40.346 28.3935C40.306 28.4879 40.2745 28.5823 40.2431 28.6795C40.1916 28.8225 40.1487 28.9655 40.1086 29.1114C40.0858 29.1886 40.0686 29.263 40.0486 29.3373C40.0491 29.3431 40.0491 29.3488 40.0486 29.3545C40.0486 29.3945 40.0286 29.4317 40.0228 29.4718C40 29.5604 39.9828 29.6519 39.9685 29.7406C39.9542 29.8293 39.9399 29.8807 39.9199 29.9522C39.8999 30.0237 39.8827 30.101 39.8598 30.1753C39.8369 30.2497 39.8141 30.3155 39.7912 30.387C39.7912 30.387 39.7912 30.387 39.7912 30.407C39.7626 30.4842 39.7311 30.5643 39.6968 30.6444C39.6625 30.7244 39.6339 30.8017 39.5938 30.8846C39.584 30.906 39.5754 30.928 39.5681 30.9504C39.5395 31.0104 39.508 31.0705 39.4794 31.1334L39.3279 31.4194C39.2935 31.4881 39.2592 31.551 39.222 31.6168L40.1859 32.1716C40.5322 31.5872 40.785 30.9522 40.9352 30.2897C41.117 29.3533 41.4596 28.4553 41.9476 27.6357L40.9724 27.1008Z" fill="#9269AD"/>
<path d="M46.6895 29.24C46.6417 29.211 46.5879 29.1934 46.5322 29.1885C46.6255 29.3374 46.751 29.4636 46.8995 29.5576C47.048 29.6517 47.2157 29.7112 47.3902 29.7319C47.4729 29.7329 47.5546 29.7504 47.6305 29.7834L46.6895 29.24Z" fill="#9269AD"/>
<path opacity="0.4" d="M46.6895 29.24C46.6417 29.211 46.5879 29.1934 46.5322 29.1885C46.6255 29.3374 46.751 29.4636 46.8995 29.5576C47.048 29.6517 47.2157 29.7112 47.3902 29.7319C47.4729 29.7329 47.5546 29.7504 47.6305 29.7834L46.6895 29.24Z" fill="white"/>
<path d="M50.2731 33.4184C50.1222 33.3447 49.9556 33.3087 49.7877 33.3137C49.6197 33.3187 49.4556 33.3644 49.3093 33.447C48.191 33.939 47.7077 34.162 47.13 34.4023C47.0184 35.1459 47.456 35.2145 47.6734 35.1259C48.4856 34.8055 48.9003 34.6082 50.2731 34.0047C50.4182 33.9234 50.5807 33.878 50.7469 33.8726C50.9131 33.8671 51.0782 33.9016 51.2283 33.9733L50.2731 33.4184Z" fill="#9269AD"/>
<path opacity="0.4" d="M50.2731 33.4184C50.1222 33.3447 49.9556 33.3087 49.7877 33.3137C49.6197 33.3187 49.4556 33.3644 49.3093 33.447C48.191 33.939 47.7077 34.162 47.13 34.4023C47.0184 35.1459 47.456 35.2145 47.6734 35.1259C48.4856 34.8055 48.9003 34.6082 50.2731 34.0047C50.4182 33.9234 50.5807 33.878 50.7469 33.8726C50.9131 33.8671 51.0782 33.9016 51.2283 33.9733L50.2731 33.4184Z" fill="white"/>
<path d="M36.9798 40.3512C36.7728 40.8042 36.4816 41.2138 36.1218 41.5581L33.1131 43.8204C32.6321 44.2121 32.1983 44.6584 31.8203 45.1503L30.8594 44.5955C31.2365 44.102 31.6704 43.6547 32.1521 43.2627L35.1665 41.0033C35.52 40.6566 35.806 40.2474 36.0102 39.7964L36.9798 40.3512Z" fill="#9269AD"/>
<path opacity="0.4" d="M36.9798 40.3512C36.7728 40.8042 36.4816 41.2138 36.1218 41.5581L33.1131 43.8204C32.6321 44.2121 32.1983 44.6584 31.8203 45.1503L30.8594 44.5955C31.2365 44.102 31.6704 43.6547 32.1521 43.2627L35.1665 41.0033C35.52 40.6566 35.806 40.2474 36.0102 39.7964L36.9798 40.3512Z" fill="white"/>
<path d="M40.1715 32.1945C39.7565 32.9619 39.2452 33.6731 38.65 34.3109C38.4626 34.4943 38.2958 34.6976 38.1524 34.9172L37.1914 34.3624C37.3324 34.1411 37.4995 33.9375 37.689 33.756C38.2832 33.1181 38.7936 32.4068 39.2077 31.6396L40.1715 32.1945Z" fill="#9269AD"/>
<path opacity="0.4" d="M40.1715 32.1945C39.7565 32.9619 39.2452 33.6731 38.65 34.3109C38.4626 34.4943 38.2958 34.6976 38.1524 34.9172L37.1914 34.3624C37.3324 34.1411 37.4995 33.9375 37.689 33.756C38.2832 33.1181 38.7936 32.4068 39.2077 31.6396L40.1715 32.1945Z" fill="white"/>
<path d="M45.5998 25.093C45.2452 24.9072 44.7733 24.9386 44.2184 25.2303C43.3948 25.6622 42.5654 26.5774 41.9304 27.6585L40.9695 27.0865C41.5987 26.0054 42.4281 25.0845 43.2575 24.6583C43.527 24.5062 43.8291 24.4209 44.1384 24.4095C44.3235 24.4071 44.5059 24.4535 44.6675 24.5439L45.5998 25.093Z" fill="#9269AD"/>
<path opacity="0.4" d="M45.5998 25.093C45.2452 24.9072 44.7733 24.9386 44.2184 25.2303C43.3948 25.6622 42.5654 26.5774 41.9304 27.6585L40.9695 27.0865C41.5987 26.0054 42.4281 25.0845 43.2575 24.6583C43.527 24.5062 43.8291 24.4209 44.1384 24.4095C44.3235 24.4071 44.5059 24.4535 44.6675 24.5439L45.5998 25.093Z" fill="white"/>
<path opacity="0.15" d="M31.8289 45.1502C31.2859 45.8767 30.8834 46.6983 30.642 47.5726L30.5934 47.6127L30.5362 47.6556L30.4647 47.7128L30.3989 47.7614L30.2645 47.8672L29.4494 48.5193C29.4449 48.5213 29.44 48.5224 29.4351 48.5224C29.4302 48.5224 29.4253 48.5213 29.4208 48.5193C29.3893 48.4993 29.375 48.4535 29.3865 48.3849C29.3865 48.3849 29.3865 48.3849 29.3865 48.3706C29.3865 48.2848 29.4179 48.1961 29.438 48.1074C29.458 48.0188 29.4666 47.9616 29.4809 47.8901C29.5247 47.6822 29.5733 47.4763 29.6267 47.2723C29.6496 47.1837 29.6725 47.1007 29.6954 47.0178C29.7297 46.8891 29.7697 46.7632 29.8126 46.6345C29.8555 46.5058 29.887 46.4172 29.9299 46.3085C29.9728 46.1998 30.0128 46.094 30.0614 45.9882C30.1101 45.8824 30.1472 45.7908 30.193 45.7022C30.2388 45.6135 30.2702 45.5535 30.3103 45.4791C30.3932 45.3247 30.4847 45.1702 30.5963 45.0158C30.7078 44.8613 30.785 44.7298 30.8823 44.6011L31.8289 45.1502Z" fill="black"/>
<path opacity="0.15" d="M38.1524 34.9171C37.9982 35.1364 37.8955 35.3877 37.8521 35.6522L37.2801 38.9526L37.0913 40.0079C37.0707 40.1257 37.0371 40.2408 36.9912 40.3511L36.0303 39.7963C36.0303 39.7677 36.0532 39.7391 36.0617 39.7105C36.0773 39.6693 36.0906 39.6273 36.1018 39.5847C36.1018 39.5389 36.1247 39.496 36.1332 39.4531L36.3163 38.3978L36.9026 35.0973C36.9019 35.0926 36.9019 35.0878 36.9026 35.083C36.9026 35.083 36.9026 35.0659 36.9026 35.0487C36.9508 34.8345 37.0339 34.6296 37.1485 34.4424L37.1972 34.3623L38.1524 34.9171Z" fill="black"/>
<path opacity="0.15" d="M41.9333 27.6584C41.4453 28.478 41.1028 29.376 40.9209 30.3124C40.7707 30.9749 40.5179 31.6099 40.1716 32.1943L39.2078 31.6395C39.2449 31.5737 39.2793 31.5108 39.3136 31.4421L39.4652 31.1561C39.4938 31.0932 39.5252 31.0332 39.5538 30.9731C39.5612 30.9507 39.5697 30.9287 39.5796 30.9073C39.6167 30.8272 39.6511 30.7443 39.6825 30.6671C39.714 30.5899 39.7483 30.5069 39.7769 30.4297C39.7769 30.4297 39.7769 30.4154 39.7769 30.4097C39.7998 30.3382 39.8255 30.2695 39.8455 30.198C39.8656 30.1265 39.8884 30.0493 39.9056 29.975C39.9228 29.9006 39.9399 29.832 39.9542 29.7633C39.9685 29.6947 39.9857 29.5831 40.0086 29.4945C40.0086 29.4544 40.0257 29.4173 40.0343 29.3772C40.0348 29.3715 40.0348 29.3658 40.0343 29.3601C40.0543 29.2857 40.0715 29.2113 40.0944 29.1341C40.1344 28.9883 40.1773 28.8481 40.2288 28.7023C40.2602 28.605 40.2917 28.5106 40.3317 28.4163C40.3718 28.3104 40.4175 28.2046 40.4633 28.0988C40.5091 27.993 40.5462 27.9043 40.5949 27.8128C40.6177 27.7613 40.6435 27.7127 40.6692 27.6612C40.695 27.6097 40.7293 27.5354 40.7636 27.4753C40.783 27.4307 40.806 27.3876 40.8322 27.3466C40.8723 27.2723 40.9123 27.1979 40.9581 27.1235L41.9333 27.6584Z" fill="black"/>
<path d="M29.4408 48.5193L30.253 47.8672C29.9299 48.1274 29.4894 48.4678 29.4408 48.5193Z" fill="#9269AD"/>
<path d="M51.2312 33.9791C51.0807 33.9074 50.9153 33.8727 50.7487 33.8776C50.5821 33.8826 50.419 33.9272 50.2731 34.0077C48.9031 34.614 48.4884 34.8113 47.6762 35.1345C47.4588 35.2203 47.0213 35.1517 47.1328 34.4081C47.1317 34.3919 47.1317 34.3757 47.1328 34.3595L47.3187 33.3041L47.8392 30.427C47.8392 30.427 47.9565 29.9722 47.6562 29.8035H47.6333C47.5596 29.7672 47.4781 29.7495 47.3959 29.752C47.2209 29.7305 47.053 29.67 46.9045 29.575C46.756 29.4799 46.6307 29.3528 46.5379 29.2029C46.3773 28.9641 46.266 28.6956 46.2105 28.4132C46.155 28.1308 46.1564 27.8402 46.2147 27.5584C46.4349 26.3229 46.1947 25.4591 45.6427 25.1388L45.5998 25.1102C45.2452 24.9243 44.7733 24.9558 44.2185 25.2475C42.757 26.014 41.2812 28.2877 40.9209 30.3297C40.6949 31.6167 39.3994 33.5987 38.65 34.3337C37.9007 35.0687 37.8521 35.6751 37.8521 35.6751L37.2801 38.9755L37.0913 40.0308C36.9541 40.8202 36.1447 41.5838 36.1447 41.5838L33.1131 43.8203C31.9103 44.7772 31.0421 46.091 30.6335 47.5727C30.6335 47.5727 29.4895 48.4478 29.4323 48.5193L29.8184 48.2991L50.6163 36.3414C50.6163 36.3414 50.8565 36.2127 50.9023 36.1784C50.948 36.1441 51.7917 35.3547 51.7917 35.3547C51.7774 34.6741 51.5801 34.1879 51.2312 33.9791ZM45.2252 27.913C45.0021 29.1686 44.0983 30.5671 43.2003 31.039C42.5797 31.3622 42.1249 31.162 41.9733 30.59C41.9068 30.2693 41.9068 29.9383 41.9733 29.6176C42.1936 28.362 43.1031 26.9635 44.0011 26.4945C44.0842 26.4492 44.1713 26.4119 44.2613 26.3829C44.9964 26.1598 45.4111 26.7862 45.2195 27.913H45.2252Z" fill="#9269AD"/>
<path d="M29.4437 48.5222L50.6306 36.3443L50.9166 36.1813C50.968 36.1498 51.806 35.3547 51.806 35.3547L30.642 47.5727C30.642 47.5727 29.3607 48.5679 29.4437 48.5222Z" fill="#9269AD"/>
<path opacity="0.3" d="M29.4437 48.5222L50.6306 36.3443L50.9166 36.1813C50.968 36.1498 51.806 35.3547 51.806 35.3547L30.642 47.5727C30.642 47.5727 29.3607 48.5679 29.4437 48.5222Z" fill="black"/>
<path d="M44.2671 26.3829C44.1771 26.4119 44.0899 26.4492 44.0068 26.4944C43.1088 26.9635 42.1993 28.362 41.9791 29.6176C41.9126 29.9383 41.9126 30.2692 41.9791 30.59C42.1307 31.162 42.5854 31.3622 43.206 31.039C44.1041 30.5671 45.0078 29.1685 45.2309 27.913C45.4111 26.7862 44.9964 26.1598 44.2671 26.3829ZM42.0363 30.5671C41.973 30.2576 41.973 29.9385 42.0363 29.629C42.2565 28.3878 43.1517 27.0064 44.0383 26.5459C44.112 26.507 44.1885 26.4735 44.2671 26.4458C44.3257 26.7481 44.3257 27.0588 44.2671 27.361C44.0469 28.6166 43.1403 30.0151 42.2394 30.487C42.1739 30.5215 42.1061 30.5511 42.0363 30.5757V30.5671Z" fill="#9269AD"/>
<path opacity="0.4" d="M44.2671 26.3829C44.1771 26.4119 44.0899 26.4492 44.0068 26.4944C43.1088 26.9635 42.1993 28.362 41.9791 29.6176C41.9126 29.9383 41.9126 30.2692 41.9791 30.59C42.1307 31.162 42.5854 31.3622 43.206 31.039C44.1041 30.5671 45.0078 29.1685 45.2309 27.913C45.4111 26.7862 44.9964 26.1598 44.2671 26.3829ZM42.0363 30.5671C41.973 30.2576 41.973 29.9385 42.0363 29.629C42.2565 28.3878 43.1517 27.0064 44.0383 26.5459C44.112 26.507 44.1885 26.4735 44.2671 26.4458C44.3257 26.7481 44.3257 27.0588 44.2671 27.361C44.0469 28.6166 43.1403 30.0151 42.2394 30.487C42.1739 30.5215 42.1061 30.5511 42.0363 30.5757V30.5671Z" fill="black"/>
<path d="M27.5847 64.6811C27.5395 64.6813 27.4951 64.6694 27.456 64.6467C27.409 64.6164 27.3712 64.5736 27.347 64.5231C27.3228 64.4726 27.313 64.4164 27.3187 64.3607V63.1395C27.323 63.0298 27.3539 62.9227 27.4087 62.8276C27.4635 62.7324 27.5406 62.652 27.6333 62.5933L28.7001 61.9783C28.7444 61.9491 28.7959 61.9327 28.8489 61.9311C28.9019 61.9294 28.9543 61.9425 29.0003 61.9689C29.0463 61.9953 29.084 62.034 29.1093 62.0806C29.1346 62.1272 29.1464 62.1799 29.1434 62.2329V63.4656C29.1396 63.5754 29.109 63.6826 29.0541 63.7779C28.9993 63.8731 28.9219 63.9534 28.8288 64.0118L27.762 64.6296C27.7085 64.662 27.6473 64.6797 27.5847 64.6811ZM28.8774 62.1814C28.8605 62.1861 28.8442 62.1929 28.8288 62.2014L27.762 62.8163C27.7084 62.8524 27.6638 62.9003 27.6316 62.9564C27.5994 63.0124 27.5804 63.075 27.5761 63.1395V64.3722C27.5714 64.389 27.5714 64.4068 27.5761 64.4237C27.5932 64.4208 27.6097 64.415 27.6248 64.4065L28.6915 63.7887C28.7452 63.7526 28.7898 63.7047 28.822 63.6487C28.8542 63.5927 28.8732 63.53 28.8774 63.4656V62.2329C28.8789 62.2205 28.8789 62.2081 28.8774 62.1957V62.1814Z" fill="#455A64"/>
<path d="M30.05 61.8012L34.2542 59.3731C34.3944 59.293 34.5059 59.3559 34.5059 59.5161V59.845C34.5009 59.9317 34.4755 60.016 34.4317 60.091C34.388 60.1661 34.3272 60.2297 34.2542 60.2768L30.05 62.705C29.9127 62.7851 29.7983 62.7222 29.7983 62.562V62.2331C29.8034 62.1464 29.8288 62.0621 29.8725 61.987C29.9162 61.912 29.977 61.8483 30.05 61.8012Z" fill="#E0E0E0"/>
<path d="M38.0037 58.6666C37.9585 58.667 37.914 58.6552 37.875 58.6322C37.8274 58.6023 37.7891 58.5596 37.7643 58.5091C37.7396 58.4586 37.7294 58.4022 37.7348 58.3462V57.1136C37.7397 57.0036 37.7711 56.8965 37.8263 56.8014C37.8816 56.7062 37.9592 56.6259 38.0523 56.5673L39.1191 55.9524C39.1632 55.9208 39.2154 55.9024 39.2696 55.8994C39.3238 55.8963 39.3777 55.9088 39.4251 55.9353C39.4712 55.963 39.5086 56.0033 39.5329 56.0513C39.5572 56.0994 39.5674 56.1533 39.5624 56.207V57.4396C39.5586 57.5494 39.5279 57.6567 39.4731 57.7519C39.4182 57.8472 39.3409 57.9275 39.2478 57.9859L38.181 58.6036C38.1286 58.6401 38.0673 58.6618 38.0037 58.6666ZM39.2935 56.1669C39.2779 56.1726 39.2626 56.1793 39.2478 56.1869L38.181 56.8018C38.127 56.8378 38.0819 56.8856 38.0492 56.9416C38.0165 56.9976 37.997 57.0603 37.9922 57.125V58.3577C37.9866 58.3744 37.9866 58.3925 37.9922 58.4092C38.0092 58.4058 38.0256 58.4001 38.0409 58.392L39.1076 57.7742C39.1615 57.7385 39.2064 57.6906 39.2387 57.6345C39.2709 57.5785 39.2897 57.5156 39.2935 57.4511V56.2184C39.2986 56.2016 39.2986 56.1837 39.2935 56.1669Z" fill="#455A64"/>
<path d="M40.469 55.7866L44.6732 53.3584C44.8133 53.2784 44.9249 53.3413 44.9249 53.5014V53.8303C44.9198 53.917 44.8944 54.0014 44.8507 54.0764C44.807 54.1514 44.7461 54.2151 44.6732 54.2622L40.469 56.6903C40.3288 56.7704 40.2173 56.7075 40.2173 56.5473V56.2184C40.2238 56.1321 40.2499 56.0484 40.2935 55.9736C40.3371 55.8987 40.3971 55.8348 40.469 55.7866Z" fill="#E0E0E0"/>
<path d="M48.4197 52.6519C48.3746 52.6521 48.3301 52.6402 48.291 52.6176C48.2444 52.5868 48.2071 52.5439 48.1829 52.4935C48.1587 52.4432 48.1486 52.3872 48.1538 52.3316V51.0989C48.1583 50.9892 48.1892 50.8823 48.244 50.7872C48.2988 50.6921 48.3758 50.6116 48.4684 50.5527L49.5351 49.9378C49.5796 49.9075 49.6317 49.8904 49.6854 49.8884C49.7392 49.8864 49.7924 49.8996 49.839 49.9265C49.8856 49.9533 49.9236 49.9928 49.9488 50.0403C49.974 50.0879 49.9852 50.1415 49.9813 50.1952V51.425C49.977 51.535 49.9458 51.6423 49.8904 51.7375C49.8351 51.8327 49.7573 51.913 49.6638 51.9712L48.5971 52.589C48.5448 52.6257 48.4835 52.6474 48.4197 52.6519ZM48.5971 50.7872C48.5439 50.8237 48.4996 50.8717 48.4674 50.9277C48.4353 50.9836 48.416 51.046 48.4112 51.1104V52.343C48.4055 52.3597 48.4055 52.3778 48.4112 52.3945C48.4276 52.3926 48.4433 52.3867 48.4569 52.3773L49.5237 51.7596C49.5777 51.7236 49.6228 51.6758 49.6555 51.6198C49.6882 51.5638 49.7077 51.5011 49.7125 51.4364V50.2066C49.7178 50.1889 49.7178 50.17 49.7125 50.1523C49.7125 50.1523 49.6953 50.1523 49.6638 50.1723L48.5971 50.7872Z" fill="#455A64"/>
<path d="M50.888 49.7719L55.0922 47.3438C55.2295 47.2637 55.3439 47.3266 55.3439 47.4868V47.8157C55.3374 47.902 55.3113 47.9858 55.2677 48.0606C55.2241 48.1354 55.1641 48.1993 55.0922 48.2475L50.888 50.6757C50.7479 50.7558 50.6364 50.6928 50.6364 50.5327V50.2038C50.6414 50.1171 50.6668 50.0328 50.7105 49.9577C50.7542 49.8827 50.8151 49.819 50.888 49.7719Z" fill="#E0E0E0"/>
<path d="M30.0615 55.7837V56.2641C30.0615 56.5273 30.2446 56.6331 30.4705 56.5015L55.0665 42.3131C55.1858 42.2347 55.2849 42.1295 55.356 42.0058C55.427 41.8821 55.4679 41.7434 55.4755 41.6009V41.1176C55.4755 40.8573 55.2924 40.7515 55.0665 40.8802L30.4705 55.0715C30.3513 55.1498 30.2521 55.2551 30.1811 55.3788C30.11 55.5025 30.0691 55.6412 30.0615 55.7837Z" fill="#E0E0E0"/>
<path d="M28.1881 52.0314V52.5119C28.1881 52.775 28.3712 52.8809 28.6 52.7493L53.1816 38.5609C53.3017 38.4832 53.4017 38.3782 53.4733 38.2544C53.5449 38.1306 53.5861 37.9915 53.5935 37.8487V37.3654C53.5935 37.1051 53.4104 36.9993 53.1816 37.128L28.6 51.3279C28.481 51.4047 28.3817 51.5084 28.3102 51.6306C28.2387 51.7528 28.1968 51.8901 28.1881 52.0314Z" fill="#455A64"/>
<path d="M30.0615 58.6924V59.1757C30.0615 59.436 30.2446 59.5418 30.4705 59.4131L55.0665 45.2247C55.1858 45.1464 55.2849 45.0411 55.356 44.9174C55.427 44.7937 55.4679 44.655 55.4755 44.5125V44.0292C55.4755 43.7689 55.2924 43.6631 55.0665 43.7918L30.4705 57.9831C30.3516 58.0612 30.2527 58.166 30.1817 58.2891C30.1107 58.4123 30.0695 58.5504 30.0615 58.6924Z" fill="#E0E0E0"/>
<path d="M27.3673 58.941C28.0108 58.3032 28.171 58.0315 28.171 57.797C28.171 57.5625 28.0766 57.4367 27.7877 57.6025C27.6629 57.6752 27.5554 57.7742 27.4729 57.8928C27.3904 58.0114 27.3348 58.1466 27.3101 58.2889L26.6066 58.4462C26.6678 58.0776 26.8069 57.7263 27.0145 57.4156C27.2221 57.105 27.4935 56.8421 27.8106 56.6444C28.5142 56.2383 28.9232 56.5415 28.9232 57.2164C28.8839 57.8735 28.5979 58.4915 28.1224 58.9467V59.5044L27.3673 59.9391V58.941Z" fill="#455A64"/>
<path d="M27.3588 60.7945C27.3576 60.657 27.3924 60.5217 27.4596 60.4018C27.5268 60.2819 27.6242 60.1816 27.742 60.1109C27.9937 59.9651 28.1224 60.0938 28.1224 60.354C28.1246 60.4921 28.0906 60.6283 28.0239 60.7492C27.9572 60.8701 27.86 60.9715 27.742 61.0433C27.4875 61.1891 27.3588 61.0519 27.3588 60.7945Z" fill="#455A64"/>
<path d="M27.7506 63.1396L28.0652 63.377L27.7792 63.9204C27.7545 63.9535 27.7413 63.9936 27.7413 64.0348C27.7413 64.0761 27.7545 64.1162 27.7792 64.1492C27.8335 64.1893 27.9107 64.1492 27.9565 64.0634L28.2425 63.5229L28.5571 63.7603C28.6028 63.7946 28.6715 63.7603 28.7115 63.6859C28.7326 63.6574 28.744 63.6228 28.744 63.5872C28.744 63.5517 28.7326 63.5171 28.7115 63.4886L28.3969 63.2512L28.6829 62.7078C28.7075 62.6747 28.7208 62.6346 28.7208 62.5934C28.7208 62.5522 28.7075 62.512 28.6829 62.479C28.6286 62.4389 28.5514 62.479 28.5056 62.5648L28.2196 63.1082L27.905 62.8708C27.8592 62.8365 27.7906 62.8708 27.7506 62.9423C27.7294 62.9709 27.718 63.0054 27.718 63.041C27.718 63.0765 27.7294 63.1111 27.7506 63.1396Z" fill="#9269AD"/>
<path d="M27.5847 75.5407C27.5398 75.5419 27.4954 75.531 27.456 75.5092C27.409 75.4789 27.3712 75.4361 27.347 75.3856C27.3228 75.3351 27.313 75.2789 27.3187 75.2232V73.9906C27.3225 73.8807 27.3532 73.7735 27.408 73.6783C27.4629 73.583 27.5402 73.5027 27.6333 73.4443L28.7001 72.8294C28.7444 72.8002 28.7959 72.7838 28.8489 72.7821C28.9019 72.7805 28.9543 72.7936 29.0003 72.82C29.0463 72.8464 29.084 72.885 29.1093 72.9317C29.1346 72.9783 29.1464 73.031 29.1434 73.084V74.3166C29.1396 74.4265 29.109 74.5337 29.0541 74.6289C28.9993 74.7241 28.9219 74.8045 28.8288 74.8629L27.762 75.4778C27.7096 75.5142 27.6484 75.5359 27.5847 75.5407ZM28.8774 73.0439C28.86 73.0471 28.8434 73.0539 28.8288 73.0639L27.762 73.6788C27.7084 73.7149 27.6638 73.7628 27.6316 73.8189C27.5994 73.8749 27.5804 73.9375 27.5761 74.002V75.2347C27.5714 75.2515 27.5714 75.2693 27.5761 75.2861C27.5932 75.2833 27.6097 75.2775 27.6248 75.269L28.6915 74.6512C28.7452 74.6151 28.7898 74.5672 28.822 74.5112C28.8542 74.4552 28.8732 74.3925 28.8774 74.3281V73.0954C28.8802 73.0783 28.8802 73.061 28.8774 73.0439Z" fill="#455A64"/>
<path d="M30.05 72.6607L34.2542 70.2354C34.3944 70.1553 34.5059 70.2182 34.5059 70.3784V70.7044C34.5013 70.7916 34.4761 70.8765 34.4324 70.9521C34.3886 71.0277 34.3276 71.0918 34.2542 71.1391L30.05 73.5673C29.9127 73.6474 29.7983 73.5816 29.7983 73.4214V73.0954C29.8031 73.0082 29.8284 72.9234 29.8722 72.8479C29.9159 72.7724 29.9768 72.7082 30.05 72.6607Z" fill="#E0E0E0"/>
<path d="M38.0037 69.526C37.9587 69.5275 37.9142 69.5166 37.875 69.4945C37.8274 69.4645 37.7891 69.4219 37.7643 69.3714C37.7396 69.3209 37.7294 69.2645 37.7348 69.2085V67.9759C37.7392 67.8658 37.7704 67.7585 37.8257 67.6633C37.881 67.5681 37.9588 67.4879 38.0523 67.4296L39.1191 66.8147C39.1632 66.7831 39.2154 66.7647 39.2696 66.7617C39.3238 66.7586 39.3777 66.7711 39.4251 66.7976C39.4712 66.8253 39.5086 66.8656 39.5329 66.9136C39.5572 66.9617 39.5674 67.0156 39.5624 67.0693V68.3019C39.5586 68.4117 39.5279 68.519 39.4731 68.6142C39.4182 68.7094 39.3409 68.7898 39.2478 68.8482L38.181 69.4631C38.1286 69.4995 38.0673 69.5212 38.0037 69.526ZM39.2935 67.0292C39.2773 67.0333 39.2618 67.04 39.2478 67.0492L38.181 67.6641C38.127 67.7001 38.0819 67.7479 38.0492 67.8039C38.0165 67.8599 37.997 67.9226 37.9922 67.9873V69.22C37.9866 69.2367 37.9866 69.2548 37.9922 69.2714C38.0092 69.2681 38.0256 69.2623 38.0409 69.2543L39.1076 68.6365C39.1612 68.6004 39.2059 68.5525 39.2381 68.4965C39.2703 68.4405 39.2893 68.3778 39.2935 68.3134V67.0807C39.2986 67.0639 39.2986 67.046 39.2935 67.0292Z" fill="#455A64"/>
<path d="M40.469 66.646L44.6732 64.2207C44.8133 64.1407 44.9249 64.2036 44.9249 64.3637V64.6898C44.9203 64.777 44.8951 64.8619 44.8513 64.9374C44.8076 65.013 44.7465 65.0771 44.6732 65.1245L40.469 67.5527C40.3288 67.6328 40.2173 67.5527 40.2173 67.4068V67.0808C40.2234 66.9939 40.2492 66.9096 40.2929 66.8343C40.3365 66.759 40.3967 66.6946 40.469 66.646Z" fill="#E0E0E0"/>
<path d="M48.4197 63.5114C48.3748 63.5126 48.3304 63.5018 48.291 63.48C48.2444 63.4492 48.2071 63.4063 48.1829 63.3559C48.1587 63.3056 48.1486 63.2496 48.1538 63.194V61.9613C48.1583 61.8516 48.1892 61.7447 48.244 61.6496C48.2988 61.5545 48.3758 61.474 48.4684 61.4151L49.5351 60.8002C49.5794 60.7701 49.6312 60.753 49.6847 60.751C49.7381 60.7489 49.7911 60.7618 49.8376 60.7883C49.8841 60.8148 49.9222 60.8539 49.9476 60.9009C49.973 60.948 49.9847 61.0013 49.9813 61.0547V62.2874C49.977 62.3974 49.9458 62.5047 49.8904 62.5999C49.8351 62.6951 49.7573 62.7754 49.6638 62.8336L48.5971 63.4485C48.5448 63.4852 48.4835 63.507 48.4197 63.5114ZM48.5971 61.6496C48.5439 61.6861 48.4996 61.7342 48.4674 61.7901C48.4353 61.846 48.416 61.9084 48.4112 61.9728V63.2054C48.4055 63.2221 48.4055 63.2402 48.4112 63.2569C48.4271 63.2533 48.4425 63.2475 48.4569 63.2397L49.5237 62.622C49.5777 62.586 49.6228 62.5382 49.6555 62.4822C49.6882 62.4262 49.7077 62.3635 49.7125 62.2988V61.0661C49.7176 61.0494 49.7176 61.0314 49.7125 61.0147C49.6953 61.0189 49.679 61.0256 49.6638 61.0347L48.5971 61.6496Z" fill="#455A64"/>
<path d="M50.888 60.6314L55.0922 58.2061C55.2295 58.126 55.3439 58.1889 55.3439 58.3491V58.6751C55.3378 58.762 55.312 58.8463 55.2683 58.9216C55.2247 58.9969 55.1645 59.0613 55.0922 59.1099L50.888 61.538C50.7479 61.6181 50.6364 61.5523 50.6364 61.3921V61.0661C50.6409 60.9789 50.6661 60.894 50.7099 60.8184C50.7536 60.7429 50.8147 60.6788 50.888 60.6314Z" fill="#E0E0E0"/>
<path d="M30.0615 66.6431V67.1264C30.0615 67.3867 30.2446 67.4925 30.4705 67.3638L55.0665 53.1754C55.1858 53.0971 55.2849 52.9918 55.356 52.8681C55.427 52.7444 55.4679 52.6057 55.4755 52.4632V51.9799C55.4755 51.7196 55.2924 51.6138 55.0665 51.7425L30.4705 65.9338C30.3516 66.0118 30.2527 66.1167 30.1817 66.2398C30.1107 66.363 30.0695 66.5011 30.0615 66.6431Z" fill="#E0E0E0"/>
<path d="M30.0615 69.5545V70.0379C30.0615 70.2981 30.2446 70.4039 30.4705 70.2752L55.0665 56.0839C55.186 56.0066 55.2854 55.9019 55.3565 55.7786C55.4276 55.6553 55.4684 55.5168 55.4755 55.3746V54.8913C55.4755 54.6282 55.2924 54.5224 55.0665 54.6539L30.4705 68.8452C30.3516 68.9233 30.2527 69.0281 30.1817 69.1513C30.1107 69.2744 30.0695 69.4126 30.0615 69.5545Z" fill="#E0E0E0"/>
<path d="M27.3673 69.8034C28.0108 69.1656 28.171 68.8939 28.171 68.6594C28.171 68.4249 28.0766 68.299 27.7877 68.4649C27.6629 68.5375 27.5554 68.6366 27.4729 68.7552C27.3904 68.8738 27.3348 69.009 27.3101 69.1513L26.6066 69.3086C26.6678 68.94 26.8069 68.5887 27.0145 68.278C27.2221 67.9673 27.4935 67.7044 27.8106 67.5068C28.5142 67.1007 28.9232 67.4039 28.9232 68.0931C28.8839 68.7502 28.5979 69.3682 28.1224 69.8234V70.3811L27.3673 70.8159V69.8034Z" fill="#455A64"/>
<path d="M27.3588 71.6568C27.3576 71.5193 27.3924 71.384 27.4596 71.2641C27.5268 71.1442 27.6242 71.0439 27.742 70.9732C27.9937 70.8274 28.1224 70.9561 28.1224 71.2163C28.1243 71.3544 28.0902 71.4905 28.0235 71.6113C27.9568 71.7322 27.8598 71.8336 27.742 71.9056C27.4875 72.0514 27.3588 71.9199 27.3588 71.6568Z" fill="#455A64"/>
<path d="M38.1696 67.9758L38.4842 68.2132L38.1982 68.7566C38.1736 68.7897 38.1603 68.8298 38.1603 68.871C38.1603 68.9122 38.1736 68.9523 38.1982 68.9854C38.2497 69.0254 38.3298 68.9854 38.3755 68.8996L38.6615 68.3591L38.9761 68.5964C39.0219 68.6308 39.0905 68.5964 39.1277 68.5221C39.1488 68.4935 39.1602 68.4589 39.1602 68.4234C39.1602 68.3879 39.1488 68.3533 39.1277 68.3247L38.8131 68.0874L39.0991 67.544C39.1222 67.5095 39.1333 67.4685 39.1307 67.4271C39.1281 67.3858 39.112 67.3464 39.0848 67.3152C39.0333 67.278 38.9532 67.3152 38.9075 67.401L38.6215 67.9444L38.3069 67.707C38.264 67.6727 38.1953 67.707 38.1553 67.7785C38.1357 67.8084 38.1265 67.8439 38.1291 67.8796C38.1317 67.9152 38.1459 67.949 38.1696 67.9758Z" fill="#9269AD"/>
<path d="M27.5847 86.4028C27.5395 86.403 27.4951 86.3911 27.456 86.3685C27.4099 86.3407 27.3725 86.3005 27.3482 86.2524C27.324 86.2043 27.3137 86.1504 27.3187 86.0968V84.8641C27.3225 84.7543 27.3532 84.647 27.408 84.5518C27.4629 84.4566 27.5402 84.3762 27.6333 84.3179L28.7001 83.703C28.7444 83.6737 28.7959 83.6573 28.8489 83.6557C28.9019 83.654 28.9543 83.6671 29.0003 83.6935C29.0463 83.7199 29.084 83.7586 29.1093 83.8052C29.1346 83.8518 29.1464 83.9045 29.1434 83.9575V85.1902C29.1397 85.3 29.109 85.4072 29.0541 85.5025C28.9993 85.5977 28.9219 85.678 28.8288 85.7364L27.7621 86.3513C27.7085 86.3837 27.6473 86.4015 27.5847 86.4028ZM28.8775 83.906C28.86 83.9092 28.8434 83.916 28.8288 83.926L27.7621 84.5409C27.7084 84.577 27.6638 84.6249 27.6316 84.681C27.5994 84.737 27.5804 84.7996 27.5762 84.8641V86.0968C27.5718 86.1137 27.5718 86.1314 27.5762 86.1483C27.5936 86.1451 27.6102 86.1383 27.6248 86.1282L28.6916 85.5133C28.7452 85.4772 28.7898 85.4293 28.822 85.3733C28.8542 85.3173 28.8732 85.2546 28.8775 85.1902V83.9575C28.8802 83.9404 28.8802 83.9231 28.8775 83.906Z" fill="#455A64"/>
<path d="M30.05 83.5228L34.2542 81.0947C34.3944 81.0146 34.5059 81.0804 34.5059 81.2405V81.5666C34.5013 81.6538 34.4761 81.7387 34.4324 81.8142C34.3886 81.8898 34.3276 81.9539 34.2542 82.0013L30.05 84.4295C29.9127 84.5095 29.7983 84.4438 29.7983 84.2836V83.9576C29.8031 83.8704 29.8284 83.7856 29.8722 83.7101C29.9159 83.6345 29.9768 83.5704 30.05 83.5228Z" fill="#E0E0E0"/>
<path d="M38.0037 80.3883C37.9585 80.3887 37.914 80.3769 37.875 80.354C37.8283 80.3266 37.7904 80.2865 37.7656 80.2384C37.7408 80.1903 37.7301 80.1362 37.7349 80.0823V78.8496C37.7392 78.7396 37.7704 78.6323 37.8257 78.537C37.8811 78.4418 37.9589 78.3616 38.0523 78.3033L39.1191 77.6884C39.1637 77.6582 39.2156 77.6404 39.2694 77.6369C39.3232 77.6334 39.3769 77.6442 39.4251 77.6684C39.4717 77.6992 39.5091 77.7421 39.5333 77.7924C39.5575 77.8428 39.5675 77.8988 39.5624 77.9544V79.1871C39.5586 79.2969 39.528 79.4041 39.4731 79.4994C39.4183 79.5946 39.3409 79.675 39.2478 79.7333L38.181 80.3482C38.1264 80.3766 38.0653 80.3904 38.0037 80.3883ZM39.2936 77.8915C39.2773 77.8955 39.2618 77.9023 39.2478 77.9115L38.181 78.5264C38.127 78.5624 38.082 78.6102 38.0493 78.6662C38.0166 78.7222 37.9971 78.7849 37.9923 78.8496V80.0823C37.9872 80.099 37.9872 80.117 37.9923 80.1337C38.0095 80.1301 38.026 80.1233 38.0409 80.1137L39.1191 79.4988C39.1727 79.4627 39.2173 79.4148 39.2496 79.3588C39.2818 79.3028 39.3007 79.2401 39.305 79.1756V77.943C39.3071 77.925 39.3031 77.9069 39.2936 77.8915Z" fill="#455A64"/>
<path d="M40.469 77.5081L44.6732 75.08C44.8133 75.0028 44.9249 75.0657 44.9249 75.2259V75.5519C44.9203 75.6391 44.8951 75.724 44.8513 75.7995C44.8076 75.8751 44.7465 75.9392 44.6732 75.9866L40.469 78.4147C40.3288 78.4948 40.2173 78.4291 40.2173 78.2689V77.9429C40.2234 77.856 40.2492 77.7717 40.2929 77.6964C40.3365 77.6211 40.3967 77.5567 40.469 77.5081Z" fill="#E0E0E0"/>
<path d="M48.4198 74.3737C48.3746 74.3738 48.3302 74.362 48.2911 74.3393C48.245 74.3116 48.2076 74.2713 48.1833 74.2233C48.159 74.1752 48.1488 74.1213 48.1538 74.0677V72.835C48.1576 72.7252 48.1883 72.6179 48.2431 72.5227C48.298 72.4275 48.3753 72.3471 48.4684 72.2887L49.5352 71.6738C49.5789 71.6427 49.6305 71.6244 49.684 71.6211C49.7376 71.6179 49.791 71.6297 49.8381 71.6554C49.8853 71.6811 49.9242 71.7195 49.9506 71.7662C49.9769 71.813 49.9896 71.8662 49.9871 71.9198V73.1525C49.9828 73.2625 49.9516 73.3698 49.8962 73.465C49.8409 73.5602 49.7631 73.6405 49.6696 73.6987L48.6029 74.3136C48.5486 74.3503 48.4852 74.3711 48.4198 74.3737ZM48.5971 72.5118C48.544 72.5484 48.4997 72.5964 48.4675 72.6523C48.4353 72.7082 48.4161 72.7707 48.4112 72.835V74.0677C48.4061 74.0844 48.4061 74.1023 48.4112 74.1191C48.4275 74.1151 48.443 74.1083 48.457 74.0991L49.5238 73.4842C49.5778 73.4483 49.6228 73.4005 49.6555 73.3444C49.6882 73.2884 49.7077 73.2257 49.7125 73.161V71.9198C49.7176 71.903 49.7176 71.8851 49.7125 71.8683C49.6957 71.8721 49.6794 71.8779 49.6639 71.8855L48.5971 72.5118Z" fill="#455A64"/>
<path d="M50.888 71.4938L55.0922 69.0656C55.2295 68.9884 55.3439 69.0656 55.3439 69.2115V69.5375C55.3378 69.6244 55.312 69.7087 55.2683 69.784C55.2247 69.8593 55.1645 69.9237 55.0922 69.9722L50.888 72.4004C50.7479 72.4805 50.6364 72.4147 50.6364 72.2545V71.9199C50.6422 71.8342 50.6681 71.751 50.7118 71.677C50.7554 71.6031 50.8158 71.5403 50.888 71.4938Z" fill="#E0E0E0"/>
<path d="M30.0615 77.5055V77.9888C30.0615 78.2491 30.2446 78.3549 30.4705 78.2262L55.0665 64.0348C55.186 63.9575 55.2854 63.8528 55.3565 63.7295C55.4276 63.6062 55.4684 63.4677 55.4755 63.3256V62.8422C55.4755 62.582 55.2924 62.4733 55.0665 62.6048L30.4705 76.7962C30.3516 76.8742 30.2527 76.979 30.1817 77.1022C30.1107 77.2254 30.0695 77.3635 30.0615 77.5055Z" fill="#E0E0E0"/>
<path d="M30.0615 80.4168V80.9002C30.0615 81.1604 30.2446 81.2663 30.4705 81.1347L55.0665 66.9462C55.1857 66.8685 55.2849 66.7638 55.3559 66.6406C55.427 66.5173 55.468 66.379 55.4755 66.237V65.7536C55.4755 65.4905 55.2924 65.3847 55.0665 65.5162L30.4705 79.7076C30.3513 79.7852 30.2522 79.89 30.1811 80.0132C30.11 80.1365 30.0691 80.2748 30.0615 80.4168Z" fill="#E0E0E0"/>
<path d="M27.3673 80.6656C28.0108 80.0279 28.171 79.7562 28.171 79.5216C28.171 79.2871 28.0766 79.1584 27.7877 79.3272C27.6629 79.3998 27.5554 79.4988 27.4729 79.6174C27.3904 79.736 27.3348 79.8712 27.3101 80.0136L26.6066 80.168C26.6682 79.7999 26.8074 79.4491 27.015 79.139C27.2226 78.8288 27.4938 78.5664 27.8106 78.3691C28.5142 77.9629 28.9232 78.2661 28.9232 78.9411C28.8839 79.5981 28.5979 80.2161 28.1224 80.6714V81.2291L27.3673 81.6638V80.6656Z" fill="#455A64"/>
<path d="M27.3588 82.5189C27.3574 82.381 27.3921 82.2452 27.4593 82.1248C27.5265 82.0044 27.624 81.9037 27.742 81.8325C27.9937 81.6895 28.1224 81.8182 28.1224 82.0785C28.124 82.2164 28.0898 82.3525 28.0232 82.4733C27.9565 82.5941 27.8596 82.6955 27.742 82.7677C27.4875 82.9136 27.3588 82.7878 27.3588 82.5189Z" fill="#455A64"/>
<path d="M48.5885 72.8235L48.9002 73.0608L48.6142 73.6043C48.5892 73.6371 48.5756 73.6773 48.5756 73.7187C48.5756 73.76 48.5892 73.8002 48.6142 73.833C48.6657 73.8731 48.7458 73.8331 48.7916 73.7473L49.0776 73.2038L49.3922 73.4412C49.4379 73.4756 49.5037 73.4412 49.5437 73.3697C49.5653 73.3414 49.577 73.3067 49.577 73.2711C49.577 73.2354 49.5653 73.2008 49.5437 73.1724L49.2291 72.935L49.5151 72.3916C49.5369 72.3567 49.5472 72.3159 49.5446 72.2749C49.5421 72.2339 49.5267 72.1947 49.5008 72.1628C49.4494 72.1228 49.3693 72.1628 49.3235 72.2486L49.0375 72.792L48.7229 72.5518C48.6772 72.5175 48.6085 72.5518 48.5713 72.6261C48.5521 72.6563 48.5434 72.692 48.5465 72.7277C48.5496 72.7634 48.5644 72.797 48.5885 72.8235Z" fill="#9269AD"/>
<path d="M27.5847 97.2651C27.5395 97.2653 27.4951 97.2535 27.456 97.2308C27.4099 97.203 27.3725 97.1628 27.3482 97.1147C27.324 97.0667 27.3137 97.0127 27.3187 96.9591V95.7265C27.3225 95.6166 27.3532 95.5094 27.408 95.4142C27.4629 95.3189 27.5402 95.2386 27.6333 95.1802L28.7001 94.5625C28.7453 94.5335 28.7973 94.5167 28.8509 94.5137C28.9045 94.5107 28.958 94.5216 29.0061 94.5453C29.0532 94.5756 29.0909 94.6184 29.1152 94.6689C29.1394 94.7194 29.1492 94.7756 29.1434 94.8313V96.0639C29.1389 96.1736 29.1079 96.2806 29.0532 96.3757C28.9984 96.4708 28.9214 96.5512 28.8288 96.6102L27.762 97.2251C27.7074 97.2535 27.6463 97.2673 27.5847 97.2651ZM28.8774 94.7684C28.8604 94.7712 28.8439 94.777 28.8288 94.7855L27.762 95.4033C27.7084 95.4394 27.6638 95.4873 27.6316 95.5433C27.5994 95.5993 27.5804 95.662 27.5761 95.7265V96.9591C27.5718 96.976 27.5718 96.9937 27.5761 97.0106C27.5931 97.0059 27.6094 96.9991 27.6248 96.9906L28.6915 96.3757C28.7451 96.3396 28.7898 96.2917 28.822 96.2357C28.8542 96.1796 28.8732 96.117 28.8774 96.0525V94.8199C28.8806 94.8028 28.8806 94.7854 28.8774 94.7684Z" fill="#455A64"/>
<path d="M30.05 94.3851L34.2542 91.957C34.3944 91.8769 34.5059 91.9427 34.5059 92.1028V92.4289C34.5013 92.5161 34.4761 92.601 34.4324 92.6765C34.3886 92.7521 34.3276 92.8162 34.2542 92.8636L30.05 95.2917C29.9127 95.3718 29.7983 95.2917 29.7983 95.1459V94.8198C29.8031 94.7327 29.8284 94.6479 29.8722 94.5724C29.9159 94.4968 29.9768 94.4327 30.05 94.3851Z" fill="#E0E0E0"/>
<path d="M38.0037 91.2506C37.9585 91.2511 37.914 91.2392 37.875 91.2163C37.826 91.1879 37.7864 91.1456 37.7615 91.0946C37.7365 91.0437 37.7273 90.9865 37.7349 90.9303V89.6977C37.7392 89.5876 37.7704 89.4803 37.8258 89.3851C37.8811 89.2899 37.9589 89.2097 38.0524 89.1514L39.1191 88.5336C39.1636 88.5042 39.2154 88.4878 39.2686 88.4862C39.3219 88.4846 39.3746 88.498 39.4207 88.5248C39.4668 88.5515 39.5045 88.5906 39.5295 88.6377C39.5546 88.6847 39.566 88.7379 39.5624 88.791V90.0237C39.5587 90.1335 39.528 90.2408 39.4731 90.336C39.4183 90.4312 39.3409 90.5116 39.2478 90.57L38.1811 91.1849C38.1289 91.2223 38.0677 91.245 38.0037 91.2506ZM39.2936 88.7539C39.2776 88.7575 39.2623 88.7633 39.2478 88.771L38.1811 89.3888C38.1271 89.4247 38.082 89.4725 38.0493 89.5285C38.0166 89.5845 37.9971 89.6473 37.9923 89.712V90.9446C37.9872 90.9614 37.9872 90.9793 37.9923 90.9961C38.009 90.9908 38.0253 90.9841 38.0409 90.9761L39.1077 90.3612C39.1613 90.3251 39.2059 90.2772 39.2381 90.2212C39.2704 90.1651 39.2893 90.1025 39.2936 90.038V88.7939C39.297 88.7808 39.297 88.767 39.2936 88.7539Z" fill="#455A64"/>
<path d="M40.469 88.3705L44.6732 85.9423C44.8133 85.8623 44.9249 85.9423 44.9249 86.0882V86.4142C44.9203 86.5014 44.8951 86.5863 44.8513 86.6619C44.8076 86.7375 44.7465 86.8016 44.6732 86.849L40.469 89.2771C40.3288 89.3572 40.2173 89.2914 40.2173 89.1312V88.7938C40.2251 88.7089 40.2517 88.6269 40.2952 88.5537C40.3388 88.4804 40.3981 88.4178 40.469 88.3705Z" fill="#E0E0E0"/>
<path d="M48.4198 85.2361C48.3746 85.2363 48.3302 85.2244 48.2911 85.2017C48.245 85.174 48.2076 85.1337 48.1833 85.0857C48.159 85.0376 48.1488 84.9837 48.1538 84.93V83.6974C48.1576 83.5876 48.1883 83.4803 48.2431 83.3851C48.298 83.2899 48.3753 83.2095 48.4684 83.1511L49.5352 82.5334C49.581 82.5044 49.6334 82.4876 49.6874 82.4846C49.7415 82.4816 49.7954 82.4925 49.8441 82.5162C49.8907 82.547 49.9281 82.5899 49.9523 82.6402C49.9764 82.6906 49.9865 82.7466 49.9814 82.8022V84.0349C49.9766 84.1448 49.9452 84.2519 49.8899 84.3471C49.8346 84.4422 49.757 84.5225 49.6639 84.5811L48.5971 85.196C48.5426 85.2247 48.4814 85.2385 48.4198 85.2361ZM48.5971 83.3742C48.544 83.4108 48.4997 83.4588 48.4675 83.5147C48.4353 83.5706 48.4161 83.6331 48.4112 83.6974V84.93C48.4061 84.9468 48.4061 84.9647 48.4112 84.9815C48.4269 84.9758 48.4422 84.9691 48.457 84.9615L49.5238 84.3466C49.5778 84.3107 49.6228 84.2629 49.6555 84.2068C49.6882 84.1508 49.7077 84.0881 49.7125 84.0234V82.7879C49.7182 82.7712 49.7182 82.7531 49.7125 82.7364C49.6957 82.7402 49.6794 82.746 49.6639 82.7536L48.5971 83.3742Z" fill="#455A64"/>
<path d="M50.888 82.3558L55.0922 79.9277C55.2295 79.8476 55.3439 79.9134 55.3439 80.0735V80.3996C55.3378 80.4864 55.312 80.5707 55.2683 80.646C55.2247 80.7214 55.1645 80.7858 55.0922 80.8343L50.888 83.2624C50.7479 83.3425 50.6364 83.2624 50.6364 83.1166V82.7877C50.6414 82.701 50.6668 82.6167 50.7105 82.5416C50.7542 82.4666 50.8151 82.4029 50.888 82.3558Z" fill="#E0E0E0"/>
<path d="M30.0615 88.3678V88.8511C30.0615 89.1114 30.2446 89.2172 30.4705 89.0857L55.0665 74.8972C55.1857 74.8195 55.2849 74.7147 55.3559 74.5915C55.427 74.4682 55.468 74.33 55.4755 74.1879V73.7045C55.4755 73.4414 55.2924 73.3356 55.0665 73.4672L30.4705 87.6585C30.3513 87.7362 30.2522 87.8409 30.1811 87.9642C30.11 88.0874 30.0691 88.2257 30.0615 88.3678Z" fill="#E0E0E0"/>
<path d="M30.0615 91.2791V91.7625C30.0615 92.0227 30.2446 92.1286 30.4705 91.997L55.0665 77.8085C55.1854 77.7305 55.2843 77.6257 55.3553 77.5025C55.4264 77.3793 55.4675 77.2412 55.4755 77.0993V76.6159C55.4755 76.3528 55.2924 76.247 55.0665 76.3785L30.4705 90.5699C30.3513 90.6475 30.2522 90.7523 30.1811 90.8755C30.11 90.9988 30.0691 91.1371 30.0615 91.2791Z" fill="#E0E0E0"/>
<path d="M27.3673 91.528C28.0108 90.8902 28.171 90.6185 28.171 90.384C28.171 90.1495 28.0766 90.0208 27.7877 90.1895C27.6632 90.2618 27.5559 90.3605 27.4734 90.4785C27.3909 90.5966 27.3352 90.7312 27.3101 90.8731L26.6066 91.0304C26.6682 90.6623 26.8074 90.3115 27.015 90.0013C27.2226 89.6912 27.4938 89.4287 27.8106 89.2314C28.5142 88.8253 28.9232 89.1285 28.9232 89.8177C28.8839 90.4748 28.5979 91.0928 28.1224 91.548V92.1057L27.3673 92.5405V91.528Z" fill="#455A64"/>
<path d="M27.3588 93.3697C27.3574 93.2319 27.3921 93.096 27.4593 92.9756C27.5265 92.8553 27.624 92.7545 27.742 92.6833C27.9937 92.5403 28.1224 92.6662 28.1224 92.9293C28.1244 93.0669 28.0903 93.2027 28.0236 93.3231C27.9569 93.4435 27.8598 93.5444 27.742 93.6157C27.4875 93.7759 27.3588 93.6557 27.3588 93.3697Z" fill="#455A64"/>
<path d="M48.5885 83.7317L48.9002 83.9691L48.6142 84.5125C48.5892 84.5454 48.5756 84.5855 48.5756 84.6269C48.5756 84.6682 48.5892 84.7084 48.6142 84.7413C48.6657 84.7813 48.7458 84.7413 48.7916 84.6555L49.0776 84.1121L49.3922 84.3523C49.4379 84.3866 49.5037 84.3523 49.5437 84.278C49.5653 84.2496 49.577 84.2149 49.577 84.1793C49.577 84.1436 49.5653 84.109 49.5437 84.0806L49.2291 83.8432L49.5151 83.2998C49.5369 83.2649 49.5472 83.2241 49.5446 83.1831C49.5421 83.1421 49.5267 83.1029 49.5008 83.071C49.4494 83.031 49.3693 83.071 49.3235 83.1568L49.0375 83.7002L48.7229 83.46C48.6772 83.4285 48.6085 83.46 48.5713 83.5343C48.5521 83.5646 48.5434 83.6003 48.5465 83.6359C48.5496 83.6716 48.5644 83.7052 48.5885 83.7317Z" fill="#9269AD"/>
<path d="M76.4505 37.4452L74.3484 36.2326L74.3284 36.2183C73.2816 35.6262 71.8488 35.7149 70.2615 36.633C68.7743 37.491 67.4186 38.921 66.3976 40.5712C65.2164 42.4759 64.4757 44.6781 64.4757 46.6544C64.4757 48.4991 65.1192 49.8004 66.1631 50.3981L68.2995 51.6193C69.352 52.2914 70.8421 52.2314 72.4923 51.279C75.6898 49.4314 78.2809 44.9441 78.2809 41.2547C78.2781 39.3414 77.5745 38.0172 76.4505 37.4452Z" fill="#9269AD"/>
<path opacity="0.1" d="M68.2538 51.6137L66.1603 50.4153C65.1164 49.809 64.4729 48.5134 64.4729 46.6716C64.4729 44.6953 65.2136 42.4931 66.3948 40.5884L68.6285 41.8782C67.4473 43.7801 66.7066 45.9823 66.7066 47.9557C66.7008 49.7061 67.29 50.9673 68.2538 51.6137Z" fill="black"/>
<path opacity="0.4" d="M76.4077 37.4222C75.3781 36.9217 74.0025 37.0476 72.4895 37.9199C70.9766 38.7922 69.6467 40.2079 68.6228 41.8667L66.3892 40.5768C67.4102 38.9209 68.7687 37.4937 70.253 36.6386C71.8403 35.7205 73.2732 35.6347 74.3199 36.2239L74.34 36.2382L76.4077 37.4222Z" fill="white"/>
<path d="M71.211 42.8793C71.2151 43.102 71.1676 43.3227 71.0724 43.5241C70.9771 43.7255 70.8366 43.9022 70.6619 44.0404C70.3588 44.2149 70.1128 43.9804 70.1128 43.5142C70.1088 43.2914 70.1562 43.0707 70.2515 42.8693C70.3467 42.6679 70.4872 42.4912 70.6619 42.353C70.9651 42.1757 71.211 42.4131 71.211 42.8793Z" fill="#455A64"/>
<path d="M74.337 41.0746C74.341 41.2974 74.2936 41.5181 74.1983 41.7195C74.1031 41.9209 73.9626 42.0976 73.7879 42.2358C73.4847 42.4102 73.2388 42.1757 73.2388 41.7095C73.2347 41.4868 73.2822 41.2661 73.3774 41.0647C73.4727 40.8633 73.6132 40.6866 73.7879 40.5484C74.091 40.3739 74.337 40.6084 74.337 41.0746Z" fill="#455A64"/>
<path d="M69.3435 49.8518C69.3216 49.8545 69.2995 49.8545 69.2777 49.8518C69.2372 49.8436 69.1987 49.8275 69.1644 49.8043C69.1302 49.7811 69.1009 49.7514 69.0783 49.7168C69.0557 49.6822 69.0402 49.6434 69.0326 49.6027C69.0251 49.5621 69.0258 49.5204 69.0346 49.48C69.5322 47.1147 70.7992 45.0441 72.2607 44.2004C72.5582 44.0029 72.8979 43.8777 73.2525 43.835C73.6071 43.7923 73.9667 43.8332 74.3027 43.9544C74.9919 44.2404 75.5239 44.9297 75.7985 45.9078C75.8123 45.9856 75.7967 46.0658 75.7545 46.1327C75.7124 46.1996 75.6468 46.2483 75.5707 46.2694C75.4945 46.2905 75.4132 46.2824 75.3427 46.2468C75.2721 46.2111 75.2174 46.1504 75.1893 46.0766C74.9719 45.2929 74.5715 44.7467 74.0653 44.5379C73.8183 44.4568 73.5559 44.4337 73.2984 44.4704C73.041 44.5071 72.7955 44.6026 72.581 44.7495C71.2883 45.496 70.1128 47.4494 69.6581 49.6115C69.6406 49.6813 69.5999 49.743 69.5428 49.7867C69.4856 49.8303 69.4153 49.8533 69.3435 49.8518Z" fill="#455A64"/>
<path d="M76.4505 19.147L74.3484 17.9343H74.3284C73.2816 17.3423 71.8488 17.431 70.2615 18.349C68.7743 19.207 67.4186 20.637 66.3976 22.2872C65.2164 24.192 64.4757 26.3942 64.4757 28.3705C64.4757 30.2152 65.1192 31.5165 66.1631 32.1142L68.2995 33.3354C69.352 34.0075 70.8421 33.9475 72.4923 32.9951C75.6898 31.1475 78.2809 26.6602 78.2809 22.9851C78.2781 21.0431 77.5745 19.719 76.4505 19.147Z" fill="#9269AD"/>
<path opacity="0.1" d="M68.2538 33.3097L66.1603 32.1114C65.1164 31.5051 64.4729 30.2095 64.4729 28.3676C64.4729 26.3914 65.2136 24.1892 66.3948 22.2844L68.6285 23.5743C67.4473 25.4762 66.7066 27.6784 66.7066 29.6518C66.7008 31.4078 67.29 32.6691 68.2538 33.3097Z" fill="black"/>
<path opacity="0.4" d="M76.4077 19.1241C75.3781 18.6236 74.0025 18.7495 72.4895 19.6218C70.9766 20.4941 69.6467 21.9098 68.6228 23.5686L66.3892 22.2787C67.4102 20.6228 68.7687 19.1956 70.253 18.3405C71.8403 17.4224 73.2732 17.3366 74.3199 17.9258H74.34L76.4077 19.1241Z" fill="white"/>
<path d="M71.1767 30.647C70.9051 30.6478 70.636 30.5953 70.3845 30.4926C69.638 30.1865 69.066 29.4401 68.7715 28.3847C68.7515 28.2993 68.7654 28.2095 68.8101 28.1341C68.8548 28.0586 68.9268 28.0033 69.0113 27.9797C69.0958 27.9561 69.1861 27.966 69.2634 28.0073C69.3408 28.0487 69.3991 28.1183 69.4264 28.2017C69.6638 29.0597 70.0956 29.6317 70.6419 29.8634C70.909 29.9525 71.1932 29.9785 71.4721 29.9393C71.751 29.9001 72.017 29.7967 72.2492 29.6374C73.642 28.8338 74.9119 26.7231 75.3952 24.3893C75.4144 24.3013 75.4675 24.2244 75.543 24.1752C75.6184 24.1259 75.7102 24.1083 75.7985 24.1262C75.8422 24.1354 75.8838 24.1531 75.9207 24.1783C75.9576 24.2036 75.9892 24.2358 76.0136 24.2733C76.038 24.3107 76.0549 24.3526 76.0631 24.3966C76.0713 24.4405 76.0708 24.4857 76.0616 24.5294C75.5239 27.0806 74.1568 29.3171 72.581 30.2294C72.1571 30.4882 71.6731 30.6321 71.1767 30.647Z" fill="#455A64"/>
<path d="M71.1138 24.9842C71.118 25.2249 71.0667 25.4633 70.9641 25.681C70.8614 25.8987 70.7101 26.0899 70.5218 26.2398C70.1929 26.4285 69.9298 26.174 69.9298 25.6678C69.925 25.4274 69.9759 25.1892 70.0786 24.9719C70.1813 24.7545 70.333 24.564 70.5218 24.4151C70.8478 24.2263 71.1138 24.4809 71.1138 24.9842Z" fill="#455A64"/>
<path d="M74.4886 23.0365C74.4928 23.2768 74.4415 23.5147 74.3388 23.732C74.2362 23.9492 74.0848 24.1399 73.8966 24.2892C73.5705 24.478 73.3046 24.2234 73.3046 23.7172C73.3004 23.477 73.3517 23.239 73.4543 23.0218C73.557 22.8045 73.7083 22.6138 73.8966 22.4645C74.2226 22.2758 74.4886 22.5332 74.4886 23.0365Z" fill="#455A64"/>
<path d="M80.7521 70.6498L65.5941 79.4014C65.4418 79.479 65.2732 79.5195 65.1022 79.5195C64.9312 79.5195 64.7626 79.479 64.6103 79.4014L63.8066 78.9353C63.6626 78.8413 63.5429 78.7146 63.4574 78.5655C63.3719 78.4163 63.323 78.249 63.3147 78.0773V60.5741C63.323 60.4023 63.3719 60.235 63.4574 60.0859C63.5429 59.9367 63.6626 59.81 63.8066 59.7161L78.9646 50.9645C79.1165 50.8869 79.2846 50.8464 79.4551 50.8464C79.6256 50.8464 79.7937 50.8869 79.9456 50.9645L80.7493 51.4335C80.8936 51.5271 81.0135 51.6537 81.0991 51.8029C81.1846 51.9522 81.2334 52.1197 81.2412 52.2915V69.7976C81.2323 69.968 81.1834 70.1341 81.0985 70.2821C81.0135 70.4302 80.8949 70.5562 80.7521 70.6498Z" fill="#455A64"/>
<path d="M65.5111 79.4386C65.3669 79.4965 65.212 79.5231 65.0567 79.5167C64.9014 79.5103 64.7492 79.471 64.6102 79.4014L63.8066 78.9324C63.6626 78.8386 63.5431 78.7119 63.458 78.5627C63.373 78.4134 63.3248 78.246 63.3175 78.0744V60.5712C63.3218 60.3994 63.3711 60.2317 63.4605 60.085L65.2451 61.1231C65.157 61.2694 65.1078 61.4358 65.1021 61.6065V79.1097C65.1021 79.3986 65.2766 79.5301 65.5111 79.4386Z" fill="#263238"/>
<path d="M80.7521 70.6499L65.5941 79.4015C65.3224 79.5588 65.1022 79.433 65.1022 79.1155V61.6238C65.1105 61.452 65.1594 61.2847 65.2449 61.1356C65.3304 60.9864 65.4501 60.8597 65.5941 60.7658L80.7521 52.0142C81.0238 51.8569 81.244 51.9856 81.244 52.3002V69.8062C81.2335 69.9755 81.1836 70.1399 81.0982 70.2864C81.0127 70.4329 80.8942 70.5574 80.7521 70.6499Z" fill="#37474F"/>
<path fill-rule="evenodd" clip-rule="evenodd" d="M72.7584 66.2885L68.64 72.1228C70.459 73.9618 73.9596 72.5805 76.4593 69.0369C77.9608 66.9119 78.7673 64.6182 78.7673 62.4761L73.7823 65.3418C73.3867 65.593 73.0398 65.9138 72.7584 66.2885Z" fill="#9269AD"/>
<path opacity="0.3" fill-rule="evenodd" clip-rule="evenodd" d="M72.7584 66.2885L68.64 72.1228C70.459 73.9618 73.9596 72.5805 76.4593 69.0369C77.9608 66.9119 78.7673 64.6182 78.7673 62.4761L73.7823 65.3418C73.3867 65.593 73.0398 65.9138 72.7584 66.2885Z" fill="black"/>
<path d="M68.4312 71.9741L72.5497 66.1397C72.8523 65.7381 73.2266 65.3958 73.6536 65.1302L78.6386 62.253C78.6778 62.2304 78.7222 62.2185 78.7674 62.2185C78.8126 62.2185 78.857 62.2304 78.8961 62.253C78.9352 62.2756 78.9677 62.3082 78.9903 62.3473C79.0129 62.3865 79.0247 62.4309 79.0247 62.4761C79.0247 64.684 78.2096 67.0063 76.6709 69.1856C75.015 71.5308 72.8871 73.0237 70.9795 73.1896C70.5201 73.2428 70.0545 73.1915 69.6177 73.0394C69.1809 72.8874 68.7841 72.6386 68.457 72.3116C68.4175 72.2716 68.3922 72.2197 68.3849 72.1639C68.3777 72.1081 68.389 72.0515 68.4169 72.0027C68.4186 71.9919 68.4236 71.9819 68.4312 71.9741ZM78.4985 62.9279L73.9225 65.5763C73.5589 65.8033 73.2391 66.0939 72.9787 66.4343L68.9889 72.0828C69.2598 72.3047 69.5727 72.4697 69.9088 72.568C70.2449 72.6663 70.5974 72.6958 70.9452 72.6548C72.6784 72.5118 74.7147 71.0646 76.2562 68.8767C76.5193 68.5078 76.7567 68.1331 76.9741 67.7585C77.8547 66.2905 78.377 64.6355 78.4985 62.9279Z" fill="white"/>
<path fill-rule="evenodd" clip-rule="evenodd" d="M72.9443 65.0357L71.4371 60.5598C68.497 63.3598 66.8869 67.9358 67.8421 70.7786C67.9957 71.2839 68.2683 71.7449 68.6372 72.1228L72.7556 66.2884C72.8723 66.1042 72.9494 65.8976 72.9819 65.6819C73.0144 65.4663 73.0016 65.2462 72.9443 65.0357Z" fill="#9269AD"/>
<path d="M71.2627 60.3738C71.2935 60.3436 71.3314 60.3218 71.3729 60.3103C71.4144 60.2988 71.4582 60.298 71.5001 60.308C71.542 60.3191 71.5806 60.3402 71.6125 60.3696C71.6444 60.3991 71.6687 60.4358 71.6831 60.4767L73.1875 64.9526C73.2572 65.2015 73.2739 65.4622 73.2365 65.7179C73.199 65.9736 73.1083 66.2186 72.9701 66.437L68.8631 72.2714C68.8409 72.3013 68.8125 72.3261 68.78 72.3443C68.7475 72.3626 68.7115 72.3738 68.6744 72.3772C68.6367 72.3811 68.5986 72.3764 68.5629 72.3636C68.5273 72.3507 68.495 72.3299 68.4685 72.3028C68.0733 71.9008 67.7792 71.4107 67.6105 70.8728C66.9155 68.8051 67.5332 65.8478 69.0147 63.2824C69.621 62.2103 70.378 61.2308 71.2627 60.3738ZM72.5497 66.1395C72.6425 65.9878 72.7036 65.8189 72.7292 65.6429C72.7547 65.4669 72.7443 65.2875 72.6984 65.1157L71.3256 61.0316C68.6429 63.7829 67.1958 68.0386 68.0881 70.6984C68.2022 71.064 68.3814 71.4061 68.6172 71.7079L72.5497 66.1395Z" fill="white"/>
<path fill-rule="evenodd" clip-rule="evenodd" d="M73.5792 65.1271L77.6976 59.2927C76.2447 57.8227 73.7909 58.3174 71.4399 60.5597L72.9443 65.0356C73.0673 65.4074 73.3533 65.4474 73.5792 65.1271Z" fill="#9269AD"/>
<path opacity="0.1" fill-rule="evenodd" clip-rule="evenodd" d="M73.5792 65.1271L77.6976 59.2927C76.2447 57.8227 73.7909 58.3174 71.4399 60.5597L72.9443 65.0356C73.0673 65.4074 73.3533 65.4474 73.5792 65.1271Z" fill="black"/>
<path d="M71.2627 60.374C73.7222 58.0288 76.322 57.534 77.8807 59.1127C77.9232 59.1555 77.9494 59.2118 77.9547 59.272C77.9599 59.3321 77.9438 59.3921 77.9093 59.4416L73.788 65.276C73.7372 65.3899 73.6505 65.4841 73.5412 65.5441C73.4319 65.6042 73.3059 65.6269 73.1825 65.6088C73.0591 65.5906 72.945 65.5326 72.8576 65.4437C72.7702 65.3547 72.7143 65.2395 72.6984 65.1158L71.194 60.6399C71.1827 60.6055 71.179 60.5691 71.1829 60.5331C71.1869 60.4971 71.1984 60.4623 71.2169 60.4311C71.228 60.4091 71.2436 60.3896 71.2627 60.374ZM77.3573 59.3358C76.0217 58.1918 73.8538 58.6808 71.7345 60.6399L73.1874 64.9585C73.2032 65.0066 73.2264 65.052 73.2561 65.0929C73.3026 65.0677 73.3412 65.0301 73.3676 64.9843L77.3573 59.3358Z" fill="white"/>
<path fill-rule="evenodd" clip-rule="evenodd" d="M73.7823 65.3417L78.7673 62.4818C78.7673 61.0518 78.4241 60.0365 77.6977 59.2986L73.5793 65.133C73.3533 65.4476 73.4391 65.5477 73.7823 65.3417Z" fill="#9269AD"/>
<path opacity="0.2" fill-rule="evenodd" clip-rule="evenodd" d="M73.7823 65.3417L78.7673 62.4818C78.7673 61.0518 78.4241 60.0365 77.6977 59.2986L73.5793 65.133C73.3533 65.4476 73.4391 65.5477 73.7823 65.3417Z" fill="black"/>
<path d="M73.3676 64.9785L77.4888 59.1441C77.5106 59.1137 77.5388 59.0885 77.5714 59.0702C77.604 59.0519 77.6403 59.041 77.6776 59.0383C77.7149 59.0346 77.7525 59.0394 77.7876 59.0523C77.8228 59.0652 77.8546 59.0858 77.8807 59.1127C78.6614 59.902 79.0247 60.9717 79.0247 62.476C79.0247 62.5212 79.0128 62.5657 78.9902 62.6048C78.9676 62.644 78.9351 62.6765 78.896 62.6991L73.9138 65.5763C73.8052 65.6392 73.4791 65.8279 73.2789 65.6077C73.223 65.5341 73.1927 65.4442 73.1927 65.3517C73.1927 65.2593 73.223 65.1694 73.2789 65.0958L73.3676 64.9785ZM77.7291 59.7076L74.0654 64.8984L78.5156 62.3244C78.487 61.189 78.2353 60.3453 77.7291 59.7076Z" fill="white"/>
<path d="M112.55 44.3206C112.285 44.193 111.994 44.1294 111.701 44.1348C111.407 44.1403 111.119 44.2147 110.859 44.3521L84.7933 59.4014C84.5419 59.5682 84.3333 59.7918 84.1843 60.0542C84.0352 60.3165 83.9499 60.6101 83.9353 60.9115V68.3475C83.924 68.6449 83.994 68.9398 84.1379 69.2004C84.2818 69.4609 84.494 69.6773 84.7517 69.8262C85.0095 69.9751 85.303 70.0508 85.6006 70.0453C85.8982 70.0397 86.1886 69.953 86.4406 69.7946L112.507 54.7453C112.758 54.5785 112.967 54.3549 113.116 54.0926C113.265 53.8302 113.35 53.5366 113.365 53.2352V45.7992C113.354 45.5061 113.275 45.2196 113.133 44.9627C112.992 44.7059 112.792 44.4859 112.55 44.3206Z" fill="#263238"/>
<path d="M113.356 45.6418C113.285 45.2014 112.927 45.047 112.498 45.2986L101.63 51.5706L86.432 60.3451C86.1741 60.5053 85.9614 60.7288 85.8143 60.9943L84.1783 60.0505C84.3252 59.7849 84.5367 59.5606 84.7933 59.3984L110.859 44.352C111.099 44.1997 111.375 44.113 111.659 44.1005C111.943 44.0879 112.225 44.1499 112.478 44.2804C112.73 44.4109 112.944 44.6052 113.098 44.8441C113.253 45.0829 113.341 45.358 113.356 45.6418Z" fill="#455A64"/>
<path d="M85.5569 61.8553V69.2913C85.5569 69.8461 85.9487 70.072 86.4292 69.7946L112.495 54.7453C112.747 54.5784 112.955 54.3548 113.104 54.0925C113.253 53.8302 113.339 53.5366 113.353 53.2352V45.7992C113.353 45.2444 112.964 45.0184 112.495 45.2959L101.627 51.5707L86.4263 60.3452C86.173 60.5109 85.9623 60.734 85.8112 60.9964C85.6602 61.2587 85.5731 61.553 85.5569 61.8553Z" fill="#37474F"/>
<path d="M89.9899 60.7657L90.416 61.6694C90.421 61.6824 90.4286 61.6942 90.4383 61.7041C90.4481 61.714 90.4598 61.7217 90.4727 61.7268C90.4856 61.7319 90.4995 61.7343 90.5133 61.7338C90.5272 61.7332 90.5408 61.7298 90.5533 61.7238L91.5057 61.3605C91.6573 61.3005 91.7173 61.515 91.6087 61.7209L90.9194 63.0136C90.8779 63.0886 90.859 63.1741 90.8651 63.2596L91.0281 64.4322C91.0538 64.6181 90.8965 64.8612 90.7621 64.844L89.9041 64.7382C89.8696 64.7398 89.8359 64.7497 89.806 64.7672C89.7761 64.7846 89.7509 64.809 89.7325 64.8383L88.8745 65.9279C88.7401 66.0995 88.5885 66.0366 88.6085 65.8221L88.7715 64.4636C88.7787 64.4306 88.7775 64.3963 88.768 64.3638C88.7585 64.3313 88.741 64.3017 88.7172 64.2777L88.0279 63.7801C87.9193 63.7 87.9793 63.4169 88.1309 63.3025L89.0833 62.5675C89.15 62.5117 89.1979 62.4369 89.2206 62.353L89.6467 60.9573C89.7411 60.7371 89.9213 60.6255 89.9899 60.7657Z" fill="#9269AD"/>
<path d="M94.809 58.0087L95.2351 58.9125C95.2397 58.9257 95.247 58.9378 95.2567 58.948C95.2664 58.9581 95.2782 58.966 95.2912 58.9712C95.3043 58.9764 95.3183 58.9786 95.3323 58.9779C95.3463 58.9771 95.36 58.9733 95.3724 58.9668L96.3247 58.6036C96.4763 58.5435 96.5364 58.758 96.4277 58.9639L95.747 60.2567C95.7053 60.3326 95.6864 60.419 95.6927 60.5055L95.8557 61.6752C95.8815 61.8611 95.7242 62.1042 95.5897 62.0871L94.7317 61.9841C94.6972 61.9844 94.6634 61.9935 94.6333 62.0105C94.6033 62.0275 94.5781 62.0519 94.5601 62.0813L93.7021 63.171C93.5677 63.3426 93.4161 63.2825 93.4362 63.0652L93.5992 61.7067C93.6063 61.6736 93.6051 61.6393 93.5956 61.6068C93.5861 61.5744 93.5687 61.5448 93.5448 61.5208L92.8556 61.0231C92.7469 60.9431 92.807 60.6628 92.9585 60.5455L93.9109 59.8105C93.9776 59.7548 94.0255 59.6799 94.0482 59.596L94.4743 58.2003C94.5458 57.9772 94.7403 57.8657 94.809 58.0087Z" fill="#9269AD"/>
<path d="M99.6281 55.2515L100.054 56.1553C100.059 56.1682 100.067 56.18 100.077 56.1899C100.086 56.1998 100.098 56.2075 100.111 56.2126C100.124 56.2178 100.138 56.2201 100.152 56.2196C100.165 56.2191 100.179 56.2157 100.192 56.2096L101.144 55.8435C101.295 55.7863 101.356 55.998 101.247 56.2039L100.558 57.4966C100.516 57.5727 100.497 57.659 100.503 57.7454L100.666 58.9152C100.692 59.1011 100.535 59.347 100.4 59.3299L99.5423 59.224C99.5077 59.2256 99.4741 59.2356 99.4442 59.253C99.4143 59.2705 99.3891 59.2949 99.3707 59.3241L98.5127 60.4109C98.3783 60.5854 98.2267 60.5225 98.2467 60.308L98.4097 58.9495C98.4169 58.916 98.4156 58.8812 98.4061 58.8483C98.3967 58.8154 98.3792 58.7853 98.3554 58.7607L97.6661 58.2631C97.5574 58.1859 97.6175 57.9027 97.7691 57.7855L98.7215 57.0504C98.7882 56.9947 98.8361 56.9198 98.8588 56.8359L99.2849 55.4403C99.365 55.22 99.5595 55.1056 99.6281 55.2515Z" fill="#9269AD"/>
<path d="M104.447 52.4916L104.873 53.3954C104.878 53.4083 104.886 53.4201 104.896 53.43C104.905 53.4399 104.917 53.4476 104.93 53.4527C104.943 53.4579 104.957 53.4602 104.971 53.4597C104.984 53.4592 104.998 53.4558 105.011 53.4497L105.963 53.0836C106.115 53.0264 106.175 53.2381 106.066 53.444L105.377 54.7367C105.335 54.8128 105.316 54.8991 105.322 54.9855L105.485 56.1553C105.511 56.3412 105.354 56.5871 105.219 56.57L104.361 56.4641C104.327 56.4657 104.293 56.4757 104.263 56.4931C104.233 56.5106 104.208 56.5349 104.19 56.5642L103.332 57.651C103.197 57.8255 103.046 57.7626 103.066 57.5481L103.229 56.1896C103.236 56.1565 103.235 56.1222 103.225 56.0897C103.216 56.0573 103.198 56.0277 103.174 56.0037L102.485 55.506C102.377 55.426 102.437 55.1428 102.588 55.0256L103.541 54.2934C103.606 54.2366 103.654 54.1621 103.678 54.0789L104.104 52.6832C104.184 52.4716 104.379 52.3486 104.447 52.4916Z" fill="#9269AD"/>
<path d="M109.266 49.7318L109.692 50.6355C109.697 50.6485 109.705 50.6603 109.715 50.6702C109.725 50.6801 109.736 50.6878 109.749 50.6929C109.762 50.698 109.776 50.7004 109.79 50.6999C109.804 50.6993 109.817 50.6959 109.83 50.6899L110.782 50.3266C110.934 50.2666 110.994 50.4811 110.885 50.687L110.196 51.9797C110.154 52.0547 110.135 52.1402 110.141 52.2257L110.304 53.3983C110.33 53.5842 110.173 53.8273 110.039 53.8101L109.181 53.7043C109.146 53.7059 109.112 53.7159 109.082 53.7333C109.053 53.7507 109.027 53.7751 109.009 53.8044L108.151 54.8941C108.016 55.0657 107.865 55.0028 107.885 54.7882L108.048 53.4297C108.055 53.3967 108.054 53.3624 108.044 53.3299C108.035 53.2974 108.017 53.2679 107.994 53.2438L107.316 52.7576C107.207 52.6776 107.267 52.3944 107.419 52.28L108.371 51.545C108.438 51.4893 108.486 51.4144 108.508 51.3305L108.935 49.9348C109.003 49.7003 109.189 49.5888 109.266 49.7318Z" fill="#9269AD"/>
<path d="M89.272 56.0093L87.842 55.1857C87.8136 55.173 87.7897 55.1521 87.7734 55.1256L87.5103 54.668L88.3683 54.179L88.3425 54.2533L89.272 56.0093Z" fill="#9269AD"/>
<path opacity="0.2" d="M89.272 56.0093L87.842 55.1857C87.8136 55.173 87.7897 55.1521 87.7734 55.1256L87.5103 54.668L88.3683 54.179L88.3425 54.2533L89.272 56.0093Z" fill="black"/>
<path d="M88.2339 54.2476L89.2234 55.9636C89.2373 55.9883 89.258 56.0085 89.2831 56.0217C89.3082 56.0348 89.3366 56.0404 89.3648 56.0377C89.3931 56.0349 89.4199 56.024 89.442 56.0063C89.4641 55.9886 89.4806 55.9648 89.4894 55.9378L90.5333 52.9263L88.2339 54.2476Z" fill="#9269AD"/>
<path d="M113.193 30.3351C113.181 30.096 113.112 29.8633 112.992 29.656C112.872 29.4487 112.705 29.2727 112.504 29.1425C112.29 29.0353 112.054 28.9795 111.815 28.9795C111.575 28.9795 111.339 29.0353 111.125 29.1425L84.6246 44.4349C84.4239 44.5661 84.257 44.7427 84.1372 44.9504C84.0175 45.1581 83.9483 45.391 83.9353 45.6304V54.3534C83.9483 54.5928 84.0175 54.8257 84.1372 55.0334C84.257 55.2411 84.4239 55.4177 84.6246 55.5489C84.8381 55.6574 85.0743 55.714 85.3138 55.714C85.5534 55.714 85.7895 55.6574 86.0031 55.5489L112.57 40.2136C113.19 39.8589 113.196 39.5043 113.196 39.0696L113.193 30.3351Z" fill="#9269AD"/>
<path opacity="0.2" d="M83.9238 54.3507C83.9368 54.5901 84.006 54.823 84.1257 55.0307C84.2455 55.2384 84.4124 55.415 84.6131 55.5462C84.8071 55.645 85.0198 55.7015 85.2373 55.7118C85.4547 55.7222 85.6719 55.6862 85.8744 55.6062C85.5512 55.7292 85.3024 55.5433 85.3024 55.1486V46.4228C85.3103 46.1831 85.3803 45.9495 85.5054 45.745L84.124 44.947C84.0012 45.1535 83.9323 45.3876 83.9238 45.6277V54.3507Z" fill="black"/>
<path opacity="0.4" d="M113.162 30.1408C113.082 29.8548 112.813 29.7547 112.495 29.9377L85.9917 45.2301C85.7871 45.3559 85.6194 45.5335 85.5055 45.7449L84.127 44.947C84.2433 44.7373 84.4105 44.5603 84.6132 44.4322L111.114 29.1426C111.327 29.0341 111.564 28.9775 111.803 28.9775C112.043 28.9775 112.279 29.0341 112.492 29.1426C112.666 29.2546 112.815 29.4009 112.93 29.5725C113.045 29.7442 113.124 29.9375 113.162 30.1408Z" fill="white"/>
<path d="M87.1671 46.5771L110.965 32.8091C111.197 32.6775 111.386 32.7376 111.386 32.9464C111.368 33.075 111.322 33.1978 111.249 33.3051C111.176 33.4123 111.079 33.5011 110.965 33.5641L87.1671 47.3236C86.9383 47.458 86.7495 47.3979 86.7495 47.1892C86.7675 47.062 86.8146 46.9406 86.887 46.8345C86.9594 46.7284 87.0552 46.6403 87.1671 46.5771Z" fill="white"/>
<path d="M87.1671 50.4696L107.579 38.6864C107.811 38.552 107.996 38.6121 107.996 38.8209C107.98 38.9496 107.933 39.0726 107.861 39.1803C107.788 39.288 107.692 39.3774 107.579 39.4415L87.1671 51.2218C86.9383 51.3562 86.7495 51.2933 86.7495 51.0845C86.7686 50.9573 86.816 50.836 86.8883 50.7295C86.9605 50.6231 87.0558 50.5343 87.1671 50.4696Z" fill="white"/>
<path d="M87.1671 52.3629L110.479 38.8865C110.708 38.7521 110.896 38.815 110.896 39.0238C110.878 39.1516 110.831 39.2735 110.758 39.3804C110.686 39.4874 110.591 39.5766 110.479 39.6416L87.1671 53.115C86.9383 53.2495 86.7495 53.1894 86.7495 52.9806C86.7667 52.8524 86.8133 52.7299 86.8858 52.6227C86.9582 52.5156 87.0545 52.4266 87.1671 52.3629Z" fill="white"/>
<path d="M87.1671 48.4676L110.479 34.9913C110.708 34.8568 110.896 34.9198 110.896 35.1285C110.879 35.2567 110.832 35.3791 110.76 35.4862C110.688 35.5934 110.591 35.6824 110.479 35.7463L87.1671 49.2341C86.9383 49.3656 86.7495 49.3056 86.7495 49.0968C86.765 48.9665 86.8109 48.8418 86.8834 48.7325C86.9559 48.6232 87.0531 48.5325 87.1671 48.4676Z" fill="white"/>
<path d="M112.55 15.346C112.285 15.2184 111.994 15.1548 111.701 15.1602C111.407 15.1657 111.119 15.2401 110.859 15.3775L84.7933 30.4239C84.5424 30.5913 84.3341 30.815 84.1851 31.0772C84.0362 31.3394 83.9506 31.6328 83.9353 31.934V39.37C83.924 39.6675 83.994 39.9623 84.1379 40.2229C84.2818 40.4835 84.494 40.6999 84.7517 40.8487C85.0095 40.9976 85.303 41.0734 85.6006 41.0678C85.8982 41.0622 86.1886 40.9756 86.4406 40.8172L112.507 25.7679C112.758 25.601 112.967 25.3774 113.116 25.1151C113.265 24.8528 113.35 24.5591 113.365 24.2578V16.8218C113.354 16.5292 113.274 16.2432 113.133 15.9869C112.991 15.7305 112.791 15.511 112.55 15.346Z" fill="#263238"/>
<path d="M113.356 16.6672C113.285 16.2268 112.927 16.0724 112.498 16.3212L101.63 22.5932L86.432 31.3676C86.1746 31.5296 85.9621 31.7539 85.8143 32.0197L84.1783 31.0759C84.3244 30.8097 84.5361 30.5852 84.7933 30.4238L110.859 15.3774C111.099 15.2251 111.375 15.1384 111.659 15.1259C111.943 15.1133 112.225 15.1753 112.478 15.3058C112.73 15.4363 112.944 15.6306 113.098 15.8695C113.253 16.1083 113.341 16.3834 113.356 16.6672Z" fill="#455A64"/>
<path d="M85.5569 32.8807V40.3167C85.5569 40.8715 85.9487 41.0974 86.4292 40.82L112.495 25.7707C112.747 25.6038 112.955 25.3802 113.104 25.1179C113.253 24.8556 113.339 24.5619 113.353 24.2606V16.8246C113.353 16.2698 112.964 16.0438 112.495 16.3212L101.627 22.5932L86.4263 31.3706C86.173 31.5363 85.9623 31.7594 85.8112 32.0218C85.6602 32.2841 85.5731 32.5784 85.5569 32.8807Z" fill="#37474F"/>
<path d="M89.9899 31.7939L90.416 32.6976C90.421 32.7106 90.4286 32.7224 90.4383 32.7323C90.4481 32.7421 90.4598 32.7499 90.4727 32.755C90.4856 32.7601 90.4995 32.7625 90.5133 32.762C90.5272 32.7614 90.5408 32.758 90.5533 32.752L91.5057 32.3859C91.6573 32.3287 91.7173 32.5432 91.6087 32.7462L90.9194 34.039C90.878 34.115 90.8591 34.2014 90.8651 34.2878L91.0281 35.4575C91.0538 35.6434 90.8965 35.8894 90.7621 35.8722L89.9041 35.7664C89.8696 35.768 89.8359 35.778 89.806 35.7954C89.7761 35.8128 89.7509 35.8372 89.7325 35.8665L88.8745 36.9533C88.7401 37.1278 88.5885 37.0648 88.6085 36.8503L88.7715 35.4918C88.7787 35.4588 88.7775 35.4245 88.768 35.392C88.7585 35.3595 88.741 35.3299 88.7172 35.3059L88.0279 34.8083C87.9193 34.7282 87.9793 34.4451 88.1309 34.3278L89.0833 33.5957C89.1493 33.5393 89.1971 33.4647 89.2206 33.3812L89.6467 31.9855C89.7411 31.7624 89.9213 31.6509 89.9899 31.7939Z" fill="#9269AD"/>
<path d="M94.809 29.0341L95.2351 29.9378C95.24 29.9508 95.2476 29.9626 95.2574 29.9725C95.2672 29.9824 95.2789 29.9901 95.2918 29.9952C95.3047 30.0003 95.3185 30.0027 95.3324 30.0022C95.3463 30.0017 95.3599 29.9983 95.3724 29.9922L96.3247 29.629C96.4763 29.5689 96.5364 29.7834 96.4277 29.9893L95.747 31.2821C95.7055 31.3571 95.6866 31.4425 95.6927 31.528L95.8557 32.7006C95.8815 32.8865 95.7242 33.1296 95.5897 33.1125L94.7317 33.0066C94.6972 33.0082 94.6635 33.0182 94.6336 33.0356C94.6038 33.053 94.5785 33.0774 94.5601 33.1067L93.7021 34.1964C93.5677 34.368 93.4161 34.3079 93.4362 34.0906L93.5992 32.7321C93.6063 32.699 93.6051 32.6647 93.5956 32.6322C93.5861 32.5998 93.5687 32.5702 93.5448 32.5462L92.8556 32.0485C92.7469 31.9684 92.807 31.6853 92.9585 31.5709L93.9109 30.8359C93.9776 30.7802 94.0255 30.7053 94.0482 30.6214L94.4743 29.2257C94.5458 29.0026 94.7403 28.8911 94.809 29.0341Z" fill="#9269AD"/>
<path d="M99.6281 26.274L100.054 27.1806C100.059 27.1936 100.067 27.2054 100.077 27.2153C100.086 27.2252 100.098 27.2329 100.111 27.238C100.124 27.2431 100.138 27.2455 100.152 27.245C100.165 27.2444 100.179 27.241 100.192 27.235L101.144 26.8689C101.295 26.8117 101.356 27.0233 101.247 27.2292L100.558 28.522C100.516 28.5979 100.497 28.6843 100.503 28.7708L100.666 29.9405C100.692 30.1264 100.535 30.3695 100.4 30.3552L99.5423 30.2494C99.5078 30.2497 99.4739 30.2588 99.4439 30.2758C99.4139 30.2928 99.3887 30.3172 99.3707 30.3466L98.5127 31.4363C98.3783 31.6079 98.2267 31.5479 98.2467 31.3305L98.4097 29.972C98.4166 29.9389 98.4153 29.9047 98.4058 29.8722C98.3963 29.8398 98.379 29.8102 98.3554 29.7861L97.6661 29.2884C97.5574 29.2112 97.6175 28.9281 97.7691 28.8108L98.7215 28.0758C98.7882 28.0201 98.8361 27.9452 98.8588 27.8613L99.2849 26.4656C99.365 26.2454 99.5595 26.131 99.6281 26.274Z" fill="#9269AD"/>
<path d="M104.447 23.5171L104.873 24.4209C104.878 24.4339 104.886 24.4457 104.896 24.4555C104.905 24.4654 104.917 24.4732 104.93 24.4783C104.943 24.4834 104.957 24.4858 104.971 24.4852C104.985 24.4847 104.998 24.4813 105.011 24.4752L105.963 24.1092C106.115 24.052 106.175 24.2636 106.066 24.4695L105.377 25.7622C105.335 25.8383 105.316 25.9246 105.322 26.0111L105.485 27.1808C105.511 27.3667 105.354 27.6126 105.219 27.5955L104.361 27.4897C104.327 27.4913 104.293 27.5012 104.263 27.5187C104.233 27.5361 104.208 27.5605 104.19 27.5898L103.332 28.6766C103.197 28.851 103.046 28.7881 103.066 28.5736L103.229 27.2151C103.239 27.181 103.24 27.145 103.232 27.1105C103.224 27.076 103.207 27.0441 103.183 27.0178L102.494 26.5201C102.385 26.4429 102.445 26.1598 102.597 26.0425L103.549 25.3104C103.615 25.2529 103.663 25.1773 103.687 25.093L104.113 23.6973C104.184 23.4857 104.379 23.3713 104.447 23.5171Z" fill="#9269AD"/>
<path d="M109.266 20.7571L109.692 21.6609C109.697 21.6739 109.705 21.6857 109.715 21.6956C109.724 21.7054 109.736 21.7132 109.749 21.7183C109.762 21.7234 109.776 21.7258 109.79 21.7252C109.804 21.7247 109.817 21.7213 109.83 21.7152L110.782 21.3492C110.934 21.292 110.994 21.5065 110.885 21.7095L110.196 23.0137C110.154 23.0898 110.135 23.1761 110.141 23.2625L110.304 24.4322C110.33 24.6181 110.173 24.8641 110.038 24.8469L109.18 24.7411C109.146 24.7427 109.112 24.7527 109.082 24.7701C109.053 24.7875 109.027 24.8119 109.009 24.8412L108.151 25.928C108.016 26.1025 107.865 26.0396 107.885 25.8251L108.048 24.4666C108.055 24.4335 108.054 24.3992 108.044 24.3667C108.035 24.3342 108.017 24.3047 107.994 24.2807L107.304 23.783C107.196 23.7029 107.256 23.4198 107.407 23.3025L108.36 22.5704C108.426 22.5147 108.474 22.4398 108.497 22.3559L108.923 20.9602C109.003 20.7257 109.189 20.6141 109.266 20.7571Z" fill="#455A64"/>
<path d="M89.272 27.0347L87.842 26.2111C87.8136 26.1984 87.7897 26.1775 87.7734 26.151L87.5103 25.6934L88.3683 25.2043L88.3425 25.2787L89.272 27.0347Z" fill="#9269AD"/>
<path opacity="0.2" d="M89.272 27.0347L87.842 26.2111C87.8136 26.1984 87.7897 26.1775 87.7734 26.151L87.5103 25.6934L88.3683 25.2043L88.3425 25.2787L89.272 27.0347Z" fill="black"/>
<path d="M88.2339 25.273L89.2234 26.989C89.2373 27.0137 89.258 27.0339 89.2831 27.0471C89.3082 27.0602 89.3366 27.0658 89.3648 27.063C89.3931 27.0603 89.4199 27.0494 89.442 27.0317C89.4641 27.014 89.4806 26.9902 89.4894 26.9632L90.5333 23.9517L88.2339 25.273Z" fill="#9269AD"/>
<path d="M113.193 1.36055C113.18 1.12117 113.111 0.888215 112.991 0.680528C112.871 0.472842 112.704 0.296261 112.504 0.165075C112.29 0.0565594 112.054 0 111.815 0C111.575 0 111.339 0.0565594 111.125 0.165075L84.6131 15.4575C84.4124 15.5887 84.2455 15.7653 84.1257 15.9729C84.006 16.1806 83.9368 16.4136 83.9238 16.653V25.376C83.9368 25.6154 84.006 25.8483 84.1257 26.056C84.2455 26.2637 84.4124 26.4403 84.6131 26.5715C84.8266 26.68 85.0628 26.7365 85.3024 26.7365C85.5419 26.7365 85.7781 26.68 85.9916 26.5715L112.558 11.2333C113.179 10.8815 113.184 10.5269 113.184 10.0893L113.193 1.36055Z" fill="#9269AD"/>
<path opacity="0.2" d="M83.9238 25.3761C83.9368 25.6155 84.006 25.8484 84.1257 26.0561C84.2455 26.2638 84.4124 26.4404 84.6131 26.5716C84.807 26.6707 85.02 26.727 85.2375 26.7369C85.4551 26.7468 85.6722 26.7099 85.8744 26.6288C85.5512 26.7518 85.3024 26.5687 85.3024 26.174V17.4482C85.3107 17.2076 85.3806 16.9733 85.5054 16.7675L84.124 15.9724C84.0012 16.1789 83.9323 16.413 83.9238 16.6531V25.3761Z" fill="black"/>
<path opacity="0.4" d="M113.162 1.16597C113.082 0.879968 112.813 0.779868 112.495 0.962908L85.9917 16.2553C85.7871 16.3811 85.6194 16.5587 85.5055 16.7701L84.127 15.9722C84.2433 15.7625 84.4105 15.5855 84.6132 15.4574L111.114 0.164968C111.328 0.0577702 111.564 0.00195312 111.803 0.00195312C112.042 0.00195312 112.278 0.0577702 112.492 0.164968C112.666 0.27725 112.816 0.424001 112.931 0.596164C113.046 0.768327 113.124 0.96225 113.162 1.16597Z" fill="white"/>
<path d="M87.1671 17.5997L110.965 3.83448C111.197 3.70292 111.386 3.76298 111.386 3.97176C111.368 4.10037 111.322 4.22322 111.249 4.33048C111.176 4.43774 111.079 4.52645 110.965 4.58952L87.1671 18.3547C86.9383 18.4891 86.7495 18.4291 86.7495 18.2203C86.7677 18.092 86.8148 17.9696 86.8871 17.8621C86.9594 17.7546 87.0551 17.6649 87.1671 17.5997Z" fill="white"/>
<path d="M87.1671 21.4921L107.579 9.7089C107.811 9.57448 107.996 9.63454 107.996 9.84332C107.98 9.97174 107.934 10.0945 107.861 10.2018C107.788 10.309 107.692 10.3979 107.579 10.4611L87.1671 22.2471C86.9383 22.3787 86.7495 22.3186 86.7495 22.1099C86.7669 21.9817 86.8136 21.8593 86.8861 21.7522C86.9585 21.645 87.0546 21.556 87.1671 21.4921Z" fill="white"/>
<path d="M87.1671 23.3855L110.479 9.91205C110.708 9.77763 110.896 9.84055 110.896 10.0465C110.878 10.1747 110.831 10.2972 110.759 10.4047C110.687 10.5122 110.591 10.6019 110.479 10.6671L87.1671 24.1405C86.9383 24.275 86.7495 24.2149 86.7495 24.0061C86.7677 23.8779 86.8148 23.7554 86.8871 23.6479C86.9594 23.5404 87.0551 23.4507 87.1671 23.3855Z" fill="white"/>
<path d="M87.1671 19.5044L110.479 6.02813C110.708 5.89371 110.896 5.95663 110.896 6.16541C110.878 6.29316 110.831 6.41506 110.758 6.52202C110.686 6.62898 110.591 6.71825 110.479 6.78317L87.1671 20.2566C86.9383 20.391 86.7495 20.331 86.7495 20.1222C86.7667 19.994 86.8133 19.8715 86.8858 19.7643C86.9582 19.6571 87.0545 19.5682 87.1671 19.5044Z" fill="white"/>
<path d="M97.0569 72.0627L107.081 70.0979C107.144 70.0875 107.209 70.0968 107.267 70.1247C107.325 70.1525 107.373 70.1975 107.404 70.2534C107.435 70.3094 107.448 70.3737 107.442 70.4374C107.435 70.5012 107.409 70.5614 107.367 70.6098L100.569 78.3089L97.0569 72.0627Z" fill="#FFA8A7"/>
<path d="M107.373 70.6098C107.415 70.5614 107.441 70.5012 107.448 70.4374C107.454 70.3737 107.441 70.3094 107.41 70.2534C107.378 70.1975 107.331 70.1525 107.273 70.1247C107.215 70.0968 107.15 70.0875 107.087 70.0979L105.125 70.4897C105.394 70.6561 105.611 70.8934 105.753 71.1755C105.896 71.4576 105.957 71.7735 105.932 72.0884V72.2658L107.373 70.6098Z" fill="#9269AD"/>
<path d="M63.1974 99.7445L64.0153 99.2726L65.0078 98.7006L100.572 78.3003C100.898 77.196 100.796 76.0093 100.286 74.9769C99.5737 73.3868 98.1952 72.1169 97.0512 72.0569L61.5157 92.4544L59.6252 93.5383C60.8894 92.9034 64.4558 99.0896 63.1974 99.7445Z" fill="#37474F"/>
<path d="M66.3233 97.9628L68.1537 96.9103C68.6943 96.6243 68.3854 95.2944 67.7533 93.9216C66.9154 92.0969 65.2709 90.3294 64.553 90.7098L63.2031 91.4849L62.7255 91.7709C63.4433 91.3905 65.0907 93.1551 65.9258 94.9826C66.5293 96.2982 66.8381 97.5767 66.3777 97.9256C66.3633 97.9427 66.3445 97.9555 66.3233 97.9628Z" fill="#EBEBEB"/>
<path d="M66.7781 97.6969C68.0336 97.0305 64.4386 90.8329 63.1802 91.5021L61.3469 92.5489C62.6025 91.8854 66.2089 98.0773 64.9419 98.7436L66.7781 97.6969Z" fill="#9269AD"/>
<path d="M63.1974 99.7446L65.0078 98.7092C66.2462 98.0629 62.8256 92.0569 61.5157 92.4544C61.4894 92.4594 61.4642 92.4691 61.4413 92.483L59.6252 93.5384C60.8894 92.9034 64.4558 99.0896 63.1974 99.7446Z" fill="#EBEBEB"/>
<path opacity="0.15" d="M107.419 70.2724L107.081 70.0979L99.8083 74.0762L62.1992 95.6577C62.1277 95.5462 62.0705 95.5376 62.0248 95.6148C63.0944 97.2822 63.9009 99.3814 63.1974 99.7475L64.0153 99.2756L65.0078 98.7036L100.572 78.3032L107.37 70.6041C107.412 70.561 107.439 70.5057 107.448 70.4461C107.457 70.3865 107.447 70.3257 107.419 70.2724Z" fill="black"/>
<path d="M55.5125 104.14L63.1974 99.7446C63.735 99.4586 63.4376 98.1487 62.817 96.7845C61.9847 94.9569 60.3459 93.1723 59.6252 93.5384L51.9089 97.9456C50.376 98.8294 51.786 102.153 53.4934 103.64C54.1283 104.209 54.849 104.458 55.5125 104.14Z" fill="#F28F8F"/>
<path opacity="0.1" d="M55.9702 101.758C55.5297 100.025 54.1283 98.3261 52.8385 97.9629C52.6491 97.8959 52.4464 97.8752 52.2474 97.9026C52.0483 97.93 51.8588 98.0046 51.6945 98.1202C50.5505 99.1927 51.8861 102.241 53.502 103.649C54.1226 104.198 54.8176 104.444 55.4811 104.155C56.0474 103.817 56.2791 102.931 55.9702 101.758Z" fill="black"/>
</svg>
