<svg id="svg" version="1.1" xmlns="http://www.w3.org/2000/svg" xmlns:xlink="http://www.w3.org/1999/xlink" width="400" height="90" viewBox="0, 0, 400,90"><g id="svgg"><path id="path0" d="M0.010 2.537 C 0.110 9.107,2.464 13.474,7.390 16.229 C 10.594 18.021,10.716 18.029,36.583 18.150 L 57.917 18.250 31.118 45.051 L 4.319 71.852 4.404 72.801 C 4.451 73.323,4.532 74.537,4.584 75.500 C 4.635 76.462,4.748 77.662,4.834 78.167 C 4.920 78.671,5.029 79.314,5.076 79.597 C 5.527 82.298,8.659 86.560,11.000 87.657 C 11.321 87.807,11.846 88.097,12.167 88.301 C 14.896 90.035,14.032 90.000,54.601 90.000 L 90.000 90.000 89.999 88.292 C 89.993 81.443,87.784 76.945,82.944 73.928 C 81.773 73.198,80.725 72.743,79.847 72.583 C 79.610 72.540,78.854 72.379,78.167 72.226 C 77.045 71.975,74.611 71.937,54.417 71.848 L 31.917 71.750 34.708 68.980 C 36.244 67.456,37.500 66.125,37.500 66.021 C 37.500 65.918,37.576 65.833,37.668 65.833 C 37.761 65.833,48.567 55.104,61.682 41.990 L 85.528 18.146 85.424 16.115 C 85.184 11.396,84.741 8.981,83.887 7.722 C 83.674 7.408,83.500 7.104,83.500 7.046 C 83.500 6.376,80.482 3.025,79.360 2.448 C 79.116 2.323,78.429 1.950,77.833 1.620 C 77.237 1.290,76.075 0.809,75.250 0.552 L 73.750 0.084 36.861 0.037 L -0.029 -0.009 0.010 2.537 M124.750 0.118 C 122.644 0.371,118.108 1.397,117.708 1.711 C 117.594 1.801,117.500 1.832,117.500 1.780 C 117.500 1.729,116.956 1.875,116.292 2.105 C 115.627 2.335,114.915 2.557,114.708 2.598 C 114.186 2.703,111.433 3.921,110.353 4.525 C 109.860 4.802,109.324 5.053,109.163 5.084 C 109.001 5.115,108.092 5.636,107.143 6.242 C 106.193 6.848,105.267 7.435,105.083 7.546 C 104.330 8.003,102.880 9.095,102.338 9.613 C 102.020 9.918,101.666 10.167,101.551 10.167 C 101.250 10.167,95.797 15.693,95.087 16.718 C 94.757 17.194,94.162 17.996,93.764 18.500 C 93.366 19.004,92.900 19.658,92.728 19.952 C 92.557 20.247,91.910 21.307,91.292 22.309 C 90.673 23.311,90.167 24.206,90.167 24.298 C 90.167 24.391,89.959 24.868,89.706 25.358 C 88.845 27.022,87.405 30.500,87.576 30.500 C 87.616 30.500,87.500 30.931,87.318 31.458 C 84.504 39.601,84.504 50.213,87.318 58.375 C 87.500 58.902,87.617 59.333,87.578 59.333 C 87.435 59.333,88.370 61.709,89.199 63.455 C 89.668 64.442,90.073 65.354,90.098 65.482 C 90.203 66.010,93.598 71.285,94.937 73.000 C 96.597 75.127,100.421 78.966,101.950 80.041 C 102.244 80.248,102.919 80.761,103.450 81.181 C 105.852 83.081,111.390 86.134,114.252 87.136 C 120.748 89.410,123.684 89.915,130.417 89.916 C 133.258 89.916,135.733 89.849,135.917 89.766 C 136.100 89.683,136.374 89.630,136.525 89.649 C 137.516 89.769,145.223 87.709,147.456 86.728 C 151.253 85.060,155.687 82.519,157.563 80.936 C 158.033 80.540,158.540 80.149,158.691 80.066 C 160.235 79.225,166.067 72.971,167.300 70.835 C 167.539 70.422,167.786 70.046,167.850 70.000 C 168.283 69.688,170.448 65.770,171.809 62.833 C 173.224 59.780,174.795 53.695,175.143 49.917 C 175.420 46.906,175.182 37.667,174.828 37.667 C 174.756 37.667,174.733 37.532,174.776 37.367 C 175.248 35.563,171.337 25.214,168.590 21.000 C 168.023 20.129,167.397 19.148,167.200 18.821 C 167.003 18.493,166.661 18.029,166.439 17.790 C 166.218 17.551,165.678 16.889,165.239 16.319 C 164.269 15.058,159.817 10.602,159.003 10.077 C 158.681 9.869,157.984 9.329,157.455 8.876 C 156.926 8.423,156.289 7.950,156.039 7.825 C 155.788 7.699,155.246 7.360,154.833 7.070 C 153.758 6.316,151.793 5.143,151.500 5.081 C 151.362 5.051,150.750 4.760,150.140 4.433 C 148.605 3.612,146.501 2.701,145.892 2.594 C 145.613 2.544,145.126 2.396,144.811 2.265 C 142.826 1.435,136.773 0.044,135.887 0.213 C 135.674 0.254,135.500 0.226,135.500 0.151 C 135.500 0.022,125.800 -0.009,124.750 0.118 M218.167 0.261 C 215.763 0.628,212.613 1.400,210.667 2.099 C 210.529 2.148,210.417 2.171,210.417 2.149 C 210.417 2.128,210.260 2.194,210.067 2.297 C 209.875 2.400,209.518 2.520,209.274 2.565 C 208.525 2.700,208.167 2.848,208.167 3.021 C 208.167 3.112,208.094 3.142,208.006 3.087 C 207.796 2.957,202.391 5.626,201.013 6.540 C 200.425 6.931,199.617 7.438,199.218 7.667 C 198.818 7.896,198.137 8.387,197.704 8.758 C 197.271 9.129,196.617 9.651,196.250 9.919 C 194.137 11.462,188.659 17.325,187.664 19.109 C 187.519 19.370,186.889 20.362,186.265 21.315 C 185.641 22.267,185.113 23.130,185.091 23.231 C 185.069 23.333,184.554 24.429,183.946 25.667 C 182.182 29.254,180.330 35.366,180.082 38.417 C 180.030 39.058,179.915 40.371,179.827 41.333 C 179.622 43.577,179.625 46.243,179.837 48.667 C 180.138 52.121,180.167 52.410,180.268 53.000 C 180.510 54.411,181.391 57.645,181.992 59.331 C 182.352 60.341,182.618 61.167,182.582 61.167 C 182.319 61.167,185.249 67.033,186.321 68.654 C 186.832 69.426,187.362 70.262,187.500 70.513 C 187.637 70.763,188.125 71.440,188.583 72.017 C 189.042 72.594,189.702 73.433,190.051 73.882 C 190.929 75.012,195.445 79.452,196.214 79.943 C 196.562 80.164,197.124 80.590,197.464 80.890 C 198.307 81.631,199.530 82.500,199.730 82.500 C 199.821 82.500,200.050 82.637,200.239 82.804 C 201.234 83.684,206.614 86.443,208.833 87.213 C 216.183 89.761,225.153 90.715,231.417 89.616 C 233.247 89.295,236.653 88.516,236.917 88.359 C 237.008 88.304,237.164 88.247,237.262 88.232 C 237.742 88.159,239.924 87.401,239.973 87.291 C 240.003 87.221,240.089 87.202,240.163 87.248 C 240.358 87.368,241.333 86.992,243.417 85.992 C 244.425 85.508,245.479 85.026,245.758 84.921 C 246.038 84.815,246.713 84.441,247.258 84.088 C 250.365 82.080,251.964 80.994,252.333 80.640 C 252.563 80.421,253.075 80.023,253.471 79.756 C 254.416 79.119,258.943 74.597,259.580 73.653 C 259.853 73.248,260.364 72.583,260.714 72.174 C 261.449 71.319,263.970 67.390,264.604 66.114 C 264.840 65.639,265.179 64.971,265.358 64.630 C 265.537 64.288,265.693 63.951,265.705 63.880 C 265.717 63.808,266.006 63.150,266.347 62.417 C 266.688 61.683,267.096 60.633,267.255 60.083 C 267.414 59.533,267.718 58.521,267.931 57.833 C 270.733 48.792,270.465 39.352,267.125 29.426 C 266.702 28.170,264.438 23.272,263.924 22.500 C 263.710 22.179,263.153 21.293,262.686 20.531 C 262.219 19.769,261.480 18.694,261.043 18.141 C 260.607 17.588,260.122 16.940,259.965 16.700 C 259.134 15.431,254.493 10.754,253.359 10.043 C 253.116 9.890,252.647 9.529,252.317 9.240 C 251.421 8.453,249.722 7.334,249.604 7.452 C 249.547 7.509,249.500 7.475,249.500 7.376 C 249.500 7.192,246.335 5.163,245.959 5.106 C 245.844 5.088,244.911 4.644,243.885 4.118 C 240.978 2.629,235.720 1.001,231.700 0.345 C 229.213 -0.060,220.615 -0.114,218.167 0.261 M274.000 45.015 L 274.000 90.052 276.792 89.951 C 280.622 89.812,282.912 89.284,284.916 88.076 C 285.443 87.759,285.940 87.500,286.020 87.500 C 286.101 87.500,286.167 87.421,286.167 87.323 C 286.167 87.226,286.240 87.192,286.329 87.247 C 286.762 87.515,289.572 84.282,290.455 82.500 C 292.242 78.891,292.166 79.986,292.326 55.667 C 292.475 32.921,292.470 33.032,293.435 30.083 C 294.406 27.115,296.737 23.750,298.896 22.200 C 299.314 21.899,299.752 21.561,299.870 21.448 C 302.157 19.251,310.045 17.384,312.986 18.344 C 313.223 18.421,313.642 18.518,313.917 18.559 C 315.402 18.781,318.754 20.279,320.250 21.389 C 320.892 21.865,321.693 22.440,322.032 22.666 C 322.370 22.891,322.614 23.108,322.576 23.147 C 322.537 23.186,322.986 23.755,323.574 24.412 C 325.830 26.933,327.316 30.464,327.588 33.955 C 327.644 34.667,327.752 44.288,327.828 55.333 C 327.995 79.566,327.932 78.784,330.016 82.805 C 330.805 84.329,333.188 86.963,334.199 87.430 C 334.502 87.570,335.050 87.867,335.417 88.090 C 337.351 89.266,339.642 89.800,343.367 89.944 L 346.150 90.051 346.215 63.651 C 346.288 33.561,346.352 32.208,347.861 28.591 C 349.201 25.377,353.544 20.983,356.500 19.850 C 360.493 18.319,361.607 18.098,364.734 18.212 C 371.737 18.469,378.363 23.164,380.434 29.339 C 381.741 33.235,381.830 34.843,381.832 54.690 C 381.833 70.035,381.952 75.587,382.330 77.917 C 382.419 78.467,382.535 79.194,382.588 79.533 C 382.894 81.488,384.572 84.246,386.624 86.167 C 387.408 86.900,388.106 87.500,388.176 87.500 C 388.246 87.500,388.817 87.791,389.445 88.147 C 390.608 88.806,393.174 89.713,393.652 89.635 C 393.798 89.611,394.005 89.647,394.113 89.715 C 394.220 89.782,395.589 89.886,397.154 89.945 L 400.000 90.052 400.000 60.881 C 400.000 32.354,399.993 31.667,399.663 29.769 C 398.986 25.871,396.450 18.999,395.427 18.294 C 395.330 18.227,395.302 18.171,395.366 18.169 C 395.561 18.165,394.411 16.249,393.301 14.727 C 391.504 12.265,387.836 8.506,386.083 7.332 C 385.625 7.024,384.966 6.533,384.619 6.240 C 384.272 5.947,383.634 5.520,383.202 5.290 C 382.770 5.060,381.629 4.439,380.667 3.909 C 371.504 -1.136,357.978 -1.379,348.500 3.332 C 347.813 3.674,346.853 4.189,346.368 4.477 C 345.882 4.764,345.448 5.000,345.402 5.000 C 345.225 5.000,342.726 6.746,342.260 7.195 C 341.991 7.454,341.686 7.667,341.582 7.667 C 341.479 7.667,340.762 8.267,339.990 9.000 C 339.217 9.733,338.530 10.333,338.463 10.333 C 338.397 10.333,338.093 10.703,337.789 11.154 L 337.237 11.975 335.373 10.154 C 333.468 8.293,329.880 5.489,328.833 5.044 C 328.512 4.907,328.044 4.649,327.792 4.470 C 327.540 4.290,327.332 4.205,327.331 4.280 C 327.329 4.355,327.273 4.332,327.206 4.229 C 327.066 4.015,324.434 2.667,323.989 2.581 C 323.828 2.550,322.958 2.248,322.056 1.909 C 317.856 0.331,315.682 0.009,309.583 0.064 C 303.520 0.119,303.085 0.198,296.737 2.393 C 295.515 2.815,293.395 3.825,292.667 4.332 C 291.741 4.976,289.944 5.846,289.850 5.697 C 289.551 5.221,285.496 2.495,285.048 2.468 C 284.898 2.459,284.699 2.382,283.061 1.698 C 281.490 1.042,278.851 0.290,278.470 0.390 C 278.287 0.437,278.209 0.400,278.273 0.295 C 278.342 0.184,278.194 0.149,277.857 0.199 C 277.569 0.241,277.333 0.227,277.333 0.168 C 277.333 0.109,276.583 0.042,275.667 0.019 L 274.000 -0.022 274.000 45.015 M135.431 18.643 C 143.185 20.359,149.299 24.650,153.232 31.136 C 154.256 32.826,154.995 34.225,155.085 34.647 C 155.117 34.795,155.404 35.667,155.722 36.583 C 159.480 47.398,155.500 59.783,146.077 66.597 C 145.707 66.864,145.294 67.177,145.160 67.292 C 144.602 67.769,140.253 69.970,139.632 70.090 C 139.436 70.128,138.820 70.309,138.263 70.492 C 131.318 72.778,122.763 71.816,116.947 68.095 C 116.428 67.764,115.965 67.513,115.918 67.538 C 115.499 67.756,110.732 63.323,108.977 61.085 C 104.228 55.030,102.405 46.197,104.355 38.693 C 104.633 37.624,104.925 36.485,105.006 36.162 C 105.174 35.483,106.387 32.917,107.294 31.320 C 109.084 28.168,113.133 23.969,115.856 22.440 C 116.256 22.215,117.000 21.780,117.510 21.474 C 118.865 20.660,120.174 20.106,122.333 19.435 C 123.985 18.922,124.779 18.736,127.333 18.268 C 128.451 18.062,133.963 18.318,135.431 18.643 M229.750 18.640 C 231.793 19.099,234.796 20.059,235.867 20.595 C 237.852 21.588,239.818 22.792,240.958 23.713 C 241.623 24.249,242.167 24.653,242.167 24.610 C 242.167 24.179,247.570 30.517,247.588 30.969 C 247.590 31.032,247.942 31.721,248.370 32.500 C 249.317 34.226,249.955 35.609,250.061 36.167 C 250.104 36.396,250.336 37.296,250.575 38.167 C 251.816 42.686,251.795 47.851,250.517 52.000 C 250.334 52.596,250.149 53.281,250.106 53.522 C 250.031 53.953,249.243 55.851,248.663 57.000 C 248.501 57.321,248.361 57.640,248.351 57.708 C 248.341 57.777,248.185 57.981,248.004 58.162 C 247.823 58.343,247.624 58.697,247.560 58.949 C 247.497 59.200,247.304 59.558,247.130 59.744 C 246.956 59.931,246.462 60.554,246.032 61.129 C 244.267 63.491,240.790 66.641,238.636 67.831 C 236.427 69.051,234.482 69.998,234.021 70.080 C 233.744 70.128,233.307 70.251,233.050 70.352 C 226.789 72.812,217.892 71.971,211.742 68.338 C 210.961 67.877,210.283 67.500,210.235 67.500 C 209.952 67.500,207.180 65.199,205.823 63.838 C 197.769 55.759,195.589 43.167,200.551 33.395 C 200.790 32.925,200.938 32.494,200.881 32.437 C 200.824 32.380,200.856 32.333,200.952 32.333 C 201.047 32.333,201.541 31.640,202.048 30.792 C 206.066 24.076,213.192 19.548,221.750 18.272 C 223.088 18.072,228.289 18.311,229.750 18.640 " stroke="none" fill="#2c8cfc" fill-rule="evenodd"></path><path id="path1" d="" stroke="none" fill="#308cfc" fill-rule="evenodd"></path><path id="path2" d="" stroke="none" fill="#308cfc" fill-rule="evenodd"></path><path id="path3" d="" stroke="none" fill="#308cfc" fill-rule="evenodd"></path><path id="path4" d="" stroke="none" fill="#308cfc" fill-rule="evenodd"></path></g></svg>