<svg width="20" height="23" viewBox="0 0 20 23" fill="none" xmlns="http://www.w3.org/2000/svg">
<path d="M1.425 22.464C1.19745 22.464 0.97921 22.3736 0.818304 22.2127C0.657398 22.0518 0.567001 21.8336 0.567001 21.606C0.569648 19.5362 1.39319 17.5519 2.85696 16.0885C4.32072 14.6252 6.30519 13.8021 8.375 13.8H9.662C10.5372 13.7989 11.4064 13.9453 12.233 14.233C12.3414 14.2685 12.4415 14.3253 12.5277 14.4C12.6138 14.4747 12.6842 14.5658 12.7348 14.668C12.7853 14.7702 12.815 14.8815 12.822 14.9953C12.8291 15.1091 12.8134 15.2232 12.7758 15.3308C12.7383 15.4385 12.6796 15.5376 12.6033 15.6223C12.527 15.7071 12.4346 15.7758 12.3315 15.8244C12.2283 15.873 12.1165 15.9006 12.0026 15.9055C11.8887 15.9104 11.7749 15.8926 11.668 15.853C11.0231 15.6285 10.3449 15.5142 9.662 15.515H8.375C6.75995 15.5171 5.21166 16.1596 4.06964 17.3016C2.92763 18.4437 2.28512 19.992 2.283 21.607C2.283 21.8346 2.1926 22.0528 2.0317 22.2137C1.87079 22.3746 1.65256 22.465 1.425 22.465V22.464ZM14.725 6.291C14.725 5.14565 14.3854 4.02602 13.749 3.0737C13.1127 2.12137 12.2083 1.37912 11.1501 0.940816C10.092 0.502509 8.92758 0.387828 7.80423 0.611275C6.68089 0.834722 5.64903 1.38626 4.83915 2.19615C4.02926 3.00603 3.47772 4.03789 3.25427 5.16123C3.03083 6.28458 3.14551 7.44896 3.58382 8.50712C4.02212 9.56529 4.76437 10.4697 5.71669 11.106C6.66902 11.7424 7.78865 12.082 8.934 12.082C10.4688 12.0791 11.9399 11.468 13.0249 10.3825C14.11 9.29707 14.7206 7.82579 14.723 6.291H14.725ZM13.009 6.291C13.009 7.09696 12.77 7.88482 12.3222 8.55495C11.8745 9.22508 11.238 9.74739 10.4934 10.0558C9.74883 10.3642 8.92948 10.4449 8.13901 10.2877C7.34854 10.1305 6.62244 9.74236 6.05254 9.17246C5.48264 8.60256 5.09454 7.87647 4.9373 7.086C4.78007 6.29552 4.86077 5.47618 5.16919 4.73157C5.47762 3.98696 5.99992 3.35053 6.67005 2.90276C7.34018 2.455 8.12804 2.216 8.934 2.216C10.0142 2.21759 11.0496 2.64746 11.8134 3.41136C12.5771 4.17525 13.0067 5.21082 13.008 6.291H13.009ZM19.143 17.316H16.567V14.742C16.567 14.5144 16.4766 14.2962 16.3157 14.1353C16.1548 13.9744 15.9366 13.884 15.709 13.884C15.4814 13.884 15.2632 13.9744 15.1023 14.1353C14.9414 14.2962 14.851 14.5144 14.851 14.742V17.316H12.278C12.0504 17.316 11.8322 17.4064 11.6713 17.5673C11.5104 17.7282 11.42 17.9464 11.42 18.174C11.42 18.4016 11.5104 18.6198 11.6713 18.7807C11.8322 18.9416 12.0504 19.032 12.278 19.032H14.852V21.606C14.852 21.8336 14.9424 22.0518 15.1033 22.2127C15.2642 22.3736 15.4824 22.464 15.71 22.464C15.9376 22.464 16.1558 22.3736 16.3167 22.2127C16.4776 22.0518 16.568 21.8336 16.568 21.606V19.032H19.142C19.3696 19.032 19.5878 18.9416 19.7487 18.7807C19.9096 18.6198 20 18.4016 20 18.174C20 17.9464 19.9096 17.7282 19.7487 17.5673C19.5878 17.4064 19.3696 17.316 19.142 17.316H19.143Z" fill="black"/>
</svg>
