<svg width="32" height="29" viewBox="0 0 32 29" fill="none" xmlns="http://www.w3.org/2000/svg">
<path d="M28.817 6.91289H24.54L22.071 4.21289H12.627V8.26189H8.57898V12.3089H4.53198V25.7999C4.53357 26.5155 4.81854 27.2013 5.32455 27.7073C5.83055 28.2133 6.51638 28.4983 7.23198 28.4999H28.817C29.5326 28.4983 30.2184 28.2133 30.7244 27.7073C31.2304 27.2013 31.5154 26.5155 31.517 25.7999V9.61189C31.5151 8.89647 31.23 8.21089 30.7241 7.7051C30.2181 7.19931 29.5324 6.91447 28.817 6.91289ZM18.023 24.4519C16.6887 24.4519 15.3845 24.0562 14.2751 23.315C13.1657 22.5737 12.3011 21.5201 11.7905 20.2875C11.2799 19.0548 11.1463 17.6984 11.4066 16.3898C11.6669 15.0812 12.3094 13.8792 13.2528 12.9357C14.1963 11.9923 15.3983 11.3498 16.7069 11.0895C18.0155 10.8292 19.3719 10.9628 20.6046 11.4734C21.8372 11.984 22.8908 12.8486 23.6321 13.958C24.3733 15.0674 24.769 16.3717 24.769 17.7059C24.7685 19.4949 24.0575 21.2104 22.7925 22.4754C21.5275 23.7405 19.812 24.4514 18.023 24.4519Z" fill="white"/>
<path d="M4.53199 10.961H7.23199V6.91397H11.279V4.21397H7.23099V0.167969H4.53099V4.21497H0.484985V6.91497H4.53199V10.961Z" fill="white"/>
<path d="M18.024 13.3901C17.457 13.3896 16.8954 13.5009 16.3714 13.7177C15.8474 13.9344 15.3713 14.2524 14.9703 14.6534C14.5693 15.0544 14.2513 15.5305 14.0346 16.0545C13.8178 16.5785 13.7065 17.1401 13.707 17.7071C13.707 18.561 13.9602 19.3956 14.4346 20.1055C14.9089 20.8155 15.5832 21.3688 16.372 21.6955C17.1608 22.0223 18.0288 22.1078 18.8662 21.9412C19.7037 21.7746 20.4729 21.3635 21.0766 20.7597C21.6804 20.156 22.0915 19.3868 22.2581 18.5493C22.4247 17.7119 22.3392 16.8439 22.0124 16.0551C21.6857 15.2663 21.1324 14.5921 20.4224 14.1177C19.7125 13.6433 18.8779 13.3901 18.024 13.3901Z" fill="white"/>
</svg>
