<svg width="106" height="68" viewBox="0 0 106 68" fill="none" xmlns="http://www.w3.org/2000/svg">
<path d="M53 67.0604C81.7365 67.0604 105.032 65.7002 105.032 64.0224C105.032 62.3445 81.7365 60.9844 53 60.9844C24.2635 60.9844 0.968018 62.3445 0.968018 64.0224C0.968018 65.7002 24.2635 67.0604 53 67.0604Z" fill="#F5F5F5"/>
<path d="M13.015 54.5432C12.9869 54.5399 12.9613 54.5256 12.9437 54.5035C12.9261 54.4814 12.9179 54.4533 12.921 54.4252C12.921 54.4062 12.937 54.2002 12.953 53.8432C12.983 53.3062 13.025 52.1932 13.009 50.6982C13.0103 50.6769 13.0103 50.6555 13.009 50.6342C12.988 48.9652 12.899 47.3222 12.741 45.7472C12.596 44.2792 12.389 42.8542 12.126 41.5122C11.9003 40.3568 11.6145 39.2139 11.27 38.0882C11.219 37.9222 11.17 37.7582 11.112 37.5882C11.054 37.4182 11.021 37.3202 10.972 37.1832C10.851 36.8312 10.739 36.4962 10.642 36.1832C10.427 35.4992 10.242 34.8142 10.078 34.1522C9.97801 33.7522 9.89601 33.3602 9.81001 32.9852C9.52594 31.5639 9.36335 30.121 9.32401 28.6722C9.30801 28.1002 9.324 27.5312 9.348 26.9812C9.37877 26.4013 9.44053 25.8234 9.53301 25.2502C9.52962 25.2115 9.53615 25.1726 9.552 25.1372V25.0832C9.554 25.0566 9.56452 25.0313 9.582 25.0112C9.60201 24.9915 9.62895 24.9805 9.65701 24.9805C9.68506 24.9805 9.71199 24.9915 9.732 25.0112C9.74454 25.0243 9.75379 25.0402 9.75901 25.0576C9.76422 25.0749 9.76525 25.0933 9.762 25.1112V25.1672C9.7647 25.2074 9.75821 25.2478 9.74301 25.2852C9.65168 25.8481 9.59092 26.4156 9.56101 26.9852C9.52901 27.5222 9.521 28.0962 9.537 28.6602C9.57539 30.0973 9.73698 31.5286 10.02 32.9382C10.09 33.3112 10.176 33.7002 10.272 34.0952C10.43 34.7552 10.618 35.4372 10.833 36.1162C10.927 36.4252 11.033 36.7572 11.16 37.1062C11.208 37.2432 11.254 37.3742 11.3 37.5142C11.346 37.6542 11.407 37.8472 11.458 38.0142C11.8051 39.1476 12.0925 40.2986 12.319 41.4622C12.587 42.8042 12.791 44.2452 12.936 45.7212C13.094 47.2992 13.183 48.9412 13.204 50.6212V50.6962C13.22 52.1912 13.174 53.3132 13.148 53.8472C13.132 54.2092 13.118 54.4272 13.116 54.4472C13.1128 54.4724 13.1011 54.4957 13.0826 54.5132C13.0642 54.5307 13.0403 54.5413 13.015 54.5432Z" fill="#407BFF"/>
<path d="M9.66602 25.1126C9.84342 24.9416 10.0397 24.7913 10.251 24.6646C10.4816 24.5289 10.7286 24.4234 10.986 24.3506" fill="#407BFF"/>
<path d="M9.66601 25.2165C9.65196 25.2206 9.63706 25.2206 9.62301 25.2165C9.6101 25.2116 9.59835 25.2039 9.58852 25.1942C9.5787 25.1844 9.57101 25.1728 9.56593 25.1599C9.56085 25.147 9.5585 25.1332 9.55903 25.1194C9.55956 25.1056 9.56297 25.092 9.56901 25.0795C9.57275 25.0671 9.58005 25.0559 9.59001 25.0475C9.77096 24.8703 9.97238 24.7152 10.19 24.5855C10.4328 24.4374 10.6936 24.3212 10.966 24.2395C10.9792 24.2351 10.9932 24.2335 11.007 24.2348C11.0208 24.2361 11.0343 24.2403 11.0464 24.2471C11.0585 24.2539 11.0691 24.2631 11.0775 24.2742C11.0859 24.2853 11.0918 24.298 11.095 24.3115C11.1025 24.3384 11.0991 24.3672 11.0857 24.3917C11.0722 24.4161 11.0497 24.4344 11.023 24.4425C10.7728 24.5131 10.5327 24.616 10.309 24.7485C10.1061 24.8708 9.91699 25.0146 9.74501 25.1775C9.73524 25.1891 9.72318 25.1986 9.70958 25.2053C9.69599 25.212 9.68116 25.2158 9.66601 25.2165Z" fill="#407BFF"/>
<path d="M9.45599 27.0815C9.43138 27.0826 9.40732 27.0739 9.38899 27.0575L8.67799 26.4675C8.65665 26.4497 8.64323 26.4242 8.64069 26.3965C8.63816 26.3689 8.64673 26.3413 8.6645 26.32C8.68227 26.2986 8.70779 26.2852 8.73545 26.2827C8.76311 26.2801 8.79065 26.2887 8.812 26.3065L9.52599 26.8965C9.53631 26.9058 9.54455 26.9173 9.55019 26.93C9.55583 26.9427 9.55873 26.9565 9.55873 26.9705C9.55873 26.9844 9.55583 26.9982 9.55019 27.0109C9.54455 27.0237 9.53631 27.0351 9.52599 27.0445C9.51755 27.0553 9.50698 27.0642 9.49494 27.0707C9.4829 27.0773 9.46964 27.0813 9.45599 27.0825V27.0815Z" fill="#407BFF"/>
<path d="M10.734 36.2594C10.7068 36.2562 10.6818 36.2434 10.6634 36.2232C10.645 36.2029 10.6345 36.1767 10.634 36.1494C10.7012 35.6742 10.8857 35.2233 11.171 34.8374C11.2953 34.6676 11.4386 34.5126 11.598 34.3754C11.6084 34.3651 11.6208 34.3571 11.6344 34.3518C11.648 34.3466 11.6625 34.3442 11.6771 34.3448C11.6917 34.3454 11.706 34.3491 11.7191 34.3555C11.7322 34.3619 11.7438 34.3709 11.7533 34.382C11.7628 34.3931 11.7698 34.4061 11.774 34.42C11.7783 34.434 11.7796 34.4487 11.7778 34.4632C11.7761 34.4777 11.7714 34.4917 11.7641 34.5042C11.7567 34.5168 11.7468 34.5278 11.735 34.5364C11.5874 34.6665 11.4552 34.8132 11.341 34.9734C11.1871 35.1814 11.0651 35.4113 10.979 35.6554C10.9159 35.8217 10.871 35.9944 10.845 36.1704C10.845 36.1969 10.8345 36.2223 10.8157 36.2411C10.797 36.2598 10.7715 36.2704 10.745 36.2704L10.734 36.2594Z" fill="#407BFF"/>
<path d="M11.365 38.1567C11.3439 38.1571 11.3231 38.1513 11.3053 38.1399C11.2875 38.1285 11.2735 38.1121 11.265 38.0927C11.1641 37.8699 11.0184 37.6703 10.8368 37.5063C10.6553 37.3423 10.4419 37.2175 10.21 37.1397C10.184 37.13 10.1626 37.1108 10.1502 37.0859C10.1377 37.0611 10.1352 37.0324 10.143 37.0057C10.1521 36.9793 10.1713 36.9574 10.1963 36.9449C10.2214 36.9324 10.2503 36.9302 10.277 36.9388C10.537 37.027 10.776 37.1678 10.9791 37.3524C11.1823 37.537 11.3453 37.7614 11.458 38.0118C11.4646 38.0243 11.4684 38.0382 11.4692 38.0523C11.47 38.0665 11.4677 38.0807 11.4626 38.0939C11.4575 38.1072 11.4496 38.1192 11.4395 38.1292C11.4294 38.1391 11.4173 38.1468 11.404 38.1518C11.3904 38.1575 11.3755 38.1592 11.361 38.1567H11.365Z" fill="#407BFF"/>
<path d="M12.977 47.588C12.6857 46.9965 12.49 46.3626 12.397 45.7099C12.367 45.5759 12.346 45.46 12.325 45.377" fill="#407BFF"/>
<path d="M12.974 47.6781C12.9587 47.6788 12.9435 47.6761 12.9294 47.67C12.9154 47.6639 12.9029 47.6547 12.893 47.6431C12.5838 47.0421 12.3808 46.3922 12.293 45.7221C12.266 45.5881 12.242 45.4751 12.223 45.3921C12.2202 45.3661 12.227 45.3399 12.2421 45.3185C12.2572 45.2972 12.2797 45.2821 12.3052 45.2762C12.3307 45.2703 12.3575 45.2739 12.3805 45.2864C12.4035 45.2989 12.4211 45.3195 12.43 45.3441C12.449 45.4271 12.473 45.5441 12.502 45.6771C12.5945 46.3095 12.7809 46.9246 13.055 47.5021C13.0747 47.5221 13.0857 47.549 13.0857 47.5771C13.0857 47.6051 13.0747 47.6321 13.055 47.6521C13.0443 47.6621 13.0314 47.6696 13.0174 47.6741C13.0034 47.6786 12.9886 47.68 12.974 47.6781Z" fill="#407BFF"/>
<path d="M10.173 34.2309C10.1599 34.2309 10.1469 34.2283 10.1347 34.2233C10.1226 34.2183 10.1116 34.2109 10.1023 34.2016C10.093 34.1923 10.0856 34.1813 10.0806 34.1692C10.0756 34.157 10.073 34.144 10.073 34.1309C10.068 33.9589 9.79901 29.8719 12.04 28.2619C12.0625 28.2454 12.0906 28.2383 12.1183 28.2423C12.1459 28.2462 12.171 28.2608 12.188 28.2829C12.197 28.2939 12.2035 28.3066 12.2072 28.3203C12.2109 28.334 12.2117 28.3483 12.2094 28.3623C12.2071 28.3763 12.2019 28.3897 12.1941 28.4015C12.1863 28.4133 12.176 28.4233 12.164 28.4309C10.017 29.9929 10.285 34.0849 10.285 34.1259C10.2869 34.1401 10.2857 34.1545 10.2815 34.1682C10.2773 34.1818 10.2702 34.1945 10.2607 34.2052C10.2513 34.2159 10.2396 34.2245 10.2265 34.2303C10.2135 34.2361 10.1993 34.239 10.185 34.2389L10.173 34.2309Z" fill="#407BFF"/>
<path d="M10.361 43.1001C10.093 44.0881 12.282 45.8511 12.282 45.8511C12.282 45.8511 15.046 45.3811 15.304 44.3941C15.4098 43.7625 15.2756 43.1141 14.9275 42.5765C14.5795 42.0388 14.043 41.6509 13.4234 41.4888C12.8038 41.3267 12.146 41.4023 11.5793 41.7006C11.0126 41.999 10.578 42.4986 10.361 43.1011V43.1001Z" fill="#407BFF"/>
<path d="M7.51299 31.3802C7.82399 32.4022 9.84499 33.0522 9.84499 33.0522C9.84499 33.0522 11.16 31.3852 10.845 30.3682C10.53 29.3512 9.38199 28.2532 8.46199 28.5352C7.54199 28.8172 7.20199 30.3582 7.51299 31.3802Z" fill="#407BFF"/>
<path d="M12.899 34.4641C12.6557 34.687 12.3737 34.8635 12.067 34.9851C11.9125 35.0433 11.7449 35.0579 11.5826 35.0272C11.4203 34.9965 11.2696 34.9217 11.147 34.8111C11.0281 34.645 10.9579 34.449 10.9441 34.2452C10.9303 34.0414 10.9736 33.8378 11.069 33.6571C11.369 32.9061 12.545 31.6071 13.506 31.9211C14.893 32.3791 13.487 33.9861 12.899 34.4641Z" fill="#407BFF"/>
<path d="M10.189 36.4612C10.377 36.6732 10.581 36.9472 10.489 37.2182C10.4385 37.3346 10.3506 37.4308 10.2391 37.4915C10.1277 37.5522 9.99918 37.5739 9.87399 37.5532C9.62447 37.506 9.3887 37.4035 9.184 37.2532C8.69 36.9392 7.67 36.2822 8.272 35.5972C8.874 34.9122 9.794 36.0102 10.189 36.4612Z" fill="#407BFF"/>
<path d="M13.82 26.9452C13.9242 26.947 14.0252 26.9814 14.1089 27.0434C14.1927 27.1054 14.2549 27.1921 14.287 27.2912C14.338 27.5272 14.15 27.7472 13.965 27.9032C13.501 28.2922 12.108 29.3492 11.746 28.4032C11.389 27.5112 13.17 26.9052 13.82 26.9452Z" fill="#407BFF"/>
<path d="M11.021 23.9076C11.321 23.9206 11.609 23.8076 11.907 23.8076C12.205 23.8076 12.546 24.0386 12.492 24.3306C12.438 24.6226 12.114 24.7066 11.84 24.7356C11.3718 24.7843 10.8992 24.7726 10.434 24.7006C10.3243 24.6941 10.2209 24.647 10.144 24.5686C10.015 24.3966 10.195 24.1496 10.412 24.0776C10.623 24.0434 10.8294 23.985 11.027 23.9036L11.021 23.9076Z" fill="#407BFF"/>
<path d="M8.211 26.0739C7.911 26.0949 7.621 25.9829 7.323 25.9939C7.025 26.0049 6.69001 26.2379 6.74901 26.5309C6.80801 26.8239 7.138 26.8989 7.412 26.9229C7.87959 26.9622 8.3503 26.9396 8.812 26.8559C8.92259 26.8489 9.02632 26.7999 9.102 26.7189C9.225 26.5449 9.04001 26.3029 8.83401 26.2359C8.62211 26.2049 8.41422 26.1509 8.214 26.0749L8.211 26.0739Z" fill="#407BFF"/>
<path d="M9.582 25.5065C9.55378 25.5047 9.52743 25.4918 9.50869 25.4706C9.48995 25.4494 9.48036 25.4217 9.482 25.3935C9.522 24.8135 9.461 24.2585 9.351 24.2265C9.33493 24.2255 9.31929 24.221 9.30524 24.2131C9.29118 24.2053 9.27909 24.1943 9.26984 24.1812C9.2606 24.168 9.25444 24.1529 9.25184 24.137C9.24923 24.1211 9.25024 24.1049 9.2548 24.0894C9.25935 24.074 9.26734 24.0598 9.27814 24.0479C9.28895 24.0359 9.30231 24.0266 9.31723 24.0205C9.33215 24.0145 9.34823 24.0119 9.3643 24.0129C9.38036 24.0139 9.39598 24.0186 9.41 24.0265C9.745 24.1265 9.719 25.0265 9.678 25.4115C9.67677 25.4365 9.66623 25.4601 9.64846 25.4777C9.63069 25.4953 9.60698 25.5055 9.582 25.5065Z" fill="#407BFF"/>
<path d="M9.77802 24.1456C9.61451 23.7332 9.34637 23.3707 9.00002 23.0936C8.9125 23.01 8.80671 22.948 8.69105 22.9124C8.57539 22.8768 8.45302 22.8686 8.33367 22.8886C8.21431 22.9085 8.10124 22.956 8.00342 23.0272C7.9056 23.0985 7.82572 23.1915 7.77012 23.299C7.71452 23.4065 7.68471 23.5254 7.68308 23.6464C7.68145 23.7674 7.70804 23.8872 7.76073 23.9961C7.81342 24.1051 7.89076 24.2002 7.98662 24.2741C8.08249 24.3479 8.19424 24.3984 8.31301 24.4216C8.7877 24.5692 9.2952 24.5748 9.77301 24.4376V24.2215L9.77802 24.1456Z" fill="#407BFF"/>
<path d="M13.345 58.1076H13.326C13.2984 58.1025 13.2739 58.0867 13.2578 58.0637C13.2417 58.0407 13.2353 58.0123 13.24 57.9846C13.539 55.8878 14.5591 53.9607 16.125 52.5346C16.1361 52.5263 16.1487 52.5203 16.1621 52.5169C16.1756 52.5135 16.1895 52.5128 16.2032 52.5148C16.2169 52.5168 16.2301 52.5214 16.242 52.5285C16.2539 52.5356 16.2642 52.545 16.2725 52.5561C16.2808 52.5672 16.2868 52.5798 16.2902 52.5932C16.2936 52.6066 16.2943 52.6206 16.2923 52.6343C16.2903 52.648 16.2856 52.6611 16.2786 52.673C16.2715 52.6849 16.2621 52.6953 16.251 52.7036C14.7309 54.0996 13.7414 55.9792 13.451 58.0226C13.4459 58.0468 13.4326 58.0686 13.4132 58.0841C13.3939 58.0996 13.3698 58.1079 13.345 58.1076Z" fill="#407BFF"/>
<path d="M15.569 53.3181C15.5559 53.3206 15.5424 53.3205 15.5293 53.3178C15.5162 53.3151 15.5038 53.3098 15.4927 53.3022C15.4817 53.2947 15.4722 53.2851 15.4649 53.2739C15.4576 53.2627 15.4525 53.2502 15.45 53.2371C15.4475 53.224 15.4476 53.2105 15.4503 53.1974C15.4531 53.1843 15.4583 53.1719 15.4659 53.1608C15.4734 53.1498 15.483 53.1403 15.4942 53.133C15.5054 53.1257 15.5179 53.1206 15.531 53.1181C15.8937 53.0152 16.2759 53.0015 16.645 53.0781C16.6696 53.0859 16.6906 53.1023 16.704 53.1243C16.7175 53.1463 16.7226 53.1724 16.7183 53.1978C16.7141 53.2232 16.7008 53.2463 16.6808 53.2627C16.6609 53.2791 16.6358 53.2878 16.61 53.2871C16.279 53.2182 15.9363 53.2285 15.61 53.3171C15.5966 53.3205 15.5826 53.3209 15.569 53.3181Z" fill="#407BFF"/>
<path d="M15.092 53.9121C15.0655 53.9121 15.0401 53.9016 15.0213 53.8828C15.0025 53.8641 14.992 53.8386 14.992 53.8121C14.9659 52.8878 15.2185 51.9769 15.717 51.1981C15.7243 51.1859 15.7342 51.1754 15.7459 51.1672C15.7576 51.1591 15.7709 51.1536 15.7849 51.151C15.7989 51.1485 15.8133 51.149 15.8271 51.1524C15.8409 51.1559 15.8539 51.1623 15.865 51.1711C15.8881 51.1873 15.9039 51.2119 15.9089 51.2396C15.914 51.2673 15.9079 51.2958 15.892 51.3191C15.4242 52.061 15.1853 52.9242 15.205 53.8011C15.2067 53.8293 15.1971 53.8571 15.1783 53.8782C15.1596 53.8994 15.1332 53.9123 15.105 53.9141L15.092 53.9121Z" fill="#407BFF"/>
<path d="M14.336 55.1499C14.3226 55.15 14.3093 55.1474 14.2969 55.1422C14.2846 55.1371 14.2734 55.1295 14.264 55.1199C14.2443 55.0999 14.2333 55.073 14.2333 55.0449C14.2333 55.0169 14.2443 54.9899 14.264 54.9699C14.4543 54.786 14.6901 54.656 14.9471 54.5933C15.2042 54.5306 15.4734 54.5373 15.727 54.6129C15.7533 54.6215 15.7754 54.6399 15.7884 54.6643C15.8015 54.6887 15.8045 54.7173 15.797 54.7439C15.7936 54.7575 15.7874 54.7703 15.7788 54.7813C15.7702 54.7923 15.7594 54.8015 15.7471 54.8081C15.7347 54.8147 15.7211 54.8186 15.7071 54.8196C15.6932 54.8206 15.6792 54.8187 15.666 54.8139C15.4494 54.7511 15.2201 54.7457 15.0008 54.7983C14.7814 54.8509 14.5796 54.9597 14.415 55.1139C14.4054 55.1255 14.3933 55.1347 14.3796 55.1409C14.3659 55.1472 14.351 55.1502 14.336 55.1499Z" fill="#407BFF"/>
<path d="M13.949 56.0054C13.9284 56.0062 13.908 56.0011 13.8903 55.9907C13.8726 55.9802 13.8582 55.9648 13.849 55.9464C13.619 55.3786 13.5415 54.7605 13.624 54.1534C13.6289 54.1264 13.6439 54.1023 13.666 54.0861C13.6881 54.0699 13.7156 54.0628 13.7428 54.0663C13.77 54.0698 13.7948 54.0835 13.8122 54.1047C13.8295 54.126 13.838 54.1531 13.836 54.1804C13.759 54.7467 13.8278 55.3232 14.036 55.8554C14.0452 55.8712 14.0498 55.8891 14.0495 55.9074C14.0492 55.9256 14.044 55.9434 14.0343 55.9588C14.0246 55.9742 14.0109 55.9868 13.9946 55.995C13.9784 56.0032 13.9602 56.0068 13.942 56.0054H13.949Z" fill="#407BFF"/>
<path d="M13.552 56.863C13.552 56.879 13.474 56.963 13.777 56.981C14.523 57.029 15.838 57.013 16.316 56.381C16.995 55.481 15.369 55.522 15.511 55.018C15.653 54.514 17.416 54.972 17.738 54.256C18.06 53.54 16.788 53.649 16.838 53.279C16.888 52.909 18.238 53.424 18.655 52.664C19.072 51.904 17.917 52.288 18.097 51.974C18.277 51.66 19.707 50.364 19.111 50.061C18.515 49.758 17.149 51.1 16.696 51.236C16.243 51.372 16.096 50.012 15.504 50.45C14.912 50.888 15.37 52.95 14.675 53.187C14.154 53.364 14.407 52.637 13.775 52.65C12.905 52.663 12.701 55.532 13.552 56.863Z" fill="#407BFF"/>
<g opacity="0.3">
<path opacity="0.3" d="M13.552 56.863C13.552 56.879 13.474 56.963 13.777 56.981C14.523 57.029 15.838 57.013 16.316 56.381C16.995 55.481 15.369 55.522 15.511 55.018C15.653 54.514 17.416 54.972 17.738 54.256C18.06 53.54 16.788 53.649 16.838 53.279C16.888 52.909 18.238 53.424 18.655 52.664C19.072 51.904 17.917 52.288 18.097 51.974C18.277 51.66 19.707 50.364 19.111 50.061C18.515 49.758 17.149 51.1 16.696 51.236C16.243 51.372 16.096 50.012 15.504 50.45C14.912 50.888 15.37 52.95 14.675 53.187C14.154 53.364 14.407 52.637 13.775 52.65C12.905 52.663 12.701 55.532 13.552 56.863Z" fill="white"/>
</g>
<path d="M13.264 58.2018C13.2405 58.2023 13.2175 58.1944 13.1992 58.1796C13.1809 58.1648 13.1685 58.144 13.164 58.1209C12.6238 56.1714 11.5818 54.3977 10.142 52.9768C10.1296 52.9682 10.1192 52.957 10.1114 52.9439C10.1037 52.9309 10.0988 52.9164 10.0971 52.9014C10.0953 52.8863 10.0968 52.8711 10.1014 52.8567C10.1061 52.8422 10.1137 52.829 10.1238 52.8177C10.1339 52.8064 10.1463 52.7974 10.1602 52.7913C10.174 52.7852 10.189 52.7821 10.2042 52.7822C10.2193 52.7823 10.2342 52.7856 10.248 52.792C10.2618 52.7983 10.274 52.8074 10.284 52.8189C11.7528 54.269 12.8157 56.0788 13.367 58.0678C13.3714 58.0812 13.3729 58.0954 13.3714 58.1094C13.3699 58.1234 13.3655 58.137 13.3584 58.1491C13.3513 58.1613 13.3417 58.1719 13.3303 58.1801C13.3188 58.1883 13.3058 58.194 13.292 58.1968L13.264 58.2018Z" fill="#407BFF"/>
<path d="M11.418 54.5001H11.38C11.0103 54.3635 10.6165 54.3043 10.223 54.3261C10.1953 54.3261 10.1687 54.3151 10.1491 54.2955C10.1295 54.2759 10.1185 54.2493 10.1185 54.2216C10.1185 54.1939 10.1295 54.1673 10.1491 54.1477C10.1687 54.1281 10.1953 54.117 10.223 54.117C10.6453 54.0937 11.0679 54.1567 11.465 54.3021C11.4924 54.3061 11.5172 54.3207 11.5338 54.343C11.5504 54.3652 11.5575 54.3931 11.5535 54.4206C11.5495 54.448 11.5348 54.4728 11.5126 54.4894C11.4904 54.506 11.4624 54.5131 11.435 54.5091L11.418 54.5001ZM11.448 54.2931H11.472H11.448Z" fill="#407BFF"/>
<path d="M11.843 55.0152C11.829 55.0153 11.8151 55.0124 11.8023 55.0067C11.7895 55.0011 11.778 54.9928 11.7685 54.9825C11.7591 54.9721 11.752 54.9598 11.7476 54.9465C11.7432 54.9332 11.7416 54.9191 11.743 54.9052C11.762 54.1356 11.5533 53.3776 11.143 52.7262C11.1351 52.7149 11.1294 52.7022 11.1264 52.6887C11.1234 52.6752 11.1231 52.6613 11.1254 52.6477C11.1302 52.6202 11.1457 52.5957 11.1685 52.5797C11.1913 52.5636 11.2196 52.5573 11.247 52.5621C11.2745 52.5669 11.299 52.5824 11.315 52.6052C11.7557 53.2934 11.9765 54.0995 11.948 54.9162C11.9479 54.9297 11.9451 54.943 11.9397 54.9554C11.9343 54.9677 11.9264 54.9788 11.9166 54.9881C11.9068 54.9973 11.8952 55.0045 11.8826 55.0092C11.8699 55.0138 11.8565 55.0159 11.843 55.0152Z" fill="#407BFF"/>
<path d="M12.286 55.7074C12.2591 55.7068 12.2334 55.6961 12.214 55.6774C12.0645 55.5519 11.8859 55.4661 11.6946 55.4276C11.5033 55.3892 11.3053 55.3994 11.119 55.4574C11.1058 55.4623 11.0917 55.4644 11.0776 55.4634C11.0635 55.4625 11.0498 55.4586 11.0373 55.452C11.0248 55.4454 11.0139 55.4362 11.0052 55.4251C10.9966 55.4139 10.9903 55.4011 10.987 55.3874C10.9794 55.3607 10.9825 55.3322 10.9956 55.3077C11.0086 55.2833 11.0306 55.2649 11.057 55.2564C11.2787 55.1873 11.5142 55.1757 11.7416 55.2226C11.969 55.2694 12.1807 55.3733 12.357 55.5244C12.3762 55.537 12.3904 55.5559 12.3973 55.5778C12.4042 55.5997 12.4033 55.6233 12.3949 55.6446C12.3864 55.6659 12.3709 55.6837 12.3509 55.695C12.3309 55.7062 12.3076 55.7102 12.285 55.7064L12.286 55.7074Z" fill="#407BFF"/>
<path d="M12.86 56.8529C12.8449 56.8569 12.8291 56.8569 12.814 56.8529C12.801 56.8476 12.7892 56.8397 12.7794 56.8296C12.7696 56.8195 12.762 56.8075 12.7572 56.7943C12.7524 56.781 12.7504 56.767 12.7514 56.7529C12.7524 56.7389 12.7564 56.7253 12.763 56.7129C12.946 56.2438 13.007 55.7359 12.94 55.2369C12.9369 55.2088 12.9451 55.1806 12.9627 55.1585C12.9803 55.1364 13.0059 55.1221 13.034 55.1189C13.0478 55.1163 13.0621 55.1167 13.0757 55.12C13.0894 55.1233 13.1022 55.1294 13.1134 55.138C13.1245 55.1466 13.1337 55.1574 13.1403 55.1698C13.147 55.1822 13.151 55.1959 13.152 55.2099C13.2267 55.7486 13.1577 56.2974 12.952 56.8008C12.9431 56.8172 12.9297 56.8308 12.9134 56.84C12.8972 56.8492 12.8787 56.8536 12.86 56.8529Z" fill="#407BFF"/>
<path d="M13.206 57.6648C12.445 57.6092 11.7334 57.2668 11.215 56.7068C10.804 56.2068 11.915 56.4758 11.787 56.0658C11.659 55.6558 10.308 56.0228 10.032 55.4408C9.75602 54.8588 10.743 54.9528 10.689 54.6488C10.635 54.3448 9.61602 54.4488 9.26902 53.8488C8.92202 53.2488 9.82402 53.5488 9.67402 53.2908C9.52402 53.0328 8.35402 51.9838 8.81302 51.7348C9.27202 51.4858 10.372 52.5858 10.729 52.6978C11.086 52.8098 11.134 52.0138 11.607 52.3728C12.08 52.7318 11.807 54.4018 12.361 54.5978C12.769 54.7428 12.561 53.9918 13.035 54.1628C13.862 54.4498 13.439 57.6518 13.206 57.6648Z" fill="#407BFF"/>
<g opacity="0.2">
<path opacity="0.2" d="M13.205 57.6648C12.444 57.6092 11.7324 57.2668 11.214 56.7068C10.803 56.2068 11.914 56.4758 11.786 56.0658C11.658 55.6558 10.307 56.0228 10.031 55.4408C9.75501 54.8588 10.742 54.9528 10.688 54.6488C10.634 54.3448 9.61502 54.4488 9.26802 53.8488C8.92102 53.2488 9.82301 53.5488 9.67301 53.2908C9.52301 53.0328 8.35301 51.9838 8.81201 51.7348C9.27101 51.4858 10.371 52.5858 10.728 52.6978C11.085 52.8098 11.133 52.0138 11.606 52.3728C12.079 52.7318 11.806 54.4018 12.36 54.5978C12.768 54.7428 12.56 53.9918 13.034 54.1628C13.861 54.4498 13.438 57.6518 13.205 57.6648Z" fill="white"/>
</g>
<path d="M17.803 58.7831C17.803 61.5711 19.035 63.8341 12.753 63.8341C7.171 63.8341 7.705 61.5721 7.705 58.7831C7.705 55.9941 9.965 55.2031 12.753 55.2031C15.541 55.2031 17.803 55.9921 17.803 58.7831Z" fill="#263238"/>
<path d="M18.35 55.1494H7.17001V57.9164H18.35V55.1494Z" fill="#263238"/>
<path opacity="0.2" d="M18.35 55.1494H7.17001V57.9164H18.35V55.1494Z" fill="white"/>
<path d="M58.979 62.999C59.0011 63.4997 58.9095 63.9988 58.711 64.459H47.171V64.191H47.404V61.811H47.171V61.542H58.71C58.9055 62.0021 58.9973 62.4995 58.979 62.999Z" fill="#263238"/>
<path opacity="0.2" d="M58.979 62.999C59.0011 63.4997 58.9095 63.9988 58.711 64.459H47.171V64.191H47.404V61.811H47.171V61.542H58.71C58.9055 62.0021 58.9973 62.4995 58.979 62.999Z" fill="white"/>
<path opacity="0.2" d="M52.807 62.999C52.8291 63.4997 52.7375 63.9988 52.539 64.459H47.171V64.191H47.404V61.811H47.171V61.542H52.538C52.7331 62.0021 52.8246 62.4996 52.806 62.999H52.807Z" fill="black"/>
<path opacity="0.8" d="M52.237 62.9995C52.255 63.4062 52.1808 63.8116 52.02 64.1855H47.407V61.8105H52.02C52.1788 62.1861 52.2529 62.5921 52.237 62.9995Z" fill="white"/>
<path opacity="0.6" d="M57.105 62.9991C57.1271 63.4998 57.0355 63.999 56.837 64.4591H54.685C54.8835 63.999 54.9751 63.4998 54.953 62.9991C54.9725 62.4977 54.881 61.9981 54.685 61.5361H56.832C57.0297 61.9977 57.1229 62.4973 57.105 62.9991Z" fill="white"/>
<path d="M60.007 60.077C60.0291 60.5776 59.9375 61.0768 59.739 61.537H48.199V61.269H48.438V58.895H48.205V58.627H59.744C59.9367 59.0859 60.0265 59.5816 60.007 60.079V60.077Z" fill="#407BFF"/>
<path opacity="0.2" d="M53.835 60.077C53.8571 60.5776 53.7655 61.0768 53.567 61.537H48.199V61.269H48.438V58.895H48.205V58.627H53.572C53.7644 59.0853 53.8542 59.5802 53.835 60.077Z" fill="black"/>
<path opacity="0.8" d="M53.268 60.0787C53.286 60.4853 53.2118 60.8908 53.051 61.2647H48.438V58.8887H53.051C53.2097 59.2643 53.2838 59.6702 53.268 60.0777V60.0787Z" fill="white"/>
<path opacity="0.2" d="M58.128 60.0773C58.1501 60.5779 58.0585 61.0771 57.86 61.5373H55.713C55.9115 61.0771 56.0031 60.5779 55.981 60.0773C56.0005 59.5758 55.909 59.0762 55.713 58.6143H57.86C58.056 59.0762 58.1475 59.5758 58.128 60.0773Z" fill="black"/>
<path d="M76.226 0.893082V40.6611C76.226 40.8547 76.1491 41.0404 76.0122 41.1773C75.8753 41.3142 75.6896 41.3911 75.496 41.3911H17.861C17.6674 41.3911 17.4817 41.3142 17.3448 41.1773C17.2079 41.0404 17.131 40.8547 17.131 40.6611V0.893082C17.131 0.699474 17.2079 0.513794 17.3448 0.376892C17.4817 0.239991 17.6674 0.163086 17.861 0.163086H75.496C75.6896 0.163086 75.8753 0.239991 76.0122 0.376892C76.1491 0.513794 76.226 0.699474 76.226 0.893082Z" fill="#407BFF"/>
<path opacity="0.4" d="M76.226 2.62891V40.6589C76.226 40.8525 76.1491 41.0382 76.0122 41.1751C75.8753 41.312 75.6896 41.3889 75.496 41.3889H17.861C17.6674 41.3889 17.4817 41.312 17.3448 41.1751C17.2079 41.0382 17.131 40.8525 17.131 40.6589V2.62891H76.226Z" fill="white"/>
<path opacity="0.2" d="M76.226 39.043V40.653C76.226 40.8466 76.1491 41.0323 76.0122 41.1692C75.8753 41.3061 75.6896 41.383 75.496 41.383H17.861C17.6674 41.383 17.4817 41.3061 17.3448 41.1692C17.2079 41.0323 17.131 40.8466 17.131 40.653V39.043H76.226Z" fill="black"/>
<path opacity="0.4" d="M74.764 1.96508C75.0429 1.96508 75.269 1.73898 75.269 1.46008C75.269 1.18117 75.0429 0.955078 74.764 0.955078C74.4851 0.955078 74.259 1.18117 74.259 1.46008C74.259 1.73898 74.4851 1.96508 74.764 1.96508Z" fill="white"/>
<path opacity="0.4" d="M72.853 1.96508C73.1319 1.96508 73.358 1.73898 73.358 1.46008C73.358 1.18117 73.1319 0.955078 72.853 0.955078C72.5741 0.955078 72.348 1.18117 72.348 1.46008C72.348 1.73898 72.5741 1.96508 72.853 1.96508Z" fill="white"/>
<path opacity="0.4" d="M71.447 1.45996C71.447 1.55885 71.4177 1.65552 71.3627 1.73775C71.3078 1.81997 71.2297 1.88406 71.1383 1.92191C71.047 1.95975 70.9464 1.96964 70.8494 1.95035C70.7525 1.93106 70.6634 1.88343 70.5934 1.81351C70.5235 1.74358 70.4759 1.6545 70.4566 1.55751C70.4373 1.46052 70.4472 1.35998 70.4851 1.26862C70.5229 1.17725 70.587 1.09916 70.6692 1.04422C70.7514 0.989279 70.8481 0.959961 70.947 0.959961C71.0796 0.959961 71.2068 1.01263 71.3006 1.1064C71.3943 1.20017 71.447 1.32735 71.447 1.45996Z" fill="white"/>
<g opacity="0.5">
<path opacity="0.5" d="M24.631 6.625V8.254H24.44L23.463 7.041V8.254H23.232V6.625H23.423L24.4 7.841V6.625H24.631Z" fill="black"/>
<path opacity="0.5" d="M26.195 7.71212H25.195C25.2085 7.81804 25.2623 7.91471 25.3451 7.98209C25.428 8.04948 25.5335 8.08242 25.64 8.07412C25.7068 8.0761 25.7732 8.06374 25.8348 8.03786C25.8964 8.01199 25.9517 7.9732 25.997 7.92412L26.12 8.06913C26.0581 8.13602 25.9824 8.18857 25.8981 8.22312C25.8138 8.25767 25.723 8.27337 25.632 8.26912C25.546 8.27558 25.4596 8.26394 25.3784 8.23494C25.2971 8.20595 25.2229 8.16025 25.1604 8.10079C25.098 8.04133 25.0486 7.96944 25.0157 7.88975C24.9827 7.81005 24.9668 7.72434 24.969 7.63813C24.9651 7.5553 24.9784 7.47255 25.008 7.39512C25.0377 7.31768 25.0831 7.24723 25.1413 7.18822C25.1996 7.12921 25.2695 7.08292 25.3465 7.05227C25.4236 7.02161 25.5061 7.00727 25.589 7.01012C25.6717 7.00873 25.7537 7.02444 25.83 7.05626C25.9064 7.08809 25.9753 7.13535 26.0324 7.19507C26.0896 7.25479 26.1338 7.32568 26.1623 7.4033C26.1908 7.48091 26.203 7.56359 26.198 7.64612C26.1982 7.66816 26.1972 7.69019 26.195 7.71212ZM25.195 7.55112H25.984C25.9684 7.4578 25.9201 7.37304 25.8479 7.31191C25.7757 7.25078 25.6841 7.21723 25.5895 7.21723C25.4949 7.21723 25.4033 7.25078 25.3311 7.31191C25.2589 7.37304 25.2106 7.4578 25.195 7.55112Z" fill="black"/>
<path opacity="0.5" d="M28.354 7.02246L27.892 8.25447H27.677L27.323 7.33446L26.969 8.25447H26.754L26.298 7.02246H26.51L26.867 8.00447L27.24 7.02246H27.428L27.793 8.00746L28.161 7.02246H28.354Z" fill="black"/>
<path opacity="0.5" d="M30.312 7.71202H29.312C29.3255 7.81794 29.3793 7.91461 29.4621 7.982C29.5449 8.04938 29.6505 8.08233 29.757 8.07402C29.8238 8.07601 29.8902 8.06364 29.9518 8.03777C30.0133 8.01189 30.0687 7.97311 30.114 7.92403L30.237 8.06903C30.1753 8.13566 30.1 8.18806 30.016 8.2226C29.9321 8.25713 29.8417 8.27298 29.751 8.26903C29.665 8.27549 29.5786 8.26384 29.4974 8.23485C29.4161 8.20586 29.3419 8.16015 29.2794 8.10069C29.2169 8.04124 29.1676 7.96934 29.1347 7.88965C29.1017 7.80996 29.0858 7.72425 29.088 7.63803C29.0841 7.55546 29.0973 7.47298 29.1268 7.39575C29.1563 7.31853 29.2014 7.24823 29.2593 7.18927C29.3172 7.13031 29.3867 7.08395 29.4634 7.0531C29.5401 7.02226 29.6224 7.00759 29.705 7.01003C29.7877 7.00864 29.8697 7.02434 29.946 7.05617C30.0223 7.088 30.0912 7.13526 30.1484 7.19498C30.2056 7.2547 30.2498 7.32558 30.2783 7.4032C30.3068 7.48082 30.3189 7.5635 30.314 7.64603C30.3145 7.66805 30.3139 7.69008 30.312 7.71202ZM29.312 7.55103H30.117C30.117 7.44428 30.0746 7.3419 29.9991 7.26642C29.9236 7.19094 29.8212 7.14853 29.7145 7.14853C29.6077 7.14853 29.5053 7.19094 29.4299 7.26642C29.3544 7.3419 29.312 7.44428 29.312 7.55103Z" fill="black"/>
<path opacity="0.5" d="M31.799 7.5452V8.25321H31.576V7.5692C31.576 7.3272 31.455 7.2092 31.243 7.2092C31.189 7.20519 31.1347 7.21326 31.0842 7.23282C31.0337 7.25238 30.9881 7.28295 30.9509 7.3223C30.9136 7.36165 30.8856 7.4088 30.8689 7.46033C30.8521 7.51186 30.847 7.56646 30.854 7.6202V8.25321H30.629V7.0222H30.844V7.2072C30.8971 7.1411 30.9651 7.08851 31.0425 7.05374C31.1198 7.01898 31.2043 7.00304 31.289 7.0072C31.3597 7.00189 31.4307 7.01237 31.4968 7.03787C31.563 7.06338 31.6226 7.10328 31.6714 7.15468C31.7202 7.20608 31.757 7.2677 31.7791 7.33507C31.8011 7.40244 31.8079 7.47388 31.799 7.54421V7.5452Z" fill="black"/>
<path opacity="0.5" d="M32.902 8.18089C32.8254 8.23983 32.7306 8.27023 32.634 8.26689C32.5818 8.27269 32.5289 8.26672 32.4793 8.24942C32.4297 8.23212 32.3845 8.20392 32.3472 8.1669C32.3099 8.12988 32.2814 8.08498 32.2637 8.03549C32.246 7.986 32.2396 7.93317 32.245 7.88089V7.2049H32.036V7.02289H32.245V6.75488H32.468V7.02289H32.822V7.2049H32.468V7.87088C32.4642 7.89774 32.4665 7.92513 32.4746 7.951C32.4828 7.97688 32.4966 8.0006 32.5151 8.02045C32.5336 8.04029 32.5563 8.05575 32.5816 8.06569C32.6068 8.07563 32.6339 8.07979 32.661 8.07788C32.7239 8.07796 32.7851 8.05723 32.835 8.01889L32.902 8.18089Z" fill="black"/>
<path opacity="0.5" d="M33.833 7.00916V7.22517H33.782C33.7277 7.22194 33.6734 7.23072 33.6229 7.25088C33.5724 7.27104 33.5269 7.30208 33.4898 7.3418C33.4527 7.38152 33.4247 7.42895 33.408 7.48069C33.3913 7.53243 33.3861 7.58722 33.393 7.64117V8.25617H33.17V7.02517H33.385V7.23217C33.4311 7.15658 33.4976 7.09554 33.5769 7.05608C33.6561 7.01663 33.7449 7.00036 33.833 7.00916Z" fill="black"/>
<path opacity="0.5" d="M34.069 6.64019C34.0684 6.61139 34.0764 6.58306 34.092 6.55883C34.1075 6.53459 34.13 6.51554 34.1564 6.50411C34.1828 6.49267 34.2121 6.48937 34.2404 6.49462C34.2687 6.49987 34.2948 6.51343 34.3154 6.53359C34.336 6.55374 34.3501 6.57957 34.3559 6.60778C34.3618 6.63598 34.3591 6.66529 34.3482 6.69196C34.3373 6.71863 34.3188 6.74146 34.2949 6.75753C34.271 6.7736 34.2428 6.78218 34.214 6.78218C34.176 6.78219 34.1396 6.76733 34.1125 6.74079C34.0854 6.71424 34.0698 6.67812 34.069 6.64019ZM34.107 7.02118H34.332V8.25319H34.109L34.107 7.02118Z" fill="black"/>
<path opacity="0.5" d="M35.864 7.711H34.864C34.8775 7.81692 34.9313 7.91357 35.0141 7.98095C35.097 8.04834 35.2025 8.0813 35.309 8.073C35.3758 8.07498 35.4422 8.06262 35.5038 8.03674C35.5654 8.01086 35.6207 7.97207 35.666 7.92299L35.789 8.06799C35.7274 8.13461 35.652 8.18702 35.568 8.22156C35.4841 8.25609 35.3937 8.27194 35.303 8.26799C35.217 8.27445 35.1306 8.2628 35.0494 8.23381C34.9681 8.20481 34.8939 8.15913 34.8314 8.09967C34.769 8.04021 34.7196 7.96832 34.6867 7.88862C34.6537 7.80893 34.6378 7.72321 34.64 7.63699C34.6358 7.55353 34.6487 7.4701 34.6779 7.3918C34.707 7.3135 34.7519 7.24197 34.8097 7.18161C34.8675 7.12124 34.937 7.07331 35.0139 7.04074C35.0909 7.00817 35.1737 6.99166 35.2572 6.9922C35.3408 6.99275 35.4233 7.01034 35.4999 7.04391C35.5764 7.07748 35.6453 7.12632 35.7023 7.18744C35.7593 7.24855 35.8032 7.32064 35.8313 7.39932C35.8595 7.478 35.8713 7.56159 35.866 7.64499C35.8665 7.66701 35.8658 7.68905 35.864 7.711ZM34.864 7.54999H35.653C35.6374 7.45666 35.5891 7.37191 35.5169 7.31077C35.4447 7.24964 35.3531 7.21609 35.2585 7.21609C35.1639 7.21609 35.0723 7.24964 35.0001 7.31077C34.9278 7.37191 34.8796 7.45666 34.864 7.54999Z" fill="black"/>
<path opacity="0.5" d="M36.023 8.13779L36.117 7.96079C36.2461 8.043 36.396 8.0867 36.549 8.08678C36.756 8.08678 36.842 8.02478 36.842 7.92078C36.842 7.65278 36.064 7.88278 36.064 7.38378C36.064 7.16378 36.264 7.01378 36.577 7.01378C36.7346 7.0113 36.8902 7.05027 37.028 7.12679L36.928 7.30379C36.8226 7.23604 36.6993 7.20122 36.574 7.20379C36.374 7.20379 36.281 7.27379 36.281 7.37279C36.281 7.66279 37.062 7.42678 37.062 7.90978C37.062 8.13478 36.862 8.27479 36.525 8.27479C36.3478 8.27954 36.1732 8.23189 36.023 8.13779Z" fill="black"/>
</g>
<path opacity="0.2" d="M22.138 7.57233C22.1386 7.77966 22.0776 7.9825 21.9628 8.15514C21.848 8.32778 21.6845 8.46243 21.4931 8.54204C21.3016 8.62166 21.0909 8.64265 20.8875 8.60234C20.6841 8.56204 20.4973 8.46227 20.3507 8.31566C20.2041 8.16906 20.1043 7.98222 20.064 7.77884C20.0237 7.57547 20.0447 7.3647 20.1243 7.17327C20.2039 6.98183 20.3386 6.81834 20.5112 6.70353C20.6838 6.58871 20.8867 6.52773 21.094 6.52832C21.3706 6.52912 21.6357 6.63936 21.8313 6.83498C22.027 7.0306 22.1372 7.29569 22.138 7.57233Z" fill="black"/>
<path d="M21.081 8.18089C21.0455 8.18089 21.0114 8.16678 20.9863 8.14165C20.9611 8.11652 20.947 8.08243 20.947 8.04689V7.09689C20.947 7.06135 20.9611 7.02727 20.9863 7.00214C21.0114 6.97701 21.0455 6.96289 21.081 6.96289C21.1166 6.96289 21.1507 6.97701 21.1758 7.00214C21.2009 7.02727 21.215 7.06135 21.215 7.09689V8.04689C21.215 8.08243 21.2009 8.11652 21.1758 8.14165C21.1507 8.16678 21.1166 8.18089 21.081 8.18089Z" fill="white"/>
<path d="M21.556 7.70648H20.606C20.5705 7.70648 20.5364 7.69237 20.5113 7.66724C20.4861 7.64211 20.472 7.60802 20.472 7.57248C20.472 7.53694 20.4861 7.50285 20.5113 7.47772C20.5364 7.45259 20.5705 7.43848 20.606 7.43848H21.556C21.5916 7.43848 21.6256 7.45259 21.6508 7.47772C21.6759 7.50285 21.69 7.53694 21.69 7.57248C21.69 7.60802 21.6759 7.64211 21.6508 7.66724C21.6256 7.69237 21.5916 7.70648 21.556 7.70648Z" fill="white"/>
<path opacity="0.2" d="M69.829 12.7891H62.481C60.8462 12.7891 59.521 14.1143 59.521 15.7491V18.4411C59.521 20.0758 60.8462 21.4011 62.481 21.4011H69.829C71.4638 21.4011 72.789 20.0758 72.789 18.4411V15.7491C72.789 14.1143 71.4638 12.7891 69.829 12.7891Z" fill="black"/>
<path d="M69.873 15.0476H68.62C68.5418 15.0478 68.4654 15.0247 68.4004 14.9812C68.3354 14.9378 68.2848 14.8759 68.255 14.8036L67.987 14.1756C67.9577 14.1037 67.9076 14.042 67.8431 13.9986C67.7787 13.9551 67.7027 13.9318 67.625 13.9316H64.673C64.5953 13.9321 64.5195 13.9555 64.4551 13.9989C64.3907 14.0423 64.3406 14.1038 64.311 14.1756L64.043 14.8036C64.0134 14.8755 63.9633 14.9369 63.8989 14.9804C63.8345 15.0238 63.7587 15.0472 63.681 15.0476H62.425C62.2349 15.0476 62.0525 15.1232 61.918 15.2576C61.7836 15.3921 61.708 15.5745 61.708 15.7646V19.3736C61.7085 19.5636 61.7843 19.7457 61.9186 19.8801C62.053 20.0144 62.235 20.0901 62.425 20.0906H69.856C69.9501 20.0906 70.0433 20.0721 70.1302 20.036C70.2172 20 70.2961 19.9472 70.3626 19.8806C70.4291 19.814 70.4819 19.7349 70.5178 19.6479C70.5537 19.561 70.5722 19.4678 70.572 19.3736V15.7646C70.5728 15.5772 70.4999 15.3969 70.3689 15.2627C70.2379 15.1286 70.0595 15.0513 69.872 15.0476H69.873ZM66.159 18.8046C66.3832 18.5818 66.6867 18.457 67.0027 18.4577C67.3188 18.4584 67.6217 18.5845 67.8449 18.8084C68.0681 19.0322 68.1933 19.3355 68.1931 19.6516C68.1929 19.9677 68.0672 20.2708 67.8437 20.4943C67.6201 20.7178 67.3171 20.8435 67.001 20.8437C66.6849 20.844 66.3816 20.7187 66.1577 20.4955C65.9339 20.2724 65.8078 19.9695 65.8071 19.6534C65.8064 19.3373 65.9312 19.0338 66.154 18.8096L66.159 18.8046Z" fill="white"/>
<g opacity="0.5">
<path opacity="0.5" d="M64.512 11.4561H64.619V12.205H64.512V11.4561Z" fill="black"/>
<path opacity="0.5" d="M65.774 11.8778V12.2048H65.674V11.8958C65.674 11.7828 65.62 11.7298 65.529 11.7298C65.5046 11.7283 65.4802 11.7323 65.4576 11.7415C65.435 11.7507 65.4147 11.7648 65.3982 11.7828C65.3817 11.8008 65.3695 11.8223 65.3624 11.8456C65.3552 11.869 65.3534 11.8936 65.357 11.9178V12.2098H65.257V11.8958C65.257 11.7828 65.203 11.7298 65.109 11.7298C65.0847 11.7287 65.0605 11.7329 65.0381 11.7422C65.0156 11.7515 64.9955 11.7656 64.9791 11.7836C64.9627 11.8015 64.9504 11.8228 64.9431 11.846C64.9359 11.8692 64.9338 11.8937 64.937 11.9178V12.2098H64.837V11.6278H64.937V11.7108C64.96 11.6801 64.9905 11.6559 65.0255 11.6403C65.0605 11.6248 65.0989 11.6184 65.137 11.6218C65.1765 11.6166 65.2167 11.6234 65.2523 11.6412C65.288 11.659 65.3175 11.6871 65.337 11.7218C65.3633 11.6891 65.3969 11.663 65.4351 11.6456C65.4733 11.6282 65.5151 11.6201 65.557 11.6218C65.5903 11.6188 65.6239 11.6235 65.6551 11.6356C65.6862 11.6477 65.7142 11.6668 65.7367 11.6915C65.7593 11.7162 65.7758 11.7458 65.7851 11.7779C65.7943 11.8101 65.796 11.8439 65.79 11.8768L65.774 11.8778Z" fill="black"/>
<path opacity="0.5" d="M66.417 11.861V12.205H66.317V12.13C66.2964 12.1591 66.2684 12.1821 66.2358 12.1967C66.2033 12.2113 66.1675 12.2169 66.132 12.213C66.003 12.213 65.92 12.143 65.92 12.044C65.92 11.945 65.979 11.878 66.151 11.878H66.312V11.859C66.312 11.77 66.264 11.722 66.162 11.722C66.0965 11.7207 66.0324 11.7415 65.98 11.781L65.937 11.706C66.0053 11.6561 66.0885 11.6308 66.173 11.634C66.2048 11.6284 66.2375 11.6303 66.2684 11.6395C66.2994 11.6486 66.3278 11.6648 66.3515 11.6868C66.3751 11.7088 66.3933 11.736 66.4047 11.7662C66.4161 11.7964 66.4203 11.8289 66.417 11.861ZM66.317 12.033V11.952H66.153C66.053 11.952 66.021 11.992 66.021 12.041C66.021 12.09 66.069 12.132 66.147 12.132C66.1817 12.1351 66.2165 12.1271 66.2464 12.1091C66.2762 12.0912 66.2996 12.0641 66.313 12.032L66.317 12.033Z" fill="black"/>
<path opacity="0.5" d="M67.152 11.6279V12.1189C67.1556 12.1588 67.1502 12.1989 67.1363 12.2365C67.1223 12.274 67.1002 12.3078 67.0714 12.3357C67.0426 12.3635 67.008 12.3845 66.97 12.3972C66.932 12.4098 66.8917 12.4139 66.852 12.4089C66.7557 12.4134 66.6609 12.384 66.584 12.3259L66.632 12.2449C66.6947 12.2942 66.7723 12.3206 66.852 12.3199C66.986 12.3199 67.052 12.2579 67.052 12.1289V12.0829C67.0154 12.1226 66.9675 12.1502 66.9148 12.1621C66.8621 12.174 66.8071 12.1696 66.7569 12.1496C66.7068 12.1295 66.6639 12.0948 66.6339 12.0498C66.6039 12.0049 66.5883 11.9519 66.589 11.8979C66.5898 11.8439 66.6069 11.7914 66.6381 11.7473C66.6693 11.7032 66.7132 11.6697 66.7639 11.651C66.8146 11.6324 66.8698 11.6296 66.9221 11.643C66.9744 11.6563 67.0215 11.6853 67.057 11.7259V11.6279H67.152ZM67.052 11.8959C67.0523 11.8709 67.0475 11.846 67.0378 11.8229C67.0281 11.7998 67.0138 11.7789 66.9957 11.7616C66.9776 11.7442 66.9561 11.7308 66.9326 11.722C66.9091 11.7133 66.8841 11.7096 66.859 11.7109C66.81 11.7109 66.7629 11.7304 66.7282 11.7651C66.6935 11.7998 66.674 11.8469 66.674 11.8959C66.674 11.945 66.6935 11.9921 66.7282 12.0267C66.7629 12.0614 66.81 12.0809 66.859 12.0809C66.8841 12.0823 66.9091 12.0785 66.9326 12.0698C66.9561 12.0611 66.9776 12.0477 66.9957 12.0303C67.0138 12.013 67.0281 11.9921 67.0378 11.969C67.0475 11.9459 67.0523 11.921 67.052 11.8959Z" fill="black"/>
<path opacity="0.5" d="M67.861 11.9564H67.399C67.4058 12.0053 67.431 12.0497 67.4695 12.0806C67.508 12.1115 67.5568 12.1265 67.606 12.1224C67.6366 12.1237 67.667 12.1184 67.6953 12.1069C67.7236 12.0953 67.7491 12.0778 67.77 12.0554L67.826 12.1194C67.7988 12.1515 67.7645 12.1767 67.7257 12.193C67.687 12.2093 67.645 12.2163 67.603 12.2134C67.5632 12.2165 67.523 12.2112 67.4854 12.1978C67.4477 12.1843 67.4133 12.1631 67.3844 12.1354C67.3555 12.1077 67.3328 12.0743 67.3177 12.0372C67.3027 12.0002 67.2956 11.9604 67.297 11.9204C67.2941 11.8812 67.2993 11.8419 67.3124 11.8048C67.3254 11.7677 67.346 11.7338 67.3729 11.7051C67.3997 11.6765 67.4323 11.6537 67.4684 11.6382C67.5045 11.6227 67.5434 11.6149 67.5827 11.6152C67.622 11.6156 67.6608 11.6241 67.6967 11.6402C67.7325 11.6563 67.7646 11.6797 67.7909 11.7088C67.8173 11.738 67.8373 11.7723 67.8497 11.8096C67.8621 11.8468 67.8666 11.8863 67.863 11.9254C67.863 11.9254 67.861 11.9484 67.861 11.9564ZM67.399 11.8844H67.759C67.759 11.836 67.7398 11.7896 67.7056 11.7554C67.6713 11.7211 67.6249 11.7019 67.5765 11.7019C67.5281 11.7019 67.4817 11.7211 67.4475 11.7554C67.4133 11.7896 67.394 11.836 67.394 11.8844H67.399Z" fill="black"/>
</g>
<path d="M55.951 12.7891H21.574C20.724 12.7891 20.035 13.4781 20.035 14.3281C20.035 15.178 20.724 15.8671 21.574 15.8671H55.951C56.801 15.8671 57.49 15.178 57.49 14.3281C57.49 13.4781 56.801 12.7891 55.951 12.7891Z" fill="white"/>
<g opacity="0.5">
<path opacity="0.5" d="M20.668 11.5461H20.4V11.4551H21.02V11.5461H20.752V12.2031H20.645L20.668 11.5461Z" fill="black"/>
<path opacity="0.5" d="M21.103 11.4597C21.1024 11.4458 21.106 11.432 21.1133 11.4201C21.1207 11.4082 21.1314 11.3987 21.1441 11.393C21.1568 11.3872 21.171 11.3854 21.1848 11.3877C21.1985 11.3901 21.2113 11.3965 21.2214 11.4062C21.2315 11.4158 21.2384 11.4283 21.2414 11.4419C21.2443 11.4556 21.2431 11.4698 21.2379 11.4828C21.2327 11.4957 21.2238 11.5069 21.2122 11.5147C21.2006 11.5225 21.187 11.5267 21.173 11.5267C21.164 11.5271 21.155 11.5257 21.1465 11.5225C21.138 11.5193 21.1302 11.5144 21.1237 11.5082C21.1172 11.5019 21.112 11.4944 21.1084 11.4861C21.1048 11.4777 21.103 11.4688 21.103 11.4597ZM21.122 11.6367H21.222V12.2027H21.122V11.6367Z" fill="black"/>
<path opacity="0.5" d="M21.742 12.164C21.7058 12.1912 21.6613 12.2053 21.616 12.204C21.5918 12.2065 21.5672 12.2035 21.5443 12.1954C21.5213 12.1872 21.5004 12.1741 21.4832 12.1568C21.4659 12.1396 21.4528 12.1187 21.4446 12.0957C21.4364 12.0727 21.4335 12.0482 21.436 12.024V11.713H21.334V11.627H21.434V11.501H21.534V11.627H21.695V11.71H21.534V12.019C21.534 12.081 21.564 12.113 21.623 12.113C21.6524 12.1141 21.6812 12.1045 21.704 12.086L21.742 12.164Z" fill="black"/>
<path opacity="0.5" d="M22.171 12.164C22.1356 12.1906 22.0923 12.2046 22.048 12.204C22.0237 12.2065 21.9992 12.2035 21.9763 12.1954C21.9533 12.1872 21.9324 12.1741 21.9152 12.1568C21.8979 12.1396 21.8847 12.1187 21.8766 12.0957C21.8684 12.0727 21.8655 12.0482 21.868 12.024V11.713H21.768V11.627H21.868V11.501H21.968V11.627H22.141V11.71H21.977V12.019C21.9753 12.0313 21.9764 12.0438 21.9802 12.0556C21.984 12.0675 21.9904 12.0783 21.999 12.0873C22.0075 12.0963 22.018 12.1033 22.0296 12.1078C22.0412 12.1122 22.0536 12.114 22.066 12.113C22.0954 12.1141 22.1242 12.1045 22.147 12.086L22.171 12.164Z" fill="black"/>
<path opacity="0.5" d="M22.297 11.4092H22.407V12.2192H22.307L22.297 11.4092Z" fill="black"/>
<path opacity="0.5" d="M23.108 11.9545H22.646C22.6527 12.0034 22.678 12.0478 22.7165 12.0787C22.755 12.1095 22.8038 12.1245 22.853 12.1205C22.8835 12.1215 22.9139 12.116 22.9422 12.1045C22.9704 12.0929 22.9959 12.0755 23.017 12.0535L23.073 12.1175C23.0456 12.1498 23.0109 12.1752 22.9718 12.1915C22.9327 12.2079 22.8903 12.2147 22.848 12.2115C22.8086 12.2137 22.7692 12.2077 22.7323 12.1939C22.6953 12.18 22.6616 12.1587 22.6334 12.1311C22.6052 12.1035 22.583 12.0704 22.5683 12.0338C22.5536 11.9972 22.5467 11.9579 22.548 11.9185C22.5451 11.8793 22.5503 11.8399 22.5634 11.8029C22.5764 11.7658 22.597 11.7319 22.6239 11.7032C22.6508 11.6745 22.6833 11.6517 22.7194 11.6362C22.7555 11.6208 22.7944 11.6129 22.8337 11.6133C22.873 11.6136 22.9118 11.6221 22.9476 11.6382C22.9835 11.6543 23.0156 11.6777 23.0419 11.7069C23.0683 11.736 23.0883 11.7703 23.1007 11.8076C23.1131 11.8449 23.1176 11.8843 23.114 11.9235C23.114 11.9235 23.108 11.9465 23.108 11.9545ZM22.646 11.8825H23.011C23.011 11.8341 22.9918 11.7876 22.9576 11.7534C22.9233 11.7192 22.8769 11.7 22.8285 11.7C22.7801 11.7 22.7337 11.7192 22.6995 11.7534C22.6652 11.7876 22.646 11.8341 22.646 11.8825Z" fill="black"/>
</g>
<path d="M55.951 18.3232H21.574C20.724 18.3232 20.035 19.0123 20.035 19.8622C20.035 20.7122 20.724 21.4012 21.574 21.4012H55.951C56.801 21.4012 57.49 20.7122 57.49 19.8622C57.49 19.0123 56.801 18.3232 55.951 18.3232Z" fill="white"/>
<g opacity="0.5">
<path opacity="0.5" d="M20.459 17.3622C20.4581 17.3101 20.4679 17.2585 20.4879 17.2104C20.5079 17.1623 20.5376 17.1189 20.5752 17.0829C20.6127 17.0468 20.6573 17.0189 20.7062 17.0009C20.755 16.9829 20.807 16.9751 20.859 16.9782C20.9125 16.9761 20.9658 16.9856 21.0154 17.0059C21.0649 17.0263 21.1094 17.0571 21.146 17.0962L21.076 17.1632C21.0495 17.1335 21.0167 17.1102 20.98 17.0948C20.9434 17.0794 20.9037 17.0724 20.864 17.0742C20.8157 17.0739 20.7681 17.0857 20.7255 17.1084C20.6829 17.1312 20.6467 17.1643 20.6201 17.2046C20.5936 17.2449 20.5775 17.2912 20.5733 17.3394C20.5692 17.3875 20.5772 17.4359 20.5965 17.4801C20.6158 17.5244 20.6458 17.5631 20.6839 17.5928C20.722 17.6225 20.7669 17.6423 20.8145 17.6502C20.8622 17.6582 20.911 17.6541 20.9567 17.6384C21.0024 17.6226 21.0434 17.5958 21.076 17.5602L21.146 17.6272C21.1094 17.6663 21.0649 17.6971 21.0154 17.7174C20.9658 17.7378 20.9125 17.7473 20.859 17.7452C20.807 17.7482 20.755 17.7405 20.7062 17.7225C20.6573 17.7045 20.6127 17.6766 20.5752 17.6405C20.5376 17.6045 20.5079 17.561 20.4879 17.513C20.4679 17.4649 20.4581 17.4132 20.459 17.3612V17.3622Z" fill="black"/>
<path opacity="0.5" d="M21.725 17.3951V17.7391H21.625V17.6641C21.6035 17.6922 21.5753 17.7143 21.5429 17.7285C21.5106 17.7426 21.4752 17.7484 21.44 17.7451C21.311 17.7451 21.228 17.6781 21.228 17.5791C21.228 17.4801 21.287 17.4131 21.456 17.4131H21.619V17.3941C21.619 17.3051 21.568 17.2541 21.466 17.2541C21.4007 17.2539 21.3373 17.2758 21.286 17.3161L21.243 17.2381C21.3119 17.1893 21.3946 17.1641 21.479 17.1661C21.637 17.1641 21.725 17.2341 21.725 17.3951ZM21.625 17.5641V17.4861H21.467C21.367 17.4861 21.336 17.5261 21.336 17.5751C21.336 17.6241 21.384 17.6661 21.462 17.6661C21.4955 17.6676 21.5287 17.6586 21.5569 17.6403C21.585 17.622 21.6067 17.5954 21.619 17.5641H21.625Z" fill="black"/>
<path opacity="0.5" d="M22.236 17.7056C22.2006 17.732 22.1571 17.7454 22.113 17.7436C22.0889 17.7466 22.0644 17.7441 22.0414 17.7364C22.0184 17.7286 21.9975 17.7157 21.9802 17.6987C21.9629 17.6816 21.9496 17.6609 21.9415 17.638C21.9333 17.6152 21.9304 17.5908 21.933 17.5666V17.2666H21.833V17.1806H21.933V17.0576H22.033V17.1806H22.197V17.2666H22.033V17.5756C22.0313 17.5879 22.0324 17.6005 22.0362 17.6123C22.04 17.6241 22.0464 17.6349 22.055 17.644C22.0635 17.653 22.074 17.66 22.0856 17.6644C22.0972 17.6689 22.1096 17.6706 22.122 17.6696C22.1509 17.6693 22.1788 17.6598 22.202 17.6426L22.236 17.7056Z" fill="black"/>
<path opacity="0.5" d="M22.854 17.4879H22.392C22.3988 17.5368 22.424 17.5812 22.4625 17.6121C22.501 17.643 22.5498 17.6579 22.599 17.6539C22.6299 17.6552 22.6606 17.6495 22.6889 17.6374C22.7173 17.6253 22.7426 17.607 22.763 17.5839L22.819 17.6509C22.7775 17.6963 22.7233 17.7283 22.6634 17.7428C22.6036 17.7573 22.5408 17.7535 22.4831 17.732C22.4254 17.7105 22.3754 17.6723 22.3396 17.6222C22.3037 17.5721 22.2837 17.5124 22.282 17.4509C22.2798 17.4132 22.2852 17.3754 22.2981 17.3399C22.311 17.3043 22.331 17.2718 22.3569 17.2443C22.3828 17.2168 22.414 17.1949 22.4487 17.1799C22.4834 17.165 22.5208 17.1572 22.5585 17.1572C22.5963 17.1572 22.6337 17.165 22.6684 17.1799C22.703 17.1949 22.7343 17.2168 22.7602 17.2443C22.7861 17.2718 22.8061 17.3043 22.819 17.3399C22.8318 17.3754 22.8373 17.4132 22.835 17.4509C22.835 17.4509 22.854 17.4769 22.854 17.4879ZM22.392 17.4129H22.754C22.75 17.3679 22.7289 17.3261 22.695 17.2962C22.6612 17.2663 22.6172 17.2504 22.572 17.2519C22.527 17.2502 22.4831 17.266 22.4496 17.2961C22.416 17.3261 22.3954 17.368 22.392 17.4129Z" fill="black"/>
<path opacity="0.5" d="M23.542 17.1691V17.6602C23.5459 17.7002 23.5408 17.7406 23.527 17.7783C23.5132 17.8161 23.491 17.8502 23.4622 17.8783C23.4334 17.9063 23.3987 17.9275 23.3605 17.9403C23.3224 17.9531 23.2819 17.9571 23.242 17.9522C23.1454 17.9555 23.0507 17.9251 22.974 17.8662L23.022 17.7882C23.0848 17.8369 23.1626 17.8624 23.242 17.8602C23.376 17.8602 23.435 17.7981 23.435 17.6691V17.6232C23.4106 17.6522 23.3799 17.6753 23.3453 17.6907C23.3106 17.7061 23.2729 17.7135 23.235 17.7121C23.1621 17.7121 23.0921 17.6832 23.0406 17.6316C22.989 17.58 22.96 17.5101 22.96 17.4372C22.96 17.3642 22.989 17.2943 23.0406 17.2427C23.0921 17.1911 23.1621 17.1622 23.235 17.1622C23.2747 17.1614 23.3139 17.1694 23.3501 17.1857C23.3862 17.2019 23.4183 17.226 23.444 17.2562V17.1671L23.542 17.1691ZM23.442 17.4372C23.442 17.3976 23.4303 17.3589 23.4083 17.326C23.3863 17.2931 23.3551 17.2675 23.3186 17.2524C23.282 17.2372 23.2418 17.2333 23.203 17.241C23.1642 17.2487 23.1286 17.2678 23.1006 17.2957C23.0726 17.3237 23.0536 17.3593 23.0459 17.3981C23.0382 17.4369 23.0421 17.4771 23.0573 17.5137C23.0724 17.5502 23.098 17.5815 23.1309 17.6034C23.1638 17.6254 23.2025 17.6371 23.242 17.6371C23.2684 17.6369 23.2944 17.6314 23.3186 17.6211C23.3429 17.6107 23.3648 17.5957 23.3832 17.5768C23.4016 17.558 23.4161 17.5356 23.4259 17.5111C23.4356 17.4867 23.4404 17.4605 23.44 17.4341L23.442 17.4372Z" fill="black"/>
<path opacity="0.5" d="M23.688 17.4536C23.686 17.3938 23.7019 17.3349 23.7337 17.2842C23.7654 17.2336 23.8115 17.1936 23.8661 17.1694C23.9207 17.1451 23.9814 17.1377 24.0402 17.1482C24.099 17.1586 24.1534 17.1863 24.1964 17.2278C24.2393 17.2694 24.2689 17.3228 24.2813 17.3812C24.2937 17.4397 24.2884 17.5005 24.266 17.5559C24.2436 17.6113 24.2052 17.6588 24.1557 17.6922C24.1062 17.7256 24.0478 17.7435 23.988 17.7436C23.9488 17.7461 23.9095 17.7404 23.8726 17.7268C23.8358 17.7133 23.8022 17.6922 23.7739 17.6649C23.7457 17.6376 23.7234 17.6047 23.7086 17.5683C23.6939 17.5319 23.6868 17.4928 23.688 17.4536ZM24.174 17.4536C24.1762 17.4275 24.1728 17.4013 24.164 17.3767C24.1553 17.3521 24.1415 17.3296 24.1234 17.3107C24.1054 17.2918 24.0836 17.2769 24.0594 17.2671C24.0352 17.2572 24.0091 17.2526 23.983 17.2535C23.9569 17.2528 23.9309 17.2575 23.9066 17.2674C23.8824 17.2773 23.8605 17.2921 23.8424 17.3109C23.8242 17.3298 23.8102 17.3522 23.8011 17.3767C23.7921 17.4013 23.7883 17.4275 23.79 17.4536C23.7888 17.4796 23.7929 17.5055 23.8021 17.5299C23.8113 17.5542 23.8253 17.5765 23.8434 17.5952C23.8614 17.6139 23.8832 17.6288 23.9072 17.6388C23.9312 17.6488 23.957 17.6539 23.983 17.6536C24.009 17.654 24.0348 17.6491 24.0588 17.6391C24.0828 17.6291 24.1044 17.6142 24.1224 17.5954C24.1403 17.5766 24.1542 17.5543 24.1631 17.5299C24.172 17.5055 24.1757 17.4795 24.174 17.4536Z" fill="black"/>
<path opacity="0.5" d="M24.726 17.1635V17.2635H24.702C24.6769 17.2616 24.6518 17.2654 24.6283 17.2745C24.6049 17.2836 24.5838 17.2978 24.5665 17.3161C24.5493 17.3344 24.5363 17.3564 24.5286 17.3803C24.5209 17.4042 24.5187 17.4296 24.522 17.4545V17.7385H24.422V17.1695H24.522V17.2635C24.5435 17.2289 24.5744 17.2012 24.611 17.1835C24.6477 17.1658 24.6886 17.1589 24.729 17.1635H24.726Z" fill="black"/>
<path opacity="0.5" d="M24.823 16.9949C24.823 16.9763 24.8304 16.9585 24.8435 16.9454C24.8567 16.9322 24.8745 16.9249 24.893 16.9249C24.9021 16.9245 24.9111 16.9259 24.9196 16.9291C24.9281 16.9323 24.9358 16.9371 24.9424 16.9434C24.9489 16.9497 24.9541 16.9572 24.9577 16.9655C24.9612 16.9739 24.963 16.9828 24.963 16.9919C24.9635 17.0011 24.962 17.0102 24.9586 17.0188C24.9552 17.0273 24.95 17.035 24.9434 17.0414C24.9367 17.0477 24.9288 17.0526 24.9201 17.0556C24.9114 17.0586 24.9022 17.0597 24.893 17.0589C24.8842 17.0593 24.8754 17.0579 24.8672 17.0549C24.8589 17.0519 24.8513 17.0473 24.8448 17.0414C24.8383 17.0354 24.833 17.0283 24.8293 17.0203C24.8255 17.0123 24.8234 17.0037 24.823 16.9949ZM24.842 17.1689H24.942V17.7379H24.842V17.1689Z" fill="black"/>
<path opacity="0.5" d="M25.665 17.4888H25.203C25.2093 17.5366 25.2333 17.5803 25.2704 17.6111C25.3075 17.6419 25.3549 17.6575 25.403 17.6548C25.4341 17.656 25.4651 17.6504 25.4938 17.6383C25.5225 17.6262 25.5482 17.6079 25.569 17.5848L25.625 17.6518C25.5963 17.6823 25.5613 17.7063 25.5225 17.722C25.4837 17.7377 25.4419 17.7448 25.4 17.7428C25.3604 17.7459 25.3206 17.7406 25.2831 17.7274C25.2457 17.7141 25.2114 17.6931 25.1826 17.6658C25.1537 17.6385 25.131 17.6054 25.1157 17.5687C25.1004 17.532 25.0931 17.4925 25.094 17.4528C25.094 17.3791 25.1233 17.3084 25.1755 17.2562C25.2276 17.2041 25.2983 17.1748 25.372 17.1748C25.4457 17.1748 25.5165 17.2041 25.5686 17.2562C25.6207 17.3084 25.65 17.3791 25.65 17.4528L25.665 17.4888ZM25.203 17.4138H25.568C25.564 17.3688 25.5428 17.3271 25.509 17.2971C25.4752 17.2672 25.4312 17.2513 25.386 17.2528C25.3405 17.2503 25.2958 17.2658 25.2616 17.2959C25.2274 17.326 25.2064 17.3683 25.203 17.4138Z" fill="black"/>
<path opacity="0.5" d="M25.738 17.6792L25.781 17.5962C25.8404 17.6351 25.91 17.6556 25.981 17.6552C26.081 17.6552 26.118 17.6252 26.118 17.5772C26.118 17.4512 25.758 17.5612 25.758 17.3352C25.758 17.2352 25.849 17.1632 25.994 17.1632C26.0663 17.1614 26.1378 17.179 26.201 17.2142L26.158 17.2972C26.1093 17.2656 26.0521 17.2496 25.994 17.2512C25.903 17.2512 25.86 17.2832 25.86 17.3292C25.86 17.4632 26.22 17.3532 26.22 17.5762C26.22 17.6762 26.126 17.7422 25.973 17.7422C25.8901 17.7456 25.8081 17.7236 25.738 17.6792Z" fill="black"/>
</g>
<path d="M70.016 24.4229H22.805C21.2752 24.4229 20.035 25.663 20.035 27.1929V29.0249C20.035 30.5547 21.2752 31.7949 22.805 31.7949H70.016C71.5458 31.7949 72.786 30.5547 72.786 29.0249V27.1929C72.786 25.663 71.5458 24.4229 70.016 24.4229Z" fill="white"/>
<g opacity="0.5">
<path opacity="0.5" d="M20.528 23.0894H20.845C20.896 23.0867 20.9469 23.0945 20.9948 23.1122C21.0426 23.1299 21.0863 23.1571 21.1233 23.1922C21.1603 23.2274 21.1898 23.2696 21.2099 23.3165C21.23 23.3634 21.2404 23.4139 21.2404 23.4649C21.2404 23.5159 21.23 23.5664 21.2099 23.6132C21.1898 23.6601 21.1603 23.7024 21.1233 23.7375C21.0863 23.7727 21.0426 23.7999 20.9948 23.8175C20.9469 23.8352 20.896 23.843 20.845 23.8404H20.528V23.0894ZM20.837 23.7464C20.9118 23.7464 20.9835 23.7167 21.0364 23.6638C21.0893 23.6109 21.119 23.5392 21.119 23.4644C21.119 23.3896 21.0893 23.3179 21.0364 23.265C20.9835 23.2121 20.9118 23.1824 20.837 23.1824H20.637V23.7464H20.837Z" fill="black"/>
<path opacity="0.5" d="M21.902 23.5913H21.443C21.4493 23.6391 21.4733 23.6828 21.5104 23.7136C21.5475 23.7444 21.5949 23.76 21.643 23.7574C21.6738 23.7583 21.7044 23.7525 21.7327 23.7404C21.7611 23.7283 21.7864 23.7102 21.807 23.6873L21.866 23.7543C21.8369 23.7843 21.8019 23.8079 21.7631 23.8236C21.7244 23.8393 21.6828 23.8467 21.641 23.8453C21.6014 23.8484 21.5616 23.8432 21.5241 23.8299C21.4867 23.8167 21.4524 23.7957 21.4236 23.7683C21.3948 23.741 21.372 23.7079 21.3567 23.6712C21.3415 23.6345 21.3341 23.5951 21.335 23.5554C21.335 23.4816 21.3643 23.4109 21.4165 23.3588C21.4686 23.3066 21.5393 23.2773 21.613 23.2773C21.6868 23.2773 21.7575 23.3066 21.8096 23.3588C21.8617 23.4109 21.891 23.4816 21.891 23.5554C21.8949 23.5657 21.8976 23.5764 21.899 23.5873L21.902 23.5913ZM21.443 23.5164H21.805C21.8024 23.4709 21.7822 23.4283 21.7485 23.3976C21.7149 23.367 21.6705 23.3507 21.625 23.3524C21.5794 23.3509 21.535 23.3672 21.5011 23.3978C21.4672 23.4283 21.4464 23.4708 21.443 23.5164Z" fill="black"/>
<path opacity="0.5" d="M22.369 23.8055C22.3328 23.8327 22.2883 23.8468 22.243 23.8455C22.2189 23.8485 22.1945 23.846 22.1715 23.8382C22.1485 23.8304 22.1275 23.8176 22.1102 23.8005C22.0929 23.7835 22.0797 23.7628 22.0715 23.7399C22.0633 23.7171 22.0604 23.6926 22.063 23.6685V23.3545H21.963V23.2715H22.063V23.1455H22.163V23.2715H22.327V23.3545H22.163V23.6635C22.1609 23.6763 22.1617 23.6895 22.1653 23.702C22.169 23.7145 22.1755 23.726 22.1842 23.7356C22.193 23.7452 22.2038 23.7527 22.2159 23.7576C22.228 23.7624 22.241 23.7644 22.254 23.7635C22.2832 23.7633 22.3116 23.7539 22.335 23.7365L22.369 23.8055Z" fill="black"/>
<path opacity="0.5" d="M22.943 23.4978V23.8408H22.843V23.7658C22.8209 23.7939 22.7921 23.816 22.7593 23.8301C22.7265 23.8443 22.6906 23.85 22.655 23.8468C22.526 23.8468 22.446 23.7798 22.446 23.6808C22.446 23.5818 22.505 23.5148 22.674 23.5148H22.838V23.4938C22.838 23.4078 22.787 23.3568 22.685 23.3568C22.6197 23.3563 22.5561 23.3781 22.505 23.4188L22.462 23.3408C22.5292 23.291 22.6114 23.2656 22.695 23.2688C22.854 23.2668 22.943 23.3418 22.943 23.4978ZM22.843 23.6668V23.5858H22.677C22.577 23.5858 22.548 23.6258 22.548 23.6748C22.548 23.7238 22.594 23.7688 22.671 23.7688C22.7064 23.7714 22.7418 23.763 22.7722 23.7448C22.8026 23.7265 22.8267 23.6993 22.841 23.6668H22.843Z" fill="black"/>
<path opacity="0.5" d="M23.118 23.0954C23.1174 23.0813 23.1211 23.0674 23.1286 23.0554C23.136 23.0434 23.1469 23.034 23.1598 23.0284C23.1727 23.0227 23.187 23.0211 23.2009 23.0237C23.2148 23.0263 23.2275 23.033 23.2375 23.043C23.2474 23.0529 23.2541 23.0657 23.2567 23.0795C23.2593 23.0934 23.2577 23.1077 23.252 23.1206C23.2464 23.1335 23.237 23.1444 23.225 23.1518C23.213 23.1593 23.1991 23.163 23.185 23.1624C23.1672 23.1624 23.1502 23.1553 23.1376 23.1428C23.1251 23.1302 23.118 23.1132 23.118 23.0954ZM23.134 23.2724H23.234V23.8414H23.134V23.2724Z" fill="black"/>
<path opacity="0.5" d="M23.434 23.0439H23.534V23.8489H23.434V23.0439Z" fill="black"/>
<path opacity="0.5" d="M23.662 23.7787L23.705 23.6977C23.7643 23.737 23.834 23.7576 23.905 23.7567C24.005 23.7567 24.039 23.7267 24.039 23.6787C24.039 23.5527 23.682 23.6627 23.682 23.4347C23.682 23.3347 23.773 23.2657 23.918 23.2657C23.9903 23.2643 24.0617 23.2819 24.125 23.3167L24.082 23.3977C24.0318 23.3683 23.9743 23.3534 23.916 23.3547C23.827 23.3547 23.782 23.3867 23.782 23.4327C23.782 23.5667 24.144 23.4567 24.144 23.6767C24.144 23.7767 24.05 23.8457 23.897 23.8457C23.8136 23.8484 23.7314 23.825 23.662 23.7787Z" fill="black"/>
</g>
<path opacity="0.2" d="M76.226 2.62891H17.131V5.01991H76.226V2.62891Z" fill="black"/>
<path d="M71.517 34.2021H65.056C64.2933 34.2021 63.675 34.8202 63.675 35.5826C63.675 36.3451 64.2933 36.9631 65.056 36.9631H71.517C72.2797 36.9631 72.898 36.3451 72.898 35.5826C72.898 34.8202 72.2797 34.2021 71.517 34.2021Z" fill="#407BFF"/>
<path d="M66.206 36.0188L66.265 35.8929C66.3706 35.9781 66.5023 36.0244 66.638 36.0238C66.838 36.0238 66.906 35.9489 66.906 35.8499C66.906 35.5819 66.222 35.7498 66.222 35.3288C66.222 35.1548 66.359 35.0068 66.654 35.0068C66.7816 35.0061 66.9069 35.0407 67.016 35.1069L66.962 35.2359C66.8695 35.1773 66.7625 35.1458 66.653 35.1448C66.462 35.1448 66.385 35.2258 66.385 35.3248C66.385 35.5928 67.069 35.4249 67.069 35.8399C67.069 36.0119 66.929 36.1618 66.632 36.1618C66.4778 36.1642 66.3275 36.1137 66.206 36.0188Z" fill="white"/>
<path d="M68.028 35.8655H67.428L67.305 36.1475H67.139L67.649 35.0205H67.807L68.32 36.1475H68.15L68.028 35.8655ZM67.972 35.7365L67.728 35.1835L67.486 35.7365H67.972Z" fill="white"/>
<path d="M69.408 35.0205L68.914 36.1475H68.753L68.259 35.0205H68.431L68.839 35.9465L69.247 35.0205H69.408Z" fill="white"/>
<path d="M70.368 36.0085V36.1485H69.563V35.0205H70.368V35.1605H69.732V35.5125H70.298V35.6495H69.732V36.0145L70.368 36.0085Z" fill="white"/>
<path opacity="0.4" d="M61.21 34.2021H52.065C51.3023 34.2021 50.684 34.8202 50.684 35.5826C50.684 36.3451 51.3023 36.9631 52.065 36.9631H61.21C61.9727 36.9631 62.591 36.3451 62.591 35.5826C62.591 34.8202 61.9727 34.2021 61.21 34.2021Z" fill="black"/>
<path d="M52.938 35.0201H53.413C53.4915 35.0127 53.5706 35.0218 53.6454 35.0467C53.7201 35.0717 53.7888 35.112 53.8471 35.165C53.9054 35.218 53.952 35.2827 53.9838 35.3548C54.0157 35.4268 54.0322 35.5048 54.0322 35.5836C54.0322 35.6624 54.0157 35.7403 53.9838 35.8124C53.952 35.8845 53.9054 35.9491 53.8471 36.0022C53.7888 36.0552 53.7201 36.0955 53.6454 36.1204C53.5706 36.1454 53.4915 36.1545 53.413 36.1471H52.938V35.0201ZM53.402 36.0081C53.5145 36.0081 53.6223 35.9634 53.7018 35.8839C53.7813 35.8044 53.826 35.6965 53.826 35.5841C53.826 35.4716 53.7813 35.3638 53.7018 35.2843C53.6223 35.2048 53.5145 35.1601 53.402 35.1601H53.102V36.0081H53.402Z" fill="white"/>
<path d="M54.266 35.0205H54.427V36.1505H54.266V35.0205Z" fill="white"/>
<path d="M54.664 36.0188L54.723 35.8928C54.8283 35.9788 54.9601 36.0255 55.096 36.0248C55.289 36.0248 55.364 35.9498 55.364 35.8508C55.364 35.5828 54.682 35.7508 54.682 35.3298C54.682 35.1558 54.819 35.0078 55.114 35.0078C55.2416 35.007 55.3669 35.0417 55.476 35.1078L55.422 35.2368C55.3294 35.1786 55.2224 35.1471 55.113 35.1458C54.922 35.1458 54.845 35.2268 54.845 35.3258C54.845 35.5938 55.527 35.4258 55.527 35.8408C55.527 36.0128 55.39 36.1628 55.092 36.1628C54.9371 36.1653 54.786 36.1145 54.664 36.0188Z" fill="white"/>
<path d="M55.683 35.5885C55.6822 35.5105 55.6974 35.4332 55.7276 35.3613C55.7577 35.2894 55.8023 35.2245 55.8585 35.1705C55.9147 35.1164 55.9813 35.0745 56.0543 35.0471C56.1273 35.0198 56.2052 35.0076 56.283 35.0114C56.363 35.0087 56.4426 35.0232 56.5166 35.0537C56.5906 35.0842 56.6572 35.1301 56.712 35.1884L56.612 35.2884C56.5715 35.2453 56.5223 35.2112 56.4676 35.1885C56.413 35.1657 56.3542 35.1548 56.295 35.1564C56.2237 35.1572 56.1537 35.1755 56.0912 35.2098C56.0287 35.2442 55.9757 35.2934 55.9369 35.3533C55.8981 35.4131 55.8747 35.4816 55.8687 35.5526C55.8628 35.6237 55.8746 35.6951 55.903 35.7605C55.9314 35.8259 55.9756 35.8833 56.0315 35.9274C56.0875 35.9716 56.1535 36.0013 56.2237 36.0137C56.2939 36.0262 56.3661 36.0211 56.4339 35.9989C56.5016 35.9767 56.5628 35.938 56.612 35.8864L56.712 35.9864C56.6571 36.0447 56.5905 36.0906 56.5166 36.1211C56.4426 36.1516 56.363 36.1661 56.283 36.1634C56.2052 36.1673 56.1273 36.1551 56.0543 36.1278C55.9813 36.1004 55.9147 36.0584 55.8585 36.0044C55.8023 35.9504 55.7577 35.8854 55.7276 35.8136C55.6974 35.7417 55.6822 35.6644 55.683 35.5864V35.5885Z" fill="white"/>
<path d="M57.621 35.8655H57.021L56.898 36.1475H56.732L57.242 35.0205H57.4L57.913 36.1475H57.744L57.621 35.8655ZM57.565 35.7365L57.323 35.1835L57.079 35.7365H57.565Z" fill="white"/>
<path d="M58.833 36.1476L58.591 35.8016H58.242V36.1456H58.081V35.0176H58.518C58.818 35.0176 58.99 35.1656 58.99 35.4096C58.9936 35.4883 58.971 35.5661 58.9258 35.6306C58.8806 35.6952 58.8152 35.743 58.74 35.7666L59.008 36.1446L58.833 36.1476ZM58.833 35.4126C58.833 35.2516 58.723 35.1606 58.519 35.1606H58.251V35.6676H58.519C58.719 35.6676 58.83 35.5736 58.83 35.4126H58.833Z" fill="white"/>
<path d="M59.253 35.0201H59.728C59.8065 35.0127 59.8856 35.0218 59.9604 35.0467C60.0351 35.0717 60.1038 35.112 60.1621 35.165C60.2204 35.218 60.267 35.2827 60.2988 35.3548C60.3307 35.4268 60.3471 35.5048 60.3471 35.5836C60.3471 35.6624 60.3307 35.7403 60.2988 35.8124C60.267 35.8845 60.2204 35.9491 60.1621 36.0022C60.1038 36.0552 60.0351 36.0955 59.9604 36.1204C59.8856 36.1454 59.8065 36.1545 59.728 36.1471H59.253V35.0201ZM59.717 36.0081C59.8295 36.0081 59.9373 35.9634 60.0168 35.8839C60.0963 35.8044 60.141 35.6965 60.141 35.5841C60.141 35.4716 60.0963 35.3638 60.0168 35.2843C59.9373 35.2048 59.8295 35.1601 59.717 35.1601H59.417V36.0081H59.717Z" fill="white"/>
<path d="M19.268 3.935H18.195C18.1595 3.935 18.1254 3.92087 18.1003 3.89574C18.0751 3.87061 18.061 3.83653 18.061 3.80099C18.061 3.76546 18.0751 3.73137 18.1003 3.70624C18.1254 3.68111 18.1595 3.66699 18.195 3.66699H19.268C19.3035 3.66699 19.3376 3.68111 19.3628 3.70624C19.3879 3.73137 19.402 3.76546 19.402 3.80099C19.402 3.83653 19.3879 3.87061 19.3628 3.89574C19.3376 3.92087 19.3035 3.935 19.268 3.935Z" fill="white"/>
<path d="M18.511 4.38681C18.4925 4.38724 18.4741 4.38393 18.4569 4.37706C18.4397 4.37019 18.4241 4.35989 18.411 4.34682L17.976 3.91182C17.9513 3.88675 17.9375 3.85298 17.9375 3.81781C17.9375 3.78264 17.9513 3.74888 17.976 3.72382L18.411 3.28682C18.4366 3.26196 18.4708 3.24805 18.5065 3.24805C18.5422 3.24805 18.5764 3.26196 18.602 3.28682C18.6147 3.29929 18.6247 3.31416 18.6316 3.33055C18.6385 3.34695 18.642 3.36453 18.642 3.38231C18.642 3.40008 18.6385 3.41769 18.6316 3.43408C18.6247 3.45048 18.6147 3.46534 18.602 3.47781L18.261 3.81882L18.602 4.15982C18.6148 4.17188 18.6251 4.18644 18.6321 4.20261C18.639 4.21877 18.6427 4.2362 18.6427 4.25381C18.6427 4.27143 18.639 4.28886 18.6321 4.30502C18.6251 4.32119 18.6148 4.33575 18.602 4.34781C18.5778 4.37195 18.5452 4.3859 18.511 4.38681Z" fill="white"/>
<path d="M75.129 3.39789H73.988C73.9525 3.39789 73.9184 3.38376 73.8932 3.35863C73.8681 3.3335 73.854 3.29942 73.854 3.26389C73.854 3.22835 73.8681 3.19426 73.8932 3.16913C73.9184 3.144 73.9525 3.12988 73.988 3.12988H75.129C75.1645 3.12988 75.1986 3.144 75.2238 3.16913C75.2489 3.19426 75.263 3.22835 75.263 3.26389C75.263 3.29942 75.2489 3.3335 75.2238 3.35863C75.1986 3.38376 75.1645 3.39789 75.129 3.39789Z" fill="white"/>
<path d="M75.129 3.935H73.988C73.9525 3.935 73.9184 3.92087 73.8932 3.89574C73.8681 3.87061 73.854 3.83653 73.854 3.80099C73.854 3.76546 73.8681 3.73137 73.8932 3.70624C73.9184 3.68111 73.9525 3.66699 73.988 3.66699H75.129C75.1645 3.66699 75.1986 3.68111 75.2238 3.70624C75.2489 3.73137 75.263 3.76546 75.263 3.80099C75.263 3.83653 75.2489 3.87061 75.2238 3.89574C75.1986 3.92087 75.1645 3.935 75.129 3.935Z" fill="white"/>
<path d="M75.129 4.47211H73.988C73.9525 4.47211 73.9184 4.45798 73.8932 4.43285C73.8681 4.40772 73.854 4.37364 73.854 4.3381C73.854 4.30257 73.8681 4.26848 73.8932 4.24335C73.9184 4.21822 73.9525 4.2041 73.988 4.2041H75.129C75.1645 4.2041 75.1986 4.21822 75.2238 4.24335C75.2489 4.26848 75.263 4.30257 75.263 4.3381C75.263 4.37364 75.2489 4.40772 75.2238 4.43285C75.1986 4.45798 75.1645 4.47211 75.129 4.47211Z" fill="white"/>
<path d="M95.3246 22.7537C95.8081 20.7052 94.5394 18.6526 92.4909 18.1692C90.4425 17.6857 88.3899 18.9543 87.9064 21.0028C87.4229 23.0513 88.6916 25.1039 90.7401 25.5873C92.7886 26.0708 94.8411 24.8021 95.3246 22.7537Z" fill="#407BFF"/>
<path d="M89.451 23.7617L88.321 26.7327L90.833 24.7327L89.451 23.7617Z" fill="#407BFF"/>
<path d="M93.053 22.018H90.184C90.1487 22.0172 90.1151 22.0029 90.0901 21.9779C90.0652 21.9529 90.0508 21.9193 90.05 21.884C90.05 21.8664 90.0535 21.849 90.0602 21.8327C90.0669 21.8165 90.0768 21.8017 90.0893 21.7892C90.1017 21.7768 90.1165 21.7669 90.1328 21.7602C90.149 21.7535 90.1664 21.75 90.184 21.75H93.053C93.0706 21.75 93.0881 21.7535 93.1043 21.7602C93.1206 21.7669 93.1353 21.7768 93.1478 21.7892C93.1602 21.8017 93.1701 21.8165 93.1768 21.8327C93.1836 21.849 93.187 21.8664 93.187 21.884C93.1862 21.9193 93.1719 21.9529 93.1469 21.9779C93.1219 22.0029 93.0883 22.0172 93.053 22.018Z" fill="white"/>
<path d="M91.619 23.4514C91.5835 23.4514 91.5494 23.4373 91.5243 23.4121C91.4991 23.387 91.485 23.3529 91.485 23.3174V20.4514C91.485 20.4158 91.4991 20.3818 91.5243 20.3566C91.5494 20.3315 91.5835 20.3174 91.619 20.3174C91.6546 20.3174 91.6886 20.3315 91.7138 20.3566C91.7389 20.3818 91.753 20.4158 91.753 20.4514V23.3174C91.7523 23.3527 91.7379 23.3863 91.7129 23.4113C91.688 23.4363 91.6543 23.4506 91.619 23.4514Z" fill="white"/>
<path d="M86.395 28.1636C86.395 28.1636 82.665 25.1736 80.495 29.8756C79.266 32.5296 80.251 38.1306 82.674 40.0276C85.097 41.9246 90.137 37.6576 90.137 37.6576C90.137 37.6576 91.251 32.2476 89.549 29.9716C87.366 27.0636 86.395 28.1636 86.395 28.1636Z" fill="#263238"/>
<path d="M81.178 39.7023C81.1655 39.7024 81.1533 39.6989 81.1429 39.6921C81.1324 39.6854 81.1241 39.6757 81.119 39.6643C81.092 39.6133 78.607 34.4343 79.836 30.5403C79.9621 30.044 80.1931 29.5805 80.5134 29.181C80.8337 28.7815 81.236 28.4552 81.693 28.2243C82.8155 27.809 84.0514 27.8204 85.166 28.2563C85.1745 28.2594 85.1822 28.2643 85.1887 28.2706C85.1951 28.2769 85.2002 28.2846 85.2035 28.293C85.2068 28.3014 85.2083 28.3104 85.2079 28.3194C85.2074 28.3284 85.2051 28.3372 85.201 28.3453C85.194 28.3611 85.1811 28.3736 85.1651 28.3801C85.149 28.3866 85.1311 28.3867 85.115 28.3803C84.0336 27.9615 82.8369 27.949 81.747 28.3453C81.3079 28.5694 80.9218 28.8848 80.6145 29.2703C80.3072 29.6557 80.0858 30.1024 79.965 30.5803C78.752 34.4123 81.213 39.5433 81.237 39.5943C81.2411 39.6022 81.2436 39.6109 81.2443 39.6198C81.245 39.6287 81.244 39.6377 81.2412 39.6461C81.2384 39.6546 81.2339 39.6625 81.2281 39.6692C81.2222 39.6759 81.215 39.6814 81.207 39.6853C81.1988 39.6935 81.1884 39.699 81.177 39.7013L81.178 39.7023Z" fill="#263238"/>
<path d="M81.283 41.7129C81.283 41.7129 80.623 47.6569 80.408 48.3659C79.4269 49.9326 78.3439 51.4332 77.166 52.8579L78.025 53.3029C79.3677 51.9602 80.6151 50.5253 81.758 49.0089C82.271 48.0239 83.035 42.9009 83.035 42.9009L81.283 41.7129Z" fill="#EBB376"/>
<path d="M84.246 44.3292L84.08 44.3022L81.718 43.9162L80.459 43.7162C80.459 43.7162 80.569 40.1072 81.892 39.0732L83.164 40.2512L84.246 44.3292Z" fill="#407BFF"/>
<path opacity="0.2" d="M84.076 44.3026L81.714 43.9166C81.6528 42.7491 81.8698 41.5838 82.347 40.5166C82.8791 40.9956 83.3071 41.5789 83.6045 42.2301C83.9019 42.8814 84.0624 43.5868 84.076 44.3026Z" fill="black"/>
<path d="M86.277 49.7024L84.277 52.8774C80.297 51.9514 67.542 50.0064 65.977 54.3774C64.029 59.8174 78.099 64.1514 85.884 64.4164C93.669 64.6814 99.916 60.2514 94.995 48.9004L86.277 49.7024Z" fill="#263238"/>
<path opacity="0.2" d="M86.277 49.7024L84.277 52.8774C80.297 51.9514 67.542 50.0064 65.977 54.3774C64.029 59.8174 78.099 64.1514 85.884 64.4164C93.669 64.6814 99.916 60.2514 94.995 48.9004L86.277 49.7024Z" fill="black"/>
<path d="M67.76 61.7488C67.6442 61.6596 67.5589 61.5366 67.516 61.3968C67.5085 61.3505 67.5132 61.3031 67.5297 61.2592C67.5462 61.2154 67.5739 61.1766 67.61 61.1468C67.6294 61.1257 67.6542 61.1103 67.6816 61.1022C67.7091 61.0941 67.7383 61.0936 67.766 61.1008C68.034 61.1788 68.284 61.9278 68.303 62.0128C68.307 62.021 68.3079 62.0304 68.3055 62.0392C68.3031 62.048 68.2976 62.0557 68.29 62.0608C68.2819 62.0666 68.2721 62.0698 68.262 62.0698C68.252 62.0698 68.2422 62.0666 68.234 62.0608C68.066 61.9729 67.9072 61.8684 67.76 61.7488ZM67.803 61.2338C67.7857 61.2186 67.7656 61.2068 67.744 61.1988C67.733 61.1948 67.721 61.1945 67.7099 61.1979C67.6987 61.2014 67.6889 61.2083 67.682 61.2178C67.6556 61.2364 67.6352 61.2623 67.6233 61.2923C67.6114 61.3223 67.6085 61.3551 67.615 61.3868C67.731 61.6259 67.928 61.8161 68.171 61.9238C68.0867 61.6726 67.9577 61.4389 67.79 61.2338H67.803Z" fill="#263238"/>
<path d="M68.212 62.0791V62.0611C68.121 61.8301 68.097 61.2241 68.284 61.0901C68.3159 61.069 68.3542 61.0595 68.3923 61.0633C68.4303 61.0672 68.4659 61.084 68.493 61.1111C68.5252 61.1325 68.5527 61.1601 68.5738 61.1925C68.595 61.2248 68.6093 61.261 68.616 61.2991C68.675 61.6051 68.316 62.0591 68.291 62.0801C68.2851 62.0866 68.2774 62.0913 68.2689 62.0936C68.2604 62.0959 68.2514 62.0957 68.243 62.0931C68.2313 62.0924 68.2203 62.0874 68.212 62.0791ZM68.44 61.1991L68.421 61.1861C68.367 61.1481 68.343 61.1651 68.332 61.1731C68.222 61.2481 68.203 61.6731 68.262 61.9321C68.4072 61.7559 68.4911 61.5372 68.501 61.3091C68.4933 61.2669 68.4723 61.2284 68.441 61.1991H68.44Z" fill="#263238"/>
<path d="M82.176 63.8529C82.2343 63.9874 82.2493 64.1366 82.219 64.2799C82.2036 64.3238 82.1771 64.3629 82.1421 64.3934C82.107 64.4239 82.0646 64.4448 82.019 64.4539C81.9919 64.4618 81.9632 64.4627 81.9356 64.4566C81.908 64.4505 81.8823 64.4375 81.861 64.4189C81.673 64.2189 81.81 63.4419 81.829 63.3459C81.8299 63.3367 81.8339 63.328 81.8402 63.3211C81.8465 63.3143 81.8549 63.3096 81.864 63.308C81.8742 63.3068 81.8846 63.3087 81.8937 63.3135C81.9028 63.3184 81.9103 63.3258 81.915 63.3349C82.0188 63.4986 82.1062 63.6721 82.176 63.8529ZM81.889 64.2849C81.897 64.3066 81.9089 64.3266 81.924 64.3439C81.932 64.3518 81.9421 64.3572 81.9531 64.3595C81.9641 64.3618 81.9755 64.3609 81.986 64.3569C82.0185 64.3528 82.049 64.3395 82.0742 64.3186C82.0993 64.2977 82.118 64.2701 82.128 64.239C82.142 63.9746 82.0612 63.714 81.9 63.5039C81.851 63.7618 81.849 64.0264 81.894 64.2849H81.889Z" fill="#263238"/>
<path d="M76.815 59.4053L80.015 60.5463L81.553 61.0933L81.159 62.7763L79.67 62.4593L76.031 61.6833L76.815 59.4053Z" fill="#EBB376"/>
<path d="M80.743 62.857L81.011 60.871C81.0148 60.8446 81.0238 60.8192 81.0375 60.7963C81.0512 60.7735 81.0694 60.7536 81.0909 60.7378C81.1124 60.7221 81.1369 60.7108 81.1628 60.7046C81.1888 60.6985 81.2157 60.6976 81.242 60.702L82.222 60.866C82.222 60.866 83.564 60.989 83.822 61.333C84.598 62.333 84.114 66.74 83.597 66.896C83.409 66.952 83.208 66.696 83.127 66.515C82.859 65.946 82.405 64.459 82.182 63.99C81.8817 63.5293 81.4166 63.2009 80.882 63.072C80.8366 63.0593 80.7973 63.0305 80.7717 62.9908C80.7461 62.9512 80.7359 62.9036 80.743 62.857Z" fill="#407BFF"/>
<path d="M81.921 63.351V63.372C81.889 63.619 81.615 64.161 81.384 64.177C81.3466 64.1801 81.3092 64.1705 81.2779 64.1496C81.2467 64.1287 81.2234 64.0978 81.212 64.062C81.1766 63.9923 81.1698 63.9116 81.193 63.837C81.293 63.537 81.824 63.316 81.856 63.3C81.8629 63.2948 81.8714 63.292 81.88 63.292C81.8887 63.292 81.8971 63.2948 81.904 63.3C81.9116 63.3059 81.9173 63.3138 81.9203 63.3229C81.9234 63.332 81.9236 63.3418 81.921 63.351ZM81.293 64.008V64.029C81.323 64.091 81.349 64.085 81.363 64.085C81.497 64.072 81.72 63.709 81.795 63.454C81.642 63.526 81.341 63.696 81.282 63.881C81.2684 63.9219 81.2684 63.9661 81.282 64.007L81.293 64.008Z" fill="#263238"/>
<path opacity="0.2" d="M76.815 59.4053L80.015 60.5463L79.669 62.4593L76.03 61.6833L76.815 59.4053Z" fill="black"/>
<path d="M79.103 62.7466L78.183 62.8135L78.8 59.6445L79.844 60.2215L79.103 62.7466Z" fill="#407BFF"/>
<path opacity="0.6" d="M79.103 62.7466L78.183 62.8135L78.8 59.6445L79.844 60.2215L79.103 62.7466Z" fill="white"/>
<path opacity="0.2" d="M92.468 50.4316L87.668 55.7506C83.5785 55.8916 79.5694 56.9258 75.922 58.7806C75.922 58.7806 69.012 55.9276 68.376 53.5556C67.544 50.4476 84.268 52.8766 84.268 52.8766L92.468 50.4316Z" fill="black"/>
<path d="M69.963 54.1885V54.9775C69.963 55.1775 70.202 55.2615 70.4 55.2615H86.153C86.353 55.2615 86.598 55.1785 86.598 54.9775V54.1885H69.963Z" fill="#263238"/>
<path opacity="0.4" d="M69.963 54.1885V54.9775C69.963 55.1775 70.202 55.2615 70.4 55.2615H86.153C86.353 55.2615 86.598 55.1785 86.598 54.9775V54.1885H69.963Z" fill="white"/>
<path opacity="0.2" d="M69.963 54.1885V54.9775C69.963 55.1775 70.202 55.2615 70.4 55.2615H80.791C80.991 55.2615 81.234 55.1785 81.234 54.9775V54.1885H69.963Z" fill="black"/>
<path d="M67.328 46.008L69.207 54.515C69.2416 54.6511 69.3199 54.7721 69.43 54.8593C69.54 54.9466 69.6756 54.9953 69.816 54.998H80.062C80.1262 54.9968 80.1892 54.9807 80.246 54.9509C80.3028 54.921 80.3518 54.8783 80.3891 54.8261C80.4265 54.7739 80.4511 54.7137 80.4609 54.6503C80.4708 54.5869 80.4657 54.522 80.446 54.461L78.567 46.018C78.5289 45.8893 78.4474 45.7778 78.3364 45.7025C78.2254 45.6272 78.0916 45.5927 77.958 45.605H67.714C67.438 45.601 67.266 45.725 67.328 46.008Z" fill="#263238"/>
<path opacity="0.4" d="M67.328 46.0039L69.207 54.5109C69.2416 54.647 69.3199 54.7679 69.43 54.8552C69.54 54.9425 69.6756 54.9912 69.816 54.9939H79.716C79.7802 54.9925 79.8433 54.9762 79.9002 54.9464C79.957 54.9166 80.0062 54.874 80.0439 54.822C80.0816 54.77 80.1067 54.71 80.1173 54.6466C80.1279 54.5833 80.1237 54.5183 80.105 54.4568L78.223 46.0149C78.1852 45.8859 78.1039 45.7739 77.9928 45.6981C77.8818 45.6223 77.748 45.5872 77.614 45.5989H67.714C67.438 45.6019 67.266 45.7249 67.328 46.0039Z" fill="white"/>
<path opacity="0.2" d="M72.378 50.3278C72.411 50.6704 72.5636 50.9905 72.809 51.2318C73.0544 51.4732 73.3769 51.6205 73.72 51.6478C74.281 51.6478 74.632 51.0548 74.469 50.3278C74.4161 50.0014 74.2634 49.6995 74.0318 49.4635C73.8003 49.2275 73.5013 49.0689 73.176 49.0098C73.34 49.7368 72.991 50.3278 72.419 50.3278C72.4054 50.3288 72.3917 50.3288 72.378 50.3278Z" fill="black"/>
<path d="M74.59 63.0498L71.236 63.5998L69.626 63.8658L69.154 62.2018L70.614 61.7588L74.172 60.6748L74.59 63.0498Z" fill="#EBB376"/>
<path d="M69.483 61.9321L70.208 63.8101C70.2189 63.8353 70.2245 63.8626 70.2243 63.89C70.2242 63.9175 70.2184 63.9447 70.2074 63.9698C70.1963 63.9949 70.1802 64.0175 70.16 64.0362C70.1398 64.0548 70.116 64.0691 70.09 64.0781L69.153 64.4111C69.153 64.4111 67.927 64.9481 67.529 64.7761C66.367 64.2761 64.655 60.1841 65.029 59.7981C65.166 59.6581 65.466 59.7981 65.629 59.9051C66.129 60.2751 67.253 61.3511 67.677 61.6551C68.1615 61.9159 68.7284 61.9783 69.258 61.8291C69.3017 61.8185 69.3476 61.8229 69.3884 61.8416C69.4292 61.8603 69.4625 61.8922 69.483 61.9321Z" fill="#407BFF"/>
<path opacity="0.2" d="M74.59 63.0498L71.236 63.5998L70.613 61.7588L74.171 60.6748L74.59 63.0498Z" fill="black"/>
<path d="M71.19 61.4111C71.19 61.4111 84.876 53.7231 89.59 53.9401C94.304 54.1571 94.99 58.3221 93.044 60.9171C91.6076 62.5832 89.6568 63.7229 87.5 64.1561C87.5 64.1561 89.95 60.6971 89.6 59.7231C89.25 58.7491 87.861 60.1071 87.861 60.1071C82.6044 61.7607 77.2019 62.9082 71.727 63.5341L71.19 61.4111Z" fill="#263238"/>
<path d="M70.97 61.2017L71.743 60.6807L72.743 63.7346H71.549L70.97 61.2017Z" fill="#407BFF"/>
<path opacity="0.6" d="M70.97 61.2017L71.743 60.6807L72.743 63.7346H71.549L70.97 61.2017Z" fill="white"/>
<path d="M94.988 48.9046L86.274 49.7096C85.6147 48.3152 84.8049 46.997 83.859 45.7786C82.81 44.6786 81.884 39.0696 81.884 39.0696C82.5925 38.7268 83.3219 38.4291 84.068 38.1786C86.2176 37.4579 88.467 37.0793 90.734 37.0566H90.782C91.431 37.0566 91.807 37.0886 91.807 37.0886C92.071 37.2667 92.2845 37.5099 92.427 37.7946C93.361 39.4046 94.104 43.1616 94.544 45.8586C94.832 47.6046 94.988 48.9046 94.988 48.9046Z" fill="#407BFF"/>
<path opacity="0.2" d="M94.547 45.8589C92.626 44.9789 90.004 43.4889 90.141 41.9789C90.4663 40.3859 91.2639 38.9279 92.43 37.7949C93.364 39.4049 94.107 43.1619 94.547 45.8589Z" fill="black"/>
<path opacity="0.4" d="M89.511 44.7589C89.6319 45.0198 89.6933 45.3043 89.6909 45.5919C89.6884 45.8795 89.6221 46.1629 89.4968 46.4217C89.3714 46.6805 89.1902 46.9083 88.9661 47.0885C88.742 47.2687 88.4807 47.397 88.201 47.4639C87.5747 47.5362 86.9426 47.3882 86.4135 47.0453C85.8843 46.7024 85.491 46.1861 85.301 45.5849C85.1799 45.3238 85.1184 45.039 85.1208 44.7512C85.1231 44.4634 85.1894 44.1798 85.3147 43.9207C85.44 43.6616 85.6213 43.4335 85.8455 43.253C86.0697 43.0725 86.3312 42.9441 86.611 42.8769C87.2377 42.8054 87.8697 42.9541 88.3988 43.2974C88.9279 43.6408 89.3211 44.1574 89.511 44.7589Z" fill="white"/>
<path d="M85.767 47.1071L86.314 42.5801L89.923 46.4901L85.767 47.1071Z" fill="#407BFF"/>
<path d="M90.785 37.0577C90.5419 38.1468 90.0257 39.1561 89.285 39.9908C89.1216 40.1659 88.9418 40.325 88.748 40.4658C88.2074 40.8564 87.5651 41.0818 86.899 41.1147C86.4608 41.1782 86.0137 41.1063 85.6175 40.9087C85.2212 40.711 84.8949 40.397 84.682 40.0088C84.4844 39.6384 84.3374 39.2432 84.245 38.8337C84.183 38.5897 84.135 38.3617 84.084 38.1787L84.505 38.0417C84.717 37.9747 84.924 37.9128 85.13 37.8538C86.4638 37.4826 87.8294 37.2372 89.209 37.1208L89.773 37.0828C90.138 37.0638 90.46 37.0557 90.736 37.0527L90.785 37.0577Z" fill="#EBB376"/>
<path d="M85.563 37.6257C85.547 38.1627 85.238 38.2997 85.238 38.2997C85.2113 38.4659 85.2232 38.636 85.2726 38.7969C85.322 38.9578 85.4076 39.1052 85.523 39.2278C85.6383 39.3504 85.7803 39.4449 85.9379 39.504C86.0955 39.5631 86.2645 39.5852 86.432 39.5687C88.141 39.3947 88.681 37.3357 88.681 37.3357C88.193 37.0813 87.7864 36.6947 87.5079 36.22C87.2294 35.7454 87.0901 35.2019 87.106 34.6517C87.091 34.4383 87.091 34.2241 87.106 34.0107L84.782 35.4757C84.9783 35.8022 85.1514 36.142 85.3 36.4927C85.4633 36.8488 85.5528 37.2342 85.563 37.6257Z" fill="#EBB376"/>
<path opacity="0.2" d="M84.935 35.2969C85.097 35.6448 85.235 36.0033 85.348 36.3699C85.4738 36.7409 85.5231 37.1334 85.493 37.524C86.8 37.624 87.318 34.7379 87.318 34.7379L87.331 34.722C87.3368 34.5087 87.3582 34.2961 87.395 34.0859L84.935 35.2969Z" fill="black"/>
<path d="M83.029 29.4883C80.78 30.1723 80.423 31.5973 80.965 33.9643C81.641 36.9163 82.911 38.7943 85.527 37.3083C89.094 35.3043 86.764 28.3503 83.029 29.4883Z" fill="#EBB376"/>
<path d="M82.381 33.3965C82.3039 33.7871 82.1803 34.1672 82.013 34.5285C82.1068 34.6011 82.2189 34.6463 82.3368 34.659C82.4548 34.6717 82.5739 34.6515 82.681 34.6005L82.381 33.3965Z" fill="#D58745"/>
<path d="M83.7 32.7927C83.754 32.9777 83.9 33.1018 84.019 33.0608C84.138 33.0198 84.201 32.8488 84.148 32.6608C84.095 32.4728 83.955 32.3518 83.831 32.3928C83.707 32.4338 83.65 32.6077 83.7 32.7927Z" fill="#263238"/>
<path d="M83.886 32.3878L83.438 32.3418C83.438 32.3418 83.733 32.6258 83.886 32.3878Z" fill="#263238"/>
<path d="M81.383 33.402C81.434 33.587 81.576 33.711 81.7 33.67C81.824 33.629 81.882 33.455 81.832 33.27C81.782 33.085 81.632 32.961 81.513 33.002C81.394 33.043 81.325 33.214 81.383 33.402Z" fill="#263238"/>
<path d="M81.562 32.9962L81.114 32.9502C81.114 32.9502 81.412 33.2322 81.562 32.9962Z" fill="#263238"/>
<path d="M84.329 31.3732C84.3098 31.3731 84.2911 31.3676 84.275 31.3572C84.124 31.2779 83.957 31.2336 83.7865 31.2275C83.616 31.2214 83.4463 31.2538 83.29 31.3222C83.2781 31.3314 83.2643 31.3379 83.2495 31.341C83.2348 31.3442 83.2195 31.3439 83.2048 31.3404C83.1902 31.3368 83.1765 31.3299 83.1649 31.3203C83.1533 31.3107 83.144 31.2986 83.1377 31.2848C83.1314 31.2711 83.1283 31.2562 83.1287 31.2411C83.129 31.226 83.1327 31.2112 83.1395 31.1978C83.1464 31.1843 83.1562 31.1726 83.1683 31.1635C83.1803 31.1544 83.1942 31.1482 83.209 31.1452C83.3951 31.0622 83.5979 31.0236 83.8015 31.0325C84.0051 31.0413 84.2038 31.0974 84.382 31.1962C84.4027 31.2109 84.417 31.2329 84.422 31.2578C84.427 31.2827 84.4224 31.3086 84.409 31.3302C84.4006 31.3437 84.3888 31.3548 84.3747 31.3624C84.3607 31.3699 84.3449 31.3737 84.329 31.3732Z" fill="#263238"/>
<path d="M80.749 32.192C80.7264 32.1935 80.7041 32.1859 80.687 32.171C80.6768 32.1632 80.6683 32.1533 80.662 32.142C80.6558 32.1307 80.6519 32.1182 80.6507 32.1053C80.6495 32.0925 80.6509 32.0795 80.6549 32.0673C80.6589 32.055 80.6654 32.0437 80.674 32.034C80.7796 31.8871 80.9174 31.7662 81.0769 31.6806C81.2363 31.595 81.4132 31.5469 81.594 31.54C81.6189 31.5423 81.6421 31.5538 81.659 31.5723C81.6758 31.5908 81.6851 31.615 81.685 31.64C81.6835 31.6655 81.6723 31.6894 81.6537 31.7069C81.6351 31.7244 81.6105 31.7341 81.585 31.734C81.4347 31.7412 81.288 31.7829 81.1564 31.8559C81.0247 31.9289 80.9117 32.0313 80.826 32.155C80.8167 32.1665 80.805 32.1758 80.7916 32.1822C80.7783 32.1886 80.7638 32.1919 80.749 32.192Z" fill="#263238"/>
<path d="M86.641 32.5267C85.7674 31.7047 85.1203 30.6715 84.762 29.5267C84.762 29.5267 79.752 29.0647 80.911 33.6537C80.911 33.6537 79.25 29.7737 83.087 28.5037C86.924 27.2337 88.631 32.8937 87.15 35.1887C87.2825 34.7365 87.3055 34.2591 87.217 33.7962C87.1285 33.3333 86.931 32.8982 86.641 32.5267Z" fill="#263238"/>
<path d="M86.418 33.1147C86.3892 32.9827 86.3867 32.8463 86.4106 32.7133C86.4345 32.5804 86.4844 32.4534 86.5574 32.3398C86.6304 32.2261 86.725 32.1279 86.836 32.0509C86.947 31.9738 87.072 31.9194 87.2041 31.8907C87.9231 31.7537 88.693 33.0817 87.064 33.9547C86.832 34.0807 86.617 33.8797 86.418 33.1147Z" fill="#EBB376"/>
<path d="M83.195 35.6156C83.1685 35.6156 83.1431 35.6051 83.1243 35.5864C83.1055 35.5676 83.095 35.5422 83.095 35.5156C83.095 35.4891 83.1055 35.4637 83.1243 35.4449C83.1431 35.4262 83.1685 35.4156 83.195 35.4156C83.4491 35.4236 83.6971 35.3376 83.8918 35.1742C84.0864 35.0107 84.214 34.7813 84.25 34.5297C84.2542 34.5049 84.2675 34.4826 84.2873 34.4673C84.3071 34.4519 84.332 34.4445 84.357 34.4466C84.3823 34.4501 84.4053 34.4632 84.4213 34.483C84.4373 34.5029 84.4451 34.5282 84.443 34.5536C84.3972 34.8495 84.2466 35.119 84.0186 35.3131C83.7906 35.5071 83.5004 35.6127 83.201 35.6106L83.195 35.6156Z" fill="#263238"/>
<path d="M89.913 34.9255C89.8976 34.9257 89.8827 34.9203 89.8709 34.9104C89.8592 34.9005 89.8514 34.8867 89.849 34.8715C89.849 34.8585 89.599 33.6285 87.232 32.9395C84.771 32.2235 84.602 29.2715 84.602 29.2395C84.6017 29.2307 84.6031 29.2219 84.6061 29.2136C84.6092 29.2054 84.6139 29.1978 84.6199 29.1914C84.6258 29.1849 84.633 29.1797 84.641 29.176C84.649 29.1723 84.6577 29.1703 84.6665 29.17C84.6753 29.1696 84.6841 29.1711 84.6923 29.1741C84.7006 29.1772 84.7082 29.1818 84.7146 29.1878C84.7211 29.1938 84.7263 29.201 84.7299 29.209C84.7336 29.217 84.7357 29.2257 84.736 29.2345C84.736 29.2645 84.902 32.1225 87.269 32.8095C89.725 33.5265 89.969 34.7925 89.979 34.8465C89.9814 34.8639 89.9772 34.8816 89.9672 34.896C89.9572 34.9105 89.9422 34.9206 89.925 34.9245L89.913 34.9255Z" fill="#263238"/>
<path d="M90.785 40.0244C90.785 40.0244 90.501 45.7594 90.017 47.0444C89.533 48.3294 84.465 53.0794 84.465 53.0794C83.9259 52.9431 83.373 52.8682 82.817 52.8564C82.264 53.2729 81.7354 53.721 81.234 54.1984H85.134L85.475 53.5984C85.475 53.5984 90.719 49.7154 91.296 48.7864C91.723 48.1024 93.096 41.1354 93.096 41.1354L90.785 40.0244Z" fill="#EBB376"/>
<path d="M91.811 37.0886C95.34 37.9556 93.69 43.2606 93.69 43.2606L90.019 42.3606C90.019 42.3606 90.018 36.6486 91.811 37.0886Z" fill="#407BFF"/>
<path d="M89.285 39.99C89.1216 40.1651 88.9418 40.3242 88.748 40.465C88.5698 39.3292 88.7305 38.166 89.21 37.121L89.774 37.083C89.3995 38.0043 89.2325 38.9968 89.285 39.99Z" fill="#263238"/>
<path d="M85.118 37.8535C84.846 38.538 84.6945 39.2644 84.67 40.0005C84.4724 39.6302 84.3254 39.235 84.233 38.8255C84.3033 38.5554 84.3928 38.2907 84.501 38.0335C84.704 37.9745 84.911 37.9235 85.118 37.8535Z" fill="#263238"/>
<path opacity="0.4" d="M89.285 39.99C89.1216 40.1651 88.9418 40.3242 88.748 40.465C88.5698 39.3292 88.7305 38.166 89.21 37.121L89.774 37.083C89.3995 38.0043 89.2325 38.9968 89.285 39.99Z" fill="white"/>
<path opacity="0.4" d="M85.118 37.8535C84.846 38.538 84.6945 39.2644 84.67 40.0005C84.4724 39.6302 84.3254 39.235 84.233 38.8255C84.3033 38.5554 84.3928 38.2907 84.501 38.0335C84.704 37.9745 84.911 37.9235 85.118 37.8535Z" fill="white"/>
</svg>
