<svg width="20" height="21" viewBox="0 0 20 21" fill="none" xmlns="http://www.w3.org/2000/svg">
<path d="M17.9 5.26274C17.8015 5.31038 17.7133 5.37699 17.6406 5.45872C17.5678 5.54045 17.5118 5.63569 17.4759 5.73905C17.4399 5.84241 17.4247 5.95186 17.4311 6.06111C17.4375 6.17035 17.4653 6.27726 17.513 6.37574C18.0602 7.50556 18.3424 8.74537 18.338 10.0007C18.338 11.6486 17.8494 13.2596 16.934 14.6298C16.0185 16 14.7174 17.0681 13.1951 17.699C11.6727 18.3298 9.99747 18.4951 8.38116 18.174C6.76485 17.8529 5.28002 17.0597 4.11443 15.8948C2.94884 14.7299 2.15479 13.2456 1.8327 11.6295C1.5106 10.0134 1.67493 8.33806 2.30486 6.81532C2.9348 5.29257 4.00212 3.99078 5.37182 3.07453C6.74152 2.15829 8.35209 1.66872 9.99999 1.66773C11.8792 1.65976 13.7046 2.29495 15.173 3.46775C15.2573 3.54387 15.3565 3.60191 15.4641 3.63832C15.5718 3.67472 15.6857 3.6887 15.7989 3.67942C15.9122 3.67014 16.0224 3.6378 16.1227 3.58436C16.223 3.53092 16.3113 3.4575 16.3821 3.36866C16.453 3.27982 16.505 3.17742 16.5348 3.06776C16.5646 2.9581 16.5717 2.84352 16.5555 2.73103C16.5394 2.61854 16.5004 2.51051 16.441 2.41365C16.3816 2.31678 16.303 2.23309 16.21 2.16773C14.4352 0.761617 12.2358 -0.000546369 9.97155 0.00589993C7.70728 0.0123462 5.51221 0.787027 3.74548 2.20323C1.97875 3.61943 0.744942 5.59329 0.245904 7.80189C-0.253133 10.0105 0.012148 12.3231 0.998346 14.3613C1.98454 16.3995 3.63327 18.0427 5.6748 19.0221C7.71633 20.0014 10.0298 20.259 12.2367 19.7525C14.4436 19.2461 16.4133 18.0056 17.8236 16.2341C19.2339 14.4627 20.0012 12.265 20 10.0007C20.0046 8.49415 19.6653 7.00636 19.008 5.65074C18.9604 5.55213 18.8939 5.46387 18.8122 5.39103C18.7305 5.31819 18.6352 5.26219 18.5318 5.22624C18.4284 5.19029 18.3189 5.1751 18.2097 5.18153C18.1004 5.18796 17.9935 5.21591 17.895 5.26374L17.9 5.26274Z" fill="#5F2788"/>
<path d="M10 3.33304C9.77916 3.3333 9.56742 3.42114 9.41125 3.5773C9.25509 3.73346 9.16726 3.9452 9.16699 4.16605V9.99902C9.16726 10.2199 9.25509 10.4316 9.41125 10.5878C9.56742 10.7439 9.77916 10.8318 10 10.832H14.167C14.3881 10.832 14.6 10.7442 14.7563 10.5879C14.9127 10.4316 15.0005 10.2196 15.0005 9.99854C15.0005 9.77748 14.9127 9.56549 14.7563 9.40918C14.6 9.25287 14.3881 9.16504 14.167 9.16504H10.834V4.16504C10.834 3.94411 10.7462 3.73224 10.59 3.57602C10.4338 3.4198 10.2219 3.33203 10.001 3.33203L10 3.33304Z" fill="#5F2788"/>
</svg>
