<svg width="14" height="13" viewBox="0 0 14 13" fill="none" xmlns="http://www.w3.org/2000/svg">
<path d="M12.386 0.910161H2.386C2.15526 0.910161 1.93397 1.00182 1.77082 1.16498C1.60766 1.32814 1.516 1.54942 1.516 1.78016V8.73716H0.428001C0.39942 8.73716 0.37112 8.74281 0.344727 8.75377C0.318334 8.76474 0.294367 8.78082 0.274204 8.80107C0.254041 8.82133 0.238077 8.84537 0.227231 8.87181C0.216385 8.89826 0.210869 8.92658 0.211001 8.95516C0.211001 9.1859 0.302661 9.40719 0.465818 9.57034C0.628975 9.7335 0.850263 9.82516 1.081 9.82516H7.386V12.4342C7.38578 12.4772 7.39838 12.5194 7.42221 12.5553C7.44604 12.5912 7.48002 12.6192 7.5198 12.6357C7.55959 12.6522 7.6034 12.6565 7.64564 12.648C7.68788 12.6396 7.72665 12.6187 7.757 12.5882L8.911 11.4362L10.062 12.5872C10.0822 12.6075 10.1062 12.6236 10.1326 12.6345C10.159 12.6455 10.1874 12.6512 10.216 12.6512C10.2445 12.6511 10.2727 12.6453 10.299 12.6342C10.3386 12.6178 10.3724 12.59 10.3963 12.5544C10.4201 12.5189 10.4329 12.477 10.433 12.4342V9.82416H11.085C11.3157 9.82416 11.537 9.7325 11.7002 9.56934C11.8633 9.40619 11.955 9.1849 11.955 8.95416V1.99716H13.042C13.0996 1.99716 13.1547 1.9743 13.1954 1.9336C13.2361 1.89291 13.259 1.83771 13.259 1.78016C13.259 1.66566 13.2364 1.55228 13.1925 1.44653C13.1486 1.34078 13.0842 1.24474 13.0031 1.16392C12.922 1.08309 12.8258 1.01907 12.7199 0.975522C12.614 0.931978 12.5005 0.909767 12.386 0.910161ZM11.516 1.78016V8.73716H10.646V9.17216H11.457C11.4188 9.23809 11.364 9.29284 11.298 9.33092C11.232 9.369 11.1572 9.38909 11.081 9.38916H10.429V9.17216H9.995V11.9102L9.062 10.9772C9.04185 10.957 9.01792 10.941 8.99158 10.9301C8.96524 10.9192 8.93701 10.9135 8.9085 10.9135C8.87999 10.9135 8.85176 10.9192 8.82542 10.9301C8.79908 10.941 8.77515 10.957 8.755 10.9772L7.821 11.9102V9.17216H7.386V9.38916H1.081C1.00481 9.38909 0.929982 9.369 0.863996 9.33092C0.798009 9.29284 0.743182 9.23809 0.705001 9.17216H7.168V8.73716H1.95V1.78016C1.95 1.66479 1.99583 1.55415 2.07741 1.47257C2.15899 1.39099 2.26963 1.34516 2.385 1.34516H11.638C11.5597 1.47682 11.5179 1.62698 11.517 1.78016H11.516ZM12.009 1.56316C12.0472 1.49714 12.1021 1.44232 12.1682 1.40421C12.2343 1.3661 12.3092 1.34604 12.3855 1.34604C12.4618 1.34604 12.5367 1.3661 12.6028 1.40421C12.6689 1.44232 12.7238 1.49714 12.762 1.56316H12.009Z" fill="white"/>
<path d="M10.957 7.71483L10.678 7.21483L10.958 6.71483C10.9727 6.68979 10.9822 6.66205 10.9859 6.63327C10.9897 6.60449 10.9876 6.57526 10.9799 6.54729C10.9721 6.51932 10.9589 6.49318 10.9409 6.47043C10.9228 6.44768 10.9004 6.42877 10.875 6.41483L10.859 6.40681L10.34 6.16882L10.273 5.60182C10.2696 5.57343 10.2607 5.54598 10.2467 5.52104C10.2327 5.49611 10.214 5.47417 10.1915 5.45651C10.169 5.43886 10.1432 5.42582 10.1157 5.41815C10.0881 5.41048 10.0594 5.40833 10.031 5.41182H10.014L9.45299 5.52283L9.06499 5.10283C9.04418 5.082 9.01948 5.06546 8.99228 5.05418C8.96508 5.04291 8.93592 5.03711 8.90648 5.03711C8.87704 5.03711 8.84789 5.04291 8.82069 5.05418C8.7935 5.06546 8.76879 5.082 8.74799 5.10283L8.35998 5.52283L7.79898 5.41182C7.77101 5.40629 7.74222 5.40632 7.71426 5.41193C7.68631 5.41753 7.65973 5.42859 7.63605 5.44447C7.61236 5.46035 7.59204 5.48075 7.57625 5.50449C7.56045 5.52822 7.54949 5.55485 7.54399 5.58282C7.54399 5.58816 7.54399 5.59382 7.54399 5.59982L7.47699 6.16682L6.95799 6.40482C6.93203 6.41667 6.90867 6.43354 6.88924 6.45444C6.8698 6.47534 6.85468 6.49987 6.84474 6.52663C6.8348 6.55338 6.83024 6.58183 6.83131 6.61035C6.83238 6.63887 6.83906 6.66689 6.85098 6.69283L6.85899 6.70882L7.13899 7.20882L6.85899 7.70882C6.84432 7.73386 6.83482 7.7616 6.83105 7.79037C6.82729 7.81915 6.82934 7.84839 6.83708 7.87636C6.84482 7.90433 6.85809 7.93046 6.87611 7.95322C6.89413 7.97597 6.91653 7.99488 6.94199 8.00882L6.95799 8.01682L7.47699 8.25482L7.54399 8.82281C7.54733 8.85121 7.55625 8.87867 7.57024 8.90361C7.58422 8.92855 7.603 8.95047 7.62549 8.96812C7.64798 8.98578 7.67374 8.99881 7.70128 9.00648C7.72882 9.01416 7.7576 9.01631 7.78598 9.01282H7.80298L8.36398 8.90182L8.75198 9.32182C8.77134 9.3428 8.79464 9.35975 8.82056 9.3717C8.84647 9.38366 8.87448 9.3904 8.903 9.39151C8.93152 9.39262 8.95997 9.3881 8.98674 9.3782C9.01351 9.36831 9.03806 9.35322 9.05899 9.33382L9.07098 9.32182L9.45898 8.90182L10.02 9.01282C10.0493 9.0189 10.0796 9.01875 10.1089 9.01237C10.1382 9.006 10.1658 8.99354 10.19 8.97581C10.214 8.95809 10.2341 8.93565 10.249 8.90985C10.264 8.88405 10.2735 8.85545 10.277 8.82582L10.344 8.25882L10.863 8.02083C10.8889 8.00897 10.9123 7.99211 10.9317 7.97121C10.9512 7.95031 10.9663 7.92577 10.9762 7.89902C10.9862 7.87227 10.9907 7.84381 10.9897 7.81529C10.9886 7.78677 10.9819 7.75875 10.97 7.73282L10.957 7.71483ZM10.24 7.32182L10.464 7.72182L10.048 7.91283C10.0141 7.92836 9.98487 7.95234 9.96298 7.98247C9.94109 8.01259 9.92731 8.04784 9.92299 8.08482L9.86998 8.53983L9.42099 8.45082C9.38488 8.44352 9.34749 8.44567 9.31245 8.45706C9.27742 8.46845 9.24591 8.48869 9.22099 8.51582L8.91098 8.85283L8.60098 8.51682C8.58062 8.4947 8.55588 8.47706 8.52833 8.46501C8.50079 8.45296 8.47104 8.44677 8.44098 8.44682C8.42702 8.44535 8.41295 8.44535 8.39899 8.44682L7.94998 8.53583L7.89699 8.08083C7.89266 8.04384 7.87889 8.00859 7.85699 7.97847C7.8351 7.94835 7.80583 7.92436 7.77199 7.90883L7.35599 7.71782L7.57999 7.31783C7.59868 7.28545 7.60852 7.24871 7.60852 7.21132C7.60852 7.17393 7.59868 7.13721 7.57999 7.10483L7.35599 6.70482L7.77199 6.51382C7.80583 6.49829 7.8351 6.47431 7.85699 6.44418C7.87889 6.41406 7.89266 6.37881 7.89699 6.34183L7.94998 5.88683L8.39899 5.97581C8.4351 5.98301 8.47246 5.98082 8.50748 5.96944C8.5425 5.95806 8.574 5.93788 8.59898 5.91083L8.90898 5.57382L9.21898 5.90982C9.2439 5.93695 9.27542 5.95719 9.31045 5.96858C9.34549 5.97997 9.38288 5.98212 9.41899 5.97482L9.86798 5.88582L9.92099 6.34082C9.92532 6.37781 9.93909 6.41305 9.96098 6.44318C9.98287 6.4733 10.0121 6.49728 10.046 6.51282L10.462 6.70383L10.238 7.10382C10.2191 7.1371 10.2093 7.1748 10.2096 7.21309C10.21 7.25138 10.2205 7.28889 10.24 7.32182Z" fill="white"/>
<path d="M8.908 6.12891C8.69301 6.12891 8.48285 6.19266 8.30409 6.3121C8.12533 6.43154 7.986 6.6013 7.90373 6.79993C7.82146 6.99855 7.79993 7.21711 7.84187 7.42796C7.88381 7.63882 7.98737 7.83251 8.13939 7.98453C8.29141 8.13655 8.48508 8.24007 8.69594 8.28201C8.90679 8.32396 9.12536 8.30244 9.32399 8.22017C9.52261 8.1379 9.69237 7.99857 9.81181 7.81981C9.93125 7.64105 9.99501 7.4309 9.99501 7.21591C9.99501 6.92762 9.88047 6.65113 9.67662 6.44728C9.47277 6.24343 9.19629 6.12891 8.908 6.12891ZM8.908 7.8679C8.77905 7.8679 8.65298 7.82967 8.54576 7.75803C8.43854 7.68638 8.35496 7.58455 8.30562 7.46541C8.25627 7.34627 8.24338 7.21519 8.26854 7.08871C8.29369 6.96224 8.35579 6.84605 8.44697 6.75487C8.53816 6.66368 8.65433 6.60159 8.7808 6.57643C8.90728 6.55127 9.03838 6.56419 9.15751 6.61354C9.27665 6.66289 9.37847 6.74645 9.45012 6.85367C9.52176 6.96089 9.56001 7.08696 9.56001 7.21591C9.56001 7.38883 9.4913 7.55467 9.36903 7.67694C9.24676 7.79921 9.08092 7.8679 8.908 7.8679Z" fill="white"/>
<path d="M8.24399 2.14648H5.15399V2.76448H8.24399V2.14648Z" fill="white"/>
<path d="M10.716 3.38281H2.68298V4.00081H10.716V3.38281Z" fill="white"/>
<path d="M5.77299 7.08984H3.30099V7.70784H5.77299V7.08984Z" fill="white"/>
</svg>
