<svg width="21" height="22" viewBox="0 0 21 22" fill="none" xmlns="http://www.w3.org/2000/svg">
<path d="M18.3691 21.686C17.919 21.6848 17.4853 21.5166 17.1521 21.214L15.0711 19.383C14.9816 19.3129 14.9073 19.2254 14.8528 19.1257C14.7984 19.026 14.7648 18.9162 14.7543 18.803C14.7437 18.6899 14.7563 18.5758 14.7914 18.4677C14.8264 18.3597 14.8832 18.2599 14.9581 18.1745C15.0331 18.0891 15.1247 18.0199 15.2274 17.9711C15.33 17.9224 15.4415 17.8951 15.5551 17.8909C15.6686 17.8868 15.7818 17.9058 15.8877 17.9469C15.9936 17.988 16.0901 18.0503 16.1711 18.13L18.2551 19.964L18.2621 19.97C18.2861 19.9913 18.3158 20.0053 18.3475 20.0102C18.3793 20.0151 18.4118 20.0108 18.4411 19.9977C18.4704 19.9846 18.4954 19.9633 18.5129 19.9364C18.5305 19.9095 18.54 19.8781 18.5401 19.846V5.32095C18.539 4.43599 18.187 3.58759 17.5612 2.96182C16.9355 2.33606 16.0871 1.98403 15.2021 1.98297H5.93909C5.05412 1.98403 4.20572 2.33606 3.57996 2.96182C2.95419 3.58759 2.60213 4.43599 2.60107 5.32095V14.584C2.60213 15.4689 2.95419 16.3173 3.57996 16.9431C4.20572 17.5689 5.05412 17.9209 5.93909 17.922H12.3651C12.5814 17.9295 12.7864 18.0206 12.9368 18.1763C13.0872 18.332 13.1712 18.54 13.1712 18.7565C13.1712 18.9729 13.0872 19.1809 12.9368 19.3366C12.7864 19.4923 12.5814 19.5835 12.3651 19.591H5.93909C4.61215 19.5889 3.34017 19.0607 2.40198 18.1223C1.46379 17.184 0.935933 15.9119 0.934082 14.585V5.32196C0.935405 3.99434 1.4633 2.72146 2.40198 1.78259C3.34066 0.843726 4.61348 0.315553 5.9411 0.313965H15.2041C16.5316 0.315553 17.8041 0.843576 18.7428 1.78223C19.6814 2.72088 20.2095 3.9935 20.2111 5.32095V19.847C20.2138 20.2024 20.1121 20.5509 19.9185 20.8491C19.7249 21.1472 19.4479 21.3819 19.1221 21.524C18.8849 21.6303 18.628 21.6855 18.3681 21.686H18.3691ZM14.5261 11.335C14.4336 11.2761 14.3305 11.236 14.2226 11.217C14.1147 11.198 14.004 11.2004 13.897 11.2242C13.79 11.248 13.6888 11.2926 13.5991 11.3555C13.5093 11.4185 13.4329 11.4985 13.3741 11.591C13.0828 12.0795 12.6696 12.4841 12.175 12.765C11.6805 13.0459 11.1214 13.1936 10.5526 13.1936C9.98381 13.1936 9.4247 13.0459 8.93011 12.765C8.43553 12.4841 8.02238 12.0795 7.73108 11.591C7.61173 11.4043 7.42308 11.2726 7.20667 11.225C6.99025 11.1773 6.7638 11.2176 6.57709 11.337C6.39038 11.4563 6.25869 11.6449 6.21106 11.8614C6.16343 12.0778 6.20371 12.3043 6.32306 12.491C6.79915 13.1903 7.4307 13.7699 8.16821 14.1844C8.90572 14.5988 9.7292 14.8369 10.5741 14.88C11.4138 14.8394 12.2321 14.602 12.9633 14.187C13.6944 13.7721 14.3177 13.1911 14.7831 12.491C14.842 12.3985 14.8821 12.2954 14.9011 12.1875C14.9201 12.0795 14.9176 11.9689 14.8939 11.8619C14.8701 11.7549 14.8254 11.6537 14.7625 11.5639C14.6996 11.4742 14.6196 11.3977 14.5271 11.339L14.5261 11.335ZM13.8261 9.15997C13.6049 9.15997 13.3927 9.07209 13.2363 8.91568C13.0799 8.75927 12.9921 8.54715 12.9921 8.32596V6.03098C12.9996 5.81465 13.0908 5.60967 13.2465 5.45929C13.4021 5.30891 13.6101 5.22485 13.8266 5.22485C14.0431 5.22485 14.2511 5.30891 14.4067 5.45929C14.5624 5.60967 14.6536 5.81465 14.6611 6.03098V8.32596C14.6608 8.54724 14.5727 8.75936 14.4161 8.91574C14.2596 9.07212 14.0474 9.15997 13.8261 9.15997ZM8.19305 8.32596V6.03098C8.18556 5.81465 8.0944 5.60967 7.93872 5.45929C7.78304 5.30891 7.57503 5.22485 7.35858 5.22485C7.14213 5.22485 6.93412 5.30891 6.77844 5.45929C6.62276 5.60967 6.5316 5.81465 6.52411 6.03098V8.32596C6.5316 8.54228 6.62276 8.74726 6.77844 8.89764C6.93412 9.04803 7.14213 9.13208 7.35858 9.13208C7.57503 9.13208 7.78304 9.04803 7.93872 8.89764C8.0944 8.74726 8.18556 8.54228 8.19305 8.32596Z" fill="#5F2788"/>
</svg>
