<svg width="153" height="135" viewBox="0 0 153 135" fill="none" xmlns="http://www.w3.org/2000/svg">
<path d="M104.298 11.604C102.188 10.698 100.046 9.84802 97.8922 9.00902C88.7222 5.46502 79.2922 2.35503 69.5072 1.04803C50.6862 -1.44397 31.7632 3.59903 20.5932 19.904C17.1583 24.9772 14.7775 30.6888 13.5922 36.6998C12.4069 42.7108 12.4413 48.8986 13.6932 54.896C18.4532 77.079 39.2032 89.246 59.2052 95.896C71.7652 100.07 84.6052 103.771 97.8512 100.526C113.36 96.726 126.57 84.69 132.626 69.988C138.351 56.088 137.497 39.67 127.838 27.767C122.174 20.805 112.46 15.112 104.298 11.604Z" fill="#407BFF"/>
<path opacity="0.8" d="M104.298 11.604C102.188 10.698 100.046 9.84802 97.8922 9.00902C88.7222 5.46502 79.2922 2.35503 69.5072 1.04803C50.6862 -1.44397 31.7632 3.59903 20.5932 19.904C17.1583 24.9772 14.7775 30.6888 13.5922 36.6998C12.4069 42.7108 12.4413 48.8986 13.6932 54.896C18.4532 77.079 39.2032 89.246 59.2052 95.896C71.7652 100.07 84.6052 103.771 97.8512 100.526C113.36 96.726 126.57 84.69 132.626 69.988C138.351 56.088 137.497 39.67 127.838 27.767C122.174 20.805 112.46 15.112 104.298 11.604Z" fill="white"/>
<path d="M76.5002 134.615C118.663 134.615 152.842 132.62 152.842 130.158C152.842 127.697 118.663 125.701 76.5002 125.701C34.3377 125.701 0.158203 127.697 0.158203 130.158C0.158203 132.62 34.3377 134.615 76.5002 134.615Z" fill="#F5F5F5"/>
<path d="M90.1742 10.147H62.5902C54.5158 10.147 47.9702 16.6926 47.9702 24.767V115.535C47.9702 123.609 54.5158 130.155 62.5902 130.155H90.1742C98.2486 130.155 104.794 123.609 104.794 115.535V24.767C104.794 16.6926 98.2486 10.147 90.1742 10.147Z" fill="#407BFF"/>
<path opacity="0.7" d="M90.1742 10.147H62.5902C54.5158 10.147 47.9702 16.6926 47.9702 24.767V115.535C47.9702 123.609 54.5158 130.155 62.5902 130.155H90.1742C98.2486 130.155 104.794 123.609 104.794 115.535V24.767C104.794 16.6926 98.2486 10.147 90.1742 10.147Z" fill="white"/>
<path d="M91.6942 9.94202H64.1102C56.0358 9.94202 49.4902 16.4876 49.4902 24.562V115.33C49.4902 123.404 56.0358 129.95 64.1102 129.95H91.6942C99.7686 129.95 106.314 123.404 106.314 115.33V24.562C106.314 16.4876 99.7686 9.94202 91.6942 9.94202Z" fill="#407BFF"/>
<path opacity="0.2" d="M91.6942 9.94202H64.1102C56.0358 9.94202 49.4902 16.4876 49.4902 24.562V115.33C49.4902 123.404 56.0358 129.95 64.1102 129.95H91.6942C99.7686 129.95 106.314 123.404 106.314 115.33V24.562C106.314 16.4876 99.7686 9.94202 91.6942 9.94202Z" fill="black"/>
<path d="M80.1221 124.662C80.1229 125.169 79.9731 125.665 79.6918 126.087C79.4105 126.51 79.0103 126.839 78.5418 127.033C78.0733 127.228 77.5576 127.279 77.0601 127.18C76.5625 127.081 76.1055 126.837 75.7468 126.478C75.3881 126.12 75.1439 125.663 75.0451 125.165C74.9464 124.668 74.9975 124.152 75.192 123.683C75.3864 123.215 75.7156 122.815 76.1377 122.533C76.5598 122.252 77.0558 122.102 77.5631 122.103C78.2415 122.104 78.8917 122.374 79.3714 122.854C79.8511 123.333 80.121 123.984 80.1221 124.662Z" fill="#407BFF"/>
<path opacity="0.4" d="M80.1221 124.662C80.1229 125.169 79.9731 125.665 79.6918 126.087C79.4105 126.51 79.0103 126.839 78.5418 127.033C78.0733 127.228 77.5576 127.279 77.0601 127.18C76.5625 127.081 76.1055 126.837 75.7468 126.478C75.3881 126.12 75.1439 125.663 75.0451 125.165C74.9464 124.668 74.9975 124.152 75.192 123.683C75.3864 123.215 75.7156 122.815 76.1377 122.533C76.5598 122.252 77.0558 122.102 77.5631 122.103C78.2415 122.104 78.8917 122.374 79.3714 122.854C79.8511 123.333 80.121 123.984 80.1221 124.662Z" fill="black"/>
<path d="M105.856 120.909H49.3164V17.781H106.251L105.856 120.909Z" fill="#407BFF"/>
<path opacity="0.8" d="M106.357 120.854L49.2852 120.921V17.789L106.305 17.73L106.357 120.854Z" fill="white"/>
<path opacity="0.33" d="M45.0131 19.51H44.6191V24.715H45.0131V19.51Z" fill="#407BFF"/>
<path opacity="0.33" d="M45.0131 26.16H44.6191V27.79H45.0131V26.16Z" fill="#407BFF"/>
<path d="M87.9952 22.0491H60.8272C55.3375 22.0491 50.8872 26.4994 50.8872 31.9891V43.3481C50.8872 48.8378 55.3375 53.2881 60.8272 53.2881H87.9952C93.4849 53.2881 97.9352 48.8378 97.9352 43.3481V31.9891C97.9352 26.4994 93.4849 22.0491 87.9952 22.0491Z" fill="white"/>
<path opacity="0.27" d="M60.1095 34.0751C62.7649 32.9646 64.0172 29.9119 62.9068 27.2565C61.7963 24.6012 58.7435 23.3488 56.0882 24.4593C53.4328 25.5698 52.1805 28.6225 53.2909 31.2779C54.4014 33.9332 57.4542 35.1856 60.1095 34.0751Z" fill="#407BFF"/>
<path d="M62.3964 29.2661C62.3995 29.9815 62.2206 30.6859 61.8764 31.3131C61.3767 32.2346 60.5576 32.9418 59.573 33.3018C58.5885 33.6618 57.5064 33.6497 56.5301 33.2679C55.5538 32.886 54.7507 32.1607 54.2716 31.2283C53.7926 30.2959 53.6707 29.2206 53.9288 28.2046C54.1869 27.1886 54.8072 26.3018 55.6732 25.7111C56.5392 25.1203 57.5911 24.8663 58.6312 24.9967C59.6714 25.1271 60.6281 25.6329 61.3214 26.4191C62.0148 27.2053 62.3971 28.2178 62.3964 29.2661Z" fill="white"/>
<path opacity="0.27" d="M61.8774 31.31C61.5083 31.9906 60.9622 32.559 60.2969 32.9551C59.6316 33.3511 58.8717 33.5602 58.0974 33.5602C57.3231 33.5602 56.5632 33.3511 55.8978 32.9551C55.2325 32.559 54.6865 31.9906 54.3174 31.31C55.4365 30.5629 56.7518 30.1642 58.0974 30.1642C59.4429 30.1642 60.7583 30.5629 61.8774 31.31Z" fill="#407BFF"/>
<path opacity="0.27" d="M58.0971 29.7051C59.1542 29.7051 60.0111 28.8481 60.0111 27.7911C60.0111 26.734 59.1542 25.8771 58.0971 25.8771C57.04 25.8771 56.1831 26.734 56.1831 27.7911C56.1831 28.8481 57.04 29.7051 58.0971 29.7051Z" fill="#407BFF"/>
<path d="M92.4682 56.175H56.3542C53.3349 56.175 50.8872 58.6227 50.8872 61.642C50.8872 64.6614 53.3349 67.109 56.3542 67.109H92.4682C95.4875 67.109 97.9352 64.6614 97.9352 61.642C97.9352 58.6227 95.4875 56.175 92.4682 56.175Z" fill="white"/>
<path opacity="0.6" d="M105.928 68.1681L111.492 83.5001C111.635 83.9011 111.614 84.3426 111.434 84.7283C111.253 85.114 110.927 85.4126 110.527 85.559L81.339 96.1471C80.9384 96.2907 80.4973 96.2702 80.1117 96.0903C79.7261 95.9103 79.4272 95.5853 79.28 95.1861L73.716 79.8501C73.5719 79.4496 73.5926 79.0082 73.7735 78.623C73.9544 78.2377 74.2808 77.94 74.681 77.795L103.873 67.1991C104.274 67.0571 104.715 67.0792 105.1 67.2607C105.485 67.4422 105.782 67.7683 105.928 68.1681Z" fill="#407BFF"/>
<path d="M105.053 67.239L96.7102 80.969C95.9375 82.2427 94.7527 83.214 93.3522 83.7218C91.9517 84.2296 90.4196 84.2435 89.0102 83.761L73.8042 78.572C73.9873 78.2067 74.3027 77.9249 74.6862 77.784L103.874 67.192C104.259 67.0583 104.68 67.0751 105.053 67.239Z" fill="#407BFF"/>
<path opacity="0.5" d="M105.053 67.239L96.7102 80.969C95.9375 82.2427 94.7527 83.214 93.3522 83.7218C91.9517 84.2296 90.4196 84.2435 89.0102 83.761L73.8042 78.572C73.9873 78.2067 74.3027 77.9249 74.6862 77.784L103.874 67.192C104.259 67.0583 104.68 67.0751 105.053 67.239Z" fill="white"/>
<path opacity="0.6" d="M96.778 94.521L96.51 108.333C96.5018 108.693 96.3516 109.036 96.092 109.286C95.8323 109.536 95.4844 109.673 95.124 109.668L68.824 109.156C68.6455 109.152 68.4696 109.114 68.3061 109.042C68.1426 108.971 67.9948 108.868 67.8712 108.739C67.7476 108.61 67.6505 108.458 67.5857 108.292C67.5208 108.126 67.4893 107.948 67.493 107.77L67.757 93.958C67.7618 93.7713 67.8044 93.5874 67.8823 93.4176C67.9601 93.2478 68.0716 93.0955 68.21 92.97C68.4662 92.7411 68.7995 92.6176 69.143 92.624L95.443 93.132C95.804 93.1402 96.1472 93.291 96.3974 93.5515C96.6476 93.8119 96.7844 94.1609 96.778 94.522V94.521Z" fill="#407BFF"/>
<path d="M96.3654 93.514L85.5924 101.83C84.5933 102.6 83.3613 103.007 82.0999 102.983C80.8384 102.958 79.623 102.504 78.6544 101.696L68.2324 92.97C68.4887 92.7411 68.8219 92.6176 69.1654 92.624L95.4654 93.132C95.8024 93.1436 96.123 93.2797 96.3654 93.514Z" fill="#407BFF"/>
<path opacity="0.5" d="M96.3654 93.514L85.5924 101.83C84.5933 102.6 83.3613 103.007 82.0999 102.983C80.8384 102.958 79.623 102.504 78.6544 101.696L68.2324 92.97C68.4887 92.7411 68.8219 92.6176 69.1654 92.624L95.4654 93.132C95.8024 93.1436 96.123 93.2797 96.3654 93.514Z" fill="white"/>
<path d="M70.251 13.191C70.2518 12.9815 70.3253 12.7787 70.4588 12.6172C70.5924 12.4558 70.7778 12.3456 70.9834 12.3055C71.1891 12.2653 71.4023 12.2977 71.5867 12.3971C71.7712 12.4965 71.9155 12.6568 71.9951 12.8506C72.0747 13.0444 72.0846 13.2598 72.0232 13.4602C71.9618 13.6605 71.8329 13.8334 71.6583 13.9493C71.4838 14.0653 71.2745 14.1172 71.066 14.0961C70.8576 14.0751 70.6628 13.9825 70.515 13.834C70.4308 13.7495 70.3642 13.6491 70.3189 13.5388C70.2736 13.4285 70.2505 13.3103 70.251 13.191Z" fill="#407BFF"/>
<path d="M74.2883 12.285H81.8123C82.0523 12.2861 82.2821 12.3819 82.4518 12.5516C82.6215 12.7212 82.7173 12.9511 82.7183 13.191C82.7183 13.4317 82.623 13.6625 82.4532 13.8331C82.2834 14.0036 82.053 14.1 81.8123 14.101H74.2883C74.0477 14.1 73.8172 14.0036 73.6474 13.8331C73.4777 13.6625 73.3823 13.4317 73.3823 13.191C73.3834 12.9511 73.4792 12.7212 73.6488 12.5516C73.8185 12.3819 74.0484 12.2861 74.2883 12.285Z" fill="#407BFF"/>
<path opacity="0.4" d="M70.251 13.191C70.2518 12.9815 70.3253 12.7787 70.4588 12.6172C70.5924 12.4558 70.7778 12.3456 70.9834 12.3055C71.1891 12.2653 71.4023 12.2977 71.5867 12.3971C71.7712 12.4965 71.9155 12.6568 71.9951 12.8506C72.0747 13.0444 72.0846 13.2598 72.0232 13.4602C71.9618 13.6605 71.8329 13.8334 71.6583 13.9493C71.4838 14.0653 71.2745 14.1172 71.066 14.0961C70.8576 14.0751 70.6628 13.9825 70.515 13.834C70.4308 13.7495 70.3642 13.6491 70.3189 13.5388C70.2736 13.4285 70.2505 13.3103 70.251 13.191Z" fill="black"/>
<path opacity="0.4" d="M74.2883 12.285H81.8123C82.0523 12.2861 82.2821 12.3819 82.4518 12.5516C82.6215 12.7212 82.7173 12.9511 82.7183 13.191C82.7183 13.4317 82.623 13.6625 82.4532 13.8331C82.2834 14.0036 82.053 14.1 81.8123 14.101H74.2883C74.0477 14.1 73.8172 14.0036 73.6474 13.8331C73.4777 13.6625 73.3823 13.4317 73.3823 13.191C73.3834 12.9511 73.4792 12.7212 73.6488 12.5516C73.8185 12.3819 74.0484 12.2861 74.2883 12.285Z" fill="black"/>
<path d="M107.972 33.986C107.972 32.0779 106.425 30.531 104.517 30.531C102.609 30.531 101.062 32.0779 101.062 33.986V41.664C101.062 43.5722 102.609 45.119 104.517 45.119C106.425 45.119 107.972 43.5722 107.972 41.664V33.986Z" fill="#407BFF"/>
<path opacity="0.8" d="M107.972 33.986C107.972 32.0779 106.425 30.531 104.517 30.531C102.609 30.531 101.062 32.0779 101.062 33.986V41.664C101.062 43.5722 102.609 45.119 104.517 45.119C106.425 45.119 107.972 43.5722 107.972 41.664V33.986Z" fill="white"/>
<path d="M104.962 49.328H104.072C102.41 49.328 101.062 50.6756 101.062 52.338V54.547C101.062 56.2094 102.41 57.557 104.072 57.557H104.962C106.624 57.557 107.972 56.2094 107.972 54.547V52.338C107.972 50.6756 106.624 49.328 104.962 49.328Z" fill="#407BFF"/>
<path opacity="0.8" d="M104.962 49.328H104.072C102.41 49.328 101.062 50.6756 101.062 52.338V54.547C101.062 56.2094 102.41 57.557 104.072 57.557H104.962C106.624 57.557 107.972 56.2094 107.972 54.547V52.338C107.972 50.6756 106.624 49.328 104.962 49.328Z" fill="white"/>
<path d="M56.4121 118.027L59.3061 118.307L62.3181 111.42L59.4241 111.136L56.4121 118.027Z" fill="#E4897B"/>
<path d="M27.0352 96.931L28.6852 99.431L35.0082 96.411L33.3541 93.911L27.0352 96.931Z" fill="#E4897B"/>
<path d="M62.3181 111.421L60.7671 114.973H57.7471L59.4201 111.138L62.3181 111.421Z" fill="#CE6F64"/>
<path d="M33.3542 93.915L35.0042 96.415L31.7482 97.97L30.0942 95.47L33.3542 93.915Z" fill="#CE6F64"/>
<path d="M88.9551 47.544L89.0501 47.757L89.1721 48.005C89.2511 48.17 89.3411 48.34 89.4321 48.505C89.6171 48.84 89.8261 49.178 90.0231 49.505C90.4376 50.1667 90.8938 50.8013 91.3891 51.405C91.893 52.0018 92.4306 52.5694 92.9991 53.105C93.2991 53.365 93.5821 53.633 93.8891 53.892L94.3501 54.254L94.4561 54.341C94.4059 54.3255 94.3544 54.3152 94.3021 54.31C94.1879 54.2981 94.0726 54.3157 93.9671 54.361C93.903 54.3796 93.8457 54.4165 93.8021 54.467C93.7741 54.506 93.8451 54.443 93.9021 54.341C94.0579 54.0537 94.1807 53.7498 94.2681 53.435C94.4843 52.6703 94.654 51.8932 94.7761 51.108C94.9101 50.297 95.0201 49.466 95.1071 48.635C95.1941 47.804 95.2841 46.958 95.3631 46.135L96.8831 46.111C96.9771 46.989 97.0171 47.843 97.0521 48.718C97.0871 49.593 97.0721 50.458 97.0521 51.344C97.0174 52.2549 96.9135 53.1618 96.7411 54.057C96.6418 54.5739 96.4821 55.0774 96.2651 55.557C96.1081 55.8957 95.892 56.2039 95.6271 56.467C95.422 56.66 95.1812 56.8112 94.9181 56.912C94.6116 57.0267 94.2823 57.0671 93.9571 57.03C93.6934 56.9954 93.4377 56.9155 93.2011 56.794C93.1064 56.7462 93.0142 56.6935 92.9251 56.636L92.7751 56.536L92.2001 56.142C91.8061 55.882 91.4601 55.595 91.1001 55.307C90.3919 54.7155 89.7275 54.0735 89.1121 53.386C88.5015 52.6924 87.9398 51.9573 87.4311 51.186C87.1791 50.792 86.9471 50.399 86.7221 50.005C86.6121 49.796 86.5051 49.592 86.4031 49.375L86.2531 49.04C86.2021 48.922 86.1621 48.827 86.0991 48.666L88.9551 47.544Z" fill="#E4897B"/>
<path d="M90.2852 49.58L87.6392 53.23L88.7342 54.305L91.5492 50.919L90.2852 49.58Z" fill="#F5F5F5"/>
<path d="M86.1354 44.765C89.1164 45.553 91.1714 49.734 91.1714 49.734L87.7304 54.557C87.7304 54.557 83.5884 49.348 83.6944 47.702C83.7964 45.978 84.3404 44.281 86.1354 44.765Z" fill="#407BFF"/>
<path opacity="0.7" d="M86.1354 44.765C89.1164 45.553 91.1714 49.734 91.1714 49.734L87.7304 54.557C87.7304 54.557 83.5884 49.348 83.6944 47.702C83.7964 45.978 84.3404 44.281 86.1354 44.765Z" fill="white"/>
<path d="M88.7063 46.302C88.7063 46.302 89.6864 47.46 78.3394 61.193L67.8394 55.043C70.5164 50.873 72.0643 48.243 75.1553 38.27C76.806 38.8254 78.414 39.5006 79.9664 40.29C81.6138 41.1201 83.2076 42.0526 84.7383 43.082C86.6753 44.469 88.7063 46.302 88.7063 46.302Z" fill="#407BFF"/>
<path opacity="0.7" d="M88.7063 46.302C88.7063 46.302 89.6864 47.46 78.3394 61.193L67.8394 55.043C70.5164 50.873 72.0643 48.243 75.1553 38.27C76.806 38.8254 78.414 39.5006 79.9664 40.29C81.6138 41.1201 83.2076 42.0526 84.7383 43.082C86.6753 44.469 88.7063 46.302 88.7063 46.302Z" fill="white"/>
<path d="M87.3443 45.119C86.6043 44.505 85.6553 43.745 84.7373 43.083C83.2147 42.0405 81.6201 41.1075 79.9653 40.291C79.0363 39.807 78.0833 39.381 77.2723 39.059C77.1423 39.276 77.2483 39.937 77.6463 40.906C79.1583 42.855 82.6703 45.725 85.6003 46.296C86.9623 46.099 87.3873 45.666 87.3443 45.119Z" fill="#F5F5F5"/>
<path d="M77.646 40.906C78.5286 42.8715 79.7036 44.6921 81.131 46.306C82.617 46.4544 84.114 46.4544 85.6 46.306C82.67 45.725 79.158 42.855 77.646 40.906Z" fill="#F5F5F5"/>
<path d="M78.3514 61.1951C78.3514 61.1951 78.5204 88.1741 73.7364 95.9621C68.7594 104.062 62.2704 113.94 62.2704 113.94L56.6514 113.668C56.6514 113.668 63.2034 99.0521 65.6764 92.2681C69.0824 82.9171 70.6574 56.6901 70.6574 56.6901L78.3514 61.1951Z" fill="#407BFF"/>
<path opacity="0.4" d="M78.3514 61.1951C78.3514 61.1951 78.5204 88.1741 73.7364 95.9621C68.7594 104.062 62.2704 113.94 62.2704 113.94L56.6514 113.668C56.6514 113.668 63.2034 99.0521 65.6764 92.2681C69.0824 82.9171 70.6574 56.6901 70.6574 56.6901L78.3514 61.1951Z" fill="black"/>
<path opacity="0.2" d="M72.3741 61.947C71.4641 62.7197 70.6815 63.6308 70.0551 64.647C69.8781 66.655 69.6611 68.911 69.4131 71.274C71.2903 68.5212 72.3198 65.2786 72.3741 61.947Z" fill="black"/>
<path d="M75.578 59.584C75.578 59.584 63.688 76.46 56.278 85.571C50.293 92.914 32.969 98.171 32.969 98.171L30.855 94.627C30.855 94.627 44.636 86.933 48.746 81.964C61.905 66.057 61.739 57.808 67.846 55.087L75.578 59.584Z" fill="#407BFF"/>
<path opacity="0.4" d="M75.578 59.584C75.578 59.584 63.688 76.46 56.278 85.571C50.293 92.914 32.969 98.171 32.969 98.171L30.855 94.627C30.855 94.627 44.636 86.933 48.746 81.964C61.905 66.057 61.739 57.808 67.846 55.087L75.578 59.584Z" fill="black"/>
<path d="M95.4003 46.5009L94.6123 43.351L97.6123 44.2249C97.6123 44.2249 97.5293 46.343 96.4903 47.032L95.4003 46.5009Z" fill="#E4897B"/>
<path d="M95.5694 40.823L97.6794 41.89L97.6284 44.241L94.6284 43.367L95.5694 40.823Z" fill="#E4897B"/>
<path d="M57.8292 41.9811L55.0732 40.2881L57.8292 38.8151C57.8292 38.8151 59.2422 40.3901 58.9832 41.6151L57.8292 41.9811Z" fill="#E4897B"/>
<path d="M53.9824 37.804L56.2384 37.095L57.8444 38.816L55.0764 40.289L53.9824 37.804Z" fill="#E4897B"/>
<path d="M29.3752 99.1709L28.3952 95.9499C28.3779 95.8948 28.3412 95.8477 28.292 95.8174C28.2428 95.7871 28.1842 95.7755 28.1272 95.7849L25.4692 96.1789C25.4026 96.1914 25.3395 96.2178 25.2839 96.2564C25.2283 96.295 25.1815 96.345 25.1465 96.403C25.1116 96.461 25.0893 96.5257 25.0811 96.5929C25.073 96.6601 25.0791 96.7283 25.0992 96.7929C25.4612 97.9069 25.6902 98.4309 26.1232 99.8449C26.3872 100.719 26.8472 102.684 27.2142 103.889C27.5812 105.094 28.7892 104.795 28.7462 104.259C28.5318 102.71 28.7391 101.133 29.3462 99.6919C29.4148 99.5266 29.425 99.3429 29.3752 99.1709Z" fill="#263238"/>
<path d="M59.6924 117.413H56.1484C56.0844 117.413 56.0222 117.435 55.9716 117.474C55.921 117.513 55.8847 117.568 55.8684 117.63L55.0804 120.445C55.0611 120.511 55.0578 120.581 55.0707 120.649C55.0835 120.717 55.1123 120.78 55.1545 120.835C55.1967 120.889 55.2513 120.933 55.3137 120.962C55.376 120.992 55.4445 121.006 55.5134 121.004C56.7574 120.984 57.3644 120.913 58.9274 120.913C59.8884 120.913 62.3764 121.013 63.7034 121.013C65.0304 121.013 65.2784 119.698 64.7394 119.58C63.0794 119.33 61.5132 118.651 60.1954 117.611C60.0589 117.484 59.8791 117.413 59.6924 117.413Z" fill="#263238"/>
<path d="M68.0471 54.336L67.0231 55.001C66.9441 55.052 66.9881 55.178 67.1101 55.249L78.1351 61.694C78.2301 61.749 78.3351 61.749 78.3751 61.694L79.0211 60.808C79.0641 60.745 79.0211 60.643 78.9111 60.584L68.2801 54.359C68.2474 54.3336 68.2081 54.318 68.1669 54.3139C68.1257 54.3099 68.0842 54.3175 68.0471 54.336Z" fill="#263238"/>
<path d="M74.2914 42.788C73.5474 43.383 72.8384 43.863 72.0914 44.363C71.3444 44.863 70.5754 45.292 69.7914 45.717C68.2112 46.5822 66.5478 47.2858 64.8264 47.817C64.6134 47.892 64.3854 47.943 64.1684 48.002C63.9514 48.061 63.7434 48.12 63.4834 48.175C62.9188 48.3018 62.3368 48.3312 61.7624 48.262C61.1532 48.1891 60.5673 47.9844 60.0454 47.662C59.5601 47.3551 59.1346 46.9627 58.7894 46.504C58.2073 45.693 57.79 44.7757 57.5614 43.804C57.4448 43.3553 57.3605 42.8988 57.3094 42.438C57.2467 41.9787 57.2163 41.5155 57.2184 41.052L58.7304 40.922C58.9126 41.6905 59.1588 42.4425 59.4664 43.17C59.7345 43.8353 60.123 44.4455 60.6124 44.97C60.788 45.1681 61.0022 45.3283 61.2419 45.4408C61.4816 45.5532 61.7417 45.6156 62.0064 45.624C62.2843 45.6218 62.5604 45.578 62.8254 45.494C63.1684 45.384 63.5694 45.258 63.9354 45.124C65.4507 44.5542 66.9163 43.8601 68.3174 43.049C69.0344 42.655 69.7174 42.202 70.4124 41.765C71.1074 41.328 71.7864 40.836 72.3814 40.387L74.2914 42.788Z" fill="#E4897B"/>
<path d="M69.4214 41.756L70.7834 45.874L72.0634 45.106L70.8634 41.0229L69.4214 41.756Z" fill="#F5F5F5"/>
<path d="M29.6814 100.86C29.6151 100.859 29.5501 100.842 29.4924 100.809C29.1654 100.609 29.0754 99.9149 29.0474 99.5169C29.0472 99.5033 29.0507 99.4898 29.0576 99.478C29.0644 99.4662 29.0744 99.4565 29.0864 99.45C29.0985 99.4434 29.1121 99.4399 29.1259 99.4399C29.1397 99.4399 29.1533 99.4434 29.1654 99.45C29.2604 99.529 30.0864 100.237 30.0354 100.608C30.03 100.651 30.0132 100.691 29.9868 100.725C29.9604 100.759 29.9254 100.785 29.8854 100.801C29.8231 100.837 29.7531 100.857 29.6814 100.86ZM29.2054 99.679C29.2564 100.211 29.3864 100.579 29.5634 100.687C29.6041 100.708 29.6494 100.719 29.6954 100.719C29.7414 100.719 29.7867 100.708 29.8274 100.687C29.8824 100.659 29.8944 100.628 29.8944 100.6C29.9214 100.4 29.5274 99.97 29.2044 99.679H29.2054Z" fill="#407BFF"/>
<path d="M30.1772 100.006C29.7731 99.9713 29.3882 99.8179 29.0712 99.565C29.0649 99.555 29.0615 99.5433 29.0615 99.5315C29.0615 99.5196 29.0649 99.508 29.0712 99.498C29.074 99.4862 29.0798 99.4753 29.088 99.4664C29.0962 99.4574 29.1066 99.4508 29.1182 99.447C29.1532 99.447 29.9802 99.187 30.3502 99.416C30.397 99.4436 30.4371 99.4813 30.4677 99.5262C30.4983 99.5712 30.5186 99.6223 30.5272 99.676C30.5431 99.7301 30.5401 99.7881 30.5186 99.8402C30.4971 99.8924 30.4585 99.9357 30.4092 99.963C30.3365 99.996 30.2569 100.011 30.1772 100.006ZM29.2712 99.545C29.5712 99.754 30.1372 99.939 30.3222 99.836C30.3502 99.836 30.3852 99.789 30.3692 99.698C30.3634 99.6643 30.3502 99.6324 30.3305 99.6045C30.3107 99.5766 30.285 99.5536 30.2552 99.537C29.9343 99.4374 29.5904 99.4402 29.2712 99.545Z" fill="#407BFF"/>
<path d="M61.2673 117.996C60.9395 117.99 60.6134 117.949 60.2943 117.874C60.2799 117.87 60.267 117.862 60.2572 117.851C60.2474 117.84 60.2411 117.826 60.2393 117.811C60.2391 117.796 60.2431 117.782 60.2507 117.769C60.2583 117.757 60.2692 117.747 60.2823 117.74C60.5183 117.626 61.7313 117.079 62.0543 117.295C62.0858 117.317 62.1106 117.347 62.1259 117.383C62.1413 117.418 62.1466 117.457 62.1413 117.495C62.1397 117.561 62.1229 117.626 62.0922 117.685C62.0615 117.744 62.0178 117.795 61.9643 117.834C61.7543 117.959 61.5108 118.015 61.2673 117.996ZM60.5433 117.78C60.9833 117.904 61.4518 117.882 61.8783 117.717C61.9161 117.69 61.9469 117.655 61.9681 117.614C61.9893 117.573 62.0004 117.527 62.0003 117.481C62.0025 117.469 62.0015 117.456 61.9973 117.444C61.9931 117.433 61.9858 117.422 61.9763 117.414C61.7983 117.296 61.0703 117.551 60.5393 117.783L60.5433 117.78Z" fill="#407BFF"/>
<path d="M60.3103 117.878C60.2964 117.883 60.2811 117.883 60.2673 117.878C60.2562 117.87 60.2479 117.859 60.2435 117.846C60.2392 117.834 60.2391 117.82 60.2433 117.807C60.2433 117.752 60.5503 116.464 61.2593 116.555C61.4443 116.575 61.4913 116.669 61.5033 116.74C61.5503 117.079 60.7393 117.724 60.3223 117.89L60.3103 117.878ZM61.1963 116.678C60.7713 116.678 60.5153 117.367 60.4093 117.678C60.8033 117.454 61.3783 116.942 61.3503 116.745C61.3503 116.713 61.3073 116.69 61.2323 116.682L61.1963 116.678Z" fill="#407BFF"/>
<path d="M68.7794 56.364L68.4963 56.199C68.4413 56.164 68.4134 56.108 68.4374 56.077L69.2873 54.931C69.3113 54.9 69.3784 54.9 69.4334 54.931L69.7203 55.1C69.7753 55.132 69.8034 55.187 69.7794 55.218L68.9293 56.364C68.9053 56.395 68.8394 56.395 68.7794 56.364Z" fill="#407BFF"/>
<path d="M77.2652 61.3289L76.9812 61.16C76.9262 61.129 76.8982 61.0729 76.9222 61.0419L77.7722 59.8959C77.7962 59.8639 77.8632 59.8639 77.9182 59.8959L78.2052 60.061C78.2602 60.096 78.2882 60.152 78.2602 60.183L77.4132 61.3289C77.3902 61.3599 77.3242 61.3599 77.2652 61.3289Z" fill="#407BFF"/>
<path d="M73.0244 58.844L72.7374 58.679C72.6824 58.648 72.6544 58.592 72.6824 58.557L73.5294 57.415C73.5574 57.38 73.6204 57.38 73.6794 57.415L73.9624 57.58C74.0214 57.611 74.0454 57.667 74.0214 57.702L73.1714 58.844C73.1464 58.88 73.0794 58.88 73.0244 58.844Z" fill="#407BFF"/>
<path opacity="0.4" d="M68.7794 56.364L68.4963 56.199C68.4413 56.164 68.4134 56.108 68.4374 56.077L69.2873 54.931C69.3113 54.9 69.3784 54.9 69.4334 54.931L69.7203 55.1C69.7753 55.132 69.8034 55.187 69.7794 55.218L68.9293 56.364C68.9053 56.395 68.8394 56.395 68.7794 56.364Z" fill="black"/>
<path opacity="0.4" d="M77.2652 61.3289L76.9812 61.16C76.9262 61.129 76.8982 61.0729 76.9222 61.0419L77.7722 59.8959C77.7962 59.8639 77.8632 59.8639 77.9182 59.8959L78.2052 60.061C78.2602 60.096 78.2882 60.152 78.2602 60.183L77.4132 61.3289C77.3902 61.3599 77.3242 61.3599 77.2652 61.3289Z" fill="black"/>
<path opacity="0.4" d="M73.0244 58.844L72.7374 58.679C72.6824 58.648 72.6544 58.592 72.6824 58.557L73.5294 57.415C73.5574 57.38 73.6204 57.38 73.6794 57.415L73.9624 57.58C74.0214 57.611 74.0454 57.667 74.0214 57.702L73.1714 58.844C73.1464 58.88 73.0794 58.88 73.0244 58.844Z" fill="black"/>
<path d="M80.9033 41.079C80.9033 38.717 80.1153 29.42 83.9903 28.633C85.2153 27.342 91.2823 27.208 92.2113 30.491C93.4393 34.802 91.6203 45.323 91.6203 45.323L80.9023 41.078" fill="#263238"/>
<path d="M92.427 45.348C92.401 45.3448 92.3773 45.3314 92.361 45.3108C92.3447 45.2903 92.3372 45.2641 92.34 45.238C92.34 45.132 93.62 34.607 92.206 30.438C91.9374 29.8176 91.5069 29.2808 90.9595 28.8839C90.4122 28.487 89.7682 28.2446 89.095 28.182C86.985 27.769 84.701 28.282 84.067 29.017C84.0484 29.0348 84.0237 29.0447 83.998 29.0447C83.9723 29.0447 83.9476 29.0348 83.929 29.017C83.9196 29.0077 83.9122 28.9967 83.9071 28.9845C83.902 28.9723 83.8994 28.9592 83.8994 28.946C83.8994 28.9328 83.902 28.9198 83.9071 28.9076C83.9122 28.8954 83.9196 28.8843 83.929 28.875C84.669 28.017 87.154 27.587 89.146 27.975C89.8537 28.043 90.5299 28.3005 91.1036 28.7204C91.6773 29.1403 92.1272 29.707 92.406 30.361C93.831 34.578 92.56 45.138 92.548 45.244C92.5484 45.2592 92.5453 45.2743 92.5389 45.2882C92.5326 45.302 92.5232 45.3142 92.5114 45.3238C92.4996 45.3335 92.4858 45.3403 92.471 45.3438C92.4562 45.3473 92.4408 45.3474 92.426 45.344L92.427 45.348Z" fill="#263238"/>
<path d="M83.5883 35.201C82.9933 36.91 81.6473 39.901 79.9733 40.292C79.9733 40.292 79.4813 42.092 82.3353 43.765C85.4853 45.6 84.7453 43.084 84.7453 43.084C83.2723 41.674 84.0563 40.43 85.0523 39.414L83.5883 35.201Z" fill="#E4897B"/>
<path d="M84.1783 36.917L85.0443 39.409C84.8099 39.6444 84.5952 39.8986 84.4023 40.169C83.8023 39.693 83.1623 38.531 83.4923 37.807C83.6658 37.4716 83.8982 37.1701 84.1783 36.917Z" fill="#CE6F64"/>
<path d="M83.6111 31.795C82.7961 34.657 82.3901 35.8501 83.3001 37.7841C84.6661 40.6981 88.3561 41.0721 89.9941 38.5121C91.4821 36.2121 92.5611 31.9121 90.2151 29.8501C89.7005 29.3932 89.078 29.0748 88.4064 28.9248C87.7348 28.7748 87.036 28.7982 86.3759 28.9927C85.7158 29.1872 85.116 29.5465 84.633 30.0368C84.1501 30.527 83.7998 31.1321 83.6151 31.795H83.6111Z" fill="#E4897B"/>
<path d="M82.7723 33.598C84.8083 34.358 89.5924 31.834 90.8954 30.287C91.0684 27.901 85.4734 28.842 85.4734 28.842C85.4734 28.842 82.4893 27.924 82.7723 33.598Z" fill="#263238"/>
<path d="M82.2879 34.173C82.1554 34.7324 82.2503 35.3216 82.5519 35.811C82.9459 36.457 83.67 36.205 83.985 35.567C84.269 34.984 84.398 33.941 83.785 33.52C83.6492 33.4305 83.4934 33.3763 83.3314 33.3624C83.1694 33.3484 83.0066 33.3751 82.8576 33.4401C82.7085 33.5051 82.5781 33.6062 82.4781 33.7344C82.3781 33.8626 82.3117 34.0137 82.285 34.174L82.2879 34.173Z" fill="#E4897B"/>
<path d="M87.5841 34.074C87.5011 34.302 87.5561 34.531 87.7061 34.582C87.8561 34.633 88.0411 34.491 88.1231 34.263C88.2051 34.035 88.1471 33.81 87.9971 33.755C87.8471 33.7 87.6631 33.847 87.5841 34.074Z" fill="#263238"/>
<path d="M90.1591 34.984C90.0801 35.212 90.135 35.437 90.285 35.492C90.435 35.547 90.6201 35.401 90.6981 35.173C90.7761 34.945 90.722 34.716 90.576 34.665C90.43 34.614 90.2421 34.756 90.1591 34.984Z" fill="#263238"/>
<path d="M90.5063 34.653L91.1064 34.688C91.1064 34.688 90.6753 35.019 90.5063 34.653Z" fill="#263238"/>
<path d="M89.3404 35.134C89.3616 35.7249 89.4625 36.3102 89.6404 36.874C89.4951 36.9167 89.3421 36.9268 89.1925 36.9036C89.0428 36.8805 88.9001 36.8246 88.7744 36.74L89.3404 35.134Z" fill="#DE5753"/>
<path d="M87.6793 37.3621H87.6523C87.3433 37.2616 87.0627 37.0887 86.834 36.8579C86.6053 36.6271 86.435 36.345 86.3373 36.035C86.3337 36.0163 86.3373 35.9968 86.3475 35.9806C86.3578 35.9645 86.3738 35.9528 86.3923 35.9481C86.4014 35.9457 86.4109 35.9453 86.4202 35.9468C86.4294 35.9484 86.4383 35.9519 86.4461 35.9571C86.4539 35.9623 86.4605 35.969 86.4656 35.977C86.4706 35.9849 86.4739 35.9938 86.4753 36.003C86.5706 36.288 86.7308 36.547 86.9432 36.7596C87.1556 36.9722 87.4144 37.1325 87.6993 37.228C87.7152 37.2336 87.7286 37.2446 87.7371 37.2591C87.7456 37.2736 87.7487 37.2907 87.7458 37.3072C87.7429 37.3238 87.7343 37.3388 87.7214 37.3496C87.7085 37.3603 87.6921 37.3662 87.6753 37.3661L87.6793 37.3621Z" fill="#263238"/>
<path d="M87.4702 33.173C87.4383 33.1733 87.4072 33.1629 87.3819 33.1434C87.3566 33.1239 87.3386 33.0964 87.3309 33.0654C87.3232 33.0344 87.3261 33.0018 87.3392 32.9726C87.3523 32.9435 87.3749 32.9197 87.4032 32.905C87.5988 32.7944 87.818 32.7321 88.0425 32.7233C88.2671 32.7144 88.4905 32.7592 88.6942 32.854C88.7129 32.8613 88.7299 32.8725 88.7439 32.8869C88.758 32.9013 88.7688 32.9185 88.7758 32.9374C88.7827 32.9562 88.7855 32.9764 88.7841 32.9964C88.7826 33.0165 88.7769 33.036 88.7674 33.0537C88.7578 33.0714 88.7446 33.0868 88.7286 33.099C88.7126 33.1112 88.6942 33.1199 88.6746 33.1245C88.6551 33.129 88.6347 33.1294 88.615 33.1255C88.5953 33.1216 88.5766 33.1136 88.5602 33.102C88.3973 33.0297 88.2196 32.9971 88.0416 33.0066C87.8636 33.0162 87.6904 33.0677 87.5362 33.157C87.5159 33.1677 87.4932 33.1732 87.4702 33.173Z" fill="#263238"/>
<path d="M91.7942 34.2161C91.7633 34.216 91.7332 34.2055 91.7089 34.1863C91.6846 34.1671 91.6674 34.1402 91.6602 34.1101C91.6205 33.9368 91.5407 33.7753 91.4271 33.6386C91.3135 33.5019 91.1693 33.3938 91.0063 33.3231C90.9706 33.3105 90.9412 33.2847 90.9243 33.2509C90.9073 33.2172 90.9041 33.1781 90.9152 33.1421C90.9209 33.1241 90.9303 33.1076 90.9426 33.0934C90.9549 33.0792 90.97 33.0677 90.987 33.0595C91.0039 33.0514 91.0224 33.0468 91.0412 33.046C91.06 33.0452 91.0787 33.0483 91.0962 33.0551C91.3046 33.1405 91.4893 33.2748 91.6347 33.4468C91.7801 33.6188 91.8818 33.8234 91.9312 34.0431C91.9407 34.0793 91.9356 34.1177 91.9168 34.1501C91.8981 34.1825 91.8674 34.2062 91.8313 34.2161H91.7942Z" fill="#263238"/>
<path d="M87.9189 33.748L88.519 33.783C88.519 33.783 88.0999 34.11 87.9189 33.748Z" fill="#263238"/>
<path d="M75.162 38.2719C73.922 37.9719 70.106 40.8829 70.106 40.8829L71.724 46.0449C71.724 46.0449 75.713 43.8359 76.083 42.2099C76.446 40.5239 76.575 38.6099 75.162 38.2719Z" fill="#407BFF"/>
<path opacity="0.7" d="M75.162 38.2719C73.922 37.9719 70.106 40.8829 70.106 40.8829L71.724 46.0449C71.724 46.0449 75.713 43.8359 76.083 42.2099C76.446 40.5239 76.575 38.6099 75.162 38.2719Z" fill="white"/>
<path d="M120.599 5.422H91.3842C90.131 5.422 88.9292 5.91981 88.0431 6.80592C87.157 7.69203 86.6592 8.89385 86.6592 10.147V19.203C86.6592 20.4561 87.157 21.658 88.0431 22.5441C88.9292 23.4302 90.131 23.928 91.3842 23.928H93.8252V28.574L98.4712 23.928H120.599C121.22 23.928 121.834 23.8058 122.407 23.5683C122.981 23.3309 123.502 22.9828 123.94 22.5441C124.379 22.1053 124.727 21.5844 124.965 21.0112C125.202 20.4379 125.324 19.8235 125.324 19.203V10.147C125.324 9.5265 125.202 8.91208 124.965 8.33881C124.727 7.76555 124.379 7.24467 123.94 6.80592C123.502 6.36716 122.981 6.01912 122.407 5.78166C121.834 5.54421 121.22 5.422 120.599 5.422Z" fill="#407BFF"/>
<path opacity="0.3" d="M120.599 5.422H91.3842C90.131 5.422 88.9292 5.91981 88.0431 6.80592C87.157 7.69203 86.6592 8.89385 86.6592 10.147V19.203C86.6592 20.4561 87.157 21.658 88.0431 22.5441C88.9292 23.4302 90.131 23.928 91.3842 23.928H93.8252V28.574L98.4712 23.928H120.599C121.22 23.928 121.834 23.8058 122.407 23.5683C122.981 23.3309 123.502 22.9828 123.94 22.5441C124.379 22.1053 124.727 21.5844 124.965 21.0112C125.202 20.4379 125.324 19.8235 125.324 19.203V10.147C125.324 9.5265 125.202 8.91208 124.965 8.33881C124.727 7.76555 124.379 7.24467 123.94 6.80592C123.502 6.36716 122.981 6.01912 122.407 5.78166C121.834 5.54421 121.22 5.422 120.599 5.422Z" fill="black"/>
<g opacity="0.54">
<path opacity="0.54" d="M119.914 9.18604H92.061C91.4629 9.18604 90.978 9.67091 90.978 10.269C90.978 10.8672 91.4629 11.352 92.061 11.352H119.914C120.512 11.352 120.997 10.8672 120.997 10.269C120.997 9.67091 120.512 9.18604 119.914 9.18604Z" fill="#F5F5F5"/>
</g>
<g opacity="0.54">
<path opacity="0.54" d="M119.91 15.655H102.058C101.77 15.654 101.494 15.5388 101.29 15.3348C101.086 15.1307 100.972 14.8543 100.971 14.566C100.972 14.2784 101.087 14.003 101.291 13.8C101.495 13.597 101.771 13.483 102.058 13.483H119.91C120.197 13.483 120.473 13.5971 120.676 13.8002C120.879 14.0033 120.993 14.2788 120.993 14.566C120.994 14.854 120.88 15.1304 120.677 15.3345C120.474 15.5387 120.198 15.654 119.91 15.655Z" fill="#F5F5F5"/>
</g>
<g opacity="0.54">
<path opacity="0.54" d="M96.758 15.655H92.058C91.7706 15.6532 91.4956 15.5376 91.2932 15.3335C91.0908 15.1294 90.9775 14.8535 90.978 14.566C90.978 14.2788 91.0921 14.0033 91.2952 13.8002C91.4983 13.5971 91.7738 13.483 92.061 13.483H96.761C97.0478 13.4838 97.3225 13.5983 97.5249 13.8013C97.7274 14.0043 97.841 14.2793 97.841 14.566C97.8416 14.854 97.7278 15.1304 97.5248 15.3345C97.3217 15.5387 97.046 15.654 96.758 15.655Z" fill="#F5F5F5"/>
</g>
<g opacity="0.54">
<path opacity="0.54" d="M112.957 19.955H92.0571C91.7699 19.955 91.4944 19.8409 91.2913 19.6378C91.0882 19.4347 90.9741 19.1593 90.9741 18.872C90.9741 18.5844 91.0881 18.3086 91.2911 18.1048C91.4941 17.9011 91.7695 17.7861 92.0571 17.785H112.957C113.245 17.7861 113.52 17.9011 113.723 18.1048C113.926 18.3086 114.04 18.5844 114.04 18.872C114.04 19.1593 113.926 19.4347 113.723 19.6378C113.52 19.8409 113.244 19.955 112.957 19.955Z" fill="#F5F5F5"/>
</g>
</svg>
