<svg width="30" height="26" viewBox="0 0 30 26" fill="none" xmlns="http://www.w3.org/2000/svg">
<path fill-rule="evenodd" clip-rule="evenodd" d="M0.197022 20.425C0.19689 20.3036 0.220702 20.1834 0.26709 20.0712C0.313479 19.959 0.381534 19.8571 0.467362 19.7713C0.55319 19.6855 0.655094 19.6174 0.767258 19.571C0.879422 19.5247 0.99964 19.5008 1.12102 19.501H11.049C11.2941 19.501 11.5291 19.5983 11.7024 19.7716C11.8757 19.9449 11.973 20.1799 11.973 20.425V24.532C11.9732 24.6533 11.9493 24.7736 11.903 24.8857C11.8566 24.9979 11.7885 25.0998 11.7027 25.1856C11.6169 25.2715 11.5149 25.3395 11.4028 25.3859C11.2906 25.4323 11.1704 25.4561 11.049 25.456H1.12102C0.875958 25.456 0.640936 25.3586 0.467652 25.1853C0.294368 25.0121 0.197022 24.777 0.197022 24.532V20.425ZM17.861 20.425C17.8609 20.3036 17.8847 20.1834 17.9311 20.0712C17.9775 19.959 18.0455 19.8571 18.1314 19.7713C18.2172 19.6855 18.3191 19.6174 18.4313 19.571C18.5434 19.5247 18.6636 19.5008 18.785 19.501H28.707C28.8284 19.501 28.9485 19.5249 29.0606 19.5713C29.1727 19.6177 29.2746 19.6858 29.3604 19.7716C29.4462 19.8574 29.5142 19.9593 29.5607 20.0714C29.6071 20.1835 29.631 20.3036 29.631 20.425V24.532C29.6312 24.6533 29.6073 24.7736 29.561 24.8857C29.5146 24.9979 29.4465 25.0998 29.3607 25.1856C29.2749 25.2715 29.1729 25.3395 29.0608 25.3859C28.9486 25.4323 28.8284 25.4561 28.707 25.456H18.78C18.535 25.456 18.2999 25.3586 18.1266 25.1853C17.9534 25.0121 17.856 24.777 17.856 24.532L17.861 20.425Z" fill="#F6F8FA"/>
<path d="M28.71 10.111H1.11002C0.865221 10.111 0.630463 10.2083 0.457367 10.3814C0.284271 10.5545 0.187012 10.7892 0.187012 11.034V15.143C0.187012 15.3878 0.284271 15.6226 0.457367 15.7957C0.630463 15.9688 0.865221 16.066 1.11002 16.066H28.71C28.9548 16.066 29.1896 15.9688 29.3627 15.7957C29.5358 15.6226 29.633 15.3878 29.633 15.143V11.034C29.633 10.7892 29.5358 10.5545 29.3627 10.3814C29.1896 10.2083 28.9548 10.111 28.71 10.111Z" fill="#F6F8FA"/>
<path fill-rule="evenodd" clip-rule="evenodd" d="M1.56598 1.64598C1.56598 1.40127 1.66306 1.16654 1.83591 0.993317C2.00876 0.82009 2.24326 0.722515 2.48798 0.721985H18.311C18.4322 0.722116 18.5522 0.746111 18.6641 0.792618C18.7761 0.839124 18.8777 0.907225 18.9633 0.993027C19.049 1.07883 19.1168 1.18065 19.1631 1.29268C19.2094 1.40471 19.2331 1.52477 19.233 1.64598V5.75198C19.233 5.9967 19.1359 6.23141 18.9631 6.40463C18.7902 6.57786 18.5557 6.67545 18.311 6.67598H2.48798C2.36677 6.67585 2.24678 6.65184 2.13484 6.60533C2.02291 6.55883 1.92123 6.49074 1.83562 6.40494C1.75 6.31914 1.68211 6.2173 1.63585 6.10527C1.58959 5.99324 1.56585 5.87319 1.56598 5.75198V1.64598Z" fill="#F6F8FA"/>
<path d="M26.356 0.721985H22.313C22.0682 0.721985 21.8335 0.819229 21.6604 0.992325C21.4873 1.16542 21.39 1.40018 21.39 1.64497V5.75398C21.39 5.99878 21.4873 6.23354 21.6604 6.40663C21.8335 6.57973 22.0682 6.67699 22.313 6.67699H26.356C26.6008 6.67699 26.8356 6.57973 27.0087 6.40663C27.1818 6.23354 27.279 5.99878 27.279 5.75398V1.64497C27.279 1.40018 27.1818 1.16542 27.0087 0.992325C26.8356 0.819229 26.6008 0.721985 26.356 0.721985Z" fill="#F6F8FA"/>
</svg>
