<svg width="24" height="24" viewBox="0 0 24 24" fill="none" xmlns="http://www.w3.org/2000/svg">
<path fill-rule="evenodd" clip-rule="evenodd" d="M12 24C18.6274 24 24 18.6274 24 12C24 5.37258 18.6274 0 12 0C5.37258 0 0 5.37258 0 12C0 18.6274 5.37258 24 12 24Z" fill="#00BE33"/>
<path fill-rule="evenodd" clip-rule="evenodd" d="M16.1959 8.19522C16.2574 8.13155 16.331 8.08076 16.4123 8.04582C16.4937 8.01088 16.5812 7.99249 16.6697 7.99172C16.7582 7.99096 16.846 8.00782 16.9279 8.04134C17.0098 8.07486 17.0843 8.12437 17.1469 8.18696C17.2095 8.24956 17.259 8.32399 17.2925 8.40592C17.326 8.48785 17.3429 8.57564 17.3421 8.66416C17.3413 8.75268 17.323 8.84016 17.288 8.92149C17.2531 9.00283 17.2023 9.07639 17.1386 9.13789L11.1386 15.1379C11.0136 15.2629 10.8441 15.3331 10.6673 15.3331C10.4905 15.3331 10.321 15.2629 10.1959 15.1379L6.86195 11.8039C6.74051 11.6782 6.67331 11.5098 6.67483 11.335C6.67635 11.1602 6.74646 10.993 6.87007 10.8693C6.99367 10.7457 7.16088 10.6756 7.33568 10.6741C7.51048 10.6726 7.67888 10.7398 7.80461 10.8612L10.6673 13.7239L16.1959 8.19522Z" fill="white"/>
</svg>
