<svg width="11" height="8" viewBox="0 0 11 8" fill="none" xmlns="http://www.w3.org/2000/svg">
<path d="M9.354 0.191406H0.9C0.661305 0.191406 0.432387 0.286227 0.263604 0.455009C0.0948212 0.623792 0 0.852713 0 1.09141L0 7.1004C0 7.21859 0.0232792 7.33563 0.0685084 7.44482C0.113738 7.55402 0.180031 7.65323 0.263604 7.7368C0.347177 7.82037 0.446392 7.88667 0.555585 7.9319C0.664778 7.97713 0.78181 8.0004 0.9 8.0004H9.354C9.47219 8.0004 9.58922 7.97713 9.69841 7.9319C9.80761 7.88667 9.90682 7.82037 9.9904 7.7368C10.074 7.65323 10.1403 7.55402 10.1855 7.44482C10.2307 7.33563 10.254 7.21859 10.254 7.1004V1.09141C10.254 0.852713 10.1592 0.623792 9.9904 0.455009C9.82161 0.286227 9.5927 0.191406 9.354 0.191406ZM9.23 0.791405L5.147 4.8754L1.029 0.791405H9.23ZM0.6 6.97741V1.21441L3.494 4.0834L0.6 6.97741ZM1.025 7.4024L3.925 4.5024L4.94 5.50841C4.99625 5.56459 5.0725 5.59615 5.152 5.59615C5.2315 5.59615 5.30775 5.56459 5.364 5.50841L6.353 4.51941L9.233 7.39941L1.025 7.4024ZM9.654 6.97741L6.774 4.0974L9.654 1.21741V6.97741Z" fill="white"/>
</svg>
