<svg width="23" height="22" viewBox="0 0 23 22" fill="none" xmlns="http://www.w3.org/2000/svg">
<path d="M17.2991 21.688H5.94409C4.61584 21.6864 3.34247 21.1581 2.40326 20.2189C1.46405 19.2797 0.93567 18.0063 0.934082 16.678V9.65302C0.936245 8.88237 1.11516 8.1225 1.45703 7.43182C1.7989 6.74115 2.2946 6.13809 2.90607 5.66904L8.58411 1.33801C9.4579 0.674008 10.5251 0.314514 11.6226 0.314514C12.72 0.314514 13.7873 0.674008 14.6611 1.33801L16.4611 2.71301V1.64703C16.4611 1.42558 16.549 1.21317 16.7056 1.05658C16.8622 0.899987 17.0746 0.812012 17.2961 0.812012C17.5175 0.812012 17.7299 0.899987 17.8865 1.05658C18.0431 1.21317 18.1311 1.42558 18.1311 1.64703V4.39902C18.1311 4.5546 18.0876 4.70709 18.0055 4.83926C17.9234 4.97144 17.8061 5.07806 17.6666 5.14709C17.5272 5.21613 17.3712 5.24483 17.2164 5.22998C17.0615 5.21513 16.9139 5.1573 16.7901 5.06302L13.6441 2.66302C13.0616 2.22044 12.3502 1.9808 11.6186 1.9808C10.887 1.9808 10.1756 2.22044 9.59308 2.66302L3.9151 6.99301C3.50756 7.30577 3.17714 7.70785 2.94934 8.1683C2.72154 8.62875 2.60241 9.1353 2.60107 9.64902V16.674C2.60213 17.5595 2.95436 18.4085 3.58051 19.0346C4.20665 19.6607 5.0556 20.013 5.9411 20.014H17.2971C18.1826 20.013 19.0315 19.6607 19.6577 19.0346C20.2838 18.4085 20.636 17.5595 20.6371 16.674V9.64902C20.6386 9.13497 20.5222 8.62742 20.2969 8.16541C20.0715 7.70339 19.7432 7.29926 19.3371 6.98404C19.2499 6.91752 19.1766 6.83448 19.1215 6.73965C19.0664 6.64483 19.0306 6.54009 19.0159 6.4314C19.0013 6.32271 19.0082 6.21218 19.0363 6.10617C19.0644 6.00016 19.1131 5.90074 19.1796 5.81354C19.2461 5.72634 19.3291 5.6531 19.424 5.59799C19.5188 5.54289 19.6235 5.507 19.7322 5.49237C19.8409 5.47775 19.9514 5.48464 20.0574 5.51273C20.1634 5.54081 20.2629 5.58952 20.3501 5.65604C20.9598 6.1275 21.4533 6.73253 21.7925 7.42459C22.1318 8.11665 22.3078 8.87727 22.3071 9.64801V16.673C22.3055 18.0013 21.7772 19.2747 20.838 20.2139C19.8987 21.1531 18.6253 21.6814 17.2971 21.683L17.2991 21.688ZM9.95111 9.95703C9.74463 9.95703 9.54278 10.0182 9.37109 10.133C9.19941 10.2477 9.06559 10.4107 8.98657 10.6015C8.90755 10.7923 8.88684 11.0022 8.92712 11.2047C8.96741 11.4072 9.06688 11.5933 9.21289 11.7393C9.3589 11.8853 9.54492 11.9847 9.74744 12.025C9.94995 12.0652 10.1598 12.0446 10.3506 11.9655C10.5414 11.8865 10.7044 11.7527 10.8192 11.5811C10.9339 11.4094 10.9951 11.2075 10.9951 11.001C10.9951 10.7242 10.8851 10.4586 10.6893 10.2628C10.4935 10.067 10.228 9.95703 9.95111 9.95703ZM14.3351 11.001C14.3267 11.2722 14.2131 11.5294 14.0183 11.7183C13.8235 11.9071 13.5629 12.0127 13.2916 12.0127C13.0203 12.0127 12.7597 11.9071 12.5649 11.7183C12.3701 11.5294 12.2565 11.2722 12.2481 11.001C12.2565 10.7299 12.3701 10.4726 12.5649 10.2838C12.7597 10.0949 13.0203 9.98932 13.2916 9.98932C13.5629 9.98932 13.8235 10.0949 14.0183 10.2838C14.2131 10.4726 14.3267 10.7299 14.3351 11.001ZM10.9951 14.341C10.9867 14.6122 10.8731 14.8694 10.6783 15.0583C10.4835 15.2471 10.2229 15.3527 9.9516 15.3527C9.68031 15.3527 9.41963 15.2471 9.22485 15.0583C9.03008 14.8694 8.91648 14.6122 8.90808 14.341C8.91648 14.0699 9.03008 13.8126 9.22485 13.6238C9.41963 13.4349 9.68031 13.3293 9.9516 13.3293C10.2229 13.3293 10.4835 13.4349 10.6783 13.6238C10.8731 13.8126 10.9867 14.0699 10.9951 14.341ZM14.3351 14.341C14.3267 14.6122 14.2131 14.8694 14.0183 15.0583C13.8235 15.2471 13.5629 15.3527 13.2916 15.3527C13.0203 15.3527 12.7597 15.2471 12.5649 15.0583C12.3701 14.8694 12.2565 14.6122 12.2481 14.341C12.2565 14.0699 12.3701 13.8126 12.5649 13.6238C12.7597 13.4349 13.0203 13.3293 13.2916 13.3293C13.5629 13.3293 13.8235 13.4349 14.0183 13.6238C14.2131 13.8126 14.3267 14.0699 14.3351 14.341Z" fill="#5F2788"/>
</svg>
