<svg width="25" height="24" viewBox="0 0 25 24" fill="none" xmlns="http://www.w3.org/2000/svg">
<path d="M18.105 8.842C18.105 7.09322 17.5865 5.38371 16.6149 3.92965C15.6433 2.47559 14.2624 1.34229 12.6467 0.673061C11.031 0.00383109 9.25322 -0.17127 7.53804 0.169901C5.82286 0.511071 4.24736 1.35319 3.01079 2.58977C1.77421 3.82634 0.932092 5.40184 0.590921 7.11702C0.249751 8.8322 0.424852 10.61 1.09408 12.2257C1.76331 13.8414 2.89661 15.2223 4.35067 16.1939C5.80473 17.1654 7.51424 17.684 9.26303 17.684C11.608 17.6837 13.8568 16.7521 15.515 15.0939C17.1731 13.4358 18.1048 11.187 18.105 8.842ZM9.26303 15.473C7.95158 15.4728 6.66964 15.0837 5.57931 14.355C4.48898 13.6262 3.63922 12.5906 3.13749 11.3789C2.63576 10.1672 2.50459 8.83397 2.76056 7.54775C3.01653 6.26153 3.64815 5.08009 4.57555 4.15283C5.50295 3.22556 6.68449 2.59412 7.97075 2.33834C9.25701 2.08257 10.5902 2.21394 11.8018 2.71585C13.0134 3.21777 14.049 4.06768 14.7776 5.15812C15.5061 6.24856 15.895 7.53056 15.895 8.842C15.8929 10.6002 15.1935 12.2857 13.9502 13.5288C12.7068 14.772 11.0212 15.4712 9.26303 15.473Z" fill="#707070"/>
<path d="M23.353 19.8065L17.944 14.3965C17.1378 15.6502 16.0717 16.7162 14.818 17.5225L20.228 22.9325C20.6425 23.347 21.2047 23.5799 21.791 23.5799C22.3772 23.5799 22.9395 23.347 23.354 22.9325C23.7685 22.5179 24.0014 21.9557 24.0014 21.3695C24.0014 20.7832 23.7685 20.221 23.354 19.8065H23.353Z" fill="#707070"/>
</svg>
