<svg width="5" height="20" viewBox="0 0 5 20" fill="none" xmlns="http://www.w3.org/2000/svg">
<path d="M4.28098 0.895935C4.6245 1.2394 4.85848 1.67701 4.95329 2.15344C5.04809 2.62987 4.99945 3.12374 4.81358 3.57254C4.6277 4.02134 4.31293 4.40492 3.90903 4.6748C3.50514 4.94469 3.0303 5.08875 2.54453 5.08875C2.05876 5.08875 1.58387 4.94469 1.17997 4.6748C0.776073 4.40492 0.461305 4.02134 0.275429 3.57254C0.089553 3.12374 0.0409188 2.62987 0.13572 2.15344C0.23052 1.67701 0.4645 1.2394 0.808022 0.895935C1.2686 0.43544 1.89324 0.176758 2.54453 0.176758C3.19583 0.176758 3.82041 0.43544 4.28098 0.895935Z" fill="white"/>
<path d="M4.28098 8.26312C4.6245 8.60658 4.85848 9.0442 4.95329 9.52063C5.04809 9.99706 4.99945 10.4909 4.81358 10.9397C4.6277 11.3885 4.31293 11.7721 3.90903 12.042C3.50514 12.3119 3.0303 12.4559 2.54453 12.4559C2.05876 12.4559 1.58387 12.3119 1.17997 12.042C0.776073 11.7721 0.461305 11.3885 0.275429 10.9397C0.089553 10.4909 0.0409188 9.99706 0.13572 9.52063C0.23052 9.0442 0.4645 8.60658 0.808022 8.26312C1.2686 7.80263 1.89324 7.54395 2.54453 7.54395C3.19583 7.54395 3.82041 7.80263 4.28098 8.26312Z" fill="white"/>
<path d="M4.28098 15.6309C4.6245 15.9743 4.85848 16.4119 4.95329 16.8884C5.04809 17.3648 4.99945 17.8586 4.81358 18.3074C4.6277 18.7562 4.31293 19.1398 3.90903 19.4097C3.50514 19.6796 3.0303 19.8237 2.54453 19.8237C2.05876 19.8237 1.58387 19.6796 1.17997 19.4097C0.776073 19.1398 0.461305 18.7562 0.275429 18.3074C0.089553 17.8586 0.0409188 17.3648 0.13572 16.8884C0.23052 16.4119 0.4645 15.9743 0.808022 15.6309C1.2686 15.1704 1.89324 14.9116 2.54453 14.9116C3.19583 14.9116 3.82041 15.1704 4.28098 15.6309Z" fill="white"/>
</svg>
