<svg width="24" height="25" viewBox="0 0 24 25" fill="none" xmlns="http://www.w3.org/2000/svg">
<path d="M22.0999 16.2354C21.2403 15.4958 20.2737 14.8907 19.2329 14.4404C19.1204 14.3904 18.9992 14.3631 18.8762 14.36C18.7532 14.3568 18.6307 14.378 18.5158 14.4222C18.401 14.4664 18.2959 14.5328 18.2067 14.6176C18.1175 14.7023 18.0459 14.8039 17.9959 14.9164C17.9459 15.0288 17.9186 15.1501 17.9155 15.2731C17.9124 15.3961 17.9335 15.5186 17.9777 15.6335C18.0219 15.7483 18.0883 15.8534 18.1731 15.9426C18.2579 16.0318 18.3594 16.1034 18.4719 16.1534C19.3394 16.5268 20.1455 17.0291 20.8629 17.6434C21.2616 17.9948 21.5807 18.4273 21.799 18.9118C22.0173 19.3964 22.1298 19.9219 22.1289 20.4534V22.1874C22.1286 22.4359 22.0299 22.6742 21.8543 22.85C21.6786 23.0258 21.4404 23.1248 21.1919 23.1254H2.81292C2.56457 23.1248 2.32655 23.026 2.15095 22.8503C1.97534 22.6747 1.87645 22.4367 1.87592 22.1884V20.4544C1.87506 19.9229 1.98752 19.3974 2.20583 18.9128C2.42414 18.4283 2.74326 17.9958 3.14191 17.6444C4.08891 16.8124 6.84892 14.8764 12.0009 14.8764C13.647 14.8784 15.2403 14.2957 16.4968 13.2323C17.7532 12.1689 18.5912 10.6938 18.8613 9.07001C19.1313 7.44623 18.816 5.77931 17.9714 4.36643C17.1268 2.95354 15.8079 1.88652 14.2498 1.35559C12.6916 0.824668 10.9956 0.864349 9.46403 1.46756C7.93245 2.07077 6.66487 3.1983 5.88727 4.64914C5.10968 6.09998 4.87261 7.77984 5.21833 9.38921C5.56405 10.9986 6.47008 12.4329 7.77491 13.4364C5.61271 13.8585 3.59282 14.8218 1.90392 16.2364C1.30568 16.764 0.826777 17.4132 0.499152 18.1405C0.171527 18.8679 0.0026973 19.6567 0.00391277 20.4544V22.1884C0.00496863 22.9333 0.301168 23.6475 0.827643 24.1745C1.35412 24.7016 2.06797 24.9985 2.81292 25.0004H21.1879C21.9334 24.9993 22.648 24.7027 23.1751 24.1756C23.7022 23.6484 23.9989 22.9338 23.9999 22.1884V20.4544C24.0011 19.6567 23.8323 18.8679 23.5047 18.1405C23.177 17.4132 22.6982 16.764 22.0999 16.2364V16.2354ZM6.94091 7.93536C6.94131 6.93391 7.23869 5.95508 7.79543 5.12265C8.35218 4.29022 9.14329 3.64159 10.0687 3.25881C10.9941 2.87602 12.0123 2.77628 12.9944 2.97218C13.9765 3.16809 14.8784 3.65085 15.5861 4.35941C16.2938 5.06796 16.7755 5.97049 16.9703 6.95282C17.165 7.93516 17.0641 8.95317 16.6802 9.87813C16.2963 10.8031 15.6467 11.5934 14.8136 12.1492C13.9805 12.7049 13.0014 13.0012 11.9999 13.0004C10.6579 12.9988 9.37126 12.465 8.42229 11.516C7.47333 10.567 6.93951 9.28041 6.93792 7.93837L6.94091 7.93536Z" fill="#1CA4A6"/>
</svg>
