<svg width="20" height="25" viewBox="0 0 20 25" fill="none" xmlns="http://www.w3.org/2000/svg">
<path d="M19.2887 20.034C18.7766 19.6217 18.3809 19.0829 18.1407 18.4709C17.2625 16.1936 16.8543 13.7622 16.9407 11.323C16.9407 11.314 16.9407 11.305 16.9407 11.296C16.9345 9.97352 16.5485 8.68068 15.8285 7.57138C15.1086 6.46209 14.085 5.58308 12.8796 5.03897V3.39297C12.8794 2.67614 12.5951 1.98859 12.0891 1.48087C11.5831 0.973144 10.8965 0.686605 10.1797 0.68396H9.95566C9.23884 0.686605 8.55221 0.973144 8.04618 1.48087C7.54015 1.98859 7.25591 2.67614 7.25565 3.39297V5.03897C6.0458 5.5849 5.0191 6.46818 4.29862 7.58295C3.57815 8.69771 3.19448 9.99665 3.19364 11.324C3.27995 13.7632 2.87175 16.1946 1.99363 18.472C1.75344 19.0839 1.35773 19.6227 0.845619 20.035C0.701338 20.1026 0.584816 20.2179 0.515602 20.3614C0.446387 20.5049 0.428703 20.668 0.465614 20.823C0.503737 20.9831 0.595254 21.1254 0.725013 21.2267C0.854772 21.3279 1.0151 21.382 1.17966 21.38H6.40067C6.41656 22.3422 6.80989 23.2596 7.49595 23.9344C8.18201 24.6092 9.10583 24.9874 10.0682 24.9874C11.0305 24.9874 11.9542 24.6092 12.6403 23.9344C13.3264 23.2596 13.7197 22.3422 13.7356 21.38H18.9566C19.1212 21.382 19.2815 21.3279 19.4113 21.2267C19.5411 21.1254 19.6325 20.9831 19.6706 20.823C19.7075 20.668 19.6899 20.5049 19.6207 20.3614C19.5515 20.2179 19.4349 20.1026 19.2906 20.035L19.2887 20.034ZM8.67063 3.39297C8.67063 3.05331 8.80546 2.72752 9.04545 2.48715C9.28544 2.24679 9.611 2.11149 9.95066 2.11096H10.1747C10.5143 2.11149 10.8399 2.24679 11.0799 2.48715C11.3199 2.72752 11.4546 3.05331 11.4546 3.39297V4.57596C10.5366 4.38694 9.58971 4.38694 8.67167 4.57596L8.67063 3.39297ZM10.0627 23.573C9.47656 23.5718 8.91408 23.3418 8.49509 22.932C8.0761 22.5222 7.8337 21.9649 7.81962 21.379H12.3047C12.2906 21.9649 12.0482 22.5222 11.6292 22.932C11.2102 23.3418 10.6477 23.5718 10.0616 23.573H10.0627ZM12.9316 19.952H2.80064C2.93588 19.74 3.06036 19.5214 3.17362 19.297C4.25175 16.7828 4.74386 14.0564 4.61265 11.324C4.61265 9.87775 5.18718 8.49074 6.20982 7.46811C7.23245 6.44547 8.61942 5.87097 10.0656 5.87097C11.5119 5.87097 12.8988 6.44547 13.9215 7.46811C14.9441 8.49074 15.5187 9.87775 15.5187 11.324C15.5187 11.333 15.5187 11.3419 15.5187 11.3499C15.3906 14.0727 15.8826 16.7891 16.9576 19.2939C17.0709 19.5184 17.1954 19.737 17.3307 19.949L12.9316 19.952Z" fill="#5F2788"/>
<path d="M15.6855 13.842C17.8947 13.842 19.6855 12.0511 19.6855 9.84198C19.6855 7.63284 17.8947 5.84198 15.6855 5.84198C13.4764 5.84198 11.6855 7.63284 11.6855 9.84198C11.6855 12.0511 13.4764 13.842 15.6855 13.842Z" fill="#DC0000"/>
<path d="M15.6855 13.342C17.6185 13.342 19.1855 11.775 19.1855 9.84198C19.1855 7.90898 17.6185 6.34198 15.6855 6.34198C13.7526 6.34198 12.1855 7.90898 12.1855 9.84198C12.1855 11.775 13.7526 13.342 15.6855 13.342Z" stroke="white"/>
</svg>
