<svg width="27" height="27" viewBox="0 0 27 27" fill="none" xmlns="http://www.w3.org/2000/svg">
<path d="M20.4533 0.0759487C19.9975 0.171604 19.5249 0.391048 19.1085 0.689266C18.9228 0.829935 15.2541 4.45357 10.9609 8.75241L3.16224 16.5624L1.58112 21.3507C0.708972 23.9841 0 26.2123 0 26.3023C0 26.6286 0.376993 27 0.714599 27C0.770866 27 2.98218 26.2798 5.62676 25.3964L10.4376 23.7927L18.377 15.8421C27.031 7.18818 26.5527 7.69458 26.8453 6.74366C26.9522 6.41168 26.9747 6.18661 26.9747 5.70271C26.9747 5.21881 26.9522 4.99374 26.8453 4.66176C26.5921 3.829 26.4401 3.63206 24.8759 2.06782C23.4917 0.678013 23.4186 0.616117 22.9516 0.391048C22.6815 0.261633 22.2932 0.120964 22.0794 0.0759487C21.6068 -0.0253334 20.909 -0.0253334 20.4533 0.0759487ZM22.0738 1.62331C22.5127 1.78648 22.749 1.99467 24.0319 3.28883C25.2304 4.50984 25.3992 4.74616 25.478 5.3651C25.5849 6.21474 25.3486 6.80556 24.5889 7.55954L24.0825 8.06595L21.4886 5.47764L18.9003 2.88933L19.4067 2.3998C19.688 2.12972 20.0256 1.84838 20.1551 1.7696C20.7177 1.43763 21.4323 1.38698 22.0738 1.62331ZM20.442 6.5636L23.0134 9.13503L16.5427 15.6058L10.0719 22.0766L7.48359 19.4883L4.89528 16.9L11.3492 10.4461C14.9053 6.88996 17.8199 3.98655 17.8368 3.98655C17.8537 3.98655 19.0241 5.14566 20.442 6.5636ZM6.43701 20.5799L8.68209 22.8249L5.3623 23.9278C3.53361 24.5355 2.01438 25.0306 1.98062 25.0306C1.94686 25.0306 2.41388 23.5564 3.01594 21.7502C4.20319 18.1941 4.15255 18.3348 4.17506 18.3348C4.18631 18.3348 5.20475 19.342 6.43701 20.5799Z" fill="#9269AD"/>
</svg>
