<svg width="11" height="12" viewBox="0 0 11 12" fill="none" xmlns="http://www.w3.org/2000/svg">
<path d="M9.446 7.62409C8.82096 7.62528 8.19976 7.52636 7.606 7.33109C7.46995 7.28338 7.32342 7.27391 7.18236 7.30371C7.04131 7.33351 6.91113 7.40144 6.806 7.50009L5.642 8.37909C4.39066 7.75165 3.37531 6.737 2.747 5.48609L3.6 4.34909C3.7059 4.24301 3.78058 4.10983 3.81586 3.96415C3.85113 3.81846 3.84565 3.66587 3.8 3.52309C3.60547 2.92852 3.50723 2.30668 3.509 1.68109C3.50874 1.46652 3.42345 1.2608 3.27182 1.10898C3.12019 0.957163 2.91457 0.871623 2.7 0.871094L0.81 0.871094C0.595256 0.871358 0.389383 0.956782 0.237536 1.10863C0.0856887 1.26048 0.000264626 1.46635 0 1.68109C0.00291126 4.18544 0.999047 6.58637 2.76988 8.35721C4.54072 10.128 6.94166 11.1242 9.446 11.1271C9.66074 11.1268 9.86662 11.0414 10.0185 10.8896C10.1703 10.7377 10.2557 10.5318 10.256 10.3171V8.43309C10.2555 8.21852 10.1699 8.01291 10.0181 7.86128C9.86629 7.70964 9.66057 7.62436 9.446 7.62409ZM9.716 10.3181C9.716 10.3897 9.68755 10.4584 9.63692 10.509C9.58628 10.5596 9.51761 10.5881 9.446 10.5881C7.0847 10.5852 4.82097 9.6458 3.15137 7.97602C1.48177 6.30623 0.542646 4.04239 0.54 1.68109C0.54 1.60949 0.568446 1.54081 0.619081 1.49017C0.669716 1.43954 0.738392 1.41109 0.81 1.41109H2.7C2.77161 1.41109 2.84028 1.43954 2.89092 1.49017C2.94155 1.54081 2.97 1.60949 2.97 1.68109C2.96912 2.36319 3.07714 3.04106 3.29 3.68909C3.30535 3.74396 3.30475 3.80207 3.28828 3.85662C3.27181 3.91116 3.24015 3.95989 3.197 3.99709L2.215 5.29709C2.18456 5.33749 2.16607 5.38562 2.16165 5.43601C2.15723 5.4864 2.16705 5.53702 2.19 5.58209C2.88893 7.05367 4.07384 8.23929 5.545 8.93909C5.59017 8.96236 5.641 8.97236 5.69161 8.96794C5.74223 8.96351 5.79056 8.94485 5.831 8.91409L7.159 7.90709C7.19453 7.87218 7.23899 7.84774 7.28751 7.83645C7.33602 7.82516 7.38671 7.82746 7.434 7.84309C8.08322 8.05685 8.7625 8.16522 9.446 8.16409C9.51761 8.16409 9.58628 8.19254 9.63692 8.24318C9.68755 8.29381 9.716 8.36249 9.716 8.43409V10.3171V10.3181Z" fill="white"/>
</svg>
