<svg width="191" height="151" viewBox="0 0 191 151" fill="none" xmlns="http://www.w3.org/2000/svg">
<path d="M95.5002 150.673C147.904 150.673 190.385 148.193 190.385 145.133C190.385 142.073 147.904 139.593 95.5002 139.593C43.0967 139.593 0.615234 142.073 0.615234 145.133C0.615234 148.193 43.0967 150.673 95.5002 150.673Z" fill="#F5F5F5"/>
<path d="M28.3482 10.7061C27.511 11.1079 26.782 11.7039 26.2219 12.4446C25.6618 13.1853 25.2868 14.0491 25.1282 14.964C24.3552 18.316 26.4102 25.5491 26.7382 28.9701C27.0662 32.3911 23.3122 39.3251 33.0662 39.9571C42.8202 40.5891 44.2292 13.9761 39.7122 12.1161C35.1952 10.2561 28.3482 10.7061 28.3482 10.7061Z" fill="#263238"/>
<path d="M39.2515 12.502C41.9725 11.22 43.1375 20.078 42.1875 26.469" stroke="#263238" stroke-width="0.5" stroke-linecap="round" stroke-linejoin="round"/>
<path d="M62.3843 8.92404L63.5443 5.73305C63.5443 5.73305 63.0553 5.15105 65.2863 4.08405C67.5173 3.01705 68.8783 2.44004 69.7933 2.72804C70.3396 3.05898 70.8079 3.50414 71.166 4.03301C71.5242 4.56187 71.7637 5.16192 71.8683 5.79204C71.7683 6.50704 65.6683 7.50005 65.6683 7.50005L64.7973 9.94705L62.3843 8.92404Z" fill="#E4897B"/>
<path d="M43.519 25.2401C43.519 25.2401 54.168 22.0401 55.91 20.4101C57.652 18.7801 62.58 6.6001 62.58 6.6001L66.157 8.0681C66.157 8.0681 62.492 22.2111 59.394 25.4851C56.296 28.7591 44.394 34.5631 44.394 34.5631L43.519 25.2401Z" fill="#407BFF"/>
<path opacity="0.6" d="M43.519 25.2401C43.519 25.2401 54.168 22.0401 55.91 20.4101C57.652 18.7801 62.58 6.6001 62.58 6.6001L66.157 8.0681C66.157 8.0681 62.492 22.2111 59.394 25.4851C56.296 28.7591 44.394 34.5631 44.394 34.5631L43.519 25.2401Z" fill="white"/>
<path d="M24.2573 133.789L26.6213 135.179C27.73 133.687 28.9296 132.265 30.2133 130.921C30.8983 130.197 31.6133 129.394 32.3663 128.533C33.8663 126.815 35.4833 124.853 37.1813 122.744L38.7033 120.844C44.6033 113.396 51.0163 104.644 53.4143 98.7291C54.0967 97.3051 54.4208 95.7359 54.3583 94.1581C53.5431 89.4204 52.3983 84.7454 50.9323 80.1671C48.5443 72.3131 45.8573 64.8671 45.8573 64.8671L39.2573 76.0491C39.2573 76.0491 41.2833 80.8791 43.1283 86.0231C44.9443 91.0731 46.5833 96.4321 45.9763 97.8231C45.9173 97.9601 45.8443 98.1231 45.7613 98.3121C44.6613 100.583 41.6313 105.726 38.1853 111.412L37.1333 113.139C35.2833 116.173 33.3603 119.291 31.5793 122.153C30.8843 123.279 30.2093 124.365 29.5683 125.393C26.5233 130.251 24.2573 133.789 24.2573 133.789Z" fill="#E4897B"/>
<path opacity="0.2" d="M38.8404 120.835C35.7184 124.75 32.7184 128.322 30.4864 130.916C30.1684 129.316 29.8454 127.432 29.5864 125.371C32.1654 121.231 35.3224 116.122 38.1864 111.389C38.1282 114.551 38.347 117.711 38.8404 120.835Z" fill="black"/>
<path d="M27.0562 88.4771C27.7333 93.066 28.6478 97.6168 29.7962 102.111C30.2512 103.917 30.5592 104.984 30.5592 104.984C30.5701 110.708 30.9067 116.426 31.5672 122.112C31.8172 124.353 32.0862 126.512 32.3672 128.512C33.3952 135.921 34.4762 141.236 34.4762 141.236L37.2902 140.869L37.1822 122.718L37.1232 113.097L37.0452 100.006L37.0162 97.725L36.8792 87.7711L36.6792 73.0901L26.8912 68.6901C25.5782 74.2861 26.0682 81.7621 27.0562 88.4771Z" fill="#E4897B"/>
<path opacity="0.2" d="M53.2484 88.57C50.7308 90.1403 47.9612 91.2644 45.0614 91.893C44.5284 90.068 43.8384 88.017 43.1044 86.021C41.2594 80.878 39.2334 76.047 39.2334 76.047L45.8334 64.865C45.8334 64.865 48.5204 72.309 50.9084 80.165C51.7994 83.021 52.6124 85.938 53.2484 88.57Z" fill="black"/>
<path opacity="0.2" d="M36.9612 93.954C33.9188 93.8884 30.8816 93.6694 27.8612 93.298C27.5772 91.766 27.2982 90.146 27.0542 88.478C26.0752 81.764 25.5862 74.286 26.8882 68.707L36.6762 73.107L36.8762 87.788L36.9612 93.954Z" fill="black"/>
<path d="M53.7223 87.5971C47.6003 91.1971 29.5913 92.7211 29.5913 92.7211L26.6553 84.4411L26.9883 92.6531H26.1123C26.1123 92.6531 19.5354 70.3861 28.2754 55.7931L43.9353 54.5841L45.6483 62.6491C45.6483 62.6491 50.0423 74.1881 53.7223 87.5971Z" fill="#263238"/>
<path d="M42.2371 144.864C41.7751 144.589 41.2668 144.4 40.7371 144.306C40.7371 144.306 39.0051 143.019 37.6371 138.59L35.5771 138.355C35.2275 138.324 34.8767 138.401 34.5725 138.576C34.2683 138.751 34.0255 139.016 33.8771 139.334C33.8332 139.422 33.8035 139.516 33.7891 139.613C33.7572 140.113 33.7572 140.614 33.7891 141.113C33.9142 142.784 34.1396 144.446 34.4641 146.09L34.8261 146.041L34.5261 142.899C34.4261 141.832 35.4171 142.958 35.8131 144.069C36.2091 145.18 36.8701 146.32 39.2001 146.027C41.9091 145.696 43.0201 145.432 42.2371 144.864Z" fill="#2E353A"/>
<path d="M37.0695 137.024C37.0695 137.024 37.8035 139.024 38.7825 141.224C39.2321 142.366 39.8968 143.411 40.7405 144.302C40.7405 144.302 39.0405 144.855 38.1225 143.788C37.2045 142.721 35.6315 138.87 33.8745 139.315C33.9676 139 34.0989 138.698 34.2655 138.415C35.1353 137.831 36.078 137.363 37.0695 137.024Z" fill="#E4897B"/>
<path d="M24.9922 143.13C24.8942 142.599 24.6986 142.09 24.4152 141.63C24.4152 141.63 24.2342 139.482 26.6422 135.523L25.4532 133.823C25.2477 133.539 24.9601 133.326 24.6292 133.211C24.2982 133.097 23.9401 133.086 23.6032 133.182C23.5087 133.209 23.4182 133.248 23.3342 133.299C22.9391 133.602 22.563 133.929 22.2082 134.278C21.0395 135.48 19.9445 136.751 18.9292 138.085L19.2082 138.32L21.3612 136.01C22.0952 135.232 21.9042 136.72 21.3372 137.747C20.7702 138.774 20.3582 140.032 22.1002 141.598C24.1542 143.43 25.0922 144.085 24.9922 143.13Z" fill="#2E353A"/>
<path d="M27.4431 134.053C27.4431 134.053 26.4301 135.932 25.4271 138.125C24.8717 139.217 24.5296 140.405 24.4191 141.625C24.4191 141.625 22.8821 140.72 23.0731 139.325C23.2641 137.93 25.1041 134.206 23.6061 133.178C23.9035 133.043 24.2156 132.942 24.5361 132.878C25.0301 132.78 27.4431 134.053 27.4431 134.053Z" fill="#E4897B"/>
<path d="M28.1134 54.1721L28.0254 56.5361L44.2094 55.9051L44.3174 53.1111L28.1134 54.1721Z" fill="#263238"/>
<path opacity="0.2" d="M28.1134 54.1721L28.0254 56.5361L44.2094 55.9051L44.3174 53.1111L28.1134 54.1721Z" fill="white"/>
<path d="M33.5822 53.3792L32.7793 53.39L32.8342 57.4756L33.6371 57.4649L33.5822 53.3792Z" fill="#263238"/>
<path d="M40.5573 53.3871L37.019 53.5701L37.1578 56.2535L40.6961 56.0705L40.5573 53.3871Z" fill="white"/>
<path d="M43.4763 52.6677L42.6733 52.6781L42.7265 56.7641L43.5295 56.7537L43.4763 52.6677Z" fill="#263238"/>
<path d="M23.7192 55.171L27.4192 57.285C28.2821 57.6129 29.0015 58.2352 29.4502 59.042C30.3552 60.51 29.0502 66.109 28.3502 66.109C27.6502 66.109 23.6672 65.238 23.7202 64.465C24.1526 62.9463 24.6871 61.4586 25.3202 60.012L21.7432 57.785L23.7192 55.171Z" fill="#E4897B"/>
<path d="M28.0253 54.167C28.0253 54.167 27.0463 39.818 23.7183 31.616C23.7183 31.616 30.5693 27.936 43.5183 25.254C43.5183 25.254 47.2273 34.283 44.3183 53.281L28.0253 54.167Z" fill="#407BFF"/>
<path opacity="0.6" d="M38.7862 40.4161C39.0402 40.4161 39.2462 40.2101 39.2462 39.9561C39.2462 39.702 39.0402 39.4961 38.7862 39.4961C38.5321 39.4961 38.3262 39.702 38.3262 39.9561C38.3262 40.2101 38.5321 40.4161 38.7862 40.4161Z" fill="white"/>
<path opacity="0.6" d="M39.7112 45.5251C39.7009 45.6256 39.6581 45.7199 39.5893 45.7939C39.5205 45.8679 39.4295 45.9175 39.33 45.9352C39.2306 45.9528 39.1281 45.9376 39.038 45.8919C38.948 45.8461 38.8753 45.7723 38.8309 45.6815C38.7866 45.5907 38.773 45.488 38.7922 45.3888C38.8114 45.2897 38.8624 45.1995 38.9375 45.1318C39.0125 45.0642 39.1076 45.0229 39.2082 45.0141C39.3088 45.0053 39.4096 45.0295 39.4952 45.0831C39.569 45.1292 39.6283 45.195 39.6665 45.2732C39.7047 45.3513 39.7202 45.4386 39.7112 45.5251Z" fill="white"/>
<path opacity="0.6" d="M39.7112 50.8151C39.7009 50.9156 39.6581 51.01 39.5893 51.084C39.5205 51.1579 39.4295 51.2075 39.33 51.2252C39.2306 51.2429 39.1281 51.2277 39.038 51.1819C38.948 51.1361 38.8753 51.0623 38.8309 50.9715C38.7866 50.8808 38.773 50.778 38.7922 50.6789C38.8114 50.5797 38.8624 50.4895 38.9375 50.4219C39.0125 50.3543 39.1076 50.3129 39.2082 50.3041C39.3088 50.2953 39.4096 50.3195 39.4952 50.3731C39.569 50.4192 39.6283 50.4851 39.6665 50.5632C39.7047 50.6413 39.7202 50.7286 39.7112 50.8151Z" fill="white"/>
<path d="M23.7193 31.6171C20.6753 33.2911 9.64027 45.9751 10.5063 49.7481C11.3723 53.5211 23.7193 59.4281 23.7193 59.4281L25.8383 55.7721C25.8383 55.7721 17.7533 49.7481 17.3673 48.7791C16.9813 47.8101 26.2673 40.5081 26.2673 40.5081C26.3849 38.5705 26.3277 36.6263 26.0963 34.6991C25.9977 34.025 25.7278 33.3876 25.3123 32.8478C24.8968 32.308 24.3496 31.8839 23.7233 31.6161L23.7193 31.6171Z" fill="#407BFF"/>
<path opacity="0.6" d="M23.7193 31.6171C20.6753 33.2911 9.64027 45.9751 10.5063 49.7481C11.3723 53.5211 23.7193 59.4281 23.7193 59.4281L25.8383 55.7721C25.8383 55.7721 17.7533 49.7481 17.3673 48.7791C16.9813 47.8101 26.2673 40.5081 26.2673 40.5081C26.3849 38.5705 26.3277 36.6263 26.0963 34.6991C25.9977 34.025 25.7278 33.3876 25.3123 32.8478C24.8968 32.308 24.3496 31.8839 23.7233 31.6161L23.7193 31.6171Z" fill="white"/>
<path d="M29.4353 34.162C29.4353 34.162 26.3353 29.102 33.1153 27.355C39.8953 25.608 41.9583 29.68 41.9583 29.68L38.5813 29.098L38.1553 37.168C36.5943 34.3748 34.0544 32.2584 31.0253 31.227L29.4353 34.162Z" fill="#407BFF"/>
<path opacity="0.6" d="M29.4353 34.162C29.4353 34.162 26.3353 29.102 33.1153 27.355C39.8953 25.608 41.9583 29.68 41.9583 29.68L38.5813 29.098L38.1553 37.168C36.5943 34.3748 34.0544 32.2584 31.0253 31.227L29.4353 34.162Z" fill="white"/>
<path d="M37.1335 33.198C34.8617 32.1367 32.6842 30.8842 30.6245 29.454C32.2155 27.954 31.9245 25.745 31.5245 24.364C31.3984 23.9268 31.2348 23.5012 31.0355 23.092L35.7185 23.968C35.6106 24.6151 35.5501 25.2692 35.5375 25.925C35.52 26.418 35.5644 26.9111 35.6695 27.393C35.9875 28.793 36.7855 28.812 36.7855 28.812C37.6125 30.345 37.1335 33.198 37.1335 33.198Z" fill="#E4897B"/>
<path opacity="0.2" d="M35.5423 25.941C35.5248 26.434 35.5692 26.9271 35.6743 27.409C34.8117 27.216 33.9979 26.848 33.2832 26.3278C32.5686 25.8077 31.9682 25.1465 31.5193 24.385C31.3932 23.9478 31.2296 23.5222 31.0303 23.113L35.7133 23.989C35.609 24.6347 35.5519 25.2871 35.5423 25.941Z" fill="black"/>
<path d="M34.6124 10.7841C39.6574 10.7841 40.0784 13.231 40.3674 17.425C40.7294 22.671 39.5604 26.4001 34.4674 25.2551C27.5504 23.7281 27.8444 10.7841 34.6124 10.7841Z" fill="#E4897B"/>
<path d="M37.7544 17.1901C38.0793 17.8001 38.4768 18.3686 38.9384 18.8831C38.818 19.0508 38.654 19.1824 38.4641 19.2635C38.2743 19.3446 38.0658 19.3721 37.8614 19.3431L37.7544 17.1901Z" fill="#DE5753"/>
<path d="M35.2431 16.852C35.2431 17.185 35.0721 17.459 34.8521 17.464C34.6321 17.469 34.4411 17.205 34.4361 16.864C34.4311 16.523 34.6021 16.257 34.8231 16.252C35.0441 16.247 35.2341 16.514 35.2431 16.852Z" fill="#263238"/>
<path d="M34.7344 16.2711L35.4534 15.9711C35.4534 15.9711 35.1044 16.5941 34.7344 16.2711Z" fill="#263238"/>
<path d="M39.4033 16.696C39.4033 17.029 39.2323 17.303 39.0123 17.308C38.7923 17.313 38.6013 17.044 38.5963 16.708C38.5913 16.372 38.7623 16.096 38.9873 16.091C39.2123 16.086 39.3943 16.358 39.4033 16.696Z" fill="#263238"/>
<path d="M38.894 16.1141L39.613 15.8141C39.613 15.8141 39.264 16.4321 38.894 16.1141Z" fill="#263238"/>
<path d="M35.2105 14.038C34.888 13.998 34.5606 14.0324 34.2535 14.1385C33.9463 14.2446 33.6675 14.4196 33.4385 14.65" stroke="#263238" stroke-width="0.708" stroke-linecap="round" stroke-linejoin="round"/>
<path d="M38.1704 13.8631C38.4492 13.7934 38.7402 13.7876 39.0216 13.8461C39.303 13.9047 39.5675 14.026 39.7954 14.2011" stroke="#263238" stroke-width="0.708" stroke-linecap="round" stroke-linejoin="round"/>
<path d="M30.2272 17.8901C30.2272 17.8901 32.1402 14.5431 31.8572 11.9591C31.8572 11.9591 34.7352 8.99308 38.6062 11.9251C39.4912 13.4506 40.0745 15.1322 40.3242 16.8781C40.3242 16.8781 41.1242 9.60109 34.1242 9.42009C27.1242 9.23909 27.1242 19.4911 30.7372 22.5551C30.7362 22.5531 29.0432 19.9791 30.2272 17.8901Z" fill="#263238"/>
<path d="M30.9032 18.756C30.8847 18.522 30.8201 18.2939 30.7134 18.0849C30.6066 17.8758 30.4597 17.6899 30.281 17.5376C30.1023 17.3854 29.8953 17.2699 29.672 17.1977C29.4486 17.1256 29.2132 17.0981 28.9792 17.117C27.7162 17.254 27.1102 19.843 30.2512 20.474C30.6922 20.557 30.9472 20.122 30.9032 18.756Z" fill="#E4897B"/>
<path d="M37.2895 21.55C36.8177 21.6565 36.3239 21.6021 35.8867 21.3956C35.4494 21.189 35.0938 20.8421 34.8765 20.41" stroke="#263238" stroke-width="0.708" stroke-linecap="round" stroke-linejoin="round"/>
<path d="M31.8821 11.958C31.8821 11.958 36.5411 9.89301 39.6241 12.619C39.6241 12.619 40.8331 9.02701 36.6881 7.80401C32.5431 6.58101 28.3691 10.704 28.3691 10.704L31.8821 11.958Z" fill="#263238"/>
<path d="M31.8813 11.9591C31.8813 11.9591 29.1653 14.6411 29.5563 19.9851C29.9937 24.0431 29.5907 28.1477 28.3723 32.0431C27.3103 35.3851 30.0903 36.3841 30.0903 36.3841C29.6664 36.4949 29.2236 36.5135 28.7919 36.4385C28.3601 36.3636 27.9495 36.1969 27.5877 35.9497C27.2259 35.7025 26.9213 35.3805 26.6946 35.0056C26.4678 34.6306 26.3242 34.2113 26.2733 33.7761C25.8423 31.5541 26.8603 26.7391 26.3513 21.0031C25.8423 15.2671 27.8593 11.2101 31.8813 11.9591Z" fill="#263238"/>
<path d="M107.465 0.052002C106.575 0.052002 105.705 0.31592 104.965 0.810387C104.225 1.30485 103.648 2.00766 103.307 2.82993C102.967 3.65219 102.878 4.55699 103.051 5.42991C103.225 6.30282 103.654 7.10465 104.283 7.73399C104.912 8.36332 105.714 8.7919 106.587 8.96553C107.46 9.13916 108.365 9.05005 109.187 8.70946C110.009 8.36886 110.712 7.79209 111.206 7.05207C111.701 6.31205 111.965 5.44202 111.965 4.552C111.965 3.35853 111.491 2.21394 110.647 1.37003C109.803 0.526112 108.658 0.052002 107.465 0.052002ZM107.465 4.119C107.206 4.119 106.954 4.04235 106.739 3.89874C106.524 3.75512 106.356 3.55099 106.257 3.31217C106.158 3.07335 106.133 2.81056 106.183 2.55702C106.233 2.30349 106.358 2.0706 106.541 1.88782C106.723 1.70503 106.956 1.58054 107.21 1.53011C107.463 1.47968 107.726 1.50557 107.965 1.60449C108.204 1.70342 108.408 1.87094 108.552 2.08588C108.695 2.30081 108.772 2.5535 108.772 2.812C108.772 3.15864 108.634 3.49108 108.389 3.73619C108.144 3.9813 107.811 4.119 107.465 4.119Z" fill="#407BFF"/>
<path opacity="0.6" d="M107.465 0.052002C106.575 0.052002 105.705 0.31592 104.965 0.810387C104.225 1.30485 103.648 2.00766 103.307 2.82993C102.967 3.65219 102.878 4.55699 103.051 5.42991C103.225 6.30282 103.654 7.10465 104.283 7.73399C104.912 8.36332 105.714 8.7919 106.587 8.96553C107.46 9.13916 108.365 9.05005 109.187 8.70946C110.009 8.36886 110.712 7.79209 111.206 7.05207C111.701 6.31205 111.965 5.44202 111.965 4.552C111.965 3.35853 111.491 2.21394 110.647 1.37003C109.803 0.526112 108.658 0.052002 107.465 0.052002ZM107.465 4.119C107.206 4.119 106.954 4.04235 106.739 3.89874C106.524 3.75512 106.356 3.55099 106.257 3.31217C106.158 3.07335 106.133 2.81056 106.183 2.55702C106.233 2.30349 106.358 2.0706 106.541 1.88782C106.723 1.70503 106.956 1.58054 107.21 1.53011C107.463 1.47968 107.726 1.50557 107.965 1.60449C108.204 1.70342 108.408 1.87094 108.552 2.08588C108.695 2.30081 108.772 2.5535 108.772 2.812C108.772 3.15864 108.634 3.49108 108.389 3.73619C108.144 3.9813 107.811 4.119 107.465 4.119Z" fill="white"/>
<path d="M148.189 5.96399H66.7371C62.6005 5.96399 59.2471 9.31738 59.2471 13.454V138.583C59.2471 142.72 62.6005 146.073 66.7371 146.073H148.189C152.326 146.073 155.679 142.72 155.679 138.583V13.454C155.679 9.31738 152.326 5.96399 148.189 5.96399Z" fill="#407BFF"/>
<path opacity="0.8" d="M150.574 14.1071H64.3511V139.407H150.574V14.1071Z" fill="white"/>
<path d="M129.412 4.77002H85.5189C84.453 4.77002 83.5889 5.63411 83.5889 6.70002V10.611C83.5889 11.6769 84.453 12.541 85.5189 12.541H129.412C130.478 12.541 131.342 11.6769 131.342 10.611V6.70002C131.342 5.63411 130.478 4.77002 129.412 4.77002Z" fill="#407BFF"/>
<path opacity="0.4" d="M129.412 4.77002H85.5189C84.453 4.77002 83.5889 5.63411 83.5889 6.70002V10.611C83.5889 11.6769 84.453 12.541 85.5189 12.541H129.412C130.478 12.541 131.342 11.6769 131.342 10.611V6.70002C131.342 5.63411 130.478 4.77002 129.412 4.77002Z" fill="white"/>
<path d="M125.117 19.759H111.297C111.016 19.7642 110.739 19.6923 110.495 19.5513C110.252 19.4103 110.052 19.2055 109.917 18.959C109.68 18.516 109.327 18.1456 108.896 17.8874C108.465 17.6292 107.972 17.4928 107.47 17.4928C106.967 17.4928 106.474 17.6292 106.044 17.8874C105.613 18.1456 105.26 18.516 105.023 18.959C104.887 19.2051 104.687 19.4097 104.444 19.5506C104.201 19.6916 103.924 19.7636 103.643 19.759H89.8078C89.4185 19.759 89.0451 19.6044 88.7698 19.3291C88.4945 19.0538 88.3398 18.6804 88.3398 18.291V10.045C88.3398 9.65569 88.4945 9.28231 88.7698 9.007C89.0451 8.7317 89.4185 8.57703 89.8078 8.57703H125.117C125.506 8.57703 125.88 8.7317 126.155 9.007C126.43 9.28231 126.585 9.65569 126.585 10.045V18.267C126.588 18.4619 126.553 18.6555 126.48 18.8365C126.408 19.0175 126.3 19.1823 126.164 19.3213C126.027 19.4602 125.864 19.5706 125.684 19.6459C125.505 19.7213 125.312 19.7601 125.117 19.76V19.759ZM107.465 16.505C108.146 16.5037 108.815 16.6886 109.399 17.0397C109.983 17.3907 110.46 17.8947 110.778 18.497C110.831 18.5864 110.907 18.66 110.999 18.7099C111.09 18.7598 111.193 18.7844 111.297 18.781H125.117C125.247 18.781 125.371 18.7295 125.463 18.6378C125.554 18.5461 125.606 18.4217 125.606 18.292V10.046C125.606 9.98182 125.593 9.91823 125.569 9.8589C125.544 9.79957 125.508 9.74566 125.463 9.70026C125.417 9.65485 125.363 9.61883 125.304 9.59425C125.245 9.56968 125.181 9.55702 125.117 9.55702H89.8078C89.7436 9.55702 89.68 9.56968 89.6207 9.59425C89.5614 9.61883 89.5075 9.65485 89.4621 9.70026C89.4167 9.74566 89.3807 9.79957 89.3561 9.8589C89.3315 9.91823 89.3188 9.98182 89.3188 10.046V18.268C89.3188 18.3977 89.3704 18.5221 89.4621 18.6138C89.5538 18.7055 89.6782 18.757 89.8078 18.757H103.638C103.741 18.76 103.843 18.7353 103.934 18.6853C104.024 18.6353 104.099 18.562 104.152 18.473C104.474 17.8757 104.952 17.3771 105.536 17.0307C106.119 16.6842 106.786 16.5028 107.465 16.506V16.505Z" fill="#263238"/>
<g opacity="0.2">
<path opacity="0.2" d="M125.118 19.759H111.298C111.017 19.7642 110.74 19.6923 110.497 19.5513C110.254 19.4103 110.054 19.2055 109.918 18.959C109.681 18.516 109.329 18.1456 108.898 17.8874C108.467 17.6292 107.974 17.4928 107.471 17.4928C106.969 17.4928 106.476 17.6292 106.045 17.8874C105.614 18.1456 105.261 18.516 105.024 18.959C104.889 19.2051 104.689 19.4097 104.445 19.5506C104.202 19.6916 103.925 19.7636 103.644 19.759H89.8093C89.42 19.759 89.0466 19.6044 88.7713 19.3291C88.496 19.0538 88.3413 18.6804 88.3413 18.291V10.045C88.3413 9.65569 88.496 9.28231 88.7713 9.007C89.0466 8.7317 89.42 8.57703 89.8093 8.57703H125.118C125.508 8.57703 125.881 8.7317 126.156 9.007C126.432 9.28231 126.586 9.65569 126.586 10.045V18.267C126.59 18.4619 126.554 18.6555 126.482 18.8365C126.41 19.0175 126.302 19.1823 126.165 19.3213C126.029 19.4602 125.866 19.5706 125.686 19.6459C125.506 19.7213 125.313 19.7601 125.118 19.76V19.759ZM107.466 16.505C108.148 16.5037 108.816 16.6886 109.4 17.0397C109.984 17.3907 110.461 17.8947 110.779 18.497C110.833 18.5864 110.909 18.66 111 18.7099C111.091 18.7598 111.194 18.7844 111.298 18.781H125.118C125.248 18.781 125.372 18.7295 125.464 18.6378C125.556 18.5461 125.607 18.4217 125.607 18.292V10.046C125.607 9.98182 125.595 9.91823 125.57 9.8589C125.546 9.79957 125.509 9.74566 125.464 9.70026C125.419 9.65485 125.365 9.61883 125.305 9.59425C125.246 9.56968 125.183 9.55702 125.118 9.55702H89.8093C89.7451 9.55702 89.6815 9.56968 89.6222 9.59425C89.5628 9.61883 89.5089 9.65485 89.4635 9.70026C89.4181 9.74566 89.3821 9.79957 89.3575 9.8589C89.333 9.91823 89.3203 9.98182 89.3203 10.046V18.268C89.3203 18.3977 89.3718 18.5221 89.4635 18.6138C89.5552 18.7055 89.6796 18.757 89.8093 18.757H103.639C103.743 18.76 103.845 18.7353 103.935 18.6853C104.026 18.6353 104.101 18.562 104.153 18.473C104.475 17.8757 104.954 17.3771 105.537 17.0307C106.121 16.6842 106.788 16.5028 107.466 16.506V16.505Z" fill="white"/>
</g>
<path d="M122.43 7.14294H92.515C91.8743 7.14294 91.355 7.66229 91.355 8.30294V9.32094C91.355 9.96159 91.8743 10.4809 92.515 10.4809H122.43C123.071 10.4809 123.59 9.96159 123.59 9.32094V8.30294C123.59 7.66229 123.071 7.14294 122.43 7.14294Z" fill="#407BFF"/>
<path opacity="0.6" d="M122.415 7.14294H92.4998C91.8592 7.14294 91.3398 7.66229 91.3398 8.30294V9.32094C91.3398 9.96159 91.8592 10.4809 92.4998 10.4809H122.415C123.055 10.4809 123.575 9.96159 123.575 9.32094V8.30294C123.575 7.66229 123.055 7.14294 122.415 7.14294Z" fill="white"/>
<path opacity="0.3" d="M115.472 82.542H106.761V91.253H115.472V82.542Z" fill="black"/>
<path opacity="0.3" d="M114.451 94.756H107.776C107.506 94.756 107.247 94.6487 107.056 94.4578C106.866 94.2669 106.758 94.008 106.758 93.738C106.76 93.4689 106.867 93.2112 107.058 93.0214C107.249 92.8315 107.507 92.725 107.776 92.725H114.451C114.72 92.725 114.979 92.8315 115.169 93.0214C115.36 93.2112 115.468 93.4689 115.469 93.738C115.469 94.008 115.362 94.2669 115.171 94.4578C114.98 94.6487 114.721 94.756 114.451 94.756Z" fill="black"/>
<path opacity="0.3" d="M142.483 82.542H120.084C119.569 82.542 119.152 82.9593 119.152 83.474V83.475C119.152 83.9897 119.569 84.407 120.084 84.407H142.483C142.998 84.407 143.415 83.9897 143.415 83.475V83.474C143.415 82.9593 142.998 82.542 142.483 82.542Z" fill="black"/>
<path opacity="0.3" d="M137.59 87.4351H120.084C119.569 87.4351 119.152 87.8523 119.152 88.3671V88.3681C119.152 88.8828 119.569 89.3001 120.084 89.3001H137.59C138.105 89.3001 138.522 88.8828 138.522 88.3681V88.3671C138.522 87.8523 138.105 87.4351 137.59 87.4351Z" fill="black"/>
<path opacity="0.3" d="M142.483 92.329H120.084C119.569 92.329 119.152 92.7463 119.152 93.261V93.262C119.152 93.7767 119.569 94.194 120.084 94.194H142.483C142.998 94.194 143.415 93.7767 143.415 93.262V93.261C143.415 92.7463 142.998 92.329 142.483 92.329Z" fill="black"/>
<path opacity="0.3" d="M129.76 97.223H120.084C119.569 97.223 119.152 97.6403 119.152 98.155V98.156C119.152 98.6708 119.569 99.088 120.084 99.088H129.76C130.275 99.088 130.692 98.6708 130.692 98.156V98.155C130.692 97.6403 130.275 97.223 129.76 97.223Z" fill="black"/>
<path opacity="0.3" d="M133.211 27.012H81.4741C81.0269 27.0107 80.5983 26.8324 80.282 26.5161C79.9657 26.1999 79.7875 25.7713 79.7861 25.324C79.7861 24.8763 79.964 24.447 80.2805 24.1304C80.5971 23.8138 81.0265 23.636 81.4741 23.636H133.211C133.658 23.6368 134.087 23.8148 134.402 24.1311C134.718 24.4474 134.896 24.876 134.896 25.323C134.895 25.7699 134.717 26.1983 134.402 26.5147C134.086 26.8311 133.658 27.0099 133.211 27.012Z" fill="black"/>
<path opacity="0.3" d="M141.84 37.005H107.691C107.444 37.0037 107.208 36.9046 107.033 36.7294C106.859 36.5542 106.761 36.3171 106.761 36.07C106.761 35.9479 106.785 35.827 106.832 35.7141C106.879 35.6013 106.947 35.4988 107.034 35.4124C107.12 35.3261 107.222 35.2576 107.335 35.2108C107.448 35.1641 107.569 35.14 107.691 35.14H141.84C142.087 35.14 142.323 35.238 142.498 35.4124C142.672 35.5868 142.77 35.8234 142.77 36.07C142.77 36.3171 142.672 36.5542 142.498 36.7294C142.324 36.9046 142.087 37.0037 141.84 37.005Z" fill="black"/>
<path opacity="0.3" d="M136.946 41.8989H107.691C107.444 41.8976 107.208 41.7985 107.033 41.6233C106.859 41.4481 106.761 41.2111 106.761 40.9639C106.761 40.8418 106.785 40.7209 106.832 40.608C106.879 40.4952 106.947 40.3927 107.034 40.3063C107.12 40.22 107.222 40.1515 107.335 40.1047C107.448 40.058 107.569 40.0339 107.691 40.0339H136.946C137.193 40.0339 137.429 40.1319 137.604 40.3063C137.778 40.4807 137.876 40.7173 137.876 40.9639C137.876 41.2111 137.778 41.4481 137.604 41.6233C137.43 41.7985 137.193 41.8976 136.946 41.8989Z" fill="black"/>
<path opacity="0.3" d="M141.84 46.793H107.691C107.444 46.7917 107.208 46.6926 107.033 46.5174C106.859 46.3422 106.761 46.1051 106.761 45.858C106.761 45.7359 106.785 45.6149 106.832 45.5021C106.879 45.3893 106.947 45.2867 107.034 45.2004C107.12 45.114 107.222 45.0455 107.335 44.9988C107.448 44.952 107.569 44.928 107.691 44.928H141.84C142.087 44.928 142.323 45.026 142.498 45.2004C142.672 45.3748 142.77 45.6113 142.77 45.858C142.77 46.1051 142.672 46.3422 142.498 46.5174C142.324 46.6926 142.087 46.7917 141.84 46.793Z" fill="black"/>
<path opacity="0.3" d="M132.051 51.687H107.691C107.444 51.6857 107.208 51.5866 107.033 51.4114C106.859 51.2362 106.761 50.9991 106.761 50.752C106.761 50.6299 106.785 50.509 106.832 50.3961C106.879 50.2833 106.947 50.1808 107.034 50.0944C107.12 50.0081 107.222 49.9396 107.335 49.8928C107.448 49.8461 107.569 49.822 107.691 49.822H132.051C132.298 49.822 132.534 49.92 132.709 50.0944C132.883 50.2688 132.981 50.5054 132.981 50.752C132.981 50.9991 132.883 51.2362 132.709 51.4114C132.535 51.5866 132.298 51.6857 132.051 51.687Z" fill="black"/>
<path opacity="0.3" d="M109.202 57.52L109.74 58.606L110.94 58.782L110.069 59.629L110.275 60.829L109.198 60.261L108.126 60.829L108.332 59.629L107.461 58.782L108.661 58.606L109.202 57.52Z" fill="black"/>
<path opacity="0.3" d="M115.279 57.52L115.817 58.606L117.017 58.782L116.146 59.629L116.352 60.829L115.28 60.261L114.203 60.829L114.409 59.629L113.538 58.782L114.738 58.606L115.279 57.52Z" fill="black"/>
<path opacity="0.3" d="M121.354 57.52L121.892 58.606L123.092 58.782L122.221 59.629L122.427 60.829L121.35 60.261L120.273 60.829L120.479 59.629L119.613 58.782L120.813 58.606L121.354 57.52Z" fill="black"/>
<path opacity="0.3" d="M127.432 57.52L127.965 58.606L129.165 58.782L128.294 59.629L128.5 60.829L127.428 60.261L126.351 60.829L126.557 59.629L125.686 58.782L126.886 58.606L127.432 57.52Z" fill="black"/>
<path opacity="0.3" d="M133.505 57.52L134.043 58.606L135.243 58.782L134.377 59.629L134.582 60.829L133.505 60.261L132.428 60.829L132.634 59.629L131.768 58.782L132.968 58.606L133.505 57.52Z" fill="black"/>
<path opacity="0.3" d="M109.202 63.754L109.74 64.84L110.94 65.016L110.069 65.863L110.275 67.063L109.198 66.495L108.126 67.063L108.332 65.863L107.461 65.016L108.661 64.84L109.202 63.754Z" fill="black"/>
<path opacity="0.3" d="M115.279 63.754L115.817 64.84L117.017 65.016L116.146 65.863L116.352 67.063L115.28 66.495L114.203 67.063L114.409 65.863L113.538 65.016L114.738 64.84L115.279 63.754Z" fill="black"/>
<path opacity="0.3" d="M121.354 63.754L121.892 64.84L123.092 65.016L122.221 65.863L122.427 67.063L121.35 66.495L120.273 67.063L120.479 65.863L119.613 65.016L120.813 64.84L121.354 63.754Z" fill="black"/>
<path opacity="0.1" d="M127.432 63.754L127.965 64.84L129.165 65.016L128.294 65.863L128.5 67.063L127.428 66.495L126.351 67.063L126.557 65.863L125.686 65.016L126.886 64.84L127.432 63.754Z" fill="black"/>
<path opacity="0.1" d="M133.505 63.754L134.043 64.84L135.243 65.016L134.377 65.863L134.582 67.063L133.505 66.495L132.428 67.063L132.634 65.863L131.768 65.016L132.968 64.84L133.505 63.754Z" fill="black"/>
<path opacity="0.3" d="M109.202 69.989L109.74 71.075L110.94 71.251L110.069 72.098L110.275 73.298L109.198 72.73L108.126 73.298L108.332 72.098L107.461 71.251L108.661 71.075L109.202 69.989Z" fill="black"/>
<path opacity="0.3" d="M115.279 69.989L115.817 71.075L117.017 71.251L116.146 72.098L116.352 73.298L115.28 72.73L114.203 73.298L114.409 72.098L113.538 71.251L114.738 71.075L115.279 69.989Z" fill="black"/>
<path opacity="0.3" d="M121.354 69.989L121.892 71.075L123.092 71.251L122.221 72.098L122.427 73.298L121.35 72.73L120.273 73.298L120.479 72.098L119.613 71.251L120.813 71.075L121.354 69.989Z" fill="black"/>
<path opacity="0.3" d="M127.432 69.989L127.965 71.075L129.165 71.251L128.294 72.098L128.5 73.298L127.428 72.73L126.351 73.298L126.557 72.098L125.686 71.251L126.886 71.075L127.432 69.989Z" fill="black"/>
<path opacity="0.1" d="M133.505 69.989L134.043 71.075L135.243 71.251L134.377 72.098L134.582 73.298L133.505 72.73L132.428 73.298L132.634 72.098L131.768 71.251L132.968 71.075L133.505 69.989Z" fill="black"/>
<path opacity="0.3" d="M115.472 107.01H106.761V115.721H115.472V107.01Z" fill="black"/>
<path opacity="0.3" d="M114.451 119.225H107.776C107.506 119.225 107.247 119.118 107.056 118.927C106.866 118.736 106.758 118.477 106.758 118.207C106.76 117.938 106.867 117.68 107.058 117.49C107.249 117.301 107.507 117.194 107.776 117.194H114.451C114.72 117.194 114.979 117.301 115.169 117.49C115.36 117.68 115.468 117.938 115.469 118.207C115.469 118.477 115.362 118.736 115.171 118.927C114.98 119.118 114.721 119.225 114.451 119.225Z" fill="black"/>
<path opacity="0.3" d="M142.483 107.01H120.084C119.569 107.01 119.152 107.427 119.152 107.942V107.943C119.152 108.458 119.569 108.875 120.084 108.875H142.483C142.998 108.875 143.415 108.458 143.415 107.943V107.942C143.415 107.427 142.998 107.01 142.483 107.01Z" fill="black"/>
<path opacity="0.3" d="M137.59 111.904H120.084C119.569 111.904 119.152 112.321 119.152 112.836V112.837C119.152 113.352 119.569 113.769 120.084 113.769H137.59C138.105 113.769 138.522 113.352 138.522 112.837V112.836C138.522 112.321 138.105 111.904 137.59 111.904Z" fill="black"/>
<path opacity="0.3" d="M142.483 116.798H120.084C119.569 116.798 119.152 117.215 119.152 117.73V117.731C119.152 118.246 119.569 118.663 120.084 118.663H142.483C142.998 118.663 143.415 118.246 143.415 117.731V117.73C143.415 117.215 142.998 116.798 142.483 116.798Z" fill="black"/>
<path opacity="0.3" d="M129.76 121.692H120.084C119.569 121.692 119.152 122.109 119.152 122.624V122.625C119.152 123.14 119.569 123.557 120.084 123.557H129.76C130.275 123.557 130.692 123.14 130.692 122.625V122.624C130.692 122.109 130.275 121.692 129.76 121.692Z" fill="black"/>
<path d="M101.201 35.14H69.793V76.845H101.201V35.14Z" fill="white"/>
<path d="M99.7332 36.609H71.2612V75.378H99.7332V36.609Z" fill="#407BFF"/>
<path opacity="0.4" d="M99.7332 36.609H71.2612V75.378H99.7332V36.609Z" fill="white"/>
<path d="M99.733 66.715V75.377H97.521C96.9091 74.7938 96.2347 74.28 95.51 73.845C95.1606 73.6346 94.7855 73.4703 94.394 73.356C91.071 72.456 95.862 63.568 95.862 63.568C97.3751 64.3086 98.6991 65.3849 99.733 66.715Z" fill="#407BFF"/>
<path opacity="0.6" d="M99.733 66.715V75.377H97.521C96.9091 74.7938 96.2347 74.28 95.51 73.845C95.1606 73.6346 94.7855 73.4703 94.394 73.356C91.071 72.456 95.862 63.568 95.862 63.568C97.3751 64.3086 98.6991 65.3849 99.733 66.715Z" fill="white"/>
<path opacity="0.2" d="M99.7332 75.349V75.378H97.5213C96.9094 74.7949 96.2349 74.2811 95.5103 73.846L96.1662 69.746C96.8058 70.2765 97.3733 70.8884 97.8542 71.566C98.6912 72.7109 99.3267 73.9902 99.7332 75.349Z" fill="black"/>
<path d="M93.6349 63.212C93.5659 63.564 93.4979 63.922 93.4199 64.274C93.3419 64.626 93.2339 65.111 93.1309 65.527C92.0639 69.819 90.3019 73.577 87.7769 75.378H79.1439C76.6329 74.101 76.154 71.952 76.237 69.701C76.291 68.179 76.6039 66.628 76.7259 65.301C76.7647 64.8418 76.7647 64.3802 76.7259 63.921C76.6619 63.226 76.5259 62.389 76.3689 61.474C75.6199 57.212 74.157 51.06 74.901 47.904C75.0847 46.8551 75.5144 45.8646 76.155 45.0139C76.7955 44.1632 77.6286 43.4765 78.5859 43.01C78.5859 43.01 79.5349 42.946 80.9939 42.956C82.0709 42.956 83.441 43.01 84.875 43.147H84.9749C86.5833 43.2919 88.1764 43.5736 89.737 43.989L90.0939 44.089C90.4019 44.182 90.7109 44.28 91.0089 44.389C91.2089 44.458 91.3959 44.531 91.5859 44.609C91.8335 44.7141 92.0568 44.869 92.2419 45.064C94.4629 47.336 95.0059 55.68 93.6349 63.212Z" fill="#263238"/>
<path d="M91.0562 45.08C94.1642 43.612 95.5041 53.7469 94.3941 61.0629" stroke="#263238" stroke-width="0.5" stroke-linecap="round" stroke-linejoin="round"/>
<path d="M98.0892 75.377H75.7533C75.6603 74.956 75.5673 74.535 75.4693 74.119C74.9175 71.6832 74.1862 69.2917 73.2812 66.964C74.1963 66.4202 75.1518 65.9475 76.1393 65.55C76.3253 65.467 76.5163 65.388 76.7213 65.31C77.4943 65.002 78.3952 64.684 79.4032 64.38L79.7263 64.287C80.4853 64.067 81.3022 63.861 82.1732 63.68C83.9913 63.2984 85.8374 63.0659 87.6933 62.985C89.1059 62.9182 90.5214 62.941 91.9312 63.053C92.4842 63.092 93.0472 63.146 93.6192 63.219C94.3382 63.307 95.0872 63.419 95.8262 63.561C95.9092 63.693 97.2702 65.861 97.8322 71.572C97.9712 72.7 98.0542 73.963 98.0892 75.377Z" fill="#407BFF"/>
<path d="M79.5321 68.741C79.5321 68.741 76.9771 62.448 84.9541 61.741C92.9311 61.034 94.5211 66.003 94.5211 66.003L90.8211 64.721L88.8631 73.75C87.6056 70.3068 85.1157 67.4524 81.8751 65.739L79.5321 68.741Z" fill="#407BFF"/>
<path opacity="0.6" d="M79.5321 68.741C79.5321 68.741 76.9771 62.448 84.9541 61.741C92.9311 61.034 94.5211 66.003 94.5211 66.003L90.8211 64.721L88.8631 73.75C87.6056 70.3068 85.1157 67.4524 81.8751 65.739L79.5321 68.741Z" fill="white"/>
<path d="M88.5273 69.749C86.4727 67.6183 84.14 65.7747 81.5923 64.268C83.5013 62.653 83.3053 60.108 82.9233 58.508C82.8021 58.0058 82.6385 57.5147 82.4343 57.04L87.7343 58.322C87.5707 59.0601 87.4611 59.8091 87.4063 60.563C87.3607 61.1183 87.3821 61.677 87.4703 62.2271C87.7493 63.8471 88.6593 63.915 88.6593 63.915C89.5253 65.736 88.5273 69.749 88.5273 69.749Z" fill="#E4897B"/>
<path opacity="0.2" d="M87.4261 60.5591C87.3804 61.1143 87.4019 61.673 87.4901 62.2231C85.3811 61.8311 83.8591 60.0451 82.9241 58.5231C82.8029 58.0208 82.6393 57.5297 82.4351 57.0551L87.7351 58.3371C87.5788 59.0693 87.4755 59.8119 87.4261 60.5591Z" fill="black"/>
<path d="M85.7469 43.1169C91.5169 43.1169 92.0009 45.9059 92.3339 50.7169C92.7449 56.7269 91.4039 60.9939 85.5759 59.6919C77.6619 57.9309 77.9949 43.1169 85.7469 43.1169Z" fill="#E4897B"/>
<path d="M89.3188 50.448C89.6893 51.1523 90.1429 51.8097 90.6698 52.406C90.5343 52.5993 90.3477 52.7511 90.1308 52.8443C89.9139 52.9376 89.6754 52.9686 89.4418 52.934L89.3188 50.448Z" fill="#DE5753"/>
<path d="M86.4668 50.0761C86.4668 50.4631 86.2758 50.7761 86.0168 50.7761C85.7578 50.7761 85.5278 50.4761 85.5278 50.0911C85.5278 49.7061 85.7188 49.3961 85.9728 49.3911C86.2268 49.3861 86.4568 49.6751 86.4668 50.0761Z" fill="#263238"/>
<path d="M85.8843 49.395L86.7113 49.048C86.7113 49.048 86.3103 49.758 85.8843 49.395Z" fill="#263238"/>
<path d="M91.2281 49.875C91.2281 50.262 91.0371 50.575 90.7781 50.575C90.5191 50.575 90.2891 50.275 90.2891 49.89C90.2891 49.505 90.4801 49.195 90.7341 49.19C90.9881 49.185 91.2181 49.495 91.2281 49.875Z" fill="#263238"/>
<path d="M90.645 49.215L91.467 48.8719C91.467 48.8719 91.095 49.587 90.645 49.215Z" fill="#263238"/>
<path d="M86.4269 46.837C86.0582 46.7918 85.684 46.8313 85.3329 46.9526C84.9818 47.0739 84.663 47.2738 84.4009 47.537" stroke="#263238" stroke-width="0.708" stroke-linecap="round" stroke-linejoin="round"/>
<path d="M89.8179 46.6511C90.1362 46.5709 90.4686 46.5641 90.7899 46.6311C91.1112 46.6982 91.4131 46.8373 91.6729 47.038" stroke="#263238" stroke-width="0.708" stroke-linecap="round" stroke-linejoin="round"/>
<path d="M80.7313 51.246C80.7313 51.246 82.9193 47.419 82.5963 44.458C82.5963 44.458 85.8853 41.067 90.3143 44.419C91.3291 46.1628 91.9942 48.0877 92.2723 50.086C92.2723 50.086 93.1923 41.767 85.1723 41.556C77.1523 41.345 77.1723 53.081 81.3063 56.585C81.3083 56.585 79.3753 53.639 80.7313 51.246Z" fill="#263238"/>
<path d="M81.4892 52.229C81.4443 51.6895 81.1878 51.1895 80.7756 50.8384C80.3634 50.4873 79.8291 50.3135 79.2892 50.355C77.8212 50.512 77.1452 53.477 80.7572 54.197C81.2592 54.299 81.5532 53.791 81.4892 52.229Z" fill="#E4897B"/>
<path d="M88.8099 55.4599C88.2693 55.581 87.7038 55.5182 87.2029 55.2815C86.702 55.0447 86.2945 54.6476 86.0449 54.153" stroke="#263238" stroke-width="0.708" stroke-linecap="round" stroke-linejoin="round"/>
<path d="M82.5951 44.458C82.5951 44.458 87.9241 42.094 91.4531 45.217C91.4531 45.217 92.8381 41.106 88.1111 39.702C83.3841 38.298 78.5781 43.025 78.5781 43.025L82.5951 44.458Z" fill="#263238"/>
<path d="M82.5981 44.458C82.5981 44.458 79.4861 47.526 79.9361 53.639C80.4362 58.2849 79.9746 62.9841 78.5801 67.444C77.3661 71.271 80.5371 72.411 80.5371 72.411C80.0521 72.537 79.5458 72.5576 79.0521 72.4715C78.5585 72.3853 78.0891 72.1944 77.6755 71.9115C77.2619 71.6287 76.9137 71.2605 76.6543 70.8317C76.395 70.403 76.2306 69.9236 76.1721 69.426C75.6831 66.881 76.8471 61.371 76.2601 54.808C75.6731 48.245 78.0141 43.601 82.5981 44.458Z" fill="#263238"/>
<path opacity="0.2" d="M76.7862 75.377H75.7532C75.6602 74.956 75.5672 74.535 75.4692 74.119L76.2472 73.439C76.4673 74.073 76.6473 74.7203 76.7862 75.377Z" fill="black"/>
<path d="M76.2532 75.377H71.2612V68.526C71.8785 67.9415 72.554 67.4217 73.2772 66.975C73.9953 67.2784 74.6227 67.7624 75.0986 68.3798C75.5745 68.9973 75.8827 69.7273 75.9932 70.499C76.1375 71.4715 76.221 72.4521 76.2432 73.435C76.2672 74.134 76.2622 74.804 76.2532 75.377Z" fill="#407BFF"/>
<path opacity="0.6" d="M76.2532 75.377H71.2612V68.526C71.8785 67.9415 72.554 67.4217 73.2772 66.975C73.9953 67.2784 74.6227 67.7624 75.0986 68.3798C75.5745 68.9973 75.8827 69.7273 75.9932 70.499C76.1375 71.4715 76.221 72.4521 76.2432 73.435C76.2672 74.134 76.2622 74.804 76.2532 75.377Z" fill="white"/>
<path opacity="0.3" d="M101.201 81.705H69.793V123.351H101.201V81.705Z" fill="black"/>
<path opacity="0.3" d="M95.9213 88.16H74.5013C74.2542 88.1587 74.0176 88.0596 73.8434 87.8844C73.6691 87.7092 73.5713 87.4722 73.5713 87.2251C73.5713 86.9784 73.6693 86.7418 73.8437 86.5674C74.0181 86.393 74.2546 86.2951 74.5013 86.2951H95.9213C96.0438 86.2944 96.1653 86.318 96.2787 86.3644C96.3921 86.4108 96.4952 86.4792 96.5821 86.5657C96.669 86.6521 96.738 86.7548 96.785 86.868C96.8321 86.9812 96.8563 87.1025 96.8563 87.2251C96.8563 87.473 96.7578 87.7108 96.5824 87.8862C96.4071 88.0615 96.1693 88.16 95.9213 88.16Z" fill="white"/>
<path opacity="0.3" d="M95.9243 91.502H74.5033C73.9886 91.502 73.5713 91.9192 73.5713 92.434V92.435C73.5713 92.9497 73.9886 93.367 74.5033 93.367H95.9243C96.439 93.367 96.8563 92.9497 96.8563 92.435V92.434C96.8563 91.9192 96.439 91.502 95.9243 91.502Z" fill="white"/>
<path opacity="0.3" d="M86.1333 98.579H74.5013C74.2542 98.5777 74.0176 98.4786 73.8434 98.3034C73.6691 98.1282 73.5713 97.8911 73.5713 97.644C73.5713 97.3974 73.6693 97.1608 73.8437 96.9864C74.0181 96.812 74.2546 96.714 74.5013 96.714H86.1343C86.2568 96.7133 86.3783 96.7369 86.4917 96.7834C86.6051 96.8298 86.7082 96.8982 86.7951 96.9846C86.882 97.0711 86.951 97.1738 86.998 97.287C87.0451 97.4001 87.0693 97.5215 87.0693 97.644C87.0693 97.7669 87.0451 97.8886 86.998 98.0021C86.951 98.1156 86.882 98.2187 86.7951 98.3055C86.7081 98.3924 86.605 98.4612 86.4914 98.5081C86.3779 98.5551 86.2562 98.5792 86.1333 98.579Z" fill="white"/>
<path opacity="0.3" d="M95.9213 103.781H74.5013C74.2546 103.781 74.0181 103.683 73.8437 103.509C73.6693 103.334 73.5713 103.098 73.5713 102.851C73.5713 102.604 73.6691 102.367 73.8434 102.192C74.0176 102.016 74.2542 101.917 74.5013 101.916H95.9213C96.1693 101.916 96.4071 102.015 96.5824 102.19C96.7578 102.365 96.8563 102.603 96.8563 102.851C96.8563 102.974 96.8321 103.095 96.785 103.208C96.738 103.321 96.669 103.424 96.5821 103.51C96.4952 103.597 96.3921 103.665 96.2787 103.712C96.1653 103.758 96.0438 103.782 95.9213 103.781Z" fill="white"/>
<path opacity="0.3" d="M95.9213 108.993H74.5013C74.2546 108.993 74.0181 108.895 73.8437 108.721C73.6693 108.546 73.5713 108.31 73.5713 108.063C73.5713 107.816 73.6693 107.58 73.8437 107.405C74.0181 107.231 74.2546 107.133 74.5013 107.133H95.9213C96.0438 107.132 96.1653 107.156 96.2787 107.202C96.3921 107.249 96.4952 107.317 96.5821 107.404C96.669 107.49 96.738 107.593 96.785 107.706C96.8321 107.819 96.8563 107.941 96.8563 108.063C96.8563 108.186 96.8321 108.307 96.785 108.42C96.738 108.533 96.669 108.636 96.5821 108.722C96.4952 108.809 96.3921 108.877 96.2787 108.924C96.1653 108.97 96.0438 108.994 95.9213 108.993Z" fill="white"/>
<path opacity="0.3" d="M81.2403 114.185H74.5013C74.2546 114.185 74.0181 114.087 73.8437 113.913C73.6693 113.738 73.5713 113.502 73.5713 113.255C73.5706 113.133 73.5942 113.011 73.6407 112.898C73.6871 112.784 73.7555 112.681 73.8419 112.594C73.9283 112.507 74.0311 112.438 74.1442 112.391C74.2574 112.344 74.3787 112.32 74.5013 112.32H81.2403C81.3633 112.319 81.4852 112.343 81.5989 112.39C81.7126 112.437 81.816 112.505 81.9029 112.592C81.9899 112.679 82.0587 112.783 82.1055 112.896C82.1522 113.01 82.176 113.132 82.1753 113.255C82.1753 113.378 82.1511 113.499 82.104 113.612C82.057 113.725 81.988 113.828 81.9011 113.914C81.8142 114.001 81.7111 114.069 81.5977 114.116C81.4843 114.162 81.3628 114.186 81.2403 114.185Z" fill="white"/>
<path opacity="0.3" d="M91.0273 119.412H74.5013C74.2546 119.412 74.0181 119.314 73.8437 119.14C73.6693 118.965 73.5713 118.729 73.5713 118.482C73.5713 118.235 73.6693 117.999 73.8437 117.824C74.0181 117.65 74.2546 117.552 74.5013 117.552H91.0273C91.1498 117.551 91.2713 117.575 91.3847 117.621C91.4981 117.668 91.6012 117.736 91.6881 117.823C91.775 117.909 91.844 118.012 91.891 118.125C91.9381 118.238 91.9623 118.359 91.9623 118.482C91.9623 118.605 91.9381 118.726 91.891 118.839C91.844 118.952 91.775 119.055 91.6881 119.141C91.6012 119.228 91.4981 119.296 91.3847 119.343C91.2713 119.389 91.1498 119.413 91.0273 119.412Z" fill="white"/>
<path d="M171.124 115.601C170.708 115.435 170.259 115.371 169.814 115.415C169.368 115.458 168.94 115.608 168.564 115.851C166.191 117.207 165.197 122.776 164.781 127.107C164.933 120.965 165.941 112.47 169.969 107.845L169.602 107.527C166.23 111.393 164.919 117.735 164.464 123.3C164.4 120.932 164.253 118.367 163.94 115.925C164.048 110.684 164.503 105.925 165.702 104.307L165.302 104.013C164.245 105.442 163.736 109.073 163.53 113.313C162.93 110.137 161.969 107.44 160.466 106.055L160.138 106.412C161.929 108.061 162.918 111.824 163.438 115.984C163.438 116.571 163.438 117.168 163.414 117.765C162.949 115.318 162.323 113.307 161.496 112.499C158.706 109.788 155.428 112.46 155.396 112.499L155.709 112.871C155.826 112.771 158.68 110.458 161.151 112.871C162.237 113.923 162.957 117.363 163.427 120.995C163.491 125.346 163.706 129.437 163.853 131.815C163.854 132.019 163.843 132.224 163.819 132.427H163.892C163.946 133.249 163.985 133.778 163.992 133.895L164.423 133.861C164.426 134.05 164.442 134.238 164.472 134.424L164.961 134.38C164.961 134.341 164.888 133.617 164.834 132.422H164.986C164.986 132.285 165.147 118.377 168.828 116.273C169.139 116.067 169.495 115.94 169.865 115.901C170.236 115.863 170.611 115.915 170.957 116.053C173.11 116.944 174.257 121.064 174.27 121.108L174.759 120.976C174.672 120.801 173.5 116.583 171.124 115.601Z" fill="#263238"/>
<path d="M158.395 116.045C156.257 116.197 154.602 119.089 154.529 119.211L154.96 119.451C154.96 119.422 156.56 116.666 158.43 116.515C158.88 116.523 159.32 116.643 159.71 116.867C160.101 117.09 160.428 117.408 160.662 117.792C163.549 121.565 162.962 132.282 162.962 132.392L163.451 132.421C163.451 131.971 164.051 121.41 161.051 117.5C160.77 117.051 160.378 116.682 159.913 116.427C159.448 116.172 158.925 116.041 158.395 116.045Z" fill="#263238"/>
<g opacity="0.2">
<path opacity="0.2" d="M171.124 115.601C170.709 115.435 170.26 115.371 169.814 115.415C169.369 115.458 168.94 115.608 168.564 115.851C166.191 117.207 165.197 122.776 164.781 127.107C164.933 120.965 165.941 112.47 169.969 107.845L169.602 107.527C166.23 111.393 164.919 117.735 164.464 123.3C164.4 120.932 164.253 118.367 163.94 115.925C164.048 110.684 164.503 105.925 165.702 104.307L165.302 104.013C164.245 105.442 163.736 109.073 163.53 113.313C162.93 110.137 161.969 107.44 160.466 106.055L160.138 106.412C161.929 108.061 162.918 111.824 163.438 115.984C163.438 116.571 163.438 117.168 163.414 117.765C162.949 115.318 162.323 113.307 161.496 112.499C158.706 109.788 155.428 112.46 155.396 112.499L155.71 112.871C155.827 112.771 158.68 110.458 161.151 112.871C162.237 113.923 162.957 117.363 163.427 120.995C163.491 125.346 163.706 129.437 163.853 131.815C163.854 132.019 163.843 132.224 163.819 132.427H163.892C163.946 133.249 163.985 133.778 163.992 133.895L164.423 133.861C164.426 134.05 164.443 134.238 164.472 134.424L164.961 134.38C164.961 134.341 164.889 133.617 164.835 132.422H164.986C164.986 132.285 165.147 118.377 168.828 116.273C169.139 116.067 169.495 115.94 169.866 115.901C170.237 115.863 170.611 115.915 170.957 116.053C173.11 116.944 174.257 121.064 174.27 121.108L174.759 120.976C174.672 120.801 173.5 116.583 171.124 115.601Z" fill="white"/>
<path opacity="0.2" d="M158.395 116.045C156.257 116.197 154.602 119.089 154.529 119.211L154.96 119.451C154.96 119.422 156.56 116.666 158.43 116.515C158.88 116.522 159.32 116.643 159.71 116.867C160.101 117.09 160.428 117.408 160.662 117.792C163.549 121.565 162.962 132.282 162.962 132.392L163.451 132.421C163.451 131.971 164.051 121.41 161.051 117.5C160.77 117.051 160.378 116.681 159.913 116.427C159.448 116.172 158.925 116.041 158.395 116.045Z" fill="white"/>
</g>
<path d="M171.975 118.124C171.975 118.124 170.061 118.824 170.629 120.498C171.197 122.172 177.255 124.898 177.255 124.898C177.255 124.898 179.795 122.574 177.465 118.791C175.135 115.008 172.029 116.93 171.975 118.124Z" fill="#263238"/>
<path d="M163.646 114.949C163.646 114.949 165.687 114.861 165.804 116.623C165.921 118.385 161.404 123.244 161.404 123.244C161.404 123.244 158.164 122.074 158.859 117.685C159.554 113.296 163.142 113.867 163.646 114.949Z" fill="#263238"/>
<path d="M161.919 106.531C161.919 106.531 163.28 106.384 163.172 105.552C163.064 104.72 157.882 102.591 154.853 106.041C154.853 106.041 156.811 109.398 159.639 109.441C162.467 109.484 161.919 106.531 161.919 106.531Z" fill="#263238"/>
<path d="M164.454 104.519C164.454 104.519 163.226 105.119 162.878 104.353C162.53 103.587 165.814 99.043 170.219 100.353C170.219 100.353 170.336 104.239 167.963 105.77C165.59 107.301 164.454 104.519 164.454 104.519Z" fill="#263238"/>
<path d="M158.013 117.454C158.013 117.454 158.953 116.696 157.94 116.324C156.927 115.952 151.955 116.06 151.906 120.983C151.906 120.983 157.695 121.962 158.406 120.073C159.117 118.184 158.013 117.454 158.013 117.454Z" fill="#263238"/>
<path d="M169.822 106.409C169.822 106.409 168.882 105.651 169.895 105.279C170.908 104.907 175.88 105.015 175.929 109.938C175.929 109.938 170.14 110.917 169.429 109.028C168.718 107.139 169.822 106.409 169.822 106.409Z" fill="#263238"/>
<path d="M166.756 110.373C166.756 110.373 166.673 109.453 167.417 109.815C168.161 110.177 170.755 112.971 168.068 115.624C168.068 115.624 164.451 112.947 165.102 111.552C165.753 110.157 166.756 110.373 166.756 110.373Z" fill="#263238"/>
<path d="M157.162 111.689C157.162 111.689 157.72 110.95 156.903 110.862C156.086 110.774 152.396 111.753 153.252 115.428C153.252 115.428 157.74 115.09 157.931 113.563C158.122 112.036 157.162 111.689 157.162 111.689Z" fill="#263238"/>
<path d="M172.328 146.072H156.928L155.278 129.218H173.997L172.328 146.072Z" fill="#407BFF"/>
<path opacity="0.2" d="M172.328 146.072H156.928L155.278 129.218H173.997L172.328 146.072Z" fill="white"/>
<path d="M174.819 127.359H154.456V131.078H174.819V127.359Z" fill="#407BFF"/>
<path opacity="0.5" d="M174.819 127.359H154.456V131.078H174.819V127.359Z" fill="white"/>
</svg>
