<svg width="13" height="13" viewBox="0 0 13 13" fill="none" xmlns="http://www.w3.org/2000/svg">
<path d="M6.73401 0.996094C5.64191 0.996292 4.57439 1.32032 3.66643 1.9272C2.75847 2.53409 2.05086 3.39658 1.63307 4.40561C1.21527 5.41464 1.10606 6.5249 1.31924 7.596C1.53242 8.66709 2.05842 9.65093 2.83073 10.4231C3.60303 11.1953 4.58696 11.7211 5.65809 11.9341C6.72923 12.147 7.83947 12.0376 8.84842 11.6197C9.85738 11.2017 10.7197 10.4939 11.3265 9.58585C11.9332 8.67778 12.257 7.6102 12.257 6.51809C12.2567 5.05348 11.6747 3.64894 10.639 2.61339C9.60328 1.57784 8.19863 0.996094 6.73401 0.996094V0.996094ZM6.73401 2.64709C7.09549 2.6463 7.44907 2.75276 7.75003 2.95298C8.05098 3.15321 8.28577 3.43821 8.4247 3.77192C8.56362 4.10564 8.60043 4.47306 8.53047 4.8277C8.46051 5.18234 8.28692 5.50825 8.03167 5.7642C7.77642 6.02015 7.45098 6.19463 7.09653 6.26557C6.74209 6.3365 6.37456 6.3007 6.04047 6.16269C5.70638 6.02468 5.42074 5.79067 5.21969 5.49026C5.01864 5.18986 4.91121 4.83657 4.91102 4.47509C4.91101 3.99124 5.10295 3.52714 5.44472 3.18462C5.78648 2.84211 6.25016 2.64915 6.73401 2.64809V2.64709ZM6.73401 10.5971C5.7664 10.5982 4.83033 10.253 4.09502 9.62409C4.0094 9.55104 3.94065 9.46027 3.89352 9.35807C3.84639 9.25586 3.82199 9.14464 3.82202 9.03209C3.8228 8.79011 3.87126 8.55066 3.96462 8.32741C4.05798 8.10417 4.19441 7.9015 4.36612 7.731C4.53783 7.5605 4.74145 7.4255 4.96535 7.33372C5.18925 7.24194 5.42904 7.19517 5.67102 7.19609H7.79702C8.03907 7.19504 8.27895 7.24176 8.50292 7.33357C8.72688 7.42538 8.93054 7.56048 9.1022 7.73112C9.27387 7.90177 9.41018 8.10461 9.50333 8.32803C9.59647 8.55144 9.64462 8.79104 9.64501 9.03309C9.64503 9.1455 9.62062 9.25656 9.57349 9.35861C9.52635 9.46065 9.45761 9.55123 9.37201 9.62409C8.63634 10.253 7.69986 10.5978 6.73202 10.5961L6.73401 10.5971Z" stroke="white" stroke-width="0.5"/>
</svg>
