<svg width="158" height="158" viewBox="0 0 158 158" fill="none" xmlns="http://www.w3.org/2000/svg">
<g clip-path="url(#clip0_605_4797)">
<path d="M80.463 142.395C120.054 142.395 152.148 126.457 152.148 106.796C152.148 87.1354 120.054 71.1973 80.463 71.1973C40.8724 71.1973 8.77783 87.1354 8.77783 106.796C8.77783 126.457 40.8724 142.395 80.463 142.395Z" fill="#F5F5F5"/>
<path d="M69.7884 106.849C77.9455 106.849 84.5582 103.03 84.5582 98.3199C84.5582 93.6095 77.9455 89.791 69.7884 89.791C61.6312 89.791 55.0186 93.6095 55.0186 98.3199C55.0186 103.03 61.6312 106.849 69.7884 106.849Z" fill="#E0E0E0"/>
<path d="M126.773 122.608C134.714 127.193 134.714 134.616 126.773 139.21C118.832 143.805 105.955 143.799 98.0166 139.21C90.0787 134.622 90.0756 127.202 98.0166 122.605C105.958 118.007 118.832 118.016 126.773 122.608Z" fill="#E0E0E0"/>
<path d="M52.6077 92.4651L94.3197 116.541C94.4865 116.637 94.625 116.775 94.7213 116.941C94.8176 117.108 94.8683 117.297 94.8683 117.489C94.8683 117.681 94.8176 117.87 94.7213 118.037C94.625 118.203 94.4865 118.341 94.3197 118.437L69.7096 132.657C69.1996 132.952 68.6208 133.107 68.0317 133.107C67.4425 133.107 66.8638 132.952 66.3537 132.657L24.648 108.565C24.4805 108.47 24.3411 108.332 24.2442 108.166C24.1473 107.999 24.0962 107.81 24.0962 107.617C24.0962 107.425 24.1473 107.235 24.2442 107.069C24.3411 106.902 24.4805 106.764 24.648 106.669L49.2613 92.4493C49.7714 92.158 50.3492 92.0061 50.9366 92.0088C51.524 92.0116 52.1004 92.1689 52.6077 92.4651V92.4651Z" fill="#E0E0E0"/>
<path d="M36.5327 110.379L65.4404 127.566C65.5439 127.627 65.6298 127.714 65.6895 127.818C65.7491 127.922 65.7805 128.04 65.7805 128.16C65.7805 128.28 65.7491 128.398 65.6895 128.503C65.6298 128.607 65.5439 128.694 65.4404 128.754L49.9564 137.688C49.6359 137.872 49.2725 137.97 48.9025 137.97C48.5326 137.97 48.1692 137.872 47.8487 137.688L18.96 120.5C18.8556 120.44 18.7689 120.354 18.7087 120.249C18.6484 120.145 18.6167 120.027 18.6167 119.906C18.6167 119.786 18.6484 119.668 18.7087 119.563C18.7689 119.459 18.8556 119.372 18.96 119.312L34.444 110.379C34.7622 110.198 35.1221 110.103 35.4883 110.103C35.8546 110.103 36.2145 110.198 36.5327 110.379V110.379Z" fill="#E0E0E0"/>
<path d="M89.6493 75.2743L139.261 103.904C139.613 104.107 140.013 104.214 140.419 104.214C140.826 104.214 141.225 104.107 141.578 103.904L144.693 102.106C144.815 102.036 144.917 101.935 144.987 101.813C145.058 101.691 145.095 101.553 145.095 101.412C145.095 101.271 145.058 101.133 144.987 101.011C144.917 100.89 144.815 100.789 144.693 100.719L95.1161 72.1079C94.7551 71.8984 94.3452 71.7881 93.9279 71.7881C93.5106 71.7881 93.1007 71.8984 92.7397 72.1079L89.6556 73.887C89.5331 73.9565 89.4312 74.057 89.3601 74.1785C89.2889 74.2999 89.2511 74.438 89.2505 74.5788C89.2499 74.7196 89.2864 74.858 89.3564 74.9801C89.4264 75.1022 89.5274 75.2037 89.6493 75.2743Z" fill="#E0E0E0"/>
<path d="M96.8213 70.5311L148.953 100.629C149.139 100.737 149.35 100.794 149.566 100.794C149.781 100.795 149.993 100.738 150.179 100.631C150.366 100.524 150.521 100.369 150.629 100.183C150.737 99.9965 150.794 99.785 150.794 99.5697V30.9064C150.794 30.3204 150.639 29.7449 150.345 29.2376C150.052 28.7302 149.631 28.3088 149.123 28.0155L99.3124 -0.753092C99.0599 -0.898866 98.7735 -0.975603 98.4819 -0.975586C98.1904 -0.975569 97.9039 -0.8988 97.6515 -0.752997C97.399 -0.607194 97.1894 -0.397495 97.0436 -0.144982C96.8979 0.107532 96.8212 0.39396 96.8213 0.685509V70.5311Z" fill="#9269AD"/>
<path opacity="0.5" d="M96.8213 70.5311L148.953 100.629C149.139 100.737 149.35 100.794 149.566 100.794C149.781 100.795 149.993 100.738 150.179 100.631C150.366 100.524 150.521 100.369 150.629 100.183C150.737 99.9965 150.794 99.785 150.794 99.5697V30.9064C150.794 30.3204 150.639 29.7449 150.345 29.2376C150.052 28.7302 149.631 28.3088 149.123 28.0155L99.3124 -0.753092C99.0599 -0.898866 98.7735 -0.975603 98.4819 -0.975586C98.1904 -0.975569 97.9039 -0.8988 97.6515 -0.752997C97.399 -0.607194 97.1894 -0.397495 97.0436 -0.144982C96.8979 0.107532 96.8212 0.39396 96.8213 0.685509V70.5311Z" fill="white"/>
<path d="M98.2969 73.685L146.099 101.282V31.5077L98.2969 3.91113V73.685Z" fill="#9269AD"/>
<path opacity="0.8" d="M98.2969 73.685L146.099 101.282V31.5077L98.2969 3.91113V73.685Z" fill="white"/>
<path d="M93.6294 68.1117L141.431 95.7082L146.099 31.5077L98.2972 3.91113L93.6294 68.1117Z" fill="#9269AD"/>
<path opacity="0.9" d="M93.6294 68.1117L141.431 95.7082L146.099 31.5077L98.2972 3.91113L93.6294 68.1117Z" fill="white"/>
<path d="M98.2969 3.91136L146.099 31.5079L147.91 30.4623L100.108 2.8623L98.2969 3.91136Z" fill="#9269AD"/>
<path opacity="0.7" d="M98.2969 3.91136L146.099 31.5079L147.91 30.4623L100.108 2.8623L98.2969 3.91136Z" fill="white"/>
<path d="M147.91 30.4629V99.9702L146.099 101.282V31.5085L147.91 30.4629Z" fill="#9269AD"/>
<path d="M147.91 30.4629V99.9702L146.099 101.282V31.5085L147.91 30.4629Z" fill="#9269AD"/>
<path opacity="0.7" d="M147.91 30.4629V99.9702L146.099 101.282V31.5085L147.91 30.4629Z" fill="white"/>
<path d="M132.943 40.563C132.901 40.5682 132.858 40.5682 132.817 40.563C132.744 40.5434 132.678 40.5072 132.622 40.4574C132.566 40.4076 132.523 40.3455 132.495 40.276L131.074 36.7051C131.028 36.5868 131.03 36.4551 131.081 36.3386C131.131 36.2222 131.226 36.1304 131.344 36.0832C131.402 36.0594 131.464 36.0474 131.527 36.0479C131.59 36.0485 131.653 36.0615 131.71 36.0863C131.768 36.1111 131.821 36.1472 131.864 36.1924C131.908 36.2376 131.943 36.2911 131.966 36.3497L133.148 39.3192L139.951 33.9168C140.001 33.8758 140.058 33.8452 140.119 33.8268C140.181 33.8084 140.245 33.8025 140.309 33.8095C140.373 33.8165 140.435 33.8363 140.49 33.8676C140.546 33.899 140.596 33.9412 140.635 33.9919C140.675 34.0417 140.705 34.0989 140.723 34.1602C140.741 34.2215 140.746 34.2858 140.739 34.3493C140.732 34.4127 140.713 34.4742 140.682 34.5302C140.651 34.5862 140.61 34.6355 140.56 34.6753L133.25 40.4844C133.16 40.5451 133.051 40.5729 132.943 40.563Z" fill="#9269AD"/>
<path d="M124.999 32.8649C124.915 32.8648 124.833 32.8436 124.759 32.8034L104.633 21.1852C104.523 21.1213 104.442 21.0163 104.41 20.8933C104.377 20.7702 104.395 20.6393 104.458 20.5291C104.522 20.419 104.627 20.3388 104.75 20.3061C104.873 20.2734 105.004 20.291 105.114 20.3549L125.241 31.973C125.334 32.0252 125.407 32.1069 125.448 32.2051C125.489 32.3032 125.496 32.4124 125.468 32.5151C125.441 32.6179 125.379 32.7084 125.294 32.7724C125.209 32.8363 125.105 32.8701 124.999 32.8683V32.8649Z" fill="#9269AD"/>
<path d="M124.537 36.9962C124.453 36.9965 124.37 36.9741 124.298 36.9313L104.171 25.3132C104.061 25.2493 103.981 25.1442 103.948 25.0212C103.916 24.8982 103.933 24.7672 103.997 24.6571C104.061 24.547 104.166 24.4667 104.289 24.4341C104.412 24.4014 104.543 24.4189 104.653 24.4828L124.78 36.101C124.873 36.1532 124.945 36.2348 124.986 36.333C125.028 36.4312 125.035 36.5403 125.007 36.643C124.979 36.7458 124.918 36.8363 124.833 36.9003C124.748 36.9643 124.644 36.998 124.537 36.9962Z" fill="#9269AD"/>
<path d="M136.152 45.7952C135.934 45.795 135.72 45.7385 135.53 45.6312L129.307 42.1901C128.859 41.9442 128.491 41.5736 128.248 41.123C128.006 40.6724 127.899 40.1612 127.941 39.6512L128.532 32.7111C128.551 32.4965 128.625 32.2903 128.745 32.1114C128.865 31.9325 129.028 31.7866 129.219 31.6869C129.41 31.5873 129.623 31.5372 129.838 31.5412C130.054 31.5452 130.265 31.6032 130.452 31.7099L136.996 35.4892C137.306 35.6703 137.56 35.9346 137.728 36.2521C137.897 36.5697 137.973 36.9279 137.949 37.2866L137.416 44.6026C137.4 44.8157 137.331 45.0214 137.214 45.2005C137.098 45.3797 136.938 45.5266 136.75 45.6277C136.567 45.731 136.362 45.7884 136.152 45.7952V45.7952ZM129.827 32.4992C129.746 32.4989 129.667 32.5288 129.607 32.5832C129.547 32.6376 129.51 32.7124 129.502 32.7931L128.911 39.7332C128.883 40.057 128.949 40.3821 129.102 40.6689C129.255 40.9558 129.488 41.1922 129.772 41.3495L135.995 44.794C136.043 44.8186 136.096 44.8314 136.15 44.8314C136.204 44.8314 136.257 44.8186 136.306 44.794C136.353 44.7682 136.393 44.731 136.423 44.6856C136.452 44.6402 136.469 44.5881 136.473 44.5343L137.006 37.2182C137.018 37.0396 136.98 36.8612 136.896 36.7031C136.812 36.545 136.686 36.4133 136.531 36.323V36.323L129.984 32.5436C129.937 32.5141 129.882 32.4987 129.827 32.4992V32.4992Z" fill="#9269AD"/>
<path d="M123.577 49.964C123.493 49.9639 123.411 49.9415 123.338 49.8991L103.211 38.2809C103.101 38.217 103.021 38.112 102.988 37.989C102.956 37.8659 102.973 37.735 103.037 37.6248C103.101 37.5147 103.206 37.4345 103.329 37.4018C103.452 37.3691 103.583 37.3867 103.693 37.4506L123.82 49.0687C123.913 49.1209 123.985 49.2026 124.027 49.3008C124.068 49.3989 124.075 49.5081 124.047 49.6108C124.019 49.7136 123.958 49.8041 123.873 49.8681C123.788 49.932 123.684 49.9658 123.577 49.964Z" fill="#9269AD"/>
<path d="M123.116 54.0919C123.032 54.0918 122.949 54.0694 122.877 54.027L102.75 42.4089C102.695 42.3772 102.648 42.3352 102.609 42.2851C102.571 42.235 102.543 42.1778 102.527 42.1169C102.511 42.056 102.507 41.9925 102.515 41.93C102.523 41.8675 102.544 41.8073 102.576 41.7528C102.607 41.6983 102.649 41.6505 102.699 41.6122C102.749 41.574 102.807 41.5459 102.868 41.5298C102.928 41.5136 102.992 41.5096 103.054 41.5179C103.117 41.5263 103.177 41.5469 103.232 41.5785L123.358 53.1967C123.451 53.2489 123.524 53.3305 123.565 53.4287C123.606 53.5269 123.613 53.636 123.586 53.7387C123.558 53.8415 123.496 53.932 123.411 53.996C123.326 54.06 123.222 54.0937 123.116 54.0919V54.0919Z" fill="#9269AD"/>
<path d="M134.73 62.8911C134.513 62.8901 134.299 62.8349 134.108 62.7305L127.886 59.2861C127.437 59.0405 127.068 58.6699 126.826 58.2193C126.583 57.7686 126.477 57.2572 126.519 56.7472L127.134 49.8207C127.153 49.6057 127.226 49.399 127.345 49.2195C127.465 49.0401 127.628 48.8937 127.82 48.794C128.011 48.6942 128.225 48.6443 128.44 48.6487C128.656 48.6532 128.867 48.7119 129.054 48.8195L135.598 52.5988C135.909 52.7791 136.162 53.0426 136.331 53.3597C136.499 53.6767 136.576 54.0346 136.551 54.3928L136.018 61.702C135.994 62.0247 135.849 62.3264 135.612 62.5469C135.375 62.7674 135.064 62.8903 134.74 62.8911H134.73ZM128.405 49.5952C128.353 49.596 128.301 49.6089 128.255 49.6328C128.206 49.6573 128.164 49.6942 128.133 49.7397C128.103 49.7852 128.085 49.8378 128.08 49.8925L127.476 56.8292C127.448 57.153 127.514 57.478 127.667 57.7649C127.82 58.0517 128.052 58.2881 128.337 58.4455L134.559 61.8899C134.607 61.9172 134.66 61.9316 134.715 61.9316C134.769 61.9316 134.823 61.9172 134.87 61.8899C134.919 61.8652 134.959 61.8282 134.989 61.7826C135.018 61.737 135.035 61.6844 135.038 61.6302L135.571 54.3142C135.582 54.1356 135.544 53.9572 135.46 53.7991C135.377 53.6409 135.25 53.5093 135.096 53.4189L128.549 49.6396C128.505 49.6124 128.456 49.5971 128.405 49.5952Z" fill="#9269AD"/>
<path d="M131.703 57.5014C131.661 57.5064 131.619 57.5064 131.577 57.5014C131.504 57.4817 131.438 57.4456 131.382 57.3958C131.326 57.3459 131.283 57.2838 131.255 57.2144L129.834 53.6469C129.797 53.5306 129.806 53.4047 129.859 53.2949C129.912 53.185 130.005 53.0996 130.119 53.056C130.233 53.0123 130.359 53.0138 130.472 53.0602C130.584 53.1065 130.675 53.1941 130.726 53.3052L131.918 56.2439L138.711 50.8449C138.812 50.7772 138.934 50.7499 139.054 50.7683C139.174 50.7868 139.282 50.8497 139.358 50.9446C139.433 51.0394 139.47 51.1592 139.461 51.28C139.452 51.4009 139.398 51.5139 139.309 51.5966L132 57.4057C131.915 57.47 131.81 57.5036 131.703 57.5014V57.5014Z" fill="#9269AD"/>
<path d="M122.159 67.0602C122.075 67.0605 121.992 67.038 121.92 66.9953L101.79 55.3772C101.684 55.3108 101.608 55.2061 101.578 55.0851C101.548 54.964 101.566 54.836 101.629 54.728C101.691 54.6201 101.793 54.5405 101.913 54.506C102.033 54.4716 102.161 54.485 102.271 54.5434L122.398 66.1615C122.491 66.2136 122.563 66.2949 122.604 66.3928C122.646 66.4906 122.653 66.5994 122.626 66.7019C122.598 66.8045 122.538 66.895 122.453 66.9593C122.369 67.0235 122.265 67.0578 122.159 67.0568V67.0602Z" fill="#9269AD"/>
<path d="M121.698 71.1915C121.613 71.1914 121.529 71.169 121.455 71.1266L101.328 59.5085C101.274 59.4768 101.226 59.4348 101.188 59.3847C101.15 59.3346 101.122 59.2774 101.105 59.2165C101.089 59.1556 101.085 59.0921 101.094 59.0296C101.102 58.9671 101.123 58.9069 101.154 58.8524C101.186 58.7979 101.228 58.7501 101.278 58.7118C101.328 58.6736 101.385 58.6456 101.446 58.6294C101.507 58.6132 101.571 58.6092 101.633 58.6175C101.696 58.6259 101.756 58.6465 101.81 58.6781L121.937 70.2963C122.029 70.3493 122.1 70.431 122.141 70.5287C122.181 70.6265 122.188 70.7348 122.161 70.8371C122.134 70.9393 122.074 71.0298 121.99 71.0944C121.906 71.1591 121.804 71.1944 121.698 71.195V71.1915Z" fill="#9269AD"/>
<path d="M133.309 79.9866C133.092 79.9876 132.879 79.9323 132.691 79.826L126.451 76.3815C126.002 76.1356 125.634 75.765 125.392 75.3144C125.149 74.8638 125.042 74.3526 125.084 73.8426L125.679 66.9059C125.696 66.6911 125.768 66.4843 125.888 66.305C126.007 66.1257 126.171 65.9797 126.362 65.8807C126.553 65.7814 126.767 65.7319 126.982 65.7366C127.198 65.7414 127.409 65.8004 127.596 65.9081L134.139 69.6874C134.45 69.8687 134.703 70.1331 134.871 70.4507C135.038 70.7683 135.114 71.1264 135.089 71.4848L134.556 78.8008C134.54 79.0138 134.47 79.2192 134.354 79.3982C134.237 79.5773 134.078 79.7244 133.89 79.826C133.712 79.9243 133.513 79.9793 133.309 79.9866V79.9866ZM126.984 66.694C126.932 66.6938 126.88 66.7055 126.834 66.7282C126.786 66.7545 126.745 66.7918 126.715 66.8369C126.685 66.8821 126.666 66.9339 126.659 66.9879L126.068 73.9246C126.04 74.2485 126.106 74.5737 126.259 74.8606C126.412 75.1475 126.645 75.3839 126.929 75.5409L133.155 78.9853C133.202 79.0122 133.255 79.0266 133.309 79.0273C133.363 79.0279 133.416 79.0148 133.464 78.9892C133.511 78.9635 133.552 78.9262 133.581 78.8807C133.61 78.8352 133.627 78.783 133.63 78.7291L134.163 71.4096C134.176 71.2309 134.138 71.0522 134.054 70.8939C133.97 70.7356 133.843 70.6041 133.688 70.5143L127.134 66.735C127.088 66.71 127.037 66.6959 126.984 66.694V66.694Z" fill="#9269AD"/>
<path d="M132.974 27.5575C132.614 27.559 132.261 27.4659 131.949 27.2876L123.375 22.4456C123.28 22.3921 123.207 22.3076 123.167 22.2064C122.752 21.137 122.012 20.2249 121.051 19.5991C120.71 19.3941 119.814 18.9875 119.343 19.6743C119.273 19.7705 119.171 19.8379 119.055 19.8637C118.939 19.8895 118.818 19.872 118.714 19.8144L111.326 15.666C110.911 15.4263 110.566 15.0817 110.326 14.6666C110.087 14.2516 109.96 13.7808 109.959 13.3014V8.04588C109.96 7.47561 110.124 6.91739 110.431 6.4372C110.739 5.95701 111.178 5.57493 111.695 5.33612C111.765 5.3039 111.842 5.28894 111.918 5.29251C111.995 5.29608 112.07 5.31807 112.136 5.35662L135.871 19.1481C135.948 19.1922 136.012 19.2569 136.054 19.3349C136.096 19.413 136.116 19.5013 136.111 19.59C136.106 19.6786 136.077 19.7642 136.026 19.837C135.975 19.9098 135.905 19.9671 135.824 20.0023C135.598 20.1013 135.406 20.2639 135.271 20.4702C135.136 20.6766 135.065 20.9177 135.065 21.1641V25.4765C135.068 25.8395 134.975 26.1969 134.795 26.5121C134.615 26.8273 134.354 27.089 134.04 27.2705C133.717 27.4604 133.348 27.5596 132.974 27.5575V27.5575ZM123.976 21.6904L132.424 26.4504C132.594 26.5466 132.786 26.5965 132.981 26.5952C133.177 26.5939 133.368 26.5413 133.537 26.4427C133.706 26.3442 133.846 26.2031 133.943 26.0336C134.04 25.864 134.091 25.672 134.091 25.4765V21.1641C134.091 20.5799 134.32 20.019 134.73 19.6025L111.87 6.32025C111.579 6.50182 111.339 6.75334 111.17 7.0518C111.002 7.35027 110.911 7.68617 110.906 8.0288V13.3014C110.906 13.6121 110.989 13.9172 111.146 14.1856C111.302 14.4539 111.527 14.6759 111.798 14.8288L118.827 18.7893C119.493 18.2015 120.501 18.181 121.52 18.7688C122.621 19.4652 123.479 20.4859 123.976 21.6904V21.6904Z" fill="#9269AD"/>
<path d="M72.0825 84.8011L68.2905 107.989C68.2628 108.159 68.1757 108.313 68.0449 108.424C67.9141 108.535 67.748 108.596 67.5764 108.596V108.596C67.4746 108.596 67.3739 108.575 67.2809 108.533C67.1879 108.492 67.1047 108.431 67.0367 108.356C66.9687 108.28 66.9174 108.191 66.8863 108.094C66.8551 107.997 66.8448 107.894 66.8559 107.793L69.5229 83.8721L72.0825 84.8011Z" fill="#263238"/>
<path d="M58.9656 77.0025L55.1736 100.191C55.1465 100.36 55.0601 100.514 54.9298 100.625C54.7995 100.736 54.6339 100.797 54.4626 100.797C54.3608 100.797 54.2601 100.776 54.1671 100.735C54.0741 100.693 53.9909 100.633 53.9229 100.557C53.8549 100.481 53.8037 100.392 53.7725 100.295C53.7414 100.198 53.731 100.096 53.7421 99.9947L56.4091 76.0703L58.9656 77.0025Z" fill="#263238"/>
<path d="M77.916 79.3789L81.6669 99.3627C81.7016 99.5145 81.793 99.6472 81.9224 99.7337C82.0517 99.8202 82.2093 99.854 82.3627 99.8282C82.5162 99.8023 82.654 99.7188 82.7479 99.5947C82.8418 99.4705 82.8846 99.3152 82.8677 99.1605L80.0996 80.6397L77.916 79.3789Z" fill="#263238"/>
<path d="M64.6504 71.9248L68.3792 91.7854C68.4051 91.9254 68.4795 92.0518 68.5893 92.1425C68.699 92.2332 68.8372 92.2824 68.9796 92.2815C69.067 92.281 69.1533 92.2618 69.2327 92.2252C69.3121 92.1887 69.3827 92.1355 69.4399 92.0694C69.4971 92.0032 69.5394 91.9256 69.5641 91.8418C69.5888 91.7579 69.5953 91.6697 69.5831 91.5832L66.8339 73.1825L64.6504 71.9248Z" fill="#263238"/>
<path d="M65.728 70.4144C66.5916 70.0355 67.3391 69.4343 67.8943 68.672C68.4495 67.9098 68.7924 67.0138 68.888 66.0757C69.4916 59.9927 71.6341 47.4538 78.8989 51.6282C87.8607 56.779 84.6533 71.7416 83.3482 76.5384C83.0565 77.6192 82.4892 78.6057 81.7018 79.4014C80.0808 81.0351 76.728 83.8444 71.0274 86.2333C70.3267 86.5282 69.5463 86.5751 68.8154 86.366C65.9714 85.5602 58.5833 83.0796 54.8924 78.3618C54.6829 78.0941 54.5879 77.7543 54.6282 77.4168C54.6685 77.0793 54.8407 76.7715 55.1073 76.5606C56.5893 75.3724 59.9642 72.9961 65.728 70.4144Z" fill="#9269AD"/>
<path opacity="0.5" d="M65.728 70.4144C66.5916 70.0355 67.3391 69.4343 67.8943 68.672C68.4495 67.9098 68.7924 67.0138 68.888 66.0757C69.4916 59.9927 71.6341 47.4538 78.8989 51.6282C87.8607 56.779 84.6533 71.7416 83.3482 76.5384C83.0565 77.6192 82.4892 78.6057 81.7018 79.4014C80.0808 81.0351 76.728 83.8444 71.0274 86.2333C70.3267 86.5282 69.5463 86.5751 68.8154 86.366C65.9714 85.5602 58.5833 83.0796 54.8924 78.3618C54.6829 78.0941 54.5879 77.7543 54.6282 77.4168C54.6685 77.0793 54.8407 76.7715 55.1073 76.5606C56.5893 75.3724 59.9642 72.9961 65.728 70.4144Z" fill="black"/>
<path d="M54.6142 77.5049C54.5951 77.8132 54.6895 78.1178 54.8797 78.3613C55.0788 78.6141 55.2873 78.8574 55.5117 79.0976C55.6286 79.2271 55.7518 79.3567 55.8751 79.4831C55.9983 79.6095 56.1247 79.7327 56.2511 79.8528L56.6398 80.213C56.7725 80.3331 56.9084 80.45 57.0443 80.567C59.1362 82.3239 61.6768 83.6606 63.9457 84.6276L64.366 84.8014L64.4102 84.8203L64.7958 84.9752L64.8653 85.0036L65.2255 85.1458L65.3077 85.1774L65.6458 85.3038L65.7406 85.3386C65.848 85.3796 65.9492 85.4176 66.0566 85.4523L66.1672 85.4934L66.4548 85.5945L66.5748 85.6356L66.8403 85.7272L66.9667 85.7715L67.2068 85.8505L67.3427 85.8947L67.5608 85.9642L67.7061 86.0116L67.8926 86.0685L68.0506 86.1191L68.2054 86.1665L68.3982 86.2234L68.4961 86.2518L68.7679 86.3308C69.4988 86.5398 70.2792 86.493 70.9799 86.1981C76.6679 83.8091 80.0333 80.9999 81.6544 79.3662C82.4417 78.5705 83.009 77.584 83.3007 76.5032C84.6058 71.7063 87.8132 56.7437 78.8514 51.5929C78.6903 51.5013 78.5354 51.4191 78.3806 51.3465C78.3479 51.3277 78.3141 51.3108 78.2795 51.2959C78.1278 51.2232 77.9793 51.16 77.8339 51.1031L77.7897 51.0873C77.6475 51.0336 77.5116 50.9894 77.3726 50.9483L77.3094 50.9293C77.164 50.8883 77.0186 50.8567 76.8764 50.8282H76.8385C76.5551 50.7765 76.267 50.7553 75.979 50.765V50.765C75.7042 50.7745 75.4316 50.8169 75.1669 50.8914V50.8914C76.5984 50.2594 78.3458 50.2878 80.0775 51.2832C89.0424 56.434 85.8319 71.3935 84.53 76.1935L84.3088 77.0151C83.8752 78.6899 82.897 80.1729 81.528 81.2306L79.2022 83.0096C76.687 84.908 73.9372 86.4735 71.021 87.6675C70.3203 87.9619 69.5404 88.0098 68.809 87.8034C65.965 86.9976 58.5737 84.5201 54.8828 79.7991C54.7254 79.5975 54.6329 79.3529 54.6174 79.0976V79.0976V77.5176L54.6142 77.5049Z" fill="#9269AD"/>
<path opacity="0.6" d="M54.6142 77.5049C54.5951 77.8132 54.6895 78.1178 54.8797 78.3613C55.0788 78.6141 55.2873 78.8574 55.5117 79.0976C55.6286 79.2271 55.7518 79.3567 55.8751 79.4831C55.9983 79.6095 56.1247 79.7327 56.2511 79.8528L56.6398 80.213C56.7725 80.3331 56.9084 80.45 57.0443 80.567C59.1362 82.3239 61.6768 83.6606 63.9457 84.6276L64.366 84.8014L64.4102 84.8203L64.7958 84.9752L64.8653 85.0036L65.2255 85.1458L65.3077 85.1774L65.6458 85.3038L65.7406 85.3386C65.848 85.3796 65.9492 85.4176 66.0566 85.4523L66.1672 85.4934L66.4548 85.5945L66.5748 85.6356L66.8403 85.7272L66.9667 85.7715L67.2068 85.8505L67.3427 85.8947L67.5608 85.9642L67.7061 86.0116L67.8926 86.0685L68.0506 86.1191L68.2054 86.1665L68.3982 86.2234L68.4961 86.2518L68.7679 86.3308C69.4988 86.5398 70.2792 86.493 70.9799 86.1981C76.6679 83.8091 80.0333 80.9999 81.6544 79.3662C82.4417 78.5705 83.009 77.584 83.3007 76.5032C84.6058 71.7063 87.8132 56.7437 78.8514 51.5929C78.6903 51.5013 78.5354 51.4191 78.3806 51.3465C78.3479 51.3277 78.3141 51.3108 78.2795 51.2959C78.1278 51.2232 77.9793 51.16 77.8339 51.1031L77.7897 51.0873C77.6475 51.0336 77.5116 50.9894 77.3726 50.9483L77.3094 50.9293C77.164 50.8883 77.0186 50.8567 76.8764 50.8282H76.8385C76.5551 50.7765 76.267 50.7553 75.979 50.765V50.765C75.7042 50.7745 75.4316 50.8169 75.1669 50.8914V50.8914C76.5984 50.2594 78.3458 50.2878 80.0775 51.2832C89.0424 56.434 85.8319 71.3935 84.53 76.1935L84.3088 77.0151C83.8752 78.6899 82.897 80.1729 81.528 81.2306L79.2022 83.0096C76.687 84.908 73.9372 86.4735 71.021 87.6675C70.3203 87.9619 69.5404 88.0098 68.809 87.8034C65.965 86.9976 58.5737 84.5201 54.8828 79.7991C54.7254 79.5975 54.6329 79.3529 54.6174 79.0976V79.0976V77.5176L54.6142 77.5049Z" fill="black"/>
<path d="M66.3979 130.875C66.6292 130.992 66.8846 131.052 67.1437 131.052C67.4028 131.052 67.6582 130.992 67.8895 130.875C68.3034 130.638 68.3034 130.243 67.8895 130.015C67.6587 129.897 67.4031 129.835 67.1437 129.835C66.8843 129.835 66.6287 129.897 66.3979 130.015C65.9871 130.252 65.9871 130.638 66.3979 130.875Z" fill="#37474F"/>
<path d="M66.0854 130.42H68.1963V105.026H66.0854V130.42Z" fill="#37474F"/>
<path d="M90.3762 116.791C90.6074 116.907 90.8629 116.968 91.1219 116.968C91.381 116.968 91.6365 116.907 91.8677 116.791C92.2817 116.55 92.2817 116.159 91.8677 115.928C91.6365 115.811 91.381 115.75 91.1219 115.75C90.8629 115.75 90.6074 115.811 90.3762 115.928C89.9749 116.165 89.9749 116.55 90.3762 116.791Z" fill="#263238"/>
<path d="M90.0761 116.336H92.187V90.9422H90.0761V116.336Z" fill="#263238"/>
<path d="M27.0752 108.091C27.306 108.209 27.5616 108.271 27.8209 108.271C28.0803 108.271 28.3359 108.209 28.5667 108.091C28.9807 107.854 28.9807 107.459 28.5667 107.232C28.3355 107.115 28.08 107.054 27.8209 107.054C27.5619 107.054 27.3064 107.115 27.0752 107.232C26.6644 107.469 26.6644 107.854 27.0752 108.091Z" fill="#37474F"/>
<path d="M26.7622 107.64H28.873L28.873 82.2459H26.7622L26.7622 107.64Z" fill="#37474F"/>
<path d="M52.8636 88.8756C53.0704 88.9815 53.2995 89.0368 53.5319 89.0368C53.7643 89.0368 53.9934 88.9815 54.2002 88.8756C54.2806 88.848 54.3502 88.796 54.3996 88.7269C54.4489 88.6578 54.4754 88.575 54.4754 88.4901C54.4754 88.4051 54.4489 88.3223 54.3996 88.2532C54.3502 88.1841 54.2806 88.1321 54.2002 88.1045C53.9934 87.9986 53.7643 87.9434 53.5319 87.9434C53.2995 87.9434 53.0704 87.9986 52.8636 88.1045C52.7833 88.1321 52.7136 88.1841 52.6642 88.2532C52.6149 88.3223 52.5884 88.4051 52.5884 88.4901C52.5884 88.575 52.6149 88.6578 52.6642 88.7269C52.7136 88.796 52.7833 88.848 52.8636 88.8756V88.8756Z" fill="#455A64"/>
<path d="M52.5828 88.4707H54.4756V67.2797H52.5828V88.4707Z" fill="#455A64"/>
<path d="M92.1868 86.7363V91.7892L67.1406 106.249V101.196L92.1868 86.7363Z" fill="#263238"/>
<path d="M26.7651 77.8848L67.1405 101.196V106.249L26.7651 82.9376V77.8848Z" fill="#37474F"/>
<path d="M51.8113 63.4248L92.1866 86.7361L67.1405 101.196L26.7651 77.885L51.8113 63.4248Z" fill="#455A64"/>
<path opacity="0.2" d="M51.9378 88.4143L33.3664 77.6925C33.3218 77.6667 33.2848 77.6296 33.259 77.5849C33.2333 77.5403 33.2197 77.4896 33.2197 77.4381C33.2197 77.3865 33.2333 77.3359 33.259 77.2913C33.2848 77.2466 33.3218 77.2095 33.3664 77.1837L36.9404 75.1202C36.9857 75.0964 37.0362 75.084 37.0873 75.084C37.1385 75.084 37.189 75.0964 37.2343 75.1202L55.8056 85.8421C55.8495 85.8681 55.8858 85.9051 55.9111 85.9494C55.9364 85.9938 55.9496 86.0439 55.9496 86.0949C55.9496 86.1459 55.9364 86.1961 55.9111 86.2404C55.8858 86.2847 55.8495 86.3217 55.8056 86.3477L52.2285 88.4143C52.1841 88.4393 52.134 88.4523 52.0831 88.4523C52.0322 88.4523 51.9822 88.4393 51.9378 88.4143V88.4143Z" fill="black"/>
<path d="M69.7193 96.8543L58.8868 90.5343C58.8626 90.52 58.8424 90.4997 58.8285 90.4754C58.8145 90.451 58.8071 90.4233 58.8071 90.3952C58.8071 90.3671 58.8145 90.3395 58.8285 90.3151C58.8424 90.2907 58.8626 90.2704 58.8868 90.2562L70.8948 82.8555L69.7193 96.8543Z" fill="#9269AD"/>
<path opacity="0.4" d="M69.7193 96.8543L58.8868 90.5343C58.8626 90.52 58.8424 90.4997 58.8285 90.4754C58.8145 90.451 58.8071 90.4233 58.8071 90.3952C58.8071 90.3671 58.8145 90.3395 58.8285 90.3151C58.8424 90.2907 58.8626 90.2704 58.8868 90.2562L70.8948 82.8555L69.7193 96.8543Z" fill="black"/>
<path d="M69.7192 96.8547L81.7968 89.8616V86.6826L69.7192 93.6473V96.8547Z" fill="#9269AD"/>
<path opacity="0.2" d="M69.7192 96.8547L81.7968 89.8616V86.6826L69.7192 93.6473V96.8547Z" fill="black"/>
<path d="M79.4393 90.3513L74.6708 93.1036C74.3548 93.2869 74.0957 93.1036 74.0957 92.6707C74.0994 92.4557 74.1533 92.2446 74.2531 92.0542C74.353 91.8638 74.4961 91.6994 74.6708 91.5742L79.4393 88.8187C79.7553 88.6354 80.0144 88.8187 80.0144 89.2547C80.0115 89.4699 79.9579 89.6813 79.858 89.8718C79.758 90.0623 79.6146 90.2266 79.4393 90.3513V90.3513Z" fill="#E6E6E6"/>
<path d="M73.3975 93.0748C73.3855 93.3049 73.319 93.5288 73.2037 93.7282C73.0883 93.9276 72.9273 94.0968 72.7339 94.2219C72.3673 94.4336 72.0703 94.263 72.0703 93.8395C72.0829 93.6096 72.1495 93.3859 72.2648 93.1866C72.3801 92.9872 72.5408 92.8179 72.7339 92.6924C73.1005 92.4807 73.3975 92.6514 73.3975 93.0748Z" fill="#E6E6E6"/>
<path d="M69.7193 93.6466L58.9311 88.5748C58.9045 88.562 58.8819 88.5424 58.8656 88.5179C58.8492 88.4934 58.8398 88.465 58.8381 88.4356C58.8365 88.4063 58.8428 88.377 58.8564 88.3509C58.87 88.3248 58.8903 88.3028 58.9153 88.2872L70.4904 81.4047C70.5553 81.3658 70.6291 81.3439 70.7048 81.3411C70.7805 81.3384 70.8556 81.3548 70.9233 81.3889L81.7968 86.6819L69.7193 93.6466Z" fill="#9269AD"/>
<path d="M59.626 88.9004V90.2655L68.5625 95.3215V93.1032L59.626 88.9004Z" fill="#F5F5F5"/>
<path d="M68.5625 95.3218L69.7191 94.5982V93.647L68.5625 93.1035V95.3218Z" fill="#E0E0E0"/>
<path d="M58.8364 87.2605V83.7402H78.5327C78.5991 83.7402 80.7131 84.8431 81.6485 85.3202C81.6906 85.3434 81.7258 85.3775 81.7503 85.4189C81.7748 85.4603 81.7877 85.5075 81.7877 85.5557C81.7877 85.6038 81.7748 85.651 81.7503 85.6924C81.7258 85.7338 81.6906 85.7679 81.6485 85.7911L69.9849 92.3986C69.9025 92.4438 69.8106 92.4688 69.7166 92.4716C69.6227 92.4743 69.5294 92.4547 69.4445 92.4145L58.8364 87.2605Z" fill="#9269AD"/>
<path opacity="0.4" d="M58.8364 87.2605V83.7402H78.5327C78.5991 83.7402 80.7131 84.8431 81.6485 85.3202C81.6906 85.3434 81.7258 85.3775 81.7503 85.4189C81.7748 85.4603 81.7877 85.5075 81.7877 85.5557C81.7877 85.6038 81.7748 85.651 81.7503 85.6924C81.7258 85.7338 81.6906 85.7679 81.6485 85.7911L69.9849 92.3986C69.9025 92.4438 69.8106 92.4688 69.7166 92.4716C69.6227 92.4743 69.5294 92.4547 69.4445 92.4145L58.8364 87.2605Z" fill="black"/>
<path d="M69.7192 91.5642L80.893 85.2821V83.917L69.7192 89.861V91.5642Z" fill="#E0E0E0"/>
<path d="M58.8364 87.2609L61.7594 85.5514L58.8364 83.7344V87.2609Z" fill="#9269AD"/>
<path opacity="0.6" d="M58.8364 87.2609L61.7594 85.5514L58.8364 83.7344V87.2609Z" fill="black"/>
<path d="M60.6816 84.8809V86.8274L69.7192 91.5643V89.861L60.6816 84.8809Z" fill="#F5F5F5"/>
<path d="M58.8364 83.7403L69.3434 90.0035C69.4584 90.0722 69.589 90.1103 69.7229 90.1142C69.8568 90.1181 69.9894 90.0876 70.1081 90.0256L81.6895 83.9584C81.7305 83.9362 81.765 83.9038 81.7897 83.8643C81.8143 83.8249 81.8283 83.7796 81.8302 83.7331C81.8321 83.6866 81.8219 83.6403 81.8006 83.599C81.7792 83.5576 81.7475 83.5224 81.7085 83.497L71.1351 76.624L58.8364 83.7403Z" fill="#9269AD"/>
<path d="M63.2003 76.3457V77.0725L58.5488 79.6984V78.9717L63.2003 76.3457Z" fill="#9269AD"/>
<path opacity="0.2" d="M63.2003 76.3457V77.0725L58.5488 79.6984V78.9717L63.2003 76.3457Z" fill="white"/>
<path d="M47.9341 72.8379L58.5485 78.9714V79.6982L47.9341 73.5647V72.8379Z" fill="#9269AD"/>
<path opacity="0.4" d="M47.9341 72.8379L58.5485 78.9714V79.6982L47.9341 73.5647V72.8379Z" fill="white"/>
<path d="M52.5856 70.2119L63.2 76.3455L58.5485 78.9714L47.9341 72.8379L52.5856 70.2119Z" fill="#9269AD"/>
<path opacity="0.6" d="M52.5856 70.2119L63.2 76.3455L58.5485 78.9714L47.9341 72.8379L52.5856 70.2119Z" fill="white"/>
<path d="M54.6841 83.178L55.1581 83.4529V84.3187C55.4639 84.3204 55.7644 84.2385 56.0271 84.0817L56.0618 84.0596C56.1708 83.9944 56.2656 83.9079 56.3405 83.8053C56.4154 83.7027 56.469 83.5861 56.4979 83.4624C56.5147 83.4092 56.5233 83.3538 56.5232 83.2981V82.1162L54.6841 83.178Z" fill="#E0E0E0"/>
<path d="M34.0334 51.2524L34.0713 51.2302C34.3346 51.075 34.6347 50.9931 34.9403 50.9932V50.9932C35.0369 50.9915 35.1321 51.0167 35.2152 51.0659L55.6952 62.8401C55.9468 62.9857 56.1557 63.1949 56.301 63.4467C56.4463 63.6985 56.5229 63.984 56.5231 64.2747V82.1161L54.684 83.1778L35.231 71.9946C34.9794 71.849 34.7705 71.6398 34.6252 71.388C34.4799 71.1362 34.4033 70.8507 34.4031 70.56V52.0613H33.5752C33.5757 51.8985 33.6181 51.7385 33.6983 51.5968C33.7786 51.4551 33.894 51.3365 34.0334 51.2524V51.2524Z" fill="#E6E6E6"/>
<path d="M56.3462 63.5322C56.4621 63.7626 56.5227 64.0169 56.5231 64.2748V82.1162L54.684 83.1779L53.9951 82.7924V65.0016L56.3462 63.5322Z" fill="#E0E0E0"/>
<path d="M55.6952 82.5929V83.7779C55.6947 83.873 55.6692 83.9663 55.6213 84.0486C55.5733 84.1308 55.5047 84.1989 55.4221 84.2463C55.3396 84.2936 55.2461 84.3185 55.1509 84.3184C55.0558 84.3182 54.9623 84.2931 54.8799 84.2455L34.4031 72.4714C34.1515 72.3257 33.9426 72.1166 33.7973 71.8648C33.652 71.613 33.5754 71.3274 33.5752 71.0367V69.8359L55.6952 82.5929Z" fill="#F0F0F0"/>
<path d="M33.5752 52.0144C33.5752 51.9189 33.6003 51.8252 33.648 51.7426C33.6957 51.6599 33.7643 51.5913 33.8469 51.5436C33.9295 51.4958 34.0233 51.4707 34.1187 51.4707C34.2141 51.4707 34.3078 51.4958 34.3905 51.5435L54.8673 63.3208C55.1193 63.466 55.3286 63.6751 55.4739 63.927C55.6193 64.1789 55.6956 64.4646 55.6952 64.7555V82.5937L33.5752 69.8241" fill="#F0F0F0"/>
<path d="M45.365 72.8347L41.4624 70.8629L42.4167 70.2119L46.174 72.1869L45.365 72.8347Z" fill="#E0E0E0"/>
<path d="M41.4626 70.8604L39.2063 79.8284C39.1717 79.9675 39.1839 80.1141 39.241 80.2455C39.2981 80.3769 39.397 80.4858 39.5223 80.5552L44.1865 83.178C44.1865 83.178 45.637 72.9712 45.3684 72.8354L41.4626 70.8604Z" fill="#E6E6E6"/>
<path d="M46.6415 81.1715L45.0362 80.1982L44.7266 82.3755L46.6415 81.1715Z" fill="#F0F0F0"/>
<path d="M45.3652 72.8348L43.9242 82.6877C43.9106 82.7774 43.9235 82.8691 43.9614 82.9516C43.9993 83.034 44.0605 83.1036 44.1374 83.1516C44.2144 83.1997 44.3037 83.2242 44.3945 83.222C44.4852 83.2199 44.5733 83.1912 44.6479 83.1396L46.4996 81.8756C46.5667 81.8308 46.6217 81.7702 46.6598 81.6991C46.6978 81.628 46.7177 81.5486 46.7177 81.4679V81.2783C46.7178 81.2522 46.7108 81.2265 46.6973 81.2041C46.6838 81.1817 46.6644 81.1634 46.6412 81.1513C46.618 81.1393 46.5919 81.1338 46.5658 81.1356C46.5398 81.1373 46.5147 81.1463 46.4933 81.1614L44.7364 82.3653L46.1836 72.1807L45.3652 72.8348Z" fill="#E0E0E0"/>
<path d="M45.2638 67.8135C45.2638 68.6762 44.6571 69.0269 43.9081 68.594C43.5147 68.3366 43.1872 67.9902 42.9523 67.5829C42.7174 67.1756 42.5815 66.7188 42.5557 66.2493C42.5557 65.3866 43.1624 65.0358 43.9081 65.4688C44.3026 65.7255 44.6309 66.0716 44.8664 66.479C45.102 66.8864 45.2381 67.3436 45.2638 67.8135Z" fill="#E0E0E0"/>
<path d="M30.001 116.737L42.4103 109.63L32.5575 104.198L20.5811 111.248L30.001 116.737Z" fill="white"/>
<path d="M30.4308 115.552C30.4109 115.551 30.3915 115.546 30.374 115.536L23.1692 111.336C23.1548 111.33 23.1418 111.321 23.1312 111.309C23.1206 111.298 23.1126 111.284 23.1076 111.269C23.1027 111.254 23.101 111.239 23.1027 111.223C23.1043 111.208 23.1092 111.192 23.1171 111.179C23.125 111.165 23.1357 111.154 23.1485 111.145C23.1612 111.135 23.1758 111.129 23.1912 111.126C23.2066 111.123 23.2224 111.123 23.2377 111.127C23.253 111.13 23.2673 111.137 23.2798 111.147L30.4846 115.34C30.4973 115.347 30.5084 115.357 30.5174 115.368C30.5263 115.38 30.5329 115.393 30.5367 115.407C30.5406 115.421 30.5415 115.436 30.5396 115.451C30.5377 115.465 30.533 115.479 30.5256 115.492C30.5166 115.509 30.5031 115.524 30.4864 115.535C30.4698 115.545 30.4506 115.551 30.4308 115.552V115.552Z" fill="#E0E0E0"/>
<path d="M31.5998 114.835C31.5822 114.839 31.5637 114.839 31.5461 114.835L24.3508 110.619C24.3385 110.612 24.3277 110.603 24.3191 110.591C24.3105 110.58 24.3042 110.567 24.3007 110.553C24.2972 110.539 24.2964 110.525 24.2985 110.511C24.3006 110.497 24.3055 110.483 24.3129 110.471C24.3198 110.458 24.3292 110.447 24.3404 110.438C24.3517 110.429 24.3646 110.423 24.3785 110.419C24.3923 110.415 24.4068 110.414 24.421 110.416C24.4353 110.418 24.449 110.423 24.4614 110.43L31.6694 114.629C31.6945 114.645 31.7126 114.669 31.7197 114.697C31.7268 114.726 31.7224 114.756 31.7073 114.781C31.6968 114.8 31.6809 114.815 31.6618 114.824C31.6426 114.834 31.6211 114.838 31.5998 114.835V114.835Z" fill="#E0E0E0"/>
<path d="M32.7631 114.149C32.7455 114.154 32.727 114.154 32.7094 114.149L25.5014 109.937C25.4763 109.922 25.4582 109.897 25.4511 109.869C25.4439 109.841 25.4484 109.81 25.4635 109.785C25.4704 109.773 25.4798 109.762 25.491 109.753C25.5023 109.744 25.5152 109.737 25.5291 109.733C25.5429 109.73 25.5574 109.729 25.5716 109.73C25.5859 109.732 25.5996 109.737 25.612 109.744L32.82 113.947C32.8417 113.959 32.8588 113.977 32.8685 114C32.8782 114.022 32.8799 114.047 32.8732 114.071C32.8666 114.095 32.852 114.115 32.832 114.13C32.8119 114.144 32.7876 114.151 32.7631 114.149V114.149Z" fill="#E0E0E0"/>
<path d="M33.9479 113.444C33.928 113.444 33.9085 113.438 33.891 113.429L26.6862 109.229C26.6612 109.214 26.643 109.19 26.6353 109.161C26.6277 109.133 26.6312 109.103 26.6452 109.077C26.6523 109.065 26.662 109.053 26.6737 109.045C26.6853 109.036 26.6986 109.029 26.7128 109.026C26.727 109.022 26.7418 109.022 26.7563 109.024C26.7707 109.026 26.7845 109.032 26.7968 109.039L34.0016 113.239C34.0142 113.246 34.0253 113.255 34.0342 113.267C34.0432 113.278 34.0497 113.291 34.0536 113.305C34.0574 113.318 34.0584 113.333 34.0565 113.347C34.0547 113.361 34.05 113.375 34.0427 113.388C34.0333 113.405 34.0196 113.419 34.0029 113.429C33.9863 113.439 33.9673 113.444 33.9479 113.444V113.444Z" fill="#E0E0E0"/>
<path d="M35.1298 112.718C35.1108 112.717 35.0923 112.712 35.0761 112.702L27.8681 108.502C27.843 108.487 27.8249 108.463 27.8178 108.434C27.8106 108.406 27.8151 108.376 27.8302 108.351C27.837 108.338 27.8464 108.327 27.8578 108.318C27.8691 108.309 27.8822 108.303 27.8961 108.299C27.9101 108.296 27.9246 108.295 27.9388 108.297C27.9531 108.3 27.9666 108.305 27.9787 108.313L35.1867 112.512C35.199 112.52 35.2098 112.529 35.2184 112.54C35.227 112.552 35.2332 112.565 35.2368 112.579C35.2403 112.592 35.241 112.607 35.239 112.621C35.2369 112.635 35.232 112.649 35.2246 112.661C35.2152 112.678 35.2014 112.692 35.1848 112.702C35.1682 112.712 35.1492 112.717 35.1298 112.718Z" fill="#E0E0E0"/>
<path d="M36.3146 112C36.2947 111.999 36.2752 111.994 36.2578 111.984L29.053 107.785C29.0385 107.778 29.0256 107.769 29.015 107.758C29.0044 107.746 28.9964 107.732 28.9914 107.718C28.9865 107.703 28.9848 107.687 28.9864 107.671C28.9881 107.656 28.993 107.641 29.0009 107.627C29.0088 107.614 29.0195 107.602 29.0323 107.593C29.045 107.584 29.0596 107.577 29.075 107.574C29.0904 107.571 29.1062 107.572 29.1215 107.575C29.1368 107.579 29.1511 107.585 29.1636 107.595L36.3684 111.795C36.381 111.801 36.392 111.811 36.401 111.822C36.4099 111.833 36.4164 111.846 36.4203 111.86C36.4241 111.874 36.4251 111.889 36.4233 111.903C36.4214 111.917 36.4167 111.931 36.4094 111.943C36.3998 111.96 36.386 111.974 36.3694 111.984C36.3528 111.994 36.334 111.999 36.3146 112V112Z" fill="#E0E0E0"/>
<path d="M37.4965 111.283C37.4775 111.282 37.459 111.277 37.4428 111.267L30.2348 107.067C30.2097 107.052 30.1916 107.028 30.1845 106.999C30.1773 106.971 30.1818 106.941 30.1969 106.916C30.2041 106.903 30.2136 106.893 30.225 106.884C30.2364 106.875 30.2494 106.869 30.2632 106.866C30.277 106.862 30.2914 106.861 30.3055 106.863C30.3196 106.866 30.3332 106.87 30.3454 106.878L37.5534 111.077C37.5657 111.085 37.5765 111.094 37.5851 111.106C37.5937 111.117 37.5999 111.13 37.6035 111.144C37.607 111.158 37.6077 111.172 37.6057 111.186C37.6036 111.2 37.5987 111.214 37.5913 111.226C37.5824 111.243 37.5688 111.258 37.552 111.268C37.5353 111.278 37.516 111.283 37.4965 111.283V111.283Z" fill="#E0E0E0"/>
<path d="M38.6813 110.565C38.6614 110.565 38.6419 110.559 38.6245 110.55L31.4197 106.35C31.4052 106.344 31.3923 106.335 31.3817 106.323C31.3711 106.312 31.3631 106.298 31.3581 106.283C31.3532 106.268 31.3515 106.252 31.3531 106.237C31.3548 106.221 31.3597 106.206 31.3676 106.193C31.3755 106.179 31.3862 106.167 31.399 106.158C31.4117 106.149 31.4263 106.143 31.4417 106.14C31.4571 106.137 31.4729 106.137 31.4882 106.141C31.5035 106.144 31.5178 106.151 31.5303 106.16L38.7351 110.36C38.7478 110.367 38.7589 110.377 38.7679 110.388C38.7768 110.4 38.7834 110.413 38.7872 110.427C38.791 110.441 38.792 110.456 38.7901 110.471C38.7882 110.485 38.7835 110.499 38.7761 110.512C38.7663 110.528 38.7524 110.542 38.7358 110.551C38.7192 110.56 38.7004 110.565 38.6813 110.565Z" fill="#E0E0E0"/>
<path d="M39.8632 109.848C39.8442 109.848 39.8257 109.842 39.8095 109.833L32.6015 105.633C32.5764 105.618 32.5583 105.593 32.5512 105.565C32.544 105.536 32.5485 105.506 32.5636 105.481C32.5708 105.469 32.5803 105.458 32.5917 105.449C32.6031 105.441 32.6161 105.435 32.6299 105.431C32.6437 105.428 32.6581 105.427 32.6722 105.429C32.6863 105.431 32.6999 105.436 32.7121 105.443L39.9201 109.652C39.9452 109.667 39.9633 109.692 39.9704 109.72C39.9775 109.749 39.9731 109.779 39.958 109.804C39.9473 109.819 39.9329 109.831 39.9163 109.839C39.8997 109.846 39.8815 109.85 39.8632 109.848V109.848Z" fill="#E0E0E0"/>
<path d="M20.6191 111.213L30.0359 116.702V125.139L20.6191 119.938V111.213Z" fill="#FAFAFA"/>
<path d="M30.0356 116.703L42.445 109.596V117.935L30.0356 125.14V116.703Z" fill="#E6E6E6"/>
<path d="M28.0103 117.527L30.0358 118.709L34.4187 116.2L30.0358 119.351L28.0103 117.527Z" fill="#E0E0E0"/>
<path d="M28.0103 120.462L30.0358 121.644L32.5133 120.229L30.0358 122.286L28.0103 120.462Z" fill="#E0E0E0"/>
<path d="M31.2144 119.104L32.7628 119.565L33.9478 117.773L31.2144 119.104Z" fill="#E0E0E0"/>
<path d="M31.2144 119.104L35.888 116.443L33.5528 119.104H31.2144Z" fill="white"/>
<path d="M38.2109 113.384L39.3075 113.713L40.1449 112.442L38.2109 113.384Z" fill="#E0E0E0"/>
<path d="M38.2109 113.384L41.5195 111.501L39.8636 113.384H38.2109Z" fill="white"/>
<path d="M35.8438 119.657L36.9403 119.985L37.7777 118.715L35.8438 119.657Z" fill="#E0E0E0"/>
<path d="M35.8438 119.657L39.1523 117.773L37.4964 119.657H35.8438Z" fill="white"/>
<path d="M49.2105 136.127L38.378 129.807C38.3538 129.793 38.3336 129.772 38.3197 129.748C38.3057 129.723 38.2983 129.696 38.2983 129.668C38.2983 129.64 38.3057 129.612 38.3197 129.588C38.3336 129.563 38.3538 129.543 38.378 129.529L50.386 122.128L49.2105 136.127Z" fill="#9269AD"/>
<path opacity="0.4" d="M49.2105 136.127L38.378 129.807C38.3538 129.793 38.3336 129.772 38.3197 129.748C38.3057 129.723 38.2983 129.696 38.2983 129.668C38.2983 129.64 38.3057 129.612 38.3197 129.588C38.3336 129.563 38.3538 129.543 38.378 129.529L50.386 122.128L49.2105 136.127Z" fill="black"/>
<path d="M49.2104 136.127L61.288 129.134V125.955L49.2104 132.92V136.127Z" fill="#9269AD"/>
<path opacity="0.2" d="M49.2104 136.127L61.288 129.134V125.955L49.2104 132.92V136.127Z" fill="black"/>
<path d="M58.931 129.624L54.1625 132.379C53.8465 132.562 53.5874 132.379 53.5874 131.943C53.5903 131.728 53.6439 131.516 53.7438 131.326C53.8438 131.135 53.9872 130.971 54.1625 130.846L58.931 128.094C59.247 127.911 59.5061 128.094 59.5061 128.527C59.5024 128.742 59.4485 128.953 59.3486 129.144C59.2488 129.334 59.1057 129.498 58.931 129.624Z" fill="#E6E6E6"/>
<path d="M52.8856 132.347C52.873 132.578 52.8064 132.802 52.6911 133.002C52.5758 133.201 52.4151 133.371 52.222 133.498C51.8586 133.709 51.5615 133.535 51.5615 133.115C51.574 132.885 51.6402 132.661 51.7549 132.461C51.8696 132.262 52.0296 132.092 52.222 131.965C52.5885 131.753 52.8856 131.924 52.8856 132.347Z" fill="#E6E6E6"/>
<path d="M49.2107 132.92L38.4193 127.848C38.3935 127.834 38.372 127.814 38.357 127.788C38.3419 127.763 38.334 127.735 38.334 127.706C38.334 127.676 38.3419 127.648 38.357 127.623C38.372 127.598 38.3935 127.577 38.4193 127.563L49.9912 120.681C50.0565 120.641 50.1306 120.619 50.2068 120.616C50.283 120.612 50.3589 120.628 50.4273 120.662L61.304 125.955L49.2107 132.92Z" fill="#9269AD"/>
<path d="M39.1143 128.176V129.538L48.0539 134.594V132.375L39.1143 128.176Z" fill="#F5F5F5"/>
<path d="M48.0542 134.594L49.2108 133.874V132.919L48.0542 132.376V134.594Z" fill="#E0E0E0"/>
<path d="M38.3276 126.533V123.01H58.0208C58.0903 123.01 60.2043 124.109 61.1397 124.59C61.1818 124.613 61.2168 124.648 61.2412 124.689C61.2656 124.731 61.2785 124.778 61.2785 124.827C61.2785 124.875 61.2656 124.922 61.2412 124.964C61.2168 125.006 61.1818 125.04 61.1397 125.064L49.4698 131.662C49.3879 131.709 49.2958 131.734 49.2016 131.737C49.1074 131.74 49.0139 131.719 48.9294 131.678L38.3276 126.533Z" fill="#9269AD"/>
<path opacity="0.4" d="M38.3276 126.533V123.01H58.0208C58.0903 123.01 60.2043 124.109 61.1397 124.59C61.1818 124.613 61.2168 124.648 61.2412 124.689C61.2656 124.731 61.2785 124.778 61.2785 124.827C61.2785 124.875 61.2656 124.922 61.2412 124.964C61.2168 125.006 61.1818 125.04 61.1397 125.064L49.4698 131.662C49.3879 131.709 49.2958 131.734 49.2016 131.737C49.1074 131.74 49.0139 131.719 48.9294 131.678L38.3276 126.533Z" fill="black"/>
<path d="M49.2104 130.84L60.3842 124.555V123.189L49.2104 129.133V130.84Z" fill="#E0E0E0"/>
<path d="M38.3276 126.533L41.2506 124.824L38.3276 123.01V126.533Z" fill="#9269AD"/>
<path opacity="0.6" d="M38.3276 126.533L41.2506 124.824L38.3276 123.01V126.533Z" fill="black"/>
<path d="M40.1729 124.153V126.1L49.2105 130.84V129.133L40.1729 124.153Z" fill="#F5F5F5"/>
<path d="M38.3276 123.01L48.8346 129.27C48.9488 129.339 49.079 129.377 49.2125 129.381C49.346 129.385 49.4782 129.354 49.5962 129.292L61.1808 123.24C61.2207 123.217 61.2538 123.183 61.2767 123.142C61.2997 123.102 61.3118 123.056 61.3118 123.01C61.3118 122.963 61.2997 122.917 61.2767 122.877C61.2538 122.837 61.2207 122.803 61.1808 122.779L50.6106 115.909L38.3276 123.01Z" fill="#9269AD"/>
<path d="M49.2105 128.177L38.378 121.857C38.3538 121.842 38.3336 121.822 38.3197 121.798C38.3057 121.773 38.2983 121.746 38.2983 121.717C38.2983 121.689 38.3057 121.662 38.3197 121.637C38.3336 121.613 38.3538 121.593 38.378 121.578L50.386 114.178L49.2105 128.177Z" fill="#9269AD"/>
<path opacity="0.4" d="M49.2105 128.177L38.378 121.857C38.3538 121.842 38.3336 121.822 38.3197 121.798C38.3057 121.773 38.2983 121.746 38.2983 121.717C38.2983 121.689 38.3057 121.662 38.3197 121.637C38.3336 121.613 38.3538 121.593 38.378 121.578L50.386 114.178L49.2105 128.177Z" fill="black"/>
<path d="M49.2104 128.176L61.288 121.183V118.004L49.2104 124.969V128.176Z" fill="#9269AD"/>
<path opacity="0.2" d="M49.2104 128.176L61.288 121.183V118.004L49.2104 124.969V128.176Z" fill="black"/>
<path d="M58.931 121.66L54.1625 124.412C53.8465 124.595 53.5874 124.412 53.5874 123.979C53.5903 123.764 53.6439 123.553 53.7438 123.362C53.8438 123.172 53.9872 123.007 54.1625 122.883L58.931 120.127C59.247 119.944 59.5061 120.127 59.5061 120.563C59.5024 120.778 59.4485 120.989 59.3486 121.18C59.2488 121.37 59.1057 121.535 58.931 121.66V121.66Z" fill="#E6E6E6"/>
<path d="M52.8856 124.397C52.8735 124.627 52.8071 124.851 52.6918 125.05C52.5764 125.25 52.4154 125.419 52.222 125.544C51.8586 125.756 51.5615 125.585 51.5615 125.162C51.574 124.932 51.6402 124.709 51.7549 124.509C51.8697 124.31 52.0296 124.141 52.222 124.015C52.5885 123.803 52.8856 123.974 52.8856 124.397Z" fill="#E6E6E6"/>
<path d="M49.2106 124.969L38.4192 119.897C38.3936 119.883 38.3721 119.862 38.3572 119.837C38.3423 119.811 38.3345 119.783 38.3345 119.753C38.3345 119.724 38.3423 119.695 38.3572 119.67C38.3721 119.644 38.3936 119.624 38.4192 119.609L49.9912 112.727C50.0567 112.688 50.131 112.666 50.2072 112.663C50.2834 112.661 50.3591 112.677 50.4272 112.711L61.304 118.004L49.2106 124.969Z" fill="#9269AD"/>
<path d="M39.1143 120.223V121.588L48.0539 126.644V124.425L39.1143 120.223Z" fill="#F5F5F5"/>
<path d="M48.0542 126.644L49.2108 125.92V124.969L48.0542 124.426V126.644Z" fill="#E0E0E0"/>
<path d="M38.3433 118.352V114.825H58.0364C58.1027 114.825 60.2168 115.928 61.1521 116.405C61.1943 116.428 61.2295 116.462 61.254 116.504C61.2785 116.545 61.2914 116.592 61.2914 116.641C61.2914 116.689 61.2785 116.736 61.254 116.777C61.2295 116.819 61.1943 116.853 61.1521 116.876L49.4791 123.477C49.396 123.52 49.3039 123.542 49.2105 123.542C49.1171 123.542 49.025 123.52 48.9419 123.477L38.3433 118.352Z" fill="#9269AD"/>
<path opacity="0.4" d="M38.3433 118.352V114.825H58.0364C58.1027 114.825 60.2168 115.928 61.1521 116.405C61.1943 116.428 61.2295 116.462 61.254 116.504C61.2785 116.545 61.2914 116.592 61.2914 116.641C61.2914 116.689 61.2785 116.736 61.254 116.777C61.2295 116.819 61.1943 116.853 61.1521 116.876L49.4791 123.477C49.396 123.52 49.3039 123.542 49.2105 123.542C49.1171 123.542 49.025 123.52 48.9419 123.477L38.3433 118.352Z" fill="black"/>
<path d="M49.2231 122.656L60.4001 116.371V115.006L49.2231 120.953V122.656Z" fill="#E0E0E0"/>
<path d="M38.3433 118.352L41.2631 116.642L38.3433 114.825V118.352Z" fill="#9269AD"/>
<path opacity="0.6" d="M38.3433 118.352L41.2631 116.642L38.3433 114.825V118.352Z" fill="black"/>
<path d="M40.1855 115.973V117.919L49.2231 122.656V120.953L40.1855 115.973Z" fill="#F5F5F5"/>
<path d="M38.3433 114.825L48.8503 121.088C48.9646 121.157 49.0948 121.195 49.2282 121.199C49.3615 121.203 49.4937 121.173 49.6118 121.111L61.1964 115.043C61.2372 115.021 61.2714 114.988 61.2958 114.949C61.3202 114.909 61.3338 114.864 61.3354 114.817C61.337 114.771 61.3265 114.724 61.3049 114.683C61.2833 114.642 61.2514 114.607 61.2122 114.582L50.6388 107.709L38.3433 114.825Z" fill="#9269AD"/>
<path d="M49.2234 119.992L38.3941 113.672C38.3699 113.658 38.3498 113.637 38.3358 113.613C38.3218 113.588 38.3145 113.561 38.3145 113.533C38.3145 113.505 38.3218 113.477 38.3358 113.453C38.3498 113.428 38.3699 113.408 38.3941 113.394L50.4021 105.996L49.2234 119.992Z" fill="#9269AD"/>
<path opacity="0.4" d="M49.2234 119.992L38.3941 113.672C38.3699 113.658 38.3498 113.637 38.3358 113.613C38.3218 113.588 38.3145 113.561 38.3145 113.533C38.3145 113.505 38.3218 113.477 38.3358 113.453C38.3498 113.428 38.3699 113.408 38.3941 113.394L50.4021 105.996L49.2234 119.992Z" fill="black"/>
<path d="M49.2231 119.992L61.3007 112.999V109.823L49.2231 116.785V119.992Z" fill="#9269AD"/>
<path opacity="0.2" d="M49.2231 119.992L61.3007 112.999V109.823L49.2231 116.785V119.992Z" fill="black"/>
<path d="M58.9466 113.492L54.175 116.244C53.859 116.428 53.603 116.244 53.603 115.811C53.6061 115.596 53.6594 115.385 53.7587 115.194C53.858 115.003 54.0006 114.838 54.175 114.712L58.9466 111.959C59.2626 111.776 59.5185 111.959 59.5185 112.392C59.5155 112.607 59.4622 112.819 59.3629 113.01C59.2636 113.201 59.121 113.366 58.9466 113.492V113.492Z" fill="#E6E6E6"/>
<path d="M52.9014 116.216C52.8886 116.445 52.8219 116.669 52.7066 116.868C52.5913 117.068 52.4307 117.237 52.2378 117.363C51.8713 117.574 51.5742 117.404 51.5742 116.98C51.5868 116.75 51.6534 116.526 51.7687 116.326C51.884 116.126 52.0447 115.956 52.2378 115.83C52.6044 115.622 52.9014 115.792 52.9014 116.216Z" fill="#E6E6E6"/>
<path d="M49.2231 116.785L38.4349 111.729C38.4092 111.714 38.3878 111.693 38.3729 111.668C38.358 111.643 38.3501 111.614 38.3501 111.585C38.3501 111.555 38.358 111.527 38.3729 111.501C38.3878 111.476 38.4092 111.455 38.4349 111.441L50.0068 104.558C50.0724 104.52 50.1464 104.498 50.2225 104.495C50.2985 104.491 50.3742 104.507 50.4429 104.54L61.3038 109.823L49.2231 116.785Z" fill="#9269AD"/>
<path d="M39.1304 112.041V113.403L48.07 118.462V116.241L39.1304 112.041Z" fill="#F5F5F5"/>
<path d="M48.0698 118.463L49.2232 117.739V116.785L48.0698 116.241V118.463Z" fill="#E0E0E0"/>
<path d="M48.9229 107.627L61.3322 100.52L51.4762 95.0879L39.5029 102.138L48.9229 107.627Z" fill="#FAFAFA"/>
<path d="M49.3497 106.439C49.3321 106.443 49.3136 106.443 49.296 106.439L42.0912 102.227C42.0785 102.219 42.0673 102.21 42.0584 102.198C42.0494 102.187 42.0428 102.173 42.039 102.159C42.0352 102.145 42.0342 102.131 42.0361 102.116C42.038 102.102 42.0428 102.088 42.0501 102.075C42.0573 102.063 42.0668 102.052 42.0782 102.043C42.0896 102.035 42.1026 102.028 42.1164 102.025C42.1302 102.021 42.1446 102.021 42.1587 102.023C42.1728 102.025 42.1864 102.03 42.1986 102.037L49.4066 106.237C49.4192 106.244 49.4303 106.253 49.4392 106.264C49.4481 106.275 49.4547 106.288 49.4585 106.302C49.4623 106.316 49.4633 106.331 49.4615 106.345C49.4596 106.359 49.4549 106.373 49.4476 106.385C49.4371 106.402 49.4226 106.415 49.4055 106.424C49.3884 106.434 49.3692 106.439 49.3497 106.439V106.439Z" fill="#E0E0E0"/>
<path d="M50.5348 105.722C50.5172 105.726 50.4987 105.726 50.4811 105.722L43.2732 101.522C43.2481 101.507 43.2299 101.483 43.2222 101.454C43.2146 101.426 43.2181 101.396 43.2321 101.37C43.2392 101.358 43.2489 101.346 43.2606 101.337C43.2722 101.329 43.2855 101.322 43.2997 101.319C43.3139 101.315 43.3287 101.314 43.3432 101.317C43.3576 101.319 43.3714 101.325 43.3838 101.332L50.5885 105.532C50.6099 105.543 50.6269 105.562 50.6366 105.584C50.6462 105.606 50.6481 105.631 50.6419 105.654C50.6357 105.678 50.6217 105.699 50.6023 105.713C50.5828 105.728 50.5591 105.735 50.5348 105.734V105.722Z" fill="#E0E0E0"/>
<path d="M51.685 105.039C51.6674 105.043 51.6489 105.043 51.6313 105.039L44.4233 100.839C44.3982 100.824 44.38 100.799 44.3729 100.771C44.3658 100.742 44.3703 100.712 44.3854 100.687C44.3925 100.675 44.4021 100.664 44.4135 100.656C44.4249 100.647 44.4378 100.641 44.4517 100.637C44.4655 100.634 44.4799 100.633 44.494 100.635C44.5081 100.637 44.5217 100.642 44.5339 100.649L51.7419 104.849C51.767 104.864 51.7851 104.888 51.7922 104.917C51.7993 104.945 51.7949 104.975 51.7798 105.001C51.7684 105.014 51.7537 105.025 51.7372 105.032C51.7206 105.038 51.7027 105.041 51.685 105.039V105.039Z" fill="#E0E0E0"/>
<path d="M52.8697 104.321C52.8498 104.321 52.8304 104.315 52.8129 104.306L45.6081 100.106C45.5955 100.099 45.5844 100.09 45.5755 100.078C45.5665 100.067 45.56 100.054 45.5561 100.04C45.5523 100.026 45.5513 100.012 45.5532 99.9977C45.555 99.9835 45.5597 99.9698 45.567 99.9574C45.5742 99.9447 45.5838 99.9335 45.5954 99.9246C45.6069 99.9156 45.6202 99.909 45.6343 99.9052C45.6484 99.9014 45.6631 99.9004 45.6776 99.9023C45.6921 99.9042 45.706 99.909 45.7187 99.9163L52.9235 104.116C52.9485 104.131 52.9667 104.155 52.9744 104.184C52.9821 104.212 52.9785 104.242 52.9645 104.268C52.9545 104.284 52.9406 104.297 52.924 104.307C52.9074 104.316 52.8888 104.321 52.8697 104.321V104.321Z" fill="#E0E0E0"/>
<path d="M54.052 103.604C54.0328 103.606 54.0137 103.6 53.9982 103.589L46.7903 99.3889C46.7779 99.3817 46.7671 99.3722 46.7585 99.3608C46.7499 99.3494 46.7437 99.3364 46.7402 99.3226C46.7366 99.3088 46.7359 99.2944 46.738 99.2803C46.7401 99.2661 46.745 99.2526 46.7523 99.2404C46.7592 99.2278 46.7686 99.2167 46.7799 99.2078C46.7911 99.1989 46.8041 99.1923 46.8179 99.1885C46.8318 99.1846 46.8462 99.1836 46.8605 99.1855C46.8747 99.1873 46.8885 99.192 46.9009 99.1993L54.1088 103.399C54.134 103.414 54.1521 103.438 54.1592 103.467C54.1663 103.495 54.1618 103.525 54.1468 103.551C54.1372 103.567 54.1233 103.581 54.1067 103.59C54.09 103.6 54.0711 103.605 54.052 103.604V103.604Z" fill="#E0E0E0"/>
<path d="M55.2338 102.886C55.2163 102.892 55.1975 102.892 55.18 102.886L47.9752 98.6868C47.9626 98.6799 47.9516 98.6706 47.9426 98.6593C47.9337 98.648 47.9272 98.6351 47.9233 98.6212C47.9195 98.6074 47.9185 98.5929 47.9203 98.5787C47.9222 98.5644 47.9269 98.5507 47.9342 98.5383C47.9493 98.5132 47.9735 98.495 48.0018 98.4874C48.03 98.4797 48.0601 98.4832 48.0858 98.4972L55.3001 102.681C55.3252 102.696 55.3434 102.72 55.3511 102.749C55.3587 102.777 55.3552 102.807 55.3412 102.833C55.3298 102.851 55.3138 102.865 55.2949 102.874C55.276 102.884 55.2549 102.888 55.2338 102.886Z" fill="#E0E0E0"/>
<path d="M56.4186 102.169C56.3994 102.171 56.3803 102.165 56.3648 102.154L49.1569 97.9603C49.1443 97.9533 49.1332 97.944 49.1243 97.9327C49.1154 97.9215 49.1088 97.9085 49.105 97.8947C49.1011 97.8808 49.1001 97.8663 49.102 97.8521C49.1038 97.8379 49.1085 97.8241 49.1158 97.8117C49.1309 97.7867 49.1552 97.7684 49.1834 97.7608C49.2117 97.7531 49.2418 97.7567 49.2675 97.7706L56.4723 101.97C56.485 101.978 56.4961 101.987 56.5051 101.999C56.5141 102.01 56.5206 102.023 56.5244 102.038C56.5283 102.052 56.5293 102.066 56.5274 102.081C56.5254 102.095 56.5207 102.109 56.5134 102.122C56.503 102.137 56.4888 102.15 56.4722 102.158C56.4556 102.166 56.4371 102.17 56.4186 102.169V102.169Z" fill="#E0E0E0"/>
<path d="M57.6036 101.452C57.5849 101.457 57.5654 101.457 57.5467 101.452L50.3419 97.2493C50.3293 97.2424 50.3183 97.233 50.3093 97.2218C50.3004 97.2105 50.2939 97.1976 50.29 97.1837C50.2862 97.1699 50.2852 97.1554 50.287 97.1412C50.2889 97.1269 50.2936 97.1132 50.3009 97.1008C50.316 97.0757 50.3402 97.0575 50.3685 97.0499C50.3967 97.0422 50.4268 97.0457 50.4525 97.0597L57.6573 101.259C57.6824 101.274 57.7006 101.299 57.7083 101.327C57.7159 101.355 57.7124 101.385 57.6984 101.411C57.687 101.425 57.6724 101.436 57.656 101.443C57.6395 101.45 57.6215 101.453 57.6036 101.452V101.452Z" fill="#E0E0E0"/>
<path d="M58.776 100.735C58.7573 100.74 58.7378 100.74 58.7191 100.735L51.5143 96.5356C51.5017 96.5284 51.4906 96.5187 51.4816 96.5071C51.4727 96.4956 51.4662 96.4824 51.4624 96.4683C51.4585 96.4542 51.4575 96.4395 51.4594 96.425C51.4613 96.4106 51.466 96.3966 51.4732 96.3839C51.4805 96.3713 51.4902 96.3602 51.5017 96.3513C51.5133 96.3424 51.5265 96.3358 51.5406 96.332C51.5546 96.3282 51.5693 96.3272 51.5838 96.329C51.5983 96.3309 51.6123 96.3356 51.6249 96.3429L58.8297 100.542C58.8424 100.55 58.8536 100.559 58.8625 100.571C58.8715 100.582 58.8781 100.596 58.8819 100.61C58.8857 100.624 58.8867 100.639 58.8848 100.653C58.8829 100.668 58.8781 100.682 58.8708 100.694C58.8597 100.708 58.8452 100.72 58.8287 100.727C58.8121 100.734 58.794 100.737 58.776 100.735V100.735Z" fill="#E0E0E0"/>
<path d="M39.5381 102.1L48.958 107.592V116.029L39.5381 110.828V102.1Z" fill="#F0F0F0"/>
<path d="M48.958 107.592L61.3673 100.482V108.825L48.958 116.03V107.592Z" fill="#E6E6E6"/>
<path d="M46.9321 108.416L48.9577 109.595L53.3406 107.086L48.9577 110.236L46.9321 108.416Z" fill="#E0E0E0"/>
<path d="M46.9321 111.352L48.9577 112.534L51.432 111.115L48.9577 113.176L46.9321 111.352Z" fill="#E0E0E0"/>
<path d="M50.1367 109.993L51.6851 110.455L52.8701 108.663L50.1367 109.993Z" fill="#E0E0E0"/>
<path d="M50.1367 109.994L54.8104 107.33L52.472 109.994H50.1367Z" fill="white"/>
<path d="M57.1294 104.274L58.2259 104.599L59.0633 103.332L57.1294 104.274Z" fill="#E0E0E0"/>
<path d="M57.1294 104.274L60.4379 102.388L58.7852 104.274H57.1294Z" fill="white"/>
<path d="M54.7661 110.546L55.8626 110.872L56.7 109.604L54.7661 110.546Z" fill="#E0E0E0"/>
<path d="M54.7661 110.546L58.0746 108.663L56.4188 110.546H54.7661Z" fill="white"/>
<path d="M42.9193 110.809L42.1167 111.049L41.5005 110.117L42.9193 110.809Z" fill="#E0E0E0"/>
<path d="M42.9191 110.809L40.4922 109.425L41.7056 110.809H42.9191Z" fill="white"/>
<path d="M46.0789 107.497L44.9824 107.823L44.145 106.556L46.0789 107.497Z" fill="#E0E0E0"/>
<path d="M46.079 107.498L42.7705 105.614L44.4263 107.498H46.079Z" fill="white"/>
<path d="M130.916 122.072L129.637 121.538L129.968 119.986L130.916 122.072Z" fill="#37474F"/>
<path d="M132.357 117.897L132.902 120.337L130.916 122.073L129.967 119.987L132.357 117.897Z" fill="#455A64"/>
<path d="M126.879 115.365C126.5 116.376 126.23 117.424 126.072 118.492C125.807 120.006 125.105 121.41 124.052 122.53C123.118 123.39 121.451 125.372 124.344 125.726C127.336 126.11 129.844 123.62 129.883 122.249C129.921 120.878 130.286 119.802 131.035 119.176C131.784 118.55 132.368 117.908 132.368 117.908C132.368 117.908 131.035 113.122 129.894 113.391C128.754 113.66 126.879 115.365 126.879 115.365Z" fill="#263238"/>
<path d="M128.036 110.684C127.175 109.385 126.203 107.857 125.42 106.458C123.576 103.139 120.783 97.8689 118.044 96.8163V74.4401L107.526 73.9561C107.526 73.9561 104.069 86.214 108.982 96.0672C112.493 103.124 120.122 110.48 124.152 114.083C125.412 113.888 127.717 113.162 128.036 110.684Z" fill="#455A64"/>
<path d="M130.16 113.768C130.16 113.768 129.199 112.443 128.032 110.695C127.713 113.173 125.408 113.888 124.148 114.095C125.746 115.52 126.787 116.361 126.787 116.361C126.787 116.361 130.214 116.826 130.16 113.768Z" fill="#945959"/>
<path d="M108.586 95.2022L111.406 81.2887C111.406 81.2887 109.301 80.0594 109.301 76.8096C109.301 76.8096 109.036 79.9442 110.453 82.2106L108.029 93.8424C108.198 94.2957 108.387 94.7528 108.586 95.2022Z" fill="#37474F"/>
<path d="M118.044 96.8038V95.9971L116.715 96.8576L114.264 100.649L114.033 103.626C114.997 104.813 116.004 105.966 117.006 107.056L117.206 102.178L119.05 97.3608C118.741 97.1317 118.402 96.9445 118.044 96.8038V96.8038Z" fill="#37474F"/>
<path d="M108.367 133.735L107.069 132.997L108.367 131.276V133.735Z" fill="#37474F"/>
<path d="M110.258 130.437V132.615L108.368 133.736V131.278L110.258 130.437Z" fill="#455A64"/>
<path d="M106.155 125.819C106.155 125.819 105.417 125.52 104.714 128.082C104.011 130.644 101.099 132.307 100.362 132.753C99.6243 133.199 97.6728 135.058 100.362 136.018C103.051 136.979 106.474 135.565 107.276 133.948C108.079 132.331 108.49 131.347 110.253 130.437V127.168C110.253 126.538 109.593 126.081 109.174 125.973C108.755 125.865 106.155 125.819 106.155 125.819Z" fill="#263238"/>
<path d="M121.151 73.9557L109.301 73.1221V76.8098C109.301 80.0597 111.406 81.2889 111.406 81.2889L107.822 98.9594C107.648 99.8114 107.53 100.674 107.468 101.541L105.913 123.713C106.499 124.223 107.207 124.572 107.969 124.727C108.73 124.882 109.518 124.837 110.257 124.597C111.064 122.127 112.439 118.001 114.06 113.491C116.012 108.048 116.1 104.272 116.023 102.736C115.994 102.197 116.09 101.659 116.304 101.164C116.949 99.6662 118.52 96.0246 121.151 89.8822C126.053 78.4732 121.151 73.9557 121.151 73.9557Z" fill="#455A64"/>
<path d="M105.913 123.729L105.69 126.913C105.89 127.237 106.174 127.501 106.513 127.676C106.851 127.85 107.231 127.929 107.611 127.904C109.017 127.904 109.508 126.994 109.508 126.994C109.508 126.994 109.789 126.106 110.277 124.612C109.535 124.856 108.743 124.902 107.978 124.747C107.213 124.593 106.501 124.241 105.913 123.729V123.729Z" fill="#945959"/>
<path d="M110.48 56.8887C110.48 56.8887 107.169 57.0154 106.013 59.4432C104.856 61.871 103.205 66.7765 103.205 66.7765L107.645 67.7753L110.48 56.8887Z" fill="#9269AD"/>
<path opacity="0.2" d="M110.48 56.8887C110.48 56.8887 107.169 57.0154 106.013 59.4432C104.856 61.871 103.205 66.7765 103.205 66.7765L107.645 67.7753L110.48 56.8887Z" fill="white"/>
<path d="M117.56 57.3873L121.152 58.0096V66.0766L120.03 70.3636C120.03 70.3636 120.241 72.6684 121.152 73.9438C121.152 73.9438 114.76 78.7916 107.526 73.9438C107.526 73.9438 107.807 69.7182 107.807 68.5351C107.807 68.5351 105.356 67.06 105.598 64.8127C105.84 62.5655 110.48 56.8764 110.48 56.8764L113.031 56.8418L117.56 57.3873Z" fill="#9269AD"/>
<path opacity="0.4" d="M117.56 57.3873L121.152 58.0096V66.0766L120.03 70.3636C120.03 70.3636 120.241 72.6684 121.152 73.9438C121.152 73.9438 114.76 78.7916 107.526 73.9438C107.526 73.9438 107.807 69.7182 107.807 68.5351C107.807 68.5351 105.356 67.06 105.598 64.8127C105.84 62.5655 110.48 56.8764 110.48 56.8764L113.031 56.8418L117.56 57.3873Z" fill="white"/>
<path d="M111.387 40.9001C111.387 40.9001 108.283 39.8245 107.526 43.0014C106.769 46.1782 109.105 49.2591 105.605 50.3001C105.605 50.3001 107.668 52.0172 109.481 48.8134L111.018 55.3439C111.018 55.3439 111.018 55.7011 110.476 55.9738C110.476 55.9738 119.312 57.933 120.983 53.5345C121.218 53.7882 121.378 54.1018 121.446 54.4407C121.513 54.7797 121.486 55.1308 121.367 55.4552C121.367 55.4552 123.967 54.4027 123.238 51.0338C123.238 51.0338 125.293 50.9762 125.781 49.3013C125.781 49.3013 122.492 49.4588 122.512 45.844C122.535 41.6492 120.326 42.2562 120.326 42.2562C120.326 42.2562 117.625 38.2342 111.387 40.9001Z" fill="#263238"/>
<path d="M113.031 54.053V56.8534C113.031 56.8534 110.514 61.1903 111.494 61.4631C113.369 61.9893 117.54 57.3796 117.54 57.3796V51.4639L113.031 54.053Z" fill="#945959"/>
<path d="M117.51 50.527V50.6921C116.5 54.6718 113.876 55.54 113.031 55.7436L113 49.5973L117.379 49.5781L117.51 50.527Z" fill="#703838"/>
<path d="M113.315 41.6681C111.644 41.8064 108.168 43.028 108.114 47.4303C108.06 51.8325 108.736 55.2014 111.022 55.3397C113.307 55.478 118.416 53.419 118.651 47.6953C118.885 41.9716 114.948 41.526 113.315 41.6681Z" fill="#945959"/>
<path d="M111.202 49.2012L111.241 51.7903L109.72 51.3485L111.202 49.2012Z" fill="#703838"/>
<path d="M113.476 49.1326C113.465 49.2649 113.405 49.3882 113.307 49.478C113.209 49.5678 113.081 49.6176 112.948 49.6176C112.815 49.6176 112.687 49.5678 112.59 49.478C112.492 49.3882 112.431 49.2649 112.42 49.1326C112.419 48.9923 112.473 48.8572 112.571 48.7566C112.669 48.6559 112.802 48.5978 112.942 48.5948C113.013 48.5937 113.083 48.607 113.149 48.6337C113.214 48.6604 113.274 48.7 113.324 48.7502C113.374 48.8004 113.413 48.8601 113.439 48.9259C113.465 48.9916 113.478 49.0619 113.476 49.1326V49.1326Z" fill="#263238"/>
<path d="M110.004 48.8136C110.005 48.9184 109.975 49.0213 109.918 49.1093C109.861 49.1973 109.78 49.2665 109.683 49.308C109.587 49.3495 109.481 49.3615 109.378 49.3426C109.274 49.3236 109.179 49.2745 109.104 49.2014C109.029 49.1284 108.977 49.0347 108.955 48.9322C108.933 48.8296 108.942 48.7229 108.981 48.6255C109.02 48.528 109.086 48.4443 109.173 48.3848C109.259 48.3253 109.361 48.2927 109.466 48.2911C109.536 48.2896 109.605 48.302 109.67 48.3275C109.735 48.353 109.794 48.3912 109.844 48.4398C109.894 48.4884 109.934 48.5465 109.961 48.6107C109.989 48.6748 110.003 48.7438 110.004 48.8136V48.8136Z" fill="#263238"/>
<path d="M108.816 47.7302L109.838 47.104C109.838 47.104 109.454 46.6968 109.047 46.9503C108.934 47.0418 108.852 47.1653 108.811 47.3045C108.77 47.4437 108.772 47.5921 108.816 47.7302V47.7302Z" fill="#9269AD"/>
<path d="M108.816 47.7302L109.838 47.104C109.838 47.104 109.454 46.6968 109.047 46.9503C108.934 47.0418 108.852 47.1653 108.811 47.3045C108.77 47.4437 108.772 47.5921 108.816 47.7302V47.7302Z" fill="#263238"/>
<path d="M116.073 48.8943C116.073 48.8943 115.969 50.7497 117.037 50.7497H119.131V47.2117C119.131 43.2435 116.123 39.0986 109.719 42.3754C109.719 42.3754 109.416 47.6727 116.073 48.8943Z" fill="#263238"/>
<path d="M117.03 50.5301C117.02 50.1336 117.099 49.7399 117.261 49.3777C117.34 49.1469 117.485 48.9445 117.678 48.7956C117.872 48.6467 118.104 48.5579 118.348 48.5403C119.596 48.5211 119.75 49.7234 119.731 50.1498C119.673 51.2715 118.755 52.4739 117.042 52.5008L117.03 50.5301Z" fill="#945959"/>
<path d="M112.589 52.6089C112.589 52.6947 112.564 52.7787 112.516 52.85C112.469 52.9214 112.401 52.9771 112.321 53.0099C112.242 53.0428 112.155 53.0514 112.071 53.0346C111.986 53.0179 111.909 52.9765 111.848 52.9158C111.788 52.8551 111.746 52.7778 111.73 52.6936C111.713 52.6094 111.721 52.5221 111.754 52.4428C111.787 52.3634 111.843 52.2957 111.914 52.248C111.985 52.2003 112.069 52.1748 112.155 52.1748C112.27 52.1748 112.381 52.2205 112.462 52.3019C112.544 52.3833 112.589 52.4938 112.589 52.6089Z" fill="#703838"/>
<path d="M121.151 58.0098C121.151 58.0098 118.201 59.0815 119.492 64.2444C120.782 69.4072 122.023 73.7288 122.023 73.7288L116.887 76.802C116.887 76.802 118.754 77.697 118.335 80.9891C118.335 80.9891 125.05 79.3296 126.606 78.2002C128.162 77.0709 127.632 73.7711 127.263 71.9541C126.894 70.1371 125.158 62.7616 124.893 61.759C124.628 60.7564 123.844 58.4784 121.151 58.0098Z" fill="#9269AD"/>
<path opacity="0.2" d="M121.151 58.0098C121.151 58.0098 118.201 59.0815 119.492 64.2444C120.782 69.4072 122.023 73.7288 122.023 73.7288L116.887 76.802C116.887 76.802 118.754 77.697 118.335 80.9891C118.335 80.9891 125.05 79.3296 126.606 78.2002C128.162 77.0709 127.632 73.7711 127.263 71.9541C126.894 70.1371 125.158 62.7616 124.893 61.759C124.628 60.7564 123.844 58.4784 121.151 58.0098Z" fill="white"/>
<path d="M122.024 73.728C123.041 73.6421 124.058 73.8917 124.92 74.4387C124.538 73.9804 124.062 73.61 123.523 73.3528C122.985 73.0955 122.397 72.9575 121.801 72.9482L122.024 73.728Z" fill="#9269AD"/>
<path d="M100.854 86.1093L87.6852 78.4264C87.6557 78.4092 87.6313 78.3845 87.6143 78.3548C87.5973 78.3252 87.5884 78.2916 87.5884 78.2574C87.5884 78.2232 87.5973 78.1897 87.6143 78.16C87.6313 78.1304 87.6557 78.1057 87.6852 78.0884L102.283 69.0918L100.854 86.1093Z" fill="#9269AD"/>
<path opacity="0.4" d="M100.854 86.1093L87.6852 78.4264C87.6557 78.4092 87.6313 78.3845 87.6143 78.3548C87.5973 78.3252 87.5884 78.2916 87.5884 78.2574C87.5884 78.2232 87.5973 78.1897 87.6143 78.16C87.6313 78.1304 87.6557 78.1057 87.6852 78.0884L102.283 69.0918L100.854 86.1093Z" fill="black"/>
<path d="M100.854 86.1096L115.535 77.6086V73.7441L100.854 82.2106V86.1096Z" fill="#9269AD"/>
<path opacity="0.2" d="M100.854 86.1096L115.535 77.6086V73.7441L100.854 82.2106V86.1096Z" fill="black"/>
<path d="M112.67 78.2039L106.873 81.5537C106.489 81.7765 106.174 81.5537 106.174 81.0235C106.177 80.762 106.243 80.5051 106.364 80.2734C106.485 80.0418 106.66 79.8422 106.873 79.6906L112.67 76.3447C113.054 76.1219 113.369 76.3447 113.369 76.871C113.364 77.1323 113.299 77.389 113.177 77.6204C113.056 77.8519 112.882 78.0517 112.67 78.2039V78.2039Z" fill="#E6E6E6"/>
<path d="M105.321 81.5148C105.306 81.7948 105.225 82.0673 105.085 82.3102C104.945 82.5531 104.75 82.7596 104.515 82.913C104.069 83.1704 103.712 82.9591 103.712 82.4482C103.726 82.1685 103.807 81.8961 103.946 81.6531C104.086 81.4102 104.28 81.2035 104.515 81.0499C104.96 80.7926 105.321 81 105.321 81.5148Z" fill="#E6E6E6"/>
<path d="M100.853 82.2105L87.7351 76.045C87.7037 76.0283 87.6775 76.0034 87.6593 75.973C87.641 75.9425 87.6313 75.9077 87.6313 75.8722C87.6313 75.8367 87.641 75.8018 87.6593 75.7714C87.6775 75.7409 87.7037 75.716 87.7351 75.6993L101.802 67.3327C101.882 67.2847 101.972 67.2575 102.064 67.2535C102.157 67.2494 102.249 67.2687 102.332 67.3096L115.551 73.744L100.853 82.2105Z" fill="#9269AD"/>
<path d="M88.5801 76.4404V78.0999L99.4474 84.2462V81.5495L88.5801 76.4404Z" fill="#F5F5F5"/>
<path d="M99.4473 84.2465L100.853 83.3706V82.2105L99.4473 81.5498V84.2465Z" fill="#E0E0E0"/>
<path d="M118.336 80.9967C118.336 80.9967 112.574 82.2375 112.04 82.3681C111.506 82.4987 108.721 83.3707 106.428 82.8675L112.09 79.6023C112.09 79.6023 109.201 78.8955 109.616 77.9966C109.774 77.6547 115.148 77.8391 115.148 77.8391L116.888 76.8096C116.888 76.8096 119.969 77.2052 118.336 80.9967Z" fill="#945959"/>
<path d="M87.6235 74.4472V70.1641H111.563C111.648 70.1641 114.218 71.5009 115.355 72.0848C115.406 72.1135 115.448 72.1553 115.478 72.2059C115.508 72.2566 115.523 72.3142 115.523 72.3729C115.523 72.4316 115.508 72.4892 115.478 72.5398C115.448 72.5904 115.406 72.6323 115.355 72.661L101.168 80.6819C101.069 80.7386 100.957 80.7701 100.842 80.7734C100.728 80.7768 100.614 80.7519 100.511 80.7011L87.6235 74.4472Z" fill="#9269AD"/>
<path opacity="0.4" d="M87.6235 74.4472V70.1641H111.563C111.648 70.1641 114.218 71.5009 115.355 72.0848C115.406 72.1135 115.448 72.1553 115.478 72.2059C115.508 72.2566 115.523 72.3142 115.523 72.3729C115.523 72.4316 115.508 72.4892 115.478 72.5398C115.448 72.5904 115.406 72.6323 115.355 72.661L101.168 80.6819C101.069 80.7386 100.957 80.7701 100.842 80.7734C100.728 80.7768 100.614 80.7519 100.511 80.7011L87.6235 74.4472Z" fill="black"/>
<path d="M100.854 79.679L114.437 72.0423V70.3828L100.854 77.6085V79.679Z" fill="#E0E0E0"/>
<path d="M87.6235 74.4473L91.173 72.369L87.6235 70.1641V74.4473Z" fill="#9269AD"/>
<path opacity="0.6" d="M87.6235 74.4473L91.173 72.369L87.6235 70.1641V74.4473Z" fill="black"/>
<path d="M89.8672 71.5547V73.921L100.854 79.6793V77.6088L89.8672 71.5547Z" fill="#F5F5F5"/>
<path d="M87.6235 70.1646L100.396 77.7783C100.535 77.8625 100.693 77.9093 100.856 77.914C101.018 77.9188 101.179 77.8812 101.322 77.8052L115.405 70.4296C115.454 70.4024 115.496 70.3627 115.526 70.3145C115.555 70.2663 115.572 70.2112 115.574 70.1547C115.576 70.0981 115.563 70.042 115.537 69.9919C115.51 69.9418 115.471 69.8994 115.424 69.8688L102.574 61.5176L87.6235 70.1646Z" fill="#9269AD"/>
<path d="M100.854 76.4452L87.6852 68.7624C87.6557 68.7451 87.6313 68.7204 87.6143 68.6907C87.5973 68.6611 87.5884 68.6275 87.5884 68.5933C87.5884 68.5592 87.5973 68.5256 87.6143 68.4959C87.6313 68.4663 87.6557 68.4416 87.6852 68.4243L102.283 59.4277L100.854 76.4452Z" fill="#9269AD"/>
<path opacity="0.4" d="M100.854 76.4452L87.6852 68.7624C87.6557 68.7451 87.6313 68.7204 87.6143 68.6907C87.5973 68.6611 87.5884 68.6275 87.5884 68.5933C87.5884 68.5592 87.5973 68.5256 87.6143 68.4959C87.6313 68.4663 87.6557 68.4416 87.6852 68.4243L102.283 59.4277L100.854 76.4452Z" fill="black"/>
<path d="M100.854 76.4408L115.535 67.9436V64.0791L100.854 72.5456V76.4408Z" fill="#9269AD"/>
<path opacity="0.2" d="M100.854 76.4408L115.535 67.9436V64.0791L100.854 72.5456V76.4408Z" fill="black"/>
<path d="M112.67 68.5576L106.873 71.9035C106.489 72.1263 106.174 71.9035 106.174 71.3772C106.177 71.1157 106.243 70.8587 106.364 70.6271C106.485 70.3955 106.66 70.1958 106.873 70.0443L112.67 66.6946C113.054 66.4756 113.369 66.6946 113.369 67.2247C113.364 67.486 113.299 67.7427 113.177 67.9741C113.056 68.2056 112.882 68.4054 112.67 68.5576V68.5576Z" fill="#E6E6E6"/>
<path d="M105.321 71.8507C105.307 72.1304 105.226 72.4025 105.086 72.6449C104.946 72.8873 104.75 73.093 104.515 73.2451C104.069 73.5025 103.712 73.2951 103.712 72.7803C103.727 72.5011 103.807 72.2294 103.947 71.9871C104.086 71.7448 104.281 71.5389 104.515 71.3859C104.96 71.1285 105.321 71.3359 105.321 71.8507Z" fill="#E6E6E6"/>
<path d="M100.854 72.5453L87.7354 66.399C87.7041 66.3818 87.6781 66.3564 87.66 66.3257C87.6419 66.295 87.6323 66.2599 87.6323 66.2243C87.6323 66.1886 87.6419 66.1535 87.66 66.1228C87.6781 66.0921 87.7041 66.0667 87.7354 66.0495L101.803 57.6829C101.884 57.6385 101.975 57.6152 102.068 57.6152C102.16 57.6152 102.251 57.6385 102.333 57.6829L115.551 64.1172L100.854 72.5453Z" fill="#9269AD"/>
<path d="M88.5801 66.7764V68.4359L99.4474 74.5821V71.8855L88.5801 66.7764Z" fill="#F5F5F5"/>
<path d="M99.4473 74.5814L100.853 73.7018V72.5455L99.4473 71.8848V74.5814Z" fill="#E0E0E0"/>
</g>
<defs>
<clipPath id="clip0_605_4797">
<rect width="158" height="158" fill="white"/>
</clipPath>
</defs>
</svg>
