<svg width="82" height="65" viewBox="0 0 82 65" fill="none" xmlns="http://www.w3.org/2000/svg">
<path d="M81.211 52.8232H0.787994V52.8632H81.211V52.8232Z" fill="#EBEBEB"/>
<path d="M28.649 53.8486H24.921V53.8886H28.649V53.8486Z" fill="#EBEBEB"/>
<path d="M74.58 54.7119H65.465V54.7519H74.58V54.7119Z" fill="#EBEBEB"/>
<path d="M16.774 54.7119H7.659V54.7519H16.774V54.7119Z" fill="#EBEBEB"/>
<path d="M38.909 45.6491H7.85099C7.60769 45.6488 7.37446 45.552 7.20251 45.3799C7.03057 45.2078 6.93399 44.9744 6.93399 44.7311V1.07211C6.9361 0.830203 7.03361 0.598905 7.20533 0.428501C7.37704 0.258097 7.60907 0.162364 7.85099 0.162109H38.909C39.1525 0.162109 39.386 0.258826 39.5581 0.430984C39.7303 0.603143 39.827 0.83664 39.827 1.08011V44.7311C39.827 44.9746 39.7303 45.2081 39.5581 45.3802C39.386 45.5524 39.1525 45.6491 38.909 45.6491ZM7.85099 0.194111C7.6183 0.194376 7.39524 0.286994 7.2308 0.451622C7.06636 0.61625 6.97399 0.839422 6.97399 1.07211V44.7311C6.97399 44.9638 7.06636 45.187 7.2308 45.3516C7.39524 45.5162 7.6183 45.6088 7.85099 45.6091H38.909C39.1416 45.6083 39.3645 45.5156 39.529 45.3511C39.6934 45.1866 39.7862 44.9637 39.787 44.7311V1.07211C39.7862 0.839492 39.6934 0.61663 39.529 0.452145C39.3645 0.287659 39.1416 0.194902 38.909 0.194111H7.85099Z" fill="#EBEBEB"/>
<path d="M73.702 45.6491H42.642C42.3989 45.6481 42.166 45.551 41.994 45.3791C41.8221 45.2071 41.7251 44.9743 41.724 44.7311V1.07211C41.7266 0.830193 41.8244 0.59905 41.9963 0.42873C42.1681 0.25841 42.4001 0.162621 42.642 0.162109H73.702C73.9436 0.16289 74.1751 0.258856 74.3464 0.429203C74.5177 0.59955 74.6149 0.830548 74.617 1.07211V44.7311C74.6173 44.9741 74.5211 45.2073 74.3495 45.3795C74.1779 45.5516 73.945 45.6486 73.702 45.6491ZM42.642 0.194111C42.4094 0.194902 42.1865 0.287659 42.022 0.452145C41.8575 0.61663 41.7648 0.839492 41.764 1.07211V44.7311C41.7648 44.9637 41.8575 45.1866 42.022 45.3511C42.1865 45.5156 42.4094 45.6083 42.642 45.6091H73.702C73.9346 45.6083 74.1575 45.5156 74.322 45.3511C74.4864 45.1866 74.5792 44.9637 74.58 44.7311V1.07211C74.5792 0.839492 74.4864 0.61663 74.322 0.452145C74.1575 0.287659 73.9346 0.194902 73.702 0.194111H42.642Z" fill="#EBEBEB"/>
<path d="M35.235 30.1807H12.593V52.8227H35.235V30.1807Z" fill="#E0E0E0"/>
<path d="M31.217 30.1807H10.423V52.8227H31.217V30.1807Z" fill="#EBEBEB"/>
<path d="M30.354 31.4072H11.261V37.5902H30.354V31.4072Z" fill="#F5F5F5"/>
<path d="M30.354 38.5635H11.261V44.7465H30.354V38.5635Z" fill="#F5F5F5"/>
<path d="M30.354 45.416H11.261V51.599H30.354V45.416Z" fill="#F5F5F5"/>
<path d="M21.01 34.1565C21.01 34.2902 20.9703 34.4208 20.8961 34.532C20.8218 34.6432 20.7162 34.7298 20.5927 34.781C20.4692 34.8322 20.3332 34.8455 20.2021 34.8195C20.071 34.7934 19.9505 34.729 19.856 34.6345C19.7614 34.5399 19.6971 34.4195 19.671 34.2883C19.6449 34.1572 19.6583 34.0213 19.7095 33.8978C19.7606 33.7742 19.8473 33.6687 19.9584 33.5944C20.0696 33.5201 20.2003 33.4805 20.334 33.4805C20.5133 33.4805 20.6852 33.5517 20.812 33.6784C20.9388 33.8052 21.01 33.9772 21.01 34.1565Z" fill="#FAFAFA"/>
<path d="M20.82 47.8834C20.82 47.9789 20.7917 48.0723 20.7386 48.1517C20.6855 48.2312 20.6101 48.2931 20.5218 48.3296C20.4336 48.3662 20.3365 48.3758 20.2428 48.3571C20.1491 48.3385 20.063 48.2925 19.9955 48.2249C19.9279 48.1574 19.8819 48.0713 19.8633 47.9776C19.8446 47.8839 19.8542 47.7868 19.8908 47.6985C19.9273 47.6103 19.9892 47.5349 20.0687 47.4818C20.1481 47.4287 20.2415 47.4004 20.337 47.4004C20.4651 47.4004 20.588 47.4513 20.6785 47.5419C20.7691 47.6325 20.82 47.7553 20.82 47.8834Z" fill="#FAFAFA"/>
<path d="M20.82 41.5611C20.82 41.6567 20.7917 41.75 20.7386 41.8295C20.6855 41.9089 20.6101 41.9708 20.5218 42.0074C20.4336 42.0439 20.3365 42.0535 20.2428 42.0349C20.1491 42.0162 20.063 41.9702 19.9955 41.9026C19.9279 41.8351 19.8819 41.749 19.8633 41.6553C19.8446 41.5616 19.8542 41.4645 19.8908 41.3763C19.9273 41.288 19.9892 41.2126 20.0687 41.1595C20.1481 41.1064 20.2415 41.0781 20.337 41.0781C20.4651 41.0781 20.588 41.129 20.6785 41.2196C20.7691 41.3102 20.82 41.433 20.82 41.5611Z" fill="#FAFAFA"/>
<path d="M38.066 2.36426H11.742V19.7153H38.066V2.36426Z" fill="#E0E0E0"/>
<path d="M37.557 2.36426H11.233V19.7153H37.557V2.36426Z" fill="#F0F0F0"/>
<path d="M36.589 3.19141H11.989V19.0254H36.589V3.19141Z" fill="#FAFAFA"/>
<path d="M35.755 3.41602L28.755 19.025H25.885L32.616 3.41602H35.755Z" fill="white"/>
<path d="M30.026 3.41602L22.918 19.025H19.546L26.977 3.41602H30.026Z" fill="white"/>
<path d="M38.03 2.36426H11.233V3.41626H38.03V2.36426Z" fill="#E0E0E0"/>
<path d="M38.03 3.68848H11.233V4.74048H38.03V3.68848Z" fill="#E0E0E0"/>
<path d="M38.03 5.01172H11.233V6.06372H38.03V5.01172Z" fill="#E0E0E0"/>
<path d="M38.03 6.33398H11.233V7.38598H38.03V6.33398Z" fill="#E0E0E0"/>
<path d="M38.03 7.65723H11.233V8.70923H38.03V7.65723Z" fill="#E0E0E0"/>
<path d="M38.83 19.7148H10.659V21.0238H38.83V19.7148Z" fill="#E0E0E0"/>
<path d="M71.427 39.3408V52.8228H66.663L66.409 51.4728H47.897V39.3408H71.427Z" fill="#E0E0E0"/>
<path d="M68.163 39.3408V52.8228H66.663L66.409 51.4728H47.529L47.229 52.8228H44.629V39.3408H68.163Z" fill="#EBEBEB"/>
<path d="M66.836 40.2871H45.828V44.9321H66.836V40.2871Z" stroke="#FAFAFA" stroke-miterlimit="10"/>
<path d="M66.836 45.8574H45.828V50.5494H66.836V45.8574Z" stroke="#FAFAFA" stroke-miterlimit="10"/>
<path d="M71.005 1.67871H61.558V14.4547H71.005V1.67871Z" fill="#E0E0E0"/>
<path d="M70.532 1.6709H61.085V14.4469H70.532V1.6709Z" fill="#E6E6E6"/>
<path d="M70.041 2.15039H61.558V13.9874H70.041V2.15039Z" fill="#FAFAFA"/>
<path d="M69.176 11.418H62.692V11.695H69.176V11.418Z" fill="#E0E0E0"/>
<path d="M69.176 12.124H62.692V12.401H69.176V12.124Z" fill="#E0E0E0"/>
<path d="M69.176 12.8301H62.692V13.1071H69.176V12.8301Z" fill="#E0E0E0"/>
<path d="M68.249 6.52408C68.249 7.05961 68.0633 7.57856 67.7236 7.99254C67.3839 8.40652 66.9111 8.68992 66.3859 8.79445C65.8607 8.89899 65.3154 8.8182 64.8431 8.56585C64.3708 8.31349 64.0005 7.90518 63.7954 7.41047C63.5904 6.91577 63.5632 6.36527 63.7184 5.85275C63.8737 5.34023 64.2019 4.89739 64.647 4.59968C65.0922 4.30197 65.6268 4.1678 66.1597 4.22002C66.6927 4.27224 67.1911 4.50763 67.57 4.88608C67.7852 5.1011 67.956 5.35643 68.0725 5.63749C68.189 5.91856 68.249 6.21983 68.249 6.52408V6.52408Z" stroke="#E0E0E0" stroke-miterlimit="10"/>
<path d="M67.306 17.7539H59.24V25.8199H67.306V17.7539Z" fill="#E0E0E0"/>
<path d="M66.616 17.7539H58.55V25.8199H66.616V17.7539Z" fill="#EBEBEB"/>
<path d="M66.06 18.3125H59.108V25.2645H66.06V18.3125Z" fill="#FAFAFA"/>
<path d="M64.427 19.9434H60.74V23.6304H64.427V19.9434Z" fill="#E0E0E0"/>
<path d="M40.691 64.1324C55.5403 64.1324 67.578 63.2222 67.578 62.0994C67.578 60.9766 55.5403 60.0664 40.691 60.0664C25.8417 60.0664 13.804 60.9766 13.804 62.0994C13.804 63.2222 25.8417 64.1324 40.691 64.1324Z" fill="#F5F5F5"/>
<path d="M26.604 51.3457H16.709V62.5137H26.604V51.3457Z" fill="#278DFF"/>
<path d="M31.552 51.3457H21.657V62.5137H31.552V51.3457Z" fill="#278DFF"/>
<path opacity="0.7" d="M26.604 51.3457H16.709V62.5137H26.604V51.3457Z" fill="white"/>
<path opacity="0.2" d="M31.55 51.3457H26.593V62.5137H31.55V51.3457Z" fill="white"/>
<path d="M28.9684 59.1602C29.6635 59.1439 30.2042 58.1572 30.1761 56.9563C30.1481 55.7555 29.5618 54.7951 28.8666 54.8114C28.1715 54.8276 27.6307 55.8143 27.6588 57.0152C27.6869 58.2161 28.2732 59.1764 28.9684 59.1602Z" fill="white"/>
<path d="M29.677 56.6187L29.14 56.6317L29.119 55.7217L28.704 55.7317L28.725 56.6417L28.135 56.6557L28.151 57.3647L28.741 57.3507L28.764 58.2507L29.179 58.2407L29.158 57.3407L29.695 57.3277L29.677 56.6187Z" fill="#278DFF"/>
<path d="M22.861 51.3457H20.857V53.3497H22.861V51.3457Z" fill="#F5F5F5"/>
<path d="M22.861 55.3496H20.857V62.5136H22.861V55.3496Z" fill="#F5F5F5"/>
<path d="M29.775 42.1855H21.657V51.3485H29.775V42.1855Z" fill="#278DFF"/>
<path d="M33.834 42.1855H25.716V51.3485H33.834V42.1855Z" fill="#278DFF"/>
<path opacity="0.7" d="M28.509 42.1855H21.657V51.3485H28.509V42.1855Z" fill="white"/>
<path opacity="0.2" d="M33.835 42.1855H28.509V51.3485H33.835V42.1855Z" fill="white"/>
<path d="M32.203 46.7901C32.227 47.7741 31.783 48.5901 31.212 48.5981C30.641 48.6061 30.16 47.8231 30.138 46.8381C30.116 45.8531 30.559 45.0381 31.129 45.0381C31.699 45.0381 32.18 45.8041 32.203 46.7901Z" fill="white"/>
<path d="M31.798 46.5114L31.357 46.5214L31.339 45.7734L30.998 45.7814L31.016 46.5294L30.53 46.5404L30.544 47.1224L31.028 47.1114L31.046 47.8534L31.387 47.8434L31.369 47.1034L31.81 47.0934L31.798 46.5114Z" fill="#278DFF"/>
<path d="M25.06 42.1855H23.415V51.3485H25.06V42.1855Z" fill="#F5F5F5"/>
<path d="M39.132 29.7741C39.132 29.7741 36.763 40.9951 36.558 44.7171C36.353 48.4391 37.325 57.7921 37.325 57.7921L40.352 58.2751L40.929 46.3391L42.256 37.2391C42.256 37.2391 43.646 44.6391 44.244 46.3701C44.842 48.1011 47.697 53.1261 50.055 57.1391L52.082 55.6541C52.082 55.6541 48.294 44.8231 47.647 42.7071C47 40.5911 47.438 31.6251 45.447 29.0781L39.132 29.7741Z" fill="#278DFF"/>
<path opacity="0.4" d="M39.132 29.7741C39.132 29.7741 36.763 40.9951 36.558 44.7171C36.353 48.4391 37.325 57.7921 37.325 57.7921L40.352 58.2751L40.929 46.3391L42.256 37.2391C42.256 37.2391 43.646 44.6391 44.244 46.3701C44.842 48.1011 47.697 53.1261 50.055 57.1391L52.082 55.6541C52.082 55.6541 48.294 44.8231 47.647 42.7071C47 40.5911 47.438 31.6251 45.447 29.0781L39.132 29.7741Z" fill="white"/>
<path d="M39.695 60.8967C39.1608 60.8582 38.6309 60.7743 38.111 60.6457L38.005 59.0947L37.963 58.4867L39.571 58.3447C39.571 58.3447 39.598 58.8077 39.627 59.3387C39.66 60.0347 39.713 60.8437 39.695 60.8967Z" fill="#B55B52"/>
<path opacity="0.2" d="M39.621 59.3397L38.004 59.0947L37.962 58.4867L39.57 58.3447C39.57 58.3447 39.592 58.8057 39.621 59.3397Z" fill="black"/>
<path d="M36.961 61.1923L36.897 61.1033C36.878 61.0763 36.414 60.4273 36.482 60.1093C36.4883 60.0784 36.5013 60.0493 36.5202 60.0241C36.539 59.9988 36.5632 59.9781 36.591 59.9633C36.6138 59.9496 36.6399 59.9424 36.6665 59.9424C36.6931 59.9424 36.7192 59.9496 36.742 59.9633C36.972 60.1033 36.964 60.9843 36.962 61.0893L36.961 61.1923ZM36.671 60.0153C36.6545 60.0156 36.6383 60.0201 36.624 60.0283C36.6055 60.0388 36.5895 60.0531 36.5771 60.0704C36.5647 60.0877 36.5561 60.1074 36.552 60.1283C36.502 60.3473 36.763 60.7713 36.89 60.9683C36.89 60.6583 36.848 60.1143 36.705 60.0273C36.6953 60.0203 36.6839 60.0161 36.672 60.0153H36.671Z" fill="#278DFF"/>
<path d="M36.798 61.2016L36.705 61.1626C36.605 61.1226 35.73 60.7576 35.676 60.4436C35.671 60.4116 35.6745 60.3789 35.6861 60.3488C35.6976 60.3186 35.7169 60.292 35.742 60.2716C35.7685 60.247 35.8004 60.2291 35.8352 60.2193C35.87 60.2096 35.9066 60.2083 35.942 60.2156C36.296 60.2766 36.733 61.0776 36.742 61.1156L36.798 61.2016ZM35.898 60.2836C35.8604 60.2847 35.8247 60.3 35.798 60.3266C35.7817 60.3385 35.7691 60.3547 35.7615 60.3735C35.7539 60.3922 35.7516 60.4126 35.755 60.4325C35.79 60.6385 36.337 60.9155 36.64 61.0535C36.515 60.8395 36.19 60.3315 35.94 60.2865L35.898 60.2836Z" fill="#278DFF"/>
<path d="M39.644 60.8108L38.019 60.5548C37.9179 60.5389 37.8144 60.5613 37.729 60.6178C37.3522 60.8721 36.9281 61.0482 36.482 61.1358C35.787 61.2358 35.169 61.0968 35.112 61.2968C35.0798 61.4265 35.0918 61.5633 35.1462 61.6854C35.2005 61.8075 35.2941 61.9079 35.412 61.9708C35.64 62.0898 38.439 62.5238 39.62 62.7038C39.6818 62.713 39.7449 62.7081 39.8045 62.6893C39.8642 62.6705 39.9187 62.6385 39.9641 62.5955C40.0095 62.5525 40.0445 62.4998 40.0665 62.4413C40.0885 62.3828 40.0969 62.32 40.091 62.2578L39.991 61.1798C39.982 61.0886 39.9431 61.003 39.8803 60.9362C39.8176 60.8695 39.7345 60.8254 39.644 60.8108Z" fill="#222221"/>
<path d="M36.926 57.4199L37.18 58.7579L40.493 59.0729L40.593 57.7189L36.926 57.4199Z" fill="#278DFF"/>
<path d="M53.102 57.333C52.6589 57.6362 52.1905 57.9005 51.702 58.123L50.747 57.073L50.247 56.521L50.755 56.038L51.414 55.416C51.414 55.416 51.482 55.493 51.593 55.616L52.179 56.275C52.616 56.767 53.079 57.296 53.102 57.333Z" fill="#B55B52"/>
<path opacity="0.2" d="M52.182 56.2762L50.75 57.0762L50.25 56.5242L50.758 56.0412L51.596 55.6182L52.182 56.2762Z" fill="black"/>
<path d="M51.241 58.7642L51.157 58.7252C51.126 58.7122 50.42 58.3892 50.357 58.1042C50.3508 58.0757 50.3517 58.0462 50.3596 58.0181C50.3674 57.99 50.382 57.9643 50.402 57.9432C50.4237 57.9157 50.4522 57.8945 50.4846 57.8815C50.5171 57.8685 50.5524 57.8643 50.587 57.8692C50.873 57.9162 51.171 58.6022 51.205 58.6812L51.241 58.7642ZM50.557 57.9372C50.5376 57.9375 50.5184 57.9423 50.5011 57.9511C50.4838 57.9599 50.4687 57.9726 50.457 57.9882C50.4445 58.0012 50.4354 58.0173 50.4307 58.0347C50.426 58.0522 50.4257 58.0706 50.43 58.0882C50.469 58.2682 50.868 58.5002 51.098 58.6162C50.987 58.3782 50.759 57.9732 50.577 57.9372H50.557Z" fill="#278DFF"/>
<path d="M50.179 59.1027C50.0348 59.1191 49.8895 59.0836 49.769 59.0026C49.7385 58.9721 49.7174 58.9334 49.708 58.8913C49.6986 58.8492 49.7014 58.8053 49.716 58.7646C49.7273 58.7149 49.7502 58.6686 49.7829 58.6295C49.8156 58.5904 49.8571 58.5596 49.904 58.5397C50.324 58.3497 51.262 58.8277 51.304 58.8487L51.384 58.8906L51.297 58.9166C50.9326 59.021 50.5575 59.0834 50.179 59.1027ZM50.148 58.5626C50.0741 58.5602 50.0004 58.5735 49.932 58.6016C49.8953 58.6174 49.863 58.6417 49.8376 58.6725C49.8122 58.7033 49.7945 58.7397 49.786 58.7786C49.7764 58.8059 49.7743 58.8352 49.7799 58.8635C49.7856 58.8919 49.7987 58.9182 49.818 58.9397C50.011 59.1267 50.798 58.9636 51.182 58.8606C50.8572 58.7029 50.5079 58.6017 50.149 58.5616L50.148 58.5626Z" fill="#278DFF"/>
<path d="M53.009 57.2779L51.577 58.0779C51.4876 58.1271 51.4203 58.2087 51.389 58.3059C51.2518 58.739 51.0287 59.14 50.733 59.4849C50.25 59.9949 49.681 60.2709 49.76 60.4629C49.8141 60.585 49.9077 60.6853 50.0259 60.7476C50.144 60.8098 50.2797 60.8304 50.411 60.8059C50.664 60.7579 53.128 59.3579 54.165 58.7699C54.2193 58.7387 54.2659 58.6956 54.301 58.6438C54.3362 58.592 54.3591 58.5328 54.3679 58.4709C54.3768 58.4089 54.3714 58.3457 54.3522 58.2861C54.333 58.2265 54.3004 58.172 54.257 58.1269L53.509 57.3439C53.4445 57.2795 53.3606 57.2382 53.2702 57.2262C53.1798 57.2143 53.088 57.2325 53.009 57.2779Z" fill="#222221"/>
<path d="M48.865 56.4472L49.896 57.3412L52.69 55.5302L51.926 54.4072L48.865 56.4472Z" fill="#278DFF"/>
<path d="M42.493 15.7632C43.7314 15.6651 44.9774 15.7453 46.193 16.0012C47.962 16.3732 44.81 18.5492 44.81 18.5492L43.822 22.5032L42.012 22.5192L41.793 16.9052L42.493 15.7632Z" fill="#EBEBEB"/>
<path d="M46.19 16.0059L42.352 22.0619L42.777 15.7119C42.1649 15.7207 41.5542 15.7745 40.95 15.8729C40.517 15.9979 40.15 17.0089 39.835 18.3919C39.52 19.7749 39.053 23.0919 39.053 23.0919L36.848 41.5919C36.848 41.5919 44.387 43.1999 47.938 41.9509C47.938 41.9509 46.603 25.3369 46.823 24.3109C47.043 23.2849 47.756 19.5309 47.756 19.5309C47.756 19.5309 48.744 17.6569 48.314 17.1049C47.6828 16.6061 46.9618 16.2331 46.19 16.0059Z" fill="#407BFC"/>
<path d="M41.666 27.6582L42.213 42.3372" stroke="white" stroke-width="0.75" stroke-linecap="round" stroke-linejoin="round"/>
<path d="M41.1995 16.1882L27.895 20.7227L31.2458 30.5543L44.5503 26.0199L41.1995 16.1882Z" fill="#278DFF"/>
<path d="M41.199 16.1878L31.244 30.5548L29.375 29.7068L26.025 19.8758L39.33 15.3418L41.199 16.1878Z" fill="#278DFF"/>
<path opacity="0.7" d="M41.199 16.1878L27.894 20.7218L31.244 30.5548L29.375 29.7068L26.025 19.8758L39.33 15.3418L41.199 16.1878Z" fill="white"/>
<path opacity="0.46" d="M41.1995 16.1882L27.895 20.7227L31.2458 30.5543L44.5503 26.0199L41.1995 16.1882Z" fill="white"/>
<path d="M38.353 26.2821C39.9575 24.9699 40.1945 22.6054 38.8823 21.001C37.5701 19.3965 35.2057 19.1595 33.6012 20.4717C31.9967 21.7839 31.7598 24.1483 33.0719 25.7528C34.3841 27.3573 36.7486 27.5942 38.353 26.2821Z" fill="#FAFAFA"/>
<path d="M38.23 22.0752L36.7 22.5752L36.208 21.0752L35.026 21.4632L35.518 22.9632L33.836 23.5132L34.217 24.6822L35.901 24.1302L36.388 25.6192L37.57 25.2312L37.083 23.7422L38.613 23.2422L38.23 22.0752Z" fill="#278DFF"/>
<path d="M42.769 7.90489V5.56488C43.63 5.25082 44.5644 5.19714 45.4556 5.41053C46.3469 5.62393 47.1556 6.09495 47.781 6.76489L46.655 9.03588L42.769 7.90489Z" fill="#278DFF"/>
<path d="M45.2304 5.90695L44.94 5.84961L44.7645 6.73845L45.0549 6.79579L45.2304 5.90695Z" fill="white"/>
<path d="M44.5854 6.08851L44.528 6.37891L45.4169 6.55442L45.4742 6.26402L44.5854 6.08851Z" fill="white"/>
<path d="M46.469 12.2248C46.001 12.8988 45.569 12.8058 45.569 12.8058C45.4282 13.0616 45.2449 13.2915 45.027 13.4858C44.95 15.5858 45.569 16.1558 45.569 16.1558C45.3588 16.5402 45.0059 16.8265 44.5865 16.953C44.167 17.0795 43.7146 17.0359 43.327 16.8318C43.1125 16.776 42.9186 16.6596 42.7685 16.4964C42.6185 16.3332 42.5187 16.1303 42.481 15.9118C42.7345 15.8196 42.9422 15.6323 43.0601 15.3897C43.1781 15.1471 43.197 14.8682 43.113 14.6118C43.0714 14.4638 43.0099 14.3222 42.93 14.1908C42.3445 13.9906 41.8522 13.5835 41.5455 13.0461C41.2387 12.5087 41.1386 11.8778 41.264 11.2718C41.3219 10.5227 41.5058 9.78872 41.808 9.10081L42.608 7.88281L45.753 8.52581L45.922 10.1918L45.279 11.4268C46.417 10.5888 46.941 11.5428 46.469 12.2248Z" fill="#B55B52"/>
<path d="M42.769 12.209C42.6927 12.2094 42.6165 12.204 42.541 12.193C42.5337 12.1917 42.5268 12.189 42.5205 12.1851C42.5143 12.1812 42.5088 12.176 42.5046 12.17C42.5003 12.164 42.4972 12.1571 42.4956 12.1499C42.494 12.1427 42.4938 12.1353 42.495 12.128C42.4962 12.1207 42.4989 12.1137 42.5029 12.1075C42.5068 12.1012 42.5119 12.0958 42.518 12.0915C42.524 12.0872 42.5308 12.0842 42.5381 12.0825C42.5453 12.0809 42.5527 12.0807 42.56 12.082C42.7751 12.1216 42.997 12.0999 43.2003 12.0195C43.4037 11.939 43.5803 11.803 43.71 11.627C43.7175 11.6137 43.7298 11.6039 43.7445 11.5998C43.7591 11.5957 43.7748 11.5975 43.788 11.605C43.8013 11.6124 43.811 11.6248 43.8152 11.6394C43.8193 11.654 43.8174 11.6697 43.81 11.683C43.6985 11.8548 43.5434 11.9941 43.3605 12.0865C43.1776 12.1789 42.9735 12.2211 42.769 12.209Z" fill="#263238"/>
<path d="M42.549 11.4742C42.583 11.4742 42.719 10.4482 42.719 10.4482L41.989 11.3262C42.0642 11.393 42.1541 11.4412 42.2514 11.4669C42.3486 11.4926 42.4506 11.4951 42.549 11.4742Z" fill="#A02724"/>
<path d="M43.68 10.4688C43.662 10.5958 43.58 10.6908 43.505 10.6798C43.43 10.6688 43.376 10.5558 43.394 10.4288C43.412 10.3018 43.494 10.2048 43.569 10.2168C43.644 10.2288 43.697 10.3398 43.68 10.4688Z" fill="#263238"/>
<path d="M42.126 10.3271C42.108 10.4541 42.026 10.5491 41.951 10.5381C41.876 10.5271 41.822 10.4161 41.84 10.2871C41.858 10.1581 41.94 10.0651 42.015 10.0761C42.09 10.0871 42.151 10.1981 42.126 10.3271Z" fill="#263238"/>
<path d="M44.31 9.89161C44.2958 9.89152 44.2818 9.88745 44.2698 9.87985C44.2578 9.87224 44.2481 9.86142 44.242 9.84861C44.051 9.44161 43.78 9.49461 43.769 9.49661C43.7509 9.49803 43.733 9.49297 43.7183 9.48232C43.7037 9.47168 43.6933 9.45616 43.6891 9.43856C43.6849 9.42096 43.6871 9.40243 43.6953 9.38631C43.7035 9.37019 43.7172 9.35753 43.734 9.35061C43.75 9.35061 44.134 9.26061 44.377 9.78461C44.3852 9.8028 44.3859 9.82348 44.379 9.84219C44.372 9.8609 44.358 9.87614 44.34 9.88461C44.3306 9.88908 44.3204 9.89147 44.31 9.89161Z" fill="#263238"/>
<path d="M41.632 9.62286C41.6226 9.62289 41.6132 9.62104 41.6044 9.61744C41.5957 9.61384 41.5877 9.60854 41.581 9.60186C41.5739 9.59497 41.5683 9.58672 41.5645 9.57762C41.5606 9.56852 41.5587 9.55874 41.5587 9.54886C41.5587 9.53898 41.5606 9.5292 41.5645 9.5201C41.5683 9.51099 41.5739 9.50275 41.581 9.49586C41.7068 9.36554 41.8669 9.27354 42.0428 9.23053C42.2188 9.18752 42.4033 9.19526 42.575 9.25286C42.5845 9.2565 42.5931 9.26199 42.6004 9.26902C42.6078 9.27605 42.6136 9.28447 42.6176 9.29379C42.6216 9.30311 42.6237 9.31314 42.6238 9.32329C42.6238 9.33343 42.6219 9.34348 42.618 9.35286C42.6103 9.37164 42.5954 9.38659 42.5767 9.39445C42.5579 9.40232 42.5368 9.40247 42.518 9.39486C42.3743 9.34935 42.2207 9.3447 42.0745 9.38143C41.9283 9.41816 41.7952 9.49483 41.69 9.60286C41.6825 9.61032 41.6733 9.61598 41.6633 9.61945C41.6532 9.62291 41.6426 9.62408 41.632 9.62286Z" fill="#263238"/>
<path opacity="0.2" d="M43.632 14.1045C43.5064 14.3122 43.3298 14.4843 43.119 14.6045C43.0774 14.4565 43.0159 14.3148 42.936 14.1835C43.171 14.2055 43.4079 14.1786 43.632 14.1045Z" fill="black"/>
<path d="M45.608 8.66726C45.608 8.66726 42.894 9.39225 41.814 9.00825C40.734 8.62425 41.114 7.29525 41.257 7.17025C41.457 7.00025 41.891 7.70425 41.891 7.70425C41.891 7.70425 41.536 6.95025 41.814 6.78425C42.092 6.61825 42.136 7.74925 43.149 7.63025C44.162 7.51125 46.971 6.74726 47.136 8.51326C47.2348 9.57227 47.0627 10.639 46.636 11.6133C46.636 11.6133 46.486 10.6483 45.291 11.4132C45.2367 11.3756 45.1924 11.3254 45.1618 11.2669C45.1312 11.2083 45.1152 11.1433 45.1152 11.0773C45.1152 11.0112 45.1312 10.9462 45.1618 10.8876C45.1924 10.8291 45.2367 10.7789 45.291 10.7413C45.5331 10.4601 45.6912 10.1165 45.7473 9.74977C45.8034 9.38301 45.7551 9.00787 45.608 8.66726Z" fill="#263238"/>
<path d="M45.32 8.52554C45.32 8.52554 44.849 10.0665 45.72 9.99255C46.591 9.91855 46.055 8.31055 46.055 8.31055L45.32 8.52554Z" fill="#263238"/>
<path d="M43.041 7.72161C43.041 7.72161 42.475 7.30461 42.62 7.00261C42.765 6.70061 42.99 7.43061 44.12 7.29661C45.25 7.16261 46.586 7.06161 46.834 7.80961C47.082 8.55761 44.582 7.98861 44.582 7.98861L43.041 8.31961V7.72161Z" fill="#263238"/>
<path d="M42.845 26.132L41.756 25.825C41.756 25.825 40.469 25.746 40.361 26.237C40.253 26.728 40.2 27.574 40.712 27.637C41.4121 27.6652 42.1131 27.6545 42.812 27.605L42.845 26.132Z" fill="#B55B52"/>
<path d="M46.56 18.6588L48.315 17.0918C48.315 17.0918 50.488 21.9168 50.615 23.7718C50.643 24.4964 50.3998 25.2054 49.9328 25.7603C49.4659 26.3151 48.8088 26.6758 48.09 26.7718C46.876 27.0838 42.851 27.9158 42.851 27.9158L42.634 25.6768C44.6519 25.3511 46.6382 24.8529 48.571 24.1878C48.559 24.1918 47.075 19.8728 46.56 18.6588Z" fill="#278DFF"/>
<path opacity="0.1" d="M42.846 27.9207L46.903 27.0537L46.914 27.6647L42.846 27.9207Z" fill="black"/>
<path d="M43.332 16.8238L43.794 18.0428C44.5274 17.5029 45.2024 16.8879 45.808 16.2078L45.139 15.0928C44.7331 15.845 44.101 16.4506 43.332 16.8238Z" fill="#FAFAFA"/>
<path d="M42.994 15.4902C43.0074 15.954 43.1228 16.4091 43.332 16.8232L42.832 17.9492C42.577 17.6912 42.3827 17.3796 42.263 17.0372C42.1433 16.6947 42.1013 16.3299 42.14 15.9692L42.994 15.4902Z" fill="#FAFAFA"/>
</svg>
