<svg width="41" height="48" viewBox="0 0 41 48" fill="none" xmlns="http://www.w3.org/2000/svg">
<path d="M40.03 12.9465C40.006 11.6875 39.983 10.4995 39.983 9.3465C39.9828 8.91401 39.8108 8.49933 39.505 8.19351C39.1992 7.8877 38.7845 7.71578 38.352 7.71552C31.375 7.71552 26.064 5.71052 21.636 1.40552C21.3315 1.10919 20.9234 0.943359 20.4985 0.943359C20.0736 0.943359 19.6655 1.10919 19.361 1.40552C14.934 5.70552 9.62301 7.71552 2.64601 7.71552C2.21422 7.71684 1.80057 7.88922 1.49562 8.19492C1.19067 8.50062 1.01929 8.9147 1.01903 9.3465C1.01903 10.4965 0.99703 11.6865 0.97203 12.9465C0.74903 24.6555 0.44203 40.6935 19.972 47.4615C20.3179 47.5818 20.6942 47.5818 21.04 47.4615C40.566 40.6935 40.26 24.6555 40.04 12.9455L40.03 12.9465ZM20.499 44.1915C3.75301 38.1085 4.00603 24.7825 4.23103 13.0105C4.24503 12.3045 4.25701 11.6185 4.26701 10.9475C10.2361 10.8878 15.9894 8.70763 20.499 4.79651C25.0094 8.70749 30.7634 10.8873 36.733 10.9465C36.743 11.6175 36.755 12.3025 36.769 13.0075C36.993 24.7795 37.246 38.1075 20.499 44.1895V44.1915Z" fill="black"/>
<path d="M26.116 18.5833L18.243 26.4563L14.881 23.0953C14.5751 22.7893 14.1602 22.6175 13.7275 22.6175C13.2949 22.6175 12.8799 22.7893 12.574 23.0953C12.2681 23.4012 12.0962 23.8161 12.0962 24.2488C12.0962 24.6814 12.2681 25.0964 12.574 25.4023L17.088 29.9163C17.2395 30.0678 17.4193 30.188 17.6172 30.27C17.8151 30.352 18.0273 30.3942 18.2415 30.3942C18.4558 30.3942 18.6679 30.352 18.8658 30.27C19.0637 30.188 19.2436 30.0678 19.395 29.9163L28.421 20.8903C28.7269 20.5843 28.8988 20.1694 28.8988 19.7368C28.8988 19.3041 28.7269 18.8892 28.421 18.5833C28.1151 18.2774 27.7002 18.1055 27.2675 18.1055C26.8349 18.1055 26.4199 18.2774 26.114 18.5833H26.116Z" fill="black"/>
</svg>
