<svg width="56" height="58" viewBox="0 0 56 58" fill="none" xmlns="http://www.w3.org/2000/svg">
<path fill-rule="evenodd" clip-rule="evenodd" d="M48.0053 1.37036C51.7052 1.37036 54.7045 4.36968 54.7045 8.06954V41.5654C54.7045 45.2653 51.7052 48.2646 48.0053 48.2646L37.9599 48.2612L30.2763 55.9448C29.0688 57.1523 27.1688 57.2452 25.8548 56.2235L25.5393 55.9448L17.8557 48.2612L7.81026 48.2646C4.11041 48.2646 1.11108 45.2653 1.11108 41.5654V8.06954C1.11108 4.36968 4.11041 1.37036 7.81026 1.37036H48.0053Z" stroke="#9269AD" stroke-linecap="round" stroke-linejoin="round"/>
<path d="M44.6556 18.1182H24.5581" stroke="#9269AD" stroke-linecap="round" stroke-linejoin="round"/>
<path fill-rule="evenodd" clip-rule="evenodd" d="M14.5056 21.4677C16.1804 21.4677 17.8552 19.7929 17.8552 18.1181C17.8552 16.4433 16.1804 14.7686 14.5056 14.7686C12.8308 14.7686 11.1599 16.4433 11.1599 18.1181C11.1599 19.7929 12.8308 21.4677 14.5056 21.4677ZM14.5056 34.8661C16.1804 34.8661 17.8552 33.1913 17.8552 31.5165C17.8552 29.8417 16.1804 28.1669 14.5056 28.1669C12.8308 28.1669 11.1599 29.8417 11.1599 31.5165C11.1599 33.1913 12.8308 34.8661 14.5056 34.8661Z" fill="#9269AD"/>
<path d="M44.6556 31.5168H24.5581" stroke="#9269AD" stroke-linecap="round" stroke-linejoin="round"/>
</svg>
