<svg width="20" height="26" viewBox="0 0 20 26" fill="none" xmlns="http://www.w3.org/2000/svg">
<path d="M14.9717 6.31274H13.9778V5.31873C13.9778 5.05497 13.873 4.80201 13.6865 4.61551C13.5 4.429 13.247 4.32422 12.9833 4.32422C12.7195 4.32422 12.4665 4.429 12.28 4.61551C12.0935 4.80201 11.9888 5.05497 11.9888 5.31873V7.30774C11.9888 7.57136 12.0935 7.82418 12.2799 8.01059C12.4663 8.197 12.7192 8.30173 12.9828 8.30173H14.9717C15.2355 8.30173 15.4885 8.19694 15.675 8.01044C15.8615 7.82393 15.9662 7.57098 15.9662 7.30722C15.9662 7.04346 15.8615 6.79051 15.675 6.604C15.4885 6.4175 15.2355 6.31274 14.9717 6.31274Z" fill="#407BFC"/>
<path d="M14.9719 25.9999C16.2899 25.9983 17.5536 25.474 18.4855 24.5418C19.4175 23.6097 19.9415 22.346 19.9429 21.0279V5.51691C19.9415 4.19883 19.4175 2.93511 18.4855 2.00299C17.5536 1.07088 16.2899 0.54651 14.9719 0.544922H5.02887C3.71062 0.546246 2.44673 1.07051 1.51459 2.00266C0.582443 2.9348 0.0582084 4.19866 0.0568848 5.51691V21.0289C0.0582084 22.3472 0.582443 23.611 1.51459 24.5432C2.44673 25.4753 3.71062 25.9996 5.02887 26.0009L14.9719 25.9999ZM2.0459 21.0279V5.51691C2.04669 4.72601 2.36122 3.96776 2.92047 3.40851C3.47972 2.84926 4.23797 2.53473 5.02887 2.53394H14.9719C15.7628 2.53473 16.5211 2.84926 17.0803 3.40851C17.6396 3.96776 17.9541 4.72601 17.9549 5.51691V21.0289C17.9538 21.8197 17.6392 22.5779 17.08 23.1371C16.5208 23.6962 15.7627 24.0109 14.9719 24.0119H5.02887C4.23797 24.0111 3.47972 23.6966 2.92047 23.1373C2.36122 22.5781 2.04669 21.8198 2.0459 21.0289V21.0279Z" fill="#407BFC"/>
<path d="M9.00598 12.2781H14.972C15.2357 12.2781 15.4887 12.1733 15.6752 11.9868C15.8617 11.8003 15.9665 11.5473 15.9665 11.2836C15.9665 11.0198 15.8617 10.7669 15.6752 10.5804C15.4887 10.3938 15.2357 10.2891 14.972 10.2891H9.00598C8.74222 10.2891 8.48924 10.3938 8.30273 10.5804C8.11623 10.7669 8.01147 11.0198 8.01147 11.2836C8.01147 11.5473 8.11623 11.8003 8.30273 11.9868C8.48924 12.1733 8.74222 12.2781 9.00598 12.2781Z" fill="#407BFC"/>
<path d="M9.00598 16.2566H14.972C15.2357 16.2566 15.4887 16.1518 15.6752 15.9653C15.8617 15.7788 15.9665 15.5258 15.9665 15.2621C15.9665 14.9983 15.8617 14.7453 15.6752 14.5588C15.4887 14.3723 15.2357 14.2676 14.972 14.2676H9.00598C8.74222 14.2676 8.48924 14.3723 8.30273 14.5588C8.11623 14.7453 8.01147 14.9983 8.01147 15.2621C8.01147 15.5258 8.11623 15.7788 8.30273 15.9653C8.48924 16.1518 8.74222 16.2566 9.00598 16.2566Z" fill="#407BFC"/>
<path d="M9.00598 20.2332H14.972C15.2357 20.2332 15.4887 20.1283 15.6752 19.9418C15.8617 19.7553 15.9665 19.5024 15.9665 19.2386C15.9665 18.9749 15.8617 18.7219 15.6752 18.5354C15.4887 18.3489 15.2357 18.2441 14.972 18.2441H9.00598C8.74222 18.2441 8.48924 18.3489 8.30273 18.5354C8.11623 18.7219 8.01147 18.9749 8.01147 19.2386C8.01147 19.5024 8.11623 19.7553 8.30273 19.9418C8.48924 20.1283 8.74222 20.2332 9.00598 20.2332Z" fill="#407BFC"/>
<path d="M6.02294 11.2831C6.02294 11.4796 5.96462 11.6718 5.8554 11.8353C5.74618 11.9988 5.59092 12.1262 5.40929 12.2014C5.22766 12.2766 5.02783 12.2963 4.83501 12.258C4.6422 12.2196 4.46506 12.1249 4.32604 11.9859C4.18703 11.8469 4.09236 11.6698 4.05401 11.477C4.01565 11.2842 4.03535 11.0843 4.11059 10.9027C4.18582 10.721 4.31321 10.5658 4.47668 10.4566C4.64014 10.3474 4.83233 10.2891 5.02892 10.2891C5.15946 10.2891 5.2887 10.3148 5.40929 10.3647C5.52989 10.4147 5.6395 10.4879 5.7318 10.5802C5.8241 10.6725 5.8973 10.7821 5.94726 10.9027C5.99721 11.0233 6.02294 11.1525 6.02294 11.2831Z" fill="#407BFC"/>
<path d="M6.02294 15.2616C6.02294 15.4582 5.96462 15.6504 5.8554 15.8138C5.74618 15.9773 5.59092 16.1047 5.40929 16.1799C5.22766 16.2552 5.02783 16.2748 4.83501 16.2365C4.6422 16.1981 4.46506 16.1034 4.32604 15.9644C4.18703 15.8254 4.09236 15.6483 4.05401 15.4555C4.01565 15.2627 4.03535 15.0628 4.11059 14.8812C4.18582 14.6995 4.31321 14.5443 4.47668 14.4351C4.64014 14.3259 4.83233 14.2676 5.02892 14.2676C5.15946 14.2676 5.2887 14.2933 5.40929 14.3433C5.52989 14.3932 5.6395 14.4664 5.7318 14.5587C5.8241 14.651 5.8973 14.7606 5.94726 14.8812C5.99721 15.0018 6.02294 15.1311 6.02294 15.2616Z" fill="#407BFC"/>
<path d="M6.02294 19.2382C6.02294 19.4348 5.96462 19.6269 5.8554 19.7904C5.74618 19.9539 5.59092 20.0813 5.40929 20.1565C5.22766 20.2317 5.02783 20.2514 4.83501 20.213C4.6422 20.1747 4.46506 20.08 4.32604 19.941C4.18703 19.802 4.09236 19.6249 4.05401 19.4321C4.01565 19.2393 4.03535 19.0394 4.11059 18.8577C4.18582 18.6761 4.31321 18.5209 4.47668 18.4117C4.64014 18.3025 4.83233 18.2441 5.02892 18.2441C5.15946 18.2441 5.2887 18.2699 5.40929 18.3198C5.52989 18.3698 5.6395 18.443 5.7318 18.5353C5.8241 18.6276 5.8973 18.7371 5.94726 18.8577C5.99721 18.9783 6.02294 19.1076 6.02294 19.2382Z" fill="#407BFC"/>
</svg>
