<svg width="55" height="55" viewBox="0 0 55 55" fill="none" xmlns="http://www.w3.org/2000/svg">
<path d="M27.5 0C12.3359 0 0 12.3359 0 27.5C0 32.6732 1.4374 37.6951 4.16413 42.056C3.07788 45.8615 1.11587 53.0602 1.09471 53.1353C0.993173 53.5076 1.10212 53.9053 1.38029 54.1729C1.65846 54.4405 2.06038 54.5357 2.42635 54.4236L13.3269 51.0707C17.5968 53.643 22.4865 55 27.5 55C42.6641 55 55 42.6641 55 27.5C55 12.3359 42.6641 0 27.5 0ZM27.5 52.8846C22.7203 52.8846 18.0643 51.5487 14.0345 49.023C13.8642 48.9162 13.6686 48.8622 13.4729 48.8622C13.3682 48.8622 13.2635 48.8781 13.1619 48.9087L3.64375 51.8386C4.34288 49.2863 5.59942 44.7213 6.32817 42.1818C6.41279 41.8878 6.36519 41.5705 6.19913 41.3135C3.5274 37.2022 2.11538 32.4257 2.11538 27.5C2.11538 13.5036 13.5036 2.11538 27.5 2.11538C41.4964 2.11538 52.8846 13.5036 52.8846 27.5C52.8846 41.4964 41.4964 52.8846 27.5 52.8846Z" fill="#9269AD"/>
<path d="M45.4649 33.9794C43.5124 32.8953 41.8497 31.808 40.6365 31.0147C39.71 30.4097 39.0405 29.9729 38.5497 29.7265C37.1779 29.0421 36.1381 29.5255 35.7426 29.9253C35.6929 29.975 35.6484 30.029 35.6104 30.0861C34.1856 32.2237 32.3252 34.2682 31.7805 34.3782C31.1511 34.2798 28.2055 32.6055 25.2778 30.1675C22.2887 27.6767 20.4081 25.2916 20.1321 23.6669C22.0497 21.6933 22.7404 20.4516 22.7404 19.0385C22.7404 17.582 19.3431 11.5014 18.7285 10.8868C18.1119 10.2713 16.7231 10.175 14.6004 10.5981C14.3962 10.6393 14.208 10.7398 14.0599 10.8868C13.8029 11.1439 7.78882 17.2753 10.6467 24.7067C13.7838 32.8625 21.836 42.3426 32.102 43.8826C33.2686 44.0571 34.3623 44.1439 35.3861 44.1439C41.4256 44.1439 44.99 41.1051 45.9937 35.0773C46.0688 34.6363 45.8562 34.1963 45.4649 33.9794ZM32.4161 41.7905C21.56 40.1627 14.722 29.407 12.6214 23.9472C10.5378 18.5318 14.3804 13.7035 15.345 12.6119C16.1298 12.4787 16.9558 12.4226 17.3006 12.4766C18.0209 13.4782 20.515 18.1902 20.625 19.0385C20.625 19.5938 20.4441 20.3669 18.2906 22.5215C18.0918 22.7193 17.9807 22.9879 17.9807 23.2693C17.9807 28.8073 29.6619 36.4904 31.7307 36.4904C33.5299 36.4904 35.8758 33.4665 37.2117 31.496C37.2889 31.4992 37.419 31.5256 37.6041 31.6187C37.9849 31.8101 38.6449 32.2406 39.4794 32.7864C40.5815 33.5067 42.0454 34.4628 43.7736 35.4539C42.9888 39.2298 40.7952 43.0492 32.4161 41.7905Z" fill="#9269AD"/>
</svg>
